<?xml version="1.0" encoding="utf-8"?>
<svg xmlns="http://www.w3.org/2000/svg" xmlns:xlink="http://www.w3.org/1999/xlink" width="600" height="400" viewBox="0 0 2400 1600">
<defs>
  <clipPath id="clip480">
    <rect x="0" y="0" width="2400" height="1600"/>
  </clipPath>
</defs>
<path clip-path="url(#clip480)" d="
M0 1600 L2400 1600 L2400 0 L0 0  Z
  " fill="#000000" fill-rule="evenodd" fill-opacity="0"/>
<defs>
  <clipPath id="clip481">
    <rect x="480" y="0" width="1681" height="1600"/>
  </clipPath>
</defs>
<defs>
  <clipPath id="clip482">
    <rect x="262" y="47" width="2091" height="1364"/>
  </clipPath>
</defs>
<path clip-path="url(#clip480)" d="
M290.581 1410.22 L2352.76 1410.22 L2352.76 47.2441 L290.581 47.2441  Z
  " fill="#000000" fill-rule="evenodd" fill-opacity="0"/>
<defs>
  <clipPath id="clip483">
    <rect x="290" y="47" width="2063" height="1364"/>
  </clipPath>
</defs>
<polyline clip-path="url(#clip480)" style="stroke:#000000; stroke-linecap:butt; stroke-linejoin:round; stroke-width:4; stroke-opacity:1; fill:none" points="
  290.581,1410.22 2352.76,1410.22 
  "/>
<polyline clip-path="url(#clip480)" style="stroke:#000000; stroke-linecap:butt; stroke-linejoin:round; stroke-width:4; stroke-opacity:1; fill:none" points="
  412.409,1410.22 412.409,1391.32 
  "/>
<polyline clip-path="url(#clip480)" style="stroke:#000000; stroke-linecap:butt; stroke-linejoin:round; stroke-width:4; stroke-opacity:1; fill:none" points="
  760.915,1410.22 760.915,1391.32 
  "/>
<polyline clip-path="url(#clip480)" style="stroke:#000000; stroke-linecap:butt; stroke-linejoin:round; stroke-width:4; stroke-opacity:1; fill:none" points="
  1109.42,1410.22 1109.42,1391.32 
  "/>
<polyline clip-path="url(#clip480)" style="stroke:#000000; stroke-linecap:butt; stroke-linejoin:round; stroke-width:4; stroke-opacity:1; fill:none" points="
  1457.93,1410.22 1457.93,1391.32 
  "/>
<polyline clip-path="url(#clip480)" style="stroke:#000000; stroke-linecap:butt; stroke-linejoin:round; stroke-width:4; stroke-opacity:1; fill:none" points="
  1806.43,1410.22 1806.43,1391.32 
  "/>
<polyline clip-path="url(#clip480)" style="stroke:#000000; stroke-linecap:butt; stroke-linejoin:round; stroke-width:4; stroke-opacity:1; fill:none" points="
  2154.94,1410.22 2154.94,1391.32 
  "/>
<path clip-path="url(#clip480)" d="M364.979 1468.68 L372.618 1468.68 L372.618 1442.32 L364.307 1443.99 L364.307 1439.73 L372.571 1438.06 L377.247 1438.06 L377.247 1468.68 L384.886 1468.68 L384.886 1472.62 L364.979 1472.62 L364.979 1468.68 Z" fill="#000000" fill-rule="evenodd" fill-opacity="1" /><path clip-path="url(#clip480)" d="M398.358 1468.68 L414.678 1468.68 L414.678 1472.62 L392.733 1472.62 L392.733 1468.68 Q395.395 1465.93 399.979 1461.3 Q404.585 1456.65 405.766 1455.31 Q408.011 1452.78 408.891 1451.05 Q409.793 1449.29 409.793 1447.6 Q409.793 1444.84 407.849 1443.11 Q405.928 1441.37 402.826 1441.37 Q400.627 1441.37 398.173 1442.13 Q395.742 1442.9 392.965 1444.45 L392.965 1439.73 Q395.789 1438.59 398.242 1438.01 Q400.696 1437.43 402.733 1437.43 Q408.104 1437.43 411.298 1440.12 Q414.492 1442.81 414.492 1447.3 Q414.492 1449.43 413.682 1451.35 Q412.895 1453.24 410.789 1455.84 Q410.21 1456.51 407.108 1459.73 Q404.006 1462.92 398.358 1468.68 Z" fill="#000000" fill-rule="evenodd" fill-opacity="1" /><path clip-path="url(#clip480)" d="M424.492 1466.74 L429.377 1466.74 L429.377 1472.62 L424.492 1472.62 L424.492 1466.74 Z" fill="#000000" fill-rule="evenodd" fill-opacity="1" /><path clip-path="url(#clip480)" d="M439.608 1438.06 L457.964 1438.06 L457.964 1442 L443.89 1442 L443.89 1450.47 Q444.909 1450.12 445.927 1449.96 Q446.946 1449.77 447.964 1449.77 Q453.751 1449.77 457.131 1452.94 Q460.511 1456.12 460.511 1461.53 Q460.511 1467.11 457.038 1470.21 Q453.566 1473.29 447.247 1473.29 Q445.071 1473.29 442.802 1472.92 Q440.557 1472.55 438.15 1471.81 L438.15 1467.11 Q440.233 1468.24 442.455 1468.8 Q444.677 1469.36 447.154 1469.36 Q451.159 1469.36 453.497 1467.25 Q455.835 1465.14 455.835 1461.53 Q455.835 1457.92 453.497 1455.81 Q451.159 1453.71 447.154 1453.71 Q445.279 1453.71 443.404 1454.12 Q441.552 1454.54 439.608 1455.42 L439.608 1438.06 Z" fill="#000000" fill-rule="evenodd" fill-opacity="1" /><path clip-path="url(#clip480)" d="M712.987 1468.68 L720.626 1468.68 L720.626 1442.32 L712.316 1443.99 L712.316 1439.73 L720.58 1438.06 L725.256 1438.06 L725.256 1468.68 L732.895 1468.68 L732.895 1472.62 L712.987 1472.62 L712.987 1468.68 Z" fill="#000000" fill-rule="evenodd" fill-opacity="1" /><path clip-path="url(#clip480)" d="M742.385 1438.06 L760.742 1438.06 L760.742 1442 L746.668 1442 L746.668 1450.47 Q747.686 1450.12 748.705 1449.96 Q749.723 1449.77 750.742 1449.77 Q756.529 1449.77 759.908 1452.94 Q763.288 1456.12 763.288 1461.53 Q763.288 1467.11 759.816 1470.21 Q756.344 1473.29 750.024 1473.29 Q747.848 1473.29 745.58 1472.92 Q743.334 1472.55 740.927 1471.81 L740.927 1467.11 Q743.01 1468.24 745.233 1468.8 Q747.455 1469.36 749.932 1469.36 Q753.936 1469.36 756.274 1467.25 Q758.612 1465.14 758.612 1461.53 Q758.612 1457.92 756.274 1455.81 Q753.936 1453.71 749.932 1453.71 Q748.057 1453.71 746.182 1454.12 Q744.33 1454.54 742.385 1455.42 L742.385 1438.06 Z" fill="#000000" fill-rule="evenodd" fill-opacity="1" /><path clip-path="url(#clip480)" d="M772.501 1466.74 L777.385 1466.74 L777.385 1472.62 L772.501 1472.62 L772.501 1466.74 Z" fill="#000000" fill-rule="evenodd" fill-opacity="1" /><path clip-path="url(#clip480)" d="M797.57 1441.14 Q793.959 1441.14 792.131 1444.7 Q790.325 1448.24 790.325 1455.37 Q790.325 1462.48 792.131 1466.05 Q793.959 1469.59 797.57 1469.59 Q801.205 1469.59 803.01 1466.05 Q804.839 1462.48 804.839 1455.37 Q804.839 1448.24 803.01 1444.7 Q801.205 1441.14 797.57 1441.14 M797.57 1437.43 Q803.38 1437.43 806.436 1442.04 Q809.515 1446.62 809.515 1455.37 Q809.515 1464.1 806.436 1468.71 Q803.38 1473.29 797.57 1473.29 Q791.76 1473.29 788.681 1468.71 Q785.626 1464.1 785.626 1455.37 Q785.626 1446.62 788.681 1442.04 Q791.76 1437.43 797.57 1437.43 Z" fill="#000000" fill-rule="evenodd" fill-opacity="1" /><path clip-path="url(#clip480)" d="M1061.99 1468.68 L1069.63 1468.68 L1069.63 1442.32 L1061.32 1443.99 L1061.32 1439.73 L1069.58 1438.06 L1074.26 1438.06 L1074.26 1468.68 L1081.9 1468.68 L1081.9 1472.62 L1061.99 1472.62 L1061.99 1468.68 Z" fill="#000000" fill-rule="evenodd" fill-opacity="1" /><path clip-path="url(#clip480)" d="M1090.16 1438.06 L1112.38 1438.06 L1112.38 1440.05 L1099.84 1472.62 L1094.95 1472.62 L1106.76 1442 L1090.16 1442 L1090.16 1438.06 Z" fill="#000000" fill-rule="evenodd" fill-opacity="1" /><path clip-path="url(#clip480)" d="M1121.51 1466.74 L1126.39 1466.74 L1126.39 1472.62 L1121.51 1472.62 L1121.51 1466.74 Z" fill="#000000" fill-rule="evenodd" fill-opacity="1" /><path clip-path="url(#clip480)" d="M1136.62 1438.06 L1154.98 1438.06 L1154.98 1442 L1140.9 1442 L1140.9 1450.47 Q1141.92 1450.12 1142.94 1449.96 Q1143.96 1449.77 1144.98 1449.77 Q1150.76 1449.77 1154.14 1452.94 Q1157.52 1456.12 1157.52 1461.53 Q1157.52 1467.11 1154.05 1470.21 Q1150.58 1473.29 1144.26 1473.29 Q1142.08 1473.29 1139.82 1472.92 Q1137.57 1472.55 1135.16 1471.81 L1135.16 1467.11 Q1137.25 1468.24 1139.47 1468.8 Q1141.69 1469.36 1144.17 1469.36 Q1148.17 1469.36 1150.51 1467.25 Q1152.85 1465.14 1152.85 1461.53 Q1152.85 1457.92 1150.51 1455.81 Q1148.17 1453.71 1144.17 1453.71 Q1142.29 1453.71 1140.42 1454.12 Q1138.57 1454.54 1136.62 1455.42 L1136.62 1438.06 Z" fill="#000000" fill-rule="evenodd" fill-opacity="1" /><path clip-path="url(#clip480)" d="M1414.09 1468.68 L1430.41 1468.68 L1430.41 1472.62 L1408.46 1472.62 L1408.46 1468.68 Q1411.12 1465.93 1415.71 1461.3 Q1420.31 1456.65 1421.49 1455.31 Q1423.74 1452.78 1424.62 1451.05 Q1425.52 1449.29 1425.52 1447.6 Q1425.52 1444.84 1423.58 1443.11 Q1421.66 1441.37 1418.55 1441.37 Q1416.35 1441.37 1413.9 1442.13 Q1411.47 1442.9 1408.69 1444.45 L1408.69 1439.73 Q1411.52 1438.59 1413.97 1438.01 Q1416.42 1437.43 1418.46 1437.43 Q1423.83 1437.43 1427.03 1440.12 Q1430.22 1442.81 1430.22 1447.3 Q1430.22 1449.43 1429.41 1451.35 Q1428.62 1453.24 1426.52 1455.84 Q1425.94 1456.51 1422.84 1459.73 Q1419.73 1462.92 1414.09 1468.68 Z" fill="#000000" fill-rule="evenodd" fill-opacity="1" /><path clip-path="url(#clip480)" d="M1450.22 1441.14 Q1446.61 1441.14 1444.78 1444.7 Q1442.97 1448.24 1442.97 1455.37 Q1442.97 1462.48 1444.78 1466.05 Q1446.61 1469.59 1450.22 1469.59 Q1453.85 1469.59 1455.66 1466.05 Q1457.49 1462.48 1457.49 1455.37 Q1457.49 1448.24 1455.66 1444.7 Q1453.85 1441.14 1450.22 1441.14 M1450.22 1437.43 Q1456.03 1437.43 1459.09 1442.04 Q1462.16 1446.62 1462.16 1455.37 Q1462.16 1464.1 1459.09 1468.71 Q1456.03 1473.29 1450.22 1473.29 Q1444.41 1473.29 1441.33 1468.71 Q1438.28 1464.1 1438.28 1455.37 Q1438.28 1446.62 1441.33 1442.04 Q1444.41 1437.43 1450.22 1437.43 Z" fill="#000000" fill-rule="evenodd" fill-opacity="1" /><path clip-path="url(#clip480)" d="M1470.38 1466.74 L1475.27 1466.74 L1475.27 1472.62 L1470.38 1472.62 L1470.38 1466.74 Z" fill="#000000" fill-rule="evenodd" fill-opacity="1" /><path clip-path="url(#clip480)" d="M1495.45 1441.14 Q1491.84 1441.14 1490.01 1444.7 Q1488.21 1448.24 1488.21 1455.37 Q1488.21 1462.48 1490.01 1466.05 Q1491.84 1469.59 1495.45 1469.59 Q1499.09 1469.59 1500.89 1466.05 Q1502.72 1462.48 1502.72 1455.37 Q1502.72 1448.24 1500.89 1444.7 Q1499.09 1441.14 1495.45 1441.14 M1495.45 1437.43 Q1501.26 1437.43 1504.32 1442.04 Q1507.4 1446.62 1507.4 1455.37 Q1507.4 1464.1 1504.32 1468.71 Q1501.26 1473.29 1495.45 1473.29 Q1489.64 1473.29 1486.56 1468.71 Q1483.51 1464.1 1483.51 1455.37 Q1483.51 1446.62 1486.56 1442.04 Q1489.64 1437.43 1495.45 1437.43 Z" fill="#000000" fill-rule="evenodd" fill-opacity="1" /><path clip-path="url(#clip480)" d="M1763.09 1468.68 L1779.41 1468.68 L1779.41 1472.62 L1757.46 1472.62 L1757.46 1468.68 Q1760.13 1465.93 1764.71 1461.3 Q1769.32 1456.65 1770.5 1455.31 Q1772.74 1452.78 1773.62 1451.05 Q1774.52 1449.29 1774.52 1447.6 Q1774.52 1444.84 1772.58 1443.11 Q1770.66 1441.37 1767.56 1441.37 Q1765.36 1441.37 1762.9 1442.13 Q1760.47 1442.9 1757.7 1444.45 L1757.7 1439.73 Q1760.52 1438.59 1762.97 1438.01 Q1765.43 1437.43 1767.46 1437.43 Q1772.84 1437.43 1776.03 1440.12 Q1779.22 1442.81 1779.22 1447.3 Q1779.22 1449.43 1778.41 1451.35 Q1777.63 1453.24 1775.52 1455.84 Q1774.94 1456.51 1771.84 1459.73 Q1768.74 1462.92 1763.09 1468.68 Z" fill="#000000" fill-rule="evenodd" fill-opacity="1" /><path clip-path="url(#clip480)" d="M1793.25 1468.68 L1809.57 1468.68 L1809.57 1472.62 L1787.63 1472.62 L1787.63 1468.68 Q1790.29 1465.93 1794.87 1461.3 Q1799.48 1456.65 1800.66 1455.31 Q1802.9 1452.78 1803.78 1451.05 Q1804.69 1449.29 1804.69 1447.6 Q1804.69 1444.84 1802.74 1443.11 Q1800.82 1441.37 1797.72 1441.37 Q1795.52 1441.37 1793.07 1442.13 Q1790.64 1442.9 1787.86 1444.45 L1787.86 1439.73 Q1790.68 1438.59 1793.14 1438.01 Q1795.59 1437.43 1797.63 1437.43 Q1803 1437.43 1806.19 1440.12 Q1809.39 1442.81 1809.39 1447.3 Q1809.39 1449.43 1808.58 1451.35 Q1807.79 1453.24 1805.68 1455.84 Q1805.1 1456.51 1802 1459.73 Q1798.9 1462.92 1793.25 1468.68 Z" fill="#000000" fill-rule="evenodd" fill-opacity="1" /><path clip-path="url(#clip480)" d="M1819.39 1466.74 L1824.27 1466.74 L1824.27 1472.62 L1819.39 1472.62 L1819.39 1466.74 Z" fill="#000000" fill-rule="evenodd" fill-opacity="1" /><path clip-path="url(#clip480)" d="M1834.5 1438.06 L1852.86 1438.06 L1852.86 1442 L1838.78 1442 L1838.78 1450.47 Q1839.8 1450.12 1840.82 1449.96 Q1841.84 1449.77 1842.86 1449.77 Q1848.64 1449.77 1852.02 1452.94 Q1855.4 1456.12 1855.4 1461.53 Q1855.4 1467.11 1851.93 1470.21 Q1848.46 1473.29 1842.14 1473.29 Q1839.96 1473.29 1837.7 1472.92 Q1835.45 1472.55 1833.04 1471.81 L1833.04 1467.11 Q1835.13 1468.24 1837.35 1468.8 Q1839.57 1469.36 1842.05 1469.36 Q1846.05 1469.36 1848.39 1467.25 Q1850.73 1465.14 1850.73 1461.53 Q1850.73 1457.92 1848.39 1455.81 Q1846.05 1453.71 1842.05 1453.71 Q1840.17 1453.71 1838.3 1454.12 Q1836.45 1454.54 1834.5 1455.42 L1834.5 1438.06 Z" fill="#000000" fill-rule="evenodd" fill-opacity="1" /><path clip-path="url(#clip480)" d="M2111.1 1468.68 L2127.42 1468.68 L2127.42 1472.62 L2105.47 1472.62 L2105.47 1468.68 Q2108.14 1465.93 2112.72 1461.3 Q2117.33 1456.65 2118.51 1455.31 Q2120.75 1452.78 2121.63 1451.05 Q2122.53 1449.29 2122.53 1447.6 Q2122.53 1444.84 2120.59 1443.11 Q2118.67 1441.37 2115.57 1441.37 Q2113.37 1441.37 2110.91 1442.13 Q2108.48 1442.9 2105.7 1444.45 L2105.7 1439.73 Q2108.53 1438.59 2110.98 1438.01 Q2113.44 1437.43 2115.47 1437.43 Q2120.84 1437.43 2124.04 1440.12 Q2127.23 1442.81 2127.23 1447.3 Q2127.23 1449.43 2126.42 1451.35 Q2125.64 1453.24 2123.53 1455.84 Q2122.95 1456.51 2119.85 1459.73 Q2116.75 1462.92 2111.1 1468.68 Z" fill="#000000" fill-rule="evenodd" fill-opacity="1" /><path clip-path="url(#clip480)" d="M2137.28 1438.06 L2155.64 1438.06 L2155.64 1442 L2141.56 1442 L2141.56 1450.47 Q2142.58 1450.12 2143.6 1449.96 Q2144.62 1449.77 2145.64 1449.77 Q2151.42 1449.77 2154.8 1452.94 Q2158.18 1456.12 2158.18 1461.53 Q2158.18 1467.11 2154.71 1470.21 Q2151.24 1473.29 2144.92 1473.29 Q2142.74 1473.29 2140.47 1472.92 Q2138.23 1472.55 2135.82 1471.81 L2135.82 1467.11 Q2137.9 1468.24 2140.13 1468.8 Q2142.35 1469.36 2144.83 1469.36 Q2148.83 1469.36 2151.17 1467.25 Q2153.51 1465.14 2153.51 1461.53 Q2153.51 1457.92 2151.17 1455.81 Q2148.83 1453.71 2144.83 1453.71 Q2142.95 1453.71 2141.08 1454.12 Q2139.22 1454.54 2137.28 1455.42 L2137.28 1438.06 Z" fill="#000000" fill-rule="evenodd" fill-opacity="1" /><path clip-path="url(#clip480)" d="M2167.39 1466.74 L2172.28 1466.74 L2172.28 1472.62 L2167.39 1472.62 L2167.39 1466.74 Z" fill="#000000" fill-rule="evenodd" fill-opacity="1" /><path clip-path="url(#clip480)" d="M2192.46 1441.14 Q2188.85 1441.14 2187.02 1444.7 Q2185.22 1448.24 2185.22 1455.37 Q2185.22 1462.48 2187.02 1466.05 Q2188.85 1469.59 2192.46 1469.59 Q2196.1 1469.59 2197.9 1466.05 Q2199.73 1462.48 2199.73 1455.37 Q2199.73 1448.24 2197.9 1444.7 Q2196.1 1441.14 2192.46 1441.14 M2192.46 1437.43 Q2198.27 1437.43 2201.33 1442.04 Q2204.41 1446.62 2204.41 1455.37 Q2204.41 1464.1 2201.33 1468.71 Q2198.27 1473.29 2192.46 1473.29 Q2186.65 1473.29 2183.57 1468.71 Q2180.52 1464.1 2180.52 1455.37 Q2180.52 1446.62 2183.57 1442.04 Q2186.65 1437.43 2192.46 1437.43 Z" fill="#000000" fill-rule="evenodd" fill-opacity="1" /><path clip-path="url(#clip480)" d="M1216.6 1572.73 L1216.6 1570.15 Q1221.07 1570.15 1222.09 1569.62 Q1223.12 1569.04 1223.12 1566.34 L1223.12 1522.68 Q1223.12 1519.57 1222.01 1518.79 Q1220.94 1518.01 1216.6 1518.01 L1216.6 1515.39 L1228.65 1514.49 L1228.65 1566.34 Q1228.65 1569.04 1229.72 1569.62 Q1230.78 1570.15 1235.21 1570.15 L1235.21 1572.73 Q1234.18 1572.73 1232.05 1572.65 Q1229.92 1572.57 1228.36 1572.53 Q1226.81 1572.48 1225.9 1572.48 Q1224.92 1572.48 1216.6 1572.73 Z" fill="#000000" fill-rule="evenodd" fill-opacity="1" /><path clip-path="url(#clip480)" d="M1247.84 1568.22 Q1242.3 1562.73 1242.3 1554.78 Q1242.3 1546.78 1247.72 1540.96 Q1253.17 1535.1 1260.95 1535.1 Q1268.58 1535.1 1274.03 1540.92 Q1279.52 1546.7 1279.52 1554.78 Q1279.52 1562.69 1273.99 1568.18 Q1268.5 1573.67 1260.87 1573.67 Q1253.41 1573.67 1247.84 1568.22 M1249.27 1554.08 Q1249.27 1562.24 1251.4 1565.93 Q1254.68 1571.54 1260.95 1571.54 Q1264.07 1571.54 1266.65 1569.86 Q1269.28 1568.18 1270.71 1565.35 Q1272.55 1561.66 1272.55 1554.08 Q1272.55 1546.01 1270.34 1542.44 Q1267.06 1536.99 1260.87 1536.99 Q1258.17 1536.99 1255.5 1538.42 Q1252.88 1539.82 1251.28 1542.6 Q1249.27 1546.29 1249.27 1554.08 Z" fill="#000000" fill-rule="evenodd" fill-opacity="1" /><path clip-path="url(#clip480)" d="M1280.85 1579.37 Q1280.85 1576.67 1282.9 1574.33 Q1284.99 1571.99 1288.6 1570.97 Q1284.91 1568.63 1284.91 1563.51 Q1284.91 1559.57 1287.49 1556.54 Q1283.56 1553.26 1283.56 1547.89 Q1283.56 1542.93 1287.49 1539.28 Q1291.43 1535.64 1297.16 1535.64 Q1302.21 1535.64 1306.06 1538.67 Q1310.08 1534.73 1314.95 1534.69 Q1317.13 1534.69 1318.15 1536.05 Q1319.22 1537.4 1319.22 1538.83 Q1319.22 1540.1 1318.4 1540.72 Q1317.62 1541.33 1316.8 1541.33 Q1315.77 1541.33 1315.04 1540.68 Q1314.34 1539.98 1314.34 1538.91 Q1314.34 1537.15 1315.69 1536.62 Q1315.45 1536.54 1314.87 1536.54 Q1310.77 1536.54 1307.29 1539.82 Q1310.73 1543.01 1310.73 1547.97 Q1310.73 1552.93 1306.8 1556.58 Q1302.86 1560.23 1297.16 1560.23 Q1292.45 1560.23 1288.84 1557.61 Q1287.41 1559.29 1287.41 1561.58 Q1287.41 1563.67 1288.68 1565.31 Q1289.95 1566.95 1291.88 1567.2 Q1292.45 1567.28 1298.15 1567.28 Q1301.51 1567.28 1303.35 1567.36 Q1305.2 1567.44 1307.82 1568.02 Q1310.49 1568.55 1312.58 1569.62 Q1318.03 1572.65 1318.07 1579.21 Q1318.07 1584 1312.54 1587 Q1307.04 1590.03 1299.42 1590.03 Q1291.71 1590.03 1286.26 1586.95 Q1280.85 1583.92 1280.85 1579.37 M1285.24 1579.37 Q1285.24 1582.81 1289.29 1585.44 Q1293.35 1588.1 1299.5 1588.1 Q1305.53 1588.1 1309.58 1585.48 Q1313.68 1582.9 1313.68 1579.37 Q1313.68 1576.87 1312.25 1575.27 Q1310.81 1573.67 1307.86 1573.02 Q1304.95 1572.4 1302.9 1572.28 Q1300.85 1572.16 1297.08 1572.16 L1292.12 1572.16 Q1289.25 1572.32 1287.25 1574.41 Q1285.24 1576.5 1285.24 1579.37 M1289.83 1547.97 Q1289.83 1558.3 1297.16 1558.3 Q1300.85 1558.3 1303.11 1554.94 Q1304.46 1552.69 1304.46 1547.89 Q1304.46 1537.56 1297.16 1537.56 Q1293.48 1537.56 1291.18 1540.92 Q1289.83 1543.18 1289.83 1547.97 Z" fill="#000000" fill-rule="evenodd" fill-opacity="1" /><path clip-path="url(#clip480)" d="M1327.8 1595.99 Q1327.8 1594.93 1327.88 1594.61 Q1328 1594.3 1328.46 1593.81 L1339.73 1581.24 Q1345.9 1574.3 1345.9 1568.24 Q1345.9 1564.31 1343.83 1561.5 Q1341.8 1558.69 1338.04 1558.69 Q1335.46 1558.69 1333.28 1560.27 Q1331.1 1561.84 1330.09 1564.66 Q1330.26 1564.6 1330.87 1564.6 Q1332.33 1564.6 1333.13 1565.52 Q1333.96 1566.44 1333.96 1567.67 Q1333.96 1569.25 1332.93 1570.02 Q1331.93 1570.77 1330.92 1570.77 Q1330.52 1570.77 1329.98 1570.68 Q1329.46 1570.6 1328.63 1569.79 Q1327.8 1568.96 1327.8 1567.5 Q1327.8 1563.39 1330.89 1560.12 Q1334.02 1556.85 1338.78 1556.85 Q1344.18 1556.85 1347.71 1560.07 Q1351.27 1563.25 1351.27 1568.24 Q1351.27 1569.99 1350.72 1571.6 Q1350.2 1573.18 1349.49 1574.41 Q1348.8 1575.65 1346.9 1577.63 Q1345.01 1579.6 1343.49 1581.01 Q1341.97 1582.42 1338.56 1585.4 L1332.33 1591.45 L1342.92 1591.45 Q1348.08 1591.45 1348.48 1591 Q1349.06 1590.16 1349.77 1585.77 L1351.27 1585.77 L1349.6 1595.99 L1327.8 1595.99 Z" fill="#000000" fill-rule="evenodd" fill-opacity="1" /><path clip-path="url(#clip480)" d="M1430.66 1516.33 Q1430.66 1518.01 1429.23 1518.01 Q1424.6 1518.17 1422.71 1519.73 Q1420.87 1521.25 1420.17 1524.2 L1408.45 1570.97 Q1408.04 1572.44 1407.79 1572.61 Q1407.55 1572.73 1407.09 1572.73 Q1406.52 1572.73 1406.19 1572.44 Q1405.91 1572.16 1405.5 1571.13 L1384.59 1521.7 Q1384.43 1521.37 1384.22 1520.92 Q1384.02 1520.47 1383.85 1520.18 L1372.75 1564.49 Q1372.42 1565.76 1372.42 1566.42 Q1372.42 1568.02 1373.52 1569.04 Q1374.67 1570.03 1377.95 1570.15 Q1379.63 1570.15 1379.63 1571.05 Q1379.63 1572.73 1378.11 1572.73 Q1376.72 1572.73 1373.81 1572.61 Q1370.9 1572.48 1369.47 1572.48 Q1368.07 1572.48 1365.24 1572.61 Q1362.42 1572.73 1361.06 1572.73 Q1360 1572.73 1360 1571.79 Q1360 1571.05 1360.28 1570.68 Q1360.57 1570.27 1360.82 1570.23 Q1361.06 1570.15 1361.43 1570.15 Q1363.89 1570.07 1365.57 1569.57 Q1367.25 1569.08 1368.2 1568.14 Q1369.18 1567.2 1369.63 1566.25 Q1370.12 1565.27 1370.49 1563.84 L1381.72 1518.75 Q1381.72 1518.01 1376.02 1518.01 Q1375.04 1518.01 1374.63 1517.97 Q1374.26 1517.93 1373.98 1517.72 Q1373.69 1517.52 1373.69 1517.07 Q1373.69 1515.92 1374.18 1515.67 Q1374.67 1515.39 1376.11 1515.39 L1387.38 1515.39 Q1388.81 1515.39 1389.18 1515.63 Q1389.55 1515.84 1390.04 1516.99 L1408.61 1560.8 L1418 1523.46 Q1418.24 1522.72 1418.24 1521.7 Q1418.24 1520.06 1417.01 1519.08 Q1415.83 1518.05 1412.55 1518.01 Q1411.03 1518.01 1411.03 1517.07 Q1411.03 1516.29 1411.32 1515.92 Q1411.64 1515.51 1411.89 1515.47 Q1412.18 1515.39 1412.55 1515.39 Q1413.94 1515.39 1416.81 1515.51 Q1419.68 1515.63 1421.11 1515.63 Q1422.51 1515.63 1425.33 1515.51 Q1428.2 1515.39 1429.6 1515.39 Q1430.09 1515.39 1430.34 1515.63 Q1430.62 1515.84 1430.66 1516.08 L1430.66 1516.33 Z" fill="#000000" fill-rule="evenodd" fill-opacity="1" /><polyline clip-path="url(#clip480)" style="stroke:#000000; stroke-linecap:butt; stroke-linejoin:round; stroke-width:4; stroke-opacity:1; fill:none" points="
  290.581,1410.22 290.581,47.2441 
  "/>
<polyline clip-path="url(#clip480)" style="stroke:#000000; stroke-linecap:butt; stroke-linejoin:round; stroke-width:4; stroke-opacity:1; fill:none" points="
  290.581,1234.41 309.478,1234.41 
  "/>
<polyline clip-path="url(#clip480)" style="stroke:#000000; stroke-linecap:butt; stroke-linejoin:round; stroke-width:4; stroke-opacity:1; fill:none" points="
  290.581,1027.34 309.478,1027.34 
  "/>
<polyline clip-path="url(#clip480)" style="stroke:#000000; stroke-linecap:butt; stroke-linejoin:round; stroke-width:4; stroke-opacity:1; fill:none" points="
  290.581,820.274 309.478,820.274 
  "/>
<polyline clip-path="url(#clip480)" style="stroke:#000000; stroke-linecap:butt; stroke-linejoin:round; stroke-width:4; stroke-opacity:1; fill:none" points="
  290.581,613.208 309.478,613.208 
  "/>
<polyline clip-path="url(#clip480)" style="stroke:#000000; stroke-linecap:butt; stroke-linejoin:round; stroke-width:4; stroke-opacity:1; fill:none" points="
  290.581,406.142 309.478,406.142 
  "/>
<polyline clip-path="url(#clip480)" style="stroke:#000000; stroke-linecap:butt; stroke-linejoin:round; stroke-width:4; stroke-opacity:1; fill:none" points="
  290.581,199.076 309.478,199.076 
  "/>
<path clip-path="url(#clip480)" d="M127.891 1247.75 L135.53 1247.75 L135.53 1221.39 L127.22 1223.05 L127.22 1218.79 L135.484 1217.13 L140.16 1217.13 L140.16 1247.75 L147.799 1247.75 L147.799 1251.69 L127.891 1251.69 L127.891 1247.75 Z" fill="#000000" fill-rule="evenodd" fill-opacity="1" /><path clip-path="url(#clip480)" d="M157.243 1245.81 L162.127 1245.81 L162.127 1251.69 L157.243 1251.69 L157.243 1245.81 Z" fill="#000000" fill-rule="evenodd" fill-opacity="1" /><path clip-path="url(#clip480)" d="M185.16 1221.2 L173.354 1239.65 L185.16 1239.65 L185.16 1221.2 M183.933 1217.13 L189.812 1217.13 L189.812 1239.65 L194.743 1239.65 L194.743 1243.54 L189.812 1243.54 L189.812 1251.69 L185.16 1251.69 L185.16 1243.54 L169.558 1243.54 L169.558 1239.02 L183.933 1217.13 Z" fill="#000000" fill-rule="evenodd" fill-opacity="1" /><path clip-path="url(#clip480)" d="M212.474 1220.2 Q208.863 1220.2 207.035 1223.77 Q205.229 1227.31 205.229 1234.44 Q205.229 1241.55 207.035 1245.11 Q208.863 1248.65 212.474 1248.65 Q216.109 1248.65 217.914 1245.11 Q219.743 1241.55 219.743 1234.44 Q219.743 1227.31 217.914 1223.77 Q216.109 1220.2 212.474 1220.2 M212.474 1216.5 Q218.284 1216.5 221.34 1221.11 Q224.419 1225.69 224.419 1234.44 Q224.419 1243.17 221.34 1247.77 Q218.284 1252.36 212.474 1252.36 Q206.664 1252.36 203.585 1247.77 Q200.53 1243.17 200.53 1234.44 Q200.53 1225.69 203.585 1221.11 Q206.664 1216.5 212.474 1216.5 Z" fill="#000000" fill-rule="evenodd" fill-opacity="1" /><path clip-path="url(#clip480)" d="M242.636 1220.2 Q239.025 1220.2 237.196 1223.77 Q235.391 1227.31 235.391 1234.44 Q235.391 1241.55 237.196 1245.11 Q239.025 1248.65 242.636 1248.65 Q246.27 1248.65 248.076 1245.11 Q249.905 1241.55 249.905 1234.44 Q249.905 1227.31 248.076 1223.77 Q246.27 1220.2 242.636 1220.2 M242.636 1216.5 Q248.446 1216.5 251.502 1221.11 Q254.581 1225.69 254.581 1234.44 Q254.581 1243.17 251.502 1247.77 Q248.446 1252.36 242.636 1252.36 Q236.826 1252.36 233.747 1247.77 Q230.692 1243.17 230.692 1234.44 Q230.692 1225.69 233.747 1221.11 Q236.826 1216.5 242.636 1216.5 Z" fill="#000000" fill-rule="evenodd" fill-opacity="1" /><path clip-path="url(#clip480)" d="M128.887 1040.68 L136.526 1040.68 L136.526 1014.32 L128.216 1015.99 L128.216 1011.73 L136.479 1010.06 L141.155 1010.06 L141.155 1040.68 L148.794 1040.68 L148.794 1044.62 L128.887 1044.62 L128.887 1040.68 Z" fill="#000000" fill-rule="evenodd" fill-opacity="1" /><path clip-path="url(#clip480)" d="M158.239 1038.74 L163.123 1038.74 L163.123 1044.62 L158.239 1044.62 L158.239 1038.74 Z" fill="#000000" fill-rule="evenodd" fill-opacity="1" /><path clip-path="url(#clip480)" d="M186.155 1014.13 L174.35 1032.58 L186.155 1032.58 L186.155 1014.13 M184.928 1010.06 L190.808 1010.06 L190.808 1032.58 L195.738 1032.58 L195.738 1036.47 L190.808 1036.47 L190.808 1044.62 L186.155 1044.62 L186.155 1036.47 L170.553 1036.47 L170.553 1031.96 L184.928 1010.06 Z" fill="#000000" fill-rule="evenodd" fill-opacity="1" /><path clip-path="url(#clip480)" d="M207.498 1040.68 L223.817 1040.68 L223.817 1044.62 L201.873 1044.62 L201.873 1040.68 Q204.535 1037.93 209.118 1033.3 Q213.724 1028.65 214.905 1027.31 Q217.15 1024.78 218.03 1023.05 Q218.933 1021.29 218.933 1019.6 Q218.933 1016.84 216.988 1015.11 Q215.067 1013.37 211.965 1013.37 Q209.766 1013.37 207.312 1014.13 Q204.882 1014.9 202.104 1016.45 L202.104 1011.73 Q204.928 1010.59 207.382 1010.01 Q209.835 1009.44 211.872 1009.44 Q217.243 1009.44 220.437 1012.12 Q223.632 1014.81 223.632 1019.3 Q223.632 1021.43 222.821 1023.35 Q222.034 1025.25 219.928 1027.84 Q219.349 1028.51 216.247 1031.73 Q213.146 1034.92 207.498 1040.68 Z" fill="#000000" fill-rule="evenodd" fill-opacity="1" /><path clip-path="url(#clip480)" d="M233.678 1010.06 L252.034 1010.06 L252.034 1014 L237.96 1014 L237.96 1022.47 Q238.979 1022.12 239.997 1021.96 Q241.016 1021.77 242.034 1021.77 Q247.821 1021.77 251.201 1024.94 Q254.581 1028.12 254.581 1033.53 Q254.581 1039.11 251.108 1042.21 Q247.636 1045.29 241.317 1045.29 Q239.141 1045.29 236.872 1044.92 Q234.627 1044.55 232.22 1043.81 L232.22 1039.11 Q234.303 1040.25 236.525 1040.8 Q238.747 1041.36 241.224 1041.36 Q245.229 1041.36 247.567 1039.25 Q249.905 1037.14 249.905 1033.53 Q249.905 1029.92 247.567 1027.81 Q245.229 1025.71 241.224 1025.71 Q239.349 1025.71 237.474 1026.12 Q235.622 1026.54 233.678 1027.42 L233.678 1010.06 Z" fill="#000000" fill-rule="evenodd" fill-opacity="1" /><path clip-path="url(#clip480)" d="M127.891 833.619 L135.53 833.619 L135.53 807.253 L127.22 808.92 L127.22 804.661 L135.484 802.994 L140.16 802.994 L140.16 833.619 L147.799 833.619 L147.799 837.554 L127.891 837.554 L127.891 833.619 Z" fill="#000000" fill-rule="evenodd" fill-opacity="1" /><path clip-path="url(#clip480)" d="M157.243 831.674 L162.127 831.674 L162.127 837.554 L157.243 837.554 L157.243 831.674 Z" fill="#000000" fill-rule="evenodd" fill-opacity="1" /><path clip-path="url(#clip480)" d="M185.16 807.068 L173.354 825.517 L185.16 825.517 L185.16 807.068 M183.933 802.994 L189.812 802.994 L189.812 825.517 L194.743 825.517 L194.743 829.406 L189.812 829.406 L189.812 837.554 L185.16 837.554 L185.16 829.406 L169.558 829.406 L169.558 824.892 L183.933 802.994 Z" fill="#000000" fill-rule="evenodd" fill-opacity="1" /><path clip-path="url(#clip480)" d="M202.521 802.994 L220.877 802.994 L220.877 806.929 L206.803 806.929 L206.803 815.401 Q207.822 815.054 208.84 814.892 Q209.859 814.707 210.877 814.707 Q216.664 814.707 220.044 817.878 Q223.423 821.049 223.423 826.466 Q223.423 832.045 219.951 835.147 Q216.479 838.225 210.16 838.225 Q207.984 838.225 205.715 837.855 Q203.47 837.485 201.062 836.744 L201.062 832.045 Q203.146 833.179 205.368 833.735 Q207.59 834.29 210.067 834.29 Q214.072 834.29 216.409 832.184 Q218.747 830.077 218.747 826.466 Q218.747 822.855 216.409 820.749 Q214.072 818.642 210.067 818.642 Q208.192 818.642 206.317 819.059 Q204.465 819.475 202.521 820.355 L202.521 802.994 Z" fill="#000000" fill-rule="evenodd" fill-opacity="1" /><path clip-path="url(#clip480)" d="M242.636 806.073 Q239.025 806.073 237.196 809.638 Q235.391 813.179 235.391 820.309 Q235.391 827.415 237.196 830.98 Q239.025 834.522 242.636 834.522 Q246.27 834.522 248.076 830.98 Q249.905 827.415 249.905 820.309 Q249.905 813.179 248.076 809.638 Q246.27 806.073 242.636 806.073 M242.636 802.369 Q248.446 802.369 251.502 806.975 Q254.581 811.559 254.581 820.309 Q254.581 829.036 251.502 833.642 Q248.446 838.225 242.636 838.225 Q236.826 838.225 233.747 833.642 Q230.692 829.036 230.692 820.309 Q230.692 811.559 233.747 806.975 Q236.826 802.369 242.636 802.369 Z" fill="#000000" fill-rule="evenodd" fill-opacity="1" /><path clip-path="url(#clip480)" d="M128.887 626.553 L136.526 626.553 L136.526 600.187 L128.216 601.854 L128.216 597.595 L136.479 595.928 L141.155 595.928 L141.155 626.553 L148.794 626.553 L148.794 630.488 L128.887 630.488 L128.887 626.553 Z" fill="#000000" fill-rule="evenodd" fill-opacity="1" /><path clip-path="url(#clip480)" d="M158.239 624.608 L163.123 624.608 L163.123 630.488 L158.239 630.488 L158.239 624.608 Z" fill="#000000" fill-rule="evenodd" fill-opacity="1" /><path clip-path="url(#clip480)" d="M186.155 600.002 L174.35 618.451 L186.155 618.451 L186.155 600.002 M184.928 595.928 L190.808 595.928 L190.808 618.451 L195.738 618.451 L195.738 622.34 L190.808 622.34 L190.808 630.488 L186.155 630.488 L186.155 622.34 L170.553 622.34 L170.553 617.826 L184.928 595.928 Z" fill="#000000" fill-rule="evenodd" fill-opacity="1" /><path clip-path="url(#clip480)" d="M202.289 595.928 L224.511 595.928 L224.511 597.919 L211.965 630.488 L207.081 630.488 L218.886 599.863 L202.289 599.863 L202.289 595.928 Z" fill="#000000" fill-rule="evenodd" fill-opacity="1" /><path clip-path="url(#clip480)" d="M233.678 595.928 L252.034 595.928 L252.034 599.863 L237.96 599.863 L237.96 608.335 Q238.979 607.988 239.997 607.826 Q241.016 607.641 242.034 607.641 Q247.821 607.641 251.201 610.812 Q254.581 613.983 254.581 619.4 Q254.581 624.979 251.108 628.081 Q247.636 631.159 241.317 631.159 Q239.141 631.159 236.872 630.789 Q234.627 630.418 232.22 629.678 L232.22 624.979 Q234.303 626.113 236.525 626.668 Q238.747 627.224 241.224 627.224 Q245.229 627.224 247.567 625.118 Q249.905 623.011 249.905 619.4 Q249.905 615.789 247.567 613.682 Q245.229 611.576 241.224 611.576 Q239.349 611.576 237.474 611.993 Q235.622 612.409 233.678 613.289 L233.678 595.928 Z" fill="#000000" fill-rule="evenodd" fill-opacity="1" /><path clip-path="url(#clip480)" d="M127.891 419.487 L135.53 419.487 L135.53 393.121 L127.22 394.788 L127.22 390.528 L135.484 388.862 L140.16 388.862 L140.16 419.487 L147.799 419.487 L147.799 423.422 L127.891 423.422 L127.891 419.487 Z" fill="#000000" fill-rule="evenodd" fill-opacity="1" /><path clip-path="url(#clip480)" d="M157.243 417.542 L162.127 417.542 L162.127 423.422 L157.243 423.422 L157.243 417.542 Z" fill="#000000" fill-rule="evenodd" fill-opacity="1" /><path clip-path="url(#clip480)" d="M172.359 388.862 L190.715 388.862 L190.715 392.797 L176.641 392.797 L176.641 401.269 Q177.66 400.922 178.678 400.76 Q179.697 400.575 180.715 400.575 Q186.502 400.575 189.882 403.746 Q193.261 406.917 193.261 412.334 Q193.261 417.913 189.789 421.014 Q186.317 424.093 179.998 424.093 Q177.822 424.093 175.553 423.723 Q173.308 423.352 170.9 422.612 L170.9 417.913 Q172.984 419.047 175.206 419.602 Q177.428 420.158 179.905 420.158 Q183.91 420.158 186.248 418.051 Q188.586 415.945 188.586 412.334 Q188.586 408.723 186.248 406.616 Q183.91 404.51 179.905 404.51 Q178.03 404.51 176.155 404.927 Q174.303 405.343 172.359 406.223 L172.359 388.862 Z" fill="#000000" fill-rule="evenodd" fill-opacity="1" /><path clip-path="url(#clip480)" d="M212.474 391.94 Q208.863 391.94 207.035 395.505 Q205.229 399.047 205.229 406.177 Q205.229 413.283 207.035 416.848 Q208.863 420.389 212.474 420.389 Q216.109 420.389 217.914 416.848 Q219.743 413.283 219.743 406.177 Q219.743 399.047 217.914 395.505 Q216.109 391.94 212.474 391.94 M212.474 388.237 Q218.284 388.237 221.34 392.843 Q224.419 397.427 224.419 406.177 Q224.419 414.903 221.34 419.51 Q218.284 424.093 212.474 424.093 Q206.664 424.093 203.585 419.51 Q200.53 414.903 200.53 406.177 Q200.53 397.427 203.585 392.843 Q206.664 388.237 212.474 388.237 Z" fill="#000000" fill-rule="evenodd" fill-opacity="1" /><path clip-path="url(#clip480)" d="M242.636 391.94 Q239.025 391.94 237.196 395.505 Q235.391 399.047 235.391 406.177 Q235.391 413.283 237.196 416.848 Q239.025 420.389 242.636 420.389 Q246.27 420.389 248.076 416.848 Q249.905 413.283 249.905 406.177 Q249.905 399.047 248.076 395.505 Q246.27 391.94 242.636 391.94 M242.636 388.237 Q248.446 388.237 251.502 392.843 Q254.581 397.427 254.581 406.177 Q254.581 414.903 251.502 419.51 Q248.446 424.093 242.636 424.093 Q236.826 424.093 233.747 419.51 Q230.692 414.903 230.692 406.177 Q230.692 397.427 233.747 392.843 Q236.826 388.237 242.636 388.237 Z" fill="#000000" fill-rule="evenodd" fill-opacity="1" /><path clip-path="url(#clip480)" d="M128.887 212.42 L136.526 212.42 L136.526 186.055 L128.216 187.722 L128.216 183.462 L136.479 181.796 L141.155 181.796 L141.155 212.42 L148.794 212.42 L148.794 216.356 L128.887 216.356 L128.887 212.42 Z" fill="#000000" fill-rule="evenodd" fill-opacity="1" /><path clip-path="url(#clip480)" d="M158.239 210.476 L163.123 210.476 L163.123 216.356 L158.239 216.356 L158.239 210.476 Z" fill="#000000" fill-rule="evenodd" fill-opacity="1" /><path clip-path="url(#clip480)" d="M173.354 181.796 L191.711 181.796 L191.711 185.731 L177.637 185.731 L177.637 194.203 Q178.655 193.856 179.674 193.694 Q180.692 193.509 181.711 193.509 Q187.498 193.509 190.877 196.68 Q194.257 199.851 194.257 205.268 Q194.257 210.846 190.785 213.948 Q187.312 217.027 180.993 217.027 Q178.817 217.027 176.549 216.657 Q174.303 216.286 171.896 215.545 L171.896 210.846 Q173.979 211.981 176.201 212.536 Q178.424 213.092 180.9 213.092 Q184.905 213.092 187.243 210.985 Q189.581 208.879 189.581 205.268 Q189.581 201.657 187.243 199.55 Q184.905 197.444 180.9 197.444 Q179.025 197.444 177.15 197.86 Q175.299 198.277 173.354 199.157 L173.354 181.796 Z" fill="#000000" fill-rule="evenodd" fill-opacity="1" /><path clip-path="url(#clip480)" d="M207.498 212.42 L223.817 212.42 L223.817 216.356 L201.873 216.356 L201.873 212.42 Q204.535 209.666 209.118 205.036 Q213.724 200.384 214.905 199.041 Q217.15 196.518 218.03 194.782 Q218.933 193.022 218.933 191.333 Q218.933 188.578 216.988 186.842 Q215.067 185.106 211.965 185.106 Q209.766 185.106 207.312 185.87 Q204.882 186.634 202.104 188.185 L202.104 183.462 Q204.928 182.328 207.382 181.749 Q209.835 181.171 211.872 181.171 Q217.243 181.171 220.437 183.856 Q223.632 186.541 223.632 191.032 Q223.632 193.161 222.821 195.083 Q222.034 196.981 219.928 199.573 Q219.349 200.245 216.247 203.462 Q213.146 206.657 207.498 212.42 Z" fill="#000000" fill-rule="evenodd" fill-opacity="1" /><path clip-path="url(#clip480)" d="M233.678 181.796 L252.034 181.796 L252.034 185.731 L237.96 185.731 L237.96 194.203 Q238.979 193.856 239.997 193.694 Q241.016 193.509 242.034 193.509 Q247.821 193.509 251.201 196.68 Q254.581 199.851 254.581 205.268 Q254.581 210.846 251.108 213.948 Q247.636 217.027 241.317 217.027 Q239.141 217.027 236.872 216.657 Q234.627 216.286 232.22 215.545 L232.22 210.846 Q234.303 211.981 236.525 212.536 Q238.747 213.092 241.224 213.092 Q245.229 213.092 247.567 210.985 Q249.905 208.879 249.905 205.268 Q249.905 201.657 247.567 199.55 Q245.229 197.444 241.224 197.444 Q239.349 197.444 237.474 197.86 Q235.622 198.277 233.678 199.157 L233.678 181.796 Z" fill="#000000" fill-rule="evenodd" fill-opacity="1" /><path clip-path="url(#clip480)" d="M32.0609 706.184 Q32.3888 706.184 35.2581 707.783 Q40.5457 710.447 48.6206 713.849 Q56.6955 717.251 62.6799 719.178 Q64.1145 719.588 65.959 719.875 Q71.6156 720.613 80.3873 722.99 Q83.1335 723.81 84.2812 724.343 Q85.4289 724.875 85.4289 725.654 Q85.4289 726.761 83.9123 726.761 Q82.3957 726.761 76.7392 725.367 Q71.0827 723.933 65.8771 722.375 Q63.0078 721.391 57.6382 721.391 Q55.9167 721.391 54.3591 721.473 Q52.8015 721.555 50.5471 721.883 Q48.2927 722.211 46.4481 722.744 Q44.6036 723.277 42.6771 724.302 Q40.7096 725.326 39.398 726.72 Q38.0453 728.114 37.1846 730.245 Q36.3238 732.336 36.3238 734.959 Q36.3238 735.615 36.4058 736.434 Q36.4468 737.213 36.9796 739.099 Q37.5125 740.943 38.4552 742.501 Q39.357 744.058 41.3655 745.739 Q43.3739 747.42 46.0792 748.321 L46.4891 748.649 Q46.4891 749.182 46.4891 749.469 Q46.4481 749.715 46.2432 750.002 Q46.0382 750.248 45.6693 750.248 Q44.8086 750.248 43.087 749.592 Q41.3655 748.895 39.152 747.502 Q36.9386 746.067 34.9711 744.222 Q33.0037 742.337 31.651 739.591 Q30.2984 736.844 30.2984 733.893 Q30.2984 726.31 39.5209 722.703 Q47.3499 719.547 56.6545 719.26 Q40.1358 712.702 31.815 708.193 Q31.2001 707.947 31.2001 707.209 Q31.2411 706.184 32.0609 706.184 Z" fill="#000000" fill-rule="evenodd" fill-opacity="1" /><polyline clip-path="url(#clip483)" style="stroke:#000000; stroke-linecap:butt; stroke-linejoin:round; stroke-width:4; stroke-opacity:1; fill:none" points="
  2015.64,304.829 2015.64,296.088 
  "/>
<polyline clip-path="url(#clip483)" style="stroke:#000000; stroke-linecap:butt; stroke-linejoin:round; stroke-width:4; stroke-opacity:1; fill:none" points="
  348.944,1371.65 348.944,1277.02 
  "/>
<polyline clip-path="url(#clip483)" style="stroke:#000000; stroke-linecap:butt; stroke-linejoin:round; stroke-width:4; stroke-opacity:1; fill:none" points="
  1736.93,353.168 1736.93,341.195 
  "/>
<polyline clip-path="url(#clip483)" style="stroke:#000000; stroke-linecap:butt; stroke-linejoin:round; stroke-width:4; stroke-opacity:1; fill:none" points="
  1179.91,595.893 1179.91,570.982 
  "/>
<polyline clip-path="url(#clip483)" style="stroke:#000000; stroke-linecap:butt; stroke-linejoin:round; stroke-width:4; stroke-opacity:1; fill:none" points="
  624.643,1193.03 624.643,1133.93 
  "/>
<polyline clip-path="url(#clip483)" style="stroke:#000000; stroke-linecap:butt; stroke-linejoin:round; stroke-width:4; stroke-opacity:1; fill:none" points="
  1458.32,472.332 1458.32,455.341 
  "/>
<polyline clip-path="url(#clip483)" style="stroke:#000000; stroke-linecap:butt; stroke-linejoin:round; stroke-width:4; stroke-opacity:1; fill:none" points="
  2294.39,92.4171 2294.39,85.8189 
  "/>
<polyline clip-path="url(#clip483)" style="stroke:#000000; stroke-linecap:butt; stroke-linejoin:round; stroke-width:4; stroke-opacity:1; fill:none" points="
  901.886,897.768 901.886,859.406 
  "/>
<line clip-path="url(#clip483)" x1="2031.64" y1="304.829" x2="1999.64" y2="304.829" style="stroke:#000000; stroke-width:3.2; stroke-opacity:1"/>
<line clip-path="url(#clip483)" x1="2031.64" y1="296.088" x2="1999.64" y2="296.088" style="stroke:#000000; stroke-width:3.2; stroke-opacity:1"/>
<line clip-path="url(#clip483)" x1="364.944" y1="1371.65" x2="332.944" y2="1371.65" style="stroke:#000000; stroke-width:3.2; stroke-opacity:1"/>
<line clip-path="url(#clip483)" x1="364.944" y1="1277.02" x2="332.944" y2="1277.02" style="stroke:#000000; stroke-width:3.2; stroke-opacity:1"/>
<line clip-path="url(#clip483)" x1="1752.93" y1="353.168" x2="1720.93" y2="353.168" style="stroke:#000000; stroke-width:3.2; stroke-opacity:1"/>
<line clip-path="url(#clip483)" x1="1752.93" y1="341.195" x2="1720.93" y2="341.195" style="stroke:#000000; stroke-width:3.2; stroke-opacity:1"/>
<line clip-path="url(#clip483)" x1="1195.91" y1="595.893" x2="1163.91" y2="595.893" style="stroke:#000000; stroke-width:3.2; stroke-opacity:1"/>
<line clip-path="url(#clip483)" x1="1195.91" y1="570.982" x2="1163.91" y2="570.982" style="stroke:#000000; stroke-width:3.2; stroke-opacity:1"/>
<line clip-path="url(#clip483)" x1="640.643" y1="1193.03" x2="608.643" y2="1193.03" style="stroke:#000000; stroke-width:3.2; stroke-opacity:1"/>
<line clip-path="url(#clip483)" x1="640.643" y1="1133.93" x2="608.643" y2="1133.93" style="stroke:#000000; stroke-width:3.2; stroke-opacity:1"/>
<line clip-path="url(#clip483)" x1="1474.32" y1="472.332" x2="1442.32" y2="472.332" style="stroke:#000000; stroke-width:3.2; stroke-opacity:1"/>
<line clip-path="url(#clip483)" x1="1474.32" y1="455.341" x2="1442.32" y2="455.341" style="stroke:#000000; stroke-width:3.2; stroke-opacity:1"/>
<line clip-path="url(#clip483)" x1="2310.39" y1="92.4171" x2="2278.39" y2="92.4171" style="stroke:#000000; stroke-width:3.2; stroke-opacity:1"/>
<line clip-path="url(#clip483)" x1="2310.39" y1="85.8189" x2="2278.39" y2="85.8189" style="stroke:#000000; stroke-width:3.2; stroke-opacity:1"/>
<line clip-path="url(#clip483)" x1="917.886" y1="897.768" x2="885.886" y2="897.768" style="stroke:#000000; stroke-width:3.2; stroke-opacity:1"/>
<line clip-path="url(#clip483)" x1="917.886" y1="859.406" x2="885.886" y2="859.406" style="stroke:#000000; stroke-width:3.2; stroke-opacity:1"/>
<line clip-path="url(#clip483)" x1="2031.64" y1="300.458" x2="1999.64" y2="300.458" style="stroke:#000000; stroke-width:3.2; stroke-opacity:1"/>
<line clip-path="url(#clip483)" x1="364.944" y1="1324.33" x2="332.944" y2="1324.33" style="stroke:#000000; stroke-width:3.2; stroke-opacity:1"/>
<line clip-path="url(#clip483)" x1="1752.93" y1="347.182" x2="1720.93" y2="347.182" style="stroke:#000000; stroke-width:3.2; stroke-opacity:1"/>
<line clip-path="url(#clip483)" x1="1195.91" y1="583.438" x2="1163.91" y2="583.438" style="stroke:#000000; stroke-width:3.2; stroke-opacity:1"/>
<line clip-path="url(#clip483)" x1="640.643" y1="1163.48" x2="608.643" y2="1163.48" style="stroke:#000000; stroke-width:3.2; stroke-opacity:1"/>
<line clip-path="url(#clip483)" x1="1474.32" y1="463.837" x2="1442.32" y2="463.837" style="stroke:#000000; stroke-width:3.2; stroke-opacity:1"/>
<line clip-path="url(#clip483)" x1="2310.39" y1="89.118" x2="2278.39" y2="89.118" style="stroke:#000000; stroke-width:3.2; stroke-opacity:1"/>
<line clip-path="url(#clip483)" x1="917.886" y1="878.587" x2="885.886" y2="878.587" style="stroke:#000000; stroke-width:3.2; stroke-opacity:1"/>
</svg>
