<?xml version="1.0" encoding="UTF-8"?>
<svg xmlns="http://www.w3.org/2000/svg" xmlns:xlink="http://www.w3.org/1999/xlink" width="151.523pt" height="151.523pt" viewBox="0 0 151.523 151.523" version="1.1">
<defs>
<clipPath id="clip1">
  <path d="M 136 136 L 151.523438 136 L 151.523438 151.523438 L 136 151.523438 Z M 136 136 "/>
</clipPath>
<clipPath id="clip2">
  <path d="M 4 113 L 148 113 L 148 151.523438 L 4 151.523438 Z M 4 113 "/>
</clipPath>
<clipPath id="clip3">
  <path d="M 113 4 L 151.523438 4 L 151.523438 148 L 113 148 Z M 113 4 "/>
</clipPath>
</defs>
<g id="surface1">
<path style="fill:none;stroke-width:0.3985;stroke-linecap:butt;stroke-linejoin:miter;stroke:rgb(0%,0%,0%);stroke-opacity:1;stroke-miterlimit:10;" d="M 4.694844 -0.00025 C 4.694844 2.5935 2.593281 4.695062 -0.00046875 4.695062 C -2.594219 4.695062 -4.695781 2.5935 -4.695781 -0.00025 C -4.695781 -2.594 -2.594219 -4.695563 -0.00046875 -4.695563 C 2.593281 -4.695563 4.694844 -2.594 4.694844 -0.00025 Z M 4.694844 -0.00025 " transform="matrix(1,0,0,-1,4.895,118.281)"/>
<path style="fill:none;stroke-width:0.3985;stroke-linecap:butt;stroke-linejoin:miter;stroke:rgb(0%,0%,0%);stroke-opacity:1;stroke-miterlimit:10;" d="M 4.694844 28.347406 C 4.694844 30.941156 2.593281 33.042719 -0.00046875 33.042719 C -2.594219 33.042719 -4.695781 30.941156 -4.695781 28.347406 C -4.695781 25.753656 -2.594219 23.652094 -0.00046875 23.652094 C 2.593281 23.652094 4.694844 25.753656 4.694844 28.347406 Z M 4.694844 28.347406 " transform="matrix(1,0,0,-1,4.895,118.281)"/>
<path style="fill:none;stroke-width:0.3985;stroke-linecap:butt;stroke-linejoin:miter;stroke:rgb(0%,0%,0%);stroke-opacity:1;stroke-miterlimit:10;" d="M 4.694844 56.695062 C 4.694844 59.288812 2.593281 61.390375 -0.00046875 61.390375 C -2.594219 61.390375 -4.695781 59.288812 -4.695781 56.695062 C -4.695781 54.101312 -2.594219 51.995844 -0.00046875 51.995844 C 2.593281 51.995844 4.694844 54.101312 4.694844 56.695062 Z M 4.694844 56.695062 " transform="matrix(1,0,0,-1,4.895,118.281)"/>
<path style="fill:none;stroke-width:0.3985;stroke-linecap:butt;stroke-linejoin:miter;stroke:rgb(0%,0%,0%);stroke-opacity:1;stroke-miterlimit:10;" d="M 4.694844 85.038812 C 4.694844 87.632562 2.593281 89.738031 -0.00046875 89.738031 C -2.594219 89.738031 -4.695781 87.632562 -4.695781 85.038812 C -4.695781 82.445062 -2.594219 80.3435 -0.00046875 80.3435 C 2.593281 80.3435 4.694844 82.445062 4.694844 85.038812 Z M 4.694844 85.038812 " transform="matrix(1,0,0,-1,4.895,118.281)"/>
<path style="fill:none;stroke-width:0.3985;stroke-linecap:butt;stroke-linejoin:miter;stroke:rgb(0%,0%,0%);stroke-opacity:1;stroke-miterlimit:10;" d="M 4.694844 113.386469 C 4.694844 115.980219 2.593281 118.081781 -0.00046875 118.081781 C -2.594219 118.081781 -4.695781 115.980219 -4.695781 113.386469 C -4.695781 110.792719 -2.594219 108.691156 -0.00046875 108.691156 C 2.593281 108.691156 4.694844 110.792719 4.694844 113.386469 Z M 4.694844 113.386469 " transform="matrix(1,0,0,-1,4.895,118.281)"/>
<path style="fill:none;stroke-width:0.3985;stroke-linecap:butt;stroke-linejoin:miter;stroke:rgb(0%,0%,0%);stroke-opacity:1;stroke-miterlimit:10;" d="M 33.0425 113.386469 C 33.0425 115.980219 30.940938 118.081781 28.347188 118.081781 C 25.753438 118.081781 23.651875 115.980219 23.651875 113.386469 C 23.651875 110.792719 25.753438 108.691156 28.347188 108.691156 C 30.940938 108.691156 33.0425 110.792719 33.0425 113.386469 Z M 33.0425 113.386469 " transform="matrix(1,0,0,-1,4.895,118.281)"/>
<path style="fill:none;stroke-width:0.3985;stroke-linecap:butt;stroke-linejoin:miter;stroke:rgb(0%,0%,0%);stroke-opacity:1;stroke-miterlimit:10;" d="M 61.390156 113.386469 C 61.390156 115.980219 59.288594 118.081781 56.694844 118.081781 C 54.101094 118.081781 51.995625 115.980219 51.995625 113.386469 C 51.995625 110.792719 54.101094 108.691156 56.694844 108.691156 C 59.288594 108.691156 61.390156 110.792719 61.390156 113.386469 Z M 61.390156 113.386469 " transform="matrix(1,0,0,-1,4.895,118.281)"/>
<path style="fill:none;stroke-width:0.3985;stroke-linecap:butt;stroke-linejoin:miter;stroke:rgb(0%,0%,0%);stroke-opacity:1;stroke-miterlimit:10;" d="M 89.737813 113.386469 C 89.737813 115.980219 87.632344 118.081781 85.038594 118.081781 C 82.444844 118.081781 80.343281 115.980219 80.343281 113.386469 C 80.343281 110.792719 82.444844 108.691156 85.038594 108.691156 C 87.632344 108.691156 89.737813 110.792719 89.737813 113.386469 Z M 89.737813 113.386469 " transform="matrix(1,0,0,-1,4.895,118.281)"/>
<g clip-path="url(#clip1)" clip-rule="nonzero">
<path style="fill:none;stroke-width:0.3985;stroke-linecap:butt;stroke-linejoin:miter;stroke:rgb(0%,0%,0%);stroke-opacity:1;stroke-miterlimit:10;" d="M 146.429219 -28.347906 C 146.429219 -25.754156 144.327656 -23.648688 141.733906 -23.648688 C 139.140156 -23.648688 137.038594 -25.754156 137.038594 -28.347906 C 137.038594 -30.941656 139.140156 -33.043219 141.733906 -33.043219 C 144.327656 -33.043219 146.429219 -30.941656 146.429219 -28.347906 Z M 146.429219 -28.347906 " transform="matrix(1,0,0,-1,4.895,118.281)"/>
</g>
<path style="fill:none;stroke-width:0.3985;stroke-linecap:butt;stroke-linejoin:miter;stroke:rgb(0%,0%,0%);stroke-opacity:1;stroke-miterlimit:10;" d="M 118.085469 113.386469 C 118.085469 115.980219 115.98 118.081781 113.38625 118.081781 C 110.7925 118.081781 108.690938 115.980219 108.690938 113.386469 C 108.690938 110.792719 110.7925 108.691156 113.38625 108.691156 C 115.98 108.691156 118.085469 110.792719 118.085469 113.386469 Z M 118.085469 113.386469 " transform="matrix(1,0,0,-1,4.895,118.281)"/>
<g clip-path="url(#clip2)" clip-rule="nonzero">
<path style="fill:none;stroke-width:0.3985;stroke-linecap:butt;stroke-linejoin:miter;stroke:rgb(0%,0%,0%);stroke-opacity:1;stroke-miterlimit:10;" d="M 4.800313 -0.961188 L 136.933125 -27.386969 " transform="matrix(1,0,0,-1,4.895,118.281)"/>
</g>
<path style="fill:none;stroke-width:0.3985;stroke-linecap:butt;stroke-linejoin:miter;stroke:rgb(0%,0%,0%);stroke-opacity:1;stroke-miterlimit:10;" d="M 4.546406 26.527094 L 137.187031 -26.527594 " transform="matrix(1,0,0,-1,4.895,118.281)"/>
<path style="fill:none;stroke-width:0.3985;stroke-linecap:butt;stroke-linejoin:miter;stroke:rgb(0%,0%,0%);stroke-opacity:1;stroke-miterlimit:10;" d="M 4.19875 54.175531 L 137.534687 -25.828375 " transform="matrix(1,0,0,-1,4.895,118.281)"/>
<path style="fill:none;stroke-width:0.3985;stroke-linecap:butt;stroke-linejoin:miter;stroke:rgb(0%,0%,0%);stroke-opacity:1;stroke-miterlimit:10;" d="M 3.82375 81.984125 L 137.909687 -25.289313 " transform="matrix(1,0,0,-1,4.895,118.281)"/>
<path style="fill:none;stroke-width:0.3985;stroke-linecap:butt;stroke-linejoin:miter;stroke:rgb(0%,0%,0%);stroke-opacity:1;stroke-miterlimit:10;" d="M 3.460469 109.925531 L 138.272969 -24.886969 " transform="matrix(1,0,0,-1,4.895,118.281)"/>
<path style="fill:none;stroke-width:0.3985;stroke-linecap:butt;stroke-linejoin:miter;stroke:rgb(0%,0%,0%);stroke-opacity:1;stroke-miterlimit:10;" d="M 31.405781 109.566156 L 138.675312 -24.523688 " transform="matrix(1,0,0,-1,4.895,118.281)"/>
<path style="fill:none;stroke-width:0.3985;stroke-linecap:butt;stroke-linejoin:miter;stroke:rgb(0%,0%,0%);stroke-opacity:1;stroke-miterlimit:10;" d="M 59.210469 109.191156 L 139.214375 -24.148688 " transform="matrix(1,0,0,-1,4.895,118.281)"/>
<path style="fill:none;stroke-width:0.3985;stroke-linecap:butt;stroke-linejoin:miter;stroke:rgb(0%,0%,0%);stroke-opacity:1;stroke-miterlimit:10;" d="M 86.858906 108.8435 L 139.9175 -23.801031 " transform="matrix(1,0,0,-1,4.895,118.281)"/>
<g clip-path="url(#clip3)" clip-rule="nonzero">
<path style="fill:none;stroke-width:0.3985;stroke-linecap:butt;stroke-linejoin:miter;stroke:rgb(0%,0%,0%);stroke-opacity:1;stroke-miterlimit:10;" d="M 114.347188 108.585687 L 140.772969 -23.547125 " transform="matrix(1,0,0,-1,4.895,118.281)"/>
</g>
</g>
</svg>
