<?xml version="1.0" encoding="utf-8"?>
<svg xmlns="http://www.w3.org/2000/svg" xmlns:xlink="http://www.w3.org/1999/xlink" width="600" height="400" viewBox="0 0 2400 1600">
<defs>
  <clipPath id="clip230">
    <rect x="0" y="0" width="2400" height="1600"/>
  </clipPath>
</defs>
<path clip-path="url(#clip230)" d="
M0 1600 L2400 1600 L2400 0 L0 0  Z
  " fill="#000000" fill-rule="evenodd" fill-opacity="0"/>
<defs>
  <clipPath id="clip231">
    <rect x="480" y="0" width="1681" height="1600"/>
  </clipPath>
</defs>
<defs>
  <clipPath id="clip232">
    <rect x="262" y="47" width="2091" height="1364"/>
  </clipPath>
</defs>
<path clip-path="url(#clip230)" d="
M230.743 1410.22 L2352.76 1410.22 L2352.76 47.2441 L230.743 47.2441  Z
  " fill="#000000" fill-rule="evenodd" fill-opacity="0"/>
<defs>
  <clipPath id="clip233">
    <rect x="230" y="47" width="2123" height="1364"/>
  </clipPath>
</defs>
<polyline clip-path="url(#clip230)" style="stroke:#000000; stroke-linecap:butt; stroke-linejoin:round; stroke-width:4; stroke-opacity:1; fill:none" points="
  230.743,1410.22 2352.76,1410.22 
  "/>
<polyline clip-path="url(#clip230)" style="stroke:#000000; stroke-linecap:butt; stroke-linejoin:round; stroke-width:4; stroke-opacity:1; fill:none" points="
  347.921,1410.22 347.921,1391.32 
  "/>
<polyline clip-path="url(#clip230)" style="stroke:#000000; stroke-linecap:butt; stroke-linejoin:round; stroke-width:4; stroke-opacity:1; fill:none" points="
  661.591,1410.22 661.591,1391.32 
  "/>
<polyline clip-path="url(#clip230)" style="stroke:#000000; stroke-linecap:butt; stroke-linejoin:round; stroke-width:4; stroke-opacity:1; fill:none" points="
  975.262,1410.22 975.262,1391.32 
  "/>
<polyline clip-path="url(#clip230)" style="stroke:#000000; stroke-linecap:butt; stroke-linejoin:round; stroke-width:4; stroke-opacity:1; fill:none" points="
  1288.93,1410.22 1288.93,1391.32 
  "/>
<polyline clip-path="url(#clip230)" style="stroke:#000000; stroke-linecap:butt; stroke-linejoin:round; stroke-width:4; stroke-opacity:1; fill:none" points="
  1602.6,1410.22 1602.6,1391.32 
  "/>
<polyline clip-path="url(#clip230)" style="stroke:#000000; stroke-linecap:butt; stroke-linejoin:round; stroke-width:4; stroke-opacity:1; fill:none" points="
  1916.27,1410.22 1916.27,1391.32 
  "/>
<polyline clip-path="url(#clip230)" style="stroke:#000000; stroke-linecap:butt; stroke-linejoin:round; stroke-width:4; stroke-opacity:1; fill:none" points="
  2229.94,1410.22 2229.94,1391.32 
  "/>
<path clip-path="url(#clip230)" d="M300.491 1468.68 L308.13 1468.68 L308.13 1442.32 L299.819 1443.99 L299.819 1439.73 L308.083 1438.06 L312.759 1438.06 L312.759 1468.68 L320.398 1468.68 L320.398 1472.62 L300.491 1472.62 L300.491 1468.68 Z" fill="#000000" fill-rule="evenodd" fill-opacity="1" /><path clip-path="url(#clip230)" d="M333.87 1468.68 L350.19 1468.68 L350.19 1472.62 L328.245 1472.62 L328.245 1468.68 Q330.907 1465.93 335.491 1461.3 Q340.097 1456.65 341.278 1455.31 Q343.523 1452.78 344.403 1451.05 Q345.305 1449.29 345.305 1447.6 Q345.305 1444.84 343.361 1443.11 Q341.44 1441.37 338.338 1441.37 Q336.139 1441.37 333.685 1442.13 Q331.254 1442.9 328.477 1444.45 L328.477 1439.73 Q331.301 1438.59 333.754 1438.01 Q336.208 1437.43 338.245 1437.43 Q343.616 1437.43 346.81 1440.12 Q350.004 1442.81 350.004 1447.3 Q350.004 1449.43 349.194 1451.35 Q348.407 1453.24 346.301 1455.84 Q345.722 1456.51 342.62 1459.73 Q339.518 1462.92 333.87 1468.68 Z" fill="#000000" fill-rule="evenodd" fill-opacity="1" /><path clip-path="url(#clip230)" d="M360.004 1466.74 L364.889 1466.74 L364.889 1472.62 L360.004 1472.62 L360.004 1466.74 Z" fill="#000000" fill-rule="evenodd" fill-opacity="1" /><path clip-path="url(#clip230)" d="M375.12 1438.06 L393.476 1438.06 L393.476 1442 L379.402 1442 L379.402 1450.47 Q380.421 1450.12 381.439 1449.96 Q382.458 1449.77 383.476 1449.77 Q389.263 1449.77 392.643 1452.94 Q396.023 1456.12 396.023 1461.53 Q396.023 1467.11 392.55 1470.21 Q389.078 1473.29 382.759 1473.29 Q380.583 1473.29 378.314 1472.92 Q376.069 1472.55 373.662 1471.81 L373.662 1467.11 Q375.745 1468.24 377.967 1468.8 Q380.189 1469.36 382.666 1469.36 Q386.671 1469.36 389.009 1467.25 Q391.347 1465.14 391.347 1461.53 Q391.347 1457.92 389.009 1455.81 Q386.671 1453.71 382.666 1453.71 Q380.791 1453.71 378.916 1454.12 Q377.064 1454.54 375.12 1455.42 L375.12 1438.06 Z" fill="#000000" fill-rule="evenodd" fill-opacity="1" /><path clip-path="url(#clip230)" d="M613.663 1468.68 L621.302 1468.68 L621.302 1442.32 L612.992 1443.99 L612.992 1439.73 L621.256 1438.06 L625.932 1438.06 L625.932 1468.68 L633.571 1468.68 L633.571 1472.62 L613.663 1472.62 L613.663 1468.68 Z" fill="#000000" fill-rule="evenodd" fill-opacity="1" /><path clip-path="url(#clip230)" d="M643.061 1438.06 L661.418 1438.06 L661.418 1442 L647.344 1442 L647.344 1450.47 Q648.362 1450.12 649.381 1449.96 Q650.399 1449.77 651.418 1449.77 Q657.205 1449.77 660.584 1452.94 Q663.964 1456.12 663.964 1461.53 Q663.964 1467.11 660.492 1470.21 Q657.02 1473.29 650.7 1473.29 Q648.524 1473.29 646.256 1472.92 Q644.01 1472.55 641.603 1471.81 L641.603 1467.11 Q643.686 1468.24 645.909 1468.8 Q648.131 1469.36 650.608 1469.36 Q654.612 1469.36 656.95 1467.25 Q659.288 1465.14 659.288 1461.53 Q659.288 1457.92 656.95 1455.81 Q654.612 1453.71 650.608 1453.71 Q648.733 1453.71 646.858 1454.12 Q645.006 1454.54 643.061 1455.42 L643.061 1438.06 Z" fill="#000000" fill-rule="evenodd" fill-opacity="1" /><path clip-path="url(#clip230)" d="M673.177 1466.74 L678.061 1466.74 L678.061 1472.62 L673.177 1472.62 L673.177 1466.74 Z" fill="#000000" fill-rule="evenodd" fill-opacity="1" /><path clip-path="url(#clip230)" d="M698.246 1441.14 Q694.635 1441.14 692.806 1444.7 Q691.001 1448.24 691.001 1455.37 Q691.001 1462.48 692.806 1466.05 Q694.635 1469.59 698.246 1469.59 Q701.88 1469.59 703.686 1466.05 Q705.515 1462.48 705.515 1455.37 Q705.515 1448.24 703.686 1444.7 Q701.88 1441.14 698.246 1441.14 M698.246 1437.43 Q704.056 1437.43 707.112 1442.04 Q710.191 1446.62 710.191 1455.37 Q710.191 1464.1 707.112 1468.71 Q704.056 1473.29 698.246 1473.29 Q692.436 1473.29 689.357 1468.71 Q686.302 1464.1 686.302 1455.37 Q686.302 1446.62 689.357 1442.04 Q692.436 1437.43 698.246 1437.43 Z" fill="#000000" fill-rule="evenodd" fill-opacity="1" /><path clip-path="url(#clip230)" d="M927.831 1468.68 L935.47 1468.68 L935.47 1442.32 L927.16 1443.99 L927.16 1439.73 L935.424 1438.06 L940.1 1438.06 L940.1 1468.68 L947.739 1468.68 L947.739 1472.62 L927.831 1472.62 L927.831 1468.68 Z" fill="#000000" fill-rule="evenodd" fill-opacity="1" /><path clip-path="url(#clip230)" d="M956.002 1438.06 L978.225 1438.06 L978.225 1440.05 L965.678 1472.62 L960.794 1472.62 L972.6 1442 L956.002 1442 L956.002 1438.06 Z" fill="#000000" fill-rule="evenodd" fill-opacity="1" /><path clip-path="url(#clip230)" d="M987.345 1466.74 L992.229 1466.74 L992.229 1472.62 L987.345 1472.62 L987.345 1466.74 Z" fill="#000000" fill-rule="evenodd" fill-opacity="1" /><path clip-path="url(#clip230)" d="M1002.46 1438.06 L1020.82 1438.06 L1020.82 1442 L1006.74 1442 L1006.74 1450.47 Q1007.76 1450.12 1008.78 1449.96 Q1009.8 1449.77 1010.82 1449.77 Q1016.6 1449.77 1019.98 1452.94 Q1023.36 1456.12 1023.36 1461.53 Q1023.36 1467.11 1019.89 1470.21 Q1016.42 1473.29 1010.1 1473.29 Q1007.92 1473.29 1005.66 1472.92 Q1003.41 1472.55 1001 1471.81 L1001 1467.11 Q1003.09 1468.24 1005.31 1468.8 Q1007.53 1469.36 1010.01 1469.36 Q1014.01 1469.36 1016.35 1467.25 Q1018.69 1465.14 1018.69 1461.53 Q1018.69 1457.92 1016.35 1455.81 Q1014.01 1453.71 1010.01 1453.71 Q1008.13 1453.71 1006.26 1454.12 Q1004.41 1454.54 1002.46 1455.42 L1002.46 1438.06 Z" fill="#000000" fill-rule="evenodd" fill-opacity="1" /><path clip-path="url(#clip230)" d="M1245.09 1468.68 L1261.41 1468.68 L1261.41 1472.62 L1239.46 1472.62 L1239.46 1468.68 Q1242.13 1465.93 1246.71 1461.3 Q1251.32 1456.65 1252.5 1455.31 Q1254.74 1452.78 1255.62 1451.05 Q1256.52 1449.29 1256.52 1447.6 Q1256.52 1444.84 1254.58 1443.11 Q1252.66 1441.37 1249.56 1441.37 Q1247.36 1441.37 1244.9 1442.13 Q1242.47 1442.9 1239.7 1444.45 L1239.7 1439.73 Q1242.52 1438.59 1244.97 1438.01 Q1247.43 1437.43 1249.46 1437.43 Q1254.83 1437.43 1258.03 1440.12 Q1261.22 1442.81 1261.22 1447.3 Q1261.22 1449.43 1260.41 1451.35 Q1259.63 1453.24 1257.52 1455.84 Q1256.94 1456.51 1253.84 1459.73 Q1250.74 1462.92 1245.09 1468.68 Z" fill="#000000" fill-rule="evenodd" fill-opacity="1" /><path clip-path="url(#clip230)" d="M1281.22 1441.14 Q1277.61 1441.14 1275.78 1444.7 Q1273.98 1448.24 1273.98 1455.37 Q1273.98 1462.48 1275.78 1466.05 Q1277.61 1469.59 1281.22 1469.59 Q1284.86 1469.59 1286.66 1466.05 Q1288.49 1462.48 1288.49 1455.37 Q1288.49 1448.24 1286.66 1444.7 Q1284.86 1441.14 1281.22 1441.14 M1281.22 1437.43 Q1287.03 1437.43 1290.09 1442.04 Q1293.17 1446.62 1293.17 1455.37 Q1293.17 1464.1 1290.09 1468.71 Q1287.03 1473.29 1281.22 1473.29 Q1275.41 1473.29 1272.33 1468.71 Q1269.28 1464.1 1269.28 1455.37 Q1269.28 1446.62 1272.33 1442.04 Q1275.41 1437.43 1281.22 1437.43 Z" fill="#000000" fill-rule="evenodd" fill-opacity="1" /><path clip-path="url(#clip230)" d="M1301.39 1466.74 L1306.27 1466.74 L1306.27 1472.62 L1301.39 1472.62 L1301.39 1466.74 Z" fill="#000000" fill-rule="evenodd" fill-opacity="1" /><path clip-path="url(#clip230)" d="M1326.45 1441.14 Q1322.84 1441.14 1321.02 1444.7 Q1319.21 1448.24 1319.21 1455.37 Q1319.21 1462.48 1321.02 1466.05 Q1322.84 1469.59 1326.45 1469.59 Q1330.09 1469.59 1331.89 1466.05 Q1333.72 1462.48 1333.72 1455.37 Q1333.72 1448.24 1331.89 1444.7 Q1330.09 1441.14 1326.45 1441.14 M1326.45 1437.43 Q1332.27 1437.43 1335.32 1442.04 Q1338.4 1446.62 1338.4 1455.37 Q1338.4 1464.1 1335.32 1468.71 Q1332.27 1473.29 1326.45 1473.29 Q1320.64 1473.29 1317.57 1468.71 Q1314.51 1464.1 1314.51 1455.37 Q1314.51 1446.62 1317.57 1442.04 Q1320.64 1437.43 1326.45 1437.43 Z" fill="#000000" fill-rule="evenodd" fill-opacity="1" /><path clip-path="url(#clip230)" d="M1559.26 1468.68 L1575.58 1468.68 L1575.58 1472.62 L1553.63 1472.62 L1553.63 1468.68 Q1556.29 1465.93 1560.88 1461.3 Q1565.48 1456.65 1566.66 1455.31 Q1568.91 1452.78 1569.79 1451.05 Q1570.69 1449.29 1570.69 1447.6 Q1570.69 1444.84 1568.75 1443.11 Q1566.83 1441.37 1563.73 1441.37 Q1561.53 1441.37 1559.07 1442.13 Q1556.64 1442.9 1553.86 1444.45 L1553.86 1439.73 Q1556.69 1438.59 1559.14 1438.01 Q1561.6 1437.43 1563.63 1437.43 Q1569 1437.43 1572.2 1440.12 Q1575.39 1442.81 1575.39 1447.3 Q1575.39 1449.43 1574.58 1451.35 Q1573.79 1453.24 1571.69 1455.84 Q1571.11 1456.51 1568.01 1459.73 Q1564.91 1462.92 1559.26 1468.68 Z" fill="#000000" fill-rule="evenodd" fill-opacity="1" /><path clip-path="url(#clip230)" d="M1589.42 1468.68 L1605.74 1468.68 L1605.74 1472.62 L1583.79 1472.62 L1583.79 1468.68 Q1586.46 1465.93 1591.04 1461.3 Q1595.65 1456.65 1596.83 1455.31 Q1599.07 1452.78 1599.95 1451.05 Q1600.85 1449.29 1600.85 1447.6 Q1600.85 1444.84 1598.91 1443.11 Q1596.99 1441.37 1593.89 1441.37 Q1591.69 1441.37 1589.23 1442.13 Q1586.8 1442.9 1584.03 1444.45 L1584.03 1439.73 Q1586.85 1438.59 1589.3 1438.01 Q1591.76 1437.43 1593.79 1437.43 Q1599.16 1437.43 1602.36 1440.12 Q1605.55 1442.81 1605.55 1447.3 Q1605.55 1449.43 1604.74 1451.35 Q1603.96 1453.24 1601.85 1455.84 Q1601.27 1456.51 1598.17 1459.73 Q1595.07 1462.92 1589.42 1468.68 Z" fill="#000000" fill-rule="evenodd" fill-opacity="1" /><path clip-path="url(#clip230)" d="M1615.55 1466.74 L1620.44 1466.74 L1620.44 1472.62 L1615.55 1472.62 L1615.55 1466.74 Z" fill="#000000" fill-rule="evenodd" fill-opacity="1" /><path clip-path="url(#clip230)" d="M1630.67 1438.06 L1649.03 1438.06 L1649.03 1442 L1634.95 1442 L1634.95 1450.47 Q1635.97 1450.12 1636.99 1449.96 Q1638.01 1449.77 1639.03 1449.77 Q1644.81 1449.77 1648.19 1452.94 Q1651.57 1456.12 1651.57 1461.53 Q1651.57 1467.11 1648.1 1470.21 Q1644.63 1473.29 1638.31 1473.29 Q1636.13 1473.29 1633.86 1472.92 Q1631.62 1472.55 1629.21 1471.81 L1629.21 1467.11 Q1631.29 1468.24 1633.52 1468.8 Q1635.74 1469.36 1638.22 1469.36 Q1642.22 1469.36 1644.56 1467.25 Q1646.9 1465.14 1646.9 1461.53 Q1646.9 1457.92 1644.56 1455.81 Q1642.22 1453.71 1638.22 1453.71 Q1636.34 1453.71 1634.47 1454.12 Q1632.61 1454.54 1630.67 1455.42 L1630.67 1438.06 Z" fill="#000000" fill-rule="evenodd" fill-opacity="1" /><path clip-path="url(#clip230)" d="M1872.43 1468.68 L1888.75 1468.68 L1888.75 1472.62 L1866.81 1472.62 L1866.81 1468.68 Q1869.47 1465.93 1874.05 1461.3 Q1878.66 1456.65 1879.84 1455.31 Q1882.08 1452.78 1882.96 1451.05 Q1883.87 1449.29 1883.87 1447.6 Q1883.87 1444.84 1881.92 1443.11 Q1880 1441.37 1876.9 1441.37 Q1874.7 1441.37 1872.24 1442.13 Q1869.81 1442.9 1867.04 1444.45 L1867.04 1439.73 Q1869.86 1438.59 1872.31 1438.01 Q1874.77 1437.43 1876.81 1437.43 Q1882.18 1437.43 1885.37 1440.12 Q1888.56 1442.81 1888.56 1447.3 Q1888.56 1449.43 1887.75 1451.35 Q1886.97 1453.24 1884.86 1455.84 Q1884.28 1456.51 1881.18 1459.73 Q1878.08 1462.92 1872.43 1468.68 Z" fill="#000000" fill-rule="evenodd" fill-opacity="1" /><path clip-path="url(#clip230)" d="M1898.61 1438.06 L1916.97 1438.06 L1916.97 1442 L1902.89 1442 L1902.89 1450.47 Q1903.91 1450.12 1904.93 1449.96 Q1905.95 1449.77 1906.97 1449.77 Q1912.75 1449.77 1916.13 1452.94 Q1919.51 1456.12 1919.51 1461.53 Q1919.51 1467.11 1916.04 1470.21 Q1912.57 1473.29 1906.25 1473.29 Q1904.07 1473.29 1901.8 1472.92 Q1899.56 1472.55 1897.15 1471.81 L1897.15 1467.11 Q1899.24 1468.24 1901.46 1468.8 Q1903.68 1469.36 1906.16 1469.36 Q1910.16 1469.36 1912.5 1467.25 Q1914.84 1465.14 1914.84 1461.53 Q1914.84 1457.92 1912.5 1455.81 Q1910.16 1453.71 1906.16 1453.71 Q1904.28 1453.71 1902.41 1454.12 Q1900.55 1454.54 1898.61 1455.42 L1898.61 1438.06 Z" fill="#000000" fill-rule="evenodd" fill-opacity="1" /><path clip-path="url(#clip230)" d="M1928.73 1466.74 L1933.61 1466.74 L1933.61 1472.62 L1928.73 1472.62 L1928.73 1466.74 Z" fill="#000000" fill-rule="evenodd" fill-opacity="1" /><path clip-path="url(#clip230)" d="M1953.8 1441.14 Q1950.18 1441.14 1948.36 1444.7 Q1946.55 1448.24 1946.55 1455.37 Q1946.55 1462.48 1948.36 1466.05 Q1950.18 1469.59 1953.8 1469.59 Q1957.43 1469.59 1959.24 1466.05 Q1961.06 1462.48 1961.06 1455.37 Q1961.06 1448.24 1959.24 1444.7 Q1957.43 1441.14 1953.8 1441.14 M1953.8 1437.43 Q1959.61 1437.43 1962.66 1442.04 Q1965.74 1446.62 1965.74 1455.37 Q1965.74 1464.1 1962.66 1468.71 Q1959.61 1473.29 1953.8 1473.29 Q1947.99 1473.29 1944.91 1468.71 Q1941.85 1464.1 1941.85 1455.37 Q1941.85 1446.62 1944.91 1442.04 Q1947.99 1437.43 1953.8 1437.43 Z" fill="#000000" fill-rule="evenodd" fill-opacity="1" /><path clip-path="url(#clip230)" d="M2186.6 1468.68 L2202.92 1468.68 L2202.92 1472.62 L2180.97 1472.62 L2180.97 1468.68 Q2183.64 1465.93 2188.22 1461.3 Q2192.82 1456.65 2194.01 1455.31 Q2196.25 1452.78 2197.13 1451.05 Q2198.03 1449.29 2198.03 1447.6 Q2198.03 1444.84 2196.09 1443.11 Q2194.17 1441.37 2191.07 1441.37 Q2188.87 1441.37 2186.41 1442.13 Q2183.98 1442.9 2181.2 1444.45 L2181.2 1439.73 Q2184.03 1438.59 2186.48 1438.01 Q2188.94 1437.43 2190.97 1437.43 Q2196.34 1437.43 2199.54 1440.12 Q2202.73 1442.81 2202.73 1447.3 Q2202.73 1449.43 2201.92 1451.35 Q2201.14 1453.24 2199.03 1455.84 Q2198.45 1456.51 2195.35 1459.73 Q2192.25 1462.92 2186.6 1468.68 Z" fill="#000000" fill-rule="evenodd" fill-opacity="1" /><path clip-path="url(#clip230)" d="M2211.55 1438.06 L2233.77 1438.06 L2233.77 1440.05 L2221.23 1472.62 L2216.34 1472.62 L2228.15 1442 L2211.55 1442 L2211.55 1438.06 Z" fill="#000000" fill-rule="evenodd" fill-opacity="1" /><path clip-path="url(#clip230)" d="M2242.89 1466.74 L2247.78 1466.74 L2247.78 1472.62 L2242.89 1472.62 L2242.89 1466.74 Z" fill="#000000" fill-rule="evenodd" fill-opacity="1" /><path clip-path="url(#clip230)" d="M2258.01 1438.06 L2276.37 1438.06 L2276.37 1442 L2262.29 1442 L2262.29 1450.47 Q2263.31 1450.12 2264.33 1449.96 Q2265.35 1449.77 2266.37 1449.77 Q2272.15 1449.77 2275.53 1452.94 Q2278.91 1456.12 2278.91 1461.53 Q2278.91 1467.11 2275.44 1470.21 Q2271.97 1473.29 2265.65 1473.29 Q2263.47 1473.29 2261.2 1472.92 Q2258.96 1472.55 2256.55 1471.81 L2256.55 1467.11 Q2258.63 1468.24 2260.86 1468.8 Q2263.08 1469.36 2265.56 1469.36 Q2269.56 1469.36 2271.9 1467.25 Q2274.24 1465.14 2274.24 1461.53 Q2274.24 1457.92 2271.9 1455.81 Q2269.56 1453.71 2265.56 1453.71 Q2263.68 1453.71 2261.81 1454.12 Q2259.95 1454.54 2258.01 1455.42 L2258.01 1438.06 Z" fill="#000000" fill-rule="evenodd" fill-opacity="1" /><path clip-path="url(#clip230)" d="M1158.5 1575.03 L1158.5 1572.45 Q1162.97 1572.45 1163.99 1571.91 Q1165.02 1571.34 1165.02 1568.63 L1165.02 1524.98 Q1165.02 1521.86 1163.91 1521.09 Q1162.84 1520.31 1158.5 1520.31 L1158.5 1517.68 L1170.55 1516.78 L1170.55 1568.63 Q1170.55 1571.34 1171.61 1571.91 Q1172.68 1572.45 1177.11 1572.45 L1177.11 1575.03 Q1176.08 1575.03 1173.95 1574.95 Q1171.82 1574.86 1170.26 1574.82 Q1168.7 1574.78 1167.8 1574.78 Q1166.82 1574.78 1158.5 1575.03 Z" fill="#000000" fill-rule="evenodd" fill-opacity="1" /><path clip-path="url(#clip230)" d="M1189.74 1570.52 Q1184.2 1565.03 1184.2 1557.07 Q1184.2 1549.08 1189.61 1543.26 Q1195.07 1537.4 1202.85 1537.4 Q1210.48 1537.4 1215.93 1543.22 Q1221.42 1549 1221.42 1557.07 Q1221.42 1564.99 1215.89 1570.48 Q1210.4 1575.97 1202.77 1575.97 Q1195.31 1575.97 1189.74 1570.52 M1191.17 1556.38 Q1191.17 1564.53 1193.3 1568.22 Q1196.58 1573.84 1202.85 1573.84 Q1205.97 1573.84 1208.55 1572.16 Q1211.17 1570.48 1212.61 1567.65 Q1214.45 1563.96 1214.45 1556.38 Q1214.45 1548.3 1212.24 1544.74 Q1208.96 1539.29 1202.77 1539.29 Q1200.07 1539.29 1197.4 1540.72 Q1194.78 1542.11 1193.18 1544.9 Q1191.17 1548.59 1191.17 1556.38 Z" fill="#000000" fill-rule="evenodd" fill-opacity="1" /><path clip-path="url(#clip230)" d="M1222.75 1581.67 Q1222.75 1578.96 1224.8 1576.63 Q1226.89 1574.29 1230.5 1573.27 Q1226.81 1570.93 1226.81 1565.81 Q1226.81 1561.87 1229.39 1558.84 Q1225.46 1555.56 1225.46 1550.19 Q1225.46 1545.23 1229.39 1541.58 Q1233.33 1537.93 1239.06 1537.93 Q1244.11 1537.93 1247.96 1540.97 Q1251.98 1537.03 1256.85 1536.99 Q1259.03 1536.99 1260.05 1538.34 Q1261.12 1539.69 1261.12 1541.13 Q1261.12 1542.4 1260.3 1543.02 Q1259.52 1543.63 1258.7 1543.63 Q1257.67 1543.63 1256.94 1542.97 Q1256.24 1542.28 1256.24 1541.21 Q1256.24 1539.45 1257.59 1538.92 Q1257.35 1538.83 1256.77 1538.83 Q1252.67 1538.83 1249.19 1542.11 Q1252.63 1545.31 1252.63 1550.27 Q1252.63 1555.23 1248.7 1558.88 Q1244.76 1562.53 1239.06 1562.53 Q1234.35 1562.53 1230.74 1559.9 Q1229.31 1561.58 1229.31 1563.88 Q1229.31 1565.97 1230.58 1567.61 Q1231.85 1569.25 1233.78 1569.49 Q1234.35 1569.58 1240.05 1569.58 Q1243.41 1569.58 1245.25 1569.66 Q1247.1 1569.74 1249.72 1570.31 Q1252.39 1570.85 1254.48 1571.91 Q1259.93 1574.95 1259.97 1581.5 Q1259.97 1586.3 1254.43 1589.29 Q1248.94 1592.33 1241.32 1592.33 Q1233.61 1592.33 1228.16 1589.25 Q1222.75 1586.22 1222.75 1581.67 M1227.14 1581.67 Q1227.14 1585.11 1231.19 1587.73 Q1235.25 1590.4 1241.4 1590.4 Q1247.43 1590.4 1251.48 1587.78 Q1255.58 1585.19 1255.58 1581.67 Q1255.58 1579.17 1254.15 1577.57 Q1252.71 1575.97 1249.76 1575.31 Q1246.85 1574.7 1244.8 1574.58 Q1242.75 1574.45 1238.98 1574.45 L1234.02 1574.45 Q1231.15 1574.62 1229.14 1576.71 Q1227.14 1578.8 1227.14 1581.67 M1231.73 1550.27 Q1231.73 1560.6 1239.06 1560.6 Q1242.75 1560.6 1245.01 1557.24 Q1246.36 1554.98 1246.36 1550.19 Q1246.36 1539.86 1239.06 1539.86 Q1235.37 1539.86 1233.08 1543.22 Q1231.73 1545.47 1231.73 1550.27 Z" fill="#000000" fill-rule="evenodd" fill-opacity="1" /><path clip-path="url(#clip230)" d="M1269.69 1598.29 Q1269.69 1597.22 1269.78 1596.91 Q1269.9 1596.59 1270.35 1596.1 L1281.63 1583.54 Q1287.8 1576.59 1287.8 1570.54 Q1287.8 1566.61 1285.73 1563.8 Q1283.7 1560.98 1279.94 1560.98 Q1277.36 1560.98 1275.17 1562.56 Q1272.99 1564.14 1271.99 1566.95 Q1272.16 1566.9 1272.76 1566.9 Q1274.23 1566.9 1275.03 1567.81 Q1275.86 1568.73 1275.86 1569.97 Q1275.86 1571.54 1274.83 1572.32 Q1273.83 1573.06 1272.82 1573.06 Q1272.42 1573.06 1271.88 1572.98 Q1271.36 1572.89 1270.53 1572.09 Q1269.69 1571.26 1269.69 1569.79 Q1269.69 1565.69 1272.79 1562.42 Q1275.92 1559.15 1280.68 1559.15 Q1286.08 1559.15 1289.61 1562.36 Q1293.16 1565.55 1293.16 1570.54 Q1293.16 1572.29 1292.62 1573.9 Q1292.1 1575.47 1291.39 1576.71 Q1290.7 1577.94 1288.8 1579.92 Q1286.91 1581.9 1285.39 1583.31 Q1283.87 1584.71 1280.45 1587.7 L1274.23 1593.75 L1284.82 1593.75 Q1289.98 1593.75 1290.38 1593.29 Q1290.96 1592.46 1291.67 1588.07 L1293.16 1588.07 L1291.5 1598.29 L1269.69 1598.29 Z" fill="#000000" fill-rule="evenodd" fill-opacity="1" /><path clip-path="url(#clip230)" d="M1301.9 1593.43 L1301.9 1515.27 Q1301.9 1512.15 1303.58 1512.15 Q1305.26 1512.15 1305.26 1514.65 L1305.26 1592.82 Q1305.26 1595.93 1303.58 1595.93 Q1301.9 1595.93 1301.9 1593.43 Z" fill="#000000" fill-rule="evenodd" fill-opacity="1" /><path clip-path="url(#clip230)" d="M1379.59 1518.71 Q1379.51 1520.23 1378.48 1520.31 Q1376.93 1520.39 1375.98 1520.59 Q1375.04 1520.76 1373.56 1521.37 Q1372.09 1521.99 1370.65 1523.46 Q1369.22 1524.94 1367.74 1527.28 L1337.53 1575.36 Q1337 1576.26 1336.55 1576.54 Q1336.14 1576.87 1335.2 1576.87 Q1334.34 1576.87 1334.01 1576.5 Q1333.68 1576.18 1333.52 1574.95 L1326.88 1523.14 Q1326.75 1522.19 1326.63 1521.78 Q1326.51 1521.37 1326.02 1520.96 Q1325.57 1520.55 1324.58 1520.43 Q1323.6 1520.31 1321.84 1520.31 Q1321.02 1520.31 1320.65 1520.27 Q1320.32 1520.23 1320.03 1520.02 Q1319.75 1519.77 1319.75 1519.28 Q1319.75 1518.54 1320.03 1518.18 Q1320.36 1517.77 1320.61 1517.72 Q1320.89 1517.68 1321.34 1517.68 Q1322.04 1517.68 1323.56 1517.77 Q1325.07 1517.85 1325.85 1517.85 Q1326.59 1517.85 1328.15 1517.89 Q1329.71 1517.93 1330.48 1517.93 Q1332.21 1517.93 1335.69 1517.81 Q1339.22 1517.68 1340.9 1517.68 Q1342.04 1517.68 1342.04 1518.63 Q1342.04 1519.77 1341.55 1520.06 Q1341.06 1520.31 1339.95 1520.31 Q1337.17 1520.31 1335.65 1521 Q1334.17 1521.7 1334.17 1522.81 L1339.87 1567.24 L1365.65 1526.25 Q1366.92 1524.32 1366.92 1523.05 Q1366.92 1520.59 1363.03 1520.31 Q1361.72 1520.31 1361.72 1519.28 Q1361.72 1518.54 1362.05 1518.18 Q1362.37 1517.77 1362.62 1517.72 Q1362.91 1517.68 1363.32 1517.68 Q1364.67 1517.68 1367.42 1517.81 Q1370.2 1517.93 1371.6 1517.93 Q1372.74 1517.93 1375.08 1517.81 Q1377.42 1517.68 1378.48 1517.68 Q1379.59 1517.68 1379.59 1518.71 Z" fill="#000000" fill-rule="evenodd" fill-opacity="1" /><path clip-path="url(#clip230)" d="M1390.35 1593.43 L1390.35 1515.27 Q1390.35 1512.15 1392.03 1512.15 Q1393.71 1512.15 1393.71 1514.65 L1393.71 1592.82 Q1393.71 1595.93 1392.03 1595.93 Q1390.35 1595.93 1390.35 1593.43 Z" fill="#000000" fill-rule="evenodd" fill-opacity="1" /><polyline clip-path="url(#clip230)" style="stroke:#000000; stroke-linecap:butt; stroke-linejoin:round; stroke-width:4; stroke-opacity:1; fill:none" points="
  230.743,1410.22 230.743,47.2441 
  "/>
<polyline clip-path="url(#clip230)" style="stroke:#000000; stroke-linecap:butt; stroke-linejoin:round; stroke-width:4; stroke-opacity:1; fill:none" points="
  230.743,1371.65 249.641,1371.65 
  "/>
<polyline clip-path="url(#clip230)" style="stroke:#000000; stroke-linecap:butt; stroke-linejoin:round; stroke-width:4; stroke-opacity:1; fill:none" points="
  230.743,1132.94 249.641,1132.94 
  "/>
<polyline clip-path="url(#clip230)" style="stroke:#000000; stroke-linecap:butt; stroke-linejoin:round; stroke-width:4; stroke-opacity:1; fill:none" points="
  230.743,894.241 249.641,894.241 
  "/>
<polyline clip-path="url(#clip230)" style="stroke:#000000; stroke-linecap:butt; stroke-linejoin:round; stroke-width:4; stroke-opacity:1; fill:none" points="
  230.743,655.539 249.641,655.539 
  "/>
<polyline clip-path="url(#clip230)" style="stroke:#000000; stroke-linecap:butt; stroke-linejoin:round; stroke-width:4; stroke-opacity:1; fill:none" points="
  230.743,416.837 249.641,416.837 
  "/>
<polyline clip-path="url(#clip230)" style="stroke:#000000; stroke-linecap:butt; stroke-linejoin:round; stroke-width:4; stroke-opacity:1; fill:none" points="
  230.743,178.135 249.641,178.135 
  "/>
<path clip-path="url(#clip230)" d="M128.378 1384.99 L136.016 1384.99 L136.016 1358.62 L127.706 1360.29 L127.706 1356.03 L135.97 1354.37 L140.646 1354.37 L140.646 1384.99 L148.285 1384.99 L148.285 1388.93 L128.378 1388.93 L128.378 1384.99 Z" fill="#000000" fill-rule="evenodd" fill-opacity="1" /><path clip-path="url(#clip230)" d="M157.729 1383.05 L162.613 1383.05 L162.613 1388.93 L157.729 1388.93 L157.729 1383.05 Z" fill="#000000" fill-rule="evenodd" fill-opacity="1" /><path clip-path="url(#clip230)" d="M182.799 1357.44 Q179.187 1357.44 177.359 1361.01 Q175.553 1364.55 175.553 1371.68 Q175.553 1378.79 177.359 1382.35 Q179.187 1385.89 182.799 1385.89 Q186.433 1385.89 188.238 1382.35 Q190.067 1378.79 190.067 1371.68 Q190.067 1364.55 188.238 1361.01 Q186.433 1357.44 182.799 1357.44 M182.799 1353.74 Q188.609 1353.74 191.664 1358.35 Q194.743 1362.93 194.743 1371.68 Q194.743 1380.41 191.664 1385.01 Q188.609 1389.6 182.799 1389.6 Q176.988 1389.6 173.91 1385.01 Q170.854 1380.41 170.854 1371.68 Q170.854 1362.93 173.91 1358.35 Q176.988 1353.74 182.799 1353.74 Z" fill="#000000" fill-rule="evenodd" fill-opacity="1" /><path clip-path="url(#clip230)" d="M129.604 1146.29 L137.243 1146.29 L137.243 1119.92 L128.933 1121.59 L128.933 1117.33 L137.197 1115.66 L141.873 1115.66 L141.873 1146.29 L149.512 1146.29 L149.512 1150.22 L129.604 1150.22 L129.604 1146.29 Z" fill="#000000" fill-rule="evenodd" fill-opacity="1" /><path clip-path="url(#clip230)" d="M158.956 1144.34 L163.84 1144.34 L163.84 1150.22 L158.956 1150.22 L158.956 1144.34 Z" fill="#000000" fill-rule="evenodd" fill-opacity="1" /><path clip-path="url(#clip230)" d="M174.836 1146.29 L182.474 1146.29 L182.474 1119.92 L174.164 1121.59 L174.164 1117.33 L182.428 1115.66 L187.104 1115.66 L187.104 1146.29 L194.743 1146.29 L194.743 1150.22 L174.836 1150.22 L174.836 1146.29 Z" fill="#000000" fill-rule="evenodd" fill-opacity="1" /><path clip-path="url(#clip230)" d="M129.975 907.586 L137.614 907.586 L137.614 881.22 L129.303 882.887 L129.303 878.627 L137.567 876.961 L142.243 876.961 L142.243 907.586 L149.882 907.586 L149.882 911.521 L129.975 911.521 L129.975 907.586 Z" fill="#000000" fill-rule="evenodd" fill-opacity="1" /><path clip-path="url(#clip230)" d="M159.326 905.641 L164.211 905.641 L164.211 911.521 L159.326 911.521 L159.326 905.641 Z" fill="#000000" fill-rule="evenodd" fill-opacity="1" /><path clip-path="url(#clip230)" d="M178.424 907.586 L194.743 907.586 L194.743 911.521 L172.799 911.521 L172.799 907.586 Q175.461 904.831 180.044 900.201 Q184.65 895.549 185.831 894.206 Q188.076 891.683 188.956 889.947 Q189.859 888.188 189.859 886.498 Q189.859 883.743 187.914 882.007 Q185.993 880.271 182.891 880.271 Q180.692 880.271 178.238 881.035 Q175.808 881.799 173.03 883.35 L173.03 878.627 Q175.854 877.493 178.308 876.915 Q180.762 876.336 182.799 876.336 Q188.169 876.336 191.363 879.021 Q194.558 881.706 194.558 886.197 Q194.558 888.327 193.748 890.248 Q192.961 892.146 190.854 894.739 Q190.275 895.41 187.174 898.627 Q184.072 901.822 178.424 907.586 Z" fill="#000000" fill-rule="evenodd" fill-opacity="1" /><path clip-path="url(#clip230)" d="M129.026 668.884 L136.665 668.884 L136.665 642.518 L128.354 644.185 L128.354 639.925 L136.618 638.259 L141.294 638.259 L141.294 668.884 L148.933 668.884 L148.933 672.819 L129.026 672.819 L129.026 668.884 Z" fill="#000000" fill-rule="evenodd" fill-opacity="1" /><path clip-path="url(#clip230)" d="M158.377 666.939 L163.262 666.939 L163.262 672.819 L158.377 672.819 L158.377 666.939 Z" fill="#000000" fill-rule="evenodd" fill-opacity="1" /><path clip-path="url(#clip230)" d="M187.613 654.185 Q190.97 654.902 192.845 657.171 Q194.743 659.439 194.743 662.772 Q194.743 667.888 191.224 670.689 Q187.706 673.49 181.224 673.49 Q179.049 673.49 176.734 673.05 Q174.442 672.634 171.988 671.777 L171.988 667.263 Q173.933 668.397 176.248 668.976 Q178.562 669.555 181.086 669.555 Q185.484 669.555 187.775 667.819 Q190.09 666.083 190.09 662.772 Q190.09 659.717 187.937 658.004 Q185.808 656.268 181.988 656.268 L177.961 656.268 L177.961 652.425 L182.174 652.425 Q185.623 652.425 187.451 651.06 Q189.28 649.671 189.28 647.078 Q189.28 644.416 187.382 643.004 Q185.507 641.569 181.988 641.569 Q180.067 641.569 177.868 641.986 Q175.669 642.402 173.03 643.282 L173.03 639.115 Q175.692 638.374 178.007 638.004 Q180.345 637.634 182.405 637.634 Q187.729 637.634 190.831 640.064 Q193.933 642.472 193.933 646.592 Q193.933 649.462 192.289 651.453 Q190.646 653.421 187.613 654.185 Z" fill="#000000" fill-rule="evenodd" fill-opacity="1" /><path clip-path="url(#clip230)" d="M127.891 430.181 L135.53 430.181 L135.53 403.816 L127.22 405.483 L127.22 401.223 L135.484 399.557 L140.16 399.557 L140.16 430.181 L147.799 430.181 L147.799 434.117 L127.891 434.117 L127.891 430.181 Z" fill="#000000" fill-rule="evenodd" fill-opacity="1" /><path clip-path="url(#clip230)" d="M157.243 428.237 L162.127 428.237 L162.127 434.117 L157.243 434.117 L157.243 428.237 Z" fill="#000000" fill-rule="evenodd" fill-opacity="1" /><path clip-path="url(#clip230)" d="M185.16 403.631 L173.354 422.08 L185.16 422.08 L185.16 403.631 M183.933 399.557 L189.812 399.557 L189.812 422.08 L194.743 422.08 L194.743 425.969 L189.812 425.969 L189.812 434.117 L185.16 434.117 L185.16 425.969 L169.558 425.969 L169.558 421.455 L183.933 399.557 Z" fill="#000000" fill-rule="evenodd" fill-opacity="1" /><path clip-path="url(#clip230)" d="M129.373 191.479 L137.012 191.479 L137.012 165.114 L128.702 166.78 L128.702 162.521 L136.965 160.855 L141.641 160.855 L141.641 191.479 L149.28 191.479 L149.28 195.415 L129.373 195.415 L129.373 191.479 Z" fill="#000000" fill-rule="evenodd" fill-opacity="1" /><path clip-path="url(#clip230)" d="M158.725 189.535 L163.609 189.535 L163.609 195.415 L158.725 195.415 L158.725 189.535 Z" fill="#000000" fill-rule="evenodd" fill-opacity="1" /><path clip-path="url(#clip230)" d="M173.84 160.855 L192.197 160.855 L192.197 164.79 L178.123 164.79 L178.123 173.262 Q179.141 172.915 180.16 172.753 Q181.178 172.567 182.197 172.567 Q187.984 172.567 191.363 175.739 Q194.743 178.91 194.743 184.327 Q194.743 189.905 191.271 193.007 Q187.799 196.086 181.479 196.086 Q179.303 196.086 177.035 195.715 Q174.789 195.345 172.382 194.604 L172.382 189.905 Q174.465 191.04 176.687 191.595 Q178.91 192.151 181.387 192.151 Q185.391 192.151 187.729 190.044 Q190.067 187.938 190.067 184.327 Q190.067 180.716 187.729 178.609 Q185.391 176.503 181.387 176.503 Q179.512 176.503 177.637 176.919 Q175.785 177.336 173.84 178.216 L173.84 160.855 Z" fill="#000000" fill-rule="evenodd" fill-opacity="1" /><path clip-path="url(#clip230)" d="M32.0609 706.184 Q32.3888 706.184 35.2581 707.783 Q40.5457 710.447 48.6206 713.849 Q56.6955 717.251 62.6799 719.178 Q64.1145 719.588 65.959 719.875 Q71.6156 720.613 80.3873 722.99 Q83.1335 723.81 84.2812 724.343 Q85.4289 724.875 85.4289 725.654 Q85.4289 726.761 83.9123 726.761 Q82.3957 726.761 76.7392 725.367 Q71.0827 723.933 65.8771 722.375 Q63.0078 721.391 57.6382 721.391 Q55.9167 721.391 54.3591 721.473 Q52.8015 721.555 50.5471 721.883 Q48.2927 722.211 46.4481 722.744 Q44.6036 723.277 42.6771 724.302 Q40.7096 725.326 39.398 726.72 Q38.0453 728.114 37.1846 730.245 Q36.3238 732.336 36.3238 734.959 Q36.3238 735.615 36.4058 736.434 Q36.4468 737.213 36.9796 739.099 Q37.5125 740.943 38.4552 742.501 Q39.357 744.058 41.3655 745.739 Q43.3739 747.42 46.0792 748.321 L46.4891 748.649 Q46.4891 749.182 46.4891 749.469 Q46.4481 749.715 46.2432 750.002 Q46.0382 750.248 45.6693 750.248 Q44.8086 750.248 43.087 749.592 Q41.3655 748.895 39.152 747.502 Q36.9386 746.067 34.9711 744.222 Q33.0037 742.337 31.651 739.591 Q30.2984 736.844 30.2984 733.893 Q30.2984 726.31 39.5209 722.703 Q47.3499 719.547 56.6545 719.26 Q40.1358 712.702 31.815 708.193 Q31.2001 707.947 31.2001 707.209 Q31.2411 706.184 32.0609 706.184 Z" fill="#000000" fill-rule="evenodd" fill-opacity="1" /><polyline clip-path="url(#clip233)" style="stroke:#000000; stroke-linecap:butt; stroke-linejoin:round; stroke-width:4; stroke-opacity:1; fill:none" points="
  1790.89,148.937 1790.89,146.417 
  "/>
<polyline clip-path="url(#clip233)" style="stroke:#000000; stroke-linecap:butt; stroke-linejoin:round; stroke-width:4; stroke-opacity:1; fill:none" points="
  290.8,456.388 290.8,429.119 
  "/>
<polyline clip-path="url(#clip233)" style="stroke:#000000; stroke-linecap:butt; stroke-linejoin:round; stroke-width:4; stroke-opacity:1; fill:none" points="
  1540.04,162.868 1540.04,159.417 
  "/>
<polyline clip-path="url(#clip233)" style="stroke:#000000; stroke-linecap:butt; stroke-linejoin:round; stroke-width:4; stroke-opacity:1; fill:none" points="
  2292.7,116.965 2292.7,115.676 
  "/>
<polyline clip-path="url(#clip233)" style="stroke:#000000; stroke-linecap:butt; stroke-linejoin:round; stroke-width:4; stroke-opacity:1; fill:none" points="
  1038.7,232.82 1038.7,225.641 
  "/>
<polyline clip-path="url(#clip233)" style="stroke:#000000; stroke-linecap:butt; stroke-linejoin:round; stroke-width:4; stroke-opacity:1; fill:none" points="
  538.941,404.913 538.941,387.878 
  "/>
<polyline clip-path="url(#clip233)" style="stroke:#000000; stroke-linecap:butt; stroke-linejoin:round; stroke-width:4; stroke-opacity:1; fill:none" points="
  1289.29,197.21 1289.29,192.313 
  "/>
<polyline clip-path="url(#clip233)" style="stroke:#000000; stroke-linecap:butt; stroke-linejoin:round; stroke-width:4; stroke-opacity:1; fill:none" points="
  2041.78,87.7205 2041.78,85.8189 
  "/>
<polyline clip-path="url(#clip233)" style="stroke:#000000; stroke-linecap:butt; stroke-linejoin:round; stroke-width:4; stroke-opacity:1; fill:none" points="
  788.471,319.819 788.471,308.763 
  "/>
<line clip-path="url(#clip233)" x1="1806.89" y1="148.937" x2="1774.89" y2="148.937" style="stroke:#000000; stroke-width:3.2; stroke-opacity:1"/>
<line clip-path="url(#clip233)" x1="1806.89" y1="146.417" x2="1774.89" y2="146.417" style="stroke:#000000; stroke-width:3.2; stroke-opacity:1"/>
<line clip-path="url(#clip233)" x1="306.8" y1="456.388" x2="274.8" y2="456.388" style="stroke:#000000; stroke-width:3.2; stroke-opacity:1"/>
<line clip-path="url(#clip233)" x1="306.8" y1="429.119" x2="274.8" y2="429.119" style="stroke:#000000; stroke-width:3.2; stroke-opacity:1"/>
<line clip-path="url(#clip233)" x1="1556.04" y1="162.868" x2="1524.04" y2="162.868" style="stroke:#000000; stroke-width:3.2; stroke-opacity:1"/>
<line clip-path="url(#clip233)" x1="1556.04" y1="159.417" x2="1524.04" y2="159.417" style="stroke:#000000; stroke-width:3.2; stroke-opacity:1"/>
<line clip-path="url(#clip233)" x1="2308.7" y1="116.965" x2="2276.7" y2="116.965" style="stroke:#000000; stroke-width:3.2; stroke-opacity:1"/>
<line clip-path="url(#clip233)" x1="2308.7" y1="115.676" x2="2276.7" y2="115.676" style="stroke:#000000; stroke-width:3.2; stroke-opacity:1"/>
<line clip-path="url(#clip233)" x1="1054.7" y1="232.82" x2="1022.7" y2="232.82" style="stroke:#000000; stroke-width:3.2; stroke-opacity:1"/>
<line clip-path="url(#clip233)" x1="1054.7" y1="225.641" x2="1022.7" y2="225.641" style="stroke:#000000; stroke-width:3.2; stroke-opacity:1"/>
<line clip-path="url(#clip233)" x1="554.941" y1="404.913" x2="522.941" y2="404.913" style="stroke:#000000; stroke-width:3.2; stroke-opacity:1"/>
<line clip-path="url(#clip233)" x1="554.941" y1="387.878" x2="522.941" y2="387.878" style="stroke:#000000; stroke-width:3.2; stroke-opacity:1"/>
<line clip-path="url(#clip233)" x1="1305.29" y1="197.21" x2="1273.29" y2="197.21" style="stroke:#000000; stroke-width:3.2; stroke-opacity:1"/>
<line clip-path="url(#clip233)" x1="1305.29" y1="192.313" x2="1273.29" y2="192.313" style="stroke:#000000; stroke-width:3.2; stroke-opacity:1"/>
<line clip-path="url(#clip233)" x1="2057.78" y1="87.7205" x2="2025.78" y2="87.7205" style="stroke:#000000; stroke-width:3.2; stroke-opacity:1"/>
<line clip-path="url(#clip233)" x1="2057.78" y1="85.8189" x2="2025.78" y2="85.8189" style="stroke:#000000; stroke-width:3.2; stroke-opacity:1"/>
<line clip-path="url(#clip233)" x1="804.471" y1="319.819" x2="772.471" y2="319.819" style="stroke:#000000; stroke-width:3.2; stroke-opacity:1"/>
<line clip-path="url(#clip233)" x1="804.471" y1="308.763" x2="772.471" y2="308.763" style="stroke:#000000; stroke-width:3.2; stroke-opacity:1"/>
<line clip-path="url(#clip233)" x1="1806.89" y1="147.677" x2="1774.89" y2="147.677" style="stroke:#000000; stroke-width:3.2; stroke-opacity:1"/>
<line clip-path="url(#clip233)" x1="306.8" y1="442.754" x2="274.8" y2="442.754" style="stroke:#000000; stroke-width:3.2; stroke-opacity:1"/>
<line clip-path="url(#clip233)" x1="1556.04" y1="161.142" x2="1524.04" y2="161.142" style="stroke:#000000; stroke-width:3.2; stroke-opacity:1"/>
<line clip-path="url(#clip233)" x1="2308.7" y1="116.321" x2="2276.7" y2="116.321" style="stroke:#000000; stroke-width:3.2; stroke-opacity:1"/>
<line clip-path="url(#clip233)" x1="1054.7" y1="229.23" x2="1022.7" y2="229.23" style="stroke:#000000; stroke-width:3.2; stroke-opacity:1"/>
<line clip-path="url(#clip233)" x1="554.941" y1="396.396" x2="522.941" y2="396.396" style="stroke:#000000; stroke-width:3.2; stroke-opacity:1"/>
<line clip-path="url(#clip233)" x1="1305.29" y1="194.762" x2="1273.29" y2="194.762" style="stroke:#000000; stroke-width:3.2; stroke-opacity:1"/>
<line clip-path="url(#clip233)" x1="2057.78" y1="86.7697" x2="2025.78" y2="86.7697" style="stroke:#000000; stroke-width:3.2; stroke-opacity:1"/>
<line clip-path="url(#clip233)" x1="804.471" y1="314.291" x2="772.471" y2="314.291" style="stroke:#000000; stroke-width:3.2; stroke-opacity:1"/>
<polyline clip-path="url(#clip233)" style="stroke:#808080; stroke-linecap:butt; stroke-linejoin:round; stroke-width:4; stroke-opacity:1; fill:none" stroke-dasharray="16, 10" points="
  -1891.27,1371.65 4474.77,1371.65 
  "/>
<polyline clip-path="url(#clip233)" style="stroke:#808080; stroke-linecap:butt; stroke-linejoin:round; stroke-width:4; stroke-opacity:1; fill:none" stroke-dasharray="16, 10" points="
  -1891.27,1371.65 4474.77,1371.65 
  "/>
</svg>
