<?xml version="1.0" encoding="utf-8"?>
<svg xmlns="http://www.w3.org/2000/svg" xmlns:xlink="http://www.w3.org/1999/xlink" width="600" height="400" viewBox="0 0 2400 1600">
<defs>
  <clipPath id="clip450">
    <rect x="0" y="0" width="2400" height="1600"/>
  </clipPath>
</defs>
<path clip-path="url(#clip450)" d="
M0 1600 L2400 1600 L2400 0 L0 0  Z
  " fill="#000000" fill-rule="evenodd" fill-opacity="0"/>
<defs>
  <clipPath id="clip451">
    <rect x="480" y="0" width="1681" height="1600"/>
  </clipPath>
</defs>
<defs>
  <clipPath id="clip452">
    <rect x="269" y="47" width="2084" height="1364"/>
  </clipPath>
</defs>
<path clip-path="url(#clip450)" d="
M262.502 1410.22 L2352.76 1410.22 L2352.76 47.2441 L262.502 47.2441  Z
  " fill="#000000" fill-rule="evenodd" fill-opacity="0"/>
<defs>
  <clipPath id="clip453">
    <rect x="262" y="47" width="2091" height="1364"/>
  </clipPath>
</defs>
<polyline clip-path="url(#clip450)" style="stroke:#000000; stroke-linecap:butt; stroke-linejoin:round; stroke-width:4; stroke-opacity:1; fill:none" points="
  262.502,1410.22 2352.76,1410.22 
  "/>
<polyline clip-path="url(#clip450)" style="stroke:#000000; stroke-linecap:butt; stroke-linejoin:round; stroke-width:4; stroke-opacity:1; fill:none" points="
  385.989,1410.22 385.989,1391.32 
  "/>
<polyline clip-path="url(#clip450)" style="stroke:#000000; stroke-linecap:butt; stroke-linejoin:round; stroke-width:4; stroke-opacity:1; fill:none" points="
  739.241,1410.22 739.241,1391.32 
  "/>
<polyline clip-path="url(#clip450)" style="stroke:#000000; stroke-linecap:butt; stroke-linejoin:round; stroke-width:4; stroke-opacity:1; fill:none" points="
  1092.49,1410.22 1092.49,1391.32 
  "/>
<polyline clip-path="url(#clip450)" style="stroke:#000000; stroke-linecap:butt; stroke-linejoin:round; stroke-width:4; stroke-opacity:1; fill:none" points="
  1445.74,1410.22 1445.74,1391.32 
  "/>
<polyline clip-path="url(#clip450)" style="stroke:#000000; stroke-linecap:butt; stroke-linejoin:round; stroke-width:4; stroke-opacity:1; fill:none" points="
  1799,1410.22 1799,1391.32 
  "/>
<polyline clip-path="url(#clip450)" style="stroke:#000000; stroke-linecap:butt; stroke-linejoin:round; stroke-width:4; stroke-opacity:1; fill:none" points="
  2152.25,1410.22 2152.25,1391.32 
  "/>
<path clip-path="url(#clip450)" d="M338.559 1468.68 L346.198 1468.68 L346.198 1442.32 L337.888 1443.99 L337.888 1439.73 L346.152 1438.06 L350.827 1438.06 L350.827 1468.68 L358.466 1468.68 L358.466 1472.62 L338.559 1472.62 L338.559 1468.68 Z" fill="#000000" fill-rule="evenodd" fill-opacity="1" /><path clip-path="url(#clip450)" d="M371.938 1468.68 L388.258 1468.68 L388.258 1472.62 L366.313 1472.62 L366.313 1468.68 Q368.976 1465.93 373.559 1461.3 Q378.165 1456.65 379.346 1455.31 Q381.591 1452.78 382.471 1451.05 Q383.374 1449.29 383.374 1447.6 Q383.374 1444.84 381.429 1443.11 Q379.508 1441.37 376.406 1441.37 Q374.207 1441.37 371.753 1442.13 Q369.323 1442.9 366.545 1444.45 L366.545 1439.73 Q369.369 1438.59 371.823 1438.01 Q374.276 1437.43 376.313 1437.43 Q381.684 1437.43 384.878 1440.12 Q388.073 1442.81 388.073 1447.3 Q388.073 1449.43 387.262 1451.35 Q386.475 1453.24 384.369 1455.84 Q383.79 1456.51 380.688 1459.73 Q377.587 1462.92 371.938 1468.68 Z" fill="#000000" fill-rule="evenodd" fill-opacity="1" /><path clip-path="url(#clip450)" d="M398.073 1466.74 L402.957 1466.74 L402.957 1472.62 L398.073 1472.62 L398.073 1466.74 Z" fill="#000000" fill-rule="evenodd" fill-opacity="1" /><path clip-path="url(#clip450)" d="M413.188 1438.06 L431.545 1438.06 L431.545 1442 L417.471 1442 L417.471 1450.47 Q418.489 1450.12 419.508 1449.96 Q420.526 1449.77 421.545 1449.77 Q427.332 1449.77 430.711 1452.94 Q434.091 1456.12 434.091 1461.53 Q434.091 1467.11 430.619 1470.21 Q427.146 1473.29 420.827 1473.29 Q418.651 1473.29 416.383 1472.92 Q414.137 1472.55 411.73 1471.81 L411.73 1467.11 Q413.813 1468.24 416.035 1468.8 Q418.258 1469.36 420.734 1469.36 Q424.739 1469.36 427.077 1467.25 Q429.415 1465.14 429.415 1461.53 Q429.415 1457.92 427.077 1455.81 Q424.739 1453.71 420.734 1453.71 Q418.86 1453.71 416.985 1454.12 Q415.133 1454.54 413.188 1455.42 L413.188 1438.06 Z" fill="#000000" fill-rule="evenodd" fill-opacity="1" /><path clip-path="url(#clip450)" d="M691.313 1468.68 L698.952 1468.68 L698.952 1442.32 L690.642 1443.99 L690.642 1439.73 L698.905 1438.06 L703.581 1438.06 L703.581 1468.68 L711.22 1468.68 L711.22 1472.62 L691.313 1472.62 L691.313 1468.68 Z" fill="#000000" fill-rule="evenodd" fill-opacity="1" /><path clip-path="url(#clip450)" d="M720.711 1438.06 L739.067 1438.06 L739.067 1442 L724.993 1442 L724.993 1450.47 Q726.012 1450.12 727.03 1449.96 Q728.049 1449.77 729.067 1449.77 Q734.854 1449.77 738.234 1452.94 Q741.614 1456.12 741.614 1461.53 Q741.614 1467.11 738.141 1470.21 Q734.669 1473.29 728.35 1473.29 Q726.174 1473.29 723.905 1472.92 Q721.66 1472.55 719.253 1471.81 L719.253 1467.11 Q721.336 1468.24 723.558 1468.8 Q725.78 1469.36 728.257 1469.36 Q732.262 1469.36 734.6 1467.25 Q736.938 1465.14 736.938 1461.53 Q736.938 1457.92 734.6 1455.81 Q732.262 1453.71 728.257 1453.71 Q726.382 1453.71 724.507 1454.12 Q722.655 1454.54 720.711 1455.42 L720.711 1438.06 Z" fill="#000000" fill-rule="evenodd" fill-opacity="1" /><path clip-path="url(#clip450)" d="M750.827 1466.74 L755.711 1466.74 L755.711 1472.62 L750.827 1472.62 L750.827 1466.74 Z" fill="#000000" fill-rule="evenodd" fill-opacity="1" /><path clip-path="url(#clip450)" d="M775.896 1441.14 Q772.285 1441.14 770.456 1444.7 Q768.65 1448.24 768.65 1455.37 Q768.65 1462.48 770.456 1466.05 Q772.285 1469.59 775.896 1469.59 Q779.53 1469.59 781.336 1466.05 Q783.164 1462.48 783.164 1455.37 Q783.164 1448.24 781.336 1444.7 Q779.53 1441.14 775.896 1441.14 M775.896 1437.43 Q781.706 1437.43 784.762 1442.04 Q787.84 1446.62 787.84 1455.37 Q787.84 1464.1 784.762 1468.71 Q781.706 1473.29 775.896 1473.29 Q770.086 1473.29 767.007 1468.71 Q763.951 1464.1 763.951 1455.37 Q763.951 1446.62 767.007 1442.04 Q770.086 1437.43 775.896 1437.43 Z" fill="#000000" fill-rule="evenodd" fill-opacity="1" /><path clip-path="url(#clip450)" d="M1045.06 1468.68 L1052.7 1468.68 L1052.7 1442.32 L1044.39 1443.99 L1044.39 1439.73 L1052.65 1438.06 L1057.33 1438.06 L1057.33 1468.68 L1064.97 1468.68 L1064.97 1472.62 L1045.06 1472.62 L1045.06 1468.68 Z" fill="#000000" fill-rule="evenodd" fill-opacity="1" /><path clip-path="url(#clip450)" d="M1073.23 1438.06 L1095.46 1438.06 L1095.46 1440.05 L1082.91 1472.62 L1078.03 1472.62 L1089.83 1442 L1073.23 1442 L1073.23 1438.06 Z" fill="#000000" fill-rule="evenodd" fill-opacity="1" /><path clip-path="url(#clip450)" d="M1104.58 1466.74 L1109.46 1466.74 L1109.46 1472.62 L1104.58 1472.62 L1104.58 1466.74 Z" fill="#000000" fill-rule="evenodd" fill-opacity="1" /><path clip-path="url(#clip450)" d="M1119.69 1438.06 L1138.05 1438.06 L1138.05 1442 L1123.97 1442 L1123.97 1450.47 Q1124.99 1450.12 1126.01 1449.96 Q1127.03 1449.77 1128.05 1449.77 Q1133.83 1449.77 1137.21 1452.94 Q1140.59 1456.12 1140.59 1461.53 Q1140.59 1467.11 1137.12 1470.21 Q1133.65 1473.29 1127.33 1473.29 Q1125.15 1473.29 1122.89 1472.92 Q1120.64 1472.55 1118.23 1471.81 L1118.23 1467.11 Q1120.32 1468.24 1122.54 1468.8 Q1124.76 1469.36 1127.24 1469.36 Q1131.24 1469.36 1133.58 1467.25 Q1135.92 1465.14 1135.92 1461.53 Q1135.92 1457.92 1133.58 1455.81 Q1131.24 1453.71 1127.24 1453.71 Q1125.36 1453.71 1123.49 1454.12 Q1121.64 1454.54 1119.69 1455.42 L1119.69 1438.06 Z" fill="#000000" fill-rule="evenodd" fill-opacity="1" /><path clip-path="url(#clip450)" d="M1401.9 1468.68 L1418.22 1468.68 L1418.22 1472.62 L1396.28 1472.62 L1396.28 1468.68 Q1398.94 1465.93 1403.52 1461.3 Q1408.13 1456.65 1409.31 1455.31 Q1411.55 1452.78 1412.43 1451.05 Q1413.34 1449.29 1413.34 1447.6 Q1413.34 1444.84 1411.39 1443.11 Q1409.47 1441.37 1406.37 1441.37 Q1404.17 1441.37 1401.72 1442.13 Q1399.29 1442.9 1396.51 1444.45 L1396.51 1439.73 Q1399.33 1438.59 1401.79 1438.01 Q1404.24 1437.43 1406.28 1437.43 Q1411.65 1437.43 1414.84 1440.12 Q1418.04 1442.81 1418.04 1447.3 Q1418.04 1449.43 1417.23 1451.35 Q1416.44 1453.24 1414.33 1455.84 Q1413.75 1456.51 1410.65 1459.73 Q1407.55 1462.92 1401.9 1468.68 Z" fill="#000000" fill-rule="evenodd" fill-opacity="1" /><path clip-path="url(#clip450)" d="M1438.04 1441.14 Q1434.42 1441.14 1432.6 1444.7 Q1430.79 1448.24 1430.79 1455.37 Q1430.79 1462.48 1432.6 1466.05 Q1434.42 1469.59 1438.04 1469.59 Q1441.67 1469.59 1443.48 1466.05 Q1445.3 1462.48 1445.3 1455.37 Q1445.3 1448.24 1443.48 1444.7 Q1441.67 1441.14 1438.04 1441.14 M1438.04 1437.43 Q1443.85 1437.43 1446.9 1442.04 Q1449.98 1446.62 1449.98 1455.37 Q1449.98 1464.1 1446.9 1468.71 Q1443.85 1473.29 1438.04 1473.29 Q1432.23 1473.29 1429.15 1468.71 Q1426.09 1464.1 1426.09 1455.37 Q1426.09 1446.62 1429.15 1442.04 Q1432.23 1437.43 1438.04 1437.43 Z" fill="#000000" fill-rule="evenodd" fill-opacity="1" /><path clip-path="url(#clip450)" d="M1458.2 1466.74 L1463.08 1466.74 L1463.08 1472.62 L1458.2 1472.62 L1458.2 1466.74 Z" fill="#000000" fill-rule="evenodd" fill-opacity="1" /><path clip-path="url(#clip450)" d="M1483.27 1441.14 Q1479.66 1441.14 1477.83 1444.7 Q1476.02 1448.24 1476.02 1455.37 Q1476.02 1462.48 1477.83 1466.05 Q1479.66 1469.59 1483.27 1469.59 Q1486.9 1469.59 1488.71 1466.05 Q1490.54 1462.48 1490.54 1455.37 Q1490.54 1448.24 1488.71 1444.7 Q1486.9 1441.14 1483.27 1441.14 M1483.27 1437.43 Q1489.08 1437.43 1492.13 1442.04 Q1495.21 1446.62 1495.21 1455.37 Q1495.21 1464.1 1492.13 1468.71 Q1489.08 1473.29 1483.27 1473.29 Q1477.46 1473.29 1474.38 1468.71 Q1471.32 1464.1 1471.32 1455.37 Q1471.32 1446.62 1474.38 1442.04 Q1477.46 1437.43 1483.27 1437.43 Z" fill="#000000" fill-rule="evenodd" fill-opacity="1" /><path clip-path="url(#clip450)" d="M1755.65 1468.68 L1771.97 1468.68 L1771.97 1472.62 L1750.03 1472.62 L1750.03 1468.68 Q1752.69 1465.93 1757.27 1461.3 Q1761.88 1456.65 1763.06 1455.31 Q1765.3 1452.78 1766.18 1451.05 Q1767.09 1449.29 1767.09 1447.6 Q1767.09 1444.84 1765.14 1443.11 Q1763.22 1441.37 1760.12 1441.37 Q1757.92 1441.37 1755.47 1442.13 Q1753.04 1442.9 1750.26 1444.45 L1750.26 1439.73 Q1753.08 1438.59 1755.54 1438.01 Q1757.99 1437.43 1760.03 1437.43 Q1765.4 1437.43 1768.59 1440.12 Q1771.79 1442.81 1771.79 1447.3 Q1771.79 1449.43 1770.98 1451.35 Q1770.19 1453.24 1768.08 1455.84 Q1767.5 1456.51 1764.4 1459.73 Q1761.3 1462.92 1755.65 1468.68 Z" fill="#000000" fill-rule="evenodd" fill-opacity="1" /><path clip-path="url(#clip450)" d="M1785.81 1468.68 L1802.13 1468.68 L1802.13 1472.62 L1780.19 1472.62 L1780.19 1468.68 Q1782.85 1465.93 1787.43 1461.3 Q1792.04 1456.65 1793.22 1455.31 Q1795.47 1452.78 1796.35 1451.05 Q1797.25 1449.29 1797.25 1447.6 Q1797.25 1444.84 1795.3 1443.11 Q1793.38 1441.37 1790.28 1441.37 Q1788.08 1441.37 1785.63 1442.13 Q1783.2 1442.9 1780.42 1444.45 L1780.42 1439.73 Q1783.24 1438.59 1785.7 1438.01 Q1788.15 1437.43 1790.19 1437.43 Q1795.56 1437.43 1798.75 1440.12 Q1801.95 1442.81 1801.95 1447.3 Q1801.95 1449.43 1801.14 1451.35 Q1800.35 1453.24 1798.24 1455.84 Q1797.66 1456.51 1794.56 1459.73 Q1791.46 1462.92 1785.81 1468.68 Z" fill="#000000" fill-rule="evenodd" fill-opacity="1" /><path clip-path="url(#clip450)" d="M1811.95 1466.74 L1816.83 1466.74 L1816.83 1472.62 L1811.95 1472.62 L1811.95 1466.74 Z" fill="#000000" fill-rule="evenodd" fill-opacity="1" /><path clip-path="url(#clip450)" d="M1827.06 1438.06 L1845.42 1438.06 L1845.42 1442 L1831.35 1442 L1831.35 1450.47 Q1832.36 1450.12 1833.38 1449.96 Q1834.4 1449.77 1835.42 1449.77 Q1841.21 1449.77 1844.59 1452.94 Q1847.97 1456.12 1847.97 1461.53 Q1847.97 1467.11 1844.49 1470.21 Q1841.02 1473.29 1834.7 1473.29 Q1832.53 1473.29 1830.26 1472.92 Q1828.01 1472.55 1825.6 1471.81 L1825.6 1467.11 Q1827.69 1468.24 1829.91 1468.8 Q1832.13 1469.36 1834.61 1469.36 Q1838.61 1469.36 1840.95 1467.25 Q1843.29 1465.14 1843.29 1461.53 Q1843.29 1457.92 1840.95 1455.81 Q1838.61 1453.71 1834.61 1453.71 Q1832.73 1453.71 1830.86 1454.12 Q1829.01 1454.54 1827.06 1455.42 L1827.06 1438.06 Z" fill="#000000" fill-rule="evenodd" fill-opacity="1" /><path clip-path="url(#clip450)" d="M2108.41 1468.68 L2124.72 1468.68 L2124.72 1472.62 L2102.78 1472.62 L2102.78 1468.68 Q2105.44 1465.93 2110.03 1461.3 Q2114.63 1456.65 2115.81 1455.31 Q2118.06 1452.78 2118.94 1451.05 Q2119.84 1449.29 2119.84 1447.6 Q2119.84 1444.84 2117.9 1443.11 Q2115.97 1441.37 2112.87 1441.37 Q2110.67 1441.37 2108.22 1442.13 Q2105.79 1442.9 2103.01 1444.45 L2103.01 1439.73 Q2105.84 1438.59 2108.29 1438.01 Q2110.74 1437.43 2112.78 1437.43 Q2118.15 1437.43 2121.34 1440.12 Q2124.54 1442.81 2124.54 1447.3 Q2124.54 1449.43 2123.73 1451.35 Q2122.94 1453.24 2120.84 1455.84 Q2120.26 1456.51 2117.15 1459.73 Q2114.05 1462.92 2108.41 1468.68 Z" fill="#000000" fill-rule="evenodd" fill-opacity="1" /><path clip-path="url(#clip450)" d="M2134.59 1438.06 L2152.94 1438.06 L2152.94 1442 L2138.87 1442 L2138.87 1450.47 Q2139.89 1450.12 2140.9 1449.96 Q2141.92 1449.77 2142.94 1449.77 Q2148.73 1449.77 2152.11 1452.94 Q2155.49 1456.12 2155.49 1461.53 Q2155.49 1467.11 2152.02 1470.21 Q2148.54 1473.29 2142.22 1473.29 Q2140.05 1473.29 2137.78 1472.92 Q2135.53 1472.55 2133.13 1471.81 L2133.13 1467.11 Q2135.21 1468.24 2137.43 1468.8 Q2139.65 1469.36 2142.13 1469.36 Q2146.14 1469.36 2148.47 1467.25 Q2150.81 1465.14 2150.81 1461.53 Q2150.81 1457.92 2148.47 1455.81 Q2146.14 1453.71 2142.13 1453.71 Q2140.26 1453.71 2138.38 1454.12 Q2136.53 1454.54 2134.59 1455.42 L2134.59 1438.06 Z" fill="#000000" fill-rule="evenodd" fill-opacity="1" /><path clip-path="url(#clip450)" d="M2164.7 1466.74 L2169.59 1466.74 L2169.59 1472.62 L2164.7 1472.62 L2164.7 1466.74 Z" fill="#000000" fill-rule="evenodd" fill-opacity="1" /><path clip-path="url(#clip450)" d="M2189.77 1441.14 Q2186.16 1441.14 2184.33 1444.7 Q2182.52 1448.24 2182.52 1455.37 Q2182.52 1462.48 2184.33 1466.05 Q2186.16 1469.59 2189.77 1469.59 Q2193.4 1469.59 2195.21 1466.05 Q2197.04 1462.48 2197.04 1455.37 Q2197.04 1448.24 2195.21 1444.7 Q2193.4 1441.14 2189.77 1441.14 M2189.77 1437.43 Q2195.58 1437.43 2198.64 1442.04 Q2201.71 1446.62 2201.71 1455.37 Q2201.71 1464.1 2198.64 1468.71 Q2195.58 1473.29 2189.77 1473.29 Q2183.96 1473.29 2180.88 1468.71 Q2177.83 1464.1 2177.83 1455.37 Q2177.83 1446.62 2180.88 1442.04 Q2183.96 1437.43 2189.77 1437.43 Z" fill="#000000" fill-rule="evenodd" fill-opacity="1" /><path clip-path="url(#clip450)" d="M1202.56 1572.73 L1202.56 1570.15 Q1207.03 1570.15 1208.05 1569.62 Q1209.08 1569.04 1209.08 1566.34 L1209.08 1522.68 Q1209.08 1519.57 1207.97 1518.79 Q1206.9 1518.01 1202.56 1518.01 L1202.56 1515.39 L1214.61 1514.49 L1214.61 1566.34 Q1214.61 1569.04 1215.68 1569.62 Q1216.74 1570.15 1221.17 1570.15 L1221.17 1572.73 Q1220.14 1572.73 1218.01 1572.65 Q1215.88 1572.57 1214.32 1572.53 Q1212.77 1572.48 1211.86 1572.48 Q1210.88 1572.48 1202.56 1572.73 Z" fill="#000000" fill-rule="evenodd" fill-opacity="1" /><path clip-path="url(#clip450)" d="M1233.8 1568.22 Q1228.27 1562.73 1228.27 1554.78 Q1228.27 1546.78 1233.68 1540.96 Q1239.13 1535.1 1246.92 1535.1 Q1254.54 1535.1 1259.99 1540.92 Q1265.48 1546.7 1265.48 1554.78 Q1265.48 1562.69 1259.95 1568.18 Q1254.46 1573.67 1246.83 1573.67 Q1239.37 1573.67 1233.8 1568.22 M1235.23 1554.08 Q1235.23 1562.24 1237.37 1565.93 Q1240.64 1571.54 1246.92 1571.54 Q1250.03 1571.54 1252.61 1569.86 Q1255.24 1568.18 1256.67 1565.35 Q1258.52 1561.66 1258.52 1554.08 Q1258.52 1546.01 1256.3 1542.44 Q1253.02 1536.99 1246.83 1536.99 Q1244.13 1536.99 1241.46 1538.42 Q1238.84 1539.82 1237.24 1542.6 Q1235.23 1546.29 1235.23 1554.08 Z" fill="#000000" fill-rule="evenodd" fill-opacity="1" /><path clip-path="url(#clip450)" d="M1266.81 1579.37 Q1266.81 1576.67 1268.86 1574.33 Q1270.95 1571.99 1274.56 1570.97 Q1270.87 1568.63 1270.87 1563.51 Q1270.87 1559.57 1273.45 1556.54 Q1269.52 1553.26 1269.52 1547.89 Q1269.52 1542.93 1273.45 1539.28 Q1277.39 1535.64 1283.13 1535.64 Q1288.17 1535.64 1292.02 1538.67 Q1296.04 1534.73 1300.91 1534.69 Q1303.09 1534.69 1304.11 1536.05 Q1305.18 1537.4 1305.18 1538.83 Q1305.18 1540.1 1304.36 1540.72 Q1303.58 1541.33 1302.76 1541.33 Q1301.73 1541.33 1301 1540.68 Q1300.3 1539.98 1300.3 1538.91 Q1300.3 1537.15 1301.65 1536.62 Q1301.41 1536.54 1300.83 1536.54 Q1296.73 1536.54 1293.25 1539.82 Q1296.69 1543.01 1296.69 1547.97 Q1296.69 1552.93 1292.76 1556.58 Q1288.82 1560.23 1283.13 1560.23 Q1278.41 1560.23 1274.8 1557.61 Q1273.37 1559.29 1273.37 1561.58 Q1273.37 1563.67 1274.64 1565.31 Q1275.91 1566.95 1277.84 1567.2 Q1278.41 1567.28 1284.11 1567.28 Q1287.47 1567.28 1289.32 1567.36 Q1291.16 1567.44 1293.78 1568.02 Q1296.45 1568.55 1298.54 1569.62 Q1303.99 1572.65 1304.03 1579.21 Q1304.03 1584 1298.5 1587 Q1293 1590.03 1285.38 1590.03 Q1277.67 1590.03 1272.22 1586.95 Q1266.81 1583.92 1266.81 1579.37 M1271.2 1579.37 Q1271.2 1582.81 1275.26 1585.44 Q1279.31 1588.1 1285.46 1588.1 Q1291.49 1588.1 1295.55 1585.48 Q1299.64 1582.9 1299.64 1579.37 Q1299.64 1576.87 1298.21 1575.27 Q1296.78 1573.67 1293.82 1573.02 Q1290.91 1572.4 1288.86 1572.28 Q1286.81 1572.16 1283.04 1572.16 L1278.08 1572.16 Q1275.21 1572.32 1273.21 1574.41 Q1271.2 1576.5 1271.2 1579.37 M1275.79 1547.97 Q1275.79 1558.3 1283.13 1558.3 Q1286.81 1558.3 1289.07 1554.94 Q1290.42 1552.69 1290.42 1547.89 Q1290.42 1537.56 1283.13 1537.56 Q1279.44 1537.56 1277.14 1540.92 Q1275.79 1543.18 1275.79 1547.97 Z" fill="#000000" fill-rule="evenodd" fill-opacity="1" /><path clip-path="url(#clip450)" d="M1313.76 1595.99 Q1313.76 1594.93 1313.84 1594.61 Q1313.96 1594.3 1314.42 1593.81 L1325.69 1581.24 Q1331.86 1574.3 1331.86 1568.24 Q1331.86 1564.31 1329.8 1561.5 Q1327.76 1558.69 1324 1558.69 Q1321.42 1558.69 1319.24 1560.27 Q1317.06 1561.84 1316.05 1564.66 Q1316.22 1564.6 1316.83 1564.6 Q1318.29 1564.6 1319.09 1565.52 Q1319.93 1566.44 1319.93 1567.67 Q1319.93 1569.25 1318.89 1570.02 Q1317.89 1570.77 1316.88 1570.77 Q1316.48 1570.77 1315.94 1570.68 Q1315.42 1570.6 1314.59 1569.79 Q1313.76 1568.96 1313.76 1567.5 Q1313.76 1563.39 1316.86 1560.12 Q1319.98 1556.85 1324.75 1556.85 Q1330.14 1556.85 1333.67 1560.07 Q1337.23 1563.25 1337.23 1568.24 Q1337.23 1569.99 1336.68 1571.6 Q1336.17 1573.18 1335.45 1574.41 Q1334.76 1575.65 1332.87 1577.63 Q1330.97 1579.6 1329.45 1581.01 Q1327.93 1582.42 1324.52 1585.4 L1318.29 1591.45 L1328.88 1591.45 Q1334.04 1591.45 1334.44 1591 Q1335.02 1590.16 1335.73 1585.77 L1337.23 1585.77 L1335.56 1595.99 L1313.76 1595.99 Z" fill="#000000" fill-rule="evenodd" fill-opacity="1" /><path clip-path="url(#clip450)" d="M1416.62 1516.33 Q1416.62 1518.01 1415.19 1518.01 Q1410.56 1518.17 1408.67 1519.73 Q1406.83 1521.25 1406.13 1524.2 L1394.41 1570.97 Q1394 1572.44 1393.75 1572.61 Q1393.51 1572.73 1393.06 1572.73 Q1392.48 1572.73 1392.15 1572.44 Q1391.87 1572.16 1391.46 1571.13 L1370.55 1521.7 Q1370.39 1521.37 1370.18 1520.92 Q1369.98 1520.47 1369.81 1520.18 L1358.71 1564.49 Q1358.38 1565.76 1358.38 1566.42 Q1358.38 1568.02 1359.48 1569.04 Q1360.63 1570.03 1363.91 1570.15 Q1365.59 1570.15 1365.59 1571.05 Q1365.59 1572.73 1364.08 1572.73 Q1362.68 1572.73 1359.77 1572.61 Q1356.86 1572.48 1355.43 1572.48 Q1354.03 1572.48 1351.21 1572.61 Q1348.38 1572.73 1347.02 1572.73 Q1345.96 1572.73 1345.96 1571.79 Q1345.96 1571.05 1346.25 1570.68 Q1346.53 1570.27 1346.78 1570.23 Q1347.02 1570.15 1347.39 1570.15 Q1349.85 1570.07 1351.53 1569.57 Q1353.21 1569.08 1354.16 1568.14 Q1355.14 1567.2 1355.59 1566.25 Q1356.08 1565.27 1356.45 1563.84 L1367.68 1518.75 Q1367.68 1518.01 1361.99 1518.01 Q1361 1518.01 1360.59 1517.97 Q1360.22 1517.93 1359.94 1517.72 Q1359.65 1517.52 1359.65 1517.07 Q1359.65 1515.92 1360.14 1515.67 Q1360.63 1515.39 1362.07 1515.39 L1373.34 1515.39 Q1374.77 1515.39 1375.14 1515.63 Q1375.51 1515.84 1376 1516.99 L1394.57 1560.8 L1403.96 1523.46 Q1404.2 1522.72 1404.2 1521.7 Q1404.2 1520.06 1402.97 1519.08 Q1401.79 1518.05 1398.51 1518.01 Q1396.99 1518.01 1396.99 1517.07 Q1396.99 1516.29 1397.28 1515.92 Q1397.6 1515.51 1397.85 1515.47 Q1398.14 1515.39 1398.51 1515.39 Q1399.9 1515.39 1402.77 1515.51 Q1405.64 1515.63 1407.07 1515.63 Q1408.47 1515.63 1411.3 1515.51 Q1414.16 1515.39 1415.56 1515.39 Q1416.05 1515.39 1416.3 1515.63 Q1416.58 1515.84 1416.62 1516.08 L1416.62 1516.33 Z" fill="#000000" fill-rule="evenodd" fill-opacity="1" /><polyline clip-path="url(#clip450)" style="stroke:#000000; stroke-linecap:butt; stroke-linejoin:round; stroke-width:4; stroke-opacity:1; fill:none" points="
  262.502,1410.22 262.502,47.2441 
  "/>
<polyline clip-path="url(#clip450)" style="stroke:#000000; stroke-linecap:butt; stroke-linejoin:round; stroke-width:4; stroke-opacity:1; fill:none" points="
  262.502,1127.97 281.4,1127.97 
  "/>
<polyline clip-path="url(#clip450)" style="stroke:#000000; stroke-linecap:butt; stroke-linejoin:round; stroke-width:4; stroke-opacity:1; fill:none" points="
  262.502,774.372 281.4,774.372 
  "/>
<polyline clip-path="url(#clip450)" style="stroke:#000000; stroke-linecap:butt; stroke-linejoin:round; stroke-width:4; stroke-opacity:1; fill:none" points="
  262.502,420.776 281.4,420.776 
  "/>
<polyline clip-path="url(#clip450)" style="stroke:#000000; stroke-linecap:butt; stroke-linejoin:round; stroke-width:4; stroke-opacity:1; fill:none" points="
  262.502,67.1793 281.4,67.1793 
  "/>
<path clip-path="url(#clip450)" d="M139.165 1113.77 Q135.553 1113.77 133.725 1117.33 Q131.919 1120.87 131.919 1128 Q131.919 1135.11 133.725 1138.67 Q135.553 1142.22 139.165 1142.22 Q142.799 1142.22 144.604 1138.67 Q146.433 1135.11 146.433 1128 Q146.433 1120.87 144.604 1117.33 Q142.799 1113.77 139.165 1113.77 M139.165 1110.06 Q144.975 1110.06 148.03 1114.67 Q151.109 1119.25 151.109 1128 Q151.109 1136.73 148.03 1141.34 Q144.975 1145.92 139.165 1145.92 Q133.354 1145.92 130.276 1141.34 Q127.22 1136.73 127.22 1128 Q127.22 1119.25 130.276 1114.67 Q133.354 1110.06 139.165 1110.06 Z" fill="#000000" fill-rule="evenodd" fill-opacity="1" /><path clip-path="url(#clip450)" d="M159.326 1139.37 L164.211 1139.37 L164.211 1145.25 L159.326 1145.25 L159.326 1139.37 Z" fill="#000000" fill-rule="evenodd" fill-opacity="1" /><path clip-path="url(#clip450)" d="M184.396 1113.77 Q180.785 1113.77 178.956 1117.33 Q177.15 1120.87 177.15 1128 Q177.15 1135.11 178.956 1138.67 Q180.785 1142.22 184.396 1142.22 Q188.03 1142.22 189.836 1138.67 Q191.664 1135.11 191.664 1128 Q191.664 1120.87 189.836 1117.33 Q188.03 1113.77 184.396 1113.77 M184.396 1110.06 Q190.206 1110.06 193.261 1114.67 Q196.34 1119.25 196.34 1128 Q196.34 1136.73 193.261 1141.34 Q190.206 1145.92 184.396 1145.92 Q178.586 1145.92 175.507 1141.34 Q172.451 1136.73 172.451 1128 Q172.451 1119.25 175.507 1114.67 Q178.586 1110.06 184.396 1110.06 Z" fill="#000000" fill-rule="evenodd" fill-opacity="1" /><path clip-path="url(#clip450)" d="M214.558 1113.77 Q210.947 1113.77 209.118 1117.33 Q207.312 1120.87 207.312 1128 Q207.312 1135.11 209.118 1138.67 Q210.947 1142.22 214.558 1142.22 Q218.192 1142.22 219.997 1138.67 Q221.826 1135.11 221.826 1128 Q221.826 1120.87 219.997 1117.33 Q218.192 1113.77 214.558 1113.77 M214.558 1110.06 Q220.368 1110.06 223.423 1114.67 Q226.502 1119.25 226.502 1128 Q226.502 1136.73 223.423 1141.34 Q220.368 1145.92 214.558 1145.92 Q208.747 1145.92 205.669 1141.34 Q202.613 1136.73 202.613 1128 Q202.613 1119.25 205.669 1114.67 Q208.747 1110.06 214.558 1110.06 Z" fill="#000000" fill-rule="evenodd" fill-opacity="1" /><path clip-path="url(#clip450)" d="M140.16 760.171 Q136.549 760.171 134.72 763.735 Q132.915 767.277 132.915 774.407 Q132.915 781.513 134.72 785.078 Q136.549 788.62 140.16 788.62 Q143.794 788.62 145.6 785.078 Q147.428 781.513 147.428 774.407 Q147.428 767.277 145.6 763.735 Q143.794 760.171 140.16 760.171 M140.16 756.467 Q145.97 756.467 149.026 761.073 Q152.104 765.657 152.104 774.407 Q152.104 783.134 149.026 787.74 Q145.97 792.323 140.16 792.323 Q134.35 792.323 131.271 787.74 Q128.216 783.134 128.216 774.407 Q128.216 765.657 131.271 761.073 Q134.35 756.467 140.16 756.467 Z" fill="#000000" fill-rule="evenodd" fill-opacity="1" /><path clip-path="url(#clip450)" d="M160.322 785.772 L165.206 785.772 L165.206 791.652 L160.322 791.652 L160.322 785.772 Z" fill="#000000" fill-rule="evenodd" fill-opacity="1" /><path clip-path="url(#clip450)" d="M185.391 760.171 Q181.78 760.171 179.951 763.735 Q178.146 767.277 178.146 774.407 Q178.146 781.513 179.951 785.078 Q181.78 788.62 185.391 788.62 Q189.025 788.62 190.831 785.078 Q192.66 781.513 192.66 774.407 Q192.66 767.277 190.831 763.735 Q189.025 760.171 185.391 760.171 M185.391 756.467 Q191.201 756.467 194.257 761.073 Q197.336 765.657 197.336 774.407 Q197.336 783.134 194.257 787.74 Q191.201 792.323 185.391 792.323 Q179.581 792.323 176.502 787.74 Q173.447 783.134 173.447 774.407 Q173.447 765.657 176.502 761.073 Q179.581 756.467 185.391 756.467 Z" fill="#000000" fill-rule="evenodd" fill-opacity="1" /><path clip-path="url(#clip450)" d="M205.599 757.092 L223.956 757.092 L223.956 761.027 L209.882 761.027 L209.882 769.499 Q210.9 769.152 211.919 768.99 Q212.937 768.805 213.956 768.805 Q219.743 768.805 223.122 771.976 Q226.502 775.147 226.502 780.564 Q226.502 786.143 223.03 789.245 Q219.558 792.323 213.238 792.323 Q211.062 792.323 208.794 791.953 Q206.548 791.583 204.141 790.842 L204.141 786.143 Q206.224 787.277 208.447 787.833 Q210.669 788.388 213.146 788.388 Q217.15 788.388 219.488 786.282 Q221.826 784.175 221.826 780.564 Q221.826 776.953 219.488 774.847 Q217.15 772.74 213.146 772.74 Q211.271 772.74 209.396 773.157 Q207.544 773.573 205.599 774.453 L205.599 757.092 Z" fill="#000000" fill-rule="evenodd" fill-opacity="1" /><path clip-path="url(#clip450)" d="M139.165 406.574 Q135.553 406.574 133.725 410.139 Q131.919 413.681 131.919 420.81 Q131.919 427.917 133.725 431.482 Q135.553 435.023 139.165 435.023 Q142.799 435.023 144.604 431.482 Q146.433 427.917 146.433 420.81 Q146.433 413.681 144.604 410.139 Q142.799 406.574 139.165 406.574 M139.165 402.871 Q144.975 402.871 148.03 407.477 Q151.109 412.06 151.109 420.81 Q151.109 429.537 148.03 434.144 Q144.975 438.727 139.165 438.727 Q133.354 438.727 130.276 434.144 Q127.22 429.537 127.22 420.81 Q127.22 412.06 130.276 407.477 Q133.354 402.871 139.165 402.871 Z" fill="#000000" fill-rule="evenodd" fill-opacity="1" /><path clip-path="url(#clip450)" d="M159.326 432.176 L164.211 432.176 L164.211 438.056 L159.326 438.056 L159.326 432.176 Z" fill="#000000" fill-rule="evenodd" fill-opacity="1" /><path clip-path="url(#clip450)" d="M175.206 434.12 L182.845 434.12 L182.845 407.755 L174.535 409.422 L174.535 405.162 L182.799 403.496 L187.474 403.496 L187.474 434.12 L195.113 434.12 L195.113 438.056 L175.206 438.056 L175.206 434.12 Z" fill="#000000" fill-rule="evenodd" fill-opacity="1" /><path clip-path="url(#clip450)" d="M214.558 406.574 Q210.947 406.574 209.118 410.139 Q207.312 413.681 207.312 420.81 Q207.312 427.917 209.118 431.482 Q210.947 435.023 214.558 435.023 Q218.192 435.023 219.997 431.482 Q221.826 427.917 221.826 420.81 Q221.826 413.681 219.997 410.139 Q218.192 406.574 214.558 406.574 M214.558 402.871 Q220.368 402.871 223.423 407.477 Q226.502 412.06 226.502 420.81 Q226.502 429.537 223.423 434.144 Q220.368 438.727 214.558 438.727 Q208.747 438.727 205.669 434.144 Q202.613 429.537 202.613 420.81 Q202.613 412.06 205.669 407.477 Q208.747 402.871 214.558 402.871 Z" fill="#000000" fill-rule="evenodd" fill-opacity="1" /><path clip-path="url(#clip450)" d="M140.16 52.978 Q136.549 52.978 134.72 56.5428 Q132.915 60.0845 132.915 67.214 Q132.915 74.3205 134.72 77.8853 Q136.549 81.4269 140.16 81.4269 Q143.794 81.4269 145.6 77.8853 Q147.428 74.3205 147.428 67.214 Q147.428 60.0845 145.6 56.5428 Q143.794 52.978 140.16 52.978 M140.16 49.2743 Q145.97 49.2743 149.026 53.8808 Q152.104 58.4641 152.104 67.214 Q152.104 75.9409 149.026 80.5473 Q145.97 85.1306 140.16 85.1306 Q134.35 85.1306 131.271 80.5473 Q128.216 75.9409 128.216 67.214 Q128.216 58.4641 131.271 53.8808 Q134.35 49.2743 140.16 49.2743 Z" fill="#000000" fill-rule="evenodd" fill-opacity="1" /><path clip-path="url(#clip450)" d="M160.322 78.5797 L165.206 78.5797 L165.206 84.4593 L160.322 84.4593 L160.322 78.5797 Z" fill="#000000" fill-rule="evenodd" fill-opacity="1" /><path clip-path="url(#clip450)" d="M176.201 80.5242 L183.84 80.5242 L183.84 54.1586 L175.53 55.8252 L175.53 51.566 L183.794 49.8993 L188.47 49.8993 L188.47 80.5242 L196.109 80.5242 L196.109 84.4593 L176.201 84.4593 L176.201 80.5242 Z" fill="#000000" fill-rule="evenodd" fill-opacity="1" /><path clip-path="url(#clip450)" d="M205.599 49.8993 L223.956 49.8993 L223.956 53.8345 L209.882 53.8345 L209.882 62.3067 Q210.9 61.9594 211.919 61.7974 Q212.937 61.6122 213.956 61.6122 Q219.743 61.6122 223.122 64.7835 Q226.502 67.9548 226.502 73.3714 Q226.502 78.9501 223.03 82.0519 Q219.558 85.1306 213.238 85.1306 Q211.062 85.1306 208.794 84.7602 Q206.548 84.3899 204.141 83.6491 L204.141 78.9501 Q206.224 80.0843 208.447 80.6399 Q210.669 81.1955 213.146 81.1955 Q217.15 81.1955 219.488 79.089 Q221.826 76.9825 221.826 73.3714 Q221.826 69.7603 219.488 67.6539 Q217.15 65.5474 213.146 65.5474 Q211.271 65.5474 209.396 65.9641 Q207.544 66.3807 205.599 67.2603 L205.599 49.8993 Z" fill="#000000" fill-rule="evenodd" fill-opacity="1" /><path clip-path="url(#clip450)" d="M17.0023 722.674 Q18.1909 722.674 18.4369 723.207 Q18.6828 723.699 18.6828 725.502 Q18.6828 728.577 19.0927 729.97 Q19.4616 731.323 20.1174 731.733 Q20.7323 732.102 22.5358 732.553 L67.8699 743.907 Q67.9109 743.907 68.4848 744.03 Q69.0176 744.152 69.3046 744.152 Q69.8374 744.152 70.1653 743.825 Q70.4933 743.456 70.6572 742.554 Q70.7802 741.652 70.8212 740.955 Q70.8212 740.218 70.8212 738.701 Q70.8212 736.815 71.1491 736.528 Q71.354 736.365 71.7229 736.365 Q72.5017 736.365 72.9116 736.692 Q73.2805 736.979 73.3625 737.266 Q73.4035 737.512 73.4035 738.004 Q73.4035 738.865 73.3215 740.709 Q73.2395 742.554 73.2395 743.497 L73.1576 748.866 L73.4035 759.523 Q73.4035 760.671 72.4607 760.671 Q71.641 760.671 71.2721 760.384 Q70.9032 760.097 70.8622 759.81 Q70.8212 759.482 70.8212 758.663 Q70.8212 754.441 70.4113 753.047 Q69.9604 751.613 68.0339 751.039 L44.875 745.259 L44.875 770.837 L67.8699 776.575 Q67.9109 776.575 68.4848 776.698 Q69.0176 776.821 69.3046 776.821 Q69.8374 776.821 70.1653 776.493 Q70.4933 776.124 70.6572 775.222 Q70.7802 774.321 70.8212 773.624 Q70.8212 772.886 70.8212 771.369 Q70.8212 769.484 71.1491 769.156 Q71.354 768.992 71.7229 768.992 Q72.2968 768.992 72.7067 769.156 Q73.0756 769.279 73.1986 769.607 Q73.3215 769.894 73.3625 770.099 Q73.4035 770.304 73.4035 770.673 Q73.4035 771.533 73.3215 773.378 Q73.2395 775.181 73.2395 776.124 L73.1576 781.494 L73.4035 792.151 Q73.4035 793.34 72.4607 793.34 Q71.641 793.34 71.313 793.053 Q70.9441 792.766 70.9032 792.397 Q70.8212 792.028 70.8212 791.085 Q70.8212 789.036 70.6982 787.806 Q70.5752 786.576 70.4113 785.798 Q70.2063 784.978 69.6325 784.568 Q69.0586 784.117 68.5668 783.912 Q68.0339 783.707 66.8452 783.42 L21.757 772.189 Q20.4044 771.861 20.1994 771.861 Q19.4206 771.861 19.2157 772.353 Q18.9697 772.804 18.8468 774.116 L18.6828 777.313 Q18.6828 778.297 18.6418 778.706 Q18.6008 779.075 18.3959 779.362 Q18.1909 779.649 17.7401 779.649 Q17.1662 779.649 16.7973 779.526 Q16.3874 779.362 16.2644 779.075 Q16.1415 778.788 16.1005 778.583 Q16.0595 778.379 16.0595 778.051 L16.3054 767.229 L16.0595 756.49 Q16.0595 755.302 17.0023 755.302 Q18.1909 755.302 18.4369 755.834 Q18.6828 756.367 18.6828 758.171 Q18.6828 761.163 19.0927 762.557 Q19.4616 763.95 20.1174 764.401 Q20.7733 764.811 22.5358 765.221 L42.2516 770.181 L42.2516 744.562 L21.757 739.521 Q20.2814 739.193 20.1994 739.193 Q19.4206 739.193 19.2157 739.685 Q18.9697 740.136 18.8468 741.447 L18.6828 744.644 Q18.6828 745.628 18.6418 746.038 Q18.6008 746.407 18.3959 746.735 Q18.1909 747.022 17.7401 747.022 Q17.1662 747.022 16.7973 746.899 Q16.3874 746.735 16.2644 746.448 Q16.1415 746.161 16.1005 745.956 Q16.0595 745.751 16.0595 745.423 L16.3054 734.602 L16.0595 723.822 Q16.0595 722.674 17.0023 722.674 Z" fill="#000000" fill-rule="evenodd" fill-opacity="1" /><path clip-path="url(#clip450)" d="M57.1966 672.676 L72.1741 676.378 Q73.1209 676.636 73.2357 676.808 Q73.3505 676.952 73.3505 677.411 Q73.3505 678.3 72.7479 678.3 Q72.6905 678.3 71.9445 678.214 Q71.1698 678.128 69.7639 678.128 Q64.5706 678.128 61.5005 680.653 Q58.4304 683.149 58.4304 687.596 Q58.4304 691.757 60.611 695.745 Q62.7916 699.733 66.0052 702.287 Q68.6449 704.439 71.8584 705.931 Q75.072 707.394 77.8839 707.997 Q80.667 708.599 82.3599 708.829 Q84.0528 709.03 85.1431 709.03 Q88.3566 709.03 90.8529 707.997 Q93.3204 706.964 94.7264 705.242 Q96.1323 703.492 96.8209 701.484 Q97.5095 699.446 97.5095 697.237 Q97.5095 696.405 97.3948 695.401 Q97.28 694.397 96.8496 692.847 Q96.4192 691.269 95.7019 689.978 Q94.9846 688.658 93.6074 687.51 Q92.2301 686.334 90.3938 685.875 Q85.7169 684.641 85.0283 684.641 Q84.4545 684.641 84.2536 684.985 Q84.0528 685.33 83.9093 686.477 L83.7945 689.576 Q83.7945 689.634 83.7945 689.72 Q83.7945 690.265 83.7945 690.494 Q83.7658 690.724 83.7084 690.982 Q83.6511 691.212 83.5363 691.298 Q83.3928 691.355 83.1633 691.355 Q82.6181 691.355 82.3599 691.126 Q82.073 690.896 82.0443 690.695 Q81.9869 690.494 81.9869 690.121 L82.1591 681.887 Q82.1591 681.227 82.073 678.817 Q81.9869 676.406 81.9869 675.718 Q81.9869 674.943 82.6181 674.943 Q83.7945 674.943 83.7945 675.89 Q83.8232 676.837 83.8519 677.325 Q83.8519 677.812 83.9954 678.3 Q84.1388 678.759 84.2536 678.931 Q84.3397 679.103 84.7701 679.333 Q85.1718 679.563 85.5161 679.649 Q85.8317 679.735 86.6351 679.936 Q87.1515 680.05 88.1271 680.337 Q89.1026 680.595 89.6191 680.71 L94.1525 681.829 Q97.5095 682.604 97.7391 682.834 Q97.9686 682.948 97.9686 683.235 Q97.9686 683.666 96.7061 684.584 Q95.4437 685.473 94.3247 685.875 Q95.0994 686.592 95.5584 687.051 Q95.9888 687.51 96.6775 688.572 Q97.3661 689.605 97.9112 690.982 Q99.3172 694.339 99.3172 698.327 Q99.3172 705.443 94.8124 709.919 Q90.279 714.395 83.2207 714.395 Q78.2282 714.395 73.3218 712.1 Q68.4153 709.804 64.7714 706.161 Q61.1275 702.517 58.8607 697.696 Q56.594 692.876 56.594 688.056 Q56.594 686.219 57.0818 684.584 Q57.5696 682.948 58.1721 681.973 Q58.7747 680.968 59.6641 680.079 Q60.5249 679.19 60.9266 678.903 Q61.3283 678.587 61.8161 678.3 L57.3114 674.197 Q56.594 673.48 56.594 673.308 Q56.594 672.963 56.7949 672.82 Q56.9957 672.676 57.1966 672.676 Z" fill="#000000" fill-rule="evenodd" fill-opacity="1" /><polyline clip-path="url(#clip453)" style="stroke:#000000; stroke-linecap:butt; stroke-linejoin:round; stroke-width:4; stroke-opacity:1; fill:none" points="
  2011.05,1156.6 2011.05,975.717 
  "/>
<polyline clip-path="url(#clip453)" style="stroke:#000000; stroke-linecap:butt; stroke-linejoin:round; stroke-width:4; stroke-opacity:1; fill:none" points="
  321.66,984.727 321.66,85.8189 
  "/>
<polyline clip-path="url(#clip453)" style="stroke:#000000; stroke-linecap:butt; stroke-linejoin:round; stroke-width:4; stroke-opacity:1; fill:none" points="
  1728.54,1219.12 1728.54,939.099 
  "/>
<polyline clip-path="url(#clip453)" style="stroke:#000000; stroke-linecap:butt; stroke-linejoin:round; stroke-width:4; stroke-opacity:1; fill:none" points="
  1163.94,1167.17 1163.94,754.098 
  "/>
<polyline clip-path="url(#clip453)" style="stroke:#000000; stroke-linecap:butt; stroke-linejoin:round; stroke-width:4; stroke-opacity:1; fill:none" points="
  601.113,1371.65 601.113,513.732 
  "/>
<polyline clip-path="url(#clip453)" style="stroke:#000000; stroke-linecap:butt; stroke-linejoin:round; stroke-width:4; stroke-opacity:1; fill:none" points="
  1446.14,1232.06 1446.14,887.42 
  "/>
<polyline clip-path="url(#clip453)" style="stroke:#000000; stroke-linecap:butt; stroke-linejoin:round; stroke-width:4; stroke-opacity:1; fill:none" points="
  2293.6,1135.09 2293.6,1004.34 
  "/>
<polyline clip-path="url(#clip453)" style="stroke:#000000; stroke-linecap:butt; stroke-linejoin:round; stroke-width:4; stroke-opacity:1; fill:none" points="
  882.131,1194.24 882.131,653.64 
  "/>
<line clip-path="url(#clip453)" x1="2027.05" y1="1156.6" x2="1995.05" y2="1156.6" style="stroke:#000000; stroke-width:3.2; stroke-opacity:1"/>
<line clip-path="url(#clip453)" x1="2027.05" y1="975.717" x2="1995.05" y2="975.717" style="stroke:#000000; stroke-width:3.2; stroke-opacity:1"/>
<line clip-path="url(#clip453)" x1="337.66" y1="984.727" x2="305.66" y2="984.727" style="stroke:#000000; stroke-width:3.2; stroke-opacity:1"/>
<line clip-path="url(#clip453)" x1="337.66" y1="85.8189" x2="305.66" y2="85.8189" style="stroke:#000000; stroke-width:3.2; stroke-opacity:1"/>
<line clip-path="url(#clip453)" x1="1744.54" y1="1219.12" x2="1712.54" y2="1219.12" style="stroke:#000000; stroke-width:3.2; stroke-opacity:1"/>
<line clip-path="url(#clip453)" x1="1744.54" y1="939.099" x2="1712.54" y2="939.099" style="stroke:#000000; stroke-width:3.2; stroke-opacity:1"/>
<line clip-path="url(#clip453)" x1="1179.94" y1="1167.17" x2="1147.94" y2="1167.17" style="stroke:#000000; stroke-width:3.2; stroke-opacity:1"/>
<line clip-path="url(#clip453)" x1="1179.94" y1="754.098" x2="1147.94" y2="754.098" style="stroke:#000000; stroke-width:3.2; stroke-opacity:1"/>
<line clip-path="url(#clip453)" x1="617.113" y1="1371.65" x2="585.113" y2="1371.65" style="stroke:#000000; stroke-width:3.2; stroke-opacity:1"/>
<line clip-path="url(#clip453)" x1="617.113" y1="513.732" x2="585.113" y2="513.732" style="stroke:#000000; stroke-width:3.2; stroke-opacity:1"/>
<line clip-path="url(#clip453)" x1="1462.14" y1="1232.06" x2="1430.14" y2="1232.06" style="stroke:#000000; stroke-width:3.2; stroke-opacity:1"/>
<line clip-path="url(#clip453)" x1="1462.14" y1="887.42" x2="1430.14" y2="887.42" style="stroke:#000000; stroke-width:3.2; stroke-opacity:1"/>
<line clip-path="url(#clip453)" x1="2309.6" y1="1135.09" x2="2277.6" y2="1135.09" style="stroke:#000000; stroke-width:3.2; stroke-opacity:1"/>
<line clip-path="url(#clip453)" x1="2309.6" y1="1004.34" x2="2277.6" y2="1004.34" style="stroke:#000000; stroke-width:3.2; stroke-opacity:1"/>
<line clip-path="url(#clip453)" x1="898.131" y1="1194.24" x2="866.131" y2="1194.24" style="stroke:#000000; stroke-width:3.2; stroke-opacity:1"/>
<line clip-path="url(#clip453)" x1="898.131" y1="653.64" x2="866.131" y2="653.64" style="stroke:#000000; stroke-width:3.2; stroke-opacity:1"/>
<line clip-path="url(#clip453)" x1="2027.05" y1="1066.16" x2="1995.05" y2="1066.16" style="stroke:#000000; stroke-width:3.2; stroke-opacity:1"/>
<line clip-path="url(#clip453)" x1="337.66" y1="535.273" x2="305.66" y2="535.273" style="stroke:#000000; stroke-width:3.2; stroke-opacity:1"/>
<line clip-path="url(#clip453)" x1="1744.54" y1="1079.11" x2="1712.54" y2="1079.11" style="stroke:#000000; stroke-width:3.2; stroke-opacity:1"/>
<line clip-path="url(#clip453)" x1="1179.94" y1="960.634" x2="1147.94" y2="960.634" style="stroke:#000000; stroke-width:3.2; stroke-opacity:1"/>
<line clip-path="url(#clip453)" x1="617.113" y1="942.688" x2="585.113" y2="942.688" style="stroke:#000000; stroke-width:3.2; stroke-opacity:1"/>
<line clip-path="url(#clip453)" x1="1462.14" y1="1059.74" x2="1430.14" y2="1059.74" style="stroke:#000000; stroke-width:3.2; stroke-opacity:1"/>
<line clip-path="url(#clip453)" x1="2309.6" y1="1069.72" x2="2277.6" y2="1069.72" style="stroke:#000000; stroke-width:3.2; stroke-opacity:1"/>
<line clip-path="url(#clip453)" x1="898.131" y1="923.941" x2="866.131" y2="923.941" style="stroke:#000000; stroke-width:3.2; stroke-opacity:1"/>
</svg>
