<?xml version="1.0" encoding="utf-8"?>
<svg xmlns="http://www.w3.org/2000/svg" xmlns:xlink="http://www.w3.org/1999/xlink" width="600" height="400" viewBox="0 0 2400 1600">
<defs>
  <clipPath id="clip660">
    <rect x="0" y="0" width="2400" height="1600"/>
  </clipPath>
</defs>
<path clip-path="url(#clip660)" d="
M0 1600 L2400 1600 L2400 0 L0 0  Z
  " fill="#000000" fill-rule="evenodd" fill-opacity="0"/>
<defs>
  <clipPath id="clip661">
    <rect x="480" y="0" width="1681" height="1600"/>
  </clipPath>
</defs>
<defs>
  <clipPath id="clip662">
    <rect x="262" y="47" width="2091" height="1364"/>
  </clipPath>
</defs>
<path clip-path="url(#clip660)" d="
M262.988 1410.22 L2352.76 1410.22 L2352.76 47.2441 L262.988 47.2441  Z
  " fill="#000000" fill-rule="evenodd" fill-opacity="0"/>
<polyline clip-path="url(#clip660)" style="stroke:#000000; stroke-linecap:butt; stroke-linejoin:round; stroke-width:4; stroke-opacity:1; fill:none" points="
  262.988,1410.22 2352.76,1410.22 
  "/>
<polyline clip-path="url(#clip660)" style="stroke:#000000; stroke-linecap:butt; stroke-linejoin:round; stroke-width:4; stroke-opacity:1; fill:none" points="
  386.447,1410.22 386.447,1391.32 
  "/>
<polyline clip-path="url(#clip660)" style="stroke:#000000; stroke-linecap:butt; stroke-linejoin:round; stroke-width:4; stroke-opacity:1; fill:none" points="
  739.616,1410.22 739.616,1391.32 
  "/>
<polyline clip-path="url(#clip660)" style="stroke:#000000; stroke-linecap:butt; stroke-linejoin:round; stroke-width:4; stroke-opacity:1; fill:none" points="
  1092.79,1410.22 1092.79,1391.32 
  "/>
<polyline clip-path="url(#clip660)" style="stroke:#000000; stroke-linecap:butt; stroke-linejoin:round; stroke-width:4; stroke-opacity:1; fill:none" points="
  1445.96,1410.22 1445.96,1391.32 
  "/>
<polyline clip-path="url(#clip660)" style="stroke:#000000; stroke-linecap:butt; stroke-linejoin:round; stroke-width:4; stroke-opacity:1; fill:none" points="
  1799.12,1410.22 1799.12,1391.32 
  "/>
<polyline clip-path="url(#clip660)" style="stroke:#000000; stroke-linecap:butt; stroke-linejoin:round; stroke-width:4; stroke-opacity:1; fill:none" points="
  2152.29,1410.22 2152.29,1391.32 
  "/>
<path clip-path="url(#clip660)" d="M339.016 1468.68 L346.655 1468.68 L346.655 1442.32 L338.345 1443.99 L338.345 1439.73 L346.609 1438.06 L351.285 1438.06 L351.285 1468.68 L358.924 1468.68 L358.924 1472.62 L339.016 1472.62 L339.016 1468.68 Z" fill="#000000" fill-rule="evenodd" fill-opacity="1" /><path clip-path="url(#clip660)" d="M372.396 1468.68 L388.715 1468.68 L388.715 1472.62 L366.771 1472.62 L366.771 1468.68 Q369.433 1465.93 374.016 1461.3 Q378.623 1456.65 379.803 1455.31 Q382.049 1452.78 382.928 1451.05 Q383.831 1449.29 383.831 1447.6 Q383.831 1444.84 381.887 1443.11 Q379.965 1441.37 376.863 1441.37 Q374.664 1441.37 372.211 1442.13 Q369.78 1442.9 367.002 1444.45 L367.002 1439.73 Q369.826 1438.59 372.28 1438.01 Q374.734 1437.43 376.771 1437.43 Q382.141 1437.43 385.336 1440.12 Q388.53 1442.81 388.53 1447.3 Q388.53 1449.43 387.72 1451.35 Q386.933 1453.24 384.826 1455.84 Q384.248 1456.51 381.146 1459.73 Q378.044 1462.92 372.396 1468.68 Z" fill="#000000" fill-rule="evenodd" fill-opacity="1" /><path clip-path="url(#clip660)" d="M398.53 1466.74 L403.414 1466.74 L403.414 1472.62 L398.53 1472.62 L398.53 1466.74 Z" fill="#000000" fill-rule="evenodd" fill-opacity="1" /><path clip-path="url(#clip660)" d="M413.646 1438.06 L432.002 1438.06 L432.002 1442 L417.928 1442 L417.928 1450.47 Q418.947 1450.12 419.965 1449.96 Q420.984 1449.77 422.002 1449.77 Q427.789 1449.77 431.169 1452.94 Q434.548 1456.12 434.548 1461.53 Q434.548 1467.11 431.076 1470.21 Q427.604 1473.29 421.284 1473.29 Q419.109 1473.29 416.84 1472.92 Q414.595 1472.55 412.187 1471.81 L412.187 1467.11 Q414.271 1468.24 416.493 1468.8 Q418.715 1469.36 421.192 1469.36 Q425.196 1469.36 427.534 1467.25 Q429.872 1465.14 429.872 1461.53 Q429.872 1457.92 427.534 1455.81 Q425.196 1453.71 421.192 1453.71 Q419.317 1453.71 417.442 1454.12 Q415.59 1454.54 413.646 1455.42 L413.646 1438.06 Z" fill="#000000" fill-rule="evenodd" fill-opacity="1" /><path clip-path="url(#clip660)" d="M691.688 1468.68 L699.327 1468.68 L699.327 1442.32 L691.017 1443.99 L691.017 1439.73 L699.281 1438.06 L703.957 1438.06 L703.957 1468.68 L711.595 1468.68 L711.595 1472.62 L691.688 1472.62 L691.688 1468.68 Z" fill="#000000" fill-rule="evenodd" fill-opacity="1" /><path clip-path="url(#clip660)" d="M721.086 1438.06 L739.443 1438.06 L739.443 1442 L725.369 1442 L725.369 1450.47 Q726.387 1450.12 727.406 1449.96 Q728.424 1449.77 729.443 1449.77 Q735.23 1449.77 738.609 1452.94 Q741.989 1456.12 741.989 1461.53 Q741.989 1467.11 738.517 1470.21 Q735.044 1473.29 728.725 1473.29 Q726.549 1473.29 724.281 1472.92 Q722.035 1472.55 719.628 1471.81 L719.628 1467.11 Q721.711 1468.24 723.933 1468.8 Q726.156 1469.36 728.632 1469.36 Q732.637 1469.36 734.975 1467.25 Q737.313 1465.14 737.313 1461.53 Q737.313 1457.92 734.975 1455.81 Q732.637 1453.71 728.632 1453.71 Q726.757 1453.71 724.882 1454.12 Q723.031 1454.54 721.086 1455.42 L721.086 1438.06 Z" fill="#000000" fill-rule="evenodd" fill-opacity="1" /><path clip-path="url(#clip660)" d="M751.202 1466.74 L756.086 1466.74 L756.086 1472.62 L751.202 1472.62 L751.202 1466.74 Z" fill="#000000" fill-rule="evenodd" fill-opacity="1" /><path clip-path="url(#clip660)" d="M776.271 1441.14 Q772.66 1441.14 770.831 1444.7 Q769.026 1448.24 769.026 1455.37 Q769.026 1462.48 770.831 1466.05 Q772.66 1469.59 776.271 1469.59 Q779.905 1469.59 781.711 1466.05 Q783.54 1462.48 783.54 1455.37 Q783.54 1448.24 781.711 1444.7 Q779.905 1441.14 776.271 1441.14 M776.271 1437.43 Q782.081 1437.43 785.137 1442.04 Q788.215 1446.62 788.215 1455.37 Q788.215 1464.1 785.137 1468.71 Q782.081 1473.29 776.271 1473.29 Q770.461 1473.29 767.382 1468.71 Q764.327 1464.1 764.327 1455.37 Q764.327 1446.62 767.382 1442.04 Q770.461 1437.43 776.271 1437.43 Z" fill="#000000" fill-rule="evenodd" fill-opacity="1" /><path clip-path="url(#clip660)" d="M1045.36 1468.68 L1052.99 1468.68 L1052.99 1442.32 L1044.68 1443.99 L1044.68 1439.73 L1052.95 1438.06 L1057.62 1438.06 L1057.62 1468.68 L1065.26 1468.68 L1065.26 1472.62 L1045.36 1472.62 L1045.36 1468.68 Z" fill="#000000" fill-rule="evenodd" fill-opacity="1" /><path clip-path="url(#clip660)" d="M1073.53 1438.06 L1095.75 1438.06 L1095.75 1440.05 L1083.2 1472.62 L1078.32 1472.62 L1090.12 1442 L1073.53 1442 L1073.53 1438.06 Z" fill="#000000" fill-rule="evenodd" fill-opacity="1" /><path clip-path="url(#clip660)" d="M1104.87 1466.74 L1109.75 1466.74 L1109.75 1472.62 L1104.87 1472.62 L1104.87 1466.74 Z" fill="#000000" fill-rule="evenodd" fill-opacity="1" /><path clip-path="url(#clip660)" d="M1119.98 1438.06 L1138.34 1438.06 L1138.34 1442 L1124.27 1442 L1124.27 1450.47 Q1125.29 1450.12 1126.3 1449.96 Q1127.32 1449.77 1128.34 1449.77 Q1134.13 1449.77 1137.51 1452.94 Q1140.89 1456.12 1140.89 1461.53 Q1140.89 1467.11 1137.42 1470.21 Q1133.94 1473.29 1127.62 1473.29 Q1125.45 1473.29 1123.18 1472.92 Q1120.93 1472.55 1118.53 1471.81 L1118.53 1467.11 Q1120.61 1468.24 1122.83 1468.8 Q1125.05 1469.36 1127.53 1469.36 Q1131.54 1469.36 1133.87 1467.25 Q1136.21 1465.14 1136.21 1461.53 Q1136.21 1457.92 1133.87 1455.81 Q1131.54 1453.71 1127.53 1453.71 Q1125.66 1453.71 1123.78 1454.12 Q1121.93 1454.54 1119.98 1455.42 L1119.98 1438.06 Z" fill="#000000" fill-rule="evenodd" fill-opacity="1" /><path clip-path="url(#clip660)" d="M1402.11 1468.68 L1418.43 1468.68 L1418.43 1472.62 L1396.49 1472.62 L1396.49 1468.68 Q1399.15 1465.93 1403.73 1461.3 Q1408.34 1456.65 1409.52 1455.31 Q1411.77 1452.78 1412.65 1451.05 Q1413.55 1449.29 1413.55 1447.6 Q1413.55 1444.84 1411.6 1443.11 Q1409.68 1441.37 1406.58 1441.37 Q1404.38 1441.37 1401.93 1442.13 Q1399.5 1442.9 1396.72 1444.45 L1396.72 1439.73 Q1399.54 1438.59 1402 1438.01 Q1404.45 1437.43 1406.49 1437.43 Q1411.86 1437.43 1415.05 1440.12 Q1418.25 1442.81 1418.25 1447.3 Q1418.25 1449.43 1417.44 1451.35 Q1416.65 1453.24 1414.54 1455.84 Q1413.96 1456.51 1410.86 1459.73 Q1407.76 1462.92 1402.11 1468.68 Z" fill="#000000" fill-rule="evenodd" fill-opacity="1" /><path clip-path="url(#clip660)" d="M1438.25 1441.14 Q1434.64 1441.14 1432.81 1444.7 Q1431 1448.24 1431 1455.37 Q1431 1462.48 1432.81 1466.05 Q1434.64 1469.59 1438.25 1469.59 Q1441.88 1469.59 1443.69 1466.05 Q1445.52 1462.48 1445.52 1455.37 Q1445.52 1448.24 1443.69 1444.7 Q1441.88 1441.14 1438.25 1441.14 M1438.25 1437.43 Q1444.06 1437.43 1447.11 1442.04 Q1450.19 1446.62 1450.19 1455.37 Q1450.19 1464.1 1447.11 1468.71 Q1444.06 1473.29 1438.25 1473.29 Q1432.44 1473.29 1429.36 1468.71 Q1426.3 1464.1 1426.3 1455.37 Q1426.3 1446.62 1429.36 1442.04 Q1432.44 1437.43 1438.25 1437.43 Z" fill="#000000" fill-rule="evenodd" fill-opacity="1" /><path clip-path="url(#clip660)" d="M1458.41 1466.74 L1463.29 1466.74 L1463.29 1472.62 L1458.41 1472.62 L1458.41 1466.74 Z" fill="#000000" fill-rule="evenodd" fill-opacity="1" /><path clip-path="url(#clip660)" d="M1483.48 1441.14 Q1479.87 1441.14 1478.04 1444.7 Q1476.23 1448.24 1476.23 1455.37 Q1476.23 1462.48 1478.04 1466.05 Q1479.87 1469.59 1483.48 1469.59 Q1487.11 1469.59 1488.92 1466.05 Q1490.75 1462.48 1490.75 1455.37 Q1490.75 1448.24 1488.92 1444.7 Q1487.11 1441.14 1483.48 1441.14 M1483.48 1437.43 Q1489.29 1437.43 1492.34 1442.04 Q1495.42 1446.62 1495.42 1455.37 Q1495.42 1464.1 1492.34 1468.71 Q1489.29 1473.29 1483.48 1473.29 Q1477.67 1473.29 1474.59 1468.71 Q1471.53 1464.1 1471.53 1455.37 Q1471.53 1446.62 1474.59 1442.04 Q1477.67 1437.43 1483.48 1437.43 Z" fill="#000000" fill-rule="evenodd" fill-opacity="1" /><path clip-path="url(#clip660)" d="M1755.78 1468.68 L1772.1 1468.68 L1772.1 1472.62 L1750.15 1472.62 L1750.15 1468.68 Q1752.82 1465.93 1757.4 1461.3 Q1762.01 1456.65 1763.19 1455.31 Q1765.43 1452.78 1766.31 1451.05 Q1767.21 1449.29 1767.21 1447.6 Q1767.21 1444.84 1765.27 1443.11 Q1763.35 1441.37 1760.25 1441.37 Q1758.05 1441.37 1755.59 1442.13 Q1753.16 1442.9 1750.39 1444.45 L1750.39 1439.73 Q1753.21 1438.59 1755.66 1438.01 Q1758.12 1437.43 1760.15 1437.43 Q1765.53 1437.43 1768.72 1440.12 Q1771.91 1442.81 1771.91 1447.3 Q1771.91 1449.43 1771.1 1451.35 Q1770.32 1453.24 1768.21 1455.84 Q1767.63 1456.51 1764.53 1459.73 Q1761.43 1462.92 1755.78 1468.68 Z" fill="#000000" fill-rule="evenodd" fill-opacity="1" /><path clip-path="url(#clip660)" d="M1785.94 1468.68 L1802.26 1468.68 L1802.26 1472.62 L1780.32 1472.62 L1780.32 1468.68 Q1782.98 1465.93 1787.56 1461.3 Q1792.17 1456.65 1793.35 1455.31 Q1795.59 1452.78 1796.47 1451.05 Q1797.38 1449.29 1797.38 1447.6 Q1797.38 1444.84 1795.43 1443.11 Q1793.51 1441.37 1790.41 1441.37 Q1788.21 1441.37 1785.76 1442.13 Q1783.33 1442.9 1780.55 1444.45 L1780.55 1439.73 Q1783.37 1438.59 1785.83 1438.01 Q1788.28 1437.43 1790.32 1437.43 Q1795.69 1437.43 1798.88 1440.12 Q1802.08 1442.81 1802.08 1447.3 Q1802.08 1449.43 1801.27 1451.35 Q1800.48 1453.24 1798.37 1455.84 Q1797.79 1456.51 1794.69 1459.73 Q1791.59 1462.92 1785.94 1468.68 Z" fill="#000000" fill-rule="evenodd" fill-opacity="1" /><path clip-path="url(#clip660)" d="M1812.08 1466.74 L1816.96 1466.74 L1816.96 1472.62 L1812.08 1472.62 L1812.08 1466.74 Z" fill="#000000" fill-rule="evenodd" fill-opacity="1" /><path clip-path="url(#clip660)" d="M1827.19 1438.06 L1845.55 1438.06 L1845.55 1442 L1831.47 1442 L1831.47 1450.47 Q1832.49 1450.12 1833.51 1449.96 Q1834.53 1449.77 1835.55 1449.77 Q1841.33 1449.77 1844.71 1452.94 Q1848.09 1456.12 1848.09 1461.53 Q1848.09 1467.11 1844.62 1470.21 Q1841.15 1473.29 1834.83 1473.29 Q1832.65 1473.29 1830.39 1472.92 Q1828.14 1472.55 1825.73 1471.81 L1825.73 1467.11 Q1827.82 1468.24 1830.04 1468.8 Q1832.26 1469.36 1834.74 1469.36 Q1838.74 1469.36 1841.08 1467.25 Q1843.42 1465.14 1843.42 1461.53 Q1843.42 1457.92 1841.08 1455.81 Q1838.74 1453.71 1834.74 1453.71 Q1832.86 1453.71 1830.99 1454.12 Q1829.14 1454.54 1827.19 1455.42 L1827.19 1438.06 Z" fill="#000000" fill-rule="evenodd" fill-opacity="1" /><path clip-path="url(#clip660)" d="M2108.45 1468.68 L2124.77 1468.68 L2124.77 1472.62 L2102.83 1472.62 L2102.83 1468.68 Q2105.49 1465.93 2110.07 1461.3 Q2114.68 1456.65 2115.86 1455.31 Q2118.1 1452.78 2118.98 1451.05 Q2119.89 1449.29 2119.89 1447.6 Q2119.89 1444.84 2117.94 1443.11 Q2116.02 1441.37 2112.92 1441.37 Q2110.72 1441.37 2108.27 1442.13 Q2105.84 1442.9 2103.06 1444.45 L2103.06 1439.73 Q2105.88 1438.59 2108.34 1438.01 Q2110.79 1437.43 2112.83 1437.43 Q2118.2 1437.43 2121.39 1440.12 Q2124.59 1442.81 2124.59 1447.3 Q2124.59 1449.43 2123.78 1451.35 Q2122.99 1453.24 2120.88 1455.84 Q2120.3 1456.51 2117.2 1459.73 Q2114.1 1462.92 2108.45 1468.68 Z" fill="#000000" fill-rule="evenodd" fill-opacity="1" /><path clip-path="url(#clip660)" d="M2134.63 1438.06 L2152.99 1438.06 L2152.99 1442 L2138.91 1442 L2138.91 1450.47 Q2139.93 1450.12 2140.95 1449.96 Q2141.97 1449.77 2142.99 1449.77 Q2148.78 1449.77 2152.16 1452.94 Q2155.53 1456.12 2155.53 1461.53 Q2155.53 1467.11 2152.06 1470.21 Q2148.59 1473.29 2142.27 1473.29 Q2140.09 1473.29 2137.83 1472.92 Q2135.58 1472.55 2133.17 1471.81 L2133.17 1467.11 Q2135.26 1468.24 2137.48 1468.8 Q2139.7 1469.36 2142.18 1469.36 Q2146.18 1469.36 2148.52 1467.25 Q2150.86 1465.14 2150.86 1461.53 Q2150.86 1457.92 2148.52 1455.81 Q2146.18 1453.71 2142.18 1453.71 Q2140.3 1453.71 2138.43 1454.12 Q2136.58 1454.54 2134.63 1455.42 L2134.63 1438.06 Z" fill="#000000" fill-rule="evenodd" fill-opacity="1" /><path clip-path="url(#clip660)" d="M2164.75 1466.74 L2169.63 1466.74 L2169.63 1472.62 L2164.75 1472.62 L2164.75 1466.74 Z" fill="#000000" fill-rule="evenodd" fill-opacity="1" /><path clip-path="url(#clip660)" d="M2189.82 1441.14 Q2186.21 1441.14 2184.38 1444.7 Q2182.57 1448.24 2182.57 1455.37 Q2182.57 1462.48 2184.38 1466.05 Q2186.21 1469.59 2189.82 1469.59 Q2193.45 1469.59 2195.26 1466.05 Q2197.09 1462.48 2197.09 1455.37 Q2197.09 1448.24 2195.26 1444.7 Q2193.45 1441.14 2189.82 1441.14 M2189.82 1437.43 Q2195.63 1437.43 2198.68 1442.04 Q2201.76 1446.62 2201.76 1455.37 Q2201.76 1464.1 2198.68 1468.71 Q2195.63 1473.29 2189.82 1473.29 Q2184.01 1473.29 2180.93 1468.71 Q2177.87 1464.1 2177.87 1455.37 Q2177.87 1446.62 2180.93 1442.04 Q2184.01 1437.43 2189.82 1437.43 Z" fill="#000000" fill-rule="evenodd" fill-opacity="1" /><path clip-path="url(#clip660)" d="M1174.62 1575.03 L1174.62 1572.45 Q1179.09 1572.45 1180.11 1571.91 Q1181.14 1571.34 1181.14 1568.63 L1181.14 1524.98 Q1181.14 1521.86 1180.03 1521.09 Q1178.97 1520.31 1174.62 1520.31 L1174.62 1517.68 L1186.67 1516.78 L1186.67 1568.63 Q1186.67 1571.34 1187.74 1571.91 Q1188.8 1572.45 1193.23 1572.45 L1193.23 1575.03 Q1192.2 1575.03 1190.07 1574.95 Q1187.94 1574.86 1186.38 1574.82 Q1184.83 1574.78 1183.92 1574.78 Q1182.94 1574.78 1174.62 1575.03 Z" fill="#000000" fill-rule="evenodd" fill-opacity="1" /><path clip-path="url(#clip660)" d="M1205.86 1570.52 Q1200.33 1565.03 1200.33 1557.07 Q1200.33 1549.08 1205.74 1543.26 Q1211.19 1537.4 1218.98 1537.4 Q1226.6 1537.4 1232.05 1543.22 Q1237.54 1549 1237.54 1557.07 Q1237.54 1564.99 1232.01 1570.48 Q1226.52 1575.97 1218.89 1575.97 Q1211.43 1575.97 1205.86 1570.52 M1207.29 1556.38 Q1207.29 1564.53 1209.43 1568.22 Q1212.71 1573.84 1218.98 1573.84 Q1222.09 1573.84 1224.67 1572.16 Q1227.3 1570.48 1228.73 1567.65 Q1230.58 1563.96 1230.58 1556.38 Q1230.58 1548.3 1228.36 1544.74 Q1225.08 1539.29 1218.89 1539.29 Q1216.19 1539.29 1213.52 1540.72 Q1210.9 1542.11 1209.3 1544.9 Q1207.29 1548.59 1207.29 1556.38 Z" fill="#000000" fill-rule="evenodd" fill-opacity="1" /><path clip-path="url(#clip660)" d="M1238.87 1581.67 Q1238.87 1578.96 1240.92 1576.63 Q1243.01 1574.29 1246.62 1573.27 Q1242.93 1570.93 1242.93 1565.81 Q1242.93 1561.87 1245.51 1558.84 Q1241.58 1555.56 1241.58 1550.19 Q1241.58 1545.23 1245.51 1541.58 Q1249.45 1537.93 1255.19 1537.93 Q1260.23 1537.93 1264.08 1540.97 Q1268.1 1537.03 1272.98 1536.99 Q1275.15 1536.99 1276.17 1538.34 Q1277.24 1539.69 1277.24 1541.13 Q1277.24 1542.4 1276.42 1543.02 Q1275.64 1543.63 1274.82 1543.63 Q1273.8 1543.63 1273.06 1542.97 Q1272.36 1542.28 1272.36 1541.21 Q1272.36 1539.45 1273.71 1538.92 Q1273.47 1538.83 1272.89 1538.83 Q1268.79 1538.83 1265.31 1542.11 Q1268.75 1545.31 1268.75 1550.27 Q1268.75 1555.23 1264.82 1558.88 Q1260.88 1562.53 1255.19 1562.53 Q1250.47 1562.53 1246.87 1559.9 Q1245.43 1561.58 1245.43 1563.88 Q1245.43 1565.97 1246.7 1567.61 Q1247.97 1569.25 1249.9 1569.49 Q1250.47 1569.58 1256.17 1569.58 Q1259.53 1569.58 1261.38 1569.66 Q1263.22 1569.74 1265.84 1570.31 Q1268.51 1570.85 1270.6 1571.91 Q1276.05 1574.95 1276.09 1581.5 Q1276.09 1586.3 1270.56 1589.29 Q1265.06 1592.33 1257.44 1592.33 Q1249.73 1592.33 1244.28 1589.25 Q1238.87 1586.22 1238.87 1581.67 M1243.26 1581.67 Q1243.26 1585.11 1247.32 1587.73 Q1251.37 1590.4 1257.52 1590.4 Q1263.55 1590.4 1267.61 1587.78 Q1271.71 1585.19 1271.71 1581.67 Q1271.71 1579.17 1270.27 1577.57 Q1268.84 1575.97 1265.88 1575.31 Q1262.97 1574.7 1260.92 1574.58 Q1258.88 1574.45 1255.1 1574.45 L1250.14 1574.45 Q1247.28 1574.62 1245.27 1576.71 Q1243.26 1578.8 1243.26 1581.67 M1247.85 1550.27 Q1247.85 1560.6 1255.19 1560.6 Q1258.88 1560.6 1261.13 1557.24 Q1262.48 1554.98 1262.48 1550.19 Q1262.48 1539.86 1255.19 1539.86 Q1251.5 1539.86 1249.2 1543.22 Q1247.85 1545.47 1247.85 1550.27 Z" fill="#000000" fill-rule="evenodd" fill-opacity="1" /><path clip-path="url(#clip660)" d="M1285.82 1598.29 Q1285.82 1597.22 1285.9 1596.91 Q1286.02 1596.59 1286.48 1596.1 L1297.75 1583.54 Q1303.92 1576.59 1303.92 1570.54 Q1303.92 1566.61 1301.86 1563.8 Q1299.82 1560.98 1296.06 1560.98 Q1293.48 1560.98 1291.3 1562.56 Q1289.12 1564.14 1288.11 1566.95 Q1288.28 1566.9 1288.89 1566.9 Q1290.35 1566.9 1291.15 1567.81 Q1291.99 1568.73 1291.99 1569.97 Q1291.99 1571.54 1290.95 1572.32 Q1289.95 1573.06 1288.94 1573.06 Q1288.54 1573.06 1288 1572.98 Q1287.48 1572.89 1286.65 1572.09 Q1285.82 1571.26 1285.82 1569.79 Q1285.82 1565.69 1288.92 1562.42 Q1292.04 1559.15 1296.81 1559.15 Q1302.2 1559.15 1305.73 1562.36 Q1309.29 1565.55 1309.29 1570.54 Q1309.29 1572.29 1308.74 1573.9 Q1308.23 1575.47 1307.51 1576.71 Q1306.82 1577.94 1304.93 1579.92 Q1303.03 1581.9 1301.51 1583.31 Q1299.99 1584.71 1296.58 1587.7 L1290.35 1593.75 L1300.94 1593.75 Q1306.1 1593.75 1306.5 1593.29 Q1307.08 1592.46 1307.8 1588.07 L1309.29 1588.07 L1307.62 1598.29 L1285.82 1598.29 Z" fill="#000000" fill-rule="evenodd" fill-opacity="1" /><path clip-path="url(#clip660)" d="M1318.02 1593.43 L1318.02 1515.27 Q1318.02 1512.15 1319.7 1512.15 Q1321.38 1512.15 1321.38 1514.65 L1321.38 1592.82 Q1321.38 1595.93 1319.7 1595.93 Q1318.02 1595.93 1318.02 1593.43 Z" fill="#000000" fill-rule="evenodd" fill-opacity="1" /><path clip-path="url(#clip660)" d="M1395.71 1518.71 Q1395.63 1520.23 1394.61 1520.31 Q1393.05 1520.39 1392.11 1520.59 Q1391.16 1520.76 1389.69 1521.37 Q1388.21 1521.99 1386.78 1523.46 Q1385.34 1524.94 1383.87 1527.28 L1353.66 1575.36 Q1353.12 1576.26 1352.67 1576.54 Q1352.26 1576.87 1351.32 1576.87 Q1350.46 1576.87 1350.13 1576.5 Q1349.8 1576.18 1349.64 1574.95 L1343 1523.14 Q1342.88 1522.19 1342.75 1521.78 Q1342.63 1521.37 1342.14 1520.96 Q1341.69 1520.55 1340.7 1520.43 Q1339.72 1520.31 1337.96 1520.31 Q1337.14 1520.31 1336.77 1520.27 Q1336.44 1520.23 1336.15 1520.02 Q1335.87 1519.77 1335.87 1519.28 Q1335.87 1518.54 1336.15 1518.18 Q1336.48 1517.77 1336.73 1517.72 Q1337.02 1517.68 1337.47 1517.68 Q1338.16 1517.68 1339.68 1517.77 Q1341.2 1517.85 1341.98 1517.85 Q1342.71 1517.85 1344.27 1517.89 Q1345.83 1517.93 1346.61 1517.93 Q1348.33 1517.93 1351.81 1517.81 Q1355.34 1517.68 1357.02 1517.68 Q1358.17 1517.68 1358.17 1518.63 Q1358.17 1519.77 1357.67 1520.06 Q1357.18 1520.31 1356.08 1520.31 Q1353.29 1520.31 1351.77 1521 Q1350.3 1521.7 1350.3 1522.81 L1355.99 1567.24 L1381.78 1526.25 Q1383.05 1524.32 1383.05 1523.05 Q1383.05 1520.59 1379.15 1520.31 Q1377.84 1520.31 1377.84 1519.28 Q1377.84 1518.54 1378.17 1518.18 Q1378.5 1517.77 1378.74 1517.72 Q1379.03 1517.68 1379.44 1517.68 Q1380.79 1517.68 1383.54 1517.81 Q1386.33 1517.93 1387.72 1517.93 Q1388.87 1517.93 1391.2 1517.81 Q1393.54 1517.68 1394.61 1517.68 Q1395.71 1517.68 1395.71 1518.71 Z" fill="#000000" fill-rule="evenodd" fill-opacity="1" /><path clip-path="url(#clip660)" d="M1406.47 1593.43 L1406.47 1515.27 Q1406.47 1512.15 1408.16 1512.15 Q1409.84 1512.15 1409.84 1514.65 L1409.84 1592.82 Q1409.84 1595.93 1408.16 1595.93 Q1406.47 1595.93 1406.47 1593.43 Z" fill="#000000" fill-rule="evenodd" fill-opacity="1" /><polyline clip-path="url(#clip660)" style="stroke:#000000; stroke-linecap:butt; stroke-linejoin:round; stroke-width:4; stroke-opacity:1; fill:none" points="
  262.988,1410.22 262.988,47.2441 
  "/>
<polyline clip-path="url(#clip660)" style="stroke:#000000; stroke-linecap:butt; stroke-linejoin:round; stroke-width:4; stroke-opacity:1; fill:none" points="
  262.988,1164.02 281.886,1164.02 
  "/>
<polyline clip-path="url(#clip660)" style="stroke:#000000; stroke-linecap:butt; stroke-linejoin:round; stroke-width:4; stroke-opacity:1; fill:none" points="
  262.988,894.471 281.886,894.471 
  "/>
<polyline clip-path="url(#clip660)" style="stroke:#000000; stroke-linecap:butt; stroke-linejoin:round; stroke-width:4; stroke-opacity:1; fill:none" points="
  262.988,624.92 281.886,624.92 
  "/>
<polyline clip-path="url(#clip660)" style="stroke:#000000; stroke-linecap:butt; stroke-linejoin:round; stroke-width:4; stroke-opacity:1; fill:none" points="
  262.988,355.37 281.886,355.37 
  "/>
<polyline clip-path="url(#clip660)" style="stroke:#000000; stroke-linecap:butt; stroke-linejoin:round; stroke-width:4; stroke-opacity:1; fill:none" points="
  262.988,85.8189 281.886,85.8189 
  "/>
<path clip-path="url(#clip660)" d="M141.248 1149.82 Q137.637 1149.82 135.808 1153.39 Q134.003 1156.93 134.003 1164.06 Q134.003 1171.16 135.808 1174.73 Q137.637 1178.27 141.248 1178.27 Q144.882 1178.27 146.688 1174.73 Q148.516 1171.16 148.516 1164.06 Q148.516 1156.93 146.688 1153.39 Q144.882 1149.82 141.248 1149.82 M141.248 1146.12 Q147.058 1146.12 150.114 1150.72 Q153.192 1155.31 153.192 1164.06 Q153.192 1172.78 150.114 1177.39 Q147.058 1181.97 141.248 1181.97 Q135.438 1181.97 132.359 1177.39 Q129.303 1172.78 129.303 1164.06 Q129.303 1155.31 132.359 1150.72 Q135.438 1146.12 141.248 1146.12 Z" fill="#000000" fill-rule="evenodd" fill-opacity="1" /><path clip-path="url(#clip660)" d="M161.41 1175.42 L166.294 1175.42 L166.294 1181.3 L161.41 1181.3 L161.41 1175.42 Z" fill="#000000" fill-rule="evenodd" fill-opacity="1" /><path clip-path="url(#clip660)" d="M176.618 1180.58 L176.618 1176.33 Q178.377 1177.16 180.183 1177.6 Q181.988 1178.04 183.724 1178.04 Q188.354 1178.04 190.785 1174.94 Q193.238 1171.81 193.586 1165.47 Q192.243 1167.46 190.183 1168.52 Q188.123 1169.59 185.623 1169.59 Q180.437 1169.59 177.405 1166.46 Q174.396 1163.32 174.396 1157.88 Q174.396 1152.55 177.544 1149.33 Q180.692 1146.12 185.924 1146.12 Q191.919 1146.12 195.067 1150.72 Q198.238 1155.31 198.238 1164.06 Q198.238 1172.23 194.349 1177.11 Q190.484 1181.97 183.933 1181.97 Q182.174 1181.97 180.368 1181.63 Q178.562 1181.28 176.618 1180.58 M185.924 1165.93 Q189.072 1165.93 190.9 1163.78 Q192.752 1161.63 192.752 1157.88 Q192.752 1154.15 190.9 1152 Q189.072 1149.82 185.924 1149.82 Q182.775 1149.82 180.924 1152 Q179.095 1154.15 179.095 1157.88 Q179.095 1161.63 180.924 1163.78 Q182.775 1165.93 185.924 1165.93 Z" fill="#000000" fill-rule="evenodd" fill-opacity="1" /><path clip-path="url(#clip660)" d="M210.669 1177.37 L226.988 1177.37 L226.988 1181.3 L205.044 1181.3 L205.044 1177.37 Q207.706 1174.61 212.289 1169.98 Q216.896 1165.33 218.076 1163.99 Q220.322 1161.46 221.201 1159.73 Q222.104 1157.97 222.104 1156.28 Q222.104 1153.52 220.159 1151.79 Q218.238 1150.05 215.136 1150.05 Q212.937 1150.05 210.484 1150.82 Q208.053 1151.58 205.275 1153.13 L205.275 1148.41 Q208.099 1147.27 210.553 1146.7 Q213.007 1146.12 215.044 1146.12 Q220.414 1146.12 223.609 1148.8 Q226.803 1151.49 226.803 1155.98 Q226.803 1158.11 225.993 1160.03 Q225.206 1161.93 223.099 1164.52 Q222.521 1165.19 219.419 1168.41 Q216.317 1171.6 210.669 1177.37 Z" fill="#000000" fill-rule="evenodd" fill-opacity="1" /><path clip-path="url(#clip660)" d="M139.165 880.27 Q135.553 880.27 133.725 883.835 Q131.919 887.376 131.919 894.506 Q131.919 901.612 133.725 905.177 Q135.553 908.719 139.165 908.719 Q142.799 908.719 144.604 905.177 Q146.433 901.612 146.433 894.506 Q146.433 887.376 144.604 883.835 Q142.799 880.27 139.165 880.27 M139.165 876.566 Q144.975 876.566 148.03 881.173 Q151.109 885.756 151.109 894.506 Q151.109 903.233 148.03 907.839 Q144.975 912.422 139.165 912.422 Q133.354 912.422 130.276 907.839 Q127.22 903.233 127.22 894.506 Q127.22 885.756 130.276 881.173 Q133.354 876.566 139.165 876.566 Z" fill="#000000" fill-rule="evenodd" fill-opacity="1" /><path clip-path="url(#clip660)" d="M159.326 905.872 L164.211 905.872 L164.211 911.751 L159.326 911.751 L159.326 905.872 Z" fill="#000000" fill-rule="evenodd" fill-opacity="1" /><path clip-path="url(#clip660)" d="M174.535 911.034 L174.535 906.774 Q176.294 907.608 178.1 908.048 Q179.905 908.487 181.641 908.487 Q186.271 908.487 188.701 905.385 Q191.155 902.261 191.502 895.918 Q190.16 897.909 188.099 898.973 Q186.039 900.038 183.539 900.038 Q178.354 900.038 175.322 896.913 Q172.313 893.765 172.313 888.325 Q172.313 883.001 175.461 879.784 Q178.609 876.566 183.84 876.566 Q189.836 876.566 192.984 881.173 Q196.155 885.756 196.155 894.506 Q196.155 902.677 192.266 907.561 Q188.4 912.422 181.849 912.422 Q180.09 912.422 178.285 912.075 Q176.479 911.728 174.535 911.034 M183.84 896.381 Q186.988 896.381 188.817 894.228 Q190.669 892.075 190.669 888.325 Q190.669 884.599 188.817 882.446 Q186.988 880.27 183.84 880.27 Q180.692 880.27 178.84 882.446 Q177.012 884.599 177.012 888.325 Q177.012 892.075 178.84 894.228 Q180.692 896.381 183.84 896.381 Z" fill="#000000" fill-rule="evenodd" fill-opacity="1" /><path clip-path="url(#clip660)" d="M217.405 881.265 L205.599 899.714 L217.405 899.714 L217.405 881.265 M216.178 877.191 L222.058 877.191 L222.058 899.714 L226.988 899.714 L226.988 903.603 L222.058 903.603 L222.058 911.751 L217.405 911.751 L217.405 903.603 L201.803 903.603 L201.803 899.089 L216.178 877.191 Z" fill="#000000" fill-rule="evenodd" fill-opacity="1" /><path clip-path="url(#clip660)" d="M139.489 610.719 Q135.878 610.719 134.049 614.284 Q132.243 617.826 132.243 624.955 Q132.243 632.062 134.049 635.626 Q135.878 639.168 139.489 639.168 Q143.123 639.168 144.928 635.626 Q146.757 632.062 146.757 624.955 Q146.757 617.826 144.928 614.284 Q143.123 610.719 139.489 610.719 M139.489 607.015 Q145.299 607.015 148.354 611.622 Q151.433 616.205 151.433 624.955 Q151.433 633.682 148.354 638.288 Q145.299 642.872 139.489 642.872 Q133.678 642.872 130.6 638.288 Q127.544 633.682 127.544 624.955 Q127.544 616.205 130.6 611.622 Q133.678 607.015 139.489 607.015 Z" fill="#000000" fill-rule="evenodd" fill-opacity="1" /><path clip-path="url(#clip660)" d="M159.651 636.321 L164.535 636.321 L164.535 642.2 L159.651 642.2 L159.651 636.321 Z" fill="#000000" fill-rule="evenodd" fill-opacity="1" /><path clip-path="url(#clip660)" d="M174.859 641.483 L174.859 637.224 Q176.618 638.057 178.424 638.497 Q180.229 638.937 181.965 638.937 Q186.595 638.937 189.025 635.835 Q191.479 632.71 191.826 626.367 Q190.484 628.358 188.424 629.423 Q186.363 630.488 183.863 630.488 Q178.678 630.488 175.646 627.363 Q172.637 624.214 172.637 618.775 Q172.637 613.451 175.785 610.233 Q178.933 607.015 184.164 607.015 Q190.16 607.015 193.308 611.622 Q196.479 616.205 196.479 624.955 Q196.479 633.126 192.59 638.011 Q188.724 642.872 182.174 642.872 Q180.414 642.872 178.609 642.525 Q176.803 642.177 174.859 641.483 M184.164 626.83 Q187.312 626.83 189.141 624.677 Q190.993 622.525 190.993 618.775 Q190.993 615.048 189.141 612.895 Q187.312 610.719 184.164 610.719 Q181.016 610.719 179.164 612.895 Q177.336 615.048 177.336 618.775 Q177.336 622.525 179.164 624.677 Q181.016 626.83 184.164 626.83 Z" fill="#000000" fill-rule="evenodd" fill-opacity="1" /><path clip-path="url(#clip660)" d="M215.46 623.057 Q212.312 623.057 210.46 625.21 Q208.632 627.363 208.632 631.113 Q208.632 634.839 210.46 637.015 Q212.312 639.168 215.46 639.168 Q218.609 639.168 220.437 637.015 Q222.289 634.839 222.289 631.113 Q222.289 627.363 220.437 625.21 Q218.609 623.057 215.46 623.057 M224.743 608.404 L224.743 612.664 Q222.984 611.83 221.178 611.39 Q219.396 610.951 217.636 610.951 Q213.007 610.951 210.553 614.076 Q208.123 617.201 207.775 623.52 Q209.141 621.506 211.201 620.441 Q213.261 619.353 215.738 619.353 Q220.947 619.353 223.956 622.525 Q226.988 625.673 226.988 631.113 Q226.988 636.437 223.84 639.654 Q220.692 642.872 215.46 642.872 Q209.465 642.872 206.294 638.288 Q203.123 633.682 203.123 624.955 Q203.123 616.761 207.011 611.9 Q210.9 607.015 217.451 607.015 Q219.21 607.015 220.993 607.363 Q222.798 607.71 224.743 608.404 Z" fill="#000000" fill-rule="evenodd" fill-opacity="1" /><path clip-path="url(#clip660)" d="M139.743 341.168 Q136.132 341.168 134.303 344.733 Q132.498 348.275 132.498 355.404 Q132.498 362.511 134.303 366.076 Q136.132 369.617 139.743 369.617 Q143.377 369.617 145.183 366.076 Q147.012 362.511 147.012 355.404 Q147.012 348.275 145.183 344.733 Q143.377 341.168 139.743 341.168 M139.743 337.465 Q145.553 337.465 148.609 342.071 Q151.688 346.654 151.688 355.404 Q151.688 364.131 148.609 368.738 Q145.553 373.321 139.743 373.321 Q133.933 373.321 130.854 368.738 Q127.799 364.131 127.799 355.404 Q127.799 346.654 130.854 342.071 Q133.933 337.465 139.743 337.465 Z" fill="#000000" fill-rule="evenodd" fill-opacity="1" /><path clip-path="url(#clip660)" d="M159.905 366.77 L164.789 366.77 L164.789 372.65 L159.905 372.65 L159.905 366.77 Z" fill="#000000" fill-rule="evenodd" fill-opacity="1" /><path clip-path="url(#clip660)" d="M175.113 371.932 L175.113 367.673 Q176.873 368.506 178.678 368.946 Q180.484 369.386 182.22 369.386 Q186.849 369.386 189.28 366.284 Q191.734 363.159 192.081 356.816 Q190.738 358.807 188.678 359.872 Q186.618 360.937 184.118 360.937 Q178.933 360.937 175.9 357.812 Q172.891 354.664 172.891 349.224 Q172.891 343.9 176.039 340.682 Q179.187 337.465 184.419 337.465 Q190.414 337.465 193.562 342.071 Q196.734 346.654 196.734 355.404 Q196.734 363.576 192.845 368.46 Q188.979 373.321 182.428 373.321 Q180.669 373.321 178.863 372.974 Q177.058 372.627 175.113 371.932 M184.419 357.279 Q187.567 357.279 189.396 355.127 Q191.248 352.974 191.248 349.224 Q191.248 345.497 189.396 343.344 Q187.567 341.168 184.419 341.168 Q181.271 341.168 179.419 343.344 Q177.59 345.497 177.59 349.224 Q177.59 352.974 179.419 355.127 Q181.271 357.279 184.419 357.279 Z" fill="#000000" fill-rule="evenodd" fill-opacity="1" /><path clip-path="url(#clip660)" d="M215.136 356.238 Q211.803 356.238 209.882 358.02 Q207.984 359.803 207.984 362.927 Q207.984 366.052 209.882 367.835 Q211.803 369.617 215.136 369.617 Q218.47 369.617 220.391 367.835 Q222.312 366.029 222.312 362.927 Q222.312 359.803 220.391 358.02 Q218.493 356.238 215.136 356.238 M210.46 354.247 Q207.451 353.506 205.761 351.446 Q204.095 349.386 204.095 346.423 Q204.095 342.279 207.035 339.872 Q209.997 337.465 215.136 337.465 Q220.298 337.465 223.238 339.872 Q226.178 342.279 226.178 346.423 Q226.178 349.386 224.488 351.446 Q222.821 353.506 219.835 354.247 Q223.215 355.034 225.09 357.326 Q226.988 359.617 226.988 362.927 Q226.988 367.951 223.909 370.636 Q220.854 373.321 215.136 373.321 Q209.419 373.321 206.34 370.636 Q203.285 367.951 203.285 362.927 Q203.285 359.617 205.183 357.326 Q207.081 355.034 210.46 354.247 M208.747 346.863 Q208.747 349.548 210.414 351.053 Q212.104 352.557 215.136 352.557 Q218.146 352.557 219.835 351.053 Q221.548 349.548 221.548 346.863 Q221.548 344.178 219.835 342.673 Q218.146 341.168 215.136 341.168 Q212.104 341.168 210.414 342.673 Q208.747 344.178 208.747 346.863 Z" fill="#000000" fill-rule="evenodd" fill-opacity="1" /><path clip-path="url(#clip660)" d="M130.461 99.1637 L138.1 99.1637 L138.1 72.7981 L129.79 74.4648 L129.79 70.2055 L138.053 68.5389 L142.729 68.5389 L142.729 99.1637 L150.368 99.1637 L150.368 103.099 L130.461 103.099 L130.461 99.1637 Z" fill="#000000" fill-rule="evenodd" fill-opacity="1" /><path clip-path="url(#clip660)" d="M159.813 97.2193 L164.697 97.2193 L164.697 103.099 L159.813 103.099 L159.813 97.2193 Z" fill="#000000" fill-rule="evenodd" fill-opacity="1" /><path clip-path="url(#clip660)" d="M184.882 71.6176 Q181.271 71.6176 179.442 75.1824 Q177.637 78.724 177.637 85.8536 Q177.637 92.96 179.442 96.5248 Q181.271 100.066 184.882 100.066 Q188.516 100.066 190.322 96.5248 Q192.15 92.96 192.15 85.8536 Q192.15 78.724 190.322 75.1824 Q188.516 71.6176 184.882 71.6176 M184.882 67.9139 Q190.692 67.9139 193.748 72.5203 Q196.826 77.1036 196.826 85.8536 Q196.826 94.5804 193.748 99.1869 Q190.692 103.77 184.882 103.77 Q179.072 103.77 175.993 99.1869 Q172.938 94.5804 172.938 85.8536 Q172.938 77.1036 175.993 72.5203 Q179.072 67.9139 184.882 67.9139 Z" fill="#000000" fill-rule="evenodd" fill-opacity="1" /><path clip-path="url(#clip660)" d="M215.044 71.6176 Q211.433 71.6176 209.604 75.1824 Q207.798 78.724 207.798 85.8536 Q207.798 92.96 209.604 96.5248 Q211.433 100.066 215.044 100.066 Q218.678 100.066 220.484 96.5248 Q222.312 92.96 222.312 85.8536 Q222.312 78.724 220.484 75.1824 Q218.678 71.6176 215.044 71.6176 M215.044 67.9139 Q220.854 67.9139 223.909 72.5203 Q226.988 77.1036 226.988 85.8536 Q226.988 94.5804 223.909 99.1869 Q220.854 103.77 215.044 103.77 Q209.234 103.77 206.155 99.1869 Q203.099 94.5804 203.099 85.8536 Q203.099 77.1036 206.155 72.5203 Q209.234 67.9139 215.044 67.9139 Z" fill="#000000" fill-rule="evenodd" fill-opacity="1" /><path clip-path="url(#clip660)" d="M32.0609 706.184 Q32.3888 706.184 35.2581 707.783 Q40.5457 710.447 48.6206 713.849 Q56.6955 717.251 62.6799 719.178 Q64.1145 719.588 65.959 719.875 Q71.6156 720.613 80.3873 722.99 Q83.1335 723.81 84.2812 724.343 Q85.4289 724.875 85.4289 725.654 Q85.4289 726.761 83.9123 726.761 Q82.3957 726.761 76.7392 725.367 Q71.0827 723.933 65.8771 722.375 Q63.0078 721.391 57.6382 721.391 Q55.9167 721.391 54.3591 721.473 Q52.8015 721.555 50.5471 721.883 Q48.2927 722.211 46.4481 722.744 Q44.6036 723.277 42.6771 724.302 Q40.7096 725.326 39.398 726.72 Q38.0453 728.114 37.1846 730.245 Q36.3238 732.336 36.3238 734.959 Q36.3238 735.615 36.4058 736.434 Q36.4468 737.213 36.9796 739.099 Q37.5125 740.943 38.4552 742.501 Q39.357 744.058 41.3655 745.739 Q43.3739 747.42 46.0792 748.321 L46.4891 748.649 Q46.4891 749.182 46.4891 749.469 Q46.4481 749.715 46.2432 750.002 Q46.0382 750.248 45.6693 750.248 Q44.8086 750.248 43.087 749.592 Q41.3655 748.895 39.152 747.502 Q36.9386 746.067 34.9711 744.222 Q33.0037 742.337 31.651 739.591 Q30.2984 736.844 30.2984 733.893 Q30.2984 726.31 39.5209 722.703 Q47.3499 719.547 56.6545 719.26 Q40.1358 712.702 31.815 708.193 Q31.2001 707.947 31.2001 707.209 Q31.2411 706.184 32.0609 706.184 Z" fill="#000000" fill-rule="evenodd" fill-opacity="1" /><polyline clip-path="url(#clip662)" style="stroke:#000000; stroke-linecap:butt; stroke-linejoin:round; stroke-width:4; stroke-opacity:1; fill:none" points="
  2011.13,173.583 2011.13,172.318 
  "/>
<polyline clip-path="url(#clip662)" style="stroke:#000000; stroke-linecap:butt; stroke-linejoin:round; stroke-width:4; stroke-opacity:1; fill:none" points="
  322.133,1371.65 322.133,1336.47 
  "/>
<polyline clip-path="url(#clip662)" style="stroke:#000000; stroke-linecap:butt; stroke-linejoin:round; stroke-width:4; stroke-opacity:1; fill:none" points="
  1728.69,259.961 1728.69,257.991 
  "/>
<polyline clip-path="url(#clip662)" style="stroke:#000000; stroke-linecap:butt; stroke-linejoin:round; stroke-width:4; stroke-opacity:1; fill:none" points="
  1164.21,527.837 1164.21,522.382 
  "/>
<polyline clip-path="url(#clip662)" style="stroke:#000000; stroke-linecap:butt; stroke-linejoin:round; stroke-width:4; stroke-opacity:1; fill:none" points="
  601.52,985.904 601.52,967.326 
  "/>
<polyline clip-path="url(#clip662)" style="stroke:#000000; stroke-linecap:butt; stroke-linejoin:round; stroke-width:4; stroke-opacity:1; fill:none" points="
  1446.35,371.584 1446.35,368.368 
  "/>
<polyline clip-path="url(#clip662)" style="stroke:#000000; stroke-linecap:butt; stroke-linejoin:round; stroke-width:4; stroke-opacity:1; fill:none" points="
  2293.61,130.862 2293.61,129.985 
  "/>
<polyline clip-path="url(#clip662)" style="stroke:#000000; stroke-linecap:butt; stroke-linejoin:round; stroke-width:4; stroke-opacity:1; fill:none" points="
  882.473,712.429 882.473,702.324 
  "/>
<line clip-path="url(#clip662)" x1="2027.13" y1="173.583" x2="1995.13" y2="173.583" style="stroke:#000000; stroke-width:3.2; stroke-opacity:1"/>
<line clip-path="url(#clip662)" x1="2027.13" y1="172.318" x2="1995.13" y2="172.318" style="stroke:#000000; stroke-width:3.2; stroke-opacity:1"/>
<line clip-path="url(#clip662)" x1="338.133" y1="1371.65" x2="306.133" y2="1371.65" style="stroke:#000000; stroke-width:3.2; stroke-opacity:1"/>
<line clip-path="url(#clip662)" x1="338.133" y1="1336.47" x2="306.133" y2="1336.47" style="stroke:#000000; stroke-width:3.2; stroke-opacity:1"/>
<line clip-path="url(#clip662)" x1="1744.69" y1="259.961" x2="1712.69" y2="259.961" style="stroke:#000000; stroke-width:3.2; stroke-opacity:1"/>
<line clip-path="url(#clip662)" x1="1744.69" y1="257.991" x2="1712.69" y2="257.991" style="stroke:#000000; stroke-width:3.2; stroke-opacity:1"/>
<line clip-path="url(#clip662)" x1="1180.21" y1="527.837" x2="1148.21" y2="527.837" style="stroke:#000000; stroke-width:3.2; stroke-opacity:1"/>
<line clip-path="url(#clip662)" x1="1180.21" y1="522.382" x2="1148.21" y2="522.382" style="stroke:#000000; stroke-width:3.2; stroke-opacity:1"/>
<line clip-path="url(#clip662)" x1="617.52" y1="985.904" x2="585.52" y2="985.904" style="stroke:#000000; stroke-width:3.2; stroke-opacity:1"/>
<line clip-path="url(#clip662)" x1="617.52" y1="967.326" x2="585.52" y2="967.326" style="stroke:#000000; stroke-width:3.2; stroke-opacity:1"/>
<line clip-path="url(#clip662)" x1="1462.35" y1="371.584" x2="1430.35" y2="371.584" style="stroke:#000000; stroke-width:3.2; stroke-opacity:1"/>
<line clip-path="url(#clip662)" x1="1462.35" y1="368.368" x2="1430.35" y2="368.368" style="stroke:#000000; stroke-width:3.2; stroke-opacity:1"/>
<line clip-path="url(#clip662)" x1="2309.61" y1="130.862" x2="2277.61" y2="130.862" style="stroke:#000000; stroke-width:3.2; stroke-opacity:1"/>
<line clip-path="url(#clip662)" x1="2309.61" y1="129.985" x2="2277.61" y2="129.985" style="stroke:#000000; stroke-width:3.2; stroke-opacity:1"/>
<line clip-path="url(#clip662)" x1="898.473" y1="712.429" x2="866.473" y2="712.429" style="stroke:#000000; stroke-width:3.2; stroke-opacity:1"/>
<line clip-path="url(#clip662)" x1="898.473" y1="702.324" x2="866.473" y2="702.324" style="stroke:#000000; stroke-width:3.2; stroke-opacity:1"/>
<line clip-path="url(#clip662)" x1="2027.13" y1="172.951" x2="1995.13" y2="172.951" style="stroke:#000000; stroke-width:3.2; stroke-opacity:1"/>
<line clip-path="url(#clip662)" x1="338.133" y1="1354.06" x2="306.133" y2="1354.06" style="stroke:#000000; stroke-width:3.2; stroke-opacity:1"/>
<line clip-path="url(#clip662)" x1="1744.69" y1="258.976" x2="1712.69" y2="258.976" style="stroke:#000000; stroke-width:3.2; stroke-opacity:1"/>
<line clip-path="url(#clip662)" x1="1180.21" y1="525.11" x2="1148.21" y2="525.11" style="stroke:#000000; stroke-width:3.2; stroke-opacity:1"/>
<line clip-path="url(#clip662)" x1="617.52" y1="976.615" x2="585.52" y2="976.615" style="stroke:#000000; stroke-width:3.2; stroke-opacity:1"/>
<line clip-path="url(#clip662)" x1="1462.35" y1="369.976" x2="1430.35" y2="369.976" style="stroke:#000000; stroke-width:3.2; stroke-opacity:1"/>
<line clip-path="url(#clip662)" x1="2309.61" y1="130.423" x2="2277.61" y2="130.423" style="stroke:#000000; stroke-width:3.2; stroke-opacity:1"/>
<line clip-path="url(#clip662)" x1="898.473" y1="707.377" x2="866.473" y2="707.377" style="stroke:#000000; stroke-width:3.2; stroke-opacity:1"/>
<polyline clip-path="url(#clip662)" style="stroke:#808080; stroke-linecap:butt; stroke-linejoin:round; stroke-width:4; stroke-opacity:1; fill:none" stroke-dasharray="16, 10" points="
  -1826.78,85.8189 4442.52,85.8189 
  "/>
<polyline clip-path="url(#clip662)" style="stroke:#808080; stroke-linecap:butt; stroke-linejoin:round; stroke-width:4; stroke-opacity:1; fill:none" stroke-dasharray="16, 10" points="
  -1826.78,85.8189 4442.52,85.8189 
  "/>
</svg>
