<?xml version="1.0" encoding="utf-8"?>
<svg xmlns="http://www.w3.org/2000/svg" xmlns:xlink="http://www.w3.org/1999/xlink" width="600" height="400" viewBox="0 0 2400 1600">
<defs>
  <clipPath id="clip720">
    <rect x="0" y="0" width="2400" height="1600"/>
  </clipPath>
</defs>
<path clip-path="url(#clip720)" d="
M0 1600 L2400 1600 L2400 0 L0 0  Z
  " fill="#000000" fill-rule="evenodd" fill-opacity="0"/>
<defs>
  <clipPath id="clip721">
    <rect x="480" y="0" width="1681" height="1600"/>
  </clipPath>
</defs>
<defs>
  <clipPath id="clip722">
    <rect x="262" y="47" width="2091" height="1364"/>
  </clipPath>
</defs>
<path clip-path="url(#clip720)" d="
M230.743 1410.22 L2352.76 1410.22 L2352.76 47.2441 L230.743 47.2441  Z
  " fill="#000000" fill-rule="evenodd" fill-opacity="0"/>
<defs>
  <clipPath id="clip723">
    <rect x="230" y="47" width="2123" height="1364"/>
  </clipPath>
</defs>
<polyline clip-path="url(#clip720)" style="stroke:#000000; stroke-linecap:butt; stroke-linejoin:round; stroke-width:4; stroke-opacity:1; fill:none" points="
  230.743,1410.22 2352.76,1410.22 
  "/>
<polyline clip-path="url(#clip720)" style="stroke:#000000; stroke-linecap:butt; stroke-linejoin:round; stroke-width:4; stroke-opacity:1; fill:none" points="
  356.106,1410.22 356.106,1391.32 
  "/>
<polyline clip-path="url(#clip720)" style="stroke:#000000; stroke-linecap:butt; stroke-linejoin:round; stroke-width:4; stroke-opacity:1; fill:none" points="
  714.725,1410.22 714.725,1391.32 
  "/>
<polyline clip-path="url(#clip720)" style="stroke:#000000; stroke-linecap:butt; stroke-linejoin:round; stroke-width:4; stroke-opacity:1; fill:none" points="
  1073.34,1410.22 1073.34,1391.32 
  "/>
<polyline clip-path="url(#clip720)" style="stroke:#000000; stroke-linecap:butt; stroke-linejoin:round; stroke-width:4; stroke-opacity:1; fill:none" points="
  1431.96,1410.22 1431.96,1391.32 
  "/>
<polyline clip-path="url(#clip720)" style="stroke:#000000; stroke-linecap:butt; stroke-linejoin:round; stroke-width:4; stroke-opacity:1; fill:none" points="
  1790.58,1410.22 1790.58,1391.32 
  "/>
<polyline clip-path="url(#clip720)" style="stroke:#000000; stroke-linecap:butt; stroke-linejoin:round; stroke-width:4; stroke-opacity:1; fill:none" points="
  2149.2,1410.22 2149.2,1391.32 
  "/>
<path clip-path="url(#clip720)" d="M308.676 1468.68 L316.315 1468.68 L316.315 1442.32 L308.005 1443.99 L308.005 1439.73 L316.269 1438.06 L320.945 1438.06 L320.945 1468.68 L328.583 1468.68 L328.583 1472.62 L308.676 1472.62 L308.676 1468.68 Z" fill="#000000" fill-rule="evenodd" fill-opacity="1" /><path clip-path="url(#clip720)" d="M342.056 1468.68 L358.375 1468.68 L358.375 1472.62 L336.431 1472.62 L336.431 1468.68 Q339.093 1465.93 343.676 1461.3 Q348.282 1456.65 349.463 1455.31 Q351.708 1452.78 352.588 1451.05 Q353.491 1449.29 353.491 1447.6 Q353.491 1444.84 351.546 1443.11 Q349.625 1441.37 346.523 1441.37 Q344.324 1441.37 341.87 1442.13 Q339.44 1442.9 336.662 1444.45 L336.662 1439.73 Q339.486 1438.59 341.94 1438.01 Q344.394 1437.43 346.431 1437.43 Q351.801 1437.43 354.995 1440.12 Q358.19 1442.81 358.19 1447.3 Q358.19 1449.43 357.38 1451.35 Q356.593 1453.24 354.486 1455.84 Q353.907 1456.51 350.806 1459.73 Q347.704 1462.92 342.056 1468.68 Z" fill="#000000" fill-rule="evenodd" fill-opacity="1" /><path clip-path="url(#clip720)" d="M368.19 1466.74 L373.074 1466.74 L373.074 1472.62 L368.19 1472.62 L368.19 1466.74 Z" fill="#000000" fill-rule="evenodd" fill-opacity="1" /><path clip-path="url(#clip720)" d="M383.305 1438.06 L401.662 1438.06 L401.662 1442 L387.588 1442 L387.588 1450.47 Q388.606 1450.12 389.625 1449.96 Q390.643 1449.77 391.662 1449.77 Q397.449 1449.77 400.828 1452.94 Q404.208 1456.12 404.208 1461.53 Q404.208 1467.11 400.736 1470.21 Q397.264 1473.29 390.944 1473.29 Q388.768 1473.29 386.5 1472.92 Q384.254 1472.55 381.847 1471.81 L381.847 1467.11 Q383.93 1468.24 386.153 1468.8 Q388.375 1469.36 390.852 1469.36 Q394.856 1469.36 397.194 1467.25 Q399.532 1465.14 399.532 1461.53 Q399.532 1457.92 397.194 1455.81 Q394.856 1453.71 390.852 1453.71 Q388.977 1453.71 387.102 1454.12 Q385.25 1454.54 383.305 1455.42 L383.305 1438.06 Z" fill="#000000" fill-rule="evenodd" fill-opacity="1" /><path clip-path="url(#clip720)" d="M666.797 1468.68 L674.436 1468.68 L674.436 1442.32 L666.126 1443.99 L666.126 1439.73 L674.39 1438.06 L679.066 1438.06 L679.066 1468.68 L686.705 1468.68 L686.705 1472.62 L666.797 1472.62 L666.797 1468.68 Z" fill="#000000" fill-rule="evenodd" fill-opacity="1" /><path clip-path="url(#clip720)" d="M696.195 1438.06 L714.552 1438.06 L714.552 1442 L700.478 1442 L700.478 1450.47 Q701.496 1450.12 702.515 1449.96 Q703.533 1449.77 704.552 1449.77 Q710.339 1449.77 713.718 1452.94 Q717.098 1456.12 717.098 1461.53 Q717.098 1467.11 713.626 1470.21 Q710.154 1473.29 703.834 1473.29 Q701.658 1473.29 699.39 1472.92 Q697.144 1472.55 694.737 1471.81 L694.737 1467.11 Q696.82 1468.24 699.043 1468.8 Q701.265 1469.36 703.742 1469.36 Q707.746 1469.36 710.084 1467.25 Q712.422 1465.14 712.422 1461.53 Q712.422 1457.92 710.084 1455.81 Q707.746 1453.71 703.742 1453.71 Q701.867 1453.71 699.992 1454.12 Q698.14 1454.54 696.195 1455.42 L696.195 1438.06 Z" fill="#000000" fill-rule="evenodd" fill-opacity="1" /><path clip-path="url(#clip720)" d="M726.311 1466.74 L731.195 1466.74 L731.195 1472.62 L726.311 1472.62 L726.311 1466.74 Z" fill="#000000" fill-rule="evenodd" fill-opacity="1" /><path clip-path="url(#clip720)" d="M751.38 1441.14 Q747.769 1441.14 745.94 1444.7 Q744.135 1448.24 744.135 1455.37 Q744.135 1462.48 745.94 1466.05 Q747.769 1469.59 751.38 1469.59 Q755.014 1469.59 756.82 1466.05 Q758.649 1462.48 758.649 1455.37 Q758.649 1448.24 756.82 1444.7 Q755.014 1441.14 751.38 1441.14 M751.38 1437.43 Q757.19 1437.43 760.246 1442.04 Q763.325 1446.62 763.325 1455.37 Q763.325 1464.1 760.246 1468.71 Q757.19 1473.29 751.38 1473.29 Q745.57 1473.29 742.491 1468.71 Q739.436 1464.1 739.436 1455.37 Q739.436 1446.62 742.491 1442.04 Q745.57 1437.43 751.38 1437.43 Z" fill="#000000" fill-rule="evenodd" fill-opacity="1" /><path clip-path="url(#clip720)" d="M1025.91 1468.68 L1033.55 1468.68 L1033.55 1442.32 L1025.24 1443.99 L1025.24 1439.73 L1033.51 1438.06 L1038.18 1438.06 L1038.18 1468.68 L1045.82 1468.68 L1045.82 1472.62 L1025.91 1472.62 L1025.91 1468.68 Z" fill="#000000" fill-rule="evenodd" fill-opacity="1" /><path clip-path="url(#clip720)" d="M1054.09 1438.06 L1076.31 1438.06 L1076.31 1440.05 L1063.76 1472.62 L1058.88 1472.62 L1070.68 1442 L1054.09 1442 L1054.09 1438.06 Z" fill="#000000" fill-rule="evenodd" fill-opacity="1" /><path clip-path="url(#clip720)" d="M1085.43 1466.74 L1090.31 1466.74 L1090.31 1472.62 L1085.43 1472.62 L1085.43 1466.74 Z" fill="#000000" fill-rule="evenodd" fill-opacity="1" /><path clip-path="url(#clip720)" d="M1100.54 1438.06 L1118.9 1438.06 L1118.9 1442 L1104.83 1442 L1104.83 1450.47 Q1105.84 1450.12 1106.86 1449.96 Q1107.88 1449.77 1108.9 1449.77 Q1114.69 1449.77 1118.07 1452.94 Q1121.45 1456.12 1121.45 1461.53 Q1121.45 1467.11 1117.97 1470.21 Q1114.5 1473.29 1108.18 1473.29 Q1106.01 1473.29 1103.74 1472.92 Q1101.49 1472.55 1099.08 1471.81 L1099.08 1467.11 Q1101.17 1468.24 1103.39 1468.8 Q1105.61 1469.36 1108.09 1469.36 Q1112.09 1469.36 1114.43 1467.25 Q1116.77 1465.14 1116.77 1461.53 Q1116.77 1457.92 1114.43 1455.81 Q1112.09 1453.71 1108.09 1453.71 Q1106.21 1453.71 1104.34 1454.12 Q1102.49 1454.54 1100.54 1455.42 L1100.54 1438.06 Z" fill="#000000" fill-rule="evenodd" fill-opacity="1" /><path clip-path="url(#clip720)" d="M1388.12 1468.68 L1404.44 1468.68 L1404.44 1472.62 L1382.5 1472.62 L1382.5 1468.68 Q1385.16 1465.93 1389.74 1461.3 Q1394.35 1456.65 1395.53 1455.31 Q1397.77 1452.78 1398.65 1451.05 Q1399.56 1449.29 1399.56 1447.6 Q1399.56 1444.84 1397.61 1443.11 Q1395.69 1441.37 1392.59 1441.37 Q1390.39 1441.37 1387.94 1442.13 Q1385.51 1442.9 1382.73 1444.45 L1382.73 1439.73 Q1385.55 1438.59 1388.01 1438.01 Q1390.46 1437.43 1392.5 1437.43 Q1397.87 1437.43 1401.06 1440.12 Q1404.25 1442.81 1404.25 1447.3 Q1404.25 1449.43 1403.44 1451.35 Q1402.66 1453.24 1400.55 1455.84 Q1399.97 1456.51 1396.87 1459.73 Q1393.77 1462.92 1388.12 1468.68 Z" fill="#000000" fill-rule="evenodd" fill-opacity="1" /><path clip-path="url(#clip720)" d="M1424.25 1441.14 Q1420.64 1441.14 1418.82 1444.7 Q1417.01 1448.24 1417.01 1455.37 Q1417.01 1462.48 1418.82 1466.05 Q1420.64 1469.59 1424.25 1469.59 Q1427.89 1469.59 1429.69 1466.05 Q1431.52 1462.48 1431.52 1455.37 Q1431.52 1448.24 1429.69 1444.7 Q1427.89 1441.14 1424.25 1441.14 M1424.25 1437.43 Q1430.06 1437.43 1433.12 1442.04 Q1436.2 1446.62 1436.2 1455.37 Q1436.2 1464.1 1433.12 1468.71 Q1430.06 1473.29 1424.25 1473.29 Q1418.44 1473.29 1415.37 1468.71 Q1412.31 1464.1 1412.31 1455.37 Q1412.31 1446.62 1415.37 1442.04 Q1418.44 1437.43 1424.25 1437.43 Z" fill="#000000" fill-rule="evenodd" fill-opacity="1" /><path clip-path="url(#clip720)" d="M1444.42 1466.74 L1449.3 1466.74 L1449.3 1472.62 L1444.42 1472.62 L1444.42 1466.74 Z" fill="#000000" fill-rule="evenodd" fill-opacity="1" /><path clip-path="url(#clip720)" d="M1469.49 1441.14 Q1465.87 1441.14 1464.05 1444.7 Q1462.24 1448.24 1462.24 1455.37 Q1462.24 1462.48 1464.05 1466.05 Q1465.87 1469.59 1469.49 1469.59 Q1473.12 1469.59 1474.93 1466.05 Q1476.75 1462.48 1476.75 1455.37 Q1476.75 1448.24 1474.93 1444.7 Q1473.12 1441.14 1469.49 1441.14 M1469.49 1437.43 Q1475.3 1437.43 1478.35 1442.04 Q1481.43 1446.62 1481.43 1455.37 Q1481.43 1464.1 1478.35 1468.71 Q1475.3 1473.29 1469.49 1473.29 Q1463.68 1473.29 1460.6 1468.71 Q1457.54 1464.1 1457.54 1455.37 Q1457.54 1446.62 1460.6 1442.04 Q1463.68 1437.43 1469.49 1437.43 Z" fill="#000000" fill-rule="evenodd" fill-opacity="1" /><path clip-path="url(#clip720)" d="M1747.24 1468.68 L1763.56 1468.68 L1763.56 1472.62 L1741.61 1472.62 L1741.61 1468.68 Q1744.27 1465.93 1748.86 1461.3 Q1753.46 1456.65 1754.64 1455.31 Q1756.89 1452.78 1757.77 1451.05 Q1758.67 1449.29 1758.67 1447.6 Q1758.67 1444.84 1756.73 1443.11 Q1754.81 1441.37 1751.7 1441.37 Q1749.51 1441.37 1747.05 1442.13 Q1744.62 1442.9 1741.84 1444.45 L1741.84 1439.73 Q1744.67 1438.59 1747.12 1438.01 Q1749.58 1437.43 1751.61 1437.43 Q1756.98 1437.43 1760.18 1440.12 Q1763.37 1442.81 1763.37 1447.3 Q1763.37 1449.43 1762.56 1451.35 Q1761.77 1453.24 1759.67 1455.84 Q1759.09 1456.51 1755.99 1459.73 Q1752.89 1462.92 1747.24 1468.68 Z" fill="#000000" fill-rule="evenodd" fill-opacity="1" /><path clip-path="url(#clip720)" d="M1777.4 1468.68 L1793.72 1468.68 L1793.72 1472.62 L1771.77 1472.62 L1771.77 1468.68 Q1774.44 1465.93 1779.02 1461.3 Q1783.63 1456.65 1784.81 1455.31 Q1787.05 1452.78 1787.93 1451.05 Q1788.83 1449.29 1788.83 1447.6 Q1788.83 1444.84 1786.89 1443.11 Q1784.97 1441.37 1781.87 1441.37 Q1779.67 1441.37 1777.21 1442.13 Q1774.78 1442.9 1772.01 1444.45 L1772.01 1439.73 Q1774.83 1438.59 1777.28 1438.01 Q1779.74 1437.43 1781.77 1437.43 Q1787.14 1437.43 1790.34 1440.12 Q1793.53 1442.81 1793.53 1447.3 Q1793.53 1449.43 1792.72 1451.35 Q1791.94 1453.24 1789.83 1455.84 Q1789.25 1456.51 1786.15 1459.73 Q1783.05 1462.92 1777.4 1468.68 Z" fill="#000000" fill-rule="evenodd" fill-opacity="1" /><path clip-path="url(#clip720)" d="M1803.53 1466.74 L1808.42 1466.74 L1808.42 1472.62 L1803.53 1472.62 L1803.53 1466.74 Z" fill="#000000" fill-rule="evenodd" fill-opacity="1" /><path clip-path="url(#clip720)" d="M1818.65 1438.06 L1837.01 1438.06 L1837.01 1442 L1822.93 1442 L1822.93 1450.47 Q1823.95 1450.12 1824.97 1449.96 Q1825.99 1449.77 1827.01 1449.77 Q1832.79 1449.77 1836.17 1452.94 Q1839.55 1456.12 1839.55 1461.53 Q1839.55 1467.11 1836.08 1470.21 Q1832.61 1473.29 1826.29 1473.29 Q1824.11 1473.29 1821.84 1472.92 Q1819.6 1472.55 1817.19 1471.81 L1817.19 1467.11 Q1819.27 1468.24 1821.5 1468.8 Q1823.72 1469.36 1826.2 1469.36 Q1830.2 1469.36 1832.54 1467.25 Q1834.88 1465.14 1834.88 1461.53 Q1834.88 1457.92 1832.54 1455.81 Q1830.2 1453.71 1826.2 1453.71 Q1824.32 1453.71 1822.45 1454.12 Q1820.59 1454.54 1818.65 1455.42 L1818.65 1438.06 Z" fill="#000000" fill-rule="evenodd" fill-opacity="1" /><path clip-path="url(#clip720)" d="M2105.36 1468.68 L2121.68 1468.68 L2121.68 1472.62 L2099.73 1472.62 L2099.73 1468.68 Q2102.4 1465.93 2106.98 1461.3 Q2111.59 1456.65 2112.77 1455.31 Q2115.01 1452.78 2115.89 1451.05 Q2116.79 1449.29 2116.79 1447.6 Q2116.79 1444.84 2114.85 1443.11 Q2112.93 1441.37 2109.83 1441.37 Q2107.63 1441.37 2105.17 1442.13 Q2102.74 1442.9 2099.97 1444.45 L2099.97 1439.73 Q2102.79 1438.59 2105.24 1438.01 Q2107.7 1437.43 2109.73 1437.43 Q2115.1 1437.43 2118.3 1440.12 Q2121.49 1442.81 2121.49 1447.3 Q2121.49 1449.43 2120.68 1451.35 Q2119.9 1453.24 2117.79 1455.84 Q2117.21 1456.51 2114.11 1459.73 Q2111.01 1462.92 2105.36 1468.68 Z" fill="#000000" fill-rule="evenodd" fill-opacity="1" /><path clip-path="url(#clip720)" d="M2131.54 1438.06 L2149.9 1438.06 L2149.9 1442 L2135.82 1442 L2135.82 1450.47 Q2136.84 1450.12 2137.86 1449.96 Q2138.88 1449.77 2139.9 1449.77 Q2145.68 1449.77 2149.06 1452.94 Q2152.44 1456.12 2152.44 1461.53 Q2152.44 1467.11 2148.97 1470.21 Q2145.5 1473.29 2139.18 1473.29 Q2137 1473.29 2134.73 1472.92 Q2132.49 1472.55 2130.08 1471.81 L2130.08 1467.11 Q2132.16 1468.24 2134.39 1468.8 Q2136.61 1469.36 2139.09 1469.36 Q2143.09 1469.36 2145.43 1467.25 Q2147.77 1465.14 2147.77 1461.53 Q2147.77 1457.92 2145.43 1455.81 Q2143.09 1453.71 2139.09 1453.71 Q2137.21 1453.71 2135.34 1454.12 Q2133.48 1454.54 2131.54 1455.42 L2131.54 1438.06 Z" fill="#000000" fill-rule="evenodd" fill-opacity="1" /><path clip-path="url(#clip720)" d="M2161.65 1466.74 L2166.54 1466.74 L2166.54 1472.62 L2161.65 1472.62 L2161.65 1466.74 Z" fill="#000000" fill-rule="evenodd" fill-opacity="1" /><path clip-path="url(#clip720)" d="M2186.72 1441.14 Q2183.11 1441.14 2181.28 1444.7 Q2179.48 1448.24 2179.48 1455.37 Q2179.48 1462.48 2181.28 1466.05 Q2183.11 1469.59 2186.72 1469.59 Q2190.36 1469.59 2192.16 1466.05 Q2193.99 1462.48 2193.99 1455.37 Q2193.99 1448.24 2192.16 1444.7 Q2190.36 1441.14 2186.72 1441.14 M2186.72 1437.43 Q2192.53 1437.43 2195.59 1442.04 Q2198.67 1446.62 2198.67 1455.37 Q2198.67 1464.1 2195.59 1468.71 Q2192.53 1473.29 2186.72 1473.29 Q2180.91 1473.29 2177.83 1468.71 Q2174.78 1464.1 2174.78 1455.37 Q2174.78 1446.62 2177.83 1442.04 Q2180.91 1437.43 2186.72 1437.43 Z" fill="#000000" fill-rule="evenodd" fill-opacity="1" /><path clip-path="url(#clip720)" d="M1158.5 1575.03 L1158.5 1572.45 Q1162.97 1572.45 1163.99 1571.91 Q1165.02 1571.34 1165.02 1568.63 L1165.02 1524.98 Q1165.02 1521.86 1163.91 1521.09 Q1162.84 1520.31 1158.5 1520.31 L1158.5 1517.68 L1170.55 1516.78 L1170.55 1568.63 Q1170.55 1571.34 1171.61 1571.91 Q1172.68 1572.45 1177.11 1572.45 L1177.11 1575.03 Q1176.08 1575.03 1173.95 1574.95 Q1171.82 1574.86 1170.26 1574.82 Q1168.7 1574.78 1167.8 1574.78 Q1166.82 1574.78 1158.5 1575.03 Z" fill="#000000" fill-rule="evenodd" fill-opacity="1" /><path clip-path="url(#clip720)" d="M1189.74 1570.52 Q1184.2 1565.03 1184.2 1557.07 Q1184.2 1549.08 1189.61 1543.26 Q1195.07 1537.4 1202.85 1537.4 Q1210.48 1537.4 1215.93 1543.22 Q1221.42 1549 1221.42 1557.07 Q1221.42 1564.99 1215.89 1570.48 Q1210.4 1575.97 1202.77 1575.97 Q1195.31 1575.97 1189.74 1570.52 M1191.17 1556.38 Q1191.17 1564.53 1193.3 1568.22 Q1196.58 1573.84 1202.85 1573.84 Q1205.97 1573.84 1208.55 1572.16 Q1211.17 1570.48 1212.61 1567.65 Q1214.45 1563.96 1214.45 1556.38 Q1214.45 1548.3 1212.24 1544.74 Q1208.96 1539.29 1202.77 1539.29 Q1200.07 1539.29 1197.4 1540.72 Q1194.78 1542.11 1193.18 1544.9 Q1191.17 1548.59 1191.17 1556.38 Z" fill="#000000" fill-rule="evenodd" fill-opacity="1" /><path clip-path="url(#clip720)" d="M1222.75 1581.67 Q1222.75 1578.96 1224.8 1576.63 Q1226.89 1574.29 1230.5 1573.27 Q1226.81 1570.93 1226.81 1565.81 Q1226.81 1561.87 1229.39 1558.84 Q1225.46 1555.56 1225.46 1550.19 Q1225.46 1545.23 1229.39 1541.58 Q1233.33 1537.93 1239.06 1537.93 Q1244.11 1537.93 1247.96 1540.97 Q1251.98 1537.03 1256.85 1536.99 Q1259.03 1536.99 1260.05 1538.34 Q1261.12 1539.69 1261.12 1541.13 Q1261.12 1542.4 1260.3 1543.02 Q1259.52 1543.63 1258.7 1543.63 Q1257.67 1543.63 1256.94 1542.97 Q1256.24 1542.28 1256.24 1541.21 Q1256.24 1539.45 1257.59 1538.92 Q1257.35 1538.83 1256.77 1538.83 Q1252.67 1538.83 1249.19 1542.11 Q1252.63 1545.31 1252.63 1550.27 Q1252.63 1555.23 1248.7 1558.88 Q1244.76 1562.53 1239.06 1562.53 Q1234.35 1562.53 1230.74 1559.9 Q1229.31 1561.58 1229.31 1563.88 Q1229.31 1565.97 1230.58 1567.61 Q1231.85 1569.25 1233.78 1569.49 Q1234.35 1569.58 1240.05 1569.58 Q1243.41 1569.58 1245.25 1569.66 Q1247.1 1569.74 1249.72 1570.31 Q1252.39 1570.85 1254.48 1571.91 Q1259.93 1574.95 1259.97 1581.5 Q1259.97 1586.3 1254.43 1589.29 Q1248.94 1592.33 1241.32 1592.33 Q1233.61 1592.33 1228.16 1589.25 Q1222.75 1586.22 1222.75 1581.67 M1227.14 1581.67 Q1227.14 1585.11 1231.19 1587.73 Q1235.25 1590.4 1241.4 1590.4 Q1247.43 1590.4 1251.48 1587.78 Q1255.58 1585.19 1255.58 1581.67 Q1255.58 1579.17 1254.15 1577.57 Q1252.71 1575.97 1249.76 1575.31 Q1246.85 1574.7 1244.8 1574.58 Q1242.75 1574.45 1238.98 1574.45 L1234.02 1574.45 Q1231.15 1574.62 1229.14 1576.71 Q1227.14 1578.8 1227.14 1581.67 M1231.73 1550.27 Q1231.73 1560.6 1239.06 1560.6 Q1242.75 1560.6 1245.01 1557.24 Q1246.36 1554.98 1246.36 1550.19 Q1246.36 1539.86 1239.06 1539.86 Q1235.37 1539.86 1233.08 1543.22 Q1231.73 1545.47 1231.73 1550.27 Z" fill="#000000" fill-rule="evenodd" fill-opacity="1" /><path clip-path="url(#clip720)" d="M1269.69 1598.29 Q1269.69 1597.22 1269.78 1596.91 Q1269.9 1596.59 1270.35 1596.1 L1281.63 1583.54 Q1287.8 1576.59 1287.8 1570.54 Q1287.8 1566.61 1285.73 1563.8 Q1283.7 1560.98 1279.94 1560.98 Q1277.36 1560.98 1275.17 1562.56 Q1272.99 1564.14 1271.99 1566.95 Q1272.16 1566.9 1272.76 1566.9 Q1274.23 1566.9 1275.03 1567.81 Q1275.86 1568.73 1275.86 1569.97 Q1275.86 1571.54 1274.83 1572.32 Q1273.83 1573.06 1272.82 1573.06 Q1272.42 1573.06 1271.88 1572.98 Q1271.36 1572.89 1270.53 1572.09 Q1269.69 1571.26 1269.69 1569.79 Q1269.69 1565.69 1272.79 1562.42 Q1275.92 1559.15 1280.68 1559.15 Q1286.08 1559.15 1289.61 1562.36 Q1293.16 1565.55 1293.16 1570.54 Q1293.16 1572.29 1292.62 1573.9 Q1292.1 1575.47 1291.39 1576.71 Q1290.7 1577.94 1288.8 1579.92 Q1286.91 1581.9 1285.39 1583.31 Q1283.87 1584.71 1280.45 1587.7 L1274.23 1593.75 L1284.82 1593.75 Q1289.98 1593.75 1290.38 1593.29 Q1290.96 1592.46 1291.67 1588.07 L1293.16 1588.07 L1291.5 1598.29 L1269.69 1598.29 Z" fill="#000000" fill-rule="evenodd" fill-opacity="1" /><path clip-path="url(#clip720)" d="M1301.9 1593.43 L1301.9 1515.27 Q1301.9 1512.15 1303.58 1512.15 Q1305.26 1512.15 1305.26 1514.65 L1305.26 1592.82 Q1305.26 1595.93 1303.58 1595.93 Q1301.9 1595.93 1301.9 1593.43 Z" fill="#000000" fill-rule="evenodd" fill-opacity="1" /><path clip-path="url(#clip720)" d="M1379.59 1518.71 Q1379.51 1520.23 1378.48 1520.31 Q1376.93 1520.39 1375.98 1520.59 Q1375.04 1520.76 1373.56 1521.37 Q1372.09 1521.99 1370.65 1523.46 Q1369.22 1524.94 1367.74 1527.28 L1337.53 1575.36 Q1337 1576.26 1336.55 1576.54 Q1336.14 1576.87 1335.2 1576.87 Q1334.34 1576.87 1334.01 1576.5 Q1333.68 1576.18 1333.52 1574.95 L1326.88 1523.14 Q1326.75 1522.19 1326.63 1521.78 Q1326.51 1521.37 1326.02 1520.96 Q1325.57 1520.55 1324.58 1520.43 Q1323.6 1520.31 1321.84 1520.31 Q1321.02 1520.31 1320.65 1520.27 Q1320.32 1520.23 1320.03 1520.02 Q1319.75 1519.77 1319.75 1519.28 Q1319.75 1518.54 1320.03 1518.18 Q1320.36 1517.77 1320.61 1517.72 Q1320.89 1517.68 1321.34 1517.68 Q1322.04 1517.68 1323.56 1517.77 Q1325.07 1517.85 1325.85 1517.85 Q1326.59 1517.85 1328.15 1517.89 Q1329.71 1517.93 1330.48 1517.93 Q1332.21 1517.93 1335.69 1517.81 Q1339.22 1517.68 1340.9 1517.68 Q1342.04 1517.68 1342.04 1518.63 Q1342.04 1519.77 1341.55 1520.06 Q1341.06 1520.31 1339.95 1520.31 Q1337.17 1520.31 1335.65 1521 Q1334.17 1521.7 1334.17 1522.81 L1339.87 1567.24 L1365.65 1526.25 Q1366.92 1524.32 1366.92 1523.05 Q1366.92 1520.59 1363.03 1520.31 Q1361.72 1520.31 1361.72 1519.28 Q1361.72 1518.54 1362.05 1518.18 Q1362.37 1517.77 1362.62 1517.72 Q1362.91 1517.68 1363.32 1517.68 Q1364.67 1517.68 1367.42 1517.81 Q1370.2 1517.93 1371.6 1517.93 Q1372.74 1517.93 1375.08 1517.81 Q1377.42 1517.68 1378.48 1517.68 Q1379.59 1517.68 1379.59 1518.71 Z" fill="#000000" fill-rule="evenodd" fill-opacity="1" /><path clip-path="url(#clip720)" d="M1390.35 1593.43 L1390.35 1515.27 Q1390.35 1512.15 1392.03 1512.15 Q1393.71 1512.15 1393.71 1514.65 L1393.71 1592.82 Q1393.71 1595.93 1392.03 1595.93 Q1390.35 1595.93 1390.35 1593.43 Z" fill="#000000" fill-rule="evenodd" fill-opacity="1" /><polyline clip-path="url(#clip720)" style="stroke:#000000; stroke-linecap:butt; stroke-linejoin:round; stroke-width:4; stroke-opacity:1; fill:none" points="
  230.743,1410.22 230.743,47.2441 
  "/>
<polyline clip-path="url(#clip720)" style="stroke:#000000; stroke-linecap:butt; stroke-linejoin:round; stroke-width:4; stroke-opacity:1; fill:none" points="
  230.743,1371.65 249.641,1371.65 
  "/>
<polyline clip-path="url(#clip720)" style="stroke:#000000; stroke-linecap:butt; stroke-linejoin:round; stroke-width:4; stroke-opacity:1; fill:none" points="
  230.743,1132.94 249.641,1132.94 
  "/>
<polyline clip-path="url(#clip720)" style="stroke:#000000; stroke-linecap:butt; stroke-linejoin:round; stroke-width:4; stroke-opacity:1; fill:none" points="
  230.743,894.241 249.641,894.241 
  "/>
<polyline clip-path="url(#clip720)" style="stroke:#000000; stroke-linecap:butt; stroke-linejoin:round; stroke-width:4; stroke-opacity:1; fill:none" points="
  230.743,655.539 249.641,655.539 
  "/>
<polyline clip-path="url(#clip720)" style="stroke:#000000; stroke-linecap:butt; stroke-linejoin:round; stroke-width:4; stroke-opacity:1; fill:none" points="
  230.743,416.837 249.641,416.837 
  "/>
<polyline clip-path="url(#clip720)" style="stroke:#000000; stroke-linecap:butt; stroke-linejoin:round; stroke-width:4; stroke-opacity:1; fill:none" points="
  230.743,178.135 249.641,178.135 
  "/>
<path clip-path="url(#clip720)" d="M128.378 1384.99 L136.016 1384.99 L136.016 1358.62 L127.706 1360.29 L127.706 1356.03 L135.97 1354.37 L140.646 1354.37 L140.646 1384.99 L148.285 1384.99 L148.285 1388.93 L128.378 1388.93 L128.378 1384.99 Z" fill="#000000" fill-rule="evenodd" fill-opacity="1" /><path clip-path="url(#clip720)" d="M157.729 1383.05 L162.613 1383.05 L162.613 1388.93 L157.729 1388.93 L157.729 1383.05 Z" fill="#000000" fill-rule="evenodd" fill-opacity="1" /><path clip-path="url(#clip720)" d="M182.799 1357.44 Q179.187 1357.44 177.359 1361.01 Q175.553 1364.55 175.553 1371.68 Q175.553 1378.79 177.359 1382.35 Q179.187 1385.89 182.799 1385.89 Q186.433 1385.89 188.238 1382.35 Q190.067 1378.79 190.067 1371.68 Q190.067 1364.55 188.238 1361.01 Q186.433 1357.44 182.799 1357.44 M182.799 1353.74 Q188.609 1353.74 191.664 1358.35 Q194.743 1362.93 194.743 1371.68 Q194.743 1380.41 191.664 1385.01 Q188.609 1389.6 182.799 1389.6 Q176.988 1389.6 173.91 1385.01 Q170.854 1380.41 170.854 1371.68 Q170.854 1362.93 173.91 1358.35 Q176.988 1353.74 182.799 1353.74 Z" fill="#000000" fill-rule="evenodd" fill-opacity="1" /><path clip-path="url(#clip720)" d="M129.604 1146.29 L137.243 1146.29 L137.243 1119.92 L128.933 1121.59 L128.933 1117.33 L137.197 1115.66 L141.873 1115.66 L141.873 1146.29 L149.512 1146.29 L149.512 1150.22 L129.604 1150.22 L129.604 1146.29 Z" fill="#000000" fill-rule="evenodd" fill-opacity="1" /><path clip-path="url(#clip720)" d="M158.956 1144.34 L163.84 1144.34 L163.84 1150.22 L158.956 1150.22 L158.956 1144.34 Z" fill="#000000" fill-rule="evenodd" fill-opacity="1" /><path clip-path="url(#clip720)" d="M174.836 1146.29 L182.474 1146.29 L182.474 1119.92 L174.164 1121.59 L174.164 1117.33 L182.428 1115.66 L187.104 1115.66 L187.104 1146.29 L194.743 1146.29 L194.743 1150.22 L174.836 1150.22 L174.836 1146.29 Z" fill="#000000" fill-rule="evenodd" fill-opacity="1" /><path clip-path="url(#clip720)" d="M129.975 907.586 L137.614 907.586 L137.614 881.22 L129.303 882.887 L129.303 878.627 L137.567 876.961 L142.243 876.961 L142.243 907.586 L149.882 907.586 L149.882 911.521 L129.975 911.521 L129.975 907.586 Z" fill="#000000" fill-rule="evenodd" fill-opacity="1" /><path clip-path="url(#clip720)" d="M159.326 905.641 L164.211 905.641 L164.211 911.521 L159.326 911.521 L159.326 905.641 Z" fill="#000000" fill-rule="evenodd" fill-opacity="1" /><path clip-path="url(#clip720)" d="M178.424 907.586 L194.743 907.586 L194.743 911.521 L172.799 911.521 L172.799 907.586 Q175.461 904.831 180.044 900.201 Q184.65 895.549 185.831 894.206 Q188.076 891.683 188.956 889.947 Q189.859 888.188 189.859 886.498 Q189.859 883.743 187.914 882.007 Q185.993 880.271 182.891 880.271 Q180.692 880.271 178.238 881.035 Q175.808 881.799 173.03 883.35 L173.03 878.627 Q175.854 877.493 178.308 876.915 Q180.762 876.336 182.799 876.336 Q188.169 876.336 191.363 879.021 Q194.558 881.706 194.558 886.197 Q194.558 888.327 193.748 890.248 Q192.961 892.146 190.854 894.739 Q190.275 895.41 187.174 898.627 Q184.072 901.822 178.424 907.586 Z" fill="#000000" fill-rule="evenodd" fill-opacity="1" /><path clip-path="url(#clip720)" d="M129.026 668.884 L136.665 668.884 L136.665 642.518 L128.354 644.185 L128.354 639.925 L136.618 638.259 L141.294 638.259 L141.294 668.884 L148.933 668.884 L148.933 672.819 L129.026 672.819 L129.026 668.884 Z" fill="#000000" fill-rule="evenodd" fill-opacity="1" /><path clip-path="url(#clip720)" d="M158.377 666.939 L163.262 666.939 L163.262 672.819 L158.377 672.819 L158.377 666.939 Z" fill="#000000" fill-rule="evenodd" fill-opacity="1" /><path clip-path="url(#clip720)" d="M187.613 654.185 Q190.97 654.902 192.845 657.171 Q194.743 659.439 194.743 662.772 Q194.743 667.888 191.224 670.689 Q187.706 673.49 181.224 673.49 Q179.049 673.49 176.734 673.05 Q174.442 672.634 171.988 671.777 L171.988 667.263 Q173.933 668.397 176.248 668.976 Q178.562 669.555 181.086 669.555 Q185.484 669.555 187.775 667.819 Q190.09 666.083 190.09 662.772 Q190.09 659.717 187.937 658.004 Q185.808 656.268 181.988 656.268 L177.961 656.268 L177.961 652.425 L182.174 652.425 Q185.623 652.425 187.451 651.06 Q189.28 649.671 189.28 647.078 Q189.28 644.416 187.382 643.004 Q185.507 641.569 181.988 641.569 Q180.067 641.569 177.868 641.986 Q175.669 642.402 173.03 643.282 L173.03 639.115 Q175.692 638.374 178.007 638.004 Q180.345 637.634 182.405 637.634 Q187.729 637.634 190.831 640.064 Q193.933 642.472 193.933 646.592 Q193.933 649.462 192.289 651.453 Q190.646 653.421 187.613 654.185 Z" fill="#000000" fill-rule="evenodd" fill-opacity="1" /><path clip-path="url(#clip720)" d="M127.891 430.181 L135.53 430.181 L135.53 403.816 L127.22 405.483 L127.22 401.223 L135.484 399.557 L140.16 399.557 L140.16 430.181 L147.799 430.181 L147.799 434.117 L127.891 434.117 L127.891 430.181 Z" fill="#000000" fill-rule="evenodd" fill-opacity="1" /><path clip-path="url(#clip720)" d="M157.243 428.237 L162.127 428.237 L162.127 434.117 L157.243 434.117 L157.243 428.237 Z" fill="#000000" fill-rule="evenodd" fill-opacity="1" /><path clip-path="url(#clip720)" d="M185.16 403.631 L173.354 422.08 L185.16 422.08 L185.16 403.631 M183.933 399.557 L189.812 399.557 L189.812 422.08 L194.743 422.08 L194.743 425.969 L189.812 425.969 L189.812 434.117 L185.16 434.117 L185.16 425.969 L169.558 425.969 L169.558 421.455 L183.933 399.557 Z" fill="#000000" fill-rule="evenodd" fill-opacity="1" /><path clip-path="url(#clip720)" d="M129.373 191.479 L137.012 191.479 L137.012 165.114 L128.702 166.78 L128.702 162.521 L136.965 160.855 L141.641 160.855 L141.641 191.479 L149.28 191.479 L149.28 195.415 L129.373 195.415 L129.373 191.479 Z" fill="#000000" fill-rule="evenodd" fill-opacity="1" /><path clip-path="url(#clip720)" d="M158.725 189.535 L163.609 189.535 L163.609 195.415 L158.725 195.415 L158.725 189.535 Z" fill="#000000" fill-rule="evenodd" fill-opacity="1" /><path clip-path="url(#clip720)" d="M173.84 160.855 L192.197 160.855 L192.197 164.79 L178.123 164.79 L178.123 173.262 Q179.141 172.915 180.16 172.753 Q181.178 172.567 182.197 172.567 Q187.984 172.567 191.363 175.739 Q194.743 178.91 194.743 184.327 Q194.743 189.905 191.271 193.007 Q187.799 196.086 181.479 196.086 Q179.303 196.086 177.035 195.715 Q174.789 195.345 172.382 194.604 L172.382 189.905 Q174.465 191.04 176.687 191.595 Q178.91 192.151 181.387 192.151 Q185.391 192.151 187.729 190.044 Q190.067 187.938 190.067 184.327 Q190.067 180.716 187.729 178.609 Q185.391 176.503 181.387 176.503 Q179.512 176.503 177.637 176.919 Q175.785 177.336 173.84 178.216 L173.84 160.855 Z" fill="#000000" fill-rule="evenodd" fill-opacity="1" /><path clip-path="url(#clip720)" d="M32.0609 706.184 Q32.3888 706.184 35.2581 707.783 Q40.5457 710.447 48.6206 713.849 Q56.6955 717.251 62.6799 719.178 Q64.1145 719.588 65.959 719.875 Q71.6156 720.613 80.3873 722.99 Q83.1335 723.81 84.2812 724.343 Q85.4289 724.875 85.4289 725.654 Q85.4289 726.761 83.9123 726.761 Q82.3957 726.761 76.7392 725.367 Q71.0827 723.933 65.8771 722.375 Q63.0078 721.391 57.6382 721.391 Q55.9167 721.391 54.3591 721.473 Q52.8015 721.555 50.5471 721.883 Q48.2927 722.211 46.4481 722.744 Q44.6036 723.277 42.6771 724.302 Q40.7096 725.326 39.398 726.72 Q38.0453 728.114 37.1846 730.245 Q36.3238 732.336 36.3238 734.959 Q36.3238 735.615 36.4058 736.434 Q36.4468 737.213 36.9796 739.099 Q37.5125 740.943 38.4552 742.501 Q39.357 744.058 41.3655 745.739 Q43.3739 747.42 46.0792 748.321 L46.4891 748.649 Q46.4891 749.182 46.4891 749.469 Q46.4481 749.715 46.2432 750.002 Q46.0382 750.248 45.6693 750.248 Q44.8086 750.248 43.087 749.592 Q41.3655 748.895 39.152 747.502 Q36.9386 746.067 34.9711 744.222 Q33.0037 742.337 31.651 739.591 Q30.2984 736.844 30.2984 733.893 Q30.2984 726.31 39.5209 722.703 Q47.3499 719.547 56.6545 719.26 Q40.1358 712.702 31.815 708.193 Q31.2001 707.947 31.2001 707.209 Q31.2411 706.184 32.0609 706.184 Z" fill="#000000" fill-rule="evenodd" fill-opacity="1" /><polyline clip-path="url(#clip723)" style="stroke:#000000; stroke-linecap:butt; stroke-linejoin:round; stroke-width:4; stroke-opacity:1; fill:none" points="
  2005.85,148.937 2005.85,146.417 
  "/>
<polyline clip-path="url(#clip723)" style="stroke:#000000; stroke-linecap:butt; stroke-linejoin:round; stroke-width:4; stroke-opacity:1; fill:none" points="
  290.8,456.388 290.8,429.119 
  "/>
<polyline clip-path="url(#clip723)" style="stroke:#000000; stroke-linecap:butt; stroke-linejoin:round; stroke-width:4; stroke-opacity:1; fill:none" points="
  1719.06,162.868 1719.06,159.417 
  "/>
<polyline clip-path="url(#clip723)" style="stroke:#000000; stroke-linecap:butt; stroke-linejoin:round; stroke-width:4; stroke-opacity:1; fill:none" points="
  1145.88,232.82 1145.88,225.641 
  "/>
<polyline clip-path="url(#clip723)" style="stroke:#000000; stroke-linecap:butt; stroke-linejoin:round; stroke-width:4; stroke-opacity:1; fill:none" points="
  574.499,404.913 574.499,387.878 
  "/>
<polyline clip-path="url(#clip723)" style="stroke:#000000; stroke-linecap:butt; stroke-linejoin:round; stroke-width:4; stroke-opacity:1; fill:none" points="
  1432.37,197.21 1432.37,192.313 
  "/>
<polyline clip-path="url(#clip723)" style="stroke:#000000; stroke-linecap:butt; stroke-linejoin:round; stroke-width:4; stroke-opacity:1; fill:none" points="
  2292.7,87.7205 2292.7,85.8189 
  "/>
<polyline clip-path="url(#clip723)" style="stroke:#000000; stroke-linecap:butt; stroke-linejoin:round; stroke-width:4; stroke-opacity:1; fill:none" points="
  859.787,319.819 859.787,308.763 
  "/>
<line clip-path="url(#clip723)" x1="2021.85" y1="148.937" x2="1989.85" y2="148.937" style="stroke:#000000; stroke-width:3.2; stroke-opacity:1"/>
<line clip-path="url(#clip723)" x1="2021.85" y1="146.417" x2="1989.85" y2="146.417" style="stroke:#000000; stroke-width:3.2; stroke-opacity:1"/>
<line clip-path="url(#clip723)" x1="306.8" y1="456.388" x2="274.8" y2="456.388" style="stroke:#000000; stroke-width:3.2; stroke-opacity:1"/>
<line clip-path="url(#clip723)" x1="306.8" y1="429.119" x2="274.8" y2="429.119" style="stroke:#000000; stroke-width:3.2; stroke-opacity:1"/>
<line clip-path="url(#clip723)" x1="1735.06" y1="162.868" x2="1703.06" y2="162.868" style="stroke:#000000; stroke-width:3.2; stroke-opacity:1"/>
<line clip-path="url(#clip723)" x1="1735.06" y1="159.417" x2="1703.06" y2="159.417" style="stroke:#000000; stroke-width:3.2; stroke-opacity:1"/>
<line clip-path="url(#clip723)" x1="1161.88" y1="232.82" x2="1129.88" y2="232.82" style="stroke:#000000; stroke-width:3.2; stroke-opacity:1"/>
<line clip-path="url(#clip723)" x1="1161.88" y1="225.641" x2="1129.88" y2="225.641" style="stroke:#000000; stroke-width:3.2; stroke-opacity:1"/>
<line clip-path="url(#clip723)" x1="590.499" y1="404.913" x2="558.499" y2="404.913" style="stroke:#000000; stroke-width:3.2; stroke-opacity:1"/>
<line clip-path="url(#clip723)" x1="590.499" y1="387.878" x2="558.499" y2="387.878" style="stroke:#000000; stroke-width:3.2; stroke-opacity:1"/>
<line clip-path="url(#clip723)" x1="1448.37" y1="197.21" x2="1416.37" y2="197.21" style="stroke:#000000; stroke-width:3.2; stroke-opacity:1"/>
<line clip-path="url(#clip723)" x1="1448.37" y1="192.313" x2="1416.37" y2="192.313" style="stroke:#000000; stroke-width:3.2; stroke-opacity:1"/>
<line clip-path="url(#clip723)" x1="2308.7" y1="87.7205" x2="2276.7" y2="87.7205" style="stroke:#000000; stroke-width:3.2; stroke-opacity:1"/>
<line clip-path="url(#clip723)" x1="2308.7" y1="85.8189" x2="2276.7" y2="85.8189" style="stroke:#000000; stroke-width:3.2; stroke-opacity:1"/>
<line clip-path="url(#clip723)" x1="875.787" y1="319.819" x2="843.787" y2="319.819" style="stroke:#000000; stroke-width:3.2; stroke-opacity:1"/>
<line clip-path="url(#clip723)" x1="875.787" y1="308.763" x2="843.787" y2="308.763" style="stroke:#000000; stroke-width:3.2; stroke-opacity:1"/>
<line clip-path="url(#clip723)" x1="2021.85" y1="147.677" x2="1989.85" y2="147.677" style="stroke:#000000; stroke-width:3.2; stroke-opacity:1"/>
<line clip-path="url(#clip723)" x1="306.8" y1="442.754" x2="274.8" y2="442.754" style="stroke:#000000; stroke-width:3.2; stroke-opacity:1"/>
<line clip-path="url(#clip723)" x1="1735.06" y1="161.142" x2="1703.06" y2="161.142" style="stroke:#000000; stroke-width:3.2; stroke-opacity:1"/>
<line clip-path="url(#clip723)" x1="1161.88" y1="229.23" x2="1129.88" y2="229.23" style="stroke:#000000; stroke-width:3.2; stroke-opacity:1"/>
<line clip-path="url(#clip723)" x1="590.499" y1="396.396" x2="558.499" y2="396.396" style="stroke:#000000; stroke-width:3.2; stroke-opacity:1"/>
<line clip-path="url(#clip723)" x1="1448.37" y1="194.762" x2="1416.37" y2="194.762" style="stroke:#000000; stroke-width:3.2; stroke-opacity:1"/>
<line clip-path="url(#clip723)" x1="2308.7" y1="86.7697" x2="2276.7" y2="86.7697" style="stroke:#000000; stroke-width:3.2; stroke-opacity:1"/>
<line clip-path="url(#clip723)" x1="875.787" y1="314.291" x2="843.787" y2="314.291" style="stroke:#000000; stroke-width:3.2; stroke-opacity:1"/>
<polyline clip-path="url(#clip723)" style="stroke:#808080; stroke-linecap:butt; stroke-linejoin:round; stroke-width:4; stroke-opacity:1; fill:none" stroke-dasharray="16, 10" points="
  -1891.27,1371.65 4474.77,1371.65 
  "/>
<polyline clip-path="url(#clip723)" style="stroke:#808080; stroke-linecap:butt; stroke-linejoin:round; stroke-width:4; stroke-opacity:1; fill:none" stroke-dasharray="16, 10" points="
  -1891.27,1371.65 4474.77,1371.65 
  "/>
</svg>
