<?xml version="1.0" encoding="UTF-8"?>
<svg xmlns="http://www.w3.org/2000/svg" xmlns:xlink="http://www.w3.org/1999/xlink" width="123.177pt" height="123.177pt" viewBox="0 0 123.177 123.177" version="1.1">
<defs>
<clipPath id="clip1">
  <path d="M 0 107 L 16 107 L 16 123.175781 L 0 123.175781 Z M 0 107 "/>
</clipPath>
<clipPath id="clip2">
  <path d="M 22 107 L 44 107 L 44 123.175781 L 22 123.175781 Z M 22 107 "/>
</clipPath>
<clipPath id="clip3">
  <path d="M 51 107 L 72 107 L 72 123.175781 L 51 123.175781 Z M 51 107 "/>
</clipPath>
<clipPath id="clip4">
  <path d="M 79 107 L 101 107 L 101 123.175781 L 79 123.175781 Z M 79 107 "/>
</clipPath>
<clipPath id="clip5">
  <path d="M 107 107 L 123.175781 107 L 123.175781 123.175781 L 107 123.175781 Z M 107 107 "/>
</clipPath>
<clipPath id="clip6">
  <path d="M 107 79 L 123.175781 79 L 123.175781 101 L 107 101 Z M 107 79 "/>
</clipPath>
<clipPath id="clip7">
  <path d="M 107 51 L 123.175781 51 L 123.175781 72 L 107 72 Z M 107 51 "/>
</clipPath>
<clipPath id="clip8">
  <path d="M 107 22 L 123.175781 22 L 123.175781 44 L 107 44 Z M 107 22 "/>
</clipPath>
<clipPath id="clip9">
  <path d="M 107 0 L 123.175781 0 L 123.175781 16 L 107 16 Z M 107 0 "/>
</clipPath>
</defs>
<g id="surface1">
<g clip-path="url(#clip1)" clip-rule="nonzero">
<path style="fill:none;stroke-width:0.3985;stroke-linecap:butt;stroke-linejoin:miter;stroke:rgb(0%,0%,0%);stroke-opacity:1;stroke-miterlimit:10;" d="M 4.694844 -0.00025 C 4.694844 2.5935 2.593281 4.695062 -0.00046875 4.695062 C -2.594219 4.695062 -4.695781 2.5935 -4.695781 -0.00025 C -4.695781 -2.594 -2.594219 -4.695563 -0.00046875 -4.695563 C 2.593281 -4.695563 4.694844 -2.594 4.694844 -0.00025 Z M 4.694844 -0.00025 " transform="matrix(1,0,0,-1,4.895,118.281)"/>
</g>
<path style="fill:none;stroke-width:0.3985;stroke-linecap:butt;stroke-linejoin:miter;stroke:rgb(0%,0%,0%);stroke-opacity:1;stroke-miterlimit:10;" d="M 4.694844 28.347406 C 4.694844 30.941156 2.593281 33.042719 -0.00046875 33.042719 C -2.594219 33.042719 -4.695781 30.941156 -4.695781 28.347406 C -4.695781 25.753656 -2.594219 23.652094 -0.00046875 23.652094 C 2.593281 23.652094 4.694844 25.753656 4.694844 28.347406 Z M 4.694844 28.347406 " transform="matrix(1,0,0,-1,4.895,118.281)"/>
<path style="fill:none;stroke-width:0.3985;stroke-linecap:butt;stroke-linejoin:miter;stroke:rgb(0%,0%,0%);stroke-opacity:1;stroke-miterlimit:10;" d="M 4.694844 56.695062 C 4.694844 59.288812 2.593281 61.390375 -0.00046875 61.390375 C -2.594219 61.390375 -4.695781 59.288812 -4.695781 56.695062 C -4.695781 54.101312 -2.594219 51.995844 -0.00046875 51.995844 C 2.593281 51.995844 4.694844 54.101312 4.694844 56.695062 Z M 4.694844 56.695062 " transform="matrix(1,0,0,-1,4.895,118.281)"/>
<path style="fill:none;stroke-width:0.3985;stroke-linecap:butt;stroke-linejoin:miter;stroke:rgb(0%,0%,0%);stroke-opacity:1;stroke-miterlimit:10;" d="M 4.694844 85.038812 C 4.694844 87.632562 2.593281 89.738031 -0.00046875 89.738031 C -2.594219 89.738031 -4.695781 87.632562 -4.695781 85.038812 C -4.695781 82.445062 -2.594219 80.3435 -0.00046875 80.3435 C 2.593281 80.3435 4.694844 82.445062 4.694844 85.038812 Z M 4.694844 85.038812 " transform="matrix(1,0,0,-1,4.895,118.281)"/>
<path style="fill:none;stroke-width:0.3985;stroke-linecap:butt;stroke-linejoin:miter;stroke:rgb(0%,0%,0%);stroke-opacity:1;stroke-miterlimit:10;" d="M 4.694844 113.386469 C 4.694844 115.980219 2.593281 118.081781 -0.00046875 118.081781 C -2.594219 118.081781 -4.695781 115.980219 -4.695781 113.386469 C -4.695781 110.792719 -2.594219 108.691156 -0.00046875 108.691156 C 2.593281 108.691156 4.694844 110.792719 4.694844 113.386469 Z M 4.694844 113.386469 " transform="matrix(1,0,0,-1,4.895,118.281)"/>
<g clip-path="url(#clip2)" clip-rule="nonzero">
<path style="fill:none;stroke-width:0.3985;stroke-linecap:butt;stroke-linejoin:miter;stroke:rgb(0%,0%,0%);stroke-opacity:1;stroke-miterlimit:10;" d="M 33.0425 -0.00025 C 33.0425 2.5935 30.940938 4.695062 28.347188 4.695062 C 25.753438 4.695062 23.651875 2.5935 23.651875 -0.00025 C 23.651875 -2.594 25.753438 -4.695563 28.347188 -4.695563 C 30.940938 -4.695563 33.0425 -2.594 33.0425 -0.00025 Z M 33.0425 -0.00025 " transform="matrix(1,0,0,-1,4.895,118.281)"/>
</g>
<path style="fill:none;stroke-width:0.3985;stroke-linecap:butt;stroke-linejoin:miter;stroke:rgb(0%,0%,0%);stroke-opacity:1;stroke-miterlimit:10;" d="M 33.0425 28.347406 C 33.0425 30.941156 30.940938 33.042719 28.347188 33.042719 C 25.753438 33.042719 23.651875 30.941156 23.651875 28.347406 C 23.651875 25.753656 25.753438 23.652094 28.347188 23.652094 C 30.940938 23.652094 33.0425 25.753656 33.0425 28.347406 Z M 33.0425 28.347406 " transform="matrix(1,0,0,-1,4.895,118.281)"/>
<path style="fill:none;stroke-width:0.3985;stroke-linecap:butt;stroke-linejoin:miter;stroke:rgb(0%,0%,0%);stroke-opacity:1;stroke-miterlimit:10;" d="M 33.0425 56.695062 C 33.0425 59.288812 30.940938 61.390375 28.347188 61.390375 C 25.753438 61.390375 23.651875 59.288812 23.651875 56.695062 C 23.651875 54.101312 25.753438 51.995844 28.347188 51.995844 C 30.940938 51.995844 33.0425 54.101312 33.0425 56.695062 Z M 33.0425 56.695062 " transform="matrix(1,0,0,-1,4.895,118.281)"/>
<path style="fill:none;stroke-width:0.3985;stroke-linecap:butt;stroke-linejoin:miter;stroke:rgb(0%,0%,0%);stroke-opacity:1;stroke-miterlimit:10;" d="M 33.0425 85.038812 C 33.0425 87.632562 30.940938 89.738031 28.347188 89.738031 C 25.753438 89.738031 23.651875 87.632562 23.651875 85.038812 C 23.651875 82.445062 25.753438 80.3435 28.347188 80.3435 C 30.940938 80.3435 33.0425 82.445062 33.0425 85.038812 Z M 33.0425 85.038812 " transform="matrix(1,0,0,-1,4.895,118.281)"/>
<path style="fill:none;stroke-width:0.3985;stroke-linecap:butt;stroke-linejoin:miter;stroke:rgb(0%,0%,0%);stroke-opacity:1;stroke-miterlimit:10;" d="M 33.0425 113.386469 C 33.0425 115.980219 30.940938 118.081781 28.347188 118.081781 C 25.753438 118.081781 23.651875 115.980219 23.651875 113.386469 C 23.651875 110.792719 25.753438 108.691156 28.347188 108.691156 C 30.940938 108.691156 33.0425 110.792719 33.0425 113.386469 Z M 33.0425 113.386469 " transform="matrix(1,0,0,-1,4.895,118.281)"/>
<g clip-path="url(#clip3)" clip-rule="nonzero">
<path style="fill:none;stroke-width:0.3985;stroke-linecap:butt;stroke-linejoin:miter;stroke:rgb(0%,0%,0%);stroke-opacity:1;stroke-miterlimit:10;" d="M 61.390156 -0.00025 C 61.390156 2.5935 59.288594 4.695062 56.694844 4.695062 C 54.101094 4.695062 51.995625 2.5935 51.995625 -0.00025 C 51.995625 -2.594 54.101094 -4.695563 56.694844 -4.695563 C 59.288594 -4.695563 61.390156 -2.594 61.390156 -0.00025 Z M 61.390156 -0.00025 " transform="matrix(1,0,0,-1,4.895,118.281)"/>
</g>
<path style="fill:none;stroke-width:0.3985;stroke-linecap:butt;stroke-linejoin:miter;stroke:rgb(0%,0%,0%);stroke-opacity:1;stroke-miterlimit:10;" d="M 61.390156 28.347406 C 61.390156 30.941156 59.288594 33.042719 56.694844 33.042719 C 54.101094 33.042719 51.995625 30.941156 51.995625 28.347406 C 51.995625 25.753656 54.101094 23.652094 56.694844 23.652094 C 59.288594 23.652094 61.390156 25.753656 61.390156 28.347406 Z M 61.390156 28.347406 " transform="matrix(1,0,0,-1,4.895,118.281)"/>
<path style="fill:none;stroke-width:0.3985;stroke-linecap:butt;stroke-linejoin:miter;stroke:rgb(0%,0%,0%);stroke-opacity:1;stroke-miterlimit:10;" d="M 61.390156 56.695062 C 61.390156 59.288812 59.288594 61.390375 56.694844 61.390375 C 54.101094 61.390375 51.995625 59.288812 51.995625 56.695062 C 51.995625 54.101312 54.101094 51.995844 56.694844 51.995844 C 59.288594 51.995844 61.390156 54.101312 61.390156 56.695062 Z M 61.390156 56.695062 " transform="matrix(1,0,0,-1,4.895,118.281)"/>
<path style="fill:none;stroke-width:0.3985;stroke-linecap:butt;stroke-linejoin:miter;stroke:rgb(0%,0%,0%);stroke-opacity:1;stroke-miterlimit:10;" d="M 61.390156 85.038812 C 61.390156 87.632562 59.288594 89.738031 56.694844 89.738031 C 54.101094 89.738031 51.995625 87.632562 51.995625 85.038812 C 51.995625 82.445062 54.101094 80.3435 56.694844 80.3435 C 59.288594 80.3435 61.390156 82.445062 61.390156 85.038812 Z M 61.390156 85.038812 " transform="matrix(1,0,0,-1,4.895,118.281)"/>
<path style="fill:none;stroke-width:0.3985;stroke-linecap:butt;stroke-linejoin:miter;stroke:rgb(0%,0%,0%);stroke-opacity:1;stroke-miterlimit:10;" d="M 61.390156 113.386469 C 61.390156 115.980219 59.288594 118.081781 56.694844 118.081781 C 54.101094 118.081781 51.995625 115.980219 51.995625 113.386469 C 51.995625 110.792719 54.101094 108.691156 56.694844 108.691156 C 59.288594 108.691156 61.390156 110.792719 61.390156 113.386469 Z M 61.390156 113.386469 " transform="matrix(1,0,0,-1,4.895,118.281)"/>
<g clip-path="url(#clip4)" clip-rule="nonzero">
<path style="fill:none;stroke-width:0.3985;stroke-linecap:butt;stroke-linejoin:miter;stroke:rgb(0%,0%,0%);stroke-opacity:1;stroke-miterlimit:10;" d="M 89.737813 -0.00025 C 89.737813 2.5935 87.632344 4.695062 85.038594 4.695062 C 82.444844 4.695062 80.343281 2.5935 80.343281 -0.00025 C 80.343281 -2.594 82.444844 -4.695563 85.038594 -4.695563 C 87.632344 -4.695563 89.737813 -2.594 89.737813 -0.00025 Z M 89.737813 -0.00025 " transform="matrix(1,0,0,-1,4.895,118.281)"/>
</g>
<path style="fill:none;stroke-width:0.3985;stroke-linecap:butt;stroke-linejoin:miter;stroke:rgb(0%,0%,0%);stroke-opacity:1;stroke-miterlimit:10;" d="M 89.737813 28.347406 C 89.737813 30.941156 87.632344 33.042719 85.038594 33.042719 C 82.444844 33.042719 80.343281 30.941156 80.343281 28.347406 C 80.343281 25.753656 82.444844 23.652094 85.038594 23.652094 C 87.632344 23.652094 89.737813 25.753656 89.737813 28.347406 Z M 89.737813 28.347406 " transform="matrix(1,0,0,-1,4.895,118.281)"/>
<path style="fill:none;stroke-width:0.3985;stroke-linecap:butt;stroke-linejoin:miter;stroke:rgb(0%,0%,0%);stroke-opacity:1;stroke-miterlimit:10;" d="M 89.737813 56.695062 C 89.737813 59.288812 87.632344 61.390375 85.038594 61.390375 C 82.444844 61.390375 80.343281 59.288812 80.343281 56.695062 C 80.343281 54.101312 82.444844 51.995844 85.038594 51.995844 C 87.632344 51.995844 89.737813 54.101312 89.737813 56.695062 Z M 89.737813 56.695062 " transform="matrix(1,0,0,-1,4.895,118.281)"/>
<path style="fill:none;stroke-width:0.3985;stroke-linecap:butt;stroke-linejoin:miter;stroke:rgb(0%,0%,0%);stroke-opacity:1;stroke-miterlimit:10;" d="M 89.737813 85.038812 C 89.737813 87.632562 87.632344 89.738031 85.038594 89.738031 C 82.444844 89.738031 80.343281 87.632562 80.343281 85.038812 C 80.343281 82.445062 82.444844 80.3435 85.038594 80.3435 C 87.632344 80.3435 89.737813 82.445062 89.737813 85.038812 Z M 89.737813 85.038812 " transform="matrix(1,0,0,-1,4.895,118.281)"/>
<path style="fill:none;stroke-width:0.3985;stroke-linecap:butt;stroke-linejoin:miter;stroke:rgb(0%,0%,0%);stroke-opacity:1;stroke-miterlimit:10;" d="M 89.737813 113.386469 C 89.737813 115.980219 87.632344 118.081781 85.038594 118.081781 C 82.444844 118.081781 80.343281 115.980219 80.343281 113.386469 C 80.343281 110.792719 82.444844 108.691156 85.038594 108.691156 C 87.632344 108.691156 89.737813 110.792719 89.737813 113.386469 Z M 89.737813 113.386469 " transform="matrix(1,0,0,-1,4.895,118.281)"/>
<g clip-path="url(#clip5)" clip-rule="nonzero">
<path style="fill:none;stroke-width:0.3985;stroke-linecap:butt;stroke-linejoin:miter;stroke:rgb(0%,0%,0%);stroke-opacity:1;stroke-miterlimit:10;" d="M 118.085469 -0.00025 C 118.085469 2.5935 115.98 4.695062 113.38625 4.695062 C 110.7925 4.695062 108.690938 2.5935 108.690938 -0.00025 C 108.690938 -2.594 110.7925 -4.695563 113.38625 -4.695563 C 115.98 -4.695563 118.085469 -2.594 118.085469 -0.00025 Z M 118.085469 -0.00025 " transform="matrix(1,0,0,-1,4.895,118.281)"/>
</g>
<g clip-path="url(#clip6)" clip-rule="nonzero">
<path style="fill:none;stroke-width:0.3985;stroke-linecap:butt;stroke-linejoin:miter;stroke:rgb(0%,0%,0%);stroke-opacity:1;stroke-miterlimit:10;" d="M 118.085469 28.347406 C 118.085469 30.941156 115.98 33.042719 113.38625 33.042719 C 110.7925 33.042719 108.690938 30.941156 108.690938 28.347406 C 108.690938 25.753656 110.7925 23.652094 113.38625 23.652094 C 115.98 23.652094 118.085469 25.753656 118.085469 28.347406 Z M 118.085469 28.347406 " transform="matrix(1,0,0,-1,4.895,118.281)"/>
</g>
<g clip-path="url(#clip7)" clip-rule="nonzero">
<path style="fill:none;stroke-width:0.3985;stroke-linecap:butt;stroke-linejoin:miter;stroke:rgb(0%,0%,0%);stroke-opacity:1;stroke-miterlimit:10;" d="M 118.085469 56.695062 C 118.085469 59.288812 115.98 61.390375 113.38625 61.390375 C 110.7925 61.390375 108.690938 59.288812 108.690938 56.695062 C 108.690938 54.101312 110.7925 51.995844 113.38625 51.995844 C 115.98 51.995844 118.085469 54.101312 118.085469 56.695062 Z M 118.085469 56.695062 " transform="matrix(1,0,0,-1,4.895,118.281)"/>
</g>
<g clip-path="url(#clip8)" clip-rule="nonzero">
<path style="fill:none;stroke-width:0.3985;stroke-linecap:butt;stroke-linejoin:miter;stroke:rgb(0%,0%,0%);stroke-opacity:1;stroke-miterlimit:10;" d="M 118.085469 85.038812 C 118.085469 87.632562 115.98 89.738031 113.38625 89.738031 C 110.7925 89.738031 108.690938 87.632562 108.690938 85.038812 C 108.690938 82.445062 110.7925 80.3435 113.38625 80.3435 C 115.98 80.3435 118.085469 82.445062 118.085469 85.038812 Z M 118.085469 85.038812 " transform="matrix(1,0,0,-1,4.895,118.281)"/>
</g>
<g clip-path="url(#clip9)" clip-rule="nonzero">
<path style="fill:none;stroke-width:0.3985;stroke-linecap:butt;stroke-linejoin:miter;stroke:rgb(0%,0%,0%);stroke-opacity:1;stroke-miterlimit:10;" d="M 118.085469 113.386469 C 118.085469 115.980219 115.98 118.081781 113.38625 118.081781 C 110.7925 118.081781 108.690938 115.980219 108.690938 113.386469 C 108.690938 110.792719 110.7925 108.691156 113.38625 108.691156 C 115.98 108.691156 118.085469 110.792719 118.085469 113.386469 Z M 118.085469 113.386469 " transform="matrix(1,0,0,-1,4.895,118.281)"/>
</g>
<path style="fill:none;stroke-width:0.3985;stroke-linecap:butt;stroke-linejoin:miter;stroke:rgb(0%,0%,0%);stroke-opacity:1;stroke-miterlimit:10;" d="M 4.894063 -0.00025 L 23.452656 -0.00025 " transform="matrix(1,0,0,-1,4.895,118.281)"/>
<path style="fill:none;stroke-width:0.3985;stroke-linecap:butt;stroke-linejoin:miter;stroke:rgb(0%,0%,0%);stroke-opacity:1;stroke-miterlimit:10;" d="M 4.894063 28.347406 L 23.452656 28.347406 " transform="matrix(1,0,0,-1,4.895,118.281)"/>
<path style="fill:none;stroke-width:0.3985;stroke-linecap:butt;stroke-linejoin:miter;stroke:rgb(0%,0%,0%);stroke-opacity:1;stroke-miterlimit:10;" d="M 4.894063 56.695062 L 23.452656 56.695062 " transform="matrix(1,0,0,-1,4.895,118.281)"/>
<path style="fill:none;stroke-width:0.3985;stroke-linecap:butt;stroke-linejoin:miter;stroke:rgb(0%,0%,0%);stroke-opacity:1;stroke-miterlimit:10;" d="M 4.894063 85.038812 L 23.452656 85.038812 " transform="matrix(1,0,0,-1,4.895,118.281)"/>
<path style="fill:none;stroke-width:0.3985;stroke-linecap:butt;stroke-linejoin:miter;stroke:rgb(0%,0%,0%);stroke-opacity:1;stroke-miterlimit:10;" d="M 4.894063 113.386469 L 23.452656 113.386469 " transform="matrix(1,0,0,-1,4.895,118.281)"/>
<path style="fill:none;stroke-width:0.3985;stroke-linecap:butt;stroke-linejoin:miter;stroke:rgb(0%,0%,0%);stroke-opacity:1;stroke-miterlimit:10;" d="M 33.241719 -0.00025 L 51.796406 -0.00025 " transform="matrix(1,0,0,-1,4.895,118.281)"/>
<path style="fill:none;stroke-width:0.3985;stroke-linecap:butt;stroke-linejoin:miter;stroke:rgb(0%,0%,0%);stroke-opacity:1;stroke-miterlimit:10;" d="M 33.241719 28.347406 L 51.796406 28.347406 " transform="matrix(1,0,0,-1,4.895,118.281)"/>
<path style="fill:none;stroke-width:0.3985;stroke-linecap:butt;stroke-linejoin:miter;stroke:rgb(0%,0%,0%);stroke-opacity:1;stroke-miterlimit:10;" d="M 33.241719 56.695062 L 51.796406 56.695062 " transform="matrix(1,0,0,-1,4.895,118.281)"/>
<path style="fill:none;stroke-width:0.3985;stroke-linecap:butt;stroke-linejoin:miter;stroke:rgb(0%,0%,0%);stroke-opacity:1;stroke-miterlimit:10;" d="M 33.241719 85.038812 L 51.796406 85.038812 " transform="matrix(1,0,0,-1,4.895,118.281)"/>
<path style="fill:none;stroke-width:0.3985;stroke-linecap:butt;stroke-linejoin:miter;stroke:rgb(0%,0%,0%);stroke-opacity:1;stroke-miterlimit:10;" d="M 33.241719 113.386469 L 51.796406 113.386469 " transform="matrix(1,0,0,-1,4.895,118.281)"/>
<path style="fill:none;stroke-width:0.3985;stroke-linecap:butt;stroke-linejoin:miter;stroke:rgb(0%,0%,0%);stroke-opacity:1;stroke-miterlimit:10;" d="M 61.589375 -0.00025 L 80.144063 -0.00025 " transform="matrix(1,0,0,-1,4.895,118.281)"/>
<path style="fill:none;stroke-width:0.3985;stroke-linecap:butt;stroke-linejoin:miter;stroke:rgb(0%,0%,0%);stroke-opacity:1;stroke-miterlimit:10;" d="M 61.589375 28.347406 L 80.144063 28.347406 " transform="matrix(1,0,0,-1,4.895,118.281)"/>
<path style="fill:none;stroke-width:0.3985;stroke-linecap:butt;stroke-linejoin:miter;stroke:rgb(0%,0%,0%);stroke-opacity:1;stroke-miterlimit:10;" d="M 61.589375 56.695062 L 80.144063 56.695062 " transform="matrix(1,0,0,-1,4.895,118.281)"/>
<path style="fill:none;stroke-width:0.3985;stroke-linecap:butt;stroke-linejoin:miter;stroke:rgb(0%,0%,0%);stroke-opacity:1;stroke-miterlimit:10;" d="M 61.589375 85.038812 L 80.144063 85.038812 " transform="matrix(1,0,0,-1,4.895,118.281)"/>
<path style="fill:none;stroke-width:0.3985;stroke-linecap:butt;stroke-linejoin:miter;stroke:rgb(0%,0%,0%);stroke-opacity:1;stroke-miterlimit:10;" d="M 61.589375 113.386469 L 80.144063 113.386469 " transform="matrix(1,0,0,-1,4.895,118.281)"/>
<path style="fill:none;stroke-width:0.3985;stroke-linecap:butt;stroke-linejoin:miter;stroke:rgb(0%,0%,0%);stroke-opacity:1;stroke-miterlimit:10;" d="M 89.937031 -0.00025 L 108.491719 -0.00025 " transform="matrix(1,0,0,-1,4.895,118.281)"/>
<path style="fill:none;stroke-width:0.3985;stroke-linecap:butt;stroke-linejoin:miter;stroke:rgb(0%,0%,0%);stroke-opacity:1;stroke-miterlimit:10;" d="M 89.937031 28.347406 L 108.491719 28.347406 " transform="matrix(1,0,0,-1,4.895,118.281)"/>
<path style="fill:none;stroke-width:0.3985;stroke-linecap:butt;stroke-linejoin:miter;stroke:rgb(0%,0%,0%);stroke-opacity:1;stroke-miterlimit:10;" d="M 89.937031 56.695062 L 108.491719 56.695062 " transform="matrix(1,0,0,-1,4.895,118.281)"/>
<path style="fill:none;stroke-width:0.3985;stroke-linecap:butt;stroke-linejoin:miter;stroke:rgb(0%,0%,0%);stroke-opacity:1;stroke-miterlimit:10;" d="M 89.937031 85.038812 L 108.491719 85.038812 " transform="matrix(1,0,0,-1,4.895,118.281)"/>
<path style="fill:none;stroke-width:0.3985;stroke-linecap:butt;stroke-linejoin:miter;stroke:rgb(0%,0%,0%);stroke-opacity:1;stroke-miterlimit:10;" d="M 89.937031 113.386469 L 108.491719 113.386469 " transform="matrix(1,0,0,-1,4.895,118.281)"/>
<path style="fill:none;stroke-width:0.3985;stroke-linecap:butt;stroke-linejoin:miter;stroke:rgb(0%,0%,0%);stroke-opacity:1;stroke-miterlimit:10;" d="M -0.00046875 4.894281 L -0.00046875 23.452875 " transform="matrix(1,0,0,-1,4.895,118.281)"/>
<path style="fill:none;stroke-width:0.3985;stroke-linecap:butt;stroke-linejoin:miter;stroke:rgb(0%,0%,0%);stroke-opacity:1;stroke-miterlimit:10;" d="M -0.00046875 33.241937 L -0.00046875 51.796625 " transform="matrix(1,0,0,-1,4.895,118.281)"/>
<path style="fill:none;stroke-width:0.3985;stroke-linecap:butt;stroke-linejoin:miter;stroke:rgb(0%,0%,0%);stroke-opacity:1;stroke-miterlimit:10;" d="M -0.00046875 61.589594 L -0.00046875 80.144281 " transform="matrix(1,0,0,-1,4.895,118.281)"/>
<path style="fill:none;stroke-width:0.3985;stroke-linecap:butt;stroke-linejoin:miter;stroke:rgb(0%,0%,0%);stroke-opacity:1;stroke-miterlimit:10;" d="M -0.00046875 89.93725 L -0.00046875 108.491937 " transform="matrix(1,0,0,-1,4.895,118.281)"/>
<path style="fill:none;stroke-width:0.3985;stroke-linecap:butt;stroke-linejoin:miter;stroke:rgb(0%,0%,0%);stroke-opacity:1;stroke-miterlimit:10;" d="M 28.347188 4.894281 L 28.347188 23.452875 " transform="matrix(1,0,0,-1,4.895,118.281)"/>
<path style="fill:none;stroke-width:0.3985;stroke-linecap:butt;stroke-linejoin:miter;stroke:rgb(0%,0%,0%);stroke-opacity:1;stroke-miterlimit:10;" d="M 28.347188 33.241937 L 28.347188 51.796625 " transform="matrix(1,0,0,-1,4.895,118.281)"/>
<path style="fill:none;stroke-width:0.3985;stroke-linecap:butt;stroke-linejoin:miter;stroke:rgb(0%,0%,0%);stroke-opacity:1;stroke-miterlimit:10;" d="M 28.347188 61.589594 L 28.347188 80.144281 " transform="matrix(1,0,0,-1,4.895,118.281)"/>
<path style="fill:none;stroke-width:0.3985;stroke-linecap:butt;stroke-linejoin:miter;stroke:rgb(0%,0%,0%);stroke-opacity:1;stroke-miterlimit:10;" d="M 28.347188 89.93725 L 28.347188 108.491937 " transform="matrix(1,0,0,-1,4.895,118.281)"/>
<path style="fill:none;stroke-width:0.3985;stroke-linecap:butt;stroke-linejoin:miter;stroke:rgb(0%,0%,0%);stroke-opacity:1;stroke-miterlimit:10;" d="M 56.694844 4.894281 L 56.694844 23.452875 " transform="matrix(1,0,0,-1,4.895,118.281)"/>
<path style="fill:none;stroke-width:0.3985;stroke-linecap:butt;stroke-linejoin:miter;stroke:rgb(0%,0%,0%);stroke-opacity:1;stroke-miterlimit:10;" d="M 56.694844 33.241937 L 56.694844 51.796625 " transform="matrix(1,0,0,-1,4.895,118.281)"/>
<path style="fill:none;stroke-width:0.3985;stroke-linecap:butt;stroke-linejoin:miter;stroke:rgb(0%,0%,0%);stroke-opacity:1;stroke-miterlimit:10;" d="M 56.694844 61.589594 L 56.694844 80.144281 " transform="matrix(1,0,0,-1,4.895,118.281)"/>
<path style="fill:none;stroke-width:0.3985;stroke-linecap:butt;stroke-linejoin:miter;stroke:rgb(0%,0%,0%);stroke-opacity:1;stroke-miterlimit:10;" d="M 56.694844 89.93725 L 56.694844 108.491937 " transform="matrix(1,0,0,-1,4.895,118.281)"/>
<path style="fill:none;stroke-width:0.3985;stroke-linecap:butt;stroke-linejoin:miter;stroke:rgb(0%,0%,0%);stroke-opacity:1;stroke-miterlimit:10;" d="M 85.038594 4.894281 L 85.038594 23.452875 " transform="matrix(1,0,0,-1,4.895,118.281)"/>
<path style="fill:none;stroke-width:0.3985;stroke-linecap:butt;stroke-linejoin:miter;stroke:rgb(0%,0%,0%);stroke-opacity:1;stroke-miterlimit:10;" d="M 85.038594 33.241937 L 85.038594 51.796625 " transform="matrix(1,0,0,-1,4.895,118.281)"/>
<path style="fill:none;stroke-width:0.3985;stroke-linecap:butt;stroke-linejoin:miter;stroke:rgb(0%,0%,0%);stroke-opacity:1;stroke-miterlimit:10;" d="M 85.038594 61.589594 L 85.038594 80.144281 " transform="matrix(1,0,0,-1,4.895,118.281)"/>
<path style="fill:none;stroke-width:0.3985;stroke-linecap:butt;stroke-linejoin:miter;stroke:rgb(0%,0%,0%);stroke-opacity:1;stroke-miterlimit:10;" d="M 85.038594 89.93725 L 85.038594 108.491937 " transform="matrix(1,0,0,-1,4.895,118.281)"/>
<path style="fill:none;stroke-width:0.3985;stroke-linecap:butt;stroke-linejoin:miter;stroke:rgb(0%,0%,0%);stroke-opacity:1;stroke-miterlimit:10;" d="M 113.38625 4.894281 L 113.38625 23.452875 " transform="matrix(1,0,0,-1,4.895,118.281)"/>
<path style="fill:none;stroke-width:0.3985;stroke-linecap:butt;stroke-linejoin:miter;stroke:rgb(0%,0%,0%);stroke-opacity:1;stroke-miterlimit:10;" d="M 113.38625 33.241937 L 113.38625 51.796625 " transform="matrix(1,0,0,-1,4.895,118.281)"/>
<path style="fill:none;stroke-width:0.3985;stroke-linecap:butt;stroke-linejoin:miter;stroke:rgb(0%,0%,0%);stroke-opacity:1;stroke-miterlimit:10;" d="M 113.38625 61.589594 L 113.38625 80.144281 " transform="matrix(1,0,0,-1,4.895,118.281)"/>
<path style="fill:none;stroke-width:0.3985;stroke-linecap:butt;stroke-linejoin:miter;stroke:rgb(0%,0%,0%);stroke-opacity:1;stroke-miterlimit:10;" d="M 113.38625 89.93725 L 113.38625 108.491937 " transform="matrix(1,0,0,-1,4.895,118.281)"/>
</g>
</svg>
