<?xml version="1.0" encoding="utf-8"?>
<svg xmlns="http://www.w3.org/2000/svg" xmlns:xlink="http://www.w3.org/1999/xlink" width="600" height="400" viewBox="0 0 2400 1600">
<defs>
  <clipPath id="clip390">
    <rect x="0" y="0" width="2400" height="1600"/>
  </clipPath>
</defs>
<path clip-path="url(#clip390)" d="
M0 1600 L2400 1600 L2400 0 L0 0  Z
  " fill="#000000" fill-rule="evenodd" fill-opacity="0"/>
<defs>
  <clipPath id="clip391">
    <rect x="480" y="0" width="1681" height="1600"/>
  </clipPath>
</defs>
<defs>
  <clipPath id="clip392">
    <rect x="300" y="47" width="2053" height="1364"/>
  </clipPath>
</defs>
<path clip-path="url(#clip390)" d="
M269.516 1410.22 L2352.76 1410.22 L2352.76 47.2441 L269.516 47.2441  Z
  " fill="#000000" fill-rule="evenodd" fill-opacity="0"/>
<defs>
  <clipPath id="clip393">
    <rect x="269" y="47" width="2084" height="1364"/>
  </clipPath>
</defs>
<polyline clip-path="url(#clip390)" style="stroke:#000000; stroke-linecap:butt; stroke-linejoin:round; stroke-width:4; stroke-opacity:1; fill:none" points="
  269.516,1410.22 2352.76,1410.22 
  "/>
<polyline clip-path="url(#clip390)" style="stroke:#000000; stroke-linecap:butt; stroke-linejoin:round; stroke-width:4; stroke-opacity:1; fill:none" points="
  392.589,1410.22 392.589,1391.32 
  "/>
<polyline clip-path="url(#clip390)" style="stroke:#000000; stroke-linecap:butt; stroke-linejoin:round; stroke-width:4; stroke-opacity:1; fill:none" points="
  744.655,1410.22 744.655,1391.32 
  "/>
<polyline clip-path="url(#clip390)" style="stroke:#000000; stroke-linecap:butt; stroke-linejoin:round; stroke-width:4; stroke-opacity:1; fill:none" points="
  1096.72,1410.22 1096.72,1391.32 
  "/>
<polyline clip-path="url(#clip390)" style="stroke:#000000; stroke-linecap:butt; stroke-linejoin:round; stroke-width:4; stroke-opacity:1; fill:none" points="
  1448.79,1410.22 1448.79,1391.32 
  "/>
<polyline clip-path="url(#clip390)" style="stroke:#000000; stroke-linecap:butt; stroke-linejoin:round; stroke-width:4; stroke-opacity:1; fill:none" points="
  1800.85,1410.22 1800.85,1391.32 
  "/>
<polyline clip-path="url(#clip390)" style="stroke:#000000; stroke-linecap:butt; stroke-linejoin:round; stroke-width:4; stroke-opacity:1; fill:none" points="
  2152.92,1410.22 2152.92,1391.32 
  "/>
<path clip-path="url(#clip390)" d="M345.158 1468.68 L352.797 1468.68 L352.797 1442.32 L344.487 1443.99 L344.487 1439.73 L352.751 1438.06 L357.427 1438.06 L357.427 1468.68 L365.066 1468.68 L365.066 1472.62 L345.158 1472.62 L345.158 1468.68 Z" fill="#000000" fill-rule="evenodd" fill-opacity="1" /><path clip-path="url(#clip390)" d="M378.538 1468.68 L394.857 1468.68 L394.857 1472.62 L372.913 1472.62 L372.913 1468.68 Q375.575 1465.93 380.158 1461.3 Q384.765 1456.65 385.945 1455.31 Q388.191 1452.78 389.07 1451.05 Q389.973 1449.29 389.973 1447.6 Q389.973 1444.84 388.029 1443.11 Q386.107 1441.37 383.006 1441.37 Q380.806 1441.37 378.353 1442.13 Q375.922 1442.9 373.144 1444.45 L373.144 1439.73 Q375.969 1438.59 378.422 1438.01 Q380.876 1437.43 382.913 1437.43 Q388.283 1437.43 391.478 1440.12 Q394.672 1442.81 394.672 1447.3 Q394.672 1449.43 393.862 1451.35 Q393.075 1453.24 390.968 1455.84 Q390.39 1456.51 387.288 1459.73 Q384.186 1462.92 378.538 1468.68 Z" fill="#000000" fill-rule="evenodd" fill-opacity="1" /><path clip-path="url(#clip390)" d="M404.672 1466.74 L409.556 1466.74 L409.556 1472.62 L404.672 1472.62 L404.672 1466.74 Z" fill="#000000" fill-rule="evenodd" fill-opacity="1" /><path clip-path="url(#clip390)" d="M419.788 1438.06 L438.144 1438.06 L438.144 1442 L424.07 1442 L424.07 1450.47 Q425.089 1450.12 426.107 1449.96 Q427.126 1449.77 428.144 1449.77 Q433.931 1449.77 437.311 1452.94 Q440.69 1456.12 440.69 1461.53 Q440.69 1467.11 437.218 1470.21 Q433.746 1473.29 427.427 1473.29 Q425.251 1473.29 422.982 1472.92 Q420.737 1472.55 418.329 1471.81 L418.329 1467.11 Q420.413 1468.24 422.635 1468.8 Q424.857 1469.36 427.334 1469.36 Q431.339 1469.36 433.677 1467.25 Q436.014 1465.14 436.014 1461.53 Q436.014 1457.92 433.677 1455.81 Q431.339 1453.71 427.334 1453.71 Q425.459 1453.71 423.584 1454.12 Q421.732 1454.54 419.788 1455.42 L419.788 1438.06 Z" fill="#000000" fill-rule="evenodd" fill-opacity="1" /><path clip-path="url(#clip390)" d="M696.727 1468.68 L704.366 1468.68 L704.366 1442.32 L696.056 1443.99 L696.056 1439.73 L704.32 1438.06 L708.996 1438.06 L708.996 1468.68 L716.634 1468.68 L716.634 1472.62 L696.727 1472.62 L696.727 1468.68 Z" fill="#000000" fill-rule="evenodd" fill-opacity="1" /><path clip-path="url(#clip390)" d="M726.125 1438.06 L744.481 1438.06 L744.481 1442 L730.407 1442 L730.407 1450.47 Q731.426 1450.12 732.444 1449.96 Q733.463 1449.77 734.482 1449.77 Q740.269 1449.77 743.648 1452.94 Q747.028 1456.12 747.028 1461.53 Q747.028 1467.11 743.556 1470.21 Q740.083 1473.29 733.764 1473.29 Q731.588 1473.29 729.32 1472.92 Q727.074 1472.55 724.667 1471.81 L724.667 1467.11 Q726.75 1468.24 728.972 1468.8 Q731.194 1469.36 733.671 1469.36 Q737.676 1469.36 740.014 1467.25 Q742.352 1465.14 742.352 1461.53 Q742.352 1457.92 740.014 1455.81 Q737.676 1453.71 733.671 1453.71 Q731.796 1453.71 729.921 1454.12 Q728.07 1454.54 726.125 1455.42 L726.125 1438.06 Z" fill="#000000" fill-rule="evenodd" fill-opacity="1" /><path clip-path="url(#clip390)" d="M756.241 1466.74 L761.125 1466.74 L761.125 1472.62 L756.241 1472.62 L756.241 1466.74 Z" fill="#000000" fill-rule="evenodd" fill-opacity="1" /><path clip-path="url(#clip390)" d="M781.31 1441.14 Q777.699 1441.14 775.87 1444.7 Q774.065 1448.24 774.065 1455.37 Q774.065 1462.48 775.87 1466.05 Q777.699 1469.59 781.31 1469.59 Q784.944 1469.59 786.75 1466.05 Q788.578 1462.48 788.578 1455.37 Q788.578 1448.24 786.75 1444.7 Q784.944 1441.14 781.31 1441.14 M781.31 1437.43 Q787.12 1437.43 790.176 1442.04 Q793.254 1446.62 793.254 1455.37 Q793.254 1464.1 790.176 1468.71 Q787.12 1473.29 781.31 1473.29 Q775.5 1473.29 772.421 1468.71 Q769.366 1464.1 769.366 1455.37 Q769.366 1446.62 772.421 1442.04 Q775.5 1437.43 781.31 1437.43 Z" fill="#000000" fill-rule="evenodd" fill-opacity="1" /><path clip-path="url(#clip390)" d="M1049.29 1468.68 L1056.93 1468.68 L1056.93 1442.32 L1048.62 1443.99 L1048.62 1439.73 L1056.88 1438.06 L1061.56 1438.06 L1061.56 1468.68 L1069.2 1468.68 L1069.2 1472.62 L1049.29 1472.62 L1049.29 1468.68 Z" fill="#000000" fill-rule="evenodd" fill-opacity="1" /><path clip-path="url(#clip390)" d="M1077.46 1438.06 L1099.68 1438.06 L1099.68 1440.05 L1087.14 1472.62 L1082.25 1472.62 L1094.06 1442 L1077.46 1442 L1077.46 1438.06 Z" fill="#000000" fill-rule="evenodd" fill-opacity="1" /><path clip-path="url(#clip390)" d="M1108.8 1466.74 L1113.69 1466.74 L1113.69 1472.62 L1108.8 1472.62 L1108.8 1466.74 Z" fill="#000000" fill-rule="evenodd" fill-opacity="1" /><path clip-path="url(#clip390)" d="M1123.92 1438.06 L1142.28 1438.06 L1142.28 1442 L1128.2 1442 L1128.2 1450.47 Q1129.22 1450.12 1130.24 1449.96 Q1131.26 1449.77 1132.28 1449.77 Q1138.06 1449.77 1141.44 1452.94 Q1144.82 1456.12 1144.82 1461.53 Q1144.82 1467.11 1141.35 1470.21 Q1137.88 1473.29 1131.56 1473.29 Q1129.38 1473.29 1127.11 1472.92 Q1124.87 1472.55 1122.46 1471.81 L1122.46 1467.11 Q1124.55 1468.24 1126.77 1468.8 Q1128.99 1469.36 1131.47 1469.36 Q1135.47 1469.36 1137.81 1467.25 Q1140.15 1465.14 1140.15 1461.53 Q1140.15 1457.92 1137.81 1455.81 Q1135.47 1453.71 1131.47 1453.71 Q1129.59 1453.71 1127.72 1454.12 Q1125.86 1454.54 1123.92 1455.42 L1123.92 1438.06 Z" fill="#000000" fill-rule="evenodd" fill-opacity="1" /><path clip-path="url(#clip390)" d="M1404.95 1468.68 L1421.26 1468.68 L1421.26 1472.62 L1399.32 1472.62 L1399.32 1468.68 Q1401.98 1465.93 1406.57 1461.3 Q1411.17 1456.65 1412.35 1455.31 Q1414.6 1452.78 1415.48 1451.05 Q1416.38 1449.29 1416.38 1447.6 Q1416.38 1444.84 1414.44 1443.11 Q1412.51 1441.37 1409.41 1441.37 Q1407.21 1441.37 1404.76 1442.13 Q1402.33 1442.9 1399.55 1444.45 L1399.55 1439.73 Q1402.38 1438.59 1404.83 1438.01 Q1407.28 1437.43 1409.32 1437.43 Q1414.69 1437.43 1417.89 1440.12 Q1421.08 1442.81 1421.08 1447.3 Q1421.08 1449.43 1420.27 1451.35 Q1419.48 1453.24 1417.38 1455.84 Q1416.8 1456.51 1413.7 1459.73 Q1410.59 1462.92 1404.95 1468.68 Z" fill="#000000" fill-rule="evenodd" fill-opacity="1" /><path clip-path="url(#clip390)" d="M1441.08 1441.14 Q1437.47 1441.14 1435.64 1444.7 Q1433.83 1448.24 1433.83 1455.37 Q1433.83 1462.48 1435.64 1466.05 Q1437.47 1469.59 1441.08 1469.59 Q1444.71 1469.59 1446.52 1466.05 Q1448.35 1462.48 1448.35 1455.37 Q1448.35 1448.24 1446.52 1444.7 Q1444.71 1441.14 1441.08 1441.14 M1441.08 1437.43 Q1446.89 1437.43 1449.95 1442.04 Q1453.02 1446.62 1453.02 1455.37 Q1453.02 1464.1 1449.95 1468.71 Q1446.89 1473.29 1441.08 1473.29 Q1435.27 1473.29 1432.19 1468.71 Q1429.13 1464.1 1429.13 1455.37 Q1429.13 1446.62 1432.19 1442.04 Q1435.27 1437.43 1441.08 1437.43 Z" fill="#000000" fill-rule="evenodd" fill-opacity="1" /><path clip-path="url(#clip390)" d="M1461.24 1466.74 L1466.13 1466.74 L1466.13 1472.62 L1461.24 1472.62 L1461.24 1466.74 Z" fill="#000000" fill-rule="evenodd" fill-opacity="1" /><path clip-path="url(#clip390)" d="M1486.31 1441.14 Q1482.7 1441.14 1480.87 1444.7 Q1479.07 1448.24 1479.07 1455.37 Q1479.07 1462.48 1480.87 1466.05 Q1482.7 1469.59 1486.31 1469.59 Q1489.94 1469.59 1491.75 1466.05 Q1493.58 1462.48 1493.58 1455.37 Q1493.58 1448.24 1491.75 1444.7 Q1489.94 1441.14 1486.31 1441.14 M1486.31 1437.43 Q1492.12 1437.43 1495.18 1442.04 Q1498.25 1446.62 1498.25 1455.37 Q1498.25 1464.1 1495.18 1468.71 Q1492.12 1473.29 1486.31 1473.29 Q1480.5 1473.29 1477.42 1468.71 Q1474.37 1464.1 1474.37 1455.37 Q1474.37 1446.62 1477.42 1442.04 Q1480.5 1437.43 1486.31 1437.43 Z" fill="#000000" fill-rule="evenodd" fill-opacity="1" /><path clip-path="url(#clip390)" d="M1757.51 1468.68 L1773.83 1468.68 L1773.83 1472.62 L1751.88 1472.62 L1751.88 1468.68 Q1754.55 1465.93 1759.13 1461.3 Q1763.74 1456.65 1764.92 1455.31 Q1767.16 1452.78 1768.04 1451.05 Q1768.94 1449.29 1768.94 1447.6 Q1768.94 1444.84 1767 1443.11 Q1765.08 1441.37 1761.98 1441.37 Q1759.78 1441.37 1757.32 1442.13 Q1754.89 1442.9 1752.12 1444.45 L1752.12 1439.73 Q1754.94 1438.59 1757.39 1438.01 Q1759.85 1437.43 1761.88 1437.43 Q1767.25 1437.43 1770.45 1440.12 Q1773.64 1442.81 1773.64 1447.3 Q1773.64 1449.43 1772.83 1451.35 Q1772.05 1453.24 1769.94 1455.84 Q1769.36 1456.51 1766.26 1459.73 Q1763.16 1462.92 1757.51 1468.68 Z" fill="#000000" fill-rule="evenodd" fill-opacity="1" /><path clip-path="url(#clip390)" d="M1787.67 1468.68 L1803.99 1468.68 L1803.99 1472.62 L1782.05 1472.62 L1782.05 1468.68 Q1784.71 1465.93 1789.29 1461.3 Q1793.9 1456.65 1795.08 1455.31 Q1797.32 1452.78 1798.2 1451.05 Q1799.11 1449.29 1799.11 1447.6 Q1799.11 1444.84 1797.16 1443.11 Q1795.24 1441.37 1792.14 1441.37 Q1789.94 1441.37 1787.49 1442.13 Q1785.06 1442.9 1782.28 1444.45 L1782.28 1439.73 Q1785.1 1438.59 1787.56 1438.01 Q1790.01 1437.43 1792.05 1437.43 Q1797.42 1437.43 1800.61 1440.12 Q1803.81 1442.81 1803.81 1447.3 Q1803.81 1449.43 1803 1451.35 Q1802.21 1453.24 1800.1 1455.84 Q1799.52 1456.51 1796.42 1459.73 Q1793.32 1462.92 1787.67 1468.68 Z" fill="#000000" fill-rule="evenodd" fill-opacity="1" /><path clip-path="url(#clip390)" d="M1813.81 1466.74 L1818.69 1466.74 L1818.69 1472.62 L1813.81 1472.62 L1813.81 1466.74 Z" fill="#000000" fill-rule="evenodd" fill-opacity="1" /><path clip-path="url(#clip390)" d="M1828.92 1438.06 L1847.28 1438.06 L1847.28 1442 L1833.2 1442 L1833.2 1450.47 Q1834.22 1450.12 1835.24 1449.96 Q1836.26 1449.77 1837.28 1449.77 Q1843.06 1449.77 1846.44 1452.94 Q1849.82 1456.12 1849.82 1461.53 Q1849.82 1467.11 1846.35 1470.21 Q1842.88 1473.29 1836.56 1473.29 Q1834.38 1473.29 1832.12 1472.92 Q1829.87 1472.55 1827.46 1471.81 L1827.46 1467.11 Q1829.55 1468.24 1831.77 1468.8 Q1833.99 1469.36 1836.47 1469.36 Q1840.47 1469.36 1842.81 1467.25 Q1845.15 1465.14 1845.15 1461.53 Q1845.15 1457.92 1842.81 1455.81 Q1840.47 1453.71 1836.47 1453.71 Q1834.59 1453.71 1832.72 1454.12 Q1830.87 1454.54 1828.92 1455.42 L1828.92 1438.06 Z" fill="#000000" fill-rule="evenodd" fill-opacity="1" /><path clip-path="url(#clip390)" d="M2109.08 1468.68 L2125.4 1468.68 L2125.4 1472.62 L2103.45 1472.62 L2103.45 1468.68 Q2106.11 1465.93 2110.7 1461.3 Q2115.3 1456.65 2116.49 1455.31 Q2118.73 1452.78 2119.61 1451.05 Q2120.51 1449.29 2120.51 1447.6 Q2120.51 1444.84 2118.57 1443.11 Q2116.65 1441.37 2113.55 1441.37 Q2111.35 1441.37 2108.89 1442.13 Q2106.46 1442.9 2103.68 1444.45 L2103.68 1439.73 Q2106.51 1438.59 2108.96 1438.01 Q2111.42 1437.43 2113.45 1437.43 Q2118.82 1437.43 2122.02 1440.12 Q2125.21 1442.81 2125.21 1447.3 Q2125.21 1449.43 2124.4 1451.35 Q2123.61 1453.24 2121.51 1455.84 Q2120.93 1456.51 2117.83 1459.73 Q2114.73 1462.92 2109.08 1468.68 Z" fill="#000000" fill-rule="evenodd" fill-opacity="1" /><path clip-path="url(#clip390)" d="M2135.26 1438.06 L2153.61 1438.06 L2153.61 1442 L2139.54 1442 L2139.54 1450.47 Q2140.56 1450.12 2141.58 1449.96 Q2142.6 1449.77 2143.61 1449.77 Q2149.4 1449.77 2152.78 1452.94 Q2156.16 1456.12 2156.16 1461.53 Q2156.16 1467.11 2152.69 1470.21 Q2149.22 1473.29 2142.9 1473.29 Q2140.72 1473.29 2138.45 1472.92 Q2136.21 1472.55 2133.8 1471.81 L2133.8 1467.11 Q2135.88 1468.24 2138.11 1468.8 Q2140.33 1469.36 2142.8 1469.36 Q2146.81 1469.36 2149.15 1467.25 Q2151.48 1465.14 2151.48 1461.53 Q2151.48 1457.92 2149.15 1455.81 Q2146.81 1453.71 2142.8 1453.71 Q2140.93 1453.71 2139.05 1454.12 Q2137.2 1454.54 2135.26 1455.42 L2135.26 1438.06 Z" fill="#000000" fill-rule="evenodd" fill-opacity="1" /><path clip-path="url(#clip390)" d="M2165.37 1466.74 L2170.26 1466.74 L2170.26 1472.62 L2165.37 1472.62 L2165.37 1466.74 Z" fill="#000000" fill-rule="evenodd" fill-opacity="1" /><path clip-path="url(#clip390)" d="M2190.44 1441.14 Q2186.83 1441.14 2185 1444.7 Q2183.2 1448.24 2183.2 1455.37 Q2183.2 1462.48 2185 1466.05 Q2186.83 1469.59 2190.44 1469.59 Q2194.08 1469.59 2195.88 1466.05 Q2197.71 1462.48 2197.71 1455.37 Q2197.71 1448.24 2195.88 1444.7 Q2194.08 1441.14 2190.44 1441.14 M2190.44 1437.43 Q2196.25 1437.43 2199.31 1442.04 Q2202.39 1446.62 2202.39 1455.37 Q2202.39 1464.1 2199.31 1468.71 Q2196.25 1473.29 2190.44 1473.29 Q2184.63 1473.29 2181.55 1468.71 Q2178.5 1464.1 2178.5 1455.37 Q2178.5 1446.62 2181.55 1442.04 Q2184.63 1437.43 2190.44 1437.43 Z" fill="#000000" fill-rule="evenodd" fill-opacity="1" /><path clip-path="url(#clip390)" d="M1177.88 1575.03 L1177.88 1572.45 Q1182.35 1572.45 1183.38 1571.91 Q1184.4 1571.34 1184.4 1568.63 L1184.4 1524.98 Q1184.4 1521.86 1183.29 1521.09 Q1182.23 1520.31 1177.88 1520.31 L1177.88 1517.68 L1189.94 1516.78 L1189.94 1568.63 Q1189.94 1571.34 1191 1571.91 Q1192.07 1572.45 1196.49 1572.45 L1196.49 1575.03 Q1195.47 1575.03 1193.34 1574.95 Q1191.21 1574.86 1189.65 1574.82 Q1188.09 1574.78 1187.19 1574.78 Q1186.21 1574.78 1177.88 1575.03 Z" fill="#000000" fill-rule="evenodd" fill-opacity="1" /><path clip-path="url(#clip390)" d="M1209.12 1570.52 Q1203.59 1565.03 1203.59 1557.07 Q1203.59 1549.08 1209 1543.26 Q1214.45 1537.4 1222.24 1537.4 Q1229.86 1537.4 1235.32 1543.22 Q1240.81 1549 1240.81 1557.07 Q1240.81 1564.99 1235.27 1570.48 Q1229.78 1575.97 1222.16 1575.97 Q1214.7 1575.97 1209.12 1570.52 M1210.56 1556.38 Q1210.56 1564.53 1212.69 1568.22 Q1215.97 1573.84 1222.24 1573.84 Q1225.36 1573.84 1227.94 1572.16 Q1230.56 1570.48 1232 1567.65 Q1233.84 1563.96 1233.84 1556.38 Q1233.84 1548.3 1231.63 1544.74 Q1228.35 1539.29 1222.16 1539.29 Q1219.45 1539.29 1216.79 1540.72 Q1214.17 1542.11 1212.57 1544.9 Q1210.56 1548.59 1210.56 1556.38 Z" fill="#000000" fill-rule="evenodd" fill-opacity="1" /><path clip-path="url(#clip390)" d="M1242.14 1581.67 Q1242.14 1578.96 1244.19 1576.63 Q1246.28 1574.29 1249.88 1573.27 Q1246.19 1570.93 1246.19 1565.81 Q1246.19 1561.87 1248.78 1558.84 Q1244.84 1555.56 1244.84 1550.19 Q1244.84 1545.23 1248.78 1541.58 Q1252.71 1537.93 1258.45 1537.93 Q1263.49 1537.93 1267.34 1540.97 Q1271.36 1537.03 1276.24 1536.99 Q1278.41 1536.99 1279.44 1538.34 Q1280.5 1539.69 1280.5 1541.13 Q1280.5 1542.4 1279.68 1543.02 Q1278.9 1543.63 1278.08 1543.63 Q1277.06 1543.63 1276.32 1542.97 Q1275.62 1542.28 1275.62 1541.21 Q1275.62 1539.45 1276.98 1538.92 Q1276.73 1538.83 1276.16 1538.83 Q1272.06 1538.83 1268.57 1542.11 Q1272.02 1545.31 1272.02 1550.27 Q1272.02 1555.23 1268.08 1558.88 Q1264.15 1562.53 1258.45 1562.53 Q1253.74 1562.53 1250.13 1559.9 Q1248.69 1561.58 1248.69 1563.88 Q1248.69 1565.97 1249.97 1567.61 Q1251.24 1569.25 1253.16 1569.49 Q1253.74 1569.58 1259.43 1569.58 Q1262.8 1569.58 1264.64 1569.66 Q1266.48 1569.74 1269.11 1570.31 Q1271.77 1570.85 1273.86 1571.91 Q1279.31 1574.95 1279.35 1581.5 Q1279.35 1586.3 1273.82 1589.29 Q1268.33 1592.33 1260.7 1592.33 Q1253 1592.33 1247.55 1589.25 Q1242.14 1586.22 1242.14 1581.67 M1246.52 1581.67 Q1246.52 1585.11 1250.58 1587.73 Q1254.64 1590.4 1260.79 1590.4 Q1266.81 1590.4 1270.87 1587.78 Q1274.97 1585.19 1274.97 1581.67 Q1274.97 1579.17 1273.53 1577.57 Q1272.1 1575.97 1269.15 1575.31 Q1266.24 1574.7 1264.19 1574.58 Q1262.14 1574.45 1258.37 1574.45 L1253.41 1574.45 Q1250.54 1574.62 1248.53 1576.71 Q1246.52 1578.8 1246.52 1581.67 M1251.11 1550.27 Q1251.11 1560.6 1258.45 1560.6 Q1262.14 1560.6 1264.39 1557.24 Q1265.75 1554.98 1265.75 1550.19 Q1265.75 1539.86 1258.45 1539.86 Q1254.76 1539.86 1252.47 1543.22 Q1251.11 1545.47 1251.11 1550.27 Z" fill="#000000" fill-rule="evenodd" fill-opacity="1" /><path clip-path="url(#clip390)" d="M1289.08 1598.29 Q1289.08 1597.22 1289.17 1596.91 Q1289.28 1596.59 1289.74 1596.1 L1301.02 1583.54 Q1307.19 1576.59 1307.19 1570.54 Q1307.19 1566.61 1305.12 1563.8 Q1303.08 1560.98 1299.32 1560.98 Q1296.74 1560.98 1294.56 1562.56 Q1292.38 1564.14 1291.38 1566.95 Q1291.55 1566.9 1292.15 1566.9 Q1293.61 1566.9 1294.42 1567.81 Q1295.25 1568.73 1295.25 1569.97 Q1295.25 1571.54 1294.22 1572.32 Q1293.21 1573.06 1292.21 1573.06 Q1291.81 1573.06 1291.26 1572.98 Q1290.75 1572.89 1289.91 1572.09 Q1289.08 1571.26 1289.08 1569.79 Q1289.08 1565.69 1292.18 1562.42 Q1295.31 1559.15 1300.07 1559.15 Q1305.46 1559.15 1308.99 1562.36 Q1312.55 1565.55 1312.55 1570.54 Q1312.55 1572.29 1312.01 1573.9 Q1311.49 1575.47 1310.77 1576.71 Q1310.08 1577.94 1308.19 1579.92 Q1306.3 1581.9 1304.78 1583.31 Q1303.26 1584.71 1299.84 1587.7 L1293.61 1593.75 L1304.2 1593.75 Q1309.37 1593.75 1309.77 1593.29 Q1310.34 1592.46 1311.06 1588.07 L1312.55 1588.07 L1310.89 1598.29 L1289.08 1598.29 Z" fill="#000000" fill-rule="evenodd" fill-opacity="1" /><path clip-path="url(#clip390)" d="M1321.28 1593.43 L1321.28 1515.27 Q1321.28 1512.15 1322.96 1512.15 Q1324.64 1512.15 1324.64 1514.65 L1324.64 1592.82 Q1324.64 1595.93 1322.96 1595.93 Q1321.28 1595.93 1321.28 1593.43 Z" fill="#000000" fill-rule="evenodd" fill-opacity="1" /><path clip-path="url(#clip390)" d="M1398.98 1518.71 Q1398.89 1520.23 1397.87 1520.31 Q1396.31 1520.39 1395.37 1520.59 Q1394.43 1520.76 1392.95 1521.37 Q1391.48 1521.99 1390.04 1523.46 Q1388.61 1524.94 1387.13 1527.28 L1356.92 1575.36 Q1356.39 1576.26 1355.94 1576.54 Q1355.53 1576.87 1354.58 1576.87 Q1353.72 1576.87 1353.4 1576.5 Q1353.07 1576.18 1352.9 1574.95 L1346.26 1523.14 Q1346.14 1522.19 1346.02 1521.78 Q1345.9 1521.37 1345.4 1520.96 Q1344.95 1520.55 1343.97 1520.43 Q1342.98 1520.31 1341.22 1520.31 Q1340.4 1520.31 1340.03 1520.27 Q1339.71 1520.23 1339.42 1520.02 Q1339.13 1519.77 1339.13 1519.28 Q1339.13 1518.54 1339.42 1518.18 Q1339.75 1517.77 1339.99 1517.72 Q1340.28 1517.68 1340.73 1517.68 Q1341.43 1517.68 1342.94 1517.77 Q1344.46 1517.85 1345.24 1517.85 Q1345.98 1517.85 1347.53 1517.89 Q1349.09 1517.93 1349.87 1517.93 Q1351.59 1517.93 1355.08 1517.81 Q1358.6 1517.68 1360.28 1517.68 Q1361.43 1517.68 1361.43 1518.63 Q1361.43 1519.77 1360.94 1520.06 Q1360.45 1520.31 1359.34 1520.31 Q1356.55 1520.31 1355.04 1521 Q1353.56 1521.7 1353.56 1522.81 L1359.26 1567.24 L1385.04 1526.25 Q1386.31 1524.32 1386.31 1523.05 Q1386.31 1520.59 1382.42 1520.31 Q1381.1 1520.31 1381.1 1519.28 Q1381.1 1518.54 1381.43 1518.18 Q1381.76 1517.77 1382.01 1517.72 Q1382.29 1517.68 1382.7 1517.68 Q1384.06 1517.68 1386.8 1517.81 Q1389.59 1517.93 1390.98 1517.93 Q1392.13 1517.93 1394.47 1517.81 Q1396.8 1517.68 1397.87 1517.68 Q1398.98 1517.68 1398.98 1518.71 Z" fill="#000000" fill-rule="evenodd" fill-opacity="1" /><path clip-path="url(#clip390)" d="M1409.74 1593.43 L1409.74 1515.27 Q1409.74 1512.15 1411.42 1512.15 Q1413.1 1512.15 1413.1 1514.65 L1413.1 1592.82 Q1413.1 1595.93 1411.42 1595.93 Q1409.74 1595.93 1409.74 1593.43 Z" fill="#000000" fill-rule="evenodd" fill-opacity="1" /><polyline clip-path="url(#clip390)" style="stroke:#000000; stroke-linecap:butt; stroke-linejoin:round; stroke-width:4; stroke-opacity:1; fill:none" points="
  269.516,1410.22 269.516,47.2441 
  "/>
<polyline clip-path="url(#clip390)" style="stroke:#000000; stroke-linecap:butt; stroke-linejoin:round; stroke-width:4; stroke-opacity:1; fill:none" points="
  269.516,1323.55 288.414,1323.55 
  "/>
<polyline clip-path="url(#clip390)" style="stroke:#000000; stroke-linecap:butt; stroke-linejoin:round; stroke-width:4; stroke-opacity:1; fill:none" points="
  269.516,1110.47 288.414,1110.47 
  "/>
<polyline clip-path="url(#clip390)" style="stroke:#000000; stroke-linecap:butt; stroke-linejoin:round; stroke-width:4; stroke-opacity:1; fill:none" points="
  269.516,897.381 288.414,897.381 
  "/>
<polyline clip-path="url(#clip390)" style="stroke:#000000; stroke-linecap:butt; stroke-linejoin:round; stroke-width:4; stroke-opacity:1; fill:none" points="
  269.516,684.295 288.414,684.295 
  "/>
<polyline clip-path="url(#clip390)" style="stroke:#000000; stroke-linecap:butt; stroke-linejoin:round; stroke-width:4; stroke-opacity:1; fill:none" points="
  269.516,471.209 288.414,471.209 
  "/>
<polyline clip-path="url(#clip390)" style="stroke:#000000; stroke-linecap:butt; stroke-linejoin:round; stroke-width:4; stroke-opacity:1; fill:none" points="
  269.516,258.122 288.414,258.122 
  "/>
<path clip-path="url(#clip390)" d="M127.22 1324.01 L156.896 1324.01 L156.896 1327.94 L127.22 1327.94 L127.22 1324.01 Z" fill="#000000" fill-rule="evenodd" fill-opacity="1" /><path clip-path="url(#clip390)" d="M176.988 1309.35 Q173.377 1309.35 171.549 1312.92 Q169.743 1316.46 169.743 1323.59 Q169.743 1330.69 171.549 1334.26 Q173.377 1337.8 176.988 1337.8 Q180.623 1337.8 182.428 1334.26 Q184.257 1330.69 184.257 1323.59 Q184.257 1316.46 182.428 1312.92 Q180.623 1309.35 176.988 1309.35 M176.988 1305.65 Q182.799 1305.65 185.854 1310.26 Q188.933 1314.84 188.933 1323.59 Q188.933 1332.32 185.854 1336.92 Q182.799 1341.51 176.988 1341.51 Q171.178 1341.51 168.1 1336.92 Q165.044 1332.32 165.044 1323.59 Q165.044 1314.84 168.1 1310.26 Q171.178 1305.65 176.988 1305.65 Z" fill="#000000" fill-rule="evenodd" fill-opacity="1" /><path clip-path="url(#clip390)" d="M197.15 1334.95 L202.035 1334.95 L202.035 1340.83 L197.15 1340.83 L197.15 1334.95 Z" fill="#000000" fill-rule="evenodd" fill-opacity="1" /><path clip-path="url(#clip390)" d="M226.386 1322.2 Q229.743 1322.92 231.618 1325.19 Q233.516 1327.45 233.516 1330.79 Q233.516 1335.9 229.997 1338.7 Q226.479 1341.51 219.997 1341.51 Q217.822 1341.51 215.507 1341.07 Q213.215 1340.65 210.761 1339.79 L210.761 1335.28 Q212.706 1336.41 215.021 1336.99 Q217.335 1337.57 219.859 1337.57 Q224.257 1337.57 226.548 1335.83 Q228.863 1334.1 228.863 1330.79 Q228.863 1327.73 226.71 1326.02 Q224.581 1324.28 220.761 1324.28 L216.734 1324.28 L216.734 1320.44 L220.947 1320.44 Q224.396 1320.44 226.224 1319.07 Q228.053 1317.69 228.053 1315.09 Q228.053 1312.43 226.155 1311.02 Q224.28 1309.58 220.761 1309.58 Q218.84 1309.58 216.641 1310 Q214.442 1310.42 211.803 1311.3 L211.803 1307.13 Q214.465 1306.39 216.78 1306.02 Q219.118 1305.65 221.178 1305.65 Q226.502 1305.65 229.604 1308.08 Q232.706 1310.49 232.706 1314.61 Q232.706 1317.48 231.062 1319.47 Q229.419 1321.44 226.386 1322.2 Z" fill="#000000" fill-rule="evenodd" fill-opacity="1" /><path clip-path="url(#clip390)" d="M128.169 1110.92 L157.845 1110.92 L157.845 1114.85 L128.169 1114.85 L128.169 1110.92 Z" fill="#000000" fill-rule="evenodd" fill-opacity="1" /><path clip-path="url(#clip390)" d="M177.937 1096.27 Q174.326 1096.27 172.498 1099.83 Q170.692 1103.37 170.692 1110.5 Q170.692 1117.61 172.498 1121.17 Q174.326 1124.72 177.937 1124.72 Q181.572 1124.72 183.377 1121.17 Q185.206 1117.61 185.206 1110.5 Q185.206 1103.37 183.377 1099.83 Q181.572 1096.27 177.937 1096.27 M177.937 1092.56 Q183.748 1092.56 186.803 1097.17 Q189.882 1101.75 189.882 1110.5 Q189.882 1119.23 186.803 1123.84 Q183.748 1128.42 177.937 1128.42 Q172.127 1128.42 169.049 1123.84 Q165.993 1119.23 165.993 1110.5 Q165.993 1101.75 169.049 1097.17 Q172.127 1092.56 177.937 1092.56 Z" fill="#000000" fill-rule="evenodd" fill-opacity="1" /><path clip-path="url(#clip390)" d="M198.099 1121.87 L202.984 1121.87 L202.984 1127.75 L198.099 1127.75 L198.099 1121.87 Z" fill="#000000" fill-rule="evenodd" fill-opacity="1" /><path clip-path="url(#clip390)" d="M217.197 1123.81 L233.516 1123.81 L233.516 1127.75 L211.572 1127.75 L211.572 1123.81 Q214.234 1121.06 218.817 1116.43 Q223.423 1111.78 224.604 1110.43 Q226.849 1107.91 227.729 1106.17 Q228.632 1104.41 228.632 1102.72 Q228.632 1099.97 226.687 1098.23 Q224.766 1096.5 221.664 1096.5 Q219.465 1096.5 217.011 1097.26 Q214.581 1098.03 211.803 1099.58 L211.803 1094.85 Q214.627 1093.72 217.081 1093.14 Q219.534 1092.56 221.572 1092.56 Q226.942 1092.56 230.136 1095.25 Q233.331 1097.93 233.331 1102.42 Q233.331 1104.55 232.521 1106.47 Q231.733 1108.37 229.627 1110.97 Q229.048 1111.64 225.946 1114.85 Q222.845 1118.05 217.197 1123.81 Z" fill="#000000" fill-rule="evenodd" fill-opacity="1" /><path clip-path="url(#clip390)" d="M127.799 897.833 L157.475 897.833 L157.475 901.768 L127.799 901.768 L127.799 897.833 Z" fill="#000000" fill-rule="evenodd" fill-opacity="1" /><path clip-path="url(#clip390)" d="M177.567 883.18 Q173.956 883.18 172.127 886.745 Q170.322 890.286 170.322 897.416 Q170.322 904.522 172.127 908.087 Q173.956 911.629 177.567 911.629 Q181.201 911.629 183.007 908.087 Q184.836 904.522 184.836 897.416 Q184.836 890.286 183.007 886.745 Q181.201 883.18 177.567 883.18 M177.567 879.476 Q183.377 879.476 186.433 884.083 Q189.511 888.666 189.511 897.416 Q189.511 906.143 186.433 910.749 Q183.377 915.332 177.567 915.332 Q171.757 915.332 168.678 910.749 Q165.623 906.143 165.623 897.416 Q165.623 888.666 168.678 884.083 Q171.757 879.476 177.567 879.476 Z" fill="#000000" fill-rule="evenodd" fill-opacity="1" /><path clip-path="url(#clip390)" d="M197.729 908.782 L202.613 908.782 L202.613 914.661 L197.729 914.661 L197.729 908.782 Z" fill="#000000" fill-rule="evenodd" fill-opacity="1" /><path clip-path="url(#clip390)" d="M213.609 910.726 L221.247 910.726 L221.247 884.36 L212.937 886.027 L212.937 881.768 L221.201 880.101 L225.877 880.101 L225.877 910.726 L233.516 910.726 L233.516 914.661 L213.609 914.661 L213.609 910.726 Z" fill="#000000" fill-rule="evenodd" fill-opacity="1" /><path clip-path="url(#clip390)" d="M176.34 670.094 Q172.729 670.094 170.9 673.658 Q169.095 677.2 169.095 684.33 Q169.095 691.436 170.9 695.001 Q172.729 698.542 176.34 698.542 Q179.975 698.542 181.78 695.001 Q183.609 691.436 183.609 684.33 Q183.609 677.2 181.78 673.658 Q179.975 670.094 176.34 670.094 M176.34 666.39 Q182.15 666.39 185.206 670.996 Q188.285 675.58 188.285 684.33 Q188.285 693.056 185.206 697.663 Q182.15 702.246 176.34 702.246 Q170.53 702.246 167.451 697.663 Q164.396 693.056 164.396 684.33 Q164.396 675.58 167.451 670.996 Q170.53 666.39 176.34 666.39 Z" fill="#000000" fill-rule="evenodd" fill-opacity="1" /><path clip-path="url(#clip390)" d="M196.502 695.695 L201.386 695.695 L201.386 701.575 L196.502 701.575 L196.502 695.695 Z" fill="#000000" fill-rule="evenodd" fill-opacity="1" /><path clip-path="url(#clip390)" d="M221.572 670.094 Q217.96 670.094 216.132 673.658 Q214.326 677.2 214.326 684.33 Q214.326 691.436 216.132 695.001 Q217.96 698.542 221.572 698.542 Q225.206 698.542 227.011 695.001 Q228.84 691.436 228.84 684.33 Q228.84 677.2 227.011 673.658 Q225.206 670.094 221.572 670.094 M221.572 666.39 Q227.382 666.39 230.437 670.996 Q233.516 675.58 233.516 684.33 Q233.516 693.056 230.437 697.663 Q227.382 702.246 221.572 702.246 Q215.761 702.246 212.683 697.663 Q209.627 693.056 209.627 684.33 Q209.627 675.58 212.683 670.996 Q215.761 666.39 221.572 666.39 Z" fill="#000000" fill-rule="evenodd" fill-opacity="1" /><path clip-path="url(#clip390)" d="M177.567 457.007 Q173.956 457.007 172.127 460.572 Q170.322 464.114 170.322 471.243 Q170.322 478.35 172.127 481.915 Q173.956 485.456 177.567 485.456 Q181.201 485.456 183.007 481.915 Q184.836 478.35 184.836 471.243 Q184.836 464.114 183.007 460.572 Q181.201 457.007 177.567 457.007 M177.567 453.304 Q183.377 453.304 186.433 457.91 Q189.511 462.493 189.511 471.243 Q189.511 479.97 186.433 484.577 Q183.377 489.16 177.567 489.16 Q171.757 489.16 168.678 484.577 Q165.623 479.97 165.623 471.243 Q165.623 462.493 168.678 457.91 Q171.757 453.304 177.567 453.304 Z" fill="#000000" fill-rule="evenodd" fill-opacity="1" /><path clip-path="url(#clip390)" d="M197.729 482.609 L202.613 482.609 L202.613 488.489 L197.729 488.489 L197.729 482.609 Z" fill="#000000" fill-rule="evenodd" fill-opacity="1" /><path clip-path="url(#clip390)" d="M213.609 484.553 L221.247 484.553 L221.247 458.188 L212.937 459.854 L212.937 455.595 L221.201 453.929 L225.877 453.929 L225.877 484.553 L233.516 484.553 L233.516 488.489 L213.609 488.489 L213.609 484.553 Z" fill="#000000" fill-rule="evenodd" fill-opacity="1" /><path clip-path="url(#clip390)" d="M177.937 243.921 Q174.326 243.921 172.498 247.486 Q170.692 251.027 170.692 258.157 Q170.692 265.263 172.498 268.828 Q174.326 272.37 177.937 272.37 Q181.572 272.37 183.377 268.828 Q185.206 265.263 185.206 258.157 Q185.206 251.027 183.377 247.486 Q181.572 243.921 177.937 243.921 M177.937 240.217 Q183.748 240.217 186.803 244.824 Q189.882 249.407 189.882 258.157 Q189.882 266.884 186.803 271.49 Q183.748 276.074 177.937 276.074 Q172.127 276.074 169.049 271.49 Q165.993 266.884 165.993 258.157 Q165.993 249.407 169.049 244.824 Q172.127 240.217 177.937 240.217 Z" fill="#000000" fill-rule="evenodd" fill-opacity="1" /><path clip-path="url(#clip390)" d="M198.099 269.523 L202.984 269.523 L202.984 275.402 L198.099 275.402 L198.099 269.523 Z" fill="#000000" fill-rule="evenodd" fill-opacity="1" /><path clip-path="url(#clip390)" d="M217.197 271.467 L233.516 271.467 L233.516 275.402 L211.572 275.402 L211.572 271.467 Q214.234 268.712 218.817 264.083 Q223.423 259.43 224.604 258.088 Q226.849 255.564 227.729 253.828 Q228.632 252.069 228.632 250.379 Q228.632 247.625 226.687 245.889 Q224.766 244.152 221.664 244.152 Q219.465 244.152 217.011 244.916 Q214.581 245.68 211.803 247.231 L211.803 242.509 Q214.627 241.375 217.081 240.796 Q219.534 240.217 221.572 240.217 Q226.942 240.217 230.136 242.902 Q233.331 245.588 233.331 250.078 Q233.331 252.208 232.521 254.129 Q231.733 256.027 229.627 258.62 Q229.048 259.291 225.946 262.509 Q222.845 265.703 217.197 271.467 Z" fill="#000000" fill-rule="evenodd" fill-opacity="1" /><path clip-path="url(#clip390)" d="M17.0023 722.674 Q18.1909 722.674 18.4369 723.207 Q18.6828 723.699 18.6828 725.502 Q18.6828 728.577 19.0927 729.97 Q19.4616 731.323 20.1174 731.733 Q20.7323 732.102 22.5358 732.553 L67.8699 743.907 Q67.9109 743.907 68.4848 744.03 Q69.0176 744.152 69.3046 744.152 Q69.8374 744.152 70.1653 743.825 Q70.4933 743.456 70.6572 742.554 Q70.7802 741.652 70.8212 740.955 Q70.8212 740.218 70.8212 738.701 Q70.8212 736.815 71.1491 736.528 Q71.354 736.365 71.7229 736.365 Q72.5017 736.365 72.9116 736.692 Q73.2805 736.979 73.3625 737.266 Q73.4035 737.512 73.4035 738.004 Q73.4035 738.865 73.3215 740.709 Q73.2395 742.554 73.2395 743.497 L73.1576 748.866 L73.4035 759.523 Q73.4035 760.671 72.4607 760.671 Q71.641 760.671 71.2721 760.384 Q70.9032 760.097 70.8622 759.81 Q70.8212 759.482 70.8212 758.663 Q70.8212 754.441 70.4113 753.047 Q69.9604 751.613 68.0339 751.039 L44.875 745.259 L44.875 770.837 L67.8699 776.575 Q67.9109 776.575 68.4848 776.698 Q69.0176 776.821 69.3046 776.821 Q69.8374 776.821 70.1653 776.493 Q70.4933 776.124 70.6572 775.222 Q70.7802 774.321 70.8212 773.624 Q70.8212 772.886 70.8212 771.369 Q70.8212 769.484 71.1491 769.156 Q71.354 768.992 71.7229 768.992 Q72.2968 768.992 72.7067 769.156 Q73.0756 769.279 73.1986 769.607 Q73.3215 769.894 73.3625 770.099 Q73.4035 770.304 73.4035 770.673 Q73.4035 771.533 73.3215 773.378 Q73.2395 775.181 73.2395 776.124 L73.1576 781.494 L73.4035 792.151 Q73.4035 793.34 72.4607 793.34 Q71.641 793.34 71.313 793.053 Q70.9441 792.766 70.9032 792.397 Q70.8212 792.028 70.8212 791.085 Q70.8212 789.036 70.6982 787.806 Q70.5752 786.576 70.4113 785.798 Q70.2063 784.978 69.6325 784.568 Q69.0586 784.117 68.5668 783.912 Q68.0339 783.707 66.8452 783.42 L21.757 772.189 Q20.4044 771.861 20.1994 771.861 Q19.4206 771.861 19.2157 772.353 Q18.9697 772.804 18.8468 774.116 L18.6828 777.313 Q18.6828 778.297 18.6418 778.706 Q18.6008 779.075 18.3959 779.362 Q18.1909 779.649 17.7401 779.649 Q17.1662 779.649 16.7973 779.526 Q16.3874 779.362 16.2644 779.075 Q16.1415 778.788 16.1005 778.583 Q16.0595 778.379 16.0595 778.051 L16.3054 767.229 L16.0595 756.49 Q16.0595 755.302 17.0023 755.302 Q18.1909 755.302 18.4369 755.834 Q18.6828 756.367 18.6828 758.171 Q18.6828 761.163 19.0927 762.557 Q19.4616 763.95 20.1174 764.401 Q20.7733 764.811 22.5358 765.221 L42.2516 770.181 L42.2516 744.562 L21.757 739.521 Q20.2814 739.193 20.1994 739.193 Q19.4206 739.193 19.2157 739.685 Q18.9697 740.136 18.8468 741.447 L18.6828 744.644 Q18.6828 745.628 18.6418 746.038 Q18.6008 746.407 18.3959 746.735 Q18.1909 747.022 17.7401 747.022 Q17.1662 747.022 16.7973 746.899 Q16.3874 746.735 16.2644 746.448 Q16.1415 746.161 16.1005 745.956 Q16.0595 745.751 16.0595 745.423 L16.3054 734.602 L16.0595 723.822 Q16.0595 722.674 17.0023 722.674 Z" fill="#000000" fill-rule="evenodd" fill-opacity="1" /><path clip-path="url(#clip390)" d="M57.1966 672.676 L72.1741 676.378 Q73.1209 676.636 73.2357 676.808 Q73.3505 676.952 73.3505 677.411 Q73.3505 678.3 72.7479 678.3 Q72.6905 678.3 71.9445 678.214 Q71.1698 678.128 69.7639 678.128 Q64.5706 678.128 61.5005 680.653 Q58.4304 683.149 58.4304 687.596 Q58.4304 691.757 60.611 695.745 Q62.7916 699.733 66.0052 702.287 Q68.6449 704.439 71.8584 705.931 Q75.072 707.394 77.8839 707.997 Q80.667 708.599 82.3599 708.829 Q84.0528 709.03 85.1431 709.03 Q88.3566 709.03 90.8529 707.997 Q93.3204 706.964 94.7264 705.242 Q96.1323 703.492 96.8209 701.484 Q97.5095 699.446 97.5095 697.237 Q97.5095 696.405 97.3948 695.401 Q97.28 694.397 96.8496 692.847 Q96.4192 691.269 95.7019 689.978 Q94.9846 688.658 93.6074 687.51 Q92.2301 686.334 90.3938 685.875 Q85.7169 684.641 85.0283 684.641 Q84.4545 684.641 84.2536 684.985 Q84.0528 685.33 83.9093 686.477 L83.7945 689.576 Q83.7945 689.634 83.7945 689.72 Q83.7945 690.265 83.7945 690.494 Q83.7658 690.724 83.7084 690.982 Q83.6511 691.212 83.5363 691.298 Q83.3928 691.355 83.1633 691.355 Q82.6181 691.355 82.3599 691.126 Q82.073 690.896 82.0443 690.695 Q81.9869 690.494 81.9869 690.121 L82.1591 681.887 Q82.1591 681.227 82.073 678.817 Q81.9869 676.406 81.9869 675.718 Q81.9869 674.943 82.6181 674.943 Q83.7945 674.943 83.7945 675.89 Q83.8232 676.837 83.8519 677.325 Q83.8519 677.812 83.9954 678.3 Q84.1388 678.759 84.2536 678.931 Q84.3397 679.103 84.7701 679.333 Q85.1718 679.563 85.5161 679.649 Q85.8317 679.735 86.6351 679.936 Q87.1515 680.05 88.1271 680.337 Q89.1026 680.595 89.6191 680.71 L94.1525 681.829 Q97.5095 682.604 97.7391 682.834 Q97.9686 682.948 97.9686 683.235 Q97.9686 683.666 96.7061 684.584 Q95.4437 685.473 94.3247 685.875 Q95.0994 686.592 95.5584 687.051 Q95.9888 687.51 96.6775 688.572 Q97.3661 689.605 97.9112 690.982 Q99.3172 694.339 99.3172 698.327 Q99.3172 705.443 94.8124 709.919 Q90.279 714.395 83.2207 714.395 Q78.2282 714.395 73.3218 712.1 Q68.4153 709.804 64.7714 706.161 Q61.1275 702.517 58.8607 697.696 Q56.594 692.876 56.594 688.056 Q56.594 686.219 57.0818 684.584 Q57.5696 682.948 58.1721 681.973 Q58.7747 680.968 59.6641 680.079 Q60.5249 679.19 60.9266 678.903 Q61.3283 678.587 61.8161 678.3 L57.3114 674.197 Q56.594 673.48 56.594 673.308 Q56.594 672.963 56.7949 672.82 Q56.9957 672.676 57.1966 672.676 Z" fill="#000000" fill-rule="evenodd" fill-opacity="1" /><polyline clip-path="url(#clip393)" style="stroke:#000000; stroke-linecap:butt; stroke-linejoin:round; stroke-width:4; stroke-opacity:1; fill:none" points="
  2012.19,1177.21 2012.19,245.257 
  "/>
<polyline clip-path="url(#clip393)" style="stroke:#000000; stroke-linecap:butt; stroke-linejoin:round; stroke-width:4; stroke-opacity:1; fill:none" points="
  328.476,845.795 328.476,85.8189 
  "/>
<polyline clip-path="url(#clip393)" style="stroke:#000000; stroke-linecap:butt; stroke-linejoin:round; stroke-width:4; stroke-opacity:1; fill:none" points="
  1730.64,946.315 1730.64,196.579 
  "/>
<polyline clip-path="url(#clip393)" style="stroke:#000000; stroke-linecap:butt; stroke-linejoin:round; stroke-width:4; stroke-opacity:1; fill:none" points="
  1167.93,972.314 1167.93,367.415 
  "/>
<polyline clip-path="url(#clip393)" style="stroke:#000000; stroke-linecap:butt; stroke-linejoin:round; stroke-width:4; stroke-opacity:1; fill:none" points="
  606.991,888.454 606.991,186.455 
  "/>
<polyline clip-path="url(#clip393)" style="stroke:#000000; stroke-linecap:butt; stroke-linejoin:round; stroke-width:4; stroke-opacity:1; fill:none" points="
  1449.18,1117.62 1449.18,485.745 
  "/>
<polyline clip-path="url(#clip393)" style="stroke:#000000; stroke-linecap:butt; stroke-linejoin:round; stroke-width:4; stroke-opacity:1; fill:none" points="
  2293.8,1371.65 2293.8,120.814 
  "/>
<polyline clip-path="url(#clip393)" style="stroke:#000000; stroke-linecap:butt; stroke-linejoin:round; stroke-width:4; stroke-opacity:1; fill:none" points="
  887.066,1036.93 887.066,390.656 
  "/>
<line clip-path="url(#clip393)" x1="2028.19" y1="1177.21" x2="1996.19" y2="1177.21" style="stroke:#000000; stroke-width:3.2; stroke-opacity:1"/>
<line clip-path="url(#clip393)" x1="2028.19" y1="245.257" x2="1996.19" y2="245.257" style="stroke:#000000; stroke-width:3.2; stroke-opacity:1"/>
<line clip-path="url(#clip393)" x1="344.476" y1="845.795" x2="312.476" y2="845.795" style="stroke:#000000; stroke-width:3.2; stroke-opacity:1"/>
<line clip-path="url(#clip393)" x1="344.476" y1="85.8189" x2="312.476" y2="85.8189" style="stroke:#000000; stroke-width:3.2; stroke-opacity:1"/>
<line clip-path="url(#clip393)" x1="1746.64" y1="946.315" x2="1714.64" y2="946.315" style="stroke:#000000; stroke-width:3.2; stroke-opacity:1"/>
<line clip-path="url(#clip393)" x1="1746.64" y1="196.579" x2="1714.64" y2="196.579" style="stroke:#000000; stroke-width:3.2; stroke-opacity:1"/>
<line clip-path="url(#clip393)" x1="1183.93" y1="972.314" x2="1151.93" y2="972.314" style="stroke:#000000; stroke-width:3.2; stroke-opacity:1"/>
<line clip-path="url(#clip393)" x1="1183.93" y1="367.415" x2="1151.93" y2="367.415" style="stroke:#000000; stroke-width:3.2; stroke-opacity:1"/>
<line clip-path="url(#clip393)" x1="622.991" y1="888.454" x2="590.991" y2="888.454" style="stroke:#000000; stroke-width:3.2; stroke-opacity:1"/>
<line clip-path="url(#clip393)" x1="622.991" y1="186.455" x2="590.991" y2="186.455" style="stroke:#000000; stroke-width:3.2; stroke-opacity:1"/>
<line clip-path="url(#clip393)" x1="1465.18" y1="1117.62" x2="1433.18" y2="1117.62" style="stroke:#000000; stroke-width:3.2; stroke-opacity:1"/>
<line clip-path="url(#clip393)" x1="1465.18" y1="485.745" x2="1433.18" y2="485.745" style="stroke:#000000; stroke-width:3.2; stroke-opacity:1"/>
<line clip-path="url(#clip393)" x1="2309.8" y1="1371.65" x2="2277.8" y2="1371.65" style="stroke:#000000; stroke-width:3.2; stroke-opacity:1"/>
<line clip-path="url(#clip393)" x1="2309.8" y1="120.814" x2="2277.8" y2="120.814" style="stroke:#000000; stroke-width:3.2; stroke-opacity:1"/>
<line clip-path="url(#clip393)" x1="903.066" y1="1036.93" x2="871.066" y2="1036.93" style="stroke:#000000; stroke-width:3.2; stroke-opacity:1"/>
<line clip-path="url(#clip393)" x1="903.066" y1="390.656" x2="871.066" y2="390.656" style="stroke:#000000; stroke-width:3.2; stroke-opacity:1"/>
<line clip-path="url(#clip393)" x1="2028.19" y1="711.235" x2="1996.19" y2="711.235" style="stroke:#000000; stroke-width:3.2; stroke-opacity:1"/>
<line clip-path="url(#clip393)" x1="344.476" y1="465.807" x2="312.476" y2="465.807" style="stroke:#000000; stroke-width:3.2; stroke-opacity:1"/>
<line clip-path="url(#clip393)" x1="1746.64" y1="571.447" x2="1714.64" y2="571.447" style="stroke:#000000; stroke-width:3.2; stroke-opacity:1"/>
<line clip-path="url(#clip393)" x1="1183.93" y1="669.864" x2="1151.93" y2="669.864" style="stroke:#000000; stroke-width:3.2; stroke-opacity:1"/>
<line clip-path="url(#clip393)" x1="622.991" y1="537.454" x2="590.991" y2="537.454" style="stroke:#000000; stroke-width:3.2; stroke-opacity:1"/>
<line clip-path="url(#clip393)" x1="1465.18" y1="801.685" x2="1433.18" y2="801.685" style="stroke:#000000; stroke-width:3.2; stroke-opacity:1"/>
<line clip-path="url(#clip393)" x1="2309.8" y1="746.23" x2="2277.8" y2="746.23" style="stroke:#000000; stroke-width:3.2; stroke-opacity:1"/>
<line clip-path="url(#clip393)" x1="903.066" y1="713.795" x2="871.066" y2="713.795" style="stroke:#000000; stroke-width:3.2; stroke-opacity:1"/>
<polyline clip-path="url(#clip393)" style="stroke:#808080; stroke-linecap:butt; stroke-linejoin:round; stroke-width:4; stroke-opacity:1; fill:none" stroke-dasharray="16, 10" points="
  -1813.72,684.295 4436,684.295 
  "/>
<polyline clip-path="url(#clip393)" style="stroke:#808080; stroke-linecap:butt; stroke-linejoin:round; stroke-width:4; stroke-opacity:1; fill:none" stroke-dasharray="16, 10" points="
  -1813.72,684.295 4436,684.295 
  "/>
</svg>
