<?xml version="1.0" encoding="utf-8"?>
<svg xmlns="http://www.w3.org/2000/svg" xmlns:xlink="http://www.w3.org/1999/xlink" width="600" height="400" viewBox="0 0 2400 1600">
<defs>
  <clipPath id="clip450">
    <rect x="0" y="0" width="2400" height="1600"/>
  </clipPath>
</defs>
<path clip-path="url(#clip450)" d="
M0 1600 L2400 1600 L2400 0 L0 0  Z
  " fill="#000000" fill-rule="evenodd" fill-opacity="0"/>
<defs>
  <clipPath id="clip451">
    <rect x="480" y="0" width="1681" height="1600"/>
  </clipPath>
</defs>
<defs>
  <clipPath id="clip452">
    <rect x="260" y="47" width="2093" height="1364"/>
  </clipPath>
</defs>
<path clip-path="url(#clip450)" d="
M300.326 1410.22 L2352.76 1410.22 L2352.76 47.2441 L300.326 47.2441  Z
  " fill="#000000" fill-rule="evenodd" fill-opacity="0"/>
<defs>
  <clipPath id="clip453">
    <rect x="300" y="47" width="2053" height="1364"/>
  </clipPath>
</defs>
<polyline clip-path="url(#clip450)" style="stroke:#000000; stroke-linecap:butt; stroke-linejoin:round; stroke-width:4; stroke-opacity:1; fill:none" points="
  300.326,1410.22 2352.76,1410.22 
  "/>
<polyline clip-path="url(#clip450)" style="stroke:#000000; stroke-linecap:butt; stroke-linejoin:round; stroke-width:4; stroke-opacity:1; fill:none" points="
  421.579,1410.22 421.579,1391.32 
  "/>
<polyline clip-path="url(#clip450)" style="stroke:#000000; stroke-linecap:butt; stroke-linejoin:round; stroke-width:4; stroke-opacity:1; fill:none" points="
  768.438,1410.22 768.438,1391.32 
  "/>
<polyline clip-path="url(#clip450)" style="stroke:#000000; stroke-linecap:butt; stroke-linejoin:round; stroke-width:4; stroke-opacity:1; fill:none" points="
  1115.3,1410.22 1115.3,1391.32 
  "/>
<polyline clip-path="url(#clip450)" style="stroke:#000000; stroke-linecap:butt; stroke-linejoin:round; stroke-width:4; stroke-opacity:1; fill:none" points="
  1462.16,1410.22 1462.16,1391.32 
  "/>
<polyline clip-path="url(#clip450)" style="stroke:#000000; stroke-linecap:butt; stroke-linejoin:round; stroke-width:4; stroke-opacity:1; fill:none" points="
  1809.02,1410.22 1809.02,1391.32 
  "/>
<polyline clip-path="url(#clip450)" style="stroke:#000000; stroke-linecap:butt; stroke-linejoin:round; stroke-width:4; stroke-opacity:1; fill:none" points="
  2155.88,1410.22 2155.88,1391.32 
  "/>
<path clip-path="url(#clip450)" d="M374.148 1468.68 L381.787 1468.68 L381.787 1442.32 L373.477 1443.99 L373.477 1439.73 L381.741 1438.06 L386.417 1438.06 L386.417 1468.68 L394.056 1468.68 L394.056 1472.62 L374.148 1472.62 L374.148 1468.68 Z" fill="#000000" fill-rule="evenodd" fill-opacity="1" /><path clip-path="url(#clip450)" d="M407.528 1468.68 L423.847 1468.68 L423.847 1472.62 L401.903 1472.62 L401.903 1468.68 Q404.565 1465.93 409.148 1461.3 Q413.755 1456.65 414.935 1455.31 Q417.181 1452.78 418.06 1451.05 Q418.963 1449.29 418.963 1447.6 Q418.963 1444.84 417.018 1443.11 Q415.097 1441.37 411.995 1441.37 Q409.796 1441.37 407.343 1442.13 Q404.912 1442.9 402.134 1444.45 L402.134 1439.73 Q404.958 1438.59 407.412 1438.01 Q409.866 1437.43 411.903 1437.43 Q417.273 1437.43 420.468 1440.12 Q423.662 1442.81 423.662 1447.3 Q423.662 1449.43 422.852 1451.35 Q422.065 1453.24 419.958 1455.84 Q419.38 1456.51 416.278 1459.73 Q413.176 1462.92 407.528 1468.68 Z" fill="#000000" fill-rule="evenodd" fill-opacity="1" /><path clip-path="url(#clip450)" d="M433.662 1466.74 L438.546 1466.74 L438.546 1472.62 L433.662 1472.62 L433.662 1466.74 Z" fill="#000000" fill-rule="evenodd" fill-opacity="1" /><path clip-path="url(#clip450)" d="M448.778 1438.06 L467.134 1438.06 L467.134 1442 L453.06 1442 L453.06 1450.47 Q454.078 1450.12 455.097 1449.96 Q456.115 1449.77 457.134 1449.77 Q462.921 1449.77 466.301 1452.94 Q469.68 1456.12 469.68 1461.53 Q469.68 1467.11 466.208 1470.21 Q462.736 1473.29 456.416 1473.29 Q454.24 1473.29 451.972 1472.92 Q449.727 1472.55 447.319 1471.81 L447.319 1467.11 Q449.403 1468.24 451.625 1468.8 Q453.847 1469.36 456.324 1469.36 Q460.328 1469.36 462.666 1467.25 Q465.004 1465.14 465.004 1461.53 Q465.004 1457.92 462.666 1455.81 Q460.328 1453.71 456.324 1453.71 Q454.449 1453.71 452.574 1454.12 Q450.722 1454.54 448.778 1455.42 L448.778 1438.06 Z" fill="#000000" fill-rule="evenodd" fill-opacity="1" /><path clip-path="url(#clip450)" d="M720.51 1468.68 L728.149 1468.68 L728.149 1442.32 L719.839 1443.99 L719.839 1439.73 L728.103 1438.06 L732.779 1438.06 L732.779 1468.68 L740.417 1468.68 L740.417 1472.62 L720.51 1472.62 L720.51 1468.68 Z" fill="#000000" fill-rule="evenodd" fill-opacity="1" /><path clip-path="url(#clip450)" d="M749.908 1438.06 L768.264 1438.06 L768.264 1442 L754.19 1442 L754.19 1450.47 Q755.209 1450.12 756.227 1449.96 Q757.246 1449.77 758.264 1449.77 Q764.051 1449.77 767.431 1452.94 Q770.811 1456.12 770.811 1461.53 Q770.811 1467.11 767.339 1470.21 Q763.866 1473.29 757.547 1473.29 Q755.371 1473.29 753.102 1472.92 Q750.857 1472.55 748.45 1471.81 L748.45 1467.11 Q750.533 1468.24 752.755 1468.8 Q754.977 1469.36 757.454 1469.36 Q761.459 1469.36 763.797 1467.25 Q766.135 1465.14 766.135 1461.53 Q766.135 1457.92 763.797 1455.81 Q761.459 1453.71 757.454 1453.71 Q755.579 1453.71 753.704 1454.12 Q751.852 1454.54 749.908 1455.42 L749.908 1438.06 Z" fill="#000000" fill-rule="evenodd" fill-opacity="1" /><path clip-path="url(#clip450)" d="M780.024 1466.74 L784.908 1466.74 L784.908 1472.62 L780.024 1472.62 L780.024 1466.74 Z" fill="#000000" fill-rule="evenodd" fill-opacity="1" /><path clip-path="url(#clip450)" d="M805.093 1441.14 Q801.482 1441.14 799.653 1444.7 Q797.848 1448.24 797.848 1455.37 Q797.848 1462.48 799.653 1466.05 Q801.482 1469.59 805.093 1469.59 Q808.727 1469.59 810.533 1466.05 Q812.361 1462.48 812.361 1455.37 Q812.361 1448.24 810.533 1444.7 Q808.727 1441.14 805.093 1441.14 M805.093 1437.43 Q810.903 1437.43 813.959 1442.04 Q817.037 1446.62 817.037 1455.37 Q817.037 1464.1 813.959 1468.71 Q810.903 1473.29 805.093 1473.29 Q799.283 1473.29 796.204 1468.71 Q793.149 1464.1 793.149 1455.37 Q793.149 1446.62 796.204 1442.04 Q799.283 1437.43 805.093 1437.43 Z" fill="#000000" fill-rule="evenodd" fill-opacity="1" /><path clip-path="url(#clip450)" d="M1067.87 1468.68 L1075.51 1468.68 L1075.51 1442.32 L1067.2 1443.99 L1067.2 1439.73 L1075.46 1438.06 L1080.14 1438.06 L1080.14 1468.68 L1087.77 1468.68 L1087.77 1472.62 L1067.87 1472.62 L1067.87 1468.68 Z" fill="#000000" fill-rule="evenodd" fill-opacity="1" /><path clip-path="url(#clip450)" d="M1096.04 1438.06 L1118.26 1438.06 L1118.26 1440.05 L1105.71 1472.62 L1100.83 1472.62 L1112.64 1442 L1096.04 1442 L1096.04 1438.06 Z" fill="#000000" fill-rule="evenodd" fill-opacity="1" /><path clip-path="url(#clip450)" d="M1127.38 1466.74 L1132.26 1466.74 L1132.26 1472.62 L1127.38 1472.62 L1127.38 1466.74 Z" fill="#000000" fill-rule="evenodd" fill-opacity="1" /><path clip-path="url(#clip450)" d="M1142.5 1438.06 L1160.85 1438.06 L1160.85 1442 L1146.78 1442 L1146.78 1450.47 Q1147.8 1450.12 1148.82 1449.96 Q1149.83 1449.77 1150.85 1449.77 Q1156.64 1449.77 1160.02 1452.94 Q1163.4 1456.12 1163.4 1461.53 Q1163.4 1467.11 1159.93 1470.21 Q1156.45 1473.29 1150.14 1473.29 Q1147.96 1473.29 1145.69 1472.92 Q1143.45 1472.55 1141.04 1471.81 L1141.04 1467.11 Q1143.12 1468.24 1145.34 1468.8 Q1147.57 1469.36 1150.04 1469.36 Q1154.05 1469.36 1156.39 1467.25 Q1158.72 1465.14 1158.72 1461.53 Q1158.72 1457.92 1156.39 1455.81 Q1154.05 1453.71 1150.04 1453.71 Q1148.17 1453.71 1146.29 1454.12 Q1144.44 1454.54 1142.5 1455.42 L1142.5 1438.06 Z" fill="#000000" fill-rule="evenodd" fill-opacity="1" /><path clip-path="url(#clip450)" d="M1418.31 1468.68 L1434.63 1468.68 L1434.63 1472.62 L1412.69 1472.62 L1412.69 1468.68 Q1415.35 1465.93 1419.93 1461.3 Q1424.54 1456.65 1425.72 1455.31 Q1427.97 1452.78 1428.85 1451.05 Q1429.75 1449.29 1429.75 1447.6 Q1429.75 1444.84 1427.81 1443.11 Q1425.88 1441.37 1422.78 1441.37 Q1420.58 1441.37 1418.13 1442.13 Q1415.7 1442.9 1412.92 1444.45 L1412.92 1439.73 Q1415.75 1438.59 1418.2 1438.01 Q1420.65 1437.43 1422.69 1437.43 Q1428.06 1437.43 1431.25 1440.12 Q1434.45 1442.81 1434.45 1447.3 Q1434.45 1449.43 1433.64 1451.35 Q1432.85 1453.24 1430.74 1455.84 Q1430.17 1456.51 1427.06 1459.73 Q1423.96 1462.92 1418.31 1468.68 Z" fill="#000000" fill-rule="evenodd" fill-opacity="1" /><path clip-path="url(#clip450)" d="M1454.45 1441.14 Q1450.84 1441.14 1449.01 1444.7 Q1447.2 1448.24 1447.2 1455.37 Q1447.2 1462.48 1449.01 1466.05 Q1450.84 1469.59 1454.45 1469.59 Q1458.08 1469.59 1459.89 1466.05 Q1461.72 1462.48 1461.72 1455.37 Q1461.72 1448.24 1459.89 1444.7 Q1458.08 1441.14 1454.45 1441.14 M1454.45 1437.43 Q1460.26 1437.43 1463.31 1442.04 Q1466.39 1446.62 1466.39 1455.37 Q1466.39 1464.1 1463.31 1468.71 Q1460.26 1473.29 1454.45 1473.29 Q1448.64 1473.29 1445.56 1468.71 Q1442.5 1464.1 1442.5 1455.37 Q1442.5 1446.62 1445.56 1442.04 Q1448.64 1437.43 1454.45 1437.43 Z" fill="#000000" fill-rule="evenodd" fill-opacity="1" /><path clip-path="url(#clip450)" d="M1474.61 1466.74 L1479.49 1466.74 L1479.49 1472.62 L1474.61 1472.62 L1474.61 1466.74 Z" fill="#000000" fill-rule="evenodd" fill-opacity="1" /><path clip-path="url(#clip450)" d="M1499.68 1441.14 Q1496.07 1441.14 1494.24 1444.7 Q1492.43 1448.24 1492.43 1455.37 Q1492.43 1462.48 1494.24 1466.05 Q1496.07 1469.59 1499.68 1469.59 Q1503.31 1469.59 1505.12 1466.05 Q1506.95 1462.48 1506.95 1455.37 Q1506.95 1448.24 1505.12 1444.7 Q1503.31 1441.14 1499.68 1441.14 M1499.68 1437.43 Q1505.49 1437.43 1508.55 1442.04 Q1511.62 1446.62 1511.62 1455.37 Q1511.62 1464.1 1508.55 1468.71 Q1505.49 1473.29 1499.68 1473.29 Q1493.87 1473.29 1490.79 1468.71 Q1487.74 1464.1 1487.74 1455.37 Q1487.74 1446.62 1490.79 1442.04 Q1493.87 1437.43 1499.68 1437.43 Z" fill="#000000" fill-rule="evenodd" fill-opacity="1" /><path clip-path="url(#clip450)" d="M1765.67 1468.68 L1781.99 1468.68 L1781.99 1472.62 L1760.05 1472.62 L1760.05 1468.68 Q1762.71 1465.93 1767.29 1461.3 Q1771.9 1456.65 1773.08 1455.31 Q1775.32 1452.78 1776.2 1451.05 Q1777.11 1449.29 1777.11 1447.6 Q1777.11 1444.84 1775.16 1443.11 Q1773.24 1441.37 1770.14 1441.37 Q1767.94 1441.37 1765.49 1442.13 Q1763.06 1442.9 1760.28 1444.45 L1760.28 1439.73 Q1763.1 1438.59 1765.56 1438.01 Q1768.01 1437.43 1770.05 1437.43 Q1775.42 1437.43 1778.61 1440.12 Q1781.81 1442.81 1781.81 1447.3 Q1781.81 1449.43 1781 1451.35 Q1780.21 1453.24 1778.1 1455.84 Q1777.52 1456.51 1774.42 1459.73 Q1771.32 1462.92 1765.67 1468.68 Z" fill="#000000" fill-rule="evenodd" fill-opacity="1" /><path clip-path="url(#clip450)" d="M1795.83 1468.68 L1812.15 1468.68 L1812.15 1472.62 L1790.21 1472.62 L1790.21 1468.68 Q1792.87 1465.93 1797.45 1461.3 Q1802.06 1456.65 1803.24 1455.31 Q1805.49 1452.78 1806.37 1451.05 Q1807.27 1449.29 1807.27 1447.6 Q1807.27 1444.84 1805.32 1443.11 Q1803.4 1441.37 1800.3 1441.37 Q1798.1 1441.37 1795.65 1442.13 Q1793.22 1442.9 1790.44 1444.45 L1790.44 1439.73 Q1793.26 1438.59 1795.72 1438.01 Q1798.17 1437.43 1800.21 1437.43 Q1805.58 1437.43 1808.77 1440.12 Q1811.97 1442.81 1811.97 1447.3 Q1811.97 1449.43 1811.16 1451.35 Q1810.37 1453.24 1808.26 1455.84 Q1807.69 1456.51 1804.58 1459.73 Q1801.48 1462.92 1795.83 1468.68 Z" fill="#000000" fill-rule="evenodd" fill-opacity="1" /><path clip-path="url(#clip450)" d="M1821.97 1466.74 L1826.85 1466.74 L1826.85 1472.62 L1821.97 1472.62 L1821.97 1466.74 Z" fill="#000000" fill-rule="evenodd" fill-opacity="1" /><path clip-path="url(#clip450)" d="M1837.08 1438.06 L1855.44 1438.06 L1855.44 1442 L1841.37 1442 L1841.37 1450.47 Q1842.38 1450.12 1843.4 1449.96 Q1844.42 1449.77 1845.44 1449.77 Q1851.23 1449.77 1854.61 1452.94 Q1857.99 1456.12 1857.99 1461.53 Q1857.99 1467.11 1854.51 1470.21 Q1851.04 1473.29 1844.72 1473.29 Q1842.55 1473.29 1840.28 1472.92 Q1838.03 1472.55 1835.62 1471.81 L1835.62 1467.11 Q1837.71 1468.24 1839.93 1468.8 Q1842.15 1469.36 1844.63 1469.36 Q1848.63 1469.36 1850.97 1467.25 Q1853.31 1465.14 1853.31 1461.53 Q1853.31 1457.92 1850.97 1455.81 Q1848.63 1453.71 1844.63 1453.71 Q1842.75 1453.71 1840.88 1454.12 Q1839.03 1454.54 1837.08 1455.42 L1837.08 1438.06 Z" fill="#000000" fill-rule="evenodd" fill-opacity="1" /><path clip-path="url(#clip450)" d="M2112.03 1468.68 L2128.35 1468.68 L2128.35 1472.62 L2106.41 1472.62 L2106.41 1468.68 Q2109.07 1465.93 2113.65 1461.3 Q2118.26 1456.65 2119.44 1455.31 Q2121.69 1452.78 2122.57 1451.05 Q2123.47 1449.29 2123.47 1447.6 Q2123.47 1444.84 2121.52 1443.11 Q2119.6 1441.37 2116.5 1441.37 Q2114.3 1441.37 2111.85 1442.13 Q2109.42 1442.9 2106.64 1444.45 L2106.64 1439.73 Q2109.46 1438.59 2111.92 1438.01 Q2114.37 1437.43 2116.41 1437.43 Q2121.78 1437.43 2124.97 1440.12 Q2128.17 1442.81 2128.17 1447.3 Q2128.17 1449.43 2127.36 1451.35 Q2126.57 1453.24 2124.46 1455.84 Q2123.89 1456.51 2120.78 1459.73 Q2117.68 1462.92 2112.03 1468.68 Z" fill="#000000" fill-rule="evenodd" fill-opacity="1" /><path clip-path="url(#clip450)" d="M2138.21 1438.06 L2156.57 1438.06 L2156.57 1442 L2142.5 1442 L2142.5 1450.47 Q2143.51 1450.12 2144.53 1449.96 Q2145.55 1449.77 2146.57 1449.77 Q2152.36 1449.77 2155.74 1452.94 Q2159.12 1456.12 2159.12 1461.53 Q2159.12 1467.11 2155.64 1470.21 Q2152.17 1473.29 2145.85 1473.29 Q2143.68 1473.29 2141.41 1472.92 Q2139.16 1472.55 2136.76 1471.81 L2136.76 1467.11 Q2138.84 1468.24 2141.06 1468.8 Q2143.28 1469.36 2145.76 1469.36 Q2149.76 1469.36 2152.1 1467.25 Q2154.44 1465.14 2154.44 1461.53 Q2154.44 1457.92 2152.1 1455.81 Q2149.76 1453.71 2145.76 1453.71 Q2143.88 1453.71 2142.01 1454.12 Q2140.16 1454.54 2138.21 1455.42 L2138.21 1438.06 Z" fill="#000000" fill-rule="evenodd" fill-opacity="1" /><path clip-path="url(#clip450)" d="M2168.33 1466.74 L2173.21 1466.74 L2173.21 1472.62 L2168.33 1472.62 L2168.33 1466.74 Z" fill="#000000" fill-rule="evenodd" fill-opacity="1" /><path clip-path="url(#clip450)" d="M2193.4 1441.14 Q2189.79 1441.14 2187.96 1444.7 Q2186.15 1448.24 2186.15 1455.37 Q2186.15 1462.48 2187.96 1466.05 Q2189.79 1469.59 2193.4 1469.59 Q2197.03 1469.59 2198.84 1466.05 Q2200.67 1462.48 2200.67 1455.37 Q2200.67 1448.24 2198.84 1444.7 Q2197.03 1441.14 2193.4 1441.14 M2193.4 1437.43 Q2199.21 1437.43 2202.26 1442.04 Q2205.34 1446.62 2205.34 1455.37 Q2205.34 1464.1 2202.26 1468.71 Q2199.21 1473.29 2193.4 1473.29 Q2187.59 1473.29 2184.51 1468.71 Q2181.45 1464.1 2181.45 1455.37 Q2181.45 1446.62 2184.51 1442.04 Q2187.59 1437.43 2193.4 1437.43 Z" fill="#000000" fill-rule="evenodd" fill-opacity="1" /><path clip-path="url(#clip450)" d="M1193.29 1575.03 L1193.29 1572.45 Q1197.76 1572.45 1198.78 1571.91 Q1199.81 1571.34 1199.81 1568.63 L1199.81 1524.98 Q1199.81 1521.86 1198.7 1521.09 Q1197.63 1520.31 1193.29 1520.31 L1193.29 1517.68 L1205.34 1516.78 L1205.34 1568.63 Q1205.34 1571.34 1206.41 1571.91 Q1207.47 1572.45 1211.9 1572.45 L1211.9 1575.03 Q1210.87 1575.03 1208.74 1574.95 Q1206.61 1574.86 1205.05 1574.82 Q1203.5 1574.78 1202.59 1574.78 Q1201.61 1574.78 1193.29 1575.03 Z" fill="#000000" fill-rule="evenodd" fill-opacity="1" /><path clip-path="url(#clip450)" d="M1224.53 1570.52 Q1219 1565.03 1219 1557.07 Q1219 1549.08 1224.41 1543.26 Q1229.86 1537.4 1237.65 1537.4 Q1245.27 1537.4 1250.72 1543.22 Q1256.21 1549 1256.21 1557.07 Q1256.21 1564.99 1250.68 1570.48 Q1245.19 1575.97 1237.56 1575.97 Q1230.1 1575.97 1224.53 1570.52 M1225.96 1556.38 Q1225.96 1564.53 1228.09 1568.22 Q1231.37 1573.84 1237.65 1573.84 Q1240.76 1573.84 1243.34 1572.16 Q1245.97 1570.48 1247.4 1567.65 Q1249.25 1563.96 1249.25 1556.38 Q1249.25 1548.3 1247.03 1544.74 Q1243.75 1539.29 1237.56 1539.29 Q1234.86 1539.29 1232.19 1540.72 Q1229.57 1542.11 1227.97 1544.9 Q1225.96 1548.59 1225.96 1556.38 Z" fill="#000000" fill-rule="evenodd" fill-opacity="1" /><path clip-path="url(#clip450)" d="M1257.54 1581.67 Q1257.54 1578.96 1259.59 1576.63 Q1261.68 1574.29 1265.29 1573.27 Q1261.6 1570.93 1261.6 1565.81 Q1261.6 1561.87 1264.18 1558.84 Q1260.25 1555.56 1260.25 1550.19 Q1260.25 1545.23 1264.18 1541.58 Q1268.12 1537.93 1273.86 1537.93 Q1278.9 1537.93 1282.75 1540.97 Q1286.77 1537.03 1291.64 1536.99 Q1293.82 1536.99 1294.84 1538.34 Q1295.91 1539.69 1295.91 1541.13 Q1295.91 1542.4 1295.09 1543.02 Q1294.31 1543.63 1293.49 1543.63 Q1292.46 1543.63 1291.73 1542.97 Q1291.03 1542.28 1291.03 1541.21 Q1291.03 1539.45 1292.38 1538.92 Q1292.14 1538.83 1291.56 1538.83 Q1287.46 1538.83 1283.98 1542.11 Q1287.42 1545.31 1287.42 1550.27 Q1287.42 1555.23 1283.49 1558.88 Q1279.55 1562.53 1273.86 1562.53 Q1269.14 1562.53 1265.53 1559.9 Q1264.1 1561.58 1264.1 1563.88 Q1264.1 1565.97 1265.37 1567.61 Q1266.64 1569.25 1268.57 1569.49 Q1269.14 1569.58 1274.84 1569.58 Q1278.2 1569.58 1280.04 1569.66 Q1281.89 1569.74 1284.51 1570.31 Q1287.18 1570.85 1289.27 1571.91 Q1294.72 1574.95 1294.76 1581.5 Q1294.76 1586.3 1289.23 1589.29 Q1283.73 1592.33 1276.11 1592.33 Q1268.4 1592.33 1262.95 1589.25 Q1257.54 1586.22 1257.54 1581.67 M1261.93 1581.67 Q1261.93 1585.11 1265.99 1587.73 Q1270.04 1590.4 1276.19 1590.4 Q1282.22 1590.4 1286.28 1587.78 Q1290.37 1585.19 1290.37 1581.67 Q1290.37 1579.17 1288.94 1577.57 Q1287.5 1575.97 1284.55 1575.31 Q1281.64 1574.7 1279.59 1574.58 Q1277.54 1574.45 1273.77 1574.45 L1268.81 1574.45 Q1265.94 1574.62 1263.94 1576.71 Q1261.93 1578.8 1261.93 1581.67 M1266.52 1550.27 Q1266.52 1560.6 1273.86 1560.6 Q1277.54 1560.6 1279.8 1557.24 Q1281.15 1554.98 1281.15 1550.19 Q1281.15 1539.86 1273.86 1539.86 Q1270.17 1539.86 1267.87 1543.22 Q1266.52 1545.47 1266.52 1550.27 Z" fill="#000000" fill-rule="evenodd" fill-opacity="1" /><path clip-path="url(#clip450)" d="M1304.49 1598.29 Q1304.49 1597.22 1304.57 1596.91 Q1304.69 1596.59 1305.15 1596.1 L1316.42 1583.54 Q1322.59 1576.59 1322.59 1570.54 Q1322.59 1566.61 1320.53 1563.8 Q1318.49 1560.98 1314.73 1560.98 Q1312.15 1560.98 1309.97 1562.56 Q1307.79 1564.14 1306.78 1566.95 Q1306.95 1566.9 1307.56 1566.9 Q1309.02 1566.9 1309.82 1567.81 Q1310.65 1568.73 1310.65 1569.97 Q1310.65 1571.54 1309.62 1572.32 Q1308.62 1573.06 1307.61 1573.06 Q1307.21 1573.06 1306.67 1572.98 Q1306.15 1572.89 1305.32 1572.09 Q1304.49 1571.26 1304.49 1569.79 Q1304.49 1565.69 1307.58 1562.42 Q1310.71 1559.15 1315.48 1559.15 Q1320.87 1559.15 1324.4 1562.36 Q1327.96 1565.55 1327.96 1570.54 Q1327.96 1572.29 1327.41 1573.9 Q1326.89 1575.47 1326.18 1576.71 Q1325.49 1577.94 1323.6 1579.92 Q1321.7 1581.9 1320.18 1583.31 Q1318.66 1584.71 1315.25 1587.7 L1309.02 1593.75 L1319.61 1593.75 Q1324.77 1593.75 1325.17 1593.29 Q1325.75 1592.46 1326.46 1588.07 L1327.96 1588.07 L1326.29 1598.29 L1304.49 1598.29 Z" fill="#000000" fill-rule="evenodd" fill-opacity="1" /><path clip-path="url(#clip450)" d="M1336.69 1593.43 L1336.69 1515.27 Q1336.69 1512.15 1338.37 1512.15 Q1340.05 1512.15 1340.05 1514.65 L1340.05 1592.82 Q1340.05 1595.93 1338.37 1595.93 Q1336.69 1595.93 1336.69 1593.43 Z" fill="#000000" fill-rule="evenodd" fill-opacity="1" /><path clip-path="url(#clip450)" d="M1414.38 1518.71 Q1414.3 1520.23 1413.27 1520.31 Q1411.72 1520.39 1410.77 1520.59 Q1409.83 1520.76 1408.36 1521.37 Q1406.88 1521.99 1405.45 1523.46 Q1404.01 1524.94 1402.54 1527.28 L1372.33 1575.36 Q1371.79 1576.26 1371.34 1576.54 Q1370.93 1576.87 1369.99 1576.87 Q1369.13 1576.87 1368.8 1576.5 Q1368.47 1576.18 1368.31 1574.95 L1361.67 1523.14 Q1361.55 1522.19 1361.42 1521.78 Q1361.3 1521.37 1360.81 1520.96 Q1360.36 1520.55 1359.37 1520.43 Q1358.39 1520.31 1356.63 1520.31 Q1355.81 1520.31 1355.44 1520.27 Q1355.11 1520.23 1354.82 1520.02 Q1354.54 1519.77 1354.54 1519.28 Q1354.54 1518.54 1354.82 1518.18 Q1355.15 1517.77 1355.4 1517.72 Q1355.68 1517.68 1356.14 1517.68 Q1356.83 1517.68 1358.35 1517.77 Q1359.87 1517.85 1360.64 1517.85 Q1361.38 1517.85 1362.94 1517.89 Q1364.5 1517.93 1365.28 1517.93 Q1367 1517.93 1370.48 1517.81 Q1374.01 1517.68 1375.69 1517.68 Q1376.83 1517.68 1376.83 1518.63 Q1376.83 1519.77 1376.34 1520.06 Q1375.85 1520.31 1374.74 1520.31 Q1371.96 1520.31 1370.44 1521 Q1368.97 1521.7 1368.97 1522.81 L1374.66 1567.24 L1400.44 1526.25 Q1401.72 1524.32 1401.72 1523.05 Q1401.72 1520.59 1397.82 1520.31 Q1396.51 1520.31 1396.51 1519.28 Q1396.51 1518.54 1396.84 1518.18 Q1397.17 1517.77 1397.41 1517.72 Q1397.7 1517.68 1398.11 1517.68 Q1399.46 1517.68 1402.21 1517.81 Q1404.99 1517.93 1406.39 1517.93 Q1407.54 1517.93 1409.87 1517.81 Q1412.21 1517.68 1413.27 1517.68 Q1414.38 1517.68 1414.38 1518.71 Z" fill="#000000" fill-rule="evenodd" fill-opacity="1" /><path clip-path="url(#clip450)" d="M1425.14 1593.43 L1425.14 1515.27 Q1425.14 1512.15 1426.82 1512.15 Q1428.5 1512.15 1428.5 1514.65 L1428.5 1592.82 Q1428.5 1595.93 1426.82 1595.93 Q1425.14 1595.93 1425.14 1593.43 Z" fill="#000000" fill-rule="evenodd" fill-opacity="1" /><polyline clip-path="url(#clip450)" style="stroke:#000000; stroke-linecap:butt; stroke-linejoin:round; stroke-width:4; stroke-opacity:1; fill:none" points="
  300.326,1410.22 300.326,47.2441 
  "/>
<polyline clip-path="url(#clip450)" style="stroke:#000000; stroke-linecap:butt; stroke-linejoin:round; stroke-width:4; stroke-opacity:1; fill:none" points="
  300.326,1335.08 319.224,1335.08 
  "/>
<polyline clip-path="url(#clip450)" style="stroke:#000000; stroke-linecap:butt; stroke-linejoin:round; stroke-width:4; stroke-opacity:1; fill:none" points="
  300.326,1120.05 319.224,1120.05 
  "/>
<polyline clip-path="url(#clip450)" style="stroke:#000000; stroke-linecap:butt; stroke-linejoin:round; stroke-width:4; stroke-opacity:1; fill:none" points="
  300.326,905.017 319.224,905.017 
  "/>
<polyline clip-path="url(#clip450)" style="stroke:#000000; stroke-linecap:butt; stroke-linejoin:round; stroke-width:4; stroke-opacity:1; fill:none" points="
  300.326,689.988 319.224,689.988 
  "/>
<polyline clip-path="url(#clip450)" style="stroke:#000000; stroke-linecap:butt; stroke-linejoin:round; stroke-width:4; stroke-opacity:1; fill:none" points="
  300.326,474.959 319.224,474.959 
  "/>
<polyline clip-path="url(#clip450)" style="stroke:#000000; stroke-linecap:butt; stroke-linejoin:round; stroke-width:4; stroke-opacity:1; fill:none" points="
  300.326,259.93 319.224,259.93 
  "/>
<path clip-path="url(#clip450)" d="M128.216 1335.53 L157.891 1335.53 L157.891 1339.46 L128.216 1339.46 L128.216 1335.53 Z" fill="#000000" fill-rule="evenodd" fill-opacity="1" /><path clip-path="url(#clip450)" d="M177.984 1320.87 Q174.373 1320.87 172.544 1324.44 Q170.738 1327.98 170.738 1335.11 Q170.738 1342.22 172.544 1345.78 Q174.373 1349.32 177.984 1349.32 Q181.618 1349.32 183.424 1345.78 Q185.252 1342.22 185.252 1335.11 Q185.252 1327.98 183.424 1324.44 Q181.618 1320.87 177.984 1320.87 M177.984 1317.17 Q183.794 1317.17 186.849 1321.78 Q189.928 1326.36 189.928 1335.11 Q189.928 1343.84 186.849 1348.44 Q183.794 1353.03 177.984 1353.03 Q172.174 1353.03 169.095 1348.44 Q166.039 1343.84 166.039 1335.11 Q166.039 1326.36 169.095 1321.78 Q172.174 1317.17 177.984 1317.17 Z" fill="#000000" fill-rule="evenodd" fill-opacity="1" /><path clip-path="url(#clip450)" d="M198.146 1346.48 L203.03 1346.48 L203.03 1352.36 L198.146 1352.36 L198.146 1346.48 Z" fill="#000000" fill-rule="evenodd" fill-opacity="1" /><path clip-path="url(#clip450)" d="M214.025 1348.42 L221.664 1348.42 L221.664 1322.05 L213.354 1323.72 L213.354 1319.46 L221.618 1317.8 L226.294 1317.8 L226.294 1348.42 L233.933 1348.42 L233.933 1352.36 L214.025 1352.36 L214.025 1348.42 Z" fill="#000000" fill-rule="evenodd" fill-opacity="1" /><path clip-path="url(#clip450)" d="M243.423 1317.8 L261.78 1317.8 L261.78 1321.73 L247.706 1321.73 L247.706 1330.2 Q248.724 1329.86 249.743 1329.69 Q250.761 1329.51 251.78 1329.51 Q257.567 1329.51 260.946 1332.68 Q264.326 1335.85 264.326 1341.27 Q264.326 1346.85 260.854 1349.95 Q257.381 1353.03 251.062 1353.03 Q248.886 1353.03 246.618 1352.66 Q244.372 1352.29 241.965 1351.55 L241.965 1346.85 Q244.048 1347.98 246.27 1348.54 Q248.493 1349.09 250.969 1349.09 Q254.974 1349.09 257.312 1346.99 Q259.65 1344.88 259.65 1341.27 Q259.65 1337.66 257.312 1335.55 Q254.974 1333.44 250.969 1333.44 Q249.095 1333.44 247.22 1333.86 Q245.368 1334.28 243.423 1335.16 L243.423 1317.8 Z" fill="#000000" fill-rule="evenodd" fill-opacity="1" /><path clip-path="url(#clip450)" d="M127.22 1120.5 L156.896 1120.5 L156.896 1124.43 L127.22 1124.43 L127.22 1120.5 Z" fill="#000000" fill-rule="evenodd" fill-opacity="1" /><path clip-path="url(#clip450)" d="M176.988 1105.85 Q173.377 1105.85 171.549 1109.41 Q169.743 1112.95 169.743 1120.08 Q169.743 1127.19 171.549 1130.75 Q173.377 1134.29 176.988 1134.29 Q180.623 1134.29 182.428 1130.75 Q184.257 1127.19 184.257 1120.08 Q184.257 1112.95 182.428 1109.41 Q180.623 1105.85 176.988 1105.85 M176.988 1102.14 Q182.799 1102.14 185.854 1106.75 Q188.933 1111.33 188.933 1120.08 Q188.933 1128.81 185.854 1133.41 Q182.799 1138 176.988 1138 Q171.178 1138 168.1 1133.41 Q165.044 1128.81 165.044 1120.08 Q165.044 1111.33 168.1 1106.75 Q171.178 1102.14 176.988 1102.14 Z" fill="#000000" fill-rule="evenodd" fill-opacity="1" /><path clip-path="url(#clip450)" d="M197.15 1131.45 L202.035 1131.45 L202.035 1137.33 L197.15 1137.33 L197.15 1131.45 Z" fill="#000000" fill-rule="evenodd" fill-opacity="1" /><path clip-path="url(#clip450)" d="M213.03 1133.39 L220.669 1133.39 L220.669 1107.03 L212.359 1108.69 L212.359 1104.43 L220.622 1102.77 L225.298 1102.77 L225.298 1133.39 L232.937 1133.39 L232.937 1137.33 L213.03 1137.33 L213.03 1133.39 Z" fill="#000000" fill-rule="evenodd" fill-opacity="1" /><path clip-path="url(#clip450)" d="M252.382 1105.85 Q248.77 1105.85 246.942 1109.41 Q245.136 1112.95 245.136 1120.08 Q245.136 1127.19 246.942 1130.75 Q248.77 1134.29 252.382 1134.29 Q256.016 1134.29 257.821 1130.75 Q259.65 1127.19 259.65 1120.08 Q259.65 1112.95 257.821 1109.41 Q256.016 1105.85 252.382 1105.85 M252.382 1102.14 Q258.192 1102.14 261.247 1106.75 Q264.326 1111.33 264.326 1120.08 Q264.326 1128.81 261.247 1133.41 Q258.192 1138 252.382 1138 Q246.571 1138 243.493 1133.41 Q240.437 1128.81 240.437 1120.08 Q240.437 1111.33 243.493 1106.75 Q246.571 1102.14 252.382 1102.14 Z" fill="#000000" fill-rule="evenodd" fill-opacity="1" /><path clip-path="url(#clip450)" d="M128.216 905.469 L157.891 905.469 L157.891 909.404 L128.216 909.404 L128.216 905.469 Z" fill="#000000" fill-rule="evenodd" fill-opacity="1" /><path clip-path="url(#clip450)" d="M177.984 890.816 Q174.373 890.816 172.544 894.381 Q170.738 897.922 170.738 905.052 Q170.738 912.158 172.544 915.723 Q174.373 919.265 177.984 919.265 Q181.618 919.265 183.424 915.723 Q185.252 912.158 185.252 905.052 Q185.252 897.922 183.424 894.381 Q181.618 890.816 177.984 890.816 M177.984 887.112 Q183.794 887.112 186.849 891.719 Q189.928 896.302 189.928 905.052 Q189.928 913.779 186.849 918.385 Q183.794 922.969 177.984 922.969 Q172.174 922.969 169.095 918.385 Q166.039 913.779 166.039 905.052 Q166.039 896.302 169.095 891.719 Q172.174 887.112 177.984 887.112 Z" fill="#000000" fill-rule="evenodd" fill-opacity="1" /><path clip-path="url(#clip450)" d="M198.146 916.418 L203.03 916.418 L203.03 922.297 L198.146 922.297 L198.146 916.418 Z" fill="#000000" fill-rule="evenodd" fill-opacity="1" /><path clip-path="url(#clip450)" d="M223.215 890.816 Q219.604 890.816 217.775 894.381 Q215.97 897.922 215.97 905.052 Q215.97 912.158 217.775 915.723 Q219.604 919.265 223.215 919.265 Q226.849 919.265 228.655 915.723 Q230.483 912.158 230.483 905.052 Q230.483 897.922 228.655 894.381 Q226.849 890.816 223.215 890.816 M223.215 887.112 Q229.025 887.112 232.081 891.719 Q235.159 896.302 235.159 905.052 Q235.159 913.779 232.081 918.385 Q229.025 922.969 223.215 922.969 Q217.405 922.969 214.326 918.385 Q211.271 913.779 211.271 905.052 Q211.271 896.302 214.326 891.719 Q217.405 887.112 223.215 887.112 Z" fill="#000000" fill-rule="evenodd" fill-opacity="1" /><path clip-path="url(#clip450)" d="M243.423 887.737 L261.78 887.737 L261.78 891.672 L247.706 891.672 L247.706 900.145 Q248.724 899.797 249.743 899.635 Q250.761 899.45 251.78 899.45 Q257.567 899.45 260.946 902.621 Q264.326 905.793 264.326 911.209 Q264.326 916.788 260.854 919.89 Q257.381 922.969 251.062 922.969 Q248.886 922.969 246.618 922.598 Q244.372 922.228 241.965 921.487 L241.965 916.788 Q244.048 917.922 246.27 918.478 Q248.493 919.033 250.969 919.033 Q254.974 919.033 257.312 916.927 Q259.65 914.82 259.65 911.209 Q259.65 907.598 257.312 905.492 Q254.974 903.385 250.969 903.385 Q249.095 903.385 247.22 903.802 Q245.368 904.219 243.423 905.098 L243.423 887.737 Z" fill="#000000" fill-rule="evenodd" fill-opacity="1" /><path clip-path="url(#clip450)" d="M176.988 675.787 Q173.377 675.787 171.549 679.352 Q169.743 682.893 169.743 690.023 Q169.743 697.129 171.549 700.694 Q173.377 704.236 176.988 704.236 Q180.623 704.236 182.428 700.694 Q184.257 697.129 184.257 690.023 Q184.257 682.893 182.428 679.352 Q180.623 675.787 176.988 675.787 M176.988 672.083 Q182.799 672.083 185.854 676.69 Q188.933 681.273 188.933 690.023 Q188.933 698.75 185.854 703.356 Q182.799 707.939 176.988 707.939 Q171.178 707.939 168.1 703.356 Q165.044 698.75 165.044 690.023 Q165.044 681.273 168.1 676.69 Q171.178 672.083 176.988 672.083 Z" fill="#000000" fill-rule="evenodd" fill-opacity="1" /><path clip-path="url(#clip450)" d="M197.15 701.389 L202.035 701.389 L202.035 707.268 L197.15 707.268 L197.15 701.389 Z" fill="#000000" fill-rule="evenodd" fill-opacity="1" /><path clip-path="url(#clip450)" d="M222.22 675.787 Q218.609 675.787 216.78 679.352 Q214.974 682.893 214.974 690.023 Q214.974 697.129 216.78 700.694 Q218.609 704.236 222.22 704.236 Q225.854 704.236 227.659 700.694 Q229.488 697.129 229.488 690.023 Q229.488 682.893 227.659 679.352 Q225.854 675.787 222.22 675.787 M222.22 672.083 Q228.03 672.083 231.085 676.69 Q234.164 681.273 234.164 690.023 Q234.164 698.75 231.085 703.356 Q228.03 707.939 222.22 707.939 Q216.409 707.939 213.331 703.356 Q210.275 698.75 210.275 690.023 Q210.275 681.273 213.331 676.69 Q216.409 672.083 222.22 672.083 Z" fill="#000000" fill-rule="evenodd" fill-opacity="1" /><path clip-path="url(#clip450)" d="M252.382 675.787 Q248.77 675.787 246.942 679.352 Q245.136 682.893 245.136 690.023 Q245.136 697.129 246.942 700.694 Q248.77 704.236 252.382 704.236 Q256.016 704.236 257.821 700.694 Q259.65 697.129 259.65 690.023 Q259.65 682.893 257.821 679.352 Q256.016 675.787 252.382 675.787 M252.382 672.083 Q258.192 672.083 261.247 676.69 Q264.326 681.273 264.326 690.023 Q264.326 698.75 261.247 703.356 Q258.192 707.939 252.382 707.939 Q246.571 707.939 243.493 703.356 Q240.437 698.75 240.437 690.023 Q240.437 681.273 243.493 676.69 Q246.571 672.083 252.382 672.083 Z" fill="#000000" fill-rule="evenodd" fill-opacity="1" /><path clip-path="url(#clip450)" d="M177.984 460.758 Q174.373 460.758 172.544 464.322 Q170.738 467.864 170.738 474.994 Q170.738 482.1 172.544 485.665 Q174.373 489.207 177.984 489.207 Q181.618 489.207 183.424 485.665 Q185.252 482.1 185.252 474.994 Q185.252 467.864 183.424 464.322 Q181.618 460.758 177.984 460.758 M177.984 457.054 Q183.794 457.054 186.849 461.66 Q189.928 466.244 189.928 474.994 Q189.928 483.72 186.849 488.327 Q183.794 492.91 177.984 492.91 Q172.174 492.91 169.095 488.327 Q166.039 483.72 166.039 474.994 Q166.039 466.244 169.095 461.66 Q172.174 457.054 177.984 457.054 Z" fill="#000000" fill-rule="evenodd" fill-opacity="1" /><path clip-path="url(#clip450)" d="M198.146 486.359 L203.03 486.359 L203.03 492.239 L198.146 492.239 L198.146 486.359 Z" fill="#000000" fill-rule="evenodd" fill-opacity="1" /><path clip-path="url(#clip450)" d="M223.215 460.758 Q219.604 460.758 217.775 464.322 Q215.97 467.864 215.97 474.994 Q215.97 482.1 217.775 485.665 Q219.604 489.207 223.215 489.207 Q226.849 489.207 228.655 485.665 Q230.483 482.1 230.483 474.994 Q230.483 467.864 228.655 464.322 Q226.849 460.758 223.215 460.758 M223.215 457.054 Q229.025 457.054 232.081 461.66 Q235.159 466.244 235.159 474.994 Q235.159 483.72 232.081 488.327 Q229.025 492.91 223.215 492.91 Q217.405 492.91 214.326 488.327 Q211.271 483.72 211.271 474.994 Q211.271 466.244 214.326 461.66 Q217.405 457.054 223.215 457.054 Z" fill="#000000" fill-rule="evenodd" fill-opacity="1" /><path clip-path="url(#clip450)" d="M243.423 457.679 L261.78 457.679 L261.78 461.614 L247.706 461.614 L247.706 470.086 Q248.724 469.739 249.743 469.577 Q250.761 469.392 251.78 469.392 Q257.567 469.392 260.946 472.563 Q264.326 475.734 264.326 481.151 Q264.326 486.73 260.854 489.832 Q257.381 492.91 251.062 492.91 Q248.886 492.91 246.618 492.54 Q244.372 492.17 241.965 491.429 L241.965 486.73 Q244.048 487.864 246.27 488.42 Q248.493 488.975 250.969 488.975 Q254.974 488.975 257.312 486.869 Q259.65 484.762 259.65 481.151 Q259.65 477.54 257.312 475.433 Q254.974 473.327 250.969 473.327 Q249.095 473.327 247.22 473.744 Q245.368 474.16 243.423 475.04 L243.423 457.679 Z" fill="#000000" fill-rule="evenodd" fill-opacity="1" /><path clip-path="url(#clip450)" d="M176.988 245.728 Q173.377 245.728 171.549 249.293 Q169.743 252.835 169.743 259.965 Q169.743 267.071 171.549 270.636 Q173.377 274.177 176.988 274.177 Q180.623 274.177 182.428 270.636 Q184.257 267.071 184.257 259.965 Q184.257 252.835 182.428 249.293 Q180.623 245.728 176.988 245.728 M176.988 242.025 Q182.799 242.025 185.854 246.631 Q188.933 251.215 188.933 259.965 Q188.933 268.691 185.854 273.298 Q182.799 277.881 176.988 277.881 Q171.178 277.881 168.1 273.298 Q165.044 268.691 165.044 259.965 Q165.044 251.215 168.1 246.631 Q171.178 242.025 176.988 242.025 Z" fill="#000000" fill-rule="evenodd" fill-opacity="1" /><path clip-path="url(#clip450)" d="M197.15 271.33 L202.035 271.33 L202.035 277.21 L197.15 277.21 L197.15 271.33 Z" fill="#000000" fill-rule="evenodd" fill-opacity="1" /><path clip-path="url(#clip450)" d="M213.03 273.275 L220.669 273.275 L220.669 246.909 L212.359 248.576 L212.359 244.316 L220.622 242.65 L225.298 242.65 L225.298 273.275 L232.937 273.275 L232.937 277.21 L213.03 277.21 L213.03 273.275 Z" fill="#000000" fill-rule="evenodd" fill-opacity="1" /><path clip-path="url(#clip450)" d="M252.382 245.728 Q248.77 245.728 246.942 249.293 Q245.136 252.835 245.136 259.965 Q245.136 267.071 246.942 270.636 Q248.77 274.177 252.382 274.177 Q256.016 274.177 257.821 270.636 Q259.65 267.071 259.65 259.965 Q259.65 252.835 257.821 249.293 Q256.016 245.728 252.382 245.728 M252.382 242.025 Q258.192 242.025 261.247 246.631 Q264.326 251.215 264.326 259.965 Q264.326 268.691 261.247 273.298 Q258.192 277.881 252.382 277.881 Q246.571 277.881 243.493 273.298 Q240.437 268.691 240.437 259.965 Q240.437 251.215 243.493 246.631 Q246.571 242.025 252.382 242.025 Z" fill="#000000" fill-rule="evenodd" fill-opacity="1" /><path clip-path="url(#clip450)" d="M17.2285 729.523 Q18.0073 729.523 18.6631 729.687 L33.2553 731.982 Q34.362 732.105 34.7719 732.351 Q35.1818 732.556 35.1818 733.212 Q35.1818 734.237 34.1161 734.237 Q33.5012 734.237 32.5175 733.991 Q27.8857 733.294 25.7953 733.294 Q24.4016 733.294 23.3769 733.581 Q22.3112 733.827 21.5734 734.237 Q20.8356 734.605 20.3437 735.466 Q19.8518 736.327 19.5649 737.147 Q19.278 737.967 19.155 739.442 Q18.991 740.918 18.9501 742.188 Q18.9091 743.459 18.9091 745.55 Q18.9091 750.099 19.073 750.837 Q19.278 751.616 19.8928 752.026 Q20.4667 752.395 22.1882 752.805 L66.7435 763.954 L68.5061 764.282 Q69.4898 764.282 69.8177 763.667 Q70.1457 763.052 70.3506 761.167 Q70.5556 758.461 70.5556 755.797 Q70.5556 755.715 70.5556 755.551 Q70.5556 754.649 70.5965 754.28 Q70.5965 753.911 70.6785 753.543 Q70.7605 753.174 70.9654 753.092 Q71.1294 752.969 71.4573 752.969 Q72.2361 752.969 72.646 753.297 Q73.0149 753.625 73.0969 753.952 Q73.1379 754.239 73.1379 754.813 Q73.1379 755.961 73.0559 758.42 Q72.9739 760.88 72.9739 762.109 L72.8919 769.077 L72.9739 776.21 Q72.9739 777.316 73.0559 779.653 Q73.1379 781.989 73.1379 783.096 Q73.1379 784.53 72.1131 784.53 Q70.9654 784.53 70.7605 783.998 Q70.5556 783.424 70.5556 781.005 Q70.5556 777.603 70.3916 775.759 Q70.2276 773.914 69.6538 772.93 Q69.0799 771.906 68.5061 771.619 Q67.8912 771.332 66.4976 771.004 L21.6963 759.732 Q20.7126 759.404 19.9338 759.404 Q19.5239 759.404 19.3599 759.527 Q19.196 759.609 19.073 760.142 Q18.9091 760.675 18.9091 761.781 L18.9091 765.061 Q18.9091 768.422 19.073 770.512 Q19.196 772.562 19.8108 774.529 Q20.4257 776.456 21.2864 777.603 Q22.1472 778.71 23.9098 779.94 Q25.6723 781.169 27.8037 782.071 Q29.9352 782.932 33.4193 784.162 Q34.567 784.571 34.8949 784.817 Q35.1818 785.022 35.1818 785.596 Q35.1818 786.006 34.9359 786.334 Q34.6489 786.621 34.28 786.621 Q32.9274 786.211 32.7634 786.129 L17.9663 781.087 Q16.7776 780.677 16.5727 780.309 Q16.3267 779.899 16.3267 778.382 L16.3267 731.818 Q16.3267 731.08 16.3267 730.834 Q16.3267 730.589 16.4087 730.179 Q16.4907 729.769 16.6956 729.646 Q16.9006 729.523 17.2285 729.523 Z" fill="#000000" fill-rule="evenodd" fill-opacity="1" /><path clip-path="url(#clip450)" d="M56.931 679.395 L71.9084 683.096 Q72.8553 683.355 72.9701 683.527 Q73.0848 683.67 73.0848 684.129 Q73.0848 685.019 72.4823 685.019 Q72.4249 685.019 71.6789 684.933 Q70.9042 684.847 69.4983 684.847 Q64.3049 684.847 61.2348 687.372 Q58.1647 689.868 58.1647 694.315 Q58.1647 698.476 60.3454 702.464 Q62.526 706.452 65.7396 709.006 Q68.3793 711.158 71.5928 712.65 Q74.8064 714.113 77.6182 714.716 Q80.4014 715.318 82.0943 715.548 Q83.7871 715.749 84.8774 715.749 Q88.091 715.749 90.5873 714.716 Q93.0548 713.683 94.4607 711.961 Q95.8667 710.211 96.5553 708.202 Q97.2439 706.165 97.2439 703.956 Q97.2439 703.124 97.1291 702.12 Q97.0144 701.115 96.584 699.566 Q96.1536 697.988 95.4363 696.697 Q94.719 695.377 93.3417 694.229 Q91.9645 693.053 90.1282 692.594 Q85.4513 691.36 84.7627 691.36 Q84.1888 691.36 83.988 691.704 Q83.7871 692.049 83.6437 693.196 L83.5289 696.295 Q83.5289 696.352 83.5289 696.438 Q83.5289 696.984 83.5289 697.213 Q83.5002 697.443 83.4428 697.701 Q83.3854 697.93 83.2707 698.017 Q83.1272 698.074 82.8977 698.074 Q82.3525 698.074 82.0943 697.844 Q81.8073 697.615 81.7787 697.414 Q81.7213 697.213 81.7213 696.84 L81.8934 688.605 Q81.8934 687.945 81.8073 685.535 Q81.7213 683.125 81.7213 682.437 Q81.7213 681.662 82.3525 681.662 Q83.5289 681.662 83.5289 682.609 Q83.5576 683.556 83.5863 684.043 Q83.5863 684.531 83.7297 685.019 Q83.8732 685.478 83.988 685.65 Q84.0741 685.822 84.5044 686.052 Q84.9061 686.281 85.2504 686.367 Q85.5661 686.453 86.3695 686.654 Q86.8859 686.769 87.8615 687.056 Q88.837 687.314 89.3535 687.429 L93.8869 688.548 Q97.2439 689.323 97.4735 689.552 Q97.703 689.667 97.703 689.954 Q97.703 690.384 96.4405 691.302 Q95.1781 692.192 94.059 692.594 Q94.8337 693.311 95.2928 693.77 Q95.7232 694.229 96.4118 695.291 Q97.1004 696.324 97.6456 697.701 Q99.0515 701.058 99.0515 705.046 Q99.0515 712.162 94.5468 716.638 Q90.0134 721.114 82.955 721.114 Q77.9626 721.114 73.0561 718.819 Q68.1497 716.523 64.5058 712.879 Q60.8618 709.235 58.5951 704.415 Q56.3284 699.595 56.3284 694.774 Q56.3284 692.938 56.8162 691.302 Q57.304 689.667 57.9065 688.691 Q58.509 687.687 59.3985 686.798 Q60.2593 685.908 60.661 685.621 Q61.0627 685.306 61.5504 685.019 L57.0457 680.916 Q56.3284 680.199 56.3284 680.026 Q56.3284 679.682 56.5293 679.539 Q56.7301 679.395 56.931 679.395 Z" fill="#000000" fill-rule="evenodd" fill-opacity="1" /><polyline clip-path="url(#clip453)" style="stroke:#000000; stroke-linecap:butt; stroke-linejoin:round; stroke-width:4; stroke-opacity:1; fill:none" points="
  2017.23,811.616 2017.23,563.031 
  "/>
<polyline clip-path="url(#clip453)" style="stroke:#000000; stroke-linecap:butt; stroke-linejoin:round; stroke-width:4; stroke-opacity:1; fill:none" points="
  358.414,1371.65 358.414,85.8189 
  "/>
<polyline clip-path="url(#clip453)" style="stroke:#000000; stroke-linecap:butt; stroke-linejoin:round; stroke-width:4; stroke-opacity:1; fill:none" points="
  1739.84,838.083 1739.84,538.834 
  "/>
<polyline clip-path="url(#clip453)" style="stroke:#000000; stroke-linecap:butt; stroke-linejoin:round; stroke-width:4; stroke-opacity:1; fill:none" points="
  1185.45,926.372 1185.45,453.342 
  "/>
<polyline clip-path="url(#clip453)" style="stroke:#000000; stroke-linecap:butt; stroke-linejoin:round; stroke-width:4; stroke-opacity:1; fill:none" points="
  632.81,1151.76 632.81,254.218 
  "/>
<polyline clip-path="url(#clip453)" style="stroke:#000000; stroke-linecap:butt; stroke-linejoin:round; stroke-width:4; stroke-opacity:1; fill:none" points="
  1462.55,868.683 1462.55,505.296 
  "/>
<polyline clip-path="url(#clip453)" style="stroke:#000000; stroke-linecap:butt; stroke-linejoin:round; stroke-width:4; stroke-opacity:1; fill:none" points="
  2294.67,795.73 2294.67,578.627 
  "/>
<polyline clip-path="url(#clip453)" style="stroke:#000000; stroke-linecap:butt; stroke-linejoin:round; stroke-width:4; stroke-opacity:1; fill:none" points="
  908.743,1007.18 908.743,374.899 
  "/>
<line clip-path="url(#clip453)" x1="2033.23" y1="811.616" x2="2001.23" y2="811.616" style="stroke:#000000; stroke-width:3.2; stroke-opacity:1"/>
<line clip-path="url(#clip453)" x1="2033.23" y1="563.031" x2="2001.23" y2="563.031" style="stroke:#000000; stroke-width:3.2; stroke-opacity:1"/>
<line clip-path="url(#clip453)" x1="374.414" y1="1371.65" x2="342.414" y2="1371.65" style="stroke:#000000; stroke-width:3.2; stroke-opacity:1"/>
<line clip-path="url(#clip453)" x1="374.414" y1="85.8189" x2="342.414" y2="85.8189" style="stroke:#000000; stroke-width:3.2; stroke-opacity:1"/>
<line clip-path="url(#clip453)" x1="1755.84" y1="838.083" x2="1723.84" y2="838.083" style="stroke:#000000; stroke-width:3.2; stroke-opacity:1"/>
<line clip-path="url(#clip453)" x1="1755.84" y1="538.834" x2="1723.84" y2="538.834" style="stroke:#000000; stroke-width:3.2; stroke-opacity:1"/>
<line clip-path="url(#clip453)" x1="1201.45" y1="926.372" x2="1169.45" y2="926.372" style="stroke:#000000; stroke-width:3.2; stroke-opacity:1"/>
<line clip-path="url(#clip453)" x1="1201.45" y1="453.342" x2="1169.45" y2="453.342" style="stroke:#000000; stroke-width:3.2; stroke-opacity:1"/>
<line clip-path="url(#clip453)" x1="648.81" y1="1151.76" x2="616.81" y2="1151.76" style="stroke:#000000; stroke-width:3.2; stroke-opacity:1"/>
<line clip-path="url(#clip453)" x1="648.81" y1="254.218" x2="616.81" y2="254.218" style="stroke:#000000; stroke-width:3.2; stroke-opacity:1"/>
<line clip-path="url(#clip453)" x1="1478.55" y1="868.683" x2="1446.55" y2="868.683" style="stroke:#000000; stroke-width:3.2; stroke-opacity:1"/>
<line clip-path="url(#clip453)" x1="1478.55" y1="505.296" x2="1446.55" y2="505.296" style="stroke:#000000; stroke-width:3.2; stroke-opacity:1"/>
<line clip-path="url(#clip453)" x1="2310.67" y1="795.73" x2="2278.67" y2="795.73" style="stroke:#000000; stroke-width:3.2; stroke-opacity:1"/>
<line clip-path="url(#clip453)" x1="2310.67" y1="578.627" x2="2278.67" y2="578.627" style="stroke:#000000; stroke-width:3.2; stroke-opacity:1"/>
<line clip-path="url(#clip453)" x1="924.743" y1="1007.18" x2="892.743" y2="1007.18" style="stroke:#000000; stroke-width:3.2; stroke-opacity:1"/>
<line clip-path="url(#clip453)" x1="924.743" y1="374.899" x2="892.743" y2="374.899" style="stroke:#000000; stroke-width:3.2; stroke-opacity:1"/>
<line clip-path="url(#clip453)" x1="2033.23" y1="687.324" x2="2001.23" y2="687.324" style="stroke:#000000; stroke-width:3.2; stroke-opacity:1"/>
<line clip-path="url(#clip453)" x1="374.414" y1="728.732" x2="342.414" y2="728.732" style="stroke:#000000; stroke-width:3.2; stroke-opacity:1"/>
<line clip-path="url(#clip453)" x1="1755.84" y1="688.458" x2="1723.84" y2="688.458" style="stroke:#000000; stroke-width:3.2; stroke-opacity:1"/>
<line clip-path="url(#clip453)" x1="1201.45" y1="689.857" x2="1169.45" y2="689.857" style="stroke:#000000; stroke-width:3.2; stroke-opacity:1"/>
<line clip-path="url(#clip453)" x1="648.81" y1="702.987" x2="616.81" y2="702.987" style="stroke:#000000; stroke-width:3.2; stroke-opacity:1"/>
<line clip-path="url(#clip453)" x1="1478.55" y1="686.989" x2="1446.55" y2="686.989" style="stroke:#000000; stroke-width:3.2; stroke-opacity:1"/>
<line clip-path="url(#clip453)" x1="2310.67" y1="687.179" x2="2278.67" y2="687.179" style="stroke:#000000; stroke-width:3.2; stroke-opacity:1"/>
<line clip-path="url(#clip453)" x1="924.743" y1="691.038" x2="892.743" y2="691.038" style="stroke:#000000; stroke-width:3.2; stroke-opacity:1"/>
<polyline clip-path="url(#clip453)" style="stroke:#808080; stroke-linecap:butt; stroke-linejoin:round; stroke-width:4; stroke-opacity:1; fill:none" stroke-dasharray="16, 10" points="
  -1752.1,689.988 4405.19,689.988 
  "/>
<polyline clip-path="url(#clip453)" style="stroke:#808080; stroke-linecap:butt; stroke-linejoin:round; stroke-width:4; stroke-opacity:1; fill:none" stroke-dasharray="16, 10" points="
  -1752.1,689.988 4405.19,689.988 
  "/>
</svg>
