<?xml version="1.0" encoding="utf-8"?>
<svg xmlns="http://www.w3.org/2000/svg" xmlns:xlink="http://www.w3.org/1999/xlink" width="600" height="400" viewBox="0 0 2400 1600">
<defs>
  <clipPath id="clip040">
    <rect x="0" y="0" width="2400" height="1600"/>
  </clipPath>
</defs>
<path clip-path="url(#clip040)" d="
M0 1600 L2400 1600 L2400 0 L0 0  Z
  " fill="#000000" fill-rule="evenodd" fill-opacity="0"/>
<defs>
  <clipPath id="clip041">
    <rect x="480" y="0" width="1681" height="1600"/>
  </clipPath>
</defs>
<defs>
  <clipPath id="clip042">
    <rect x="269" y="47" width="2084" height="1364"/>
  </clipPath>
</defs>
<path clip-path="url(#clip040)" d="
M260.905 1410.22 L2352.76 1410.22 L2352.76 47.2441 L260.905 47.2441  Z
  " fill="#000000" fill-rule="evenodd" fill-opacity="0"/>
<defs>
  <clipPath id="clip043">
    <rect x="260" y="47" width="2093" height="1364"/>
  </clipPath>
</defs>
<polyline clip-path="url(#clip040)" style="stroke:#000000; stroke-linecap:butt; stroke-linejoin:round; stroke-width:4; stroke-opacity:1; fill:none" points="
  260.905,1410.22 2352.76,1410.22 
  "/>
<polyline clip-path="url(#clip040)" style="stroke:#000000; stroke-linecap:butt; stroke-linejoin:round; stroke-width:4; stroke-opacity:1; fill:none" points="
  384.486,1410.22 384.486,1391.32 
  "/>
<polyline clip-path="url(#clip040)" style="stroke:#000000; stroke-linecap:butt; stroke-linejoin:round; stroke-width:4; stroke-opacity:1; fill:none" points="
  738.008,1410.22 738.008,1391.32 
  "/>
<polyline clip-path="url(#clip040)" style="stroke:#000000; stroke-linecap:butt; stroke-linejoin:round; stroke-width:4; stroke-opacity:1; fill:none" points="
  1091.53,1410.22 1091.53,1391.32 
  "/>
<polyline clip-path="url(#clip040)" style="stroke:#000000; stroke-linecap:butt; stroke-linejoin:round; stroke-width:4; stroke-opacity:1; fill:none" points="
  1445.05,1410.22 1445.05,1391.32 
  "/>
<polyline clip-path="url(#clip040)" style="stroke:#000000; stroke-linecap:butt; stroke-linejoin:round; stroke-width:4; stroke-opacity:1; fill:none" points="
  1798.57,1410.22 1798.57,1391.32 
  "/>
<polyline clip-path="url(#clip040)" style="stroke:#000000; stroke-linecap:butt; stroke-linejoin:round; stroke-width:4; stroke-opacity:1; fill:none" points="
  2152.09,1410.22 2152.09,1391.32 
  "/>
<path clip-path="url(#clip040)" d="M337.056 1468.68 L344.695 1468.68 L344.695 1442.32 L336.385 1443.99 L336.385 1439.73 L344.649 1438.06 L349.325 1438.06 L349.325 1468.68 L356.963 1468.68 L356.963 1472.62 L337.056 1472.62 L337.056 1468.68 Z" fill="#000000" fill-rule="evenodd" fill-opacity="1" /><path clip-path="url(#clip040)" d="M370.436 1468.68 L386.755 1468.68 L386.755 1472.62 L364.811 1472.62 L364.811 1468.68 Q367.473 1465.93 372.056 1461.3 Q376.662 1456.65 377.843 1455.31 Q380.088 1452.78 380.968 1451.05 Q381.871 1449.29 381.871 1447.6 Q381.871 1444.84 379.926 1443.11 Q378.005 1441.37 374.903 1441.37 Q372.704 1441.37 370.25 1442.13 Q367.82 1442.9 365.042 1444.45 L365.042 1439.73 Q367.866 1438.59 370.32 1438.01 Q372.774 1437.43 374.811 1437.43 Q380.181 1437.43 383.375 1440.12 Q386.57 1442.81 386.57 1447.3 Q386.57 1449.43 385.76 1451.35 Q384.973 1453.24 382.866 1455.84 Q382.287 1456.51 379.186 1459.73 Q376.084 1462.92 370.436 1468.68 Z" fill="#000000" fill-rule="evenodd" fill-opacity="1" /><path clip-path="url(#clip040)" d="M396.57 1466.74 L401.454 1466.74 L401.454 1472.62 L396.57 1472.62 L396.57 1466.74 Z" fill="#000000" fill-rule="evenodd" fill-opacity="1" /><path clip-path="url(#clip040)" d="M411.685 1438.06 L430.042 1438.06 L430.042 1442 L415.968 1442 L415.968 1450.47 Q416.986 1450.12 418.005 1449.96 Q419.023 1449.77 420.042 1449.77 Q425.829 1449.77 429.208 1452.94 Q432.588 1456.12 432.588 1461.53 Q432.588 1467.11 429.116 1470.21 Q425.644 1473.29 419.324 1473.29 Q417.148 1473.29 414.88 1472.92 Q412.634 1472.55 410.227 1471.81 L410.227 1467.11 Q412.31 1468.24 414.533 1468.8 Q416.755 1469.36 419.232 1469.36 Q423.236 1469.36 425.574 1467.25 Q427.912 1465.14 427.912 1461.53 Q427.912 1457.92 425.574 1455.81 Q423.236 1453.71 419.232 1453.71 Q417.357 1453.71 415.482 1454.12 Q413.63 1454.54 411.685 1455.42 L411.685 1438.06 Z" fill="#000000" fill-rule="evenodd" fill-opacity="1" /><path clip-path="url(#clip040)" d="M690.08 1468.68 L697.719 1468.68 L697.719 1442.32 L689.409 1443.99 L689.409 1439.73 L697.673 1438.06 L702.348 1438.06 L702.348 1468.68 L709.987 1468.68 L709.987 1472.62 L690.08 1472.62 L690.08 1468.68 Z" fill="#000000" fill-rule="evenodd" fill-opacity="1" /><path clip-path="url(#clip040)" d="M719.478 1438.06 L737.834 1438.06 L737.834 1442 L723.76 1442 L723.76 1450.47 Q724.779 1450.12 725.797 1449.96 Q726.816 1449.77 727.834 1449.77 Q733.621 1449.77 737.001 1452.94 Q740.381 1456.12 740.381 1461.53 Q740.381 1467.11 736.908 1470.21 Q733.436 1473.29 727.117 1473.29 Q724.941 1473.29 722.672 1472.92 Q720.427 1472.55 718.02 1471.81 L718.02 1467.11 Q720.103 1468.24 722.325 1468.8 Q724.547 1469.36 727.024 1469.36 Q731.029 1469.36 733.367 1467.25 Q735.705 1465.14 735.705 1461.53 Q735.705 1457.92 733.367 1455.81 Q731.029 1453.71 727.024 1453.71 Q725.149 1453.71 723.274 1454.12 Q721.422 1454.54 719.478 1455.42 L719.478 1438.06 Z" fill="#000000" fill-rule="evenodd" fill-opacity="1" /><path clip-path="url(#clip040)" d="M749.594 1466.74 L754.478 1466.74 L754.478 1472.62 L749.594 1472.62 L749.594 1466.74 Z" fill="#000000" fill-rule="evenodd" fill-opacity="1" /><path clip-path="url(#clip040)" d="M774.663 1441.14 Q771.052 1441.14 769.223 1444.7 Q767.418 1448.24 767.418 1455.37 Q767.418 1462.48 769.223 1466.05 Q771.052 1469.59 774.663 1469.59 Q778.297 1469.59 780.103 1466.05 Q781.931 1462.48 781.931 1455.37 Q781.931 1448.24 780.103 1444.7 Q778.297 1441.14 774.663 1441.14 M774.663 1437.43 Q780.473 1437.43 783.529 1442.04 Q786.607 1446.62 786.607 1455.37 Q786.607 1464.1 783.529 1468.71 Q780.473 1473.29 774.663 1473.29 Q768.853 1473.29 765.774 1468.71 Q762.719 1464.1 762.719 1455.37 Q762.719 1446.62 765.774 1442.04 Q768.853 1437.43 774.663 1437.43 Z" fill="#000000" fill-rule="evenodd" fill-opacity="1" /><path clip-path="url(#clip040)" d="M1044.1 1468.68 L1051.74 1468.68 L1051.74 1442.32 L1043.43 1443.99 L1043.43 1439.73 L1051.69 1438.06 L1056.37 1438.06 L1056.37 1468.68 L1064.01 1468.68 L1064.01 1472.62 L1044.1 1472.62 L1044.1 1468.68 Z" fill="#000000" fill-rule="evenodd" fill-opacity="1" /><path clip-path="url(#clip040)" d="M1072.27 1438.06 L1094.49 1438.06 L1094.49 1440.05 L1081.95 1472.62 L1077.06 1472.62 L1088.87 1442 L1072.27 1442 L1072.27 1438.06 Z" fill="#000000" fill-rule="evenodd" fill-opacity="1" /><path clip-path="url(#clip040)" d="M1103.61 1466.74 L1108.5 1466.74 L1108.5 1472.62 L1103.61 1472.62 L1103.61 1466.74 Z" fill="#000000" fill-rule="evenodd" fill-opacity="1" /><path clip-path="url(#clip040)" d="M1118.73 1438.06 L1137.08 1438.06 L1137.08 1442 L1123.01 1442 L1123.01 1450.47 Q1124.03 1450.12 1125.05 1449.96 Q1126.07 1449.77 1127.08 1449.77 Q1132.87 1449.77 1136.25 1452.94 Q1139.63 1456.12 1139.63 1461.53 Q1139.63 1467.11 1136.16 1470.21 Q1132.69 1473.29 1126.37 1473.29 Q1124.19 1473.29 1121.92 1472.92 Q1119.68 1472.55 1117.27 1471.81 L1117.27 1467.11 Q1119.35 1468.24 1121.58 1468.8 Q1123.8 1469.36 1126.27 1469.36 Q1130.28 1469.36 1132.62 1467.25 Q1134.96 1465.14 1134.96 1461.53 Q1134.96 1457.92 1132.62 1455.81 Q1130.28 1453.71 1126.27 1453.71 Q1124.4 1453.71 1122.52 1454.12 Q1120.67 1454.54 1118.73 1455.42 L1118.73 1438.06 Z" fill="#000000" fill-rule="evenodd" fill-opacity="1" /><path clip-path="url(#clip040)" d="M1401.21 1468.68 L1417.53 1468.68 L1417.53 1472.62 L1395.58 1472.62 L1395.58 1468.68 Q1398.25 1465.93 1402.83 1461.3 Q1407.44 1456.65 1408.62 1455.31 Q1410.86 1452.78 1411.74 1451.05 Q1412.64 1449.29 1412.64 1447.6 Q1412.64 1444.84 1410.7 1443.11 Q1408.78 1441.37 1405.68 1441.37 Q1403.48 1441.37 1401.02 1442.13 Q1398.59 1442.9 1395.82 1444.45 L1395.82 1439.73 Q1398.64 1438.59 1401.09 1438.01 Q1403.55 1437.43 1405.58 1437.43 Q1410.95 1437.43 1414.15 1440.12 Q1417.34 1442.81 1417.34 1447.3 Q1417.34 1449.43 1416.53 1451.35 Q1415.75 1453.24 1413.64 1455.84 Q1413.06 1456.51 1409.96 1459.73 Q1406.86 1462.92 1401.21 1468.68 Z" fill="#000000" fill-rule="evenodd" fill-opacity="1" /><path clip-path="url(#clip040)" d="M1437.34 1441.14 Q1433.73 1441.14 1431.9 1444.7 Q1430.1 1448.24 1430.1 1455.37 Q1430.1 1462.48 1431.9 1466.05 Q1433.73 1469.59 1437.34 1469.59 Q1440.98 1469.59 1442.78 1466.05 Q1444.61 1462.48 1444.61 1455.37 Q1444.61 1448.24 1442.78 1444.7 Q1440.98 1441.14 1437.34 1441.14 M1437.34 1437.43 Q1443.15 1437.43 1446.21 1442.04 Q1449.29 1446.62 1449.29 1455.37 Q1449.29 1464.1 1446.21 1468.71 Q1443.15 1473.29 1437.34 1473.29 Q1431.53 1473.29 1428.45 1468.71 Q1425.4 1464.1 1425.4 1455.37 Q1425.4 1446.62 1428.45 1442.04 Q1431.53 1437.43 1437.34 1437.43 Z" fill="#000000" fill-rule="evenodd" fill-opacity="1" /><path clip-path="url(#clip040)" d="M1457.5 1466.74 L1462.39 1466.74 L1462.39 1472.62 L1457.5 1472.62 L1457.5 1466.74 Z" fill="#000000" fill-rule="evenodd" fill-opacity="1" /><path clip-path="url(#clip040)" d="M1482.57 1441.14 Q1478.96 1441.14 1477.13 1444.7 Q1475.33 1448.24 1475.33 1455.37 Q1475.33 1462.48 1477.13 1466.05 Q1478.96 1469.59 1482.57 1469.59 Q1486.21 1469.59 1488.01 1466.05 Q1489.84 1462.48 1489.84 1455.37 Q1489.84 1448.24 1488.01 1444.7 Q1486.21 1441.14 1482.57 1441.14 M1482.57 1437.43 Q1488.38 1437.43 1491.44 1442.04 Q1494.52 1446.62 1494.52 1455.37 Q1494.52 1464.1 1491.44 1468.71 Q1488.38 1473.29 1482.57 1473.29 Q1476.76 1473.29 1473.69 1468.71 Q1470.63 1464.1 1470.63 1455.37 Q1470.63 1446.62 1473.69 1442.04 Q1476.76 1437.43 1482.57 1437.43 Z" fill="#000000" fill-rule="evenodd" fill-opacity="1" /><path clip-path="url(#clip040)" d="M1755.23 1468.68 L1771.55 1468.68 L1771.55 1472.62 L1749.6 1472.62 L1749.6 1468.68 Q1752.26 1465.93 1756.85 1461.3 Q1761.45 1456.65 1762.64 1455.31 Q1764.88 1452.78 1765.76 1451.05 Q1766.66 1449.29 1766.66 1447.6 Q1766.66 1444.84 1764.72 1443.11 Q1762.8 1441.37 1759.7 1441.37 Q1757.5 1441.37 1755.04 1442.13 Q1752.61 1442.9 1749.83 1444.45 L1749.83 1439.73 Q1752.66 1438.59 1755.11 1438.01 Q1757.57 1437.43 1759.6 1437.43 Q1764.97 1437.43 1768.17 1440.12 Q1771.36 1442.81 1771.36 1447.3 Q1771.36 1449.43 1770.55 1451.35 Q1769.76 1453.24 1767.66 1455.84 Q1767.08 1456.51 1763.98 1459.73 Q1760.88 1462.92 1755.23 1468.68 Z" fill="#000000" fill-rule="evenodd" fill-opacity="1" /><path clip-path="url(#clip040)" d="M1785.39 1468.68 L1801.71 1468.68 L1801.71 1472.62 L1779.76 1472.62 L1779.76 1468.68 Q1782.43 1465.93 1787.01 1461.3 Q1791.62 1456.65 1792.8 1455.31 Q1795.04 1452.78 1795.92 1451.05 Q1796.82 1449.29 1796.82 1447.6 Q1796.82 1444.84 1794.88 1443.11 Q1792.96 1441.37 1789.86 1441.37 Q1787.66 1441.37 1785.2 1442.13 Q1782.77 1442.9 1780 1444.45 L1780 1439.73 Q1782.82 1438.59 1785.27 1438.01 Q1787.73 1437.43 1789.76 1437.43 Q1795.14 1437.43 1798.33 1440.12 Q1801.52 1442.81 1801.52 1447.3 Q1801.52 1449.43 1800.71 1451.35 Q1799.93 1453.24 1797.82 1455.84 Q1797.24 1456.51 1794.14 1459.73 Q1791.04 1462.92 1785.39 1468.68 Z" fill="#000000" fill-rule="evenodd" fill-opacity="1" /><path clip-path="url(#clip040)" d="M1811.52 1466.74 L1816.41 1466.74 L1816.41 1472.62 L1811.52 1472.62 L1811.52 1466.74 Z" fill="#000000" fill-rule="evenodd" fill-opacity="1" /><path clip-path="url(#clip040)" d="M1826.64 1438.06 L1845 1438.06 L1845 1442 L1830.92 1442 L1830.92 1450.47 Q1831.94 1450.12 1832.96 1449.96 Q1833.98 1449.77 1835 1449.77 Q1840.78 1449.77 1844.16 1452.94 Q1847.54 1456.12 1847.54 1461.53 Q1847.54 1467.11 1844.07 1470.21 Q1840.6 1473.29 1834.28 1473.29 Q1832.1 1473.29 1829.83 1472.92 Q1827.59 1472.55 1825.18 1471.81 L1825.18 1467.11 Q1827.26 1468.24 1829.49 1468.8 Q1831.71 1469.36 1834.19 1469.36 Q1838.19 1469.36 1840.53 1467.25 Q1842.87 1465.14 1842.87 1461.53 Q1842.87 1457.92 1840.53 1455.81 Q1838.19 1453.71 1834.19 1453.71 Q1832.31 1453.71 1830.44 1454.12 Q1828.58 1454.54 1826.64 1455.42 L1826.64 1438.06 Z" fill="#000000" fill-rule="evenodd" fill-opacity="1" /><path clip-path="url(#clip040)" d="M2108.25 1468.68 L2124.57 1468.68 L2124.57 1472.62 L2102.63 1472.62 L2102.63 1468.68 Q2105.29 1465.93 2109.87 1461.3 Q2114.48 1456.65 2115.66 1455.31 Q2117.9 1452.78 2118.78 1451.05 Q2119.69 1449.29 2119.69 1447.6 Q2119.69 1444.84 2117.74 1443.11 Q2115.82 1441.37 2112.72 1441.37 Q2110.52 1441.37 2108.07 1442.13 Q2105.64 1442.9 2102.86 1444.45 L2102.86 1439.73 Q2105.68 1438.59 2108.14 1438.01 Q2110.59 1437.43 2112.63 1437.43 Q2118 1437.43 2121.19 1440.12 Q2124.39 1442.81 2124.39 1447.3 Q2124.39 1449.43 2123.58 1451.35 Q2122.79 1453.24 2120.68 1455.84 Q2120.1 1456.51 2117 1459.73 Q2113.9 1462.92 2108.25 1468.68 Z" fill="#000000" fill-rule="evenodd" fill-opacity="1" /><path clip-path="url(#clip040)" d="M2134.43 1438.06 L2152.79 1438.06 L2152.79 1442 L2138.71 1442 L2138.71 1450.47 Q2139.73 1450.12 2140.75 1449.96 Q2141.77 1449.77 2142.79 1449.77 Q2148.58 1449.77 2151.96 1452.94 Q2155.33 1456.12 2155.33 1461.53 Q2155.33 1467.11 2151.86 1470.21 Q2148.39 1473.29 2142.07 1473.29 Q2139.9 1473.29 2137.63 1472.92 Q2135.38 1472.55 2132.97 1471.81 L2132.97 1467.11 Q2135.06 1468.24 2137.28 1468.8 Q2139.5 1469.36 2141.98 1469.36 Q2145.98 1469.36 2148.32 1467.25 Q2150.66 1465.14 2150.66 1461.53 Q2150.66 1457.92 2148.32 1455.81 Q2145.98 1453.71 2141.98 1453.71 Q2140.1 1453.71 2138.23 1454.12 Q2136.38 1454.54 2134.43 1455.42 L2134.43 1438.06 Z" fill="#000000" fill-rule="evenodd" fill-opacity="1" /><path clip-path="url(#clip040)" d="M2164.55 1466.74 L2169.43 1466.74 L2169.43 1472.62 L2164.55 1472.62 L2164.55 1466.74 Z" fill="#000000" fill-rule="evenodd" fill-opacity="1" /><path clip-path="url(#clip040)" d="M2189.62 1441.14 Q2186.01 1441.14 2184.18 1444.7 Q2182.37 1448.24 2182.37 1455.37 Q2182.37 1462.48 2184.18 1466.05 Q2186.01 1469.59 2189.62 1469.59 Q2193.25 1469.59 2195.06 1466.05 Q2196.89 1462.48 2196.89 1455.37 Q2196.89 1448.24 2195.06 1444.7 Q2193.25 1441.14 2189.62 1441.14 M2189.62 1437.43 Q2195.43 1437.43 2198.48 1442.04 Q2201.56 1446.62 2201.56 1455.37 Q2201.56 1464.1 2198.48 1468.71 Q2195.43 1473.29 2189.62 1473.29 Q2183.81 1473.29 2180.73 1468.71 Q2177.67 1464.1 2177.67 1455.37 Q2177.67 1446.62 2180.73 1442.04 Q2183.81 1437.43 2189.62 1437.43 Z" fill="#000000" fill-rule="evenodd" fill-opacity="1" /><path clip-path="url(#clip040)" d="M1201.76 1572.73 L1201.76 1570.15 Q1206.23 1570.15 1207.25 1569.62 Q1208.28 1569.04 1208.28 1566.34 L1208.28 1522.68 Q1208.28 1519.57 1207.17 1518.79 Q1206.11 1518.01 1201.76 1518.01 L1201.76 1515.39 L1213.81 1514.49 L1213.81 1566.34 Q1213.81 1569.04 1214.88 1569.62 Q1215.94 1570.15 1220.37 1570.15 L1220.37 1572.73 Q1219.35 1572.73 1217.21 1572.65 Q1215.08 1572.57 1213.52 1572.53 Q1211.97 1572.48 1211.07 1572.48 Q1210.08 1572.48 1201.76 1572.73 Z" fill="#000000" fill-rule="evenodd" fill-opacity="1" /><path clip-path="url(#clip040)" d="M1233 1568.22 Q1227.47 1562.73 1227.47 1554.78 Q1227.47 1546.78 1232.88 1540.96 Q1238.33 1535.1 1246.12 1535.1 Q1253.74 1535.1 1259.19 1540.92 Q1264.69 1546.7 1264.69 1554.78 Q1264.69 1562.69 1259.15 1568.18 Q1253.66 1573.67 1246.04 1573.67 Q1238.58 1573.67 1233 1568.22 M1234.44 1554.08 Q1234.44 1562.24 1236.57 1565.93 Q1239.85 1571.54 1246.12 1571.54 Q1249.23 1571.54 1251.81 1569.86 Q1254.44 1568.18 1255.87 1565.35 Q1257.72 1561.66 1257.72 1554.08 Q1257.72 1546.01 1255.5 1542.44 Q1252.22 1536.99 1246.04 1536.99 Q1243.33 1536.99 1240.67 1538.42 Q1238.04 1539.82 1236.44 1542.6 Q1234.44 1546.29 1234.44 1554.08 Z" fill="#000000" fill-rule="evenodd" fill-opacity="1" /><path clip-path="url(#clip040)" d="M1266.01 1579.37 Q1266.01 1576.67 1268.06 1574.33 Q1270.15 1571.99 1273.76 1570.97 Q1270.07 1568.63 1270.07 1563.51 Q1270.07 1559.57 1272.65 1556.54 Q1268.72 1553.26 1268.72 1547.89 Q1268.72 1542.93 1272.65 1539.28 Q1276.59 1535.64 1282.33 1535.64 Q1287.37 1535.64 1291.22 1538.67 Q1295.24 1534.73 1300.12 1534.69 Q1302.29 1534.69 1303.31 1536.05 Q1304.38 1537.4 1304.38 1538.83 Q1304.38 1540.1 1303.56 1540.72 Q1302.78 1541.33 1301.96 1541.33 Q1300.94 1541.33 1300.2 1540.68 Q1299.5 1539.98 1299.5 1538.91 Q1299.5 1537.15 1300.85 1536.62 Q1300.61 1536.54 1300.03 1536.54 Q1295.94 1536.54 1292.45 1539.82 Q1295.89 1543.01 1295.89 1547.97 Q1295.89 1552.93 1291.96 1556.58 Q1288.02 1560.23 1282.33 1560.23 Q1277.61 1560.23 1274.01 1557.61 Q1272.57 1559.29 1272.57 1561.58 Q1272.57 1563.67 1273.84 1565.31 Q1275.11 1566.95 1277.04 1567.2 Q1277.61 1567.28 1283.31 1567.28 Q1286.67 1567.28 1288.52 1567.36 Q1290.36 1567.44 1292.98 1568.02 Q1295.65 1568.55 1297.74 1569.62 Q1303.19 1572.65 1303.23 1579.21 Q1303.23 1584 1297.7 1587 Q1292.21 1590.03 1284.58 1590.03 Q1276.88 1590.03 1271.42 1586.95 Q1266.01 1583.92 1266.01 1579.37 M1270.4 1579.37 Q1270.4 1582.81 1274.46 1585.44 Q1278.52 1588.1 1284.66 1588.1 Q1290.69 1588.1 1294.75 1585.48 Q1298.85 1582.9 1298.85 1579.37 Q1298.85 1576.87 1297.41 1575.27 Q1295.98 1573.67 1293.03 1573.02 Q1290.11 1572.4 1288.07 1572.28 Q1286.02 1572.16 1282.25 1572.16 L1277.29 1572.16 Q1274.42 1572.32 1272.41 1574.41 Q1270.4 1576.5 1270.4 1579.37 M1274.99 1547.97 Q1274.99 1558.3 1282.33 1558.3 Q1286.02 1558.3 1288.27 1554.94 Q1289.62 1552.69 1289.62 1547.89 Q1289.62 1537.56 1282.33 1537.56 Q1278.64 1537.56 1276.34 1540.92 Q1274.99 1543.18 1274.99 1547.97 Z" fill="#000000" fill-rule="evenodd" fill-opacity="1" /><path clip-path="url(#clip040)" d="M1312.96 1595.99 Q1312.96 1594.93 1313.04 1594.61 Q1313.16 1594.3 1313.62 1593.81 L1324.89 1581.24 Q1331.06 1574.3 1331.06 1568.24 Q1331.06 1564.31 1329 1561.5 Q1326.96 1558.69 1323.2 1558.69 Q1320.62 1558.69 1318.44 1560.27 Q1316.26 1561.84 1315.25 1564.66 Q1315.43 1564.6 1316.03 1564.6 Q1317.49 1564.6 1318.29 1565.52 Q1319.13 1566.44 1319.13 1567.67 Q1319.13 1569.25 1318.09 1570.02 Q1317.09 1570.77 1316.09 1570.77 Q1315.68 1570.77 1315.14 1570.68 Q1314.62 1570.6 1313.79 1569.79 Q1312.96 1568.96 1312.96 1567.5 Q1312.96 1563.39 1316.06 1560.12 Q1319.18 1556.85 1323.95 1556.85 Q1329.34 1556.85 1332.87 1560.07 Q1336.43 1563.25 1336.43 1568.24 Q1336.43 1569.99 1335.88 1571.6 Q1335.37 1573.18 1334.65 1574.41 Q1333.96 1575.65 1332.07 1577.63 Q1330.17 1579.6 1328.65 1581.01 Q1327.13 1582.42 1323.72 1585.4 L1317.49 1591.45 L1328.08 1591.45 Q1333.24 1591.45 1333.64 1591 Q1334.22 1590.16 1334.94 1585.77 L1336.43 1585.77 L1334.76 1595.99 L1312.96 1595.99 Z" fill="#000000" fill-rule="evenodd" fill-opacity="1" /><path clip-path="url(#clip040)" d="M1415.83 1516.33 Q1415.83 1518.01 1414.39 1518.01 Q1409.76 1518.17 1407.87 1519.73 Q1406.03 1521.25 1405.33 1524.2 L1393.61 1570.97 Q1393.2 1572.44 1392.95 1572.61 Q1392.71 1572.73 1392.26 1572.73 Q1391.68 1572.73 1391.35 1572.44 Q1391.07 1572.16 1390.66 1571.13 L1369.75 1521.7 Q1369.59 1521.37 1369.38 1520.92 Q1369.18 1520.47 1369.02 1520.18 L1357.91 1564.49 Q1357.58 1565.76 1357.58 1566.42 Q1357.58 1568.02 1358.69 1569.04 Q1359.83 1570.03 1363.11 1570.15 Q1364.79 1570.15 1364.79 1571.05 Q1364.79 1572.73 1363.28 1572.73 Q1361.88 1572.73 1358.97 1572.61 Q1356.06 1572.48 1354.63 1572.48 Q1353.23 1572.48 1350.41 1572.61 Q1347.58 1572.73 1346.23 1572.73 Q1345.16 1572.73 1345.16 1571.79 Q1345.16 1571.05 1345.45 1570.68 Q1345.73 1570.27 1345.98 1570.23 Q1346.23 1570.15 1346.59 1570.15 Q1349.05 1570.07 1350.73 1569.57 Q1352.41 1569.08 1353.36 1568.14 Q1354.34 1567.2 1354.79 1566.25 Q1355.28 1565.27 1355.65 1563.84 L1366.88 1518.75 Q1366.88 1518.01 1361.19 1518.01 Q1360.2 1518.01 1359.79 1517.97 Q1359.42 1517.93 1359.14 1517.72 Q1358.85 1517.52 1358.85 1517.07 Q1358.85 1515.92 1359.34 1515.67 Q1359.83 1515.39 1361.27 1515.39 L1372.54 1515.39 Q1373.98 1515.39 1374.34 1515.63 Q1374.71 1515.84 1375.2 1516.99 L1393.77 1560.8 L1403.16 1523.46 Q1403.41 1522.72 1403.41 1521.7 Q1403.41 1520.06 1402.18 1519.08 Q1400.99 1518.05 1397.71 1518.01 Q1396.19 1518.01 1396.19 1517.07 Q1396.19 1516.29 1396.48 1515.92 Q1396.81 1515.51 1397.05 1515.47 Q1397.34 1515.39 1397.71 1515.39 Q1399.1 1515.39 1401.97 1515.51 Q1404.84 1515.63 1406.27 1515.63 Q1407.67 1515.63 1410.5 1515.51 Q1413.37 1515.39 1414.76 1515.39 Q1415.25 1515.39 1415.5 1515.63 Q1415.78 1515.84 1415.83 1516.08 L1415.83 1516.33 Z" fill="#000000" fill-rule="evenodd" fill-opacity="1" /><polyline clip-path="url(#clip040)" style="stroke:#000000; stroke-linecap:butt; stroke-linejoin:round; stroke-width:4; stroke-opacity:1; fill:none" points="
  260.905,1410.22 260.905,47.2441 
  "/>
<polyline clip-path="url(#clip040)" style="stroke:#000000; stroke-linecap:butt; stroke-linejoin:round; stroke-width:4; stroke-opacity:1; fill:none" points="
  260.905,1194.92 279.802,1194.92 
  "/>
<polyline clip-path="url(#clip040)" style="stroke:#000000; stroke-linecap:butt; stroke-linejoin:round; stroke-width:4; stroke-opacity:1; fill:none" points="
  260.905,926.157 279.802,926.157 
  "/>
<polyline clip-path="url(#clip040)" style="stroke:#000000; stroke-linecap:butt; stroke-linejoin:round; stroke-width:4; stroke-opacity:1; fill:none" points="
  260.905,657.396 279.802,657.396 
  "/>
<polyline clip-path="url(#clip040)" style="stroke:#000000; stroke-linecap:butt; stroke-linejoin:round; stroke-width:4; stroke-opacity:1; fill:none" points="
  260.905,388.635 279.802,388.635 
  "/>
<polyline clip-path="url(#clip040)" style="stroke:#000000; stroke-linecap:butt; stroke-linejoin:round; stroke-width:4; stroke-opacity:1; fill:none" points="
  260.905,119.874 279.802,119.874 
  "/>
<path clip-path="url(#clip040)" d="M128.378 1208.26 L136.016 1208.26 L136.016 1181.9 L127.706 1183.56 L127.706 1179.3 L135.97 1177.64 L140.646 1177.64 L140.646 1208.26 L148.285 1208.26 L148.285 1212.2 L128.378 1212.2 L128.378 1208.26 Z" fill="#000000" fill-rule="evenodd" fill-opacity="1" /><path clip-path="url(#clip040)" d="M157.729 1206.32 L162.613 1206.32 L162.613 1212.2 L157.729 1212.2 L157.729 1206.32 Z" fill="#000000" fill-rule="evenodd" fill-opacity="1" /><path clip-path="url(#clip040)" d="M176.826 1208.26 L193.146 1208.26 L193.146 1212.2 L171.201 1212.2 L171.201 1208.26 Q173.863 1205.51 178.447 1200.88 Q183.053 1196.23 184.234 1194.88 Q186.479 1192.36 187.359 1190.62 Q188.261 1188.86 188.261 1187.17 Q188.261 1184.42 186.317 1182.68 Q184.396 1180.95 181.294 1180.95 Q179.095 1180.95 176.641 1181.71 Q174.211 1182.48 171.433 1184.03 L171.433 1179.3 Q174.257 1178.17 176.711 1177.59 Q179.164 1177.01 181.201 1177.01 Q186.572 1177.01 189.766 1179.7 Q192.961 1182.38 192.961 1186.87 Q192.961 1189 192.15 1190.92 Q191.363 1192.82 189.257 1195.42 Q188.678 1196.09 185.576 1199.3 Q182.474 1202.5 176.826 1208.26 Z" fill="#000000" fill-rule="evenodd" fill-opacity="1" /><path clip-path="url(#clip040)" d="M212.96 1180.72 Q209.349 1180.72 207.521 1184.28 Q205.715 1187.82 205.715 1194.95 Q205.715 1202.06 207.521 1205.62 Q209.349 1209.17 212.96 1209.17 Q216.595 1209.17 218.4 1205.62 Q220.229 1202.06 220.229 1194.95 Q220.229 1187.82 218.4 1184.28 Q216.595 1180.72 212.96 1180.72 M212.96 1177.01 Q218.771 1177.01 221.826 1181.62 Q224.905 1186.2 224.905 1194.95 Q224.905 1203.68 221.826 1208.29 Q218.771 1212.87 212.96 1212.87 Q207.15 1212.87 204.072 1208.29 Q201.016 1203.68 201.016 1194.95 Q201.016 1186.2 204.072 1181.62 Q207.15 1177.01 212.96 1177.01 Z" fill="#000000" fill-rule="evenodd" fill-opacity="1" /><path clip-path="url(#clip040)" d="M129.975 939.502 L137.614 939.502 L137.614 913.136 L129.303 914.803 L129.303 910.543 L137.567 908.877 L142.243 908.877 L142.243 939.502 L149.882 939.502 L149.882 943.437 L129.975 943.437 L129.975 939.502 Z" fill="#000000" fill-rule="evenodd" fill-opacity="1" /><path clip-path="url(#clip040)" d="M159.326 937.557 L164.211 937.557 L164.211 943.437 L159.326 943.437 L159.326 937.557 Z" fill="#000000" fill-rule="evenodd" fill-opacity="1" /><path clip-path="url(#clip040)" d="M178.424 939.502 L194.743 939.502 L194.743 943.437 L172.799 943.437 L172.799 939.502 Q175.461 936.747 180.044 932.117 Q184.65 927.465 185.831 926.122 Q188.076 923.599 188.956 921.863 Q189.859 920.104 189.859 918.414 Q189.859 915.659 187.914 913.923 Q185.993 912.187 182.891 912.187 Q180.692 912.187 178.238 912.951 Q175.808 913.715 173.03 915.266 L173.03 910.543 Q175.854 909.409 178.308 908.831 Q180.762 908.252 182.799 908.252 Q188.169 908.252 191.363 910.937 Q194.558 913.622 194.558 918.113 Q194.558 920.243 193.748 922.164 Q192.961 924.062 190.854 926.655 Q190.275 927.326 187.174 930.543 Q184.072 933.738 178.424 939.502 Z" fill="#000000" fill-rule="evenodd" fill-opacity="1" /><path clip-path="url(#clip040)" d="M208.585 939.502 L224.905 939.502 L224.905 943.437 L202.96 943.437 L202.96 939.502 Q205.623 936.747 210.206 932.117 Q214.812 927.465 215.993 926.122 Q218.238 923.599 219.118 921.863 Q220.021 920.104 220.021 918.414 Q220.021 915.659 218.076 913.923 Q216.155 912.187 213.053 912.187 Q210.854 912.187 208.4 912.951 Q205.97 913.715 203.192 915.266 L203.192 910.543 Q206.016 909.409 208.47 908.831 Q210.923 908.252 212.96 908.252 Q218.331 908.252 221.525 910.937 Q224.72 913.622 224.72 918.113 Q224.72 920.243 223.909 922.164 Q223.122 924.062 221.016 926.655 Q220.437 927.326 217.335 930.543 Q214.234 933.738 208.585 939.502 Z" fill="#000000" fill-rule="evenodd" fill-opacity="1" /><path clip-path="url(#clip040)" d="M127.891 670.741 L135.53 670.741 L135.53 644.375 L127.22 646.042 L127.22 641.782 L135.484 640.116 L140.16 640.116 L140.16 670.741 L147.799 670.741 L147.799 674.676 L127.891 674.676 L127.891 670.741 Z" fill="#000000" fill-rule="evenodd" fill-opacity="1" /><path clip-path="url(#clip040)" d="M157.243 668.796 L162.127 668.796 L162.127 674.676 L157.243 674.676 L157.243 668.796 Z" fill="#000000" fill-rule="evenodd" fill-opacity="1" /><path clip-path="url(#clip040)" d="M176.34 670.741 L192.66 670.741 L192.66 674.676 L170.715 674.676 L170.715 670.741 Q173.377 667.986 177.961 663.356 Q182.567 658.704 183.748 657.361 Q185.993 654.838 186.873 653.102 Q187.775 651.343 187.775 649.653 Q187.775 646.898 185.831 645.162 Q183.91 643.426 180.808 643.426 Q178.609 643.426 176.155 644.19 Q173.725 644.954 170.947 646.505 L170.947 641.782 Q173.771 640.648 176.225 640.07 Q178.678 639.491 180.715 639.491 Q186.086 639.491 189.28 642.176 Q192.474 644.861 192.474 649.352 Q192.474 651.482 191.664 653.403 Q190.877 655.301 188.771 657.894 Q188.192 658.565 185.09 661.782 Q181.988 664.977 176.34 670.741 Z" fill="#000000" fill-rule="evenodd" fill-opacity="1" /><path clip-path="url(#clip040)" d="M215.322 644.19 L203.516 662.639 L215.322 662.639 L215.322 644.19 M214.095 640.116 L219.974 640.116 L219.974 662.639 L224.905 662.639 L224.905 666.528 L219.974 666.528 L219.974 674.676 L215.322 674.676 L215.322 666.528 L199.72 666.528 L199.72 662.014 L214.095 640.116 Z" fill="#000000" fill-rule="evenodd" fill-opacity="1" /><path clip-path="url(#clip040)" d="M128.216 401.98 L135.854 401.98 L135.854 375.614 L127.544 377.281 L127.544 373.022 L135.808 371.355 L140.484 371.355 L140.484 401.98 L148.123 401.98 L148.123 405.915 L128.216 405.915 L128.216 401.98 Z" fill="#000000" fill-rule="evenodd" fill-opacity="1" /><path clip-path="url(#clip040)" d="M157.567 400.035 L162.451 400.035 L162.451 405.915 L157.567 405.915 L157.567 400.035 Z" fill="#000000" fill-rule="evenodd" fill-opacity="1" /><path clip-path="url(#clip040)" d="M176.664 401.98 L192.984 401.98 L192.984 405.915 L171.039 405.915 L171.039 401.98 Q173.701 399.225 178.285 394.595 Q182.891 389.943 184.072 388.6 Q186.317 386.077 187.197 384.341 Q188.099 382.582 188.099 380.892 Q188.099 378.137 186.155 376.401 Q184.234 374.665 181.132 374.665 Q178.933 374.665 176.479 375.429 Q174.049 376.193 171.271 377.744 L171.271 373.022 Q174.095 371.887 176.549 371.309 Q179.002 370.73 181.039 370.73 Q186.41 370.73 189.604 373.415 Q192.799 376.1 192.799 380.591 Q192.799 382.721 191.988 384.642 Q191.201 386.54 189.095 389.133 Q188.516 389.804 185.414 393.021 Q182.312 396.216 176.664 401.98 Z" fill="#000000" fill-rule="evenodd" fill-opacity="1" /><path clip-path="url(#clip040)" d="M213.377 386.771 Q210.229 386.771 208.377 388.924 Q206.548 391.077 206.548 394.827 Q206.548 398.554 208.377 400.73 Q210.229 402.882 213.377 402.882 Q216.525 402.882 218.354 400.73 Q220.206 398.554 220.206 394.827 Q220.206 391.077 218.354 388.924 Q216.525 386.771 213.377 386.771 M222.659 372.119 L222.659 376.378 Q220.9 375.545 219.095 375.105 Q217.312 374.665 215.553 374.665 Q210.923 374.665 208.47 377.79 Q206.039 380.915 205.692 387.234 Q207.058 385.221 209.118 384.156 Q211.178 383.068 213.655 383.068 Q218.863 383.068 221.872 386.239 Q224.905 389.387 224.905 394.827 Q224.905 400.151 221.757 403.369 Q218.609 406.586 213.377 406.586 Q207.382 406.586 204.21 402.003 Q201.039 397.396 201.039 388.67 Q201.039 380.475 204.928 375.614 Q208.817 370.73 215.368 370.73 Q217.127 370.73 218.909 371.077 Q220.715 371.424 222.659 372.119 Z" fill="#000000" fill-rule="evenodd" fill-opacity="1" /><path clip-path="url(#clip040)" d="M128.47 133.219 L136.109 133.219 L136.109 106.853 L127.799 108.52 L127.799 104.261 L136.063 102.594 L140.739 102.594 L140.739 133.219 L148.377 133.219 L148.377 137.154 L128.47 137.154 L128.47 133.219 Z" fill="#000000" fill-rule="evenodd" fill-opacity="1" /><path clip-path="url(#clip040)" d="M157.822 131.274 L162.706 131.274 L162.706 137.154 L157.822 137.154 L157.822 131.274 Z" fill="#000000" fill-rule="evenodd" fill-opacity="1" /><path clip-path="url(#clip040)" d="M176.919 133.219 L193.238 133.219 L193.238 137.154 L171.294 137.154 L171.294 133.219 Q173.956 130.464 178.539 125.834 Q183.146 121.182 184.326 119.839 Q186.572 117.316 187.451 115.58 Q188.354 113.821 188.354 112.131 Q188.354 109.376 186.41 107.64 Q184.488 105.904 181.387 105.904 Q179.187 105.904 176.734 106.668 Q174.303 107.432 171.525 108.983 L171.525 104.261 Q174.35 103.126 176.803 102.548 Q179.257 101.969 181.294 101.969 Q186.664 101.969 189.859 104.654 Q193.053 107.339 193.053 111.83 Q193.053 113.96 192.243 115.881 Q191.456 117.779 189.349 120.372 Q188.771 121.043 185.669 124.26 Q182.567 127.455 176.919 133.219 Z" fill="#000000" fill-rule="evenodd" fill-opacity="1" /><path clip-path="url(#clip040)" d="M213.053 120.742 Q209.72 120.742 207.798 122.524 Q205.9 124.307 205.9 127.432 Q205.9 130.557 207.798 132.339 Q209.72 134.121 213.053 134.121 Q216.386 134.121 218.308 132.339 Q220.229 130.534 220.229 127.432 Q220.229 124.307 218.308 122.524 Q216.409 120.742 213.053 120.742 M208.377 118.751 Q205.368 118.01 203.678 115.95 Q202.011 113.89 202.011 110.927 Q202.011 106.784 204.951 104.376 Q207.914 101.969 213.053 101.969 Q218.215 101.969 221.155 104.376 Q224.095 106.784 224.095 110.927 Q224.095 113.89 222.405 115.95 Q220.738 118.01 217.752 118.751 Q221.132 119.538 223.007 121.83 Q224.905 124.122 224.905 127.432 Q224.905 132.455 221.826 135.14 Q218.771 137.825 213.053 137.825 Q207.335 137.825 204.257 135.14 Q201.201 132.455 201.201 127.432 Q201.201 124.122 203.099 121.83 Q204.998 119.538 208.377 118.751 M206.664 111.367 Q206.664 114.052 208.331 115.557 Q210.021 117.061 213.053 117.061 Q216.062 117.061 217.752 115.557 Q219.465 114.052 219.465 111.367 Q219.465 108.682 217.752 107.177 Q216.062 105.673 213.053 105.673 Q210.021 105.673 208.331 107.177 Q206.664 108.682 206.664 111.367 Z" fill="#000000" fill-rule="evenodd" fill-opacity="1" /><path clip-path="url(#clip040)" d="M32.0609 706.184 Q32.3888 706.184 35.2581 707.783 Q40.5457 710.447 48.6206 713.849 Q56.6955 717.251 62.6799 719.178 Q64.1145 719.588 65.959 719.875 Q71.6156 720.613 80.3873 722.99 Q83.1335 723.81 84.2812 724.343 Q85.4289 724.875 85.4289 725.654 Q85.4289 726.761 83.9123 726.761 Q82.3957 726.761 76.7392 725.367 Q71.0827 723.933 65.8771 722.375 Q63.0078 721.391 57.6382 721.391 Q55.9167 721.391 54.3591 721.473 Q52.8015 721.555 50.5471 721.883 Q48.2927 722.211 46.4481 722.744 Q44.6036 723.277 42.6771 724.302 Q40.7096 725.326 39.398 726.72 Q38.0453 728.114 37.1846 730.245 Q36.3238 732.336 36.3238 734.959 Q36.3238 735.615 36.4058 736.434 Q36.4468 737.213 36.9796 739.099 Q37.5125 740.943 38.4552 742.501 Q39.357 744.058 41.3655 745.739 Q43.3739 747.42 46.0792 748.321 L46.4891 748.649 Q46.4891 749.182 46.4891 749.469 Q46.4481 749.715 46.2432 750.002 Q46.0382 750.248 45.6693 750.248 Q44.8086 750.248 43.087 749.592 Q41.3655 748.895 39.152 747.502 Q36.9386 746.067 34.9711 744.222 Q33.0037 742.337 31.651 739.591 Q30.2984 736.844 30.2984 733.893 Q30.2984 726.31 39.5209 722.703 Q47.3499 719.547 56.6545 719.26 Q40.1358 712.702 31.815 708.193 Q31.2001 707.947 31.2001 707.209 Q31.2411 706.184 32.0609 706.184 Z" fill="#000000" fill-rule="evenodd" fill-opacity="1" /><polyline clip-path="url(#clip043)" style="stroke:#000000; stroke-linecap:butt; stroke-linejoin:round; stroke-width:4; stroke-opacity:1; fill:none" points="
  2010.79,195.157 2010.79,173.545 
  "/>
<polyline clip-path="url(#clip043)" style="stroke:#000000; stroke-linecap:butt; stroke-linejoin:round; stroke-width:4; stroke-opacity:1; fill:none" points="
  320.108,1371.65 320.108,1262.31 
  "/>
<polyline clip-path="url(#clip043)" style="stroke:#000000; stroke-linecap:butt; stroke-linejoin:round; stroke-width:4; stroke-opacity:1; fill:none" points="
  1728.07,153.905 1728.07,128.657 
  "/>
<polyline clip-path="url(#clip043)" style="stroke:#000000; stroke-linecap:butt; stroke-linejoin:round; stroke-width:4; stroke-opacity:1; fill:none" points="
  1163.03,250.122 1163.03,214.121 
  "/>
<polyline clip-path="url(#clip043)" style="stroke:#000000; stroke-linecap:butt; stroke-linejoin:round; stroke-width:4; stroke-opacity:1; fill:none" points="
  599.775,907.698 599.775,840.678 
  "/>
<polyline clip-path="url(#clip043)" style="stroke:#000000; stroke-linecap:butt; stroke-linejoin:round; stroke-width:4; stroke-opacity:1; fill:none" points="
  1445.45,115.83 1445.45,85.8189 
  "/>
<polyline clip-path="url(#clip043)" style="stroke:#000000; stroke-linecap:butt; stroke-linejoin:round; stroke-width:4; stroke-opacity:1; fill:none" points="
  2293.55,270.957 2293.55,252.718 
  "/>
<polyline clip-path="url(#clip043)" style="stroke:#000000; stroke-linecap:butt; stroke-linejoin:round; stroke-width:4; stroke-opacity:1; fill:none" points="
  881.007,411.548 881.007,364.549 
  "/>
<line clip-path="url(#clip043)" x1="2026.79" y1="195.157" x2="1994.79" y2="195.157" style="stroke:#000000; stroke-width:3.2; stroke-opacity:1"/>
<line clip-path="url(#clip043)" x1="2026.79" y1="173.545" x2="1994.79" y2="173.545" style="stroke:#000000; stroke-width:3.2; stroke-opacity:1"/>
<line clip-path="url(#clip043)" x1="336.108" y1="1371.65" x2="304.108" y2="1371.65" style="stroke:#000000; stroke-width:3.2; stroke-opacity:1"/>
<line clip-path="url(#clip043)" x1="336.108" y1="1262.31" x2="304.108" y2="1262.31" style="stroke:#000000; stroke-width:3.2; stroke-opacity:1"/>
<line clip-path="url(#clip043)" x1="1744.07" y1="153.905" x2="1712.07" y2="153.905" style="stroke:#000000; stroke-width:3.2; stroke-opacity:1"/>
<line clip-path="url(#clip043)" x1="1744.07" y1="128.657" x2="1712.07" y2="128.657" style="stroke:#000000; stroke-width:3.2; stroke-opacity:1"/>
<line clip-path="url(#clip043)" x1="1179.03" y1="250.122" x2="1147.03" y2="250.122" style="stroke:#000000; stroke-width:3.2; stroke-opacity:1"/>
<line clip-path="url(#clip043)" x1="1179.03" y1="214.121" x2="1147.03" y2="214.121" style="stroke:#000000; stroke-width:3.2; stroke-opacity:1"/>
<line clip-path="url(#clip043)" x1="615.775" y1="907.698" x2="583.775" y2="907.698" style="stroke:#000000; stroke-width:3.2; stroke-opacity:1"/>
<line clip-path="url(#clip043)" x1="615.775" y1="840.678" x2="583.775" y2="840.678" style="stroke:#000000; stroke-width:3.2; stroke-opacity:1"/>
<line clip-path="url(#clip043)" x1="1461.45" y1="115.83" x2="1429.45" y2="115.83" style="stroke:#000000; stroke-width:3.2; stroke-opacity:1"/>
<line clip-path="url(#clip043)" x1="1461.45" y1="85.8189" x2="1429.45" y2="85.8189" style="stroke:#000000; stroke-width:3.2; stroke-opacity:1"/>
<line clip-path="url(#clip043)" x1="2309.55" y1="270.957" x2="2277.55" y2="270.957" style="stroke:#000000; stroke-width:3.2; stroke-opacity:1"/>
<line clip-path="url(#clip043)" x1="2309.55" y1="252.718" x2="2277.55" y2="252.718" style="stroke:#000000; stroke-width:3.2; stroke-opacity:1"/>
<line clip-path="url(#clip043)" x1="897.007" y1="411.548" x2="865.007" y2="411.548" style="stroke:#000000; stroke-width:3.2; stroke-opacity:1"/>
<line clip-path="url(#clip043)" x1="897.007" y1="364.549" x2="865.007" y2="364.549" style="stroke:#000000; stroke-width:3.2; stroke-opacity:1"/>
<line clip-path="url(#clip043)" x1="2026.79" y1="184.351" x2="1994.79" y2="184.351" style="stroke:#000000; stroke-width:3.2; stroke-opacity:1"/>
<line clip-path="url(#clip043)" x1="336.108" y1="1316.98" x2="304.108" y2="1316.98" style="stroke:#000000; stroke-width:3.2; stroke-opacity:1"/>
<line clip-path="url(#clip043)" x1="1744.07" y1="141.281" x2="1712.07" y2="141.281" style="stroke:#000000; stroke-width:3.2; stroke-opacity:1"/>
<line clip-path="url(#clip043)" x1="1179.03" y1="232.121" x2="1147.03" y2="232.121" style="stroke:#000000; stroke-width:3.2; stroke-opacity:1"/>
<line clip-path="url(#clip043)" x1="615.775" y1="874.188" x2="583.775" y2="874.188" style="stroke:#000000; stroke-width:3.2; stroke-opacity:1"/>
<line clip-path="url(#clip043)" x1="1461.45" y1="100.824" x2="1429.45" y2="100.824" style="stroke:#000000; stroke-width:3.2; stroke-opacity:1"/>
<line clip-path="url(#clip043)" x1="2309.55" y1="261.837" x2="2277.55" y2="261.837" style="stroke:#000000; stroke-width:3.2; stroke-opacity:1"/>
<line clip-path="url(#clip043)" x1="897.007" y1="388.048" x2="865.007" y2="388.048" style="stroke:#000000; stroke-width:3.2; stroke-opacity:1"/>
</svg>
