<?xml version="1.0" encoding="utf-8"?>
<svg xmlns="http://www.w3.org/2000/svg" xmlns:xlink="http://www.w3.org/1999/xlink" width="600" height="400" viewBox="0 0 2400 1600">
<defs>
  <clipPath id="clip420">
    <rect x="0" y="0" width="2400" height="1600"/>
  </clipPath>
</defs>
<path clip-path="url(#clip420)" d="
M0 1600 L2400 1600 L2400 0 L0 0  Z
  " fill="#000000" fill-rule="evenodd" fill-opacity="0"/>
<defs>
  <clipPath id="clip421">
    <rect x="480" y="0" width="1681" height="1600"/>
  </clipPath>
</defs>
<defs>
  <clipPath id="clip422">
    <rect x="269" y="47" width="2084" height="1364"/>
  </clipPath>
</defs>
<path clip-path="url(#clip420)" d="
M260.419 1410.22 L2352.76 1410.22 L2352.76 47.2441 L260.419 47.2441  Z
  " fill="#000000" fill-rule="evenodd" fill-opacity="0"/>
<defs>
  <clipPath id="clip423">
    <rect x="260" y="47" width="2093" height="1364"/>
  </clipPath>
</defs>
<polyline clip-path="url(#clip420)" style="stroke:#000000; stroke-linecap:butt; stroke-linejoin:round; stroke-width:4; stroke-opacity:1; fill:none" points="
  260.419,1410.22 2352.76,1410.22 
  "/>
<polyline clip-path="url(#clip420)" style="stroke:#000000; stroke-linecap:butt; stroke-linejoin:round; stroke-width:4; stroke-opacity:1; fill:none" points="
  384.029,1410.22 384.029,1391.32 
  "/>
<polyline clip-path="url(#clip420)" style="stroke:#000000; stroke-linecap:butt; stroke-linejoin:round; stroke-width:4; stroke-opacity:1; fill:none" points="
  737.633,1410.22 737.633,1391.32 
  "/>
<polyline clip-path="url(#clip420)" style="stroke:#000000; stroke-linecap:butt; stroke-linejoin:round; stroke-width:4; stroke-opacity:1; fill:none" points="
  1091.24,1410.22 1091.24,1391.32 
  "/>
<polyline clip-path="url(#clip420)" style="stroke:#000000; stroke-linecap:butt; stroke-linejoin:round; stroke-width:4; stroke-opacity:1; fill:none" points="
  1444.84,1410.22 1444.84,1391.32 
  "/>
<polyline clip-path="url(#clip420)" style="stroke:#000000; stroke-linecap:butt; stroke-linejoin:round; stroke-width:4; stroke-opacity:1; fill:none" points="
  1798.44,1410.22 1798.44,1391.32 
  "/>
<polyline clip-path="url(#clip420)" style="stroke:#000000; stroke-linecap:butt; stroke-linejoin:round; stroke-width:4; stroke-opacity:1; fill:none" points="
  2152.05,1410.22 2152.05,1391.32 
  "/>
<path clip-path="url(#clip420)" d="M336.599 1468.68 L344.238 1468.68 L344.238 1442.32 L335.927 1443.99 L335.927 1439.73 L344.191 1438.06 L348.867 1438.06 L348.867 1468.68 L356.506 1468.68 L356.506 1472.62 L336.599 1472.62 L336.599 1468.68 Z" fill="#000000" fill-rule="evenodd" fill-opacity="1" /><path clip-path="url(#clip420)" d="M369.978 1468.68 L386.298 1468.68 L386.298 1472.62 L364.353 1472.62 L364.353 1468.68 Q367.015 1465.93 371.599 1461.3 Q376.205 1456.65 377.386 1455.31 Q379.631 1452.78 380.511 1451.05 Q381.413 1449.29 381.413 1447.6 Q381.413 1444.84 379.469 1443.11 Q377.548 1441.37 374.446 1441.37 Q372.247 1441.37 369.793 1442.13 Q367.362 1442.9 364.585 1444.45 L364.585 1439.73 Q367.409 1438.59 369.862 1438.01 Q372.316 1437.43 374.353 1437.43 Q379.724 1437.43 382.918 1440.12 Q386.112 1442.81 386.112 1447.3 Q386.112 1449.43 385.302 1451.35 Q384.515 1453.24 382.409 1455.84 Q381.83 1456.51 378.728 1459.73 Q375.626 1462.92 369.978 1468.68 Z" fill="#000000" fill-rule="evenodd" fill-opacity="1" /><path clip-path="url(#clip420)" d="M396.112 1466.74 L400.997 1466.74 L400.997 1472.62 L396.112 1472.62 L396.112 1466.74 Z" fill="#000000" fill-rule="evenodd" fill-opacity="1" /><path clip-path="url(#clip420)" d="M411.228 1438.06 L429.584 1438.06 L429.584 1442 L415.51 1442 L415.51 1450.47 Q416.529 1450.12 417.547 1449.96 Q418.566 1449.77 419.584 1449.77 Q425.371 1449.77 428.751 1452.94 Q432.131 1456.12 432.131 1461.53 Q432.131 1467.11 428.658 1470.21 Q425.186 1473.29 418.867 1473.29 Q416.691 1473.29 414.422 1472.92 Q412.177 1472.55 409.77 1471.81 L409.77 1467.11 Q411.853 1468.24 414.075 1468.8 Q416.297 1469.36 418.774 1469.36 Q422.779 1469.36 425.117 1467.25 Q427.455 1465.14 427.455 1461.53 Q427.455 1457.92 425.117 1455.81 Q422.779 1453.71 418.774 1453.71 Q416.899 1453.71 415.024 1454.12 Q413.172 1454.54 411.228 1455.42 L411.228 1438.06 Z" fill="#000000" fill-rule="evenodd" fill-opacity="1" /><path clip-path="url(#clip420)" d="M689.705 1468.68 L697.344 1468.68 L697.344 1442.32 L689.033 1443.99 L689.033 1439.73 L697.297 1438.06 L701.973 1438.06 L701.973 1468.68 L709.612 1468.68 L709.612 1472.62 L689.705 1472.62 L689.705 1468.68 Z" fill="#000000" fill-rule="evenodd" fill-opacity="1" /><path clip-path="url(#clip420)" d="M719.103 1438.06 L737.459 1438.06 L737.459 1442 L723.385 1442 L723.385 1450.47 Q724.404 1450.12 725.422 1449.96 Q726.441 1449.77 727.459 1449.77 Q733.246 1449.77 736.626 1452.94 Q740.005 1456.12 740.005 1461.53 Q740.005 1467.11 736.533 1470.21 Q733.061 1473.29 726.742 1473.29 Q724.566 1473.29 722.297 1472.92 Q720.052 1472.55 717.644 1471.81 L717.644 1467.11 Q719.728 1468.24 721.95 1468.8 Q724.172 1469.36 726.649 1469.36 Q730.654 1469.36 732.992 1467.25 Q735.33 1465.14 735.33 1461.53 Q735.33 1457.92 732.992 1455.81 Q730.654 1453.71 726.649 1453.71 Q724.774 1453.71 722.899 1454.12 Q721.047 1454.54 719.103 1455.42 L719.103 1438.06 Z" fill="#000000" fill-rule="evenodd" fill-opacity="1" /><path clip-path="url(#clip420)" d="M749.218 1466.74 L754.103 1466.74 L754.103 1472.62 L749.218 1472.62 L749.218 1466.74 Z" fill="#000000" fill-rule="evenodd" fill-opacity="1" /><path clip-path="url(#clip420)" d="M774.288 1441.14 Q770.677 1441.14 768.848 1444.7 Q767.042 1448.24 767.042 1455.37 Q767.042 1462.48 768.848 1466.05 Q770.677 1469.59 774.288 1469.59 Q777.922 1469.59 779.727 1466.05 Q781.556 1462.48 781.556 1455.37 Q781.556 1448.24 779.727 1444.7 Q777.922 1441.14 774.288 1441.14 M774.288 1437.43 Q780.098 1437.43 783.153 1442.04 Q786.232 1446.62 786.232 1455.37 Q786.232 1464.1 783.153 1468.71 Q780.098 1473.29 774.288 1473.29 Q768.477 1473.29 765.399 1468.71 Q762.343 1464.1 762.343 1455.37 Q762.343 1446.62 765.399 1442.04 Q768.477 1437.43 774.288 1437.43 Z" fill="#000000" fill-rule="evenodd" fill-opacity="1" /><path clip-path="url(#clip420)" d="M1043.81 1468.68 L1051.44 1468.68 L1051.44 1442.32 L1043.13 1443.99 L1043.13 1439.73 L1051.4 1438.06 L1056.07 1438.06 L1056.07 1468.68 L1063.71 1468.68 L1063.71 1472.62 L1043.81 1472.62 L1043.81 1468.68 Z" fill="#000000" fill-rule="evenodd" fill-opacity="1" /><path clip-path="url(#clip420)" d="M1071.98 1438.06 L1094.2 1438.06 L1094.2 1440.05 L1081.65 1472.62 L1076.77 1472.62 L1088.57 1442 L1071.98 1442 L1071.98 1438.06 Z" fill="#000000" fill-rule="evenodd" fill-opacity="1" /><path clip-path="url(#clip420)" d="M1103.32 1466.74 L1108.2 1466.74 L1108.2 1472.62 L1103.32 1472.62 L1103.32 1466.74 Z" fill="#000000" fill-rule="evenodd" fill-opacity="1" /><path clip-path="url(#clip420)" d="M1118.44 1438.06 L1136.79 1438.06 L1136.79 1442 L1122.72 1442 L1122.72 1450.47 Q1123.74 1450.12 1124.75 1449.96 Q1125.77 1449.77 1126.79 1449.77 Q1132.58 1449.77 1135.96 1452.94 Q1139.34 1456.12 1139.34 1461.53 Q1139.34 1467.11 1135.87 1470.21 Q1132.39 1473.29 1126.07 1473.29 Q1123.9 1473.29 1121.63 1472.92 Q1119.38 1472.55 1116.98 1471.81 L1116.98 1467.11 Q1119.06 1468.24 1121.28 1468.8 Q1123.5 1469.36 1125.98 1469.36 Q1129.99 1469.36 1132.32 1467.25 Q1134.66 1465.14 1134.66 1461.53 Q1134.66 1457.92 1132.32 1455.81 Q1129.99 1453.71 1125.98 1453.71 Q1124.11 1453.71 1122.23 1454.12 Q1120.38 1454.54 1118.44 1455.42 L1118.44 1438.06 Z" fill="#000000" fill-rule="evenodd" fill-opacity="1" /><path clip-path="url(#clip420)" d="M1401 1468.68 L1417.32 1468.68 L1417.32 1472.62 L1395.37 1472.62 L1395.37 1468.68 Q1398.03 1465.93 1402.62 1461.3 Q1407.22 1456.65 1408.41 1455.31 Q1410.65 1452.78 1411.53 1451.05 Q1412.43 1449.29 1412.43 1447.6 Q1412.43 1444.84 1410.49 1443.11 Q1408.57 1441.37 1405.47 1441.37 Q1403.27 1441.37 1400.81 1442.13 Q1398.38 1442.9 1395.6 1444.45 L1395.6 1439.73 Q1398.43 1438.59 1400.88 1438.01 Q1403.34 1437.43 1405.37 1437.43 Q1410.74 1437.43 1413.94 1440.12 Q1417.13 1442.81 1417.13 1447.3 Q1417.13 1449.43 1416.32 1451.35 Q1415.53 1453.24 1413.43 1455.84 Q1412.85 1456.51 1409.75 1459.73 Q1406.65 1462.92 1401 1468.68 Z" fill="#000000" fill-rule="evenodd" fill-opacity="1" /><path clip-path="url(#clip420)" d="M1437.13 1441.14 Q1433.52 1441.14 1431.69 1444.7 Q1429.89 1448.24 1429.89 1455.37 Q1429.89 1462.48 1431.69 1466.05 Q1433.52 1469.59 1437.13 1469.59 Q1440.77 1469.59 1442.57 1466.05 Q1444.4 1462.48 1444.4 1455.37 Q1444.4 1448.24 1442.57 1444.7 Q1440.77 1441.14 1437.13 1441.14 M1437.13 1437.43 Q1442.94 1437.43 1446 1442.04 Q1449.08 1446.62 1449.08 1455.37 Q1449.08 1464.1 1446 1468.71 Q1442.94 1473.29 1437.13 1473.29 Q1431.32 1473.29 1428.24 1468.71 Q1425.19 1464.1 1425.19 1455.37 Q1425.19 1446.62 1428.24 1442.04 Q1431.32 1437.43 1437.13 1437.43 Z" fill="#000000" fill-rule="evenodd" fill-opacity="1" /><path clip-path="url(#clip420)" d="M1457.29 1466.74 L1462.18 1466.74 L1462.18 1472.62 L1457.29 1472.62 L1457.29 1466.74 Z" fill="#000000" fill-rule="evenodd" fill-opacity="1" /><path clip-path="url(#clip420)" d="M1482.36 1441.14 Q1478.75 1441.14 1476.92 1444.7 Q1475.12 1448.24 1475.12 1455.37 Q1475.12 1462.48 1476.92 1466.05 Q1478.75 1469.59 1482.36 1469.59 Q1486 1469.59 1487.8 1466.05 Q1489.63 1462.48 1489.63 1455.37 Q1489.63 1448.24 1487.8 1444.7 Q1486 1441.14 1482.36 1441.14 M1482.36 1437.43 Q1488.17 1437.43 1491.23 1442.04 Q1494.31 1446.62 1494.31 1455.37 Q1494.31 1464.1 1491.23 1468.71 Q1488.17 1473.29 1482.36 1473.29 Q1476.55 1473.29 1473.47 1468.71 Q1470.42 1464.1 1470.42 1455.37 Q1470.42 1446.62 1473.47 1442.04 Q1476.55 1437.43 1482.36 1437.43 Z" fill="#000000" fill-rule="evenodd" fill-opacity="1" /><path clip-path="url(#clip420)" d="M1755.1 1468.68 L1771.42 1468.68 L1771.42 1472.62 L1749.47 1472.62 L1749.47 1468.68 Q1752.14 1465.93 1756.72 1461.3 Q1761.33 1456.65 1762.51 1455.31 Q1764.75 1452.78 1765.63 1451.05 Q1766.53 1449.29 1766.53 1447.6 Q1766.53 1444.84 1764.59 1443.11 Q1762.67 1441.37 1759.57 1441.37 Q1757.37 1441.37 1754.91 1442.13 Q1752.48 1442.9 1749.71 1444.45 L1749.71 1439.73 Q1752.53 1438.59 1754.98 1438.01 Q1757.44 1437.43 1759.47 1437.43 Q1764.84 1437.43 1768.04 1440.12 Q1771.23 1442.81 1771.23 1447.3 Q1771.23 1449.43 1770.42 1451.35 Q1769.64 1453.24 1767.53 1455.84 Q1766.95 1456.51 1763.85 1459.73 Q1760.75 1462.92 1755.1 1468.68 Z" fill="#000000" fill-rule="evenodd" fill-opacity="1" /><path clip-path="url(#clip420)" d="M1785.26 1468.68 L1801.58 1468.68 L1801.58 1472.62 L1779.64 1472.62 L1779.64 1468.68 Q1782.3 1465.93 1786.88 1461.3 Q1791.49 1456.65 1792.67 1455.31 Q1794.91 1452.78 1795.79 1451.05 Q1796.7 1449.29 1796.7 1447.6 Q1796.7 1444.84 1794.75 1443.11 Q1792.83 1441.37 1789.73 1441.37 Q1787.53 1441.37 1785.08 1442.13 Q1782.65 1442.9 1779.87 1444.45 L1779.87 1439.73 Q1782.69 1438.59 1785.15 1438.01 Q1787.6 1437.43 1789.64 1437.43 Q1795.01 1437.43 1798.2 1440.12 Q1801.4 1442.81 1801.4 1447.3 Q1801.4 1449.43 1800.59 1451.35 Q1799.8 1453.24 1797.69 1455.84 Q1797.11 1456.51 1794.01 1459.73 Q1790.91 1462.92 1785.26 1468.68 Z" fill="#000000" fill-rule="evenodd" fill-opacity="1" /><path clip-path="url(#clip420)" d="M1811.4 1466.74 L1816.28 1466.74 L1816.28 1472.62 L1811.4 1472.62 L1811.4 1466.74 Z" fill="#000000" fill-rule="evenodd" fill-opacity="1" /><path clip-path="url(#clip420)" d="M1826.51 1438.06 L1844.87 1438.06 L1844.87 1442 L1830.79 1442 L1830.79 1450.47 Q1831.81 1450.12 1832.83 1449.96 Q1833.85 1449.77 1834.87 1449.77 Q1840.65 1449.77 1844.03 1452.94 Q1847.41 1456.12 1847.41 1461.53 Q1847.41 1467.11 1843.94 1470.21 Q1840.47 1473.29 1834.15 1473.29 Q1831.97 1473.29 1829.71 1472.92 Q1827.46 1472.55 1825.05 1471.81 L1825.05 1467.11 Q1827.14 1468.24 1829.36 1468.8 Q1831.58 1469.36 1834.06 1469.36 Q1838.06 1469.36 1840.4 1467.25 Q1842.74 1465.14 1842.74 1461.53 Q1842.74 1457.92 1840.4 1455.81 Q1838.06 1453.71 1834.06 1453.71 Q1832.18 1453.71 1830.31 1454.12 Q1828.46 1454.54 1826.51 1455.42 L1826.51 1438.06 Z" fill="#000000" fill-rule="evenodd" fill-opacity="1" /><path clip-path="url(#clip420)" d="M2108.21 1468.68 L2124.52 1468.68 L2124.52 1472.62 L2102.58 1472.62 L2102.58 1468.68 Q2105.24 1465.93 2109.83 1461.3 Q2114.43 1456.65 2115.61 1455.31 Q2117.86 1452.78 2118.74 1451.05 Q2119.64 1449.29 2119.64 1447.6 Q2119.64 1444.84 2117.7 1443.11 Q2115.77 1441.37 2112.67 1441.37 Q2110.47 1441.37 2108.02 1442.13 Q2105.59 1442.9 2102.81 1444.45 L2102.81 1439.73 Q2105.64 1438.59 2108.09 1438.01 Q2110.54 1437.43 2112.58 1437.43 Q2117.95 1437.43 2121.14 1440.12 Q2124.34 1442.81 2124.34 1447.3 Q2124.34 1449.43 2123.53 1451.35 Q2122.74 1453.24 2120.64 1455.84 Q2120.06 1456.51 2116.96 1459.73 Q2113.85 1462.92 2108.21 1468.68 Z" fill="#000000" fill-rule="evenodd" fill-opacity="1" /><path clip-path="url(#clip420)" d="M2134.39 1438.06 L2152.74 1438.06 L2152.74 1442 L2138.67 1442 L2138.67 1450.47 Q2139.69 1450.12 2140.7 1449.96 Q2141.72 1449.77 2142.74 1449.77 Q2148.53 1449.77 2151.91 1452.94 Q2155.29 1456.12 2155.29 1461.53 Q2155.29 1467.11 2151.82 1470.21 Q2148.34 1473.29 2142.02 1473.29 Q2139.85 1473.29 2137.58 1472.92 Q2135.33 1472.55 2132.93 1471.81 L2132.93 1467.11 Q2135.01 1468.24 2137.23 1468.8 Q2139.45 1469.36 2141.93 1469.36 Q2145.94 1469.36 2148.27 1467.25 Q2150.61 1465.14 2150.61 1461.53 Q2150.61 1457.92 2148.27 1455.81 Q2145.94 1453.71 2141.93 1453.71 Q2140.06 1453.71 2138.18 1454.12 Q2136.33 1454.54 2134.39 1455.42 L2134.39 1438.06 Z" fill="#000000" fill-rule="evenodd" fill-opacity="1" /><path clip-path="url(#clip420)" d="M2164.5 1466.74 L2169.39 1466.74 L2169.39 1472.62 L2164.5 1472.62 L2164.5 1466.74 Z" fill="#000000" fill-rule="evenodd" fill-opacity="1" /><path clip-path="url(#clip420)" d="M2189.57 1441.14 Q2185.96 1441.14 2184.13 1444.7 Q2182.33 1448.24 2182.33 1455.37 Q2182.33 1462.48 2184.13 1466.05 Q2185.96 1469.59 2189.57 1469.59 Q2193.2 1469.59 2195.01 1466.05 Q2196.84 1462.48 2196.84 1455.37 Q2196.84 1448.24 2195.01 1444.7 Q2193.2 1441.14 2189.57 1441.14 M2189.57 1437.43 Q2195.38 1437.43 2198.44 1442.04 Q2201.51 1446.62 2201.51 1455.37 Q2201.51 1464.1 2198.44 1468.71 Q2195.38 1473.29 2189.57 1473.29 Q2183.76 1473.29 2180.68 1468.71 Q2177.63 1464.1 2177.63 1455.37 Q2177.63 1446.62 2180.68 1442.04 Q2183.76 1437.43 2189.57 1437.43 Z" fill="#000000" fill-rule="evenodd" fill-opacity="1" /><path clip-path="url(#clip420)" d="M1173.34 1575.03 L1173.34 1572.45 Q1177.8 1572.45 1178.83 1571.91 Q1179.85 1571.34 1179.85 1568.63 L1179.85 1524.98 Q1179.85 1521.86 1178.75 1521.09 Q1177.68 1520.31 1173.34 1520.31 L1173.34 1517.68 L1185.39 1516.78 L1185.39 1568.63 Q1185.39 1571.34 1186.45 1571.91 Q1187.52 1572.45 1191.94 1572.45 L1191.94 1575.03 Q1190.92 1575.03 1188.79 1574.95 Q1186.66 1574.86 1185.1 1574.82 Q1183.54 1574.78 1182.64 1574.78 Q1181.66 1574.78 1173.34 1575.03 Z" fill="#000000" fill-rule="evenodd" fill-opacity="1" /><path clip-path="url(#clip420)" d="M1204.58 1570.52 Q1199.04 1565.03 1199.04 1557.07 Q1199.04 1549.08 1204.45 1543.26 Q1209.9 1537.4 1217.69 1537.4 Q1225.32 1537.4 1230.77 1543.22 Q1236.26 1549 1236.26 1557.07 Q1236.26 1564.99 1230.73 1570.48 Q1225.23 1575.97 1217.61 1575.97 Q1210.15 1575.97 1204.58 1570.52 M1206.01 1556.38 Q1206.01 1564.53 1208.14 1568.22 Q1211.42 1573.84 1217.69 1573.84 Q1220.81 1573.84 1223.39 1572.16 Q1226.01 1570.48 1227.45 1567.65 Q1229.29 1563.96 1229.29 1556.38 Q1229.29 1548.3 1227.08 1544.74 Q1223.8 1539.29 1217.61 1539.29 Q1214.9 1539.29 1212.24 1540.72 Q1209.62 1542.11 1208.02 1544.9 Q1206.01 1548.59 1206.01 1556.38 Z" fill="#000000" fill-rule="evenodd" fill-opacity="1" /><path clip-path="url(#clip420)" d="M1237.59 1581.67 Q1237.59 1578.96 1239.64 1576.63 Q1241.73 1574.29 1245.33 1573.27 Q1241.65 1570.93 1241.65 1565.81 Q1241.65 1561.87 1244.23 1558.84 Q1240.29 1555.56 1240.29 1550.19 Q1240.29 1545.23 1244.23 1541.58 Q1248.16 1537.93 1253.9 1537.93 Q1258.94 1537.93 1262.8 1540.97 Q1266.81 1537.03 1271.69 1536.99 Q1273.86 1536.99 1274.89 1538.34 Q1275.95 1539.69 1275.95 1541.13 Q1275.95 1542.4 1275.13 1543.02 Q1274.36 1543.63 1273.54 1543.63 Q1272.51 1543.63 1271.77 1542.97 Q1271.08 1542.28 1271.08 1541.21 Q1271.08 1539.45 1272.43 1538.92 Q1272.18 1538.83 1271.61 1538.83 Q1267.51 1538.83 1264.03 1542.11 Q1267.47 1545.31 1267.47 1550.27 Q1267.47 1555.23 1263.53 1558.88 Q1259.6 1562.53 1253.9 1562.53 Q1249.19 1562.53 1245.58 1559.9 Q1244.15 1561.58 1244.15 1563.88 Q1244.15 1565.97 1245.42 1567.61 Q1246.69 1569.25 1248.61 1569.49 Q1249.19 1569.58 1254.89 1569.58 Q1258.25 1569.58 1260.09 1569.66 Q1261.94 1569.74 1264.56 1570.31 Q1267.22 1570.85 1269.31 1571.91 Q1274.77 1574.95 1274.81 1581.5 Q1274.81 1586.3 1269.27 1589.29 Q1263.78 1592.33 1256.16 1592.33 Q1248.45 1592.33 1243 1589.25 Q1237.59 1586.22 1237.59 1581.67 M1241.97 1581.67 Q1241.97 1585.11 1246.03 1587.73 Q1250.09 1590.4 1256.24 1590.4 Q1262.26 1590.4 1266.32 1587.78 Q1270.42 1585.19 1270.42 1581.67 Q1270.42 1579.17 1268.99 1577.57 Q1267.55 1575.97 1264.6 1575.31 Q1261.69 1574.7 1259.64 1574.58 Q1257.59 1574.45 1253.82 1574.45 L1248.86 1574.45 Q1245.99 1574.62 1243.98 1576.71 Q1241.97 1578.8 1241.97 1581.67 M1246.56 1550.27 Q1246.56 1560.6 1253.9 1560.6 Q1257.59 1560.6 1259.85 1557.24 Q1261.2 1554.98 1261.2 1550.19 Q1261.2 1539.86 1253.9 1539.86 Q1250.21 1539.86 1247.92 1543.22 Q1246.56 1545.47 1246.56 1550.27 Z" fill="#000000" fill-rule="evenodd" fill-opacity="1" /><path clip-path="url(#clip420)" d="M1284.53 1598.29 Q1284.53 1597.22 1284.62 1596.91 Q1284.73 1596.59 1285.19 1596.1 L1296.47 1583.54 Q1302.64 1576.59 1302.64 1570.54 Q1302.64 1566.61 1300.57 1563.8 Q1298.53 1560.98 1294.78 1560.98 Q1292.19 1560.98 1290.01 1562.56 Q1287.83 1564.14 1286.83 1566.95 Q1287 1566.9 1287.6 1566.9 Q1289.07 1566.9 1289.87 1567.81 Q1290.7 1568.73 1290.7 1569.97 Q1290.7 1571.54 1289.67 1572.32 Q1288.66 1573.06 1287.66 1573.06 Q1287.26 1573.06 1286.71 1572.98 Q1286.2 1572.89 1285.36 1572.09 Q1284.53 1571.26 1284.53 1569.79 Q1284.53 1565.69 1287.63 1562.42 Q1290.76 1559.15 1295.52 1559.15 Q1300.92 1559.15 1304.44 1562.36 Q1308 1565.55 1308 1570.54 Q1308 1572.29 1307.46 1573.9 Q1306.94 1575.47 1306.22 1576.71 Q1305.54 1577.94 1303.64 1579.92 Q1301.75 1581.9 1300.23 1583.31 Q1298.71 1584.71 1295.29 1587.7 L1289.07 1593.75 L1299.65 1593.75 Q1304.82 1593.75 1305.22 1593.29 Q1305.79 1592.46 1306.51 1588.07 L1308 1588.07 L1306.34 1598.29 L1284.53 1598.29 Z" fill="#000000" fill-rule="evenodd" fill-opacity="1" /><path clip-path="url(#clip420)" d="M1316.73 1593.43 L1316.73 1515.27 Q1316.73 1512.15 1318.42 1512.15 Q1320.1 1512.15 1320.1 1514.65 L1320.1 1592.82 Q1320.1 1595.93 1318.42 1595.93 Q1316.73 1595.93 1316.73 1593.43 Z" fill="#000000" fill-rule="evenodd" fill-opacity="1" /><path clip-path="url(#clip420)" d="M1394.43 1518.71 Q1394.35 1520.23 1393.32 1520.31 Q1391.76 1520.39 1390.82 1520.59 Q1389.88 1520.76 1388.4 1521.37 Q1386.93 1521.99 1385.49 1523.46 Q1384.06 1524.94 1382.58 1527.28 L1352.37 1575.36 Q1351.84 1576.26 1351.39 1576.54 Q1350.98 1576.87 1350.04 1576.87 Q1349.18 1576.87 1348.85 1576.5 Q1348.52 1576.18 1348.36 1574.95 L1341.72 1523.14 Q1341.59 1522.19 1341.47 1521.78 Q1341.35 1521.37 1340.85 1520.96 Q1340.4 1520.55 1339.42 1520.43 Q1338.44 1520.31 1336.67 1520.31 Q1335.85 1520.31 1335.48 1520.27 Q1335.16 1520.23 1334.87 1520.02 Q1334.58 1519.77 1334.58 1519.28 Q1334.58 1518.54 1334.87 1518.18 Q1335.2 1517.77 1335.44 1517.72 Q1335.73 1517.68 1336.18 1517.68 Q1336.88 1517.68 1338.4 1517.77 Q1339.91 1517.85 1340.69 1517.85 Q1341.43 1517.85 1342.99 1517.89 Q1344.54 1517.93 1345.32 1517.93 Q1347.04 1517.93 1350.53 1517.81 Q1354.05 1517.68 1355.73 1517.68 Q1356.88 1517.68 1356.88 1518.63 Q1356.88 1519.77 1356.39 1520.06 Q1355.9 1520.31 1354.79 1520.31 Q1352 1520.31 1350.49 1521 Q1349.01 1521.7 1349.01 1522.81 L1354.71 1567.24 L1380.49 1526.25 Q1381.76 1524.32 1381.76 1523.05 Q1381.76 1520.59 1377.87 1520.31 Q1376.56 1520.31 1376.56 1519.28 Q1376.56 1518.54 1376.88 1518.18 Q1377.21 1517.77 1377.46 1517.72 Q1377.74 1517.68 1378.15 1517.68 Q1379.51 1517.68 1382.25 1517.81 Q1385.04 1517.93 1386.43 1517.93 Q1387.58 1517.93 1389.92 1517.81 Q1392.26 1517.68 1393.32 1517.68 Q1394.43 1517.68 1394.43 1518.71 Z" fill="#000000" fill-rule="evenodd" fill-opacity="1" /><path clip-path="url(#clip420)" d="M1405.19 1593.43 L1405.19 1515.27 Q1405.19 1512.15 1406.87 1512.15 Q1408.55 1512.15 1408.55 1514.65 L1408.55 1592.82 Q1408.55 1595.93 1406.87 1595.93 Q1405.19 1595.93 1405.19 1593.43 Z" fill="#000000" fill-rule="evenodd" fill-opacity="1" /><polyline clip-path="url(#clip420)" style="stroke:#000000; stroke-linecap:butt; stroke-linejoin:round; stroke-width:4; stroke-opacity:1; fill:none" points="
  260.419,1410.22 260.419,47.2441 
  "/>
<polyline clip-path="url(#clip420)" style="stroke:#000000; stroke-linecap:butt; stroke-linejoin:round; stroke-width:4; stroke-opacity:1; fill:none" points="
  260.419,1371.65 279.316,1371.65 
  "/>
<polyline clip-path="url(#clip420)" style="stroke:#000000; stroke-linecap:butt; stroke-linejoin:round; stroke-width:4; stroke-opacity:1; fill:none" points="
  260.419,1144.09 279.316,1144.09 
  "/>
<polyline clip-path="url(#clip420)" style="stroke:#000000; stroke-linecap:butt; stroke-linejoin:round; stroke-width:4; stroke-opacity:1; fill:none" points="
  260.419,916.54 279.316,916.54 
  "/>
<polyline clip-path="url(#clip420)" style="stroke:#000000; stroke-linecap:butt; stroke-linejoin:round; stroke-width:4; stroke-opacity:1; fill:none" points="
  260.419,688.988 279.316,688.988 
  "/>
<polyline clip-path="url(#clip420)" style="stroke:#000000; stroke-linecap:butt; stroke-linejoin:round; stroke-width:4; stroke-opacity:1; fill:none" points="
  260.419,461.436 279.316,461.436 
  "/>
<polyline clip-path="url(#clip420)" style="stroke:#000000; stroke-linecap:butt; stroke-linejoin:round; stroke-width:4; stroke-opacity:1; fill:none" points="
  260.419,233.884 279.316,233.884 
  "/>
<path clip-path="url(#clip420)" d="M127.891 1384.99 L135.53 1384.99 L135.53 1358.62 L127.22 1360.29 L127.22 1356.03 L135.484 1354.37 L140.16 1354.37 L140.16 1384.99 L147.799 1384.99 L147.799 1388.93 L127.891 1388.93 L127.891 1384.99 Z" fill="#000000" fill-rule="evenodd" fill-opacity="1" /><path clip-path="url(#clip420)" d="M157.243 1383.05 L162.127 1383.05 L162.127 1388.93 L157.243 1388.93 L157.243 1383.05 Z" fill="#000000" fill-rule="evenodd" fill-opacity="1" /><path clip-path="url(#clip420)" d="M182.312 1357.44 Q178.701 1357.44 176.873 1361.01 Q175.067 1364.55 175.067 1371.68 Q175.067 1378.79 176.873 1382.35 Q178.701 1385.89 182.312 1385.89 Q185.947 1385.89 187.752 1382.35 Q189.581 1378.79 189.581 1371.68 Q189.581 1364.55 187.752 1361.01 Q185.947 1357.44 182.312 1357.44 M182.312 1353.74 Q188.123 1353.74 191.178 1358.35 Q194.257 1362.93 194.257 1371.68 Q194.257 1380.41 191.178 1385.01 Q188.123 1389.6 182.312 1389.6 Q176.502 1389.6 173.424 1385.01 Q170.368 1380.41 170.368 1371.68 Q170.368 1362.93 173.424 1358.35 Q176.502 1353.74 182.312 1353.74 Z" fill="#000000" fill-rule="evenodd" fill-opacity="1" /><path clip-path="url(#clip420)" d="M212.474 1357.44 Q208.863 1357.44 207.035 1361.01 Q205.229 1364.55 205.229 1371.68 Q205.229 1378.79 207.035 1382.35 Q208.863 1385.89 212.474 1385.89 Q216.109 1385.89 217.914 1382.35 Q219.743 1378.79 219.743 1371.68 Q219.743 1364.55 217.914 1361.01 Q216.109 1357.44 212.474 1357.44 M212.474 1353.74 Q218.284 1353.74 221.34 1358.35 Q224.419 1362.93 224.419 1371.68 Q224.419 1380.41 221.34 1385.01 Q218.284 1389.6 212.474 1389.6 Q206.664 1389.6 203.585 1385.01 Q200.53 1380.41 200.53 1371.68 Q200.53 1362.93 203.585 1358.35 Q206.664 1353.74 212.474 1353.74 Z" fill="#000000" fill-rule="evenodd" fill-opacity="1" /><path clip-path="url(#clip420)" d="M128.887 1157.44 L136.526 1157.44 L136.526 1131.07 L128.216 1132.74 L128.216 1128.48 L136.479 1126.81 L141.155 1126.81 L141.155 1157.44 L148.794 1157.44 L148.794 1161.37 L128.887 1161.37 L128.887 1157.44 Z" fill="#000000" fill-rule="evenodd" fill-opacity="1" /><path clip-path="url(#clip420)" d="M158.239 1155.49 L163.123 1155.49 L163.123 1161.37 L158.239 1161.37 L158.239 1155.49 Z" fill="#000000" fill-rule="evenodd" fill-opacity="1" /><path clip-path="url(#clip420)" d="M183.308 1129.89 Q179.697 1129.89 177.868 1133.46 Q176.062 1137 176.062 1144.13 Q176.062 1151.23 177.868 1154.8 Q179.697 1158.34 183.308 1158.34 Q186.942 1158.34 188.748 1154.8 Q190.576 1151.23 190.576 1144.13 Q190.576 1137 188.748 1133.46 Q186.942 1129.89 183.308 1129.89 M183.308 1126.19 Q189.118 1126.19 192.174 1130.79 Q195.252 1135.38 195.252 1144.13 Q195.252 1152.85 192.174 1157.46 Q189.118 1162.04 183.308 1162.04 Q177.498 1162.04 174.419 1157.46 Q171.363 1152.85 171.363 1144.13 Q171.363 1135.38 174.419 1130.79 Q177.498 1126.19 183.308 1126.19 Z" fill="#000000" fill-rule="evenodd" fill-opacity="1" /><path clip-path="url(#clip420)" d="M203.516 1126.81 L221.872 1126.81 L221.872 1130.75 L207.798 1130.75 L207.798 1139.22 Q208.817 1138.87 209.835 1138.71 Q210.854 1138.53 211.872 1138.53 Q217.659 1138.53 221.039 1141.7 Q224.419 1144.87 224.419 1150.28 Q224.419 1155.86 220.947 1158.97 Q217.474 1162.04 211.155 1162.04 Q208.979 1162.04 206.71 1161.67 Q204.465 1161.3 202.058 1160.56 L202.058 1155.86 Q204.141 1157 206.363 1157.55 Q208.585 1158.11 211.062 1158.11 Q215.067 1158.11 217.405 1156 Q219.743 1153.9 219.743 1150.28 Q219.743 1146.67 217.405 1144.57 Q215.067 1142.46 211.062 1142.46 Q209.187 1142.46 207.312 1142.88 Q205.46 1143.29 203.516 1144.17 L203.516 1126.81 Z" fill="#000000" fill-rule="evenodd" fill-opacity="1" /><path clip-path="url(#clip420)" d="M127.891 929.885 L135.53 929.885 L135.53 903.52 L127.22 905.186 L127.22 900.927 L135.484 899.26 L140.16 899.26 L140.16 929.885 L147.799 929.885 L147.799 933.82 L127.891 933.82 L127.891 929.885 Z" fill="#000000" fill-rule="evenodd" fill-opacity="1" /><path clip-path="url(#clip420)" d="M157.243 927.941 L162.127 927.941 L162.127 933.82 L157.243 933.82 L157.243 927.941 Z" fill="#000000" fill-rule="evenodd" fill-opacity="1" /><path clip-path="url(#clip420)" d="M173.123 929.885 L180.762 929.885 L180.762 903.52 L172.451 905.186 L172.451 900.927 L180.715 899.26 L185.391 899.26 L185.391 929.885 L193.03 929.885 L193.03 933.82 L173.123 933.82 L173.123 929.885 Z" fill="#000000" fill-rule="evenodd" fill-opacity="1" /><path clip-path="url(#clip420)" d="M212.474 902.339 Q208.863 902.339 207.035 905.904 Q205.229 909.446 205.229 916.575 Q205.229 923.682 207.035 927.246 Q208.863 930.788 212.474 930.788 Q216.109 930.788 217.914 927.246 Q219.743 923.682 219.743 916.575 Q219.743 909.446 217.914 905.904 Q216.109 902.339 212.474 902.339 M212.474 898.635 Q218.284 898.635 221.34 903.242 Q224.419 907.825 224.419 916.575 Q224.419 925.302 221.34 929.908 Q218.284 934.492 212.474 934.492 Q206.664 934.492 203.585 929.908 Q200.53 925.302 200.53 916.575 Q200.53 907.825 203.585 903.242 Q206.664 898.635 212.474 898.635 Z" fill="#000000" fill-rule="evenodd" fill-opacity="1" /><path clip-path="url(#clip420)" d="M128.887 702.333 L136.526 702.333 L136.526 675.967 L128.216 677.634 L128.216 673.375 L136.479 671.708 L141.155 671.708 L141.155 702.333 L148.794 702.333 L148.794 706.268 L128.887 706.268 L128.887 702.333 Z" fill="#000000" fill-rule="evenodd" fill-opacity="1" /><path clip-path="url(#clip420)" d="M158.239 700.389 L163.123 700.389 L163.123 706.268 L158.239 706.268 L158.239 700.389 Z" fill="#000000" fill-rule="evenodd" fill-opacity="1" /><path clip-path="url(#clip420)" d="M174.118 702.333 L181.757 702.333 L181.757 675.967 L173.447 677.634 L173.447 673.375 L181.711 671.708 L186.387 671.708 L186.387 702.333 L194.025 702.333 L194.025 706.268 L174.118 706.268 L174.118 702.333 Z" fill="#000000" fill-rule="evenodd" fill-opacity="1" /><path clip-path="url(#clip420)" d="M203.516 671.708 L221.872 671.708 L221.872 675.643 L207.798 675.643 L207.798 684.116 Q208.817 683.768 209.835 683.606 Q210.854 683.421 211.872 683.421 Q217.659 683.421 221.039 686.592 Q224.419 689.764 224.419 695.18 Q224.419 700.759 220.947 703.861 Q217.474 706.939 211.155 706.939 Q208.979 706.939 206.71 706.569 Q204.465 706.199 202.058 705.458 L202.058 700.759 Q204.141 701.893 206.363 702.449 Q208.585 703.004 211.062 703.004 Q215.067 703.004 217.405 700.898 Q219.743 698.791 219.743 695.18 Q219.743 691.569 217.405 689.463 Q215.067 687.356 211.062 687.356 Q209.187 687.356 207.312 687.773 Q205.46 688.19 203.516 689.069 L203.516 671.708 Z" fill="#000000" fill-rule="evenodd" fill-opacity="1" /><path clip-path="url(#clip420)" d="M127.891 474.781 L135.53 474.781 L135.53 448.415 L127.22 450.082 L127.22 445.823 L135.484 444.156 L140.16 444.156 L140.16 474.781 L147.799 474.781 L147.799 478.716 L127.891 478.716 L127.891 474.781 Z" fill="#000000" fill-rule="evenodd" fill-opacity="1" /><path clip-path="url(#clip420)" d="M157.243 472.836 L162.127 472.836 L162.127 478.716 L157.243 478.716 L157.243 472.836 Z" fill="#000000" fill-rule="evenodd" fill-opacity="1" /><path clip-path="url(#clip420)" d="M176.34 474.781 L192.66 474.781 L192.66 478.716 L170.715 478.716 L170.715 474.781 Q173.377 472.026 177.961 467.397 Q182.567 462.744 183.748 461.401 Q185.993 458.878 186.873 457.142 Q187.775 455.383 187.775 453.693 Q187.775 450.938 185.831 449.202 Q183.91 447.466 180.808 447.466 Q178.609 447.466 176.155 448.23 Q173.725 448.994 170.947 450.545 L170.947 445.823 Q173.771 444.688 176.225 444.11 Q178.678 443.531 180.715 443.531 Q186.086 443.531 189.28 446.216 Q192.474 448.901 192.474 453.392 Q192.474 455.522 191.664 457.443 Q190.877 459.341 188.771 461.934 Q188.192 462.605 185.09 465.822 Q181.988 469.017 176.34 474.781 Z" fill="#000000" fill-rule="evenodd" fill-opacity="1" /><path clip-path="url(#clip420)" d="M212.474 447.235 Q208.863 447.235 207.035 450.799 Q205.229 454.341 205.229 461.471 Q205.229 468.577 207.035 472.142 Q208.863 475.684 212.474 475.684 Q216.109 475.684 217.914 472.142 Q219.743 468.577 219.743 461.471 Q219.743 454.341 217.914 450.799 Q216.109 447.235 212.474 447.235 M212.474 443.531 Q218.284 443.531 221.34 448.137 Q224.419 452.721 224.419 461.471 Q224.419 470.197 221.34 474.804 Q218.284 479.387 212.474 479.387 Q206.664 479.387 203.585 474.804 Q200.53 470.197 200.53 461.471 Q200.53 452.721 203.585 448.137 Q206.664 443.531 212.474 443.531 Z" fill="#000000" fill-rule="evenodd" fill-opacity="1" /><path clip-path="url(#clip420)" d="M128.887 247.228 L136.526 247.228 L136.526 220.863 L128.216 222.53 L128.216 218.27 L136.479 216.604 L141.155 216.604 L141.155 247.228 L148.794 247.228 L148.794 251.164 L128.887 251.164 L128.887 247.228 Z" fill="#000000" fill-rule="evenodd" fill-opacity="1" /><path clip-path="url(#clip420)" d="M158.239 245.284 L163.123 245.284 L163.123 251.164 L158.239 251.164 L158.239 245.284 Z" fill="#000000" fill-rule="evenodd" fill-opacity="1" /><path clip-path="url(#clip420)" d="M177.336 247.228 L193.655 247.228 L193.655 251.164 L171.711 251.164 L171.711 247.228 Q174.373 244.474 178.956 239.844 Q183.562 235.191 184.743 233.849 Q186.988 231.326 187.868 229.59 Q188.771 227.83 188.771 226.141 Q188.771 223.386 186.826 221.65 Q184.905 219.914 181.803 219.914 Q179.604 219.914 177.15 220.678 Q174.72 221.442 171.942 222.992 L171.942 218.27 Q174.766 217.136 177.22 216.557 Q179.674 215.979 181.711 215.979 Q187.081 215.979 190.275 218.664 Q193.47 221.349 193.47 225.84 Q193.47 227.969 192.66 229.891 Q191.873 231.789 189.766 234.381 Q189.187 235.053 186.086 238.27 Q182.984 241.465 177.336 247.228 Z" fill="#000000" fill-rule="evenodd" fill-opacity="1" /><path clip-path="url(#clip420)" d="M203.516 216.604 L221.872 216.604 L221.872 220.539 L207.798 220.539 L207.798 229.011 Q208.817 228.664 209.835 228.502 Q210.854 228.317 211.872 228.317 Q217.659 228.317 221.039 231.488 Q224.419 234.659 224.419 240.076 Q224.419 245.654 220.947 248.756 Q217.474 251.835 211.155 251.835 Q208.979 251.835 206.71 251.465 Q204.465 251.094 202.058 250.353 L202.058 245.654 Q204.141 246.789 206.363 247.344 Q208.585 247.9 211.062 247.9 Q215.067 247.9 217.405 245.793 Q219.743 243.687 219.743 240.076 Q219.743 236.465 217.405 234.358 Q215.067 232.252 211.062 232.252 Q209.187 232.252 207.312 232.668 Q205.46 233.085 203.516 233.965 L203.516 216.604 Z" fill="#000000" fill-rule="evenodd" fill-opacity="1" /><path clip-path="url(#clip420)" d="M32.0609 706.184 Q32.3888 706.184 35.2581 707.783 Q40.5457 710.447 48.6206 713.849 Q56.6955 717.251 62.6799 719.178 Q64.1145 719.588 65.959 719.875 Q71.6156 720.613 80.3873 722.99 Q83.1335 723.81 84.2812 724.343 Q85.4289 724.875 85.4289 725.654 Q85.4289 726.761 83.9123 726.761 Q82.3957 726.761 76.7392 725.367 Q71.0827 723.933 65.8771 722.375 Q63.0078 721.391 57.6382 721.391 Q55.9167 721.391 54.3591 721.473 Q52.8015 721.555 50.5471 721.883 Q48.2927 722.211 46.4481 722.744 Q44.6036 723.277 42.6771 724.302 Q40.7096 725.326 39.398 726.72 Q38.0453 728.114 37.1846 730.245 Q36.3238 732.336 36.3238 734.959 Q36.3238 735.615 36.4058 736.434 Q36.4468 737.213 36.9796 739.099 Q37.5125 740.943 38.4552 742.501 Q39.357 744.058 41.3655 745.739 Q43.3739 747.42 46.0792 748.321 L46.4891 748.649 Q46.4891 749.182 46.4891 749.469 Q46.4481 749.715 46.2432 750.002 Q46.0382 750.248 45.6693 750.248 Q44.8086 750.248 43.087 749.592 Q41.3655 748.895 39.152 747.502 Q36.9386 746.067 34.9711 744.222 Q33.0037 742.337 31.651 739.591 Q30.2984 736.844 30.2984 733.893 Q30.2984 726.31 39.5209 722.703 Q47.3499 719.547 56.6545 719.26 Q40.1358 712.702 31.815 708.193 Q31.2001 707.947 31.2001 707.209 Q31.2411 706.184 32.0609 706.184 Z" fill="#000000" fill-rule="evenodd" fill-opacity="1" /><polyline clip-path="url(#clip423)" style="stroke:#000000; stroke-linecap:butt; stroke-linejoin:round; stroke-width:4; stroke-opacity:1; fill:none" points="
  2010.71,122.848 2010.71,115.529 
  "/>
<polyline clip-path="url(#clip423)" style="stroke:#000000; stroke-linecap:butt; stroke-linejoin:round; stroke-width:4; stroke-opacity:1; fill:none" points="
  319.636,521.288 319.636,484.261 
  "/>
<polyline clip-path="url(#clip423)" style="stroke:#000000; stroke-linecap:butt; stroke-linejoin:round; stroke-width:4; stroke-opacity:1; fill:none" points="
  1727.92,108.878 1727.92,100.327 
  "/>
<polyline clip-path="url(#clip423)" style="stroke:#000000; stroke-linecap:butt; stroke-linejoin:round; stroke-width:4; stroke-opacity:1; fill:none" points="
  1162.75,141.463 1162.75,129.271 
  "/>
<polyline clip-path="url(#clip423)" style="stroke:#000000; stroke-linecap:butt; stroke-linejoin:round; stroke-width:4; stroke-opacity:1; fill:none" points="
  599.367,364.163 599.367,341.466 
  "/>
<polyline clip-path="url(#clip423)" style="stroke:#000000; stroke-linecap:butt; stroke-linejoin:round; stroke-width:4; stroke-opacity:1; fill:none" points="
  1445.24,95.9827 1445.24,85.8189 
  "/>
<polyline clip-path="url(#clip423)" style="stroke:#000000; stroke-linecap:butt; stroke-linejoin:round; stroke-width:4; stroke-opacity:1; fill:none" points="
  2293.54,148.519 2293.54,142.342 
  "/>
<polyline clip-path="url(#clip423)" style="stroke:#000000; stroke-linecap:butt; stroke-linejoin:round; stroke-width:4; stroke-opacity:1; fill:none" points="
  880.665,196.133 880.665,180.216 
  "/>
<line clip-path="url(#clip423)" x1="2026.71" y1="122.848" x2="1994.71" y2="122.848" style="stroke:#000000; stroke-width:3.2; stroke-opacity:1"/>
<line clip-path="url(#clip423)" x1="2026.71" y1="115.529" x2="1994.71" y2="115.529" style="stroke:#000000; stroke-width:3.2; stroke-opacity:1"/>
<line clip-path="url(#clip423)" x1="335.636" y1="521.288" x2="303.636" y2="521.288" style="stroke:#000000; stroke-width:3.2; stroke-opacity:1"/>
<line clip-path="url(#clip423)" x1="335.636" y1="484.261" x2="303.636" y2="484.261" style="stroke:#000000; stroke-width:3.2; stroke-opacity:1"/>
<line clip-path="url(#clip423)" x1="1743.92" y1="108.878" x2="1711.92" y2="108.878" style="stroke:#000000; stroke-width:3.2; stroke-opacity:1"/>
<line clip-path="url(#clip423)" x1="1743.92" y1="100.327" x2="1711.92" y2="100.327" style="stroke:#000000; stroke-width:3.2; stroke-opacity:1"/>
<line clip-path="url(#clip423)" x1="1178.75" y1="141.463" x2="1146.75" y2="141.463" style="stroke:#000000; stroke-width:3.2; stroke-opacity:1"/>
<line clip-path="url(#clip423)" x1="1178.75" y1="129.271" x2="1146.75" y2="129.271" style="stroke:#000000; stroke-width:3.2; stroke-opacity:1"/>
<line clip-path="url(#clip423)" x1="615.367" y1="364.163" x2="583.367" y2="364.163" style="stroke:#000000; stroke-width:3.2; stroke-opacity:1"/>
<line clip-path="url(#clip423)" x1="615.367" y1="341.466" x2="583.367" y2="341.466" style="stroke:#000000; stroke-width:3.2; stroke-opacity:1"/>
<line clip-path="url(#clip423)" x1="1461.24" y1="95.9827" x2="1429.24" y2="95.9827" style="stroke:#000000; stroke-width:3.2; stroke-opacity:1"/>
<line clip-path="url(#clip423)" x1="1461.24" y1="85.8189" x2="1429.24" y2="85.8189" style="stroke:#000000; stroke-width:3.2; stroke-opacity:1"/>
<line clip-path="url(#clip423)" x1="2309.54" y1="148.519" x2="2277.54" y2="148.519" style="stroke:#000000; stroke-width:3.2; stroke-opacity:1"/>
<line clip-path="url(#clip423)" x1="2309.54" y1="142.342" x2="2277.54" y2="142.342" style="stroke:#000000; stroke-width:3.2; stroke-opacity:1"/>
<line clip-path="url(#clip423)" x1="896.665" y1="196.133" x2="864.665" y2="196.133" style="stroke:#000000; stroke-width:3.2; stroke-opacity:1"/>
<line clip-path="url(#clip423)" x1="896.665" y1="180.216" x2="864.665" y2="180.216" style="stroke:#000000; stroke-width:3.2; stroke-opacity:1"/>
<line clip-path="url(#clip423)" x1="2026.71" y1="119.189" x2="1994.71" y2="119.189" style="stroke:#000000; stroke-width:3.2; stroke-opacity:1"/>
<line clip-path="url(#clip423)" x1="335.636" y1="502.774" x2="303.636" y2="502.774" style="stroke:#000000; stroke-width:3.2; stroke-opacity:1"/>
<line clip-path="url(#clip423)" x1="1743.92" y1="104.602" x2="1711.92" y2="104.602" style="stroke:#000000; stroke-width:3.2; stroke-opacity:1"/>
<line clip-path="url(#clip423)" x1="1178.75" y1="135.367" x2="1146.75" y2="135.367" style="stroke:#000000; stroke-width:3.2; stroke-opacity:1"/>
<line clip-path="url(#clip423)" x1="615.367" y1="352.815" x2="583.367" y2="352.815" style="stroke:#000000; stroke-width:3.2; stroke-opacity:1"/>
<line clip-path="url(#clip423)" x1="1461.24" y1="90.9008" x2="1429.24" y2="90.9008" style="stroke:#000000; stroke-width:3.2; stroke-opacity:1"/>
<line clip-path="url(#clip423)" x1="2309.54" y1="145.431" x2="2277.54" y2="145.431" style="stroke:#000000; stroke-width:3.2; stroke-opacity:1"/>
<line clip-path="url(#clip423)" x1="896.665" y1="188.175" x2="864.665" y2="188.175" style="stroke:#000000; stroke-width:3.2; stroke-opacity:1"/>
<polyline clip-path="url(#clip423)" style="stroke:#808080; stroke-linecap:butt; stroke-linejoin:round; stroke-width:4; stroke-opacity:1; fill:none" stroke-dasharray="16, 10" points="
  -1831.92,1371.65 4445.09,1371.65 
  "/>
<polyline clip-path="url(#clip423)" style="stroke:#808080; stroke-linecap:butt; stroke-linejoin:round; stroke-width:4; stroke-opacity:1; fill:none" stroke-dasharray="16, 10" points="
  -1831.92,1371.65 4445.09,1371.65 
  "/>
</svg>
