<?xml version="1.0" encoding="utf-8"?>
<svg xmlns="http://www.w3.org/2000/svg" xmlns:xlink="http://www.w3.org/1999/xlink" width="600" height="400" viewBox="0 0 2400 1600">
<defs>
  <clipPath id="clip900">
    <rect x="0" y="0" width="2400" height="1600"/>
  </clipPath>
</defs>
<path clip-path="url(#clip900)" d="
M0 1600 L2400 1600 L2400 0 L0 0  Z
  " fill="#000000" fill-rule="evenodd" fill-opacity="0"/>
<defs>
  <clipPath id="clip901">
    <rect x="480" y="0" width="1681" height="1600"/>
  </clipPath>
</defs>
<defs>
  <clipPath id="clip902">
    <rect x="300" y="47" width="2053" height="1364"/>
  </clipPath>
</defs>
<path clip-path="url(#clip900)" d="
M300.326 1410.22 L2352.76 1410.22 L2352.76 47.2441 L300.326 47.2441  Z
  " fill="#000000" fill-rule="evenodd" fill-opacity="0"/>
<polyline clip-path="url(#clip900)" style="stroke:#000000; stroke-linecap:butt; stroke-linejoin:round; stroke-width:4; stroke-opacity:1; fill:none" points="
  300.326,1410.22 2352.76,1410.22 
  "/>
<polyline clip-path="url(#clip900)" style="stroke:#000000; stroke-linecap:butt; stroke-linejoin:round; stroke-width:4; stroke-opacity:1; fill:none" points="
  421.579,1410.22 421.579,1391.32 
  "/>
<polyline clip-path="url(#clip900)" style="stroke:#000000; stroke-linecap:butt; stroke-linejoin:round; stroke-width:4; stroke-opacity:1; fill:none" points="
  768.438,1410.22 768.438,1391.32 
  "/>
<polyline clip-path="url(#clip900)" style="stroke:#000000; stroke-linecap:butt; stroke-linejoin:round; stroke-width:4; stroke-opacity:1; fill:none" points="
  1115.3,1410.22 1115.3,1391.32 
  "/>
<polyline clip-path="url(#clip900)" style="stroke:#000000; stroke-linecap:butt; stroke-linejoin:round; stroke-width:4; stroke-opacity:1; fill:none" points="
  1462.16,1410.22 1462.16,1391.32 
  "/>
<polyline clip-path="url(#clip900)" style="stroke:#000000; stroke-linecap:butt; stroke-linejoin:round; stroke-width:4; stroke-opacity:1; fill:none" points="
  1809.02,1410.22 1809.02,1391.32 
  "/>
<polyline clip-path="url(#clip900)" style="stroke:#000000; stroke-linecap:butt; stroke-linejoin:round; stroke-width:4; stroke-opacity:1; fill:none" points="
  2155.88,1410.22 2155.88,1391.32 
  "/>
<path clip-path="url(#clip900)" d="M374.148 1468.68 L381.787 1468.68 L381.787 1442.32 L373.477 1443.99 L373.477 1439.73 L381.741 1438.06 L386.417 1438.06 L386.417 1468.68 L394.056 1468.68 L394.056 1472.62 L374.148 1472.62 L374.148 1468.68 Z" fill="#000000" fill-rule="evenodd" fill-opacity="1" /><path clip-path="url(#clip900)" d="M407.528 1468.68 L423.847 1468.68 L423.847 1472.62 L401.903 1472.62 L401.903 1468.68 Q404.565 1465.93 409.148 1461.3 Q413.755 1456.65 414.935 1455.31 Q417.181 1452.78 418.06 1451.05 Q418.963 1449.29 418.963 1447.6 Q418.963 1444.84 417.018 1443.11 Q415.097 1441.37 411.995 1441.37 Q409.796 1441.37 407.343 1442.13 Q404.912 1442.9 402.134 1444.45 L402.134 1439.73 Q404.958 1438.59 407.412 1438.01 Q409.866 1437.43 411.903 1437.43 Q417.273 1437.43 420.468 1440.12 Q423.662 1442.81 423.662 1447.3 Q423.662 1449.43 422.852 1451.35 Q422.065 1453.24 419.958 1455.84 Q419.38 1456.51 416.278 1459.73 Q413.176 1462.92 407.528 1468.68 Z" fill="#000000" fill-rule="evenodd" fill-opacity="1" /><path clip-path="url(#clip900)" d="M433.662 1466.74 L438.546 1466.74 L438.546 1472.62 L433.662 1472.62 L433.662 1466.74 Z" fill="#000000" fill-rule="evenodd" fill-opacity="1" /><path clip-path="url(#clip900)" d="M448.778 1438.06 L467.134 1438.06 L467.134 1442 L453.06 1442 L453.06 1450.47 Q454.078 1450.12 455.097 1449.96 Q456.115 1449.77 457.134 1449.77 Q462.921 1449.77 466.301 1452.94 Q469.68 1456.12 469.68 1461.53 Q469.68 1467.11 466.208 1470.21 Q462.736 1473.29 456.416 1473.29 Q454.24 1473.29 451.972 1472.92 Q449.727 1472.55 447.319 1471.81 L447.319 1467.11 Q449.403 1468.24 451.625 1468.8 Q453.847 1469.36 456.324 1469.36 Q460.328 1469.36 462.666 1467.25 Q465.004 1465.14 465.004 1461.53 Q465.004 1457.92 462.666 1455.81 Q460.328 1453.71 456.324 1453.71 Q454.449 1453.71 452.574 1454.12 Q450.722 1454.54 448.778 1455.42 L448.778 1438.06 Z" fill="#000000" fill-rule="evenodd" fill-opacity="1" /><path clip-path="url(#clip900)" d="M720.51 1468.68 L728.149 1468.68 L728.149 1442.32 L719.839 1443.99 L719.839 1439.73 L728.103 1438.06 L732.779 1438.06 L732.779 1468.68 L740.417 1468.68 L740.417 1472.62 L720.51 1472.62 L720.51 1468.68 Z" fill="#000000" fill-rule="evenodd" fill-opacity="1" /><path clip-path="url(#clip900)" d="M749.908 1438.06 L768.264 1438.06 L768.264 1442 L754.19 1442 L754.19 1450.47 Q755.209 1450.12 756.227 1449.96 Q757.246 1449.77 758.264 1449.77 Q764.051 1449.77 767.431 1452.94 Q770.811 1456.12 770.811 1461.53 Q770.811 1467.11 767.339 1470.21 Q763.866 1473.29 757.547 1473.29 Q755.371 1473.29 753.102 1472.92 Q750.857 1472.55 748.45 1471.81 L748.45 1467.11 Q750.533 1468.24 752.755 1468.8 Q754.977 1469.36 757.454 1469.36 Q761.459 1469.36 763.797 1467.25 Q766.135 1465.14 766.135 1461.53 Q766.135 1457.92 763.797 1455.81 Q761.459 1453.71 757.454 1453.71 Q755.579 1453.71 753.704 1454.12 Q751.852 1454.54 749.908 1455.42 L749.908 1438.06 Z" fill="#000000" fill-rule="evenodd" fill-opacity="1" /><path clip-path="url(#clip900)" d="M780.024 1466.74 L784.908 1466.74 L784.908 1472.62 L780.024 1472.62 L780.024 1466.74 Z" fill="#000000" fill-rule="evenodd" fill-opacity="1" /><path clip-path="url(#clip900)" d="M805.093 1441.14 Q801.482 1441.14 799.653 1444.7 Q797.848 1448.24 797.848 1455.37 Q797.848 1462.48 799.653 1466.05 Q801.482 1469.59 805.093 1469.59 Q808.727 1469.59 810.533 1466.05 Q812.361 1462.48 812.361 1455.37 Q812.361 1448.24 810.533 1444.7 Q808.727 1441.14 805.093 1441.14 M805.093 1437.43 Q810.903 1437.43 813.959 1442.04 Q817.037 1446.62 817.037 1455.37 Q817.037 1464.1 813.959 1468.71 Q810.903 1473.29 805.093 1473.29 Q799.283 1473.29 796.204 1468.71 Q793.149 1464.1 793.149 1455.37 Q793.149 1446.62 796.204 1442.04 Q799.283 1437.43 805.093 1437.43 Z" fill="#000000" fill-rule="evenodd" fill-opacity="1" /><path clip-path="url(#clip900)" d="M1067.87 1468.68 L1075.51 1468.68 L1075.51 1442.32 L1067.2 1443.99 L1067.2 1439.73 L1075.46 1438.06 L1080.14 1438.06 L1080.14 1468.68 L1087.77 1468.68 L1087.77 1472.62 L1067.87 1472.62 L1067.87 1468.68 Z" fill="#000000" fill-rule="evenodd" fill-opacity="1" /><path clip-path="url(#clip900)" d="M1096.04 1438.06 L1118.26 1438.06 L1118.26 1440.05 L1105.71 1472.62 L1100.83 1472.62 L1112.64 1442 L1096.04 1442 L1096.04 1438.06 Z" fill="#000000" fill-rule="evenodd" fill-opacity="1" /><path clip-path="url(#clip900)" d="M1127.38 1466.74 L1132.26 1466.74 L1132.26 1472.62 L1127.38 1472.62 L1127.38 1466.74 Z" fill="#000000" fill-rule="evenodd" fill-opacity="1" /><path clip-path="url(#clip900)" d="M1142.5 1438.06 L1160.85 1438.06 L1160.85 1442 L1146.78 1442 L1146.78 1450.47 Q1147.8 1450.12 1148.82 1449.96 Q1149.83 1449.77 1150.85 1449.77 Q1156.64 1449.77 1160.02 1452.94 Q1163.4 1456.12 1163.4 1461.53 Q1163.4 1467.11 1159.93 1470.21 Q1156.45 1473.29 1150.14 1473.29 Q1147.96 1473.29 1145.69 1472.92 Q1143.45 1472.55 1141.04 1471.81 L1141.04 1467.11 Q1143.12 1468.24 1145.34 1468.8 Q1147.57 1469.36 1150.04 1469.36 Q1154.05 1469.36 1156.39 1467.25 Q1158.72 1465.14 1158.72 1461.53 Q1158.72 1457.92 1156.39 1455.81 Q1154.05 1453.71 1150.04 1453.71 Q1148.17 1453.71 1146.29 1454.12 Q1144.44 1454.54 1142.5 1455.42 L1142.5 1438.06 Z" fill="#000000" fill-rule="evenodd" fill-opacity="1" /><path clip-path="url(#clip900)" d="M1418.31 1468.68 L1434.63 1468.68 L1434.63 1472.62 L1412.69 1472.62 L1412.69 1468.68 Q1415.35 1465.93 1419.93 1461.3 Q1424.54 1456.65 1425.72 1455.31 Q1427.97 1452.78 1428.85 1451.05 Q1429.75 1449.29 1429.75 1447.6 Q1429.75 1444.84 1427.81 1443.11 Q1425.88 1441.37 1422.78 1441.37 Q1420.58 1441.37 1418.13 1442.13 Q1415.7 1442.9 1412.92 1444.45 L1412.92 1439.73 Q1415.75 1438.59 1418.2 1438.01 Q1420.65 1437.43 1422.69 1437.43 Q1428.06 1437.43 1431.25 1440.12 Q1434.45 1442.81 1434.45 1447.3 Q1434.45 1449.43 1433.64 1451.35 Q1432.85 1453.24 1430.74 1455.84 Q1430.17 1456.51 1427.06 1459.73 Q1423.96 1462.92 1418.31 1468.68 Z" fill="#000000" fill-rule="evenodd" fill-opacity="1" /><path clip-path="url(#clip900)" d="M1454.45 1441.14 Q1450.84 1441.14 1449.01 1444.7 Q1447.2 1448.24 1447.2 1455.37 Q1447.2 1462.48 1449.01 1466.05 Q1450.84 1469.59 1454.45 1469.59 Q1458.08 1469.59 1459.89 1466.05 Q1461.72 1462.48 1461.72 1455.37 Q1461.72 1448.24 1459.89 1444.7 Q1458.08 1441.14 1454.45 1441.14 M1454.45 1437.43 Q1460.26 1437.43 1463.31 1442.04 Q1466.39 1446.62 1466.39 1455.37 Q1466.39 1464.1 1463.31 1468.71 Q1460.26 1473.29 1454.45 1473.29 Q1448.64 1473.29 1445.56 1468.71 Q1442.5 1464.1 1442.5 1455.37 Q1442.5 1446.62 1445.56 1442.04 Q1448.64 1437.43 1454.45 1437.43 Z" fill="#000000" fill-rule="evenodd" fill-opacity="1" /><path clip-path="url(#clip900)" d="M1474.61 1466.74 L1479.49 1466.74 L1479.49 1472.62 L1474.61 1472.62 L1474.61 1466.74 Z" fill="#000000" fill-rule="evenodd" fill-opacity="1" /><path clip-path="url(#clip900)" d="M1499.68 1441.14 Q1496.07 1441.14 1494.24 1444.7 Q1492.43 1448.24 1492.43 1455.37 Q1492.43 1462.48 1494.24 1466.05 Q1496.07 1469.59 1499.68 1469.59 Q1503.31 1469.59 1505.12 1466.05 Q1506.95 1462.48 1506.95 1455.37 Q1506.95 1448.24 1505.12 1444.7 Q1503.31 1441.14 1499.68 1441.14 M1499.68 1437.43 Q1505.49 1437.43 1508.55 1442.04 Q1511.62 1446.62 1511.62 1455.37 Q1511.62 1464.1 1508.55 1468.71 Q1505.49 1473.29 1499.68 1473.29 Q1493.87 1473.29 1490.79 1468.71 Q1487.74 1464.1 1487.74 1455.37 Q1487.74 1446.62 1490.79 1442.04 Q1493.87 1437.43 1499.68 1437.43 Z" fill="#000000" fill-rule="evenodd" fill-opacity="1" /><path clip-path="url(#clip900)" d="M1765.67 1468.68 L1781.99 1468.68 L1781.99 1472.62 L1760.05 1472.62 L1760.05 1468.68 Q1762.71 1465.93 1767.29 1461.3 Q1771.9 1456.65 1773.08 1455.31 Q1775.32 1452.78 1776.2 1451.05 Q1777.11 1449.29 1777.11 1447.6 Q1777.11 1444.84 1775.16 1443.11 Q1773.24 1441.37 1770.14 1441.37 Q1767.94 1441.37 1765.49 1442.13 Q1763.06 1442.9 1760.28 1444.45 L1760.28 1439.73 Q1763.1 1438.59 1765.56 1438.01 Q1768.01 1437.43 1770.05 1437.43 Q1775.42 1437.43 1778.61 1440.12 Q1781.81 1442.81 1781.81 1447.3 Q1781.81 1449.43 1781 1451.35 Q1780.21 1453.24 1778.1 1455.84 Q1777.52 1456.51 1774.42 1459.73 Q1771.32 1462.92 1765.67 1468.68 Z" fill="#000000" fill-rule="evenodd" fill-opacity="1" /><path clip-path="url(#clip900)" d="M1795.83 1468.68 L1812.15 1468.68 L1812.15 1472.62 L1790.21 1472.62 L1790.21 1468.68 Q1792.87 1465.93 1797.45 1461.3 Q1802.06 1456.65 1803.24 1455.31 Q1805.49 1452.78 1806.37 1451.05 Q1807.27 1449.29 1807.27 1447.6 Q1807.27 1444.84 1805.32 1443.11 Q1803.4 1441.37 1800.3 1441.37 Q1798.1 1441.37 1795.65 1442.13 Q1793.22 1442.9 1790.44 1444.45 L1790.44 1439.73 Q1793.26 1438.59 1795.72 1438.01 Q1798.17 1437.43 1800.21 1437.43 Q1805.58 1437.43 1808.77 1440.12 Q1811.97 1442.81 1811.97 1447.3 Q1811.97 1449.43 1811.16 1451.35 Q1810.37 1453.24 1808.26 1455.84 Q1807.69 1456.51 1804.58 1459.73 Q1801.48 1462.92 1795.83 1468.68 Z" fill="#000000" fill-rule="evenodd" fill-opacity="1" /><path clip-path="url(#clip900)" d="M1821.97 1466.74 L1826.85 1466.74 L1826.85 1472.62 L1821.97 1472.62 L1821.97 1466.74 Z" fill="#000000" fill-rule="evenodd" fill-opacity="1" /><path clip-path="url(#clip900)" d="M1837.08 1438.06 L1855.44 1438.06 L1855.44 1442 L1841.37 1442 L1841.37 1450.47 Q1842.38 1450.12 1843.4 1449.96 Q1844.42 1449.77 1845.44 1449.77 Q1851.23 1449.77 1854.61 1452.94 Q1857.99 1456.12 1857.99 1461.53 Q1857.99 1467.11 1854.51 1470.21 Q1851.04 1473.29 1844.72 1473.29 Q1842.55 1473.29 1840.28 1472.92 Q1838.03 1472.55 1835.62 1471.81 L1835.62 1467.11 Q1837.71 1468.24 1839.93 1468.8 Q1842.15 1469.36 1844.63 1469.36 Q1848.63 1469.36 1850.97 1467.25 Q1853.31 1465.14 1853.31 1461.53 Q1853.31 1457.92 1850.97 1455.81 Q1848.63 1453.71 1844.63 1453.71 Q1842.75 1453.71 1840.88 1454.12 Q1839.03 1454.54 1837.08 1455.42 L1837.08 1438.06 Z" fill="#000000" fill-rule="evenodd" fill-opacity="1" /><path clip-path="url(#clip900)" d="M2112.03 1468.68 L2128.35 1468.68 L2128.35 1472.62 L2106.41 1472.62 L2106.41 1468.68 Q2109.07 1465.93 2113.65 1461.3 Q2118.26 1456.65 2119.44 1455.31 Q2121.69 1452.78 2122.57 1451.05 Q2123.47 1449.29 2123.47 1447.6 Q2123.47 1444.84 2121.52 1443.11 Q2119.6 1441.37 2116.5 1441.37 Q2114.3 1441.37 2111.85 1442.13 Q2109.42 1442.9 2106.64 1444.45 L2106.64 1439.73 Q2109.46 1438.59 2111.92 1438.01 Q2114.37 1437.43 2116.41 1437.43 Q2121.78 1437.43 2124.97 1440.12 Q2128.17 1442.81 2128.17 1447.3 Q2128.17 1449.43 2127.36 1451.35 Q2126.57 1453.24 2124.46 1455.84 Q2123.89 1456.51 2120.78 1459.73 Q2117.68 1462.92 2112.03 1468.68 Z" fill="#000000" fill-rule="evenodd" fill-opacity="1" /><path clip-path="url(#clip900)" d="M2138.21 1438.06 L2156.57 1438.06 L2156.57 1442 L2142.5 1442 L2142.5 1450.47 Q2143.51 1450.12 2144.53 1449.96 Q2145.55 1449.77 2146.57 1449.77 Q2152.36 1449.77 2155.74 1452.94 Q2159.12 1456.12 2159.12 1461.53 Q2159.12 1467.11 2155.64 1470.21 Q2152.17 1473.29 2145.85 1473.29 Q2143.68 1473.29 2141.41 1472.92 Q2139.16 1472.55 2136.76 1471.81 L2136.76 1467.11 Q2138.84 1468.24 2141.06 1468.8 Q2143.28 1469.36 2145.76 1469.36 Q2149.76 1469.36 2152.1 1467.25 Q2154.44 1465.14 2154.44 1461.53 Q2154.44 1457.92 2152.1 1455.81 Q2149.76 1453.71 2145.76 1453.71 Q2143.88 1453.71 2142.01 1454.12 Q2140.16 1454.54 2138.21 1455.42 L2138.21 1438.06 Z" fill="#000000" fill-rule="evenodd" fill-opacity="1" /><path clip-path="url(#clip900)" d="M2168.33 1466.74 L2173.21 1466.74 L2173.21 1472.62 L2168.33 1472.62 L2168.33 1466.74 Z" fill="#000000" fill-rule="evenodd" fill-opacity="1" /><path clip-path="url(#clip900)" d="M2193.4 1441.14 Q2189.79 1441.14 2187.96 1444.7 Q2186.15 1448.24 2186.15 1455.37 Q2186.15 1462.48 2187.96 1466.05 Q2189.79 1469.59 2193.4 1469.59 Q2197.03 1469.59 2198.84 1466.05 Q2200.67 1462.48 2200.67 1455.37 Q2200.67 1448.24 2198.84 1444.7 Q2197.03 1441.14 2193.4 1441.14 M2193.4 1437.43 Q2199.21 1437.43 2202.26 1442.04 Q2205.34 1446.62 2205.34 1455.37 Q2205.34 1464.1 2202.26 1468.71 Q2199.21 1473.29 2193.4 1473.29 Q2187.59 1473.29 2184.51 1468.71 Q2181.45 1464.1 2181.45 1455.37 Q2181.45 1446.62 2184.51 1442.04 Q2187.59 1437.43 2193.4 1437.43 Z" fill="#000000" fill-rule="evenodd" fill-opacity="1" /><path clip-path="url(#clip900)" d="M1193.29 1575.03 L1193.29 1572.45 Q1197.76 1572.45 1198.78 1571.91 Q1199.81 1571.34 1199.81 1568.63 L1199.81 1524.98 Q1199.81 1521.86 1198.7 1521.09 Q1197.63 1520.31 1193.29 1520.31 L1193.29 1517.68 L1205.34 1516.78 L1205.34 1568.63 Q1205.34 1571.34 1206.41 1571.91 Q1207.47 1572.45 1211.9 1572.45 L1211.9 1575.03 Q1210.87 1575.03 1208.74 1574.95 Q1206.61 1574.86 1205.05 1574.82 Q1203.5 1574.78 1202.59 1574.78 Q1201.61 1574.78 1193.29 1575.03 Z" fill="#000000" fill-rule="evenodd" fill-opacity="1" /><path clip-path="url(#clip900)" d="M1224.53 1570.52 Q1219 1565.03 1219 1557.07 Q1219 1549.08 1224.41 1543.26 Q1229.86 1537.4 1237.65 1537.4 Q1245.27 1537.4 1250.72 1543.22 Q1256.21 1549 1256.21 1557.07 Q1256.21 1564.99 1250.68 1570.48 Q1245.19 1575.97 1237.56 1575.97 Q1230.1 1575.97 1224.53 1570.52 M1225.96 1556.38 Q1225.96 1564.53 1228.09 1568.22 Q1231.37 1573.84 1237.65 1573.84 Q1240.76 1573.84 1243.34 1572.16 Q1245.97 1570.48 1247.4 1567.65 Q1249.25 1563.96 1249.25 1556.38 Q1249.25 1548.3 1247.03 1544.74 Q1243.75 1539.29 1237.56 1539.29 Q1234.86 1539.29 1232.19 1540.72 Q1229.57 1542.11 1227.97 1544.9 Q1225.96 1548.59 1225.96 1556.38 Z" fill="#000000" fill-rule="evenodd" fill-opacity="1" /><path clip-path="url(#clip900)" d="M1257.54 1581.67 Q1257.54 1578.96 1259.59 1576.63 Q1261.68 1574.29 1265.29 1573.27 Q1261.6 1570.93 1261.6 1565.81 Q1261.6 1561.87 1264.18 1558.84 Q1260.25 1555.56 1260.25 1550.19 Q1260.25 1545.23 1264.18 1541.58 Q1268.12 1537.93 1273.86 1537.93 Q1278.9 1537.93 1282.75 1540.97 Q1286.77 1537.03 1291.64 1536.99 Q1293.82 1536.99 1294.84 1538.34 Q1295.91 1539.69 1295.91 1541.13 Q1295.91 1542.4 1295.09 1543.02 Q1294.31 1543.63 1293.49 1543.63 Q1292.46 1543.63 1291.73 1542.97 Q1291.03 1542.28 1291.03 1541.21 Q1291.03 1539.45 1292.38 1538.92 Q1292.14 1538.83 1291.56 1538.83 Q1287.46 1538.83 1283.98 1542.11 Q1287.42 1545.31 1287.42 1550.27 Q1287.42 1555.23 1283.49 1558.88 Q1279.55 1562.53 1273.86 1562.53 Q1269.14 1562.53 1265.53 1559.9 Q1264.1 1561.58 1264.1 1563.88 Q1264.1 1565.97 1265.37 1567.61 Q1266.64 1569.25 1268.57 1569.49 Q1269.14 1569.58 1274.84 1569.58 Q1278.2 1569.58 1280.04 1569.66 Q1281.89 1569.74 1284.51 1570.31 Q1287.18 1570.85 1289.27 1571.91 Q1294.72 1574.95 1294.76 1581.5 Q1294.76 1586.3 1289.23 1589.29 Q1283.73 1592.33 1276.11 1592.33 Q1268.4 1592.33 1262.95 1589.25 Q1257.54 1586.22 1257.54 1581.67 M1261.93 1581.67 Q1261.93 1585.11 1265.99 1587.73 Q1270.04 1590.4 1276.19 1590.4 Q1282.22 1590.4 1286.28 1587.78 Q1290.37 1585.19 1290.37 1581.67 Q1290.37 1579.17 1288.94 1577.57 Q1287.5 1575.97 1284.55 1575.31 Q1281.64 1574.7 1279.59 1574.58 Q1277.54 1574.45 1273.77 1574.45 L1268.81 1574.45 Q1265.94 1574.62 1263.94 1576.71 Q1261.93 1578.8 1261.93 1581.67 M1266.52 1550.27 Q1266.52 1560.6 1273.86 1560.6 Q1277.54 1560.6 1279.8 1557.24 Q1281.15 1554.98 1281.15 1550.19 Q1281.15 1539.86 1273.86 1539.86 Q1270.17 1539.86 1267.87 1543.22 Q1266.52 1545.47 1266.52 1550.27 Z" fill="#000000" fill-rule="evenodd" fill-opacity="1" /><path clip-path="url(#clip900)" d="M1304.49 1598.29 Q1304.49 1597.22 1304.57 1596.91 Q1304.69 1596.59 1305.15 1596.1 L1316.42 1583.54 Q1322.59 1576.59 1322.59 1570.54 Q1322.59 1566.61 1320.53 1563.8 Q1318.49 1560.98 1314.73 1560.98 Q1312.15 1560.98 1309.97 1562.56 Q1307.79 1564.14 1306.78 1566.95 Q1306.95 1566.9 1307.56 1566.9 Q1309.02 1566.9 1309.82 1567.81 Q1310.65 1568.73 1310.65 1569.97 Q1310.65 1571.54 1309.62 1572.32 Q1308.62 1573.06 1307.61 1573.06 Q1307.21 1573.06 1306.67 1572.98 Q1306.15 1572.89 1305.32 1572.09 Q1304.49 1571.26 1304.49 1569.79 Q1304.49 1565.69 1307.58 1562.42 Q1310.71 1559.15 1315.48 1559.15 Q1320.87 1559.15 1324.4 1562.36 Q1327.96 1565.55 1327.96 1570.54 Q1327.96 1572.29 1327.41 1573.9 Q1326.89 1575.47 1326.18 1576.71 Q1325.49 1577.94 1323.6 1579.92 Q1321.7 1581.9 1320.18 1583.31 Q1318.66 1584.71 1315.25 1587.7 L1309.02 1593.75 L1319.61 1593.75 Q1324.77 1593.75 1325.17 1593.29 Q1325.75 1592.46 1326.46 1588.07 L1327.96 1588.07 L1326.29 1598.29 L1304.49 1598.29 Z" fill="#000000" fill-rule="evenodd" fill-opacity="1" /><path clip-path="url(#clip900)" d="M1336.69 1593.43 L1336.69 1515.27 Q1336.69 1512.15 1338.37 1512.15 Q1340.05 1512.15 1340.05 1514.65 L1340.05 1592.82 Q1340.05 1595.93 1338.37 1595.93 Q1336.69 1595.93 1336.69 1593.43 Z" fill="#000000" fill-rule="evenodd" fill-opacity="1" /><path clip-path="url(#clip900)" d="M1414.38 1518.71 Q1414.3 1520.23 1413.27 1520.31 Q1411.72 1520.39 1410.77 1520.59 Q1409.83 1520.76 1408.36 1521.37 Q1406.88 1521.99 1405.45 1523.46 Q1404.01 1524.94 1402.54 1527.28 L1372.33 1575.36 Q1371.79 1576.26 1371.34 1576.54 Q1370.93 1576.87 1369.99 1576.87 Q1369.13 1576.87 1368.8 1576.5 Q1368.47 1576.18 1368.31 1574.95 L1361.67 1523.14 Q1361.55 1522.19 1361.42 1521.78 Q1361.3 1521.37 1360.81 1520.96 Q1360.36 1520.55 1359.37 1520.43 Q1358.39 1520.31 1356.63 1520.31 Q1355.81 1520.31 1355.44 1520.27 Q1355.11 1520.23 1354.82 1520.02 Q1354.54 1519.77 1354.54 1519.28 Q1354.54 1518.54 1354.82 1518.18 Q1355.15 1517.77 1355.4 1517.72 Q1355.68 1517.68 1356.14 1517.68 Q1356.83 1517.68 1358.35 1517.77 Q1359.87 1517.85 1360.64 1517.85 Q1361.38 1517.85 1362.94 1517.89 Q1364.5 1517.93 1365.28 1517.93 Q1367 1517.93 1370.48 1517.81 Q1374.01 1517.68 1375.69 1517.68 Q1376.83 1517.68 1376.83 1518.63 Q1376.83 1519.77 1376.34 1520.06 Q1375.85 1520.31 1374.74 1520.31 Q1371.96 1520.31 1370.44 1521 Q1368.97 1521.7 1368.97 1522.81 L1374.66 1567.24 L1400.44 1526.25 Q1401.72 1524.32 1401.72 1523.05 Q1401.72 1520.59 1397.82 1520.31 Q1396.51 1520.31 1396.51 1519.28 Q1396.51 1518.54 1396.84 1518.18 Q1397.17 1517.77 1397.41 1517.72 Q1397.7 1517.68 1398.11 1517.68 Q1399.46 1517.68 1402.21 1517.81 Q1404.99 1517.93 1406.39 1517.93 Q1407.54 1517.93 1409.87 1517.81 Q1412.21 1517.68 1413.27 1517.68 Q1414.38 1517.68 1414.38 1518.71 Z" fill="#000000" fill-rule="evenodd" fill-opacity="1" /><path clip-path="url(#clip900)" d="M1425.14 1593.43 L1425.14 1515.27 Q1425.14 1512.15 1426.82 1512.15 Q1428.5 1512.15 1428.5 1514.65 L1428.5 1592.82 Q1428.5 1595.93 1426.82 1595.93 Q1425.14 1595.93 1425.14 1593.43 Z" fill="#000000" fill-rule="evenodd" fill-opacity="1" /><polyline clip-path="url(#clip900)" style="stroke:#000000; stroke-linecap:butt; stroke-linejoin:round; stroke-width:4; stroke-opacity:1; fill:none" points="
  300.326,1410.22 300.326,47.2441 
  "/>
<polyline clip-path="url(#clip900)" style="stroke:#000000; stroke-linecap:butt; stroke-linejoin:round; stroke-width:4; stroke-opacity:1; fill:none" points="
  300.326,1211.77 319.224,1211.77 
  "/>
<polyline clip-path="url(#clip900)" style="stroke:#000000; stroke-linecap:butt; stroke-linejoin:round; stroke-width:4; stroke-opacity:1; fill:none" points="
  300.326,933.315 319.224,933.315 
  "/>
<polyline clip-path="url(#clip900)" style="stroke:#000000; stroke-linecap:butt; stroke-linejoin:round; stroke-width:4; stroke-opacity:1; fill:none" points="
  300.326,654.86 319.224,654.86 
  "/>
<polyline clip-path="url(#clip900)" style="stroke:#000000; stroke-linecap:butt; stroke-linejoin:round; stroke-width:4; stroke-opacity:1; fill:none" points="
  300.326,376.405 319.224,376.405 
  "/>
<polyline clip-path="url(#clip900)" style="stroke:#000000; stroke-linecap:butt; stroke-linejoin:round; stroke-width:4; stroke-opacity:1; fill:none" points="
  300.326,97.9494 319.224,97.9494 
  "/>
<path clip-path="url(#clip900)" d="M128.216 1212.22 L157.891 1212.22 L157.891 1216.16 L128.216 1216.16 L128.216 1212.22 Z" fill="#000000" fill-rule="evenodd" fill-opacity="1" /><path clip-path="url(#clip900)" d="M177.984 1197.57 Q174.373 1197.57 172.544 1201.13 Q170.738 1204.68 170.738 1211.8 Q170.738 1218.91 172.544 1222.48 Q174.373 1226.02 177.984 1226.02 Q181.618 1226.02 183.424 1222.48 Q185.252 1218.91 185.252 1211.8 Q185.252 1204.68 183.424 1201.13 Q181.618 1197.57 177.984 1197.57 M177.984 1193.87 Q183.794 1193.87 186.849 1198.47 Q189.928 1203.05 189.928 1211.8 Q189.928 1220.53 186.849 1225.14 Q183.794 1229.72 177.984 1229.72 Q172.174 1229.72 169.095 1225.14 Q166.039 1220.53 166.039 1211.8 Q166.039 1203.05 169.095 1198.47 Q172.174 1193.87 177.984 1193.87 Z" fill="#000000" fill-rule="evenodd" fill-opacity="1" /><path clip-path="url(#clip900)" d="M198.146 1223.17 L203.03 1223.17 L203.03 1229.05 L198.146 1229.05 L198.146 1223.17 Z" fill="#000000" fill-rule="evenodd" fill-opacity="1" /><path clip-path="url(#clip900)" d="M214.025 1225.12 L221.664 1225.12 L221.664 1198.75 L213.354 1200.42 L213.354 1196.16 L221.618 1194.49 L226.294 1194.49 L226.294 1225.12 L233.933 1225.12 L233.933 1229.05 L214.025 1229.05 L214.025 1225.12 Z" fill="#000000" fill-rule="evenodd" fill-opacity="1" /><path clip-path="url(#clip900)" d="M243.423 1194.49 L261.78 1194.49 L261.78 1198.43 L247.706 1198.43 L247.706 1206.9 Q248.724 1206.55 249.743 1206.39 Q250.761 1206.2 251.78 1206.2 Q257.567 1206.2 260.946 1209.37 Q264.326 1212.55 264.326 1217.96 Q264.326 1223.54 260.854 1226.64 Q257.381 1229.72 251.062 1229.72 Q248.886 1229.72 246.618 1229.35 Q244.372 1228.98 241.965 1228.24 L241.965 1223.54 Q244.048 1224.68 246.27 1225.23 Q248.493 1225.79 250.969 1225.79 Q254.974 1225.79 257.312 1223.68 Q259.65 1221.57 259.65 1217.96 Q259.65 1214.35 257.312 1212.24 Q254.974 1210.14 250.969 1210.14 Q249.095 1210.14 247.22 1210.55 Q245.368 1210.97 243.423 1211.85 L243.423 1194.49 Z" fill="#000000" fill-rule="evenodd" fill-opacity="1" /><path clip-path="url(#clip900)" d="M127.22 933.766 L156.896 933.766 L156.896 937.702 L127.22 937.702 L127.22 933.766 Z" fill="#000000" fill-rule="evenodd" fill-opacity="1" /><path clip-path="url(#clip900)" d="M176.988 919.114 Q173.377 919.114 171.549 922.679 Q169.743 926.22 169.743 933.35 Q169.743 940.456 171.549 944.021 Q173.377 947.563 176.988 947.563 Q180.623 947.563 182.428 944.021 Q184.257 940.456 184.257 933.35 Q184.257 926.22 182.428 922.679 Q180.623 919.114 176.988 919.114 M176.988 915.41 Q182.799 915.41 185.854 920.016 Q188.933 924.6 188.933 933.35 Q188.933 942.077 185.854 946.683 Q182.799 951.266 176.988 951.266 Q171.178 951.266 168.1 946.683 Q165.044 942.077 165.044 933.35 Q165.044 924.6 168.1 920.016 Q171.178 915.41 176.988 915.41 Z" fill="#000000" fill-rule="evenodd" fill-opacity="1" /><path clip-path="url(#clip900)" d="M197.15 944.715 L202.035 944.715 L202.035 950.595 L197.15 950.595 L197.15 944.715 Z" fill="#000000" fill-rule="evenodd" fill-opacity="1" /><path clip-path="url(#clip900)" d="M213.03 946.66 L220.669 946.66 L220.669 920.294 L212.359 921.961 L212.359 917.702 L220.622 916.035 L225.298 916.035 L225.298 946.66 L232.937 946.66 L232.937 950.595 L213.03 950.595 L213.03 946.66 Z" fill="#000000" fill-rule="evenodd" fill-opacity="1" /><path clip-path="url(#clip900)" d="M252.382 919.114 Q248.77 919.114 246.942 922.679 Q245.136 926.22 245.136 933.35 Q245.136 940.456 246.942 944.021 Q248.77 947.563 252.382 947.563 Q256.016 947.563 257.821 944.021 Q259.65 940.456 259.65 933.35 Q259.65 926.22 257.821 922.679 Q256.016 919.114 252.382 919.114 M252.382 915.41 Q258.192 915.41 261.247 920.016 Q264.326 924.6 264.326 933.35 Q264.326 942.077 261.247 946.683 Q258.192 951.266 252.382 951.266 Q246.571 951.266 243.493 946.683 Q240.437 942.077 240.437 933.35 Q240.437 924.6 243.493 920.016 Q246.571 915.41 252.382 915.41 Z" fill="#000000" fill-rule="evenodd" fill-opacity="1" /><path clip-path="url(#clip900)" d="M128.216 655.311 L157.891 655.311 L157.891 659.246 L128.216 659.246 L128.216 655.311 Z" fill="#000000" fill-rule="evenodd" fill-opacity="1" /><path clip-path="url(#clip900)" d="M177.984 640.659 Q174.373 640.659 172.544 644.223 Q170.738 647.765 170.738 654.895 Q170.738 662.001 172.544 665.566 Q174.373 669.107 177.984 669.107 Q181.618 669.107 183.424 665.566 Q185.252 662.001 185.252 654.895 Q185.252 647.765 183.424 644.223 Q181.618 640.659 177.984 640.659 M177.984 636.955 Q183.794 636.955 186.849 641.561 Q189.928 646.145 189.928 654.895 Q189.928 663.621 186.849 668.228 Q183.794 672.811 177.984 672.811 Q172.174 672.811 169.095 668.228 Q166.039 663.621 166.039 654.895 Q166.039 646.145 169.095 641.561 Q172.174 636.955 177.984 636.955 Z" fill="#000000" fill-rule="evenodd" fill-opacity="1" /><path clip-path="url(#clip900)" d="M198.146 666.26 L203.03 666.26 L203.03 672.14 L198.146 672.14 L198.146 666.26 Z" fill="#000000" fill-rule="evenodd" fill-opacity="1" /><path clip-path="url(#clip900)" d="M223.215 640.659 Q219.604 640.659 217.775 644.223 Q215.97 647.765 215.97 654.895 Q215.97 662.001 217.775 665.566 Q219.604 669.107 223.215 669.107 Q226.849 669.107 228.655 665.566 Q230.483 662.001 230.483 654.895 Q230.483 647.765 228.655 644.223 Q226.849 640.659 223.215 640.659 M223.215 636.955 Q229.025 636.955 232.081 641.561 Q235.159 646.145 235.159 654.895 Q235.159 663.621 232.081 668.228 Q229.025 672.811 223.215 672.811 Q217.405 672.811 214.326 668.228 Q211.271 663.621 211.271 654.895 Q211.271 646.145 214.326 641.561 Q217.405 636.955 223.215 636.955 Z" fill="#000000" fill-rule="evenodd" fill-opacity="1" /><path clip-path="url(#clip900)" d="M243.423 637.58 L261.78 637.58 L261.78 641.515 L247.706 641.515 L247.706 649.987 Q248.724 649.64 249.743 649.478 Q250.761 649.293 251.78 649.293 Q257.567 649.293 260.946 652.464 Q264.326 655.635 264.326 661.052 Q264.326 666.631 260.854 669.732 Q257.381 672.811 251.062 672.811 Q248.886 672.811 246.618 672.441 Q244.372 672.07 241.965 671.33 L241.965 666.631 Q244.048 667.765 246.27 668.32 Q248.493 668.876 250.969 668.876 Q254.974 668.876 257.312 666.769 Q259.65 664.663 259.65 661.052 Q259.65 657.441 257.312 655.334 Q254.974 653.228 250.969 653.228 Q249.095 653.228 247.22 653.645 Q245.368 654.061 243.423 654.941 L243.423 637.58 Z" fill="#000000" fill-rule="evenodd" fill-opacity="1" /><path clip-path="url(#clip900)" d="M176.988 362.203 Q173.377 362.203 171.549 365.768 Q169.743 369.31 169.743 376.439 Q169.743 383.546 171.549 387.111 Q173.377 390.652 176.988 390.652 Q180.623 390.652 182.428 387.111 Q184.257 383.546 184.257 376.439 Q184.257 369.31 182.428 365.768 Q180.623 362.203 176.988 362.203 M176.988 358.5 Q182.799 358.5 185.854 363.106 Q188.933 367.689 188.933 376.439 Q188.933 385.166 185.854 389.773 Q182.799 394.356 176.988 394.356 Q171.178 394.356 168.1 389.773 Q165.044 385.166 165.044 376.439 Q165.044 367.689 168.1 363.106 Q171.178 358.5 176.988 358.5 Z" fill="#000000" fill-rule="evenodd" fill-opacity="1" /><path clip-path="url(#clip900)" d="M197.15 387.805 L202.035 387.805 L202.035 393.685 L197.15 393.685 L197.15 387.805 Z" fill="#000000" fill-rule="evenodd" fill-opacity="1" /><path clip-path="url(#clip900)" d="M222.22 362.203 Q218.609 362.203 216.78 365.768 Q214.974 369.31 214.974 376.439 Q214.974 383.546 216.78 387.111 Q218.609 390.652 222.22 390.652 Q225.854 390.652 227.659 387.111 Q229.488 383.546 229.488 376.439 Q229.488 369.31 227.659 365.768 Q225.854 362.203 222.22 362.203 M222.22 358.5 Q228.03 358.5 231.085 363.106 Q234.164 367.689 234.164 376.439 Q234.164 385.166 231.085 389.773 Q228.03 394.356 222.22 394.356 Q216.409 394.356 213.331 389.773 Q210.275 385.166 210.275 376.439 Q210.275 367.689 213.331 363.106 Q216.409 358.5 222.22 358.5 Z" fill="#000000" fill-rule="evenodd" fill-opacity="1" /><path clip-path="url(#clip900)" d="M252.382 362.203 Q248.77 362.203 246.942 365.768 Q245.136 369.31 245.136 376.439 Q245.136 383.546 246.942 387.111 Q248.77 390.652 252.382 390.652 Q256.016 390.652 257.821 387.111 Q259.65 383.546 259.65 376.439 Q259.65 369.31 257.821 365.768 Q256.016 362.203 252.382 362.203 M252.382 358.5 Q258.192 358.5 261.247 363.106 Q264.326 367.689 264.326 376.439 Q264.326 385.166 261.247 389.773 Q258.192 394.356 252.382 394.356 Q246.571 394.356 243.493 389.773 Q240.437 385.166 240.437 376.439 Q240.437 367.689 243.493 363.106 Q246.571 358.5 252.382 358.5 Z" fill="#000000" fill-rule="evenodd" fill-opacity="1" /><path clip-path="url(#clip900)" d="M177.984 83.7481 Q174.373 83.7481 172.544 87.3129 Q170.738 90.8545 170.738 97.9841 Q170.738 105.091 172.544 108.655 Q174.373 112.197 177.984 112.197 Q181.618 112.197 183.424 108.655 Q185.252 105.091 185.252 97.9841 Q185.252 90.8545 183.424 87.3129 Q181.618 83.7481 177.984 83.7481 M177.984 80.0444 Q183.794 80.0444 186.849 84.6509 Q189.928 89.2342 189.928 97.9841 Q189.928 106.711 186.849 111.317 Q183.794 115.901 177.984 115.901 Q172.174 115.901 169.095 111.317 Q166.039 106.711 166.039 97.9841 Q166.039 89.2342 169.095 84.6509 Q172.174 80.0444 177.984 80.0444 Z" fill="#000000" fill-rule="evenodd" fill-opacity="1" /><path clip-path="url(#clip900)" d="M198.146 109.35 L203.03 109.35 L203.03 115.229 L198.146 115.229 L198.146 109.35 Z" fill="#000000" fill-rule="evenodd" fill-opacity="1" /><path clip-path="url(#clip900)" d="M223.215 83.7481 Q219.604 83.7481 217.775 87.3129 Q215.97 90.8545 215.97 97.9841 Q215.97 105.091 217.775 108.655 Q219.604 112.197 223.215 112.197 Q226.849 112.197 228.655 108.655 Q230.483 105.091 230.483 97.9841 Q230.483 90.8545 228.655 87.3129 Q226.849 83.7481 223.215 83.7481 M223.215 80.0444 Q229.025 80.0444 232.081 84.6509 Q235.159 89.2342 235.159 97.9841 Q235.159 106.711 232.081 111.317 Q229.025 115.901 223.215 115.901 Q217.405 115.901 214.326 111.317 Q211.271 106.711 211.271 97.9841 Q211.271 89.2342 214.326 84.6509 Q217.405 80.0444 223.215 80.0444 Z" fill="#000000" fill-rule="evenodd" fill-opacity="1" /><path clip-path="url(#clip900)" d="M243.423 80.6694 L261.78 80.6694 L261.78 84.6046 L247.706 84.6046 L247.706 93.0767 Q248.724 92.7295 249.743 92.5675 Q250.761 92.3823 251.78 92.3823 Q257.567 92.3823 260.946 95.5536 Q264.326 98.7249 264.326 104.142 Q264.326 109.72 260.854 112.822 Q257.381 115.901 251.062 115.901 Q248.886 115.901 246.618 115.53 Q244.372 115.16 241.965 114.419 L241.965 109.72 Q244.048 110.854 246.27 111.41 Q248.493 111.966 250.969 111.966 Q254.974 111.966 257.312 109.859 Q259.65 107.753 259.65 104.142 Q259.65 100.53 257.312 98.4239 Q254.974 96.3175 250.969 96.3175 Q249.095 96.3175 247.22 96.7341 Q245.368 97.1508 243.423 98.0304 L243.423 80.6694 Z" fill="#000000" fill-rule="evenodd" fill-opacity="1" /><path clip-path="url(#clip900)" d="M73.0823 729.273 Q73.8611 729.273 74.271 729.601 Q74.6399 729.888 74.7219 730.175 Q74.7629 730.421 74.7629 730.79 Q74.7629 731.855 74.6399 735.544 Q74.5169 739.234 74.5169 740.299 Q74.5169 742.021 74.6399 745.546 Q74.7629 749.071 74.7629 750.792 Q74.7629 751.94 73.8201 751.94 Q73.2053 751.94 72.8774 751.817 Q72.5085 751.694 72.3855 751.366 Q72.2215 750.997 72.2215 750.792 Q72.1806 750.547 72.1806 749.932 Q72.1806 749.112 72.0986 748.251 Q71.9756 747.39 71.7297 746.325 Q71.4837 745.259 70.8689 744.603 Q70.2541 743.906 69.3933 743.906 Q69.0244 743.906 65.9912 744.193 Q62.958 744.48 59.4329 744.849 Q55.8668 745.218 55.3749 745.259 L55.3749 766.327 Q58.6951 768.254 60.9905 769.607 Q63.2859 770.959 64.0647 771.451 Q64.8435 771.943 65.3353 772.23 Q65.8272 772.517 66.1141 772.681 Q68.2866 773.869 69.2293 773.869 Q71.8526 773.869 72.1806 769.934 Q72.1806 768.582 73.1643 768.582 Q73.9021 768.582 74.312 768.91 Q74.6809 769.238 74.7219 769.525 Q74.7629 769.771 74.7629 770.18 Q74.7629 771.533 74.6399 774.361 Q74.5169 777.19 74.5169 778.583 Q74.5169 779.772 74.6399 782.231 Q74.7629 784.691 74.7629 785.797 Q74.7629 786.289 74.476 786.576 Q74.189 786.863 73.8201 786.863 Q73.2463 786.863 72.9184 786.781 Q72.5904 786.658 72.4265 786.33 Q72.2625 786.002 72.2625 785.838 Q72.2215 785.674 72.1806 785.101 Q71.9756 781.985 70.5 779.567 Q68.9834 777.108 65.0894 774.771 L16.0662 745.587 Q15.5744 745.3 15.3284 745.095 Q15.0825 744.89 14.8775 744.48 Q14.6726 744.029 14.6726 743.373 Q14.6726 742.349 15.0005 742.144 Q15.2874 741.939 16.6811 741.816 L69.1473 736.692 Q70.2541 736.569 70.7049 736.487 Q71.1148 736.364 71.5657 735.831 Q71.9756 735.258 72.0986 734.233 Q72.1806 733.167 72.1806 731.2 Q72.1806 730.462 72.2215 730.175 Q72.2215 729.888 72.4265 729.601 Q72.6314 729.273 73.0823 729.273 M52.7516 745.505 L25.0839 748.169 L52.7516 764.729 L52.7516 745.505 Z" fill="#000000" fill-rule="evenodd" fill-opacity="1" /><path clip-path="url(#clip900)" d="M58.556 679.153 L73.5334 682.854 Q74.4803 683.112 74.5951 683.285 Q74.7098 683.428 74.7098 683.887 Q74.7098 684.777 74.1073 684.777 Q74.0499 684.777 73.3039 684.691 Q72.5292 684.604 71.1233 684.604 Q65.9299 684.604 62.8598 687.129 Q59.7897 689.626 59.7897 694.073 Q59.7897 698.233 61.9704 702.222 Q64.151 706.21 67.3646 708.764 Q70.0043 710.916 73.2178 712.408 Q76.4314 713.871 79.2432 714.473 Q82.0264 715.076 83.7193 715.305 Q85.4121 715.506 86.5024 715.506 Q89.716 715.506 92.2123 714.473 Q94.6798 713.44 96.0857 711.719 Q97.4917 709.969 98.1803 707.96 Q98.8689 705.923 98.8689 703.714 Q98.8689 702.882 98.7541 701.877 Q98.6394 700.873 98.209 699.324 Q97.7786 697.746 97.0613 696.454 Q96.344 695.135 94.9667 693.987 Q93.5895 692.811 91.7532 692.351 Q87.0763 691.118 86.3877 691.118 Q85.8138 691.118 85.613 691.462 Q85.4121 691.806 85.2687 692.954 L85.1539 696.053 Q85.1539 696.11 85.1539 696.196 Q85.1539 696.741 85.1539 696.971 Q85.1252 697.201 85.0678 697.459 Q85.0104 697.688 84.8957 697.774 Q84.7522 697.832 84.5227 697.832 Q83.9775 697.832 83.7193 697.602 Q83.4323 697.373 83.4037 697.172 Q83.3463 696.971 83.3463 696.598 L83.5184 688.363 Q83.5184 687.703 83.4323 685.293 Q83.3463 682.883 83.3463 682.194 Q83.3463 681.42 83.9775 681.42 Q85.1539 681.42 85.1539 682.366 Q85.1826 683.313 85.2113 683.801 Q85.2113 684.289 85.3547 684.777 Q85.4982 685.236 85.613 685.408 Q85.6991 685.58 86.1294 685.81 Q86.5311 686.039 86.8754 686.125 Q87.1911 686.211 87.9945 686.412 Q88.5109 686.527 89.4865 686.814 Q90.462 687.072 90.9785 687.187 L95.5119 688.306 Q98.8689 689.081 99.0985 689.31 Q99.328 689.425 99.328 689.712 Q99.328 690.142 98.0655 691.06 Q96.8031 691.95 95.684 692.351 Q96.4587 693.069 96.9178 693.528 Q97.3482 693.987 98.0368 695.049 Q98.7254 696.081 99.2706 697.459 Q100.677 700.816 100.677 704.804 Q100.677 711.92 96.1718 716.396 Q91.6384 720.872 84.58 720.872 Q79.5876 720.872 74.6811 718.576 Q69.7747 716.281 66.1308 712.637 Q62.4868 708.993 60.2201 704.173 Q57.9534 699.352 57.9534 694.532 Q57.9534 692.696 58.4412 691.06 Q58.929 689.425 59.5315 688.449 Q60.134 687.445 61.0235 686.556 Q61.8843 685.666 62.286 685.379 Q62.6877 685.064 63.1754 684.777 L58.6707 680.674 Q57.9534 679.956 57.9534 679.784 Q57.9534 679.44 58.1543 679.296 Q58.3551 679.153 58.556 679.153 Z" fill="#000000" fill-rule="evenodd" fill-opacity="1" /><polyline clip-path="url(#clip902)" style="stroke:#000000; stroke-linecap:butt; stroke-linejoin:round; stroke-width:4; stroke-opacity:1; fill:none" points="
  2017.23,627.306 2017.23,98.6935 
  "/>
<polyline clip-path="url(#clip902)" style="stroke:#000000; stroke-linecap:butt; stroke-linejoin:round; stroke-width:4; stroke-opacity:1; fill:none" points="
  358.414,1371.65 358.414,217.285 
  "/>
<polyline clip-path="url(#clip902)" style="stroke:#000000; stroke-linecap:butt; stroke-linejoin:round; stroke-width:4; stroke-opacity:1; fill:none" points="
  1739.84,652.416 1739.84,124.477 
  "/>
<polyline clip-path="url(#clip902)" style="stroke:#000000; stroke-linecap:butt; stroke-linejoin:round; stroke-width:4; stroke-opacity:1; fill:none" points="
  1185.45,749.983 1185.45,164.687 
  "/>
<polyline clip-path="url(#clip902)" style="stroke:#000000; stroke-linecap:butt; stroke-linejoin:round; stroke-width:4; stroke-opacity:1; fill:none" points="
  632.81,1062.24 632.81,230.168 
  "/>
<polyline clip-path="url(#clip902)" style="stroke:#000000; stroke-linecap:butt; stroke-linejoin:round; stroke-width:4; stroke-opacity:1; fill:none" points="
  1462.55,675.566 1462.55,122.214 
  "/>
<polyline clip-path="url(#clip902)" style="stroke:#000000; stroke-linecap:butt; stroke-linejoin:round; stroke-width:4; stroke-opacity:1; fill:none" points="
  2294.67,615.511 2294.67,85.8189 
  "/>
<polyline clip-path="url(#clip902)" style="stroke:#000000; stroke-linecap:butt; stroke-linejoin:round; stroke-width:4; stroke-opacity:1; fill:none" points="
  908.743,854.886 908.743,169.159 
  "/>
<line clip-path="url(#clip902)" x1="2033.23" y1="627.306" x2="2001.23" y2="627.306" style="stroke:#000000; stroke-width:3.2; stroke-opacity:1"/>
<line clip-path="url(#clip902)" x1="2033.23" y1="98.6935" x2="2001.23" y2="98.6935" style="stroke:#000000; stroke-width:3.2; stroke-opacity:1"/>
<line clip-path="url(#clip902)" x1="374.414" y1="1371.65" x2="342.414" y2="1371.65" style="stroke:#000000; stroke-width:3.2; stroke-opacity:1"/>
<line clip-path="url(#clip902)" x1="374.414" y1="217.285" x2="342.414" y2="217.285" style="stroke:#000000; stroke-width:3.2; stroke-opacity:1"/>
<line clip-path="url(#clip902)" x1="1755.84" y1="652.416" x2="1723.84" y2="652.416" style="stroke:#000000; stroke-width:3.2; stroke-opacity:1"/>
<line clip-path="url(#clip902)" x1="1755.84" y1="124.477" x2="1723.84" y2="124.477" style="stroke:#000000; stroke-width:3.2; stroke-opacity:1"/>
<line clip-path="url(#clip902)" x1="1201.45" y1="749.983" x2="1169.45" y2="749.983" style="stroke:#000000; stroke-width:3.2; stroke-opacity:1"/>
<line clip-path="url(#clip902)" x1="1201.45" y1="164.687" x2="1169.45" y2="164.687" style="stroke:#000000; stroke-width:3.2; stroke-opacity:1"/>
<line clip-path="url(#clip902)" x1="648.81" y1="1062.24" x2="616.81" y2="1062.24" style="stroke:#000000; stroke-width:3.2; stroke-opacity:1"/>
<line clip-path="url(#clip902)" x1="648.81" y1="230.168" x2="616.81" y2="230.168" style="stroke:#000000; stroke-width:3.2; stroke-opacity:1"/>
<line clip-path="url(#clip902)" x1="1478.55" y1="675.566" x2="1446.55" y2="675.566" style="stroke:#000000; stroke-width:3.2; stroke-opacity:1"/>
<line clip-path="url(#clip902)" x1="1478.55" y1="122.214" x2="1446.55" y2="122.214" style="stroke:#000000; stroke-width:3.2; stroke-opacity:1"/>
<line clip-path="url(#clip902)" x1="2310.67" y1="615.511" x2="2278.67" y2="615.511" style="stroke:#000000; stroke-width:3.2; stroke-opacity:1"/>
<line clip-path="url(#clip902)" x1="2310.67" y1="85.8189" x2="2278.67" y2="85.8189" style="stroke:#000000; stroke-width:3.2; stroke-opacity:1"/>
<line clip-path="url(#clip902)" x1="924.743" y1="854.886" x2="892.743" y2="854.886" style="stroke:#000000; stroke-width:3.2; stroke-opacity:1"/>
<line clip-path="url(#clip902)" x1="924.743" y1="169.159" x2="892.743" y2="169.159" style="stroke:#000000; stroke-width:3.2; stroke-opacity:1"/>
<line clip-path="url(#clip902)" x1="2033.23" y1="363" x2="2001.23" y2="363" style="stroke:#000000; stroke-width:3.2; stroke-opacity:1"/>
<line clip-path="url(#clip902)" x1="374.414" y1="794.465" x2="342.414" y2="794.465" style="stroke:#000000; stroke-width:3.2; stroke-opacity:1"/>
<line clip-path="url(#clip902)" x1="1755.84" y1="388.446" x2="1723.84" y2="388.446" style="stroke:#000000; stroke-width:3.2; stroke-opacity:1"/>
<line clip-path="url(#clip902)" x1="1201.45" y1="457.335" x2="1169.45" y2="457.335" style="stroke:#000000; stroke-width:3.2; stroke-opacity:1"/>
<line clip-path="url(#clip902)" x1="648.81" y1="646.202" x2="616.81" y2="646.202" style="stroke:#000000; stroke-width:3.2; stroke-opacity:1"/>
<line clip-path="url(#clip902)" x1="1478.55" y1="398.89" x2="1446.55" y2="398.89" style="stroke:#000000; stroke-width:3.2; stroke-opacity:1"/>
<line clip-path="url(#clip902)" x1="2310.67" y1="350.665" x2="2278.67" y2="350.665" style="stroke:#000000; stroke-width:3.2; stroke-opacity:1"/>
<line clip-path="url(#clip902)" x1="924.743" y1="512.023" x2="892.743" y2="512.023" style="stroke:#000000; stroke-width:3.2; stroke-opacity:1"/>
<polyline clip-path="url(#clip902)" style="stroke:#808080; stroke-linecap:butt; stroke-linejoin:round; stroke-width:4; stroke-opacity:1; fill:none" stroke-dasharray="16, 10" points="
  -1752.1,376.405 4405.19,376.405 
  "/>
<polyline clip-path="url(#clip902)" style="stroke:#808080; stroke-linecap:butt; stroke-linejoin:round; stroke-width:4; stroke-opacity:1; fill:none" stroke-dasharray="16, 10" points="
  -1752.1,376.405 4405.19,376.405 
  "/>
</svg>
