<?xml version="1.0" encoding="UTF-8"?>
<svg xmlns="http://www.w3.org/2000/svg" xmlns:xlink="http://www.w3.org/1999/xlink" width="66.484pt" height="66.484pt" viewBox="0 0 66.484 66.484" version="1.1">
<defs>
<clipPath id="clip1">
  <path d="M 0 51 L 16 51 L 16 66.484375 L 0 66.484375 Z M 0 51 "/>
</clipPath>
<clipPath id="clip2">
  <path d="M 22 51 L 44 51 L 44 66.484375 L 22 66.484375 Z M 22 51 "/>
</clipPath>
<clipPath id="clip3">
  <path d="M 51 51 L 66.484375 51 L 66.484375 66.484375 L 51 66.484375 Z M 51 51 "/>
</clipPath>
<clipPath id="clip4">
  <path d="M 51 22 L 66.484375 22 L 66.484375 44 L 51 44 Z M 51 22 "/>
</clipPath>
<clipPath id="clip5">
  <path d="M 51 0 L 66.484375 0 L 66.484375 16 L 51 16 Z M 51 0 "/>
</clipPath>
</defs>
<g id="surface1">
<g clip-path="url(#clip1)" clip-rule="nonzero">
<path style="fill:none;stroke-width:0.3985;stroke-linecap:butt;stroke-linejoin:miter;stroke:rgb(0%,0%,0%);stroke-opacity:1;stroke-miterlimit:10;" d="M 4.694844 -0.00184375 C 4.694844 2.591906 2.593281 4.697375 -0.00046875 4.697375 C -2.594219 4.697375 -4.695781 2.591906 -4.695781 -0.00184375 C -4.695781 -2.595594 -2.594219 -4.697156 -0.00046875 -4.697156 C 2.593281 -4.697156 4.694844 -2.595594 4.694844 -0.00184375 Z M 4.694844 -0.00184375 " transform="matrix(1,0,0,-1,4.895,61.588)"/>
</g>
<path style="fill:none;stroke-width:0.3985;stroke-linecap:butt;stroke-linejoin:miter;stroke:rgb(0%,0%,0%);stroke-opacity:1;stroke-miterlimit:10;" d="M 4.694844 28.345813 C 4.694844 30.939563 2.593281 33.045031 -0.00046875 33.045031 C -2.594219 33.045031 -4.695781 30.939563 -4.695781 28.345813 C -4.695781 25.752063 -2.594219 23.6505 -0.00046875 23.6505 C 2.593281 23.6505 4.694844 25.752063 4.694844 28.345813 Z M 4.694844 28.345813 " transform="matrix(1,0,0,-1,4.895,61.588)"/>
<path style="fill:none;stroke-width:0.3985;stroke-linecap:butt;stroke-linejoin:miter;stroke:rgb(0%,0%,0%);stroke-opacity:1;stroke-miterlimit:10;" d="M 4.694844 56.693469 C 4.694844 59.287219 2.593281 61.388781 -0.00046875 61.388781 C -2.594219 61.388781 -4.695781 59.287219 -4.695781 56.693469 C -4.695781 54.099719 -2.594219 51.998156 -0.00046875 51.998156 C 2.593281 51.998156 4.694844 54.099719 4.694844 56.693469 Z M 4.694844 56.693469 " transform="matrix(1,0,0,-1,4.895,61.588)"/>
<g clip-path="url(#clip2)" clip-rule="nonzero">
<path style="fill:none;stroke-width:0.3985;stroke-linecap:butt;stroke-linejoin:miter;stroke:rgb(0%,0%,0%);stroke-opacity:1;stroke-miterlimit:10;" d="M 33.0425 -0.00184375 C 33.0425 2.591906 30.940938 4.697375 28.347188 4.697375 C 25.753438 4.697375 23.651875 2.591906 23.651875 -0.00184375 C 23.651875 -2.595594 25.753438 -4.697156 28.347188 -4.697156 C 30.940938 -4.697156 33.0425 -2.595594 33.0425 -0.00184375 Z M 33.0425 -0.00184375 " transform="matrix(1,0,0,-1,4.895,61.588)"/>
</g>
<path style="fill:none;stroke-width:0.3985;stroke-linecap:butt;stroke-linejoin:miter;stroke:rgb(0%,0%,0%);stroke-opacity:1;stroke-miterlimit:10;" d="M 33.0425 28.345813 C 33.0425 30.939563 30.940938 33.045031 28.347188 33.045031 C 25.753438 33.045031 23.651875 30.939563 23.651875 28.345813 C 23.651875 25.752063 25.753438 23.6505 28.347188 23.6505 C 30.940938 23.6505 33.0425 25.752063 33.0425 28.345813 Z M 33.0425 28.345813 " transform="matrix(1,0,0,-1,4.895,61.588)"/>
<path style="fill:none;stroke-width:0.3985;stroke-linecap:butt;stroke-linejoin:miter;stroke:rgb(0%,0%,0%);stroke-opacity:1;stroke-miterlimit:10;" d="M 33.0425 56.693469 C 33.0425 59.287219 30.940938 61.388781 28.347188 61.388781 C 25.753438 61.388781 23.651875 59.287219 23.651875 56.693469 C 23.651875 54.099719 25.753438 51.998156 28.347188 51.998156 C 30.940938 51.998156 33.0425 54.099719 33.0425 56.693469 Z M 33.0425 56.693469 " transform="matrix(1,0,0,-1,4.895,61.588)"/>
<g clip-path="url(#clip3)" clip-rule="nonzero">
<path style="fill:none;stroke-width:0.3985;stroke-linecap:butt;stroke-linejoin:miter;stroke:rgb(0%,0%,0%);stroke-opacity:1;stroke-miterlimit:10;" d="M 61.390156 -0.00184375 C 61.390156 2.591906 59.288594 4.697375 56.694844 4.697375 C 54.101094 4.697375 51.995625 2.591906 51.995625 -0.00184375 C 51.995625 -2.595594 54.101094 -4.697156 56.694844 -4.697156 C 59.288594 -4.697156 61.390156 -2.595594 61.390156 -0.00184375 Z M 61.390156 -0.00184375 " transform="matrix(1,0,0,-1,4.895,61.588)"/>
</g>
<g clip-path="url(#clip4)" clip-rule="nonzero">
<path style="fill:none;stroke-width:0.3985;stroke-linecap:butt;stroke-linejoin:miter;stroke:rgb(0%,0%,0%);stroke-opacity:1;stroke-miterlimit:10;" d="M 61.390156 28.345813 C 61.390156 30.939563 59.288594 33.045031 56.694844 33.045031 C 54.101094 33.045031 51.995625 30.939563 51.995625 28.345813 C 51.995625 25.752063 54.101094 23.6505 56.694844 23.6505 C 59.288594 23.6505 61.390156 25.752063 61.390156 28.345813 Z M 61.390156 28.345813 " transform="matrix(1,0,0,-1,4.895,61.588)"/>
</g>
<g clip-path="url(#clip5)" clip-rule="nonzero">
<path style="fill:none;stroke-width:0.3985;stroke-linecap:butt;stroke-linejoin:miter;stroke:rgb(0%,0%,0%);stroke-opacity:1;stroke-miterlimit:10;" d="M 61.390156 56.693469 C 61.390156 59.287219 59.288594 61.388781 56.694844 61.388781 C 54.101094 61.388781 51.995625 59.287219 51.995625 56.693469 C 51.995625 54.099719 54.101094 51.998156 56.694844 51.998156 C 59.288594 51.998156 61.390156 54.099719 61.390156 56.693469 Z M 61.390156 56.693469 " transform="matrix(1,0,0,-1,4.895,61.588)"/>
</g>
<path style="fill:none;stroke-width:0.3985;stroke-linecap:butt;stroke-linejoin:miter;stroke:rgb(0%,0%,0%);stroke-opacity:1;stroke-miterlimit:10;" d="M -0.00046875 4.896594 L -0.00046875 23.451281 M -0.00046875 33.24425 L -0.00046875 51.798938 " transform="matrix(1,0,0,-1,4.895,61.588)"/>
<path style="fill:none;stroke-width:0.3985;stroke-linecap:butt;stroke-linejoin:miter;stroke:rgb(0%,0%,0%);stroke-opacity:1;stroke-miterlimit:10;" d="M 28.347188 4.896594 L 28.347188 23.451281 M 28.347188 33.24425 L 28.347188 51.798938 " transform="matrix(1,0,0,-1,4.895,61.588)"/>
<path style="fill:none;stroke-width:0.3985;stroke-linecap:butt;stroke-linejoin:miter;stroke:rgb(0%,0%,0%);stroke-opacity:1;stroke-miterlimit:10;" d="M 56.694844 4.896594 L 56.694844 23.451281 M 56.694844 33.24425 L 56.694844 51.798938 " transform="matrix(1,0,0,-1,4.895,61.588)"/>
<path style="fill:none;stroke-width:0.3985;stroke-linecap:butt;stroke-linejoin:miter;stroke:rgb(0%,0%,0%);stroke-opacity:1;stroke-miterlimit:10;" d="M 4.894063 -0.00184375 L 23.452656 -0.00184375 M 33.241719 -0.00184375 L 51.796406 -0.00184375 " transform="matrix(1,0,0,-1,4.895,61.588)"/>
<path style="fill:none;stroke-width:0.3985;stroke-linecap:butt;stroke-linejoin:miter;stroke:rgb(0%,0%,0%);stroke-opacity:1;stroke-miterlimit:10;" d="M 4.894063 28.345813 L 23.452656 28.345813 M 33.241719 28.345813 L 51.796406 28.345813 " transform="matrix(1,0,0,-1,4.895,61.588)"/>
<path style="fill:none;stroke-width:0.3985;stroke-linecap:butt;stroke-linejoin:miter;stroke:rgb(0%,0%,0%);stroke-opacity:1;stroke-miterlimit:10;" d="M 4.894063 56.693469 L 23.452656 56.693469 M 33.241719 56.693469 L 51.796406 56.693469 " transform="matrix(1,0,0,-1,4.895,61.588)"/>
<path style="fill:none;stroke-width:0.3985;stroke-linecap:butt;stroke-linejoin:miter;stroke:rgb(0%,0%,0%);stroke-opacity:1;stroke-miterlimit:10;" d="M 3.460469 3.463 L 24.88625 24.884875 M 31.808125 31.80675 L 53.23 53.232531 " transform="matrix(1,0,0,-1,4.895,61.588)"/>
<path style="fill:none;stroke-width:0.3985;stroke-linecap:butt;stroke-linejoin:miter;stroke:rgb(0%,0%,0%);stroke-opacity:1;stroke-miterlimit:10;" d="M 3.460469 53.232531 L 24.88625 31.80675 M 31.808125 24.884875 L 53.23 3.463 " transform="matrix(1,0,0,-1,4.895,61.588)"/>
</g>
</svg>
