<?xml version="1.0" encoding="utf-8"?>
<svg xmlns="http://www.w3.org/2000/svg" xmlns:xlink="http://www.w3.org/1999/xlink" width="600" height="400" viewBox="0 0 2400 1600">
<defs>
  <clipPath id="clip640">
    <rect x="0" y="0" width="2400" height="1600"/>
  </clipPath>
</defs>
<path clip-path="url(#clip640)" d="
M0 1600 L2400 1600 L2400 0 L0 0  Z
  " fill="#000000" fill-rule="evenodd" fill-opacity="0"/>
<defs>
  <clipPath id="clip641">
    <rect x="480" y="0" width="1681" height="1600"/>
  </clipPath>
</defs>
<defs>
  <clipPath id="clip642">
    <rect x="293" y="47" width="2060" height="1370"/>
  </clipPath>
</defs>
<path clip-path="url(#clip640)" d="
M266.496 1416.74 L2352.76 1416.74 L2352.76 47.2441 L266.496 47.2441  Z
  " fill="#000000" fill-rule="evenodd" fill-opacity="0"/>
<defs>
  <clipPath id="clip643">
    <rect x="266" y="47" width="2087" height="1370"/>
  </clipPath>
</defs>
<polyline clip-path="url(#clip640)" style="stroke:#000000; stroke-linecap:butt; stroke-linejoin:round; stroke-width:4; stroke-opacity:1; fill:none" points="
  266.496,1416.74 2352.76,1416.74 
  "/>
<polyline clip-path="url(#clip640)" style="stroke:#000000; stroke-linecap:butt; stroke-linejoin:round; stroke-width:4; stroke-opacity:1; fill:none" points="
  389.748,1416.74 389.748,1400.3 
  "/>
<polyline clip-path="url(#clip640)" style="stroke:#000000; stroke-linecap:butt; stroke-linejoin:round; stroke-width:4; stroke-opacity:1; fill:none" points="
  742.324,1416.74 742.324,1400.3 
  "/>
<polyline clip-path="url(#clip640)" style="stroke:#000000; stroke-linecap:butt; stroke-linejoin:round; stroke-width:4; stroke-opacity:1; fill:none" points="
  1094.9,1416.74 1094.9,1400.3 
  "/>
<polyline clip-path="url(#clip640)" style="stroke:#000000; stroke-linecap:butt; stroke-linejoin:round; stroke-width:4; stroke-opacity:1; fill:none" points="
  1447.48,1416.74 1447.48,1400.3 
  "/>
<polyline clip-path="url(#clip640)" style="stroke:#000000; stroke-linecap:butt; stroke-linejoin:round; stroke-width:4; stroke-opacity:1; fill:none" points="
  1800.05,1416.74 1800.05,1400.3 
  "/>
<polyline clip-path="url(#clip640)" style="stroke:#000000; stroke-linecap:butt; stroke-linejoin:round; stroke-width:4; stroke-opacity:1; fill:none" points="
  2152.63,1416.74 2152.63,1400.3 
  "/>
<path clip-path="url(#clip640)" d="M342.317 1473.47 L349.956 1473.47 L349.956 1447.11 L341.646 1448.77 L341.646 1444.52 L349.91 1442.85 L354.586 1442.85 L354.586 1473.47 L362.225 1473.47 L362.225 1477.41 L342.317 1477.41 L342.317 1473.47 Z" fill="#000000" fill-rule="evenodd" fill-opacity="1" /><path clip-path="url(#clip640)" d="M375.697 1473.47 L392.016 1473.47 L392.016 1477.41 L370.072 1477.41 L370.072 1473.47 Q372.734 1470.72 377.317 1466.09 Q381.924 1461.44 383.104 1460.09 Q385.35 1457.57 386.229 1455.83 Q387.132 1454.08 387.132 1452.39 Q387.132 1449.63 385.188 1447.89 Q383.266 1446.16 380.164 1446.16 Q377.965 1446.16 375.512 1446.92 Q373.081 1447.69 370.303 1449.24 L370.303 1444.52 Q373.127 1443.38 375.581 1442.8 Q378.035 1442.22 380.072 1442.22 Q385.442 1442.22 388.637 1444.91 Q391.831 1447.59 391.831 1452.08 Q391.831 1454.21 391.021 1456.14 Q390.234 1458.03 388.127 1460.63 Q387.549 1461.3 384.447 1464.52 Q381.345 1467.71 375.697 1473.47 Z" fill="#000000" fill-rule="evenodd" fill-opacity="1" /><path clip-path="url(#clip640)" d="M401.831 1471.53 L406.715 1471.53 L406.715 1477.41 L401.831 1477.41 L401.831 1471.53 Z" fill="#000000" fill-rule="evenodd" fill-opacity="1" /><path clip-path="url(#clip640)" d="M416.947 1442.85 L435.303 1442.85 L435.303 1446.78 L421.229 1446.78 L421.229 1455.26 Q422.248 1454.91 423.266 1454.75 Q424.285 1454.56 425.303 1454.56 Q431.09 1454.56 434.47 1457.73 Q437.849 1460.9 437.849 1466.32 Q437.849 1471.9 434.377 1475 Q430.905 1478.08 424.585 1478.08 Q422.41 1478.08 420.141 1477.71 Q417.896 1477.34 415.488 1476.6 L415.488 1471.9 Q417.572 1473.03 419.794 1473.59 Q422.016 1474.14 424.493 1474.14 Q428.498 1474.14 430.835 1472.04 Q433.173 1469.93 433.173 1466.32 Q433.173 1462.71 430.835 1460.6 Q428.498 1458.5 424.493 1458.5 Q422.618 1458.5 420.743 1458.91 Q418.891 1459.33 416.947 1460.21 L416.947 1442.85 Z" fill="#000000" fill-rule="evenodd" fill-opacity="1" /><path clip-path="url(#clip640)" d="M694.396 1473.47 L702.035 1473.47 L702.035 1447.11 L693.725 1448.77 L693.725 1444.52 L701.989 1442.85 L706.665 1442.85 L706.665 1473.47 L714.304 1473.47 L714.304 1477.41 L694.396 1477.41 L694.396 1473.47 Z" fill="#000000" fill-rule="evenodd" fill-opacity="1" /><path clip-path="url(#clip640)" d="M723.794 1442.85 L742.151 1442.85 L742.151 1446.78 L728.077 1446.78 L728.077 1455.26 Q729.095 1454.91 730.114 1454.75 Q731.132 1454.56 732.151 1454.56 Q737.938 1454.56 741.317 1457.73 Q744.697 1460.9 744.697 1466.32 Q744.697 1471.9 741.225 1475 Q737.753 1478.08 731.433 1478.08 Q729.257 1478.08 726.989 1477.71 Q724.743 1477.34 722.336 1476.6 L722.336 1471.9 Q724.419 1473.03 726.641 1473.59 Q728.864 1474.14 731.341 1474.14 Q735.345 1474.14 737.683 1472.04 Q740.021 1469.93 740.021 1466.32 Q740.021 1462.71 737.683 1460.6 Q735.345 1458.5 731.341 1458.5 Q729.466 1458.5 727.591 1458.91 Q725.739 1459.33 723.794 1460.21 L723.794 1442.85 Z" fill="#000000" fill-rule="evenodd" fill-opacity="1" /><path clip-path="url(#clip640)" d="M753.91 1471.53 L758.794 1471.53 L758.794 1477.41 L753.91 1477.41 L753.91 1471.53 Z" fill="#000000" fill-rule="evenodd" fill-opacity="1" /><path clip-path="url(#clip640)" d="M778.979 1445.93 Q775.368 1445.93 773.539 1449.49 Q771.734 1453.03 771.734 1460.16 Q771.734 1467.27 773.539 1470.83 Q775.368 1474.38 778.979 1474.38 Q782.613 1474.38 784.419 1470.83 Q786.248 1467.27 786.248 1460.16 Q786.248 1453.03 784.419 1449.49 Q782.613 1445.93 778.979 1445.93 M778.979 1442.22 Q784.789 1442.22 787.845 1446.83 Q790.924 1451.41 790.924 1460.16 Q790.924 1468.89 787.845 1473.5 Q784.789 1478.08 778.979 1478.08 Q773.169 1478.08 770.09 1473.5 Q767.035 1468.89 767.035 1460.16 Q767.035 1451.41 770.09 1446.83 Q773.169 1442.22 778.979 1442.22 Z" fill="#000000" fill-rule="evenodd" fill-opacity="1" /><path clip-path="url(#clip640)" d="M1047.47 1473.47 L1055.11 1473.47 L1055.11 1447.11 L1046.8 1448.77 L1046.8 1444.52 L1055.06 1442.85 L1059.74 1442.85 L1059.74 1473.47 L1067.38 1473.47 L1067.38 1477.41 L1047.47 1477.41 L1047.47 1473.47 Z" fill="#000000" fill-rule="evenodd" fill-opacity="1" /><path clip-path="url(#clip640)" d="M1075.64 1442.85 L1097.86 1442.85 L1097.86 1444.84 L1085.32 1477.41 L1080.43 1477.41 L1092.24 1446.78 L1075.64 1446.78 L1075.64 1442.85 Z" fill="#000000" fill-rule="evenodd" fill-opacity="1" /><path clip-path="url(#clip640)" d="M1106.98 1471.53 L1111.87 1471.53 L1111.87 1477.41 L1106.98 1477.41 L1106.98 1471.53 Z" fill="#000000" fill-rule="evenodd" fill-opacity="1" /><path clip-path="url(#clip640)" d="M1122.1 1442.85 L1140.46 1442.85 L1140.46 1446.78 L1126.38 1446.78 L1126.38 1455.26 Q1127.4 1454.91 1128.42 1454.75 Q1129.44 1454.56 1130.46 1454.56 Q1136.24 1454.56 1139.62 1457.73 Q1143 1460.9 1143 1466.32 Q1143 1471.9 1139.53 1475 Q1136.06 1478.08 1129.74 1478.08 Q1127.56 1478.08 1125.29 1477.71 Q1123.05 1477.34 1120.64 1476.6 L1120.64 1471.9 Q1122.72 1473.03 1124.95 1473.59 Q1127.17 1474.14 1129.65 1474.14 Q1133.65 1474.14 1135.99 1472.04 Q1138.33 1469.93 1138.33 1466.32 Q1138.33 1462.71 1135.99 1460.6 Q1133.65 1458.5 1129.65 1458.5 Q1127.77 1458.5 1125.9 1458.91 Q1124.04 1459.33 1122.1 1460.21 L1122.1 1442.85 Z" fill="#000000" fill-rule="evenodd" fill-opacity="1" /><path clip-path="url(#clip640)" d="M1403.64 1473.47 L1419.95 1473.47 L1419.95 1477.41 L1398.01 1477.41 L1398.01 1473.47 Q1400.67 1470.72 1405.26 1466.09 Q1409.86 1461.44 1411.04 1460.09 Q1413.29 1457.57 1414.17 1455.83 Q1415.07 1454.08 1415.07 1452.39 Q1415.07 1449.63 1413.13 1447.89 Q1411.2 1446.16 1408.1 1446.16 Q1405.9 1446.16 1403.45 1446.92 Q1401.02 1447.69 1398.24 1449.24 L1398.24 1444.52 Q1401.07 1443.38 1403.52 1442.8 Q1405.97 1442.22 1408.01 1442.22 Q1413.38 1442.22 1416.57 1444.91 Q1419.77 1447.59 1419.77 1452.08 Q1419.77 1454.21 1418.96 1456.14 Q1418.17 1458.03 1416.07 1460.63 Q1415.49 1461.3 1412.39 1464.52 Q1409.28 1467.71 1403.64 1473.47 Z" fill="#000000" fill-rule="evenodd" fill-opacity="1" /><path clip-path="url(#clip640)" d="M1439.77 1445.93 Q1436.16 1445.93 1434.33 1449.49 Q1432.52 1453.03 1432.52 1460.16 Q1432.52 1467.27 1434.33 1470.83 Q1436.16 1474.38 1439.77 1474.38 Q1443.4 1474.38 1445.21 1470.83 Q1447.04 1467.27 1447.04 1460.16 Q1447.04 1453.03 1445.21 1449.49 Q1443.4 1445.93 1439.77 1445.93 M1439.77 1442.22 Q1445.58 1442.22 1448.63 1446.83 Q1451.71 1451.41 1451.71 1460.16 Q1451.71 1468.89 1448.63 1473.5 Q1445.58 1478.08 1439.77 1478.08 Q1433.96 1478.08 1430.88 1473.5 Q1427.82 1468.89 1427.82 1460.16 Q1427.82 1451.41 1430.88 1446.83 Q1433.96 1442.22 1439.77 1442.22 Z" fill="#000000" fill-rule="evenodd" fill-opacity="1" /><path clip-path="url(#clip640)" d="M1459.93 1471.53 L1464.82 1471.53 L1464.82 1477.41 L1459.93 1477.41 L1459.93 1471.53 Z" fill="#000000" fill-rule="evenodd" fill-opacity="1" /><path clip-path="url(#clip640)" d="M1485 1445.93 Q1481.39 1445.93 1479.56 1449.49 Q1477.76 1453.03 1477.76 1460.16 Q1477.76 1467.27 1479.56 1470.83 Q1481.39 1474.38 1485 1474.38 Q1488.63 1474.38 1490.44 1470.83 Q1492.27 1467.27 1492.27 1460.16 Q1492.27 1453.03 1490.44 1449.49 Q1488.63 1445.93 1485 1445.93 M1485 1442.22 Q1490.81 1442.22 1493.87 1446.83 Q1496.94 1451.41 1496.94 1460.16 Q1496.94 1468.89 1493.87 1473.5 Q1490.81 1478.08 1485 1478.08 Q1479.19 1478.08 1476.11 1473.5 Q1473.06 1468.89 1473.06 1460.16 Q1473.06 1451.41 1476.11 1446.83 Q1479.19 1442.22 1485 1442.22 Z" fill="#000000" fill-rule="evenodd" fill-opacity="1" /><path clip-path="url(#clip640)" d="M1756.71 1473.47 L1773.03 1473.47 L1773.03 1477.41 L1751.08 1477.41 L1751.08 1473.47 Q1753.75 1470.72 1758.33 1466.09 Q1762.94 1461.44 1764.12 1460.09 Q1766.36 1457.57 1767.24 1455.83 Q1768.14 1454.08 1768.14 1452.39 Q1768.14 1449.63 1766.2 1447.89 Q1764.28 1446.16 1761.18 1446.16 Q1758.98 1446.16 1756.52 1446.92 Q1754.09 1447.69 1751.32 1449.24 L1751.32 1444.52 Q1754.14 1443.38 1756.59 1442.8 Q1759.05 1442.22 1761.08 1442.22 Q1766.45 1442.22 1769.65 1444.91 Q1772.84 1447.59 1772.84 1452.08 Q1772.84 1454.21 1772.03 1456.14 Q1771.25 1458.03 1769.14 1460.63 Q1768.56 1461.3 1765.46 1464.52 Q1762.36 1467.71 1756.71 1473.47 Z" fill="#000000" fill-rule="evenodd" fill-opacity="1" /><path clip-path="url(#clip640)" d="M1786.87 1473.47 L1803.19 1473.47 L1803.19 1477.41 L1781.25 1477.41 L1781.25 1473.47 Q1783.91 1470.72 1788.49 1466.09 Q1793.1 1461.44 1794.28 1460.09 Q1796.52 1457.57 1797.4 1455.83 Q1798.31 1454.08 1798.31 1452.39 Q1798.31 1449.63 1796.36 1447.89 Q1794.44 1446.16 1791.34 1446.16 Q1789.14 1446.16 1786.69 1446.92 Q1784.26 1447.69 1781.48 1449.24 L1781.48 1444.52 Q1784.3 1443.38 1786.76 1442.8 Q1789.21 1442.22 1791.25 1442.22 Q1796.62 1442.22 1799.81 1444.91 Q1803.01 1447.59 1803.01 1452.08 Q1803.01 1454.21 1802.2 1456.14 Q1801.41 1458.03 1799.3 1460.63 Q1798.72 1461.3 1795.62 1464.52 Q1792.52 1467.71 1786.87 1473.47 Z" fill="#000000" fill-rule="evenodd" fill-opacity="1" /><path clip-path="url(#clip640)" d="M1813.01 1471.53 L1817.89 1471.53 L1817.89 1477.41 L1813.01 1477.41 L1813.01 1471.53 Z" fill="#000000" fill-rule="evenodd" fill-opacity="1" /><path clip-path="url(#clip640)" d="M1828.12 1442.85 L1846.48 1442.85 L1846.48 1446.78 L1832.4 1446.78 L1832.4 1455.26 Q1833.42 1454.91 1834.44 1454.75 Q1835.46 1454.56 1836.48 1454.56 Q1842.26 1454.56 1845.64 1457.73 Q1849.02 1460.9 1849.02 1466.32 Q1849.02 1471.9 1845.55 1475 Q1842.08 1478.08 1835.76 1478.08 Q1833.58 1478.08 1831.32 1477.71 Q1829.07 1477.34 1826.66 1476.6 L1826.66 1471.9 Q1828.75 1473.03 1830.97 1473.59 Q1833.19 1474.14 1835.67 1474.14 Q1839.67 1474.14 1842.01 1472.04 Q1844.35 1469.93 1844.35 1466.32 Q1844.35 1462.71 1842.01 1460.6 Q1839.67 1458.5 1835.67 1458.5 Q1833.79 1458.5 1831.92 1458.91 Q1830.07 1459.33 1828.12 1460.21 L1828.12 1442.85 Z" fill="#000000" fill-rule="evenodd" fill-opacity="1" /><path clip-path="url(#clip640)" d="M2108.79 1473.47 L2125.11 1473.47 L2125.11 1477.41 L2103.16 1477.41 L2103.16 1473.47 Q2105.83 1470.72 2110.41 1466.09 Q2115.01 1461.44 2116.2 1460.09 Q2118.44 1457.57 2119.32 1455.83 Q2120.22 1454.08 2120.22 1452.39 Q2120.22 1449.63 2118.28 1447.89 Q2116.36 1446.16 2113.26 1446.16 Q2111.06 1446.16 2108.6 1446.92 Q2106.17 1447.69 2103.39 1449.24 L2103.39 1444.52 Q2106.22 1443.38 2108.67 1442.8 Q2111.13 1442.22 2113.16 1442.22 Q2118.53 1442.22 2121.73 1444.91 Q2124.92 1447.59 2124.92 1452.08 Q2124.92 1454.21 2124.11 1456.14 Q2123.33 1458.03 2121.22 1460.63 Q2120.64 1461.3 2117.54 1464.52 Q2114.44 1467.71 2108.79 1473.47 Z" fill="#000000" fill-rule="evenodd" fill-opacity="1" /><path clip-path="url(#clip640)" d="M2134.97 1442.85 L2153.32 1442.85 L2153.32 1446.78 L2139.25 1446.78 L2139.25 1455.26 Q2140.27 1454.91 2141.29 1454.75 Q2142.31 1454.56 2143.33 1454.56 Q2149.11 1454.56 2152.49 1457.73 Q2155.87 1460.9 2155.87 1466.32 Q2155.87 1471.9 2152.4 1475 Q2148.93 1478.08 2142.61 1478.08 Q2140.43 1478.08 2138.16 1477.71 Q2135.92 1477.34 2133.51 1476.6 L2133.51 1471.9 Q2135.59 1473.03 2137.82 1473.59 Q2140.04 1474.14 2142.51 1474.14 Q2146.52 1474.14 2148.86 1472.04 Q2151.2 1469.93 2151.2 1466.32 Q2151.2 1462.71 2148.86 1460.6 Q2146.52 1458.5 2142.51 1458.5 Q2140.64 1458.5 2138.76 1458.91 Q2136.91 1459.33 2134.97 1460.21 L2134.97 1442.85 Z" fill="#000000" fill-rule="evenodd" fill-opacity="1" /><path clip-path="url(#clip640)" d="M2165.08 1471.53 L2169.97 1471.53 L2169.97 1477.41 L2165.08 1477.41 L2165.08 1471.53 Z" fill="#000000" fill-rule="evenodd" fill-opacity="1" /><path clip-path="url(#clip640)" d="M2190.15 1445.93 Q2186.54 1445.93 2184.71 1449.49 Q2182.91 1453.03 2182.91 1460.16 Q2182.91 1467.27 2184.71 1470.83 Q2186.54 1474.38 2190.15 1474.38 Q2193.79 1474.38 2195.59 1470.83 Q2197.42 1467.27 2197.42 1460.16 Q2197.42 1453.03 2195.59 1449.49 Q2193.79 1445.93 2190.15 1445.93 M2190.15 1442.22 Q2195.96 1442.22 2199.02 1446.83 Q2202.1 1451.41 2202.1 1460.16 Q2202.1 1468.89 2199.02 1473.5 Q2195.96 1478.08 2190.15 1478.08 Q2184.34 1478.08 2181.26 1473.5 Q2178.21 1468.89 2178.21 1460.16 Q2178.21 1451.41 2181.26 1446.83 Q2184.34 1442.22 2190.15 1442.22 Z" fill="#000000" fill-rule="evenodd" fill-opacity="1" /><path clip-path="url(#clip640)" d="M1204.39 1554.17 L1204.39 1551.59 Q1208.86 1551.59 1209.88 1551.05 Q1210.91 1550.48 1210.91 1547.78 L1210.91 1504.12 Q1210.91 1501.01 1209.8 1500.23 Q1208.73 1499.45 1204.39 1499.45 L1204.39 1496.83 L1216.44 1495.92 L1216.44 1547.78 Q1216.44 1550.48 1217.51 1551.05 Q1218.57 1551.59 1223 1551.59 L1223 1554.17 Q1221.97 1554.17 1219.84 1554.09 Q1217.71 1554.01 1216.15 1553.96 Q1214.6 1553.92 1213.69 1553.92 Q1212.71 1553.92 1204.39 1554.17 Z" fill="#000000" fill-rule="evenodd" fill-opacity="1" /><path clip-path="url(#clip640)" d="M1232.94 1549.66 Q1227.41 1544.17 1227.41 1536.22 Q1227.41 1528.22 1232.82 1522.4 Q1238.27 1516.54 1246.06 1516.54 Q1253.68 1516.54 1259.13 1522.36 Q1264.63 1528.14 1264.63 1536.22 Q1264.63 1544.13 1259.09 1549.62 Q1253.6 1555.11 1245.97 1555.11 Q1238.51 1555.11 1232.94 1549.66 M1234.37 1535.52 Q1234.37 1543.68 1236.51 1547.37 Q1239.79 1552.98 1246.06 1552.98 Q1249.17 1552.98 1251.75 1551.3 Q1254.38 1549.62 1255.81 1546.79 Q1257.66 1543.1 1257.66 1535.52 Q1257.66 1527.44 1255.44 1523.88 Q1252.16 1518.43 1245.97 1518.43 Q1243.27 1518.43 1240.61 1519.86 Q1237.98 1521.26 1236.38 1524.04 Q1234.37 1527.73 1234.37 1535.52 Z" fill="#000000" fill-rule="evenodd" fill-opacity="1" /><path clip-path="url(#clip640)" d="M1268.98 1560.81 Q1268.98 1558.1 1271.03 1555.77 Q1273.12 1553.43 1276.72 1552.41 Q1273.04 1550.07 1273.04 1544.95 Q1273.04 1541.01 1275.62 1537.98 Q1271.68 1534.7 1271.68 1529.33 Q1271.68 1524.37 1275.62 1520.72 Q1279.55 1517.07 1285.29 1517.07 Q1290.33 1517.07 1294.19 1520.11 Q1298.2 1516.17 1303.08 1516.13 Q1305.25 1516.13 1306.28 1517.48 Q1307.34 1518.84 1307.34 1520.27 Q1307.34 1521.54 1306.52 1522.16 Q1305.74 1522.77 1304.92 1522.77 Q1303.9 1522.77 1303.16 1522.12 Q1302.47 1521.42 1302.47 1520.35 Q1302.47 1518.59 1303.82 1518.06 Q1303.57 1517.98 1303 1517.98 Q1298.9 1517.98 1295.42 1521.26 Q1298.86 1524.45 1298.86 1529.41 Q1298.86 1534.37 1294.92 1538.02 Q1290.99 1541.67 1285.29 1541.67 Q1280.58 1541.67 1276.97 1539.04 Q1275.54 1540.73 1275.54 1543.02 Q1275.54 1545.11 1276.81 1546.75 Q1278.08 1548.39 1280 1548.64 Q1280.58 1548.72 1286.27 1548.72 Q1289.64 1548.72 1291.48 1548.8 Q1293.32 1548.88 1295.95 1549.46 Q1298.61 1549.99 1300.7 1551.05 Q1306.15 1554.09 1306.2 1560.65 Q1306.2 1565.44 1300.66 1568.43 Q1295.17 1571.47 1287.55 1571.47 Q1279.84 1571.47 1274.39 1568.39 Q1268.98 1565.36 1268.98 1560.81 M1273.36 1560.81 Q1273.36 1564.25 1277.42 1566.88 Q1281.48 1569.54 1287.63 1569.54 Q1293.65 1569.54 1297.71 1566.92 Q1301.81 1564.33 1301.81 1560.81 Q1301.81 1558.31 1300.37 1556.71 Q1298.94 1555.11 1295.99 1554.46 Q1293.08 1553.84 1291.03 1553.72 Q1288.98 1553.6 1285.21 1553.6 L1280.25 1553.6 Q1277.38 1553.76 1275.37 1555.85 Q1273.36 1557.94 1273.36 1560.81 M1277.95 1529.41 Q1277.95 1539.74 1285.29 1539.74 Q1288.98 1539.74 1291.23 1536.38 Q1292.59 1534.13 1292.59 1529.33 Q1292.59 1519 1285.29 1519 Q1281.6 1519 1279.31 1522.36 Q1277.95 1524.62 1277.95 1529.41 Z" fill="#000000" fill-rule="evenodd" fill-opacity="1" /><path clip-path="url(#clip640)" d="M1315.92 1577.43 Q1315.92 1576.37 1316.01 1576.05 Q1316.12 1575.73 1316.58 1575.25 L1327.86 1562.68 Q1334.03 1555.74 1334.03 1549.68 Q1334.03 1545.75 1331.96 1542.94 Q1329.92 1540.13 1326.16 1540.13 Q1323.58 1540.13 1321.4 1541.7 Q1319.22 1543.28 1318.22 1546.09 Q1318.39 1546.04 1318.99 1546.04 Q1320.45 1546.04 1321.26 1546.96 Q1322.09 1547.87 1322.09 1549.11 Q1322.09 1550.69 1321.06 1551.46 Q1320.05 1552.21 1319.05 1552.21 Q1318.65 1552.21 1318.1 1552.12 Q1317.59 1552.03 1316.75 1551.23 Q1315.92 1550.4 1315.92 1548.94 Q1315.92 1544.83 1319.02 1541.56 Q1322.15 1538.29 1326.91 1538.29 Q1332.3 1538.29 1335.83 1541.5 Q1339.39 1544.69 1339.39 1549.68 Q1339.39 1551.43 1338.85 1553.04 Q1338.33 1554.62 1337.61 1555.85 Q1336.92 1557.08 1335.03 1559.06 Q1333.14 1561.04 1331.62 1562.45 Q1330.1 1563.86 1326.68 1566.84 L1320.45 1572.89 L1331.04 1572.89 Q1336.21 1572.89 1336.61 1572.43 Q1337.18 1571.6 1337.9 1567.21 L1339.39 1567.21 L1337.73 1577.43 L1315.92 1577.43 Z" fill="#000000" fill-rule="evenodd" fill-opacity="1" /><path clip-path="url(#clip640)" d="M1418.79 1497.77 Q1418.79 1499.45 1417.35 1499.45 Q1412.72 1499.61 1410.84 1501.17 Q1408.99 1502.69 1408.3 1505.64 L1396.57 1552.41 Q1396.16 1553.88 1395.92 1554.05 Q1395.67 1554.17 1395.22 1554.17 Q1394.65 1554.17 1394.32 1553.88 Q1394.03 1553.6 1393.62 1552.57 L1372.72 1503.14 Q1372.55 1502.81 1372.35 1502.36 Q1372.14 1501.91 1371.98 1501.62 L1360.87 1545.93 Q1360.54 1547.2 1360.54 1547.86 Q1360.54 1549.46 1361.65 1550.48 Q1362.8 1551.46 1366.08 1551.59 Q1367.76 1551.59 1367.76 1552.49 Q1367.76 1554.17 1366.24 1554.17 Q1364.85 1554.17 1361.94 1554.05 Q1359.03 1553.92 1357.59 1553.92 Q1356.2 1553.92 1353.37 1554.05 Q1350.54 1554.17 1349.19 1554.17 Q1348.12 1554.17 1348.12 1553.23 Q1348.12 1552.49 1348.41 1552.12 Q1348.7 1551.71 1348.94 1551.67 Q1349.19 1551.59 1349.56 1551.59 Q1352.02 1551.51 1353.7 1551.01 Q1355.38 1550.52 1356.32 1549.58 Q1357.31 1548.64 1357.76 1547.69 Q1358.25 1546.71 1358.62 1545.27 L1369.85 1500.19 Q1369.85 1499.45 1364.15 1499.45 Q1363.17 1499.45 1362.76 1499.41 Q1362.39 1499.37 1362.1 1499.16 Q1361.81 1498.96 1361.81 1498.51 Q1361.81 1497.36 1362.31 1497.11 Q1362.8 1496.83 1364.23 1496.83 L1375.5 1496.83 Q1376.94 1496.83 1377.31 1497.07 Q1377.68 1497.28 1378.17 1498.42 L1396.74 1542.24 L1406.12 1504.9 Q1406.37 1504.16 1406.37 1503.14 Q1406.37 1501.5 1405.14 1500.51 Q1403.95 1499.49 1400.67 1499.45 Q1399.16 1499.45 1399.16 1498.51 Q1399.16 1497.73 1399.44 1497.36 Q1399.77 1496.95 1400.02 1496.91 Q1400.3 1496.83 1400.67 1496.83 Q1402.07 1496.83 1404.93 1496.95 Q1407.8 1497.07 1409.24 1497.07 Q1410.63 1497.07 1413.46 1496.95 Q1416.33 1496.83 1417.72 1496.83 Q1418.22 1496.83 1418.46 1497.07 Q1418.75 1497.28 1418.79 1497.52 L1418.79 1497.77 Z" fill="#000000" fill-rule="evenodd" fill-opacity="1" /><polyline clip-path="url(#clip640)" style="stroke:#000000; stroke-linecap:butt; stroke-linejoin:round; stroke-width:4; stroke-opacity:1; fill:none" points="
  266.496,1416.74 266.496,47.2441 
  "/>
<polyline clip-path="url(#clip640)" style="stroke:#000000; stroke-linecap:butt; stroke-linejoin:round; stroke-width:4; stroke-opacity:1; fill:none" points="
  266.496,1228.63 291.532,1228.63 
  "/>
<polyline clip-path="url(#clip640)" style="stroke:#000000; stroke-linecap:butt; stroke-linejoin:round; stroke-width:4; stroke-opacity:1; fill:none" points="
  266.496,1024.56 291.532,1024.56 
  "/>
<polyline clip-path="url(#clip640)" style="stroke:#000000; stroke-linecap:butt; stroke-linejoin:round; stroke-width:4; stroke-opacity:1; fill:none" points="
  266.496,820.484 291.532,820.484 
  "/>
<polyline clip-path="url(#clip640)" style="stroke:#000000; stroke-linecap:butt; stroke-linejoin:round; stroke-width:4; stroke-opacity:1; fill:none" points="
  266.496,616.41 291.532,616.41 
  "/>
<polyline clip-path="url(#clip640)" style="stroke:#000000; stroke-linecap:butt; stroke-linejoin:round; stroke-width:4; stroke-opacity:1; fill:none" points="
  266.496,412.335 291.532,412.335 
  "/>
<polyline clip-path="url(#clip640)" style="stroke:#000000; stroke-linecap:butt; stroke-linejoin:round; stroke-width:4; stroke-opacity:1; fill:none" points="
  266.496,208.261 291.532,208.261 
  "/>
<path clip-path="url(#clip640)" d="M103.807 1241.98 L111.446 1241.98 L111.446 1215.61 L103.136 1217.28 L103.136 1213.02 L111.4 1211.35 L116.076 1211.35 L116.076 1241.98 L123.715 1241.98 L123.715 1245.91 L103.807 1245.91 L103.807 1241.98 Z" fill="#000000" fill-rule="evenodd" fill-opacity="1" /><path clip-path="url(#clip640)" d="M133.159 1240.03 L138.043 1240.03 L138.043 1245.91 L133.159 1245.91 L133.159 1240.03 Z" fill="#000000" fill-rule="evenodd" fill-opacity="1" /><path clip-path="url(#clip640)" d="M161.075 1215.43 L149.27 1233.88 L161.075 1233.88 L161.075 1215.43 M159.849 1211.35 L165.728 1211.35 L165.728 1233.88 L170.659 1233.88 L170.659 1237.76 L165.728 1237.76 L165.728 1245.91 L161.075 1245.91 L161.075 1237.76 L145.474 1237.76 L145.474 1233.25 L159.849 1211.35 Z" fill="#000000" fill-rule="evenodd" fill-opacity="1" /><path clip-path="url(#clip640)" d="M188.39 1214.43 Q184.779 1214.43 182.95 1218 Q181.145 1221.54 181.145 1228.67 Q181.145 1235.77 182.95 1239.34 Q184.779 1242.88 188.39 1242.88 Q192.024 1242.88 193.83 1239.34 Q195.659 1235.77 195.659 1228.67 Q195.659 1221.54 193.83 1218 Q192.024 1214.43 188.39 1214.43 M188.39 1210.73 Q194.2 1210.73 197.256 1215.33 Q200.335 1219.92 200.335 1228.67 Q200.335 1237.39 197.256 1242 Q194.2 1246.58 188.39 1246.58 Q182.58 1246.58 179.501 1242 Q176.446 1237.39 176.446 1228.67 Q176.446 1219.92 179.501 1215.33 Q182.58 1210.73 188.39 1210.73 Z" fill="#000000" fill-rule="evenodd" fill-opacity="1" /><path clip-path="url(#clip640)" d="M218.552 1214.43 Q214.941 1214.43 213.112 1218 Q211.307 1221.54 211.307 1228.67 Q211.307 1235.77 213.112 1239.34 Q214.941 1242.88 218.552 1242.88 Q222.186 1242.88 223.992 1239.34 Q225.821 1235.77 225.821 1228.67 Q225.821 1221.54 223.992 1218 Q222.186 1214.43 218.552 1214.43 M218.552 1210.73 Q224.362 1210.73 227.418 1215.33 Q230.496 1219.92 230.496 1228.67 Q230.496 1237.39 227.418 1242 Q224.362 1246.58 218.552 1246.58 Q212.742 1246.58 209.663 1242 Q206.608 1237.39 206.608 1228.67 Q206.608 1219.92 209.663 1215.33 Q212.742 1210.73 218.552 1210.73 Z" fill="#000000" fill-rule="evenodd" fill-opacity="1" /><path clip-path="url(#clip640)" d="M104.803 1037.9 L112.441 1037.9 L112.441 1011.54 L104.131 1013.2 L104.131 1008.95 L112.395 1007.28 L117.071 1007.28 L117.071 1037.9 L124.71 1037.9 L124.71 1041.84 L104.803 1041.84 L104.803 1037.9 Z" fill="#000000" fill-rule="evenodd" fill-opacity="1" /><path clip-path="url(#clip640)" d="M134.154 1035.96 L139.039 1035.96 L139.039 1041.84 L134.154 1041.84 L134.154 1035.96 Z" fill="#000000" fill-rule="evenodd" fill-opacity="1" /><path clip-path="url(#clip640)" d="M162.071 1011.35 L150.265 1029.8 L162.071 1029.8 L162.071 1011.35 M160.844 1007.28 L166.724 1007.28 L166.724 1029.8 L171.654 1029.8 L171.654 1033.69 L166.724 1033.69 L166.724 1041.84 L162.071 1041.84 L162.071 1033.69 L146.469 1033.69 L146.469 1029.18 L160.844 1007.28 Z" fill="#000000" fill-rule="evenodd" fill-opacity="1" /><path clip-path="url(#clip640)" d="M183.413 1037.9 L199.733 1037.9 L199.733 1041.84 L177.788 1041.84 L177.788 1037.9 Q180.45 1035.15 185.034 1030.52 Q189.64 1025.87 190.821 1024.52 Q193.066 1022 193.946 1020.26 Q194.848 1018.51 194.848 1016.82 Q194.848 1014.06 192.904 1012.32 Q190.983 1010.59 187.881 1010.59 Q185.682 1010.59 183.228 1011.35 Q180.798 1012.12 178.02 1013.67 L178.02 1008.95 Q180.844 1007.81 183.298 1007.23 Q185.751 1006.65 187.788 1006.65 Q193.159 1006.65 196.353 1009.34 Q199.548 1012.02 199.548 1016.51 Q199.548 1018.64 198.737 1020.57 Q197.95 1022.46 195.844 1025.06 Q195.265 1025.73 192.163 1028.95 Q189.061 1032.14 183.413 1037.9 Z" fill="#000000" fill-rule="evenodd" fill-opacity="1" /><path clip-path="url(#clip640)" d="M209.594 1007.28 L227.95 1007.28 L227.95 1011.21 L213.876 1011.21 L213.876 1019.69 Q214.895 1019.34 215.913 1019.18 Q216.932 1018.99 217.95 1018.99 Q223.737 1018.99 227.117 1022.16 Q230.496 1025.33 230.496 1030.75 Q230.496 1036.33 227.024 1039.43 Q223.552 1042.51 217.233 1042.51 Q215.057 1042.51 212.788 1042.14 Q210.543 1041.77 208.135 1041.03 L208.135 1036.33 Q210.219 1037.46 212.441 1038.02 Q214.663 1038.57 217.14 1038.57 Q221.145 1038.57 223.483 1036.47 Q225.821 1034.36 225.821 1030.75 Q225.821 1027.14 223.483 1025.03 Q221.145 1022.93 217.14 1022.93 Q215.265 1022.93 213.39 1023.34 Q211.538 1023.76 209.594 1024.64 L209.594 1007.28 Z" fill="#000000" fill-rule="evenodd" fill-opacity="1" /><path clip-path="url(#clip640)" d="M103.807 833.829 L111.446 833.829 L111.446 807.463 L103.136 809.13 L103.136 804.871 L111.4 803.204 L116.076 803.204 L116.076 833.829 L123.715 833.829 L123.715 837.764 L103.807 837.764 L103.807 833.829 Z" fill="#000000" fill-rule="evenodd" fill-opacity="1" /><path clip-path="url(#clip640)" d="M133.159 831.885 L138.043 831.885 L138.043 837.764 L133.159 837.764 L133.159 831.885 Z" fill="#000000" fill-rule="evenodd" fill-opacity="1" /><path clip-path="url(#clip640)" d="M161.075 807.278 L149.27 825.727 L161.075 825.727 L161.075 807.278 M159.849 803.204 L165.728 803.204 L165.728 825.727 L170.659 825.727 L170.659 829.616 L165.728 829.616 L165.728 837.764 L161.075 837.764 L161.075 829.616 L145.474 829.616 L145.474 825.102 L159.849 803.204 Z" fill="#000000" fill-rule="evenodd" fill-opacity="1" /><path clip-path="url(#clip640)" d="M178.437 803.204 L196.793 803.204 L196.793 807.139 L182.719 807.139 L182.719 815.612 Q183.737 815.264 184.756 815.102 Q185.774 814.917 186.793 814.917 Q192.58 814.917 195.96 818.088 Q199.339 821.26 199.339 826.676 Q199.339 832.255 195.867 835.357 Q192.395 838.436 186.075 838.436 Q183.899 838.436 181.631 838.065 Q179.386 837.695 176.978 836.954 L176.978 832.255 Q179.062 833.389 181.284 833.945 Q183.506 834.5 185.983 834.5 Q189.987 834.5 192.325 832.394 Q194.663 830.287 194.663 826.676 Q194.663 823.065 192.325 820.959 Q189.987 818.852 185.983 818.852 Q184.108 818.852 182.233 819.269 Q180.381 819.686 178.437 820.565 L178.437 803.204 Z" fill="#000000" fill-rule="evenodd" fill-opacity="1" /><path clip-path="url(#clip640)" d="M218.552 806.283 Q214.941 806.283 213.112 809.848 Q211.307 813.389 211.307 820.519 Q211.307 827.625 213.112 831.19 Q214.941 834.732 218.552 834.732 Q222.186 834.732 223.992 831.19 Q225.821 827.625 225.821 820.519 Q225.821 813.389 223.992 809.848 Q222.186 806.283 218.552 806.283 M218.552 802.579 Q224.362 802.579 227.418 807.186 Q230.496 811.769 230.496 820.519 Q230.496 829.246 227.418 833.852 Q224.362 838.436 218.552 838.436 Q212.742 838.436 209.663 833.852 Q206.608 829.246 206.608 820.519 Q206.608 811.769 209.663 807.186 Q212.742 802.579 218.552 802.579 Z" fill="#000000" fill-rule="evenodd" fill-opacity="1" /><path clip-path="url(#clip640)" d="M104.803 629.755 L112.441 629.755 L112.441 603.389 L104.131 605.056 L104.131 600.796 L112.395 599.13 L117.071 599.13 L117.071 629.755 L124.71 629.755 L124.71 633.69 L104.803 633.69 L104.803 629.755 Z" fill="#000000" fill-rule="evenodd" fill-opacity="1" /><path clip-path="url(#clip640)" d="M134.154 627.81 L139.039 627.81 L139.039 633.69 L134.154 633.69 L134.154 627.81 Z" fill="#000000" fill-rule="evenodd" fill-opacity="1" /><path clip-path="url(#clip640)" d="M162.071 603.204 L150.265 621.653 L162.071 621.653 L162.071 603.204 M160.844 599.13 L166.724 599.13 L166.724 621.653 L171.654 621.653 L171.654 625.542 L166.724 625.542 L166.724 633.69 L162.071 633.69 L162.071 625.542 L146.469 625.542 L146.469 621.028 L160.844 599.13 Z" fill="#000000" fill-rule="evenodd" fill-opacity="1" /><path clip-path="url(#clip640)" d="M178.205 599.13 L200.427 599.13 L200.427 601.121 L187.881 633.69 L182.997 633.69 L194.802 603.065 L178.205 603.065 L178.205 599.13 Z" fill="#000000" fill-rule="evenodd" fill-opacity="1" /><path clip-path="url(#clip640)" d="M209.594 599.13 L227.95 599.13 L227.95 603.065 L213.876 603.065 L213.876 611.537 Q214.895 611.19 215.913 611.028 Q216.932 610.843 217.95 610.843 Q223.737 610.843 227.117 614.014 Q230.496 617.185 230.496 622.602 Q230.496 628.181 227.024 631.282 Q223.552 634.361 217.233 634.361 Q215.057 634.361 212.788 633.991 Q210.543 633.62 208.135 632.88 L208.135 628.181 Q210.219 629.315 212.441 629.87 Q214.663 630.426 217.14 630.426 Q221.145 630.426 223.483 628.319 Q225.821 626.213 225.821 622.602 Q225.821 618.991 223.483 616.884 Q221.145 614.778 217.14 614.778 Q215.265 614.778 213.39 615.195 Q211.538 615.611 209.594 616.491 L209.594 599.13 Z" fill="#000000" fill-rule="evenodd" fill-opacity="1" /><path clip-path="url(#clip640)" d="M103.807 425.68 L111.446 425.68 L111.446 399.315 L103.136 400.981 L103.136 396.722 L111.4 395.055 L116.076 395.055 L116.076 425.68 L123.715 425.68 L123.715 429.615 L103.807 429.615 L103.807 425.68 Z" fill="#000000" fill-rule="evenodd" fill-opacity="1" /><path clip-path="url(#clip640)" d="M133.159 423.736 L138.043 423.736 L138.043 429.615 L133.159 429.615 L133.159 423.736 Z" fill="#000000" fill-rule="evenodd" fill-opacity="1" /><path clip-path="url(#clip640)" d="M148.275 395.055 L166.631 395.055 L166.631 398.991 L152.557 398.991 L152.557 407.463 Q153.576 407.116 154.594 406.954 Q155.613 406.768 156.631 406.768 Q162.418 406.768 165.798 409.94 Q169.177 413.111 169.177 418.528 Q169.177 424.106 165.705 427.208 Q162.233 430.287 155.913 430.287 Q153.738 430.287 151.469 429.916 Q149.224 429.546 146.816 428.805 L146.816 424.106 Q148.9 425.24 151.122 425.796 Q153.344 426.352 155.821 426.352 Q159.826 426.352 162.163 424.245 Q164.501 422.139 164.501 418.528 Q164.501 414.916 162.163 412.81 Q159.826 410.703 155.821 410.703 Q153.946 410.703 152.071 411.12 Q150.219 411.537 148.275 412.416 L148.275 395.055 Z" fill="#000000" fill-rule="evenodd" fill-opacity="1" /><path clip-path="url(#clip640)" d="M188.39 398.134 Q184.779 398.134 182.95 401.699 Q181.145 405.241 181.145 412.37 Q181.145 419.477 182.95 423.041 Q184.779 426.583 188.39 426.583 Q192.024 426.583 193.83 423.041 Q195.659 419.477 195.659 412.37 Q195.659 405.241 193.83 401.699 Q192.024 398.134 188.39 398.134 M188.39 394.43 Q194.2 394.43 197.256 399.037 Q200.335 403.62 200.335 412.37 Q200.335 421.097 197.256 425.703 Q194.2 430.287 188.39 430.287 Q182.58 430.287 179.501 425.703 Q176.446 421.097 176.446 412.37 Q176.446 403.62 179.501 399.037 Q182.58 394.43 188.39 394.43 Z" fill="#000000" fill-rule="evenodd" fill-opacity="1" /><path clip-path="url(#clip640)" d="M218.552 398.134 Q214.941 398.134 213.112 401.699 Q211.307 405.241 211.307 412.37 Q211.307 419.477 213.112 423.041 Q214.941 426.583 218.552 426.583 Q222.186 426.583 223.992 423.041 Q225.821 419.477 225.821 412.37 Q225.821 405.241 223.992 401.699 Q222.186 398.134 218.552 398.134 M218.552 394.43 Q224.362 394.43 227.418 399.037 Q230.496 403.62 230.496 412.37 Q230.496 421.097 227.418 425.703 Q224.362 430.287 218.552 430.287 Q212.742 430.287 209.663 425.703 Q206.608 421.097 206.608 412.37 Q206.608 403.62 209.663 399.037 Q212.742 394.43 218.552 394.43 Z" fill="#000000" fill-rule="evenodd" fill-opacity="1" /><path clip-path="url(#clip640)" d="M104.803 221.606 L112.441 221.606 L112.441 195.24 L104.131 196.907 L104.131 192.648 L112.395 190.981 L117.071 190.981 L117.071 221.606 L124.71 221.606 L124.71 225.541 L104.803 225.541 L104.803 221.606 Z" fill="#000000" fill-rule="evenodd" fill-opacity="1" /><path clip-path="url(#clip640)" d="M134.154 219.661 L139.039 219.661 L139.039 225.541 L134.154 225.541 L134.154 219.661 Z" fill="#000000" fill-rule="evenodd" fill-opacity="1" /><path clip-path="url(#clip640)" d="M149.27 190.981 L167.626 190.981 L167.626 194.916 L153.552 194.916 L153.552 203.388 Q154.571 203.041 155.589 202.879 Q156.608 202.694 157.626 202.694 Q163.413 202.694 166.793 205.865 Q170.173 209.036 170.173 214.453 Q170.173 220.032 166.7 223.134 Q163.228 226.212 156.909 226.212 Q154.733 226.212 152.464 225.842 Q150.219 225.472 147.812 224.731 L147.812 220.032 Q149.895 221.166 152.117 221.722 Q154.339 222.277 156.816 222.277 Q160.821 222.277 163.159 220.171 Q165.497 218.064 165.497 214.453 Q165.497 210.842 163.159 208.736 Q160.821 206.629 156.816 206.629 Q154.941 206.629 153.066 207.046 Q151.214 207.462 149.27 208.342 L149.27 190.981 Z" fill="#000000" fill-rule="evenodd" fill-opacity="1" /><path clip-path="url(#clip640)" d="M183.413 221.606 L199.733 221.606 L199.733 225.541 L177.788 225.541 L177.788 221.606 Q180.45 218.851 185.034 214.222 Q189.64 209.569 190.821 208.226 Q193.066 205.703 193.946 203.967 Q194.848 202.208 194.848 200.518 Q194.848 197.763 192.904 196.027 Q190.983 194.291 187.881 194.291 Q185.682 194.291 183.228 195.055 Q180.798 195.819 178.02 197.37 L178.02 192.648 Q180.844 191.513 183.298 190.935 Q185.751 190.356 187.788 190.356 Q193.159 190.356 196.353 193.041 Q199.548 195.726 199.548 200.217 Q199.548 202.347 198.737 204.268 Q197.95 206.166 195.844 208.759 Q195.265 209.43 192.163 212.648 Q189.061 215.842 183.413 221.606 Z" fill="#000000" fill-rule="evenodd" fill-opacity="1" /><path clip-path="url(#clip640)" d="M209.594 190.981 L227.95 190.981 L227.95 194.916 L213.876 194.916 L213.876 203.388 Q214.895 203.041 215.913 202.879 Q216.932 202.694 217.95 202.694 Q223.737 202.694 227.117 205.865 Q230.496 209.036 230.496 214.453 Q230.496 220.032 227.024 223.134 Q223.552 226.212 217.233 226.212 Q215.057 226.212 212.788 225.842 Q210.543 225.472 208.135 224.731 L208.135 220.032 Q210.219 221.166 212.441 221.722 Q214.663 222.277 217.14 222.277 Q221.145 222.277 223.483 220.171 Q225.821 218.064 225.821 214.453 Q225.821 210.842 223.483 208.736 Q221.145 206.629 217.14 206.629 Q215.265 206.629 213.39 207.046 Q211.538 207.462 209.594 208.342 L209.594 190.981 Z" fill="#000000" fill-rule="evenodd" fill-opacity="1" /><path clip-path="url(#clip640)" d="M19.4032 709.443 Q19.7311 709.443 22.6004 711.041 Q27.888 713.706 35.9629 717.108 Q44.0378 720.51 50.0222 722.436 Q51.4568 722.846 53.3014 723.133 Q58.9579 723.871 67.7296 726.248 Q70.4759 727.068 71.6236 727.601 Q72.7713 728.134 72.7713 728.913 Q72.7713 730.019 71.2547 730.019 Q69.7381 730.019 64.0815 728.626 Q58.425 727.191 53.2194 725.633 Q50.3501 724.65 44.9805 724.65 Q43.259 724.65 41.7014 724.732 Q40.1438 724.814 37.8894 725.142 Q35.635 725.47 33.7905 726.002 Q31.946 726.535 30.0195 727.56 Q28.052 728.585 26.7403 729.978 Q25.3877 731.372 24.5269 733.503 Q23.6661 735.594 23.6661 738.217 Q23.6661 738.873 23.7481 739.693 Q23.7891 740.472 24.3219 742.357 Q24.8548 744.202 25.7976 745.759 Q26.6993 747.317 28.7078 748.997 Q30.7163 750.678 33.4216 751.58 L33.8315 751.908 Q33.8315 752.44 33.8315 752.727 Q33.7905 752.973 33.5855 753.26 Q33.3806 753.506 33.0117 753.506 Q32.1509 753.506 30.4293 752.85 Q28.7078 752.154 26.4944 750.76 Q24.281 749.325 22.3135 747.481 Q20.346 745.595 18.9933 742.849 Q17.6407 740.103 17.6407 737.151 Q17.6407 729.568 26.8633 725.961 Q34.6922 722.805 43.9968 722.518 Q27.4781 715.96 19.1573 711.451 Q18.5425 711.205 18.5425 710.467 Q18.5834 709.443 19.4032 709.443 Z" fill="#000000" fill-rule="evenodd" fill-opacity="1" /><polyline clip-path="url(#clip643)" style="stroke:#000000; stroke-linecap:butt; stroke-linejoin:round; stroke-width:4; stroke-opacity:1; fill:none" points="
  2011.7,319.807 2011.7,292.751 
  "/>
<polyline clip-path="url(#clip643)" style="stroke:#000000; stroke-linecap:butt; stroke-linejoin:round; stroke-width:4; stroke-opacity:1; fill:none" points="
  325.541,1377.98 325.541,1084.69 
  "/>
<polyline clip-path="url(#clip643)" style="stroke:#000000; stroke-linecap:butt; stroke-linejoin:round; stroke-width:4; stroke-opacity:1; fill:none" points="
  1729.74,383.439 1729.74,346.121 
  "/>
<polyline clip-path="url(#clip643)" style="stroke:#000000; stroke-linecap:butt; stroke-linejoin:round; stroke-width:4; stroke-opacity:1; fill:none" points="
  1166.21,604.533 1166.21,526.554 
  "/>
<polyline clip-path="url(#clip643)" style="stroke:#000000; stroke-linecap:butt; stroke-linejoin:round; stroke-width:4; stroke-opacity:1; fill:none" points="
  604.46,1241.6 604.46,1060.71 
  "/>
<polyline clip-path="url(#clip643)" style="stroke:#000000; stroke-linecap:butt; stroke-linejoin:round; stroke-width:4; stroke-opacity:1; fill:none" points="
  1447.87,494.811 1447.87,441.478 
  "/>
<polyline clip-path="url(#clip643)" style="stroke:#000000; stroke-linecap:butt; stroke-linejoin:round; stroke-width:4; stroke-opacity:1; fill:none" points="
  2293.71,106.576 2293.71,86.0033 
  "/>
<polyline clip-path="url(#clip643)" style="stroke:#000000; stroke-linecap:butt; stroke-linejoin:round; stroke-width:4; stroke-opacity:1; fill:none" points="
  884.941,912.707 884.941,794.421 
  "/>
<line clip-path="url(#clip643)" x1="2027.7" y1="319.807" x2="1995.7" y2="319.807" style="stroke:#000000; stroke-width:3.2; stroke-opacity:1"/>
<line clip-path="url(#clip643)" x1="2027.7" y1="292.751" x2="1995.7" y2="292.751" style="stroke:#000000; stroke-width:3.2; stroke-opacity:1"/>
<line clip-path="url(#clip643)" x1="341.541" y1="1377.98" x2="309.541" y2="1377.98" style="stroke:#000000; stroke-width:3.2; stroke-opacity:1"/>
<line clip-path="url(#clip643)" x1="341.541" y1="1084.69" x2="309.541" y2="1084.69" style="stroke:#000000; stroke-width:3.2; stroke-opacity:1"/>
<line clip-path="url(#clip643)" x1="1745.74" y1="383.439" x2="1713.74" y2="383.439" style="stroke:#000000; stroke-width:3.2; stroke-opacity:1"/>
<line clip-path="url(#clip643)" x1="1745.74" y1="346.121" x2="1713.74" y2="346.121" style="stroke:#000000; stroke-width:3.2; stroke-opacity:1"/>
<line clip-path="url(#clip643)" x1="1182.21" y1="604.533" x2="1150.21" y2="604.533" style="stroke:#000000; stroke-width:3.2; stroke-opacity:1"/>
<line clip-path="url(#clip643)" x1="1182.21" y1="526.554" x2="1150.21" y2="526.554" style="stroke:#000000; stroke-width:3.2; stroke-opacity:1"/>
<line clip-path="url(#clip643)" x1="620.46" y1="1241.6" x2="588.46" y2="1241.6" style="stroke:#000000; stroke-width:3.2; stroke-opacity:1"/>
<line clip-path="url(#clip643)" x1="620.46" y1="1060.71" x2="588.46" y2="1060.71" style="stroke:#000000; stroke-width:3.2; stroke-opacity:1"/>
<line clip-path="url(#clip643)" x1="1463.87" y1="494.811" x2="1431.87" y2="494.811" style="stroke:#000000; stroke-width:3.2; stroke-opacity:1"/>
<line clip-path="url(#clip643)" x1="1463.87" y1="441.478" x2="1431.87" y2="441.478" style="stroke:#000000; stroke-width:3.2; stroke-opacity:1"/>
<line clip-path="url(#clip643)" x1="2309.71" y1="106.576" x2="2277.71" y2="106.576" style="stroke:#000000; stroke-width:3.2; stroke-opacity:1"/>
<line clip-path="url(#clip643)" x1="2309.71" y1="86.0033" x2="2277.71" y2="86.0033" style="stroke:#000000; stroke-width:3.2; stroke-opacity:1"/>
<line clip-path="url(#clip643)" x1="900.941" y1="912.707" x2="868.941" y2="912.707" style="stroke:#000000; stroke-width:3.2; stroke-opacity:1"/>
<line clip-path="url(#clip643)" x1="900.941" y1="794.421" x2="868.941" y2="794.421" style="stroke:#000000; stroke-width:3.2; stroke-opacity:1"/>
<line clip-path="url(#clip643)" x1="2027.7" y1="306.279" x2="1995.7" y2="306.279" style="stroke:#000000; stroke-width:3.2; stroke-opacity:1"/>
<line clip-path="url(#clip643)" x1="341.541" y1="1231.33" x2="309.541" y2="1231.33" style="stroke:#000000; stroke-width:3.2; stroke-opacity:1"/>
<line clip-path="url(#clip643)" x1="1745.74" y1="364.78" x2="1713.74" y2="364.78" style="stroke:#000000; stroke-width:3.2; stroke-opacity:1"/>
<line clip-path="url(#clip643)" x1="1182.21" y1="565.544" x2="1150.21" y2="565.544" style="stroke:#000000; stroke-width:3.2; stroke-opacity:1"/>
<line clip-path="url(#clip643)" x1="620.46" y1="1151.16" x2="588.46" y2="1151.16" style="stroke:#000000; stroke-width:3.2; stroke-opacity:1"/>
<line clip-path="url(#clip643)" x1="1463.87" y1="468.144" x2="1431.87" y2="468.144" style="stroke:#000000; stroke-width:3.2; stroke-opacity:1"/>
<line clip-path="url(#clip643)" x1="2309.71" y1="96.2899" x2="2277.71" y2="96.2899" style="stroke:#000000; stroke-width:3.2; stroke-opacity:1"/>
<line clip-path="url(#clip643)" x1="900.941" y1="853.564" x2="868.941" y2="853.564" style="stroke:#000000; stroke-width:3.2; stroke-opacity:1"/>
</svg>
