<?xml version="1.0" encoding="utf-8"?>
<svg xmlns="http://www.w3.org/2000/svg" xmlns:xlink="http://www.w3.org/1999/xlink" width="600" height="400" viewBox="0 0 2400 1600">
<defs>
  <clipPath id="clip610">
    <rect x="0" y="0" width="2400" height="1600"/>
  </clipPath>
</defs>
<path clip-path="url(#clip610)" d="
M0 1600 L2400 1600 L2400 0 L0 0  Z
  " fill="#000000" fill-rule="evenodd" fill-opacity="0"/>
<defs>
  <clipPath id="clip611">
    <rect x="480" y="0" width="1681" height="1600"/>
  </clipPath>
</defs>
<defs>
  <clipPath id="clip612">
    <rect x="296" y="47" width="2057" height="1370"/>
  </clipPath>
</defs>
<path clip-path="url(#clip610)" d="
M293.381 1416.74 L2352.76 1416.74 L2352.76 47.2441 L293.381 47.2441  Z
  " fill="#000000" fill-rule="evenodd" fill-opacity="0"/>
<defs>
  <clipPath id="clip613">
    <rect x="293" y="47" width="2060" height="1370"/>
  </clipPath>
</defs>
<polyline clip-path="url(#clip610)" style="stroke:#000000; stroke-linecap:butt; stroke-linejoin:round; stroke-width:4; stroke-opacity:1; fill:none" points="
  293.381,1416.74 2352.76,1416.74 
  "/>
<polyline clip-path="url(#clip610)" style="stroke:#000000; stroke-linecap:butt; stroke-linejoin:round; stroke-width:4; stroke-opacity:1; fill:none" points="
  415.044,1416.74 415.044,1400.3 
  "/>
<polyline clip-path="url(#clip610)" style="stroke:#000000; stroke-linecap:butt; stroke-linejoin:round; stroke-width:4; stroke-opacity:1; fill:none" points="
  763.077,1416.74 763.077,1400.3 
  "/>
<polyline clip-path="url(#clip610)" style="stroke:#000000; stroke-linecap:butt; stroke-linejoin:round; stroke-width:4; stroke-opacity:1; fill:none" points="
  1111.11,1416.74 1111.11,1400.3 
  "/>
<polyline clip-path="url(#clip610)" style="stroke:#000000; stroke-linecap:butt; stroke-linejoin:round; stroke-width:4; stroke-opacity:1; fill:none" points="
  1459.14,1416.74 1459.14,1400.3 
  "/>
<polyline clip-path="url(#clip610)" style="stroke:#000000; stroke-linecap:butt; stroke-linejoin:round; stroke-width:4; stroke-opacity:1; fill:none" points="
  1807.18,1416.74 1807.18,1400.3 
  "/>
<polyline clip-path="url(#clip610)" style="stroke:#000000; stroke-linecap:butt; stroke-linejoin:round; stroke-width:4; stroke-opacity:1; fill:none" points="
  2155.21,1416.74 2155.21,1400.3 
  "/>
<path clip-path="url(#clip610)" d="M367.614 1473.47 L375.253 1473.47 L375.253 1447.11 L366.943 1448.77 L366.943 1444.52 L375.207 1442.85 L379.883 1442.85 L379.883 1473.47 L387.521 1473.47 L387.521 1477.41 L367.614 1477.41 L367.614 1473.47 Z" fill="#000000" fill-rule="evenodd" fill-opacity="1" /><path clip-path="url(#clip610)" d="M400.994 1473.47 L417.313 1473.47 L417.313 1477.41 L395.369 1477.41 L395.369 1473.47 Q398.031 1470.72 402.614 1466.09 Q407.22 1461.44 408.401 1460.09 Q410.646 1457.57 411.526 1455.83 Q412.429 1454.08 412.429 1452.39 Q412.429 1449.63 410.484 1447.89 Q408.563 1446.16 405.461 1446.16 Q403.262 1446.16 400.808 1446.92 Q398.378 1447.69 395.6 1449.24 L395.6 1444.52 Q398.424 1443.38 400.878 1442.8 Q403.331 1442.22 405.369 1442.22 Q410.739 1442.22 413.933 1444.91 Q417.128 1447.59 417.128 1452.08 Q417.128 1454.21 416.318 1456.14 Q415.531 1458.03 413.424 1460.63 Q412.845 1461.3 409.743 1464.52 Q406.642 1467.71 400.994 1473.47 Z" fill="#000000" fill-rule="evenodd" fill-opacity="1" /><path clip-path="url(#clip610)" d="M427.128 1471.53 L432.012 1471.53 L432.012 1477.41 L427.128 1477.41 L427.128 1471.53 Z" fill="#000000" fill-rule="evenodd" fill-opacity="1" /><path clip-path="url(#clip610)" d="M442.243 1442.85 L460.6 1442.85 L460.6 1446.78 L446.526 1446.78 L446.526 1455.26 Q447.544 1454.91 448.563 1454.75 Q449.581 1454.56 450.6 1454.56 Q456.387 1454.56 459.766 1457.73 Q463.146 1460.9 463.146 1466.32 Q463.146 1471.9 459.674 1475 Q456.202 1478.08 449.882 1478.08 Q447.706 1478.08 445.438 1477.71 Q443.192 1477.34 440.785 1476.6 L440.785 1471.9 Q442.868 1473.03 445.091 1473.59 Q447.313 1474.14 449.79 1474.14 Q453.794 1474.14 456.132 1472.04 Q458.47 1469.93 458.47 1466.32 Q458.47 1462.71 456.132 1460.6 Q453.794 1458.5 449.79 1458.5 Q447.915 1458.5 446.04 1458.91 Q444.188 1459.33 442.243 1460.21 L442.243 1442.85 Z" fill="#000000" fill-rule="evenodd" fill-opacity="1" /><path clip-path="url(#clip610)" d="M715.149 1473.47 L722.788 1473.47 L722.788 1447.11 L714.478 1448.77 L714.478 1444.52 L722.742 1442.85 L727.418 1442.85 L727.418 1473.47 L735.057 1473.47 L735.057 1477.41 L715.149 1477.41 L715.149 1473.47 Z" fill="#000000" fill-rule="evenodd" fill-opacity="1" /><path clip-path="url(#clip610)" d="M744.547 1442.85 L762.904 1442.85 L762.904 1446.78 L748.83 1446.78 L748.83 1455.26 Q749.848 1454.91 750.867 1454.75 Q751.885 1454.56 752.904 1454.56 Q758.691 1454.56 762.07 1457.73 Q765.45 1460.9 765.45 1466.32 Q765.45 1471.9 761.978 1475 Q758.506 1478.08 752.186 1478.08 Q750.01 1478.08 747.742 1477.71 Q745.496 1477.34 743.089 1476.6 L743.089 1471.9 Q745.172 1473.03 747.395 1473.59 Q749.617 1474.14 752.094 1474.14 Q756.098 1474.14 758.436 1472.04 Q760.774 1469.93 760.774 1466.32 Q760.774 1462.71 758.436 1460.6 Q756.098 1458.5 752.094 1458.5 Q750.219 1458.5 748.344 1458.91 Q746.492 1459.33 744.547 1460.21 L744.547 1442.85 Z" fill="#000000" fill-rule="evenodd" fill-opacity="1" /><path clip-path="url(#clip610)" d="M774.663 1471.53 L779.547 1471.53 L779.547 1477.41 L774.663 1477.41 L774.663 1471.53 Z" fill="#000000" fill-rule="evenodd" fill-opacity="1" /><path clip-path="url(#clip610)" d="M799.732 1445.93 Q796.121 1445.93 794.293 1449.49 Q792.487 1453.03 792.487 1460.16 Q792.487 1467.27 794.293 1470.83 Q796.121 1474.38 799.732 1474.38 Q803.367 1474.38 805.172 1470.83 Q807.001 1467.27 807.001 1460.16 Q807.001 1453.03 805.172 1449.49 Q803.367 1445.93 799.732 1445.93 M799.732 1442.22 Q805.542 1442.22 808.598 1446.83 Q811.677 1451.41 811.677 1460.16 Q811.677 1468.89 808.598 1473.5 Q805.542 1478.08 799.732 1478.08 Q793.922 1478.08 790.843 1473.5 Q787.788 1468.89 787.788 1460.16 Q787.788 1451.41 790.843 1446.83 Q793.922 1442.22 799.732 1442.22 Z" fill="#000000" fill-rule="evenodd" fill-opacity="1" /><path clip-path="url(#clip610)" d="M1063.68 1473.47 L1071.32 1473.47 L1071.32 1447.11 L1063.01 1448.77 L1063.01 1444.52 L1071.27 1442.85 L1075.95 1442.85 L1075.95 1473.47 L1083.59 1473.47 L1083.59 1477.41 L1063.68 1477.41 L1063.68 1473.47 Z" fill="#000000" fill-rule="evenodd" fill-opacity="1" /><path clip-path="url(#clip610)" d="M1091.85 1442.85 L1114.07 1442.85 L1114.07 1444.84 L1101.53 1477.41 L1096.64 1477.41 L1108.45 1446.78 L1091.85 1446.78 L1091.85 1442.85 Z" fill="#000000" fill-rule="evenodd" fill-opacity="1" /><path clip-path="url(#clip610)" d="M1123.19 1471.53 L1128.08 1471.53 L1128.08 1477.41 L1123.19 1477.41 L1123.19 1471.53 Z" fill="#000000" fill-rule="evenodd" fill-opacity="1" /><path clip-path="url(#clip610)" d="M1138.31 1442.85 L1156.67 1442.85 L1156.67 1446.78 L1142.59 1446.78 L1142.59 1455.26 Q1143.61 1454.91 1144.63 1454.75 Q1145.65 1454.56 1146.67 1454.56 Q1152.45 1454.56 1155.83 1457.73 Q1159.21 1460.9 1159.21 1466.32 Q1159.21 1471.9 1155.74 1475 Q1152.27 1478.08 1145.95 1478.08 Q1143.77 1478.08 1141.5 1477.71 Q1139.26 1477.34 1136.85 1476.6 L1136.85 1471.9 Q1138.93 1473.03 1141.16 1473.59 Q1143.38 1474.14 1145.86 1474.14 Q1149.86 1474.14 1152.2 1472.04 Q1154.54 1469.93 1154.54 1466.32 Q1154.54 1462.71 1152.2 1460.6 Q1149.86 1458.5 1145.86 1458.5 Q1143.98 1458.5 1142.11 1458.91 Q1140.25 1459.33 1138.31 1460.21 L1138.31 1442.85 Z" fill="#000000" fill-rule="evenodd" fill-opacity="1" /><path clip-path="url(#clip610)" d="M1415.3 1473.47 L1431.62 1473.47 L1431.62 1477.41 L1409.68 1477.41 L1409.68 1473.47 Q1412.34 1470.72 1416.92 1466.09 Q1421.53 1461.44 1422.71 1460.09 Q1424.95 1457.57 1425.83 1455.83 Q1426.74 1454.08 1426.74 1452.39 Q1426.74 1449.63 1424.79 1447.89 Q1422.87 1446.16 1419.77 1446.16 Q1417.57 1446.16 1415.12 1446.92 Q1412.69 1447.69 1409.91 1449.24 L1409.91 1444.52 Q1412.73 1443.38 1415.19 1442.8 Q1417.64 1442.22 1419.68 1442.22 Q1425.05 1442.22 1428.24 1444.91 Q1431.44 1447.59 1431.44 1452.08 Q1431.44 1454.21 1430.63 1456.14 Q1429.84 1458.03 1427.73 1460.63 Q1427.15 1461.3 1424.05 1464.52 Q1420.95 1467.71 1415.3 1473.47 Z" fill="#000000" fill-rule="evenodd" fill-opacity="1" /><path clip-path="url(#clip610)" d="M1451.44 1445.93 Q1447.82 1445.93 1446 1449.49 Q1444.19 1453.03 1444.19 1460.16 Q1444.19 1467.27 1446 1470.83 Q1447.82 1474.38 1451.44 1474.38 Q1455.07 1474.38 1456.87 1470.83 Q1458.7 1467.27 1458.7 1460.16 Q1458.7 1453.03 1456.87 1449.49 Q1455.07 1445.93 1451.44 1445.93 M1451.44 1442.22 Q1457.25 1442.22 1460.3 1446.83 Q1463.38 1451.41 1463.38 1460.16 Q1463.38 1468.89 1460.3 1473.5 Q1457.25 1478.08 1451.44 1478.08 Q1445.63 1478.08 1442.55 1473.5 Q1439.49 1468.89 1439.49 1460.16 Q1439.49 1451.41 1442.55 1446.83 Q1445.63 1442.22 1451.44 1442.22 Z" fill="#000000" fill-rule="evenodd" fill-opacity="1" /><path clip-path="url(#clip610)" d="M1471.6 1471.53 L1476.48 1471.53 L1476.48 1477.41 L1471.6 1477.41 L1471.6 1471.53 Z" fill="#000000" fill-rule="evenodd" fill-opacity="1" /><path clip-path="url(#clip610)" d="M1496.67 1445.93 Q1493.06 1445.93 1491.23 1449.49 Q1489.42 1453.03 1489.42 1460.16 Q1489.42 1467.27 1491.23 1470.83 Q1493.06 1474.38 1496.67 1474.38 Q1500.3 1474.38 1502.11 1470.83 Q1503.93 1467.27 1503.93 1460.16 Q1503.93 1453.03 1502.11 1449.49 Q1500.3 1445.93 1496.67 1445.93 M1496.67 1442.22 Q1502.48 1442.22 1505.53 1446.83 Q1508.61 1451.41 1508.61 1460.16 Q1508.61 1468.89 1505.53 1473.5 Q1502.48 1478.08 1496.67 1478.08 Q1490.86 1478.08 1487.78 1473.5 Q1484.72 1468.89 1484.72 1460.16 Q1484.72 1451.41 1487.78 1446.83 Q1490.86 1442.22 1496.67 1442.22 Z" fill="#000000" fill-rule="evenodd" fill-opacity="1" /><path clip-path="url(#clip610)" d="M1763.83 1473.47 L1780.15 1473.47 L1780.15 1477.41 L1758.21 1477.41 L1758.21 1473.47 Q1760.87 1470.72 1765.45 1466.09 Q1770.06 1461.44 1771.24 1460.09 Q1773.48 1457.57 1774.36 1455.83 Q1775.27 1454.08 1775.27 1452.39 Q1775.27 1449.63 1773.32 1447.89 Q1771.4 1446.16 1768.3 1446.16 Q1766.1 1446.16 1763.65 1446.92 Q1761.22 1447.69 1758.44 1449.24 L1758.44 1444.52 Q1761.26 1443.38 1763.72 1442.8 Q1766.17 1442.22 1768.21 1442.22 Q1773.58 1442.22 1776.77 1444.91 Q1779.97 1447.59 1779.97 1452.08 Q1779.97 1454.21 1779.16 1456.14 Q1778.37 1458.03 1776.26 1460.63 Q1775.68 1461.3 1772.58 1464.52 Q1769.48 1467.71 1763.83 1473.47 Z" fill="#000000" fill-rule="evenodd" fill-opacity="1" /><path clip-path="url(#clip610)" d="M1793.99 1473.47 L1810.31 1473.47 L1810.31 1477.41 L1788.37 1477.41 L1788.37 1473.47 Q1791.03 1470.72 1795.61 1466.09 Q1800.22 1461.44 1801.4 1460.09 Q1803.65 1457.57 1804.53 1455.83 Q1805.43 1454.08 1805.43 1452.39 Q1805.43 1449.63 1803.48 1447.89 Q1801.56 1446.16 1798.46 1446.16 Q1796.26 1446.16 1793.81 1446.92 Q1791.38 1447.69 1788.6 1449.24 L1788.6 1444.52 Q1791.42 1443.38 1793.88 1442.8 Q1796.33 1442.22 1798.37 1442.22 Q1803.74 1442.22 1806.93 1444.91 Q1810.13 1447.59 1810.13 1452.08 Q1810.13 1454.21 1809.32 1456.14 Q1808.53 1458.03 1806.42 1460.63 Q1805.85 1461.3 1802.74 1464.52 Q1799.64 1467.71 1793.99 1473.47 Z" fill="#000000" fill-rule="evenodd" fill-opacity="1" /><path clip-path="url(#clip610)" d="M1820.13 1471.53 L1825.01 1471.53 L1825.01 1477.41 L1820.13 1477.41 L1820.13 1471.53 Z" fill="#000000" fill-rule="evenodd" fill-opacity="1" /><path clip-path="url(#clip610)" d="M1835.24 1442.85 L1853.6 1442.85 L1853.6 1446.78 L1839.53 1446.78 L1839.53 1455.26 Q1840.54 1454.91 1841.56 1454.75 Q1842.58 1454.56 1843.6 1454.56 Q1849.39 1454.56 1852.77 1457.73 Q1856.15 1460.9 1856.15 1466.32 Q1856.15 1471.9 1852.67 1475 Q1849.2 1478.08 1842.88 1478.08 Q1840.71 1478.08 1838.44 1477.71 Q1836.19 1477.34 1833.79 1476.6 L1833.79 1471.9 Q1835.87 1473.03 1838.09 1473.59 Q1840.31 1474.14 1842.79 1474.14 Q1846.79 1474.14 1849.13 1472.04 Q1851.47 1469.93 1851.47 1466.32 Q1851.47 1462.71 1849.13 1460.6 Q1846.79 1458.5 1842.79 1458.5 Q1840.91 1458.5 1839.04 1458.91 Q1837.19 1459.33 1835.24 1460.21 L1835.24 1442.85 Z" fill="#000000" fill-rule="evenodd" fill-opacity="1" /><path clip-path="url(#clip610)" d="M2111.37 1473.47 L2127.69 1473.47 L2127.69 1477.41 L2105.74 1477.41 L2105.74 1473.47 Q2108.4 1470.72 2112.99 1466.09 Q2117.59 1461.44 2118.77 1460.09 Q2121.02 1457.57 2121.9 1455.83 Q2122.8 1454.08 2122.8 1452.39 Q2122.8 1449.63 2120.86 1447.89 Q2118.94 1446.16 2115.83 1446.16 Q2113.64 1446.16 2111.18 1446.92 Q2108.75 1447.69 2105.97 1449.24 L2105.97 1444.52 Q2108.8 1443.38 2111.25 1442.8 Q2113.71 1442.22 2115.74 1442.22 Q2121.11 1442.22 2124.31 1444.91 Q2127.5 1447.59 2127.5 1452.08 Q2127.5 1454.21 2126.69 1456.14 Q2125.9 1458.03 2123.8 1460.63 Q2123.22 1461.3 2120.12 1464.52 Q2117.02 1467.71 2111.37 1473.47 Z" fill="#000000" fill-rule="evenodd" fill-opacity="1" /><path clip-path="url(#clip610)" d="M2137.55 1442.85 L2155.9 1442.85 L2155.9 1446.78 L2141.83 1446.78 L2141.83 1455.26 Q2142.85 1454.91 2143.87 1454.75 Q2144.89 1454.56 2145.9 1454.56 Q2151.69 1454.56 2155.07 1457.73 Q2158.45 1460.9 2158.45 1466.32 Q2158.45 1471.9 2154.98 1475 Q2151.51 1478.08 2145.19 1478.08 Q2143.01 1478.08 2140.74 1477.71 Q2138.5 1477.34 2136.09 1476.6 L2136.09 1471.9 Q2138.17 1473.03 2140.39 1473.59 Q2142.62 1474.14 2145.09 1474.14 Q2149.1 1474.14 2151.44 1472.04 Q2153.77 1469.93 2153.77 1466.32 Q2153.77 1462.71 2151.44 1460.6 Q2149.1 1458.5 2145.09 1458.5 Q2143.22 1458.5 2141.34 1458.91 Q2139.49 1459.33 2137.55 1460.21 L2137.55 1442.85 Z" fill="#000000" fill-rule="evenodd" fill-opacity="1" /><path clip-path="url(#clip610)" d="M2167.66 1471.53 L2172.55 1471.53 L2172.55 1477.41 L2167.66 1477.41 L2167.66 1471.53 Z" fill="#000000" fill-rule="evenodd" fill-opacity="1" /><path clip-path="url(#clip610)" d="M2192.73 1445.93 Q2189.12 1445.93 2187.29 1449.49 Q2185.49 1453.03 2185.49 1460.16 Q2185.49 1467.27 2187.29 1470.83 Q2189.12 1474.38 2192.73 1474.38 Q2196.37 1474.38 2198.17 1470.83 Q2200 1467.27 2200 1460.16 Q2200 1453.03 2198.17 1449.49 Q2196.37 1445.93 2192.73 1445.93 M2192.73 1442.22 Q2198.54 1442.22 2201.6 1446.83 Q2204.68 1451.41 2204.68 1460.16 Q2204.68 1468.89 2201.6 1473.5 Q2198.54 1478.08 2192.73 1478.08 Q2186.92 1478.08 2183.84 1473.5 Q2180.79 1468.89 2180.79 1460.16 Q2180.79 1451.41 2183.84 1446.83 Q2186.92 1442.22 2192.73 1442.22 Z" fill="#000000" fill-rule="evenodd" fill-opacity="1" /><path clip-path="url(#clip610)" d="M1217.83 1554.17 L1217.83 1551.59 Q1222.3 1551.59 1223.32 1551.05 Q1224.35 1550.48 1224.35 1547.78 L1224.35 1504.12 Q1224.35 1501.01 1223.24 1500.23 Q1222.18 1499.45 1217.83 1499.45 L1217.83 1496.83 L1229.88 1495.92 L1229.88 1547.78 Q1229.88 1550.48 1230.95 1551.05 Q1232.01 1551.59 1236.44 1551.59 L1236.44 1554.17 Q1235.42 1554.17 1233.28 1554.09 Q1231.15 1554.01 1229.6 1553.96 Q1228.04 1553.92 1227.14 1553.92 Q1226.15 1553.92 1217.83 1554.17 Z" fill="#000000" fill-rule="evenodd" fill-opacity="1" /><path clip-path="url(#clip610)" d="M1246.38 1549.66 Q1240.85 1544.17 1240.85 1536.22 Q1240.85 1528.22 1246.26 1522.4 Q1251.71 1516.54 1259.5 1516.54 Q1267.12 1516.54 1272.57 1522.36 Q1278.07 1528.14 1278.07 1536.22 Q1278.07 1544.13 1272.53 1549.62 Q1267.04 1555.11 1259.42 1555.11 Q1251.96 1555.11 1246.38 1549.66 M1247.82 1535.52 Q1247.82 1543.68 1249.95 1547.37 Q1253.23 1552.98 1259.5 1552.98 Q1262.61 1552.98 1265.2 1551.3 Q1267.82 1549.62 1269.25 1546.79 Q1271.1 1543.1 1271.1 1535.52 Q1271.1 1527.44 1268.89 1523.88 Q1265.61 1518.43 1259.42 1518.43 Q1256.71 1518.43 1254.05 1519.86 Q1251.42 1521.26 1249.83 1524.04 Q1247.82 1527.73 1247.82 1535.52 Z" fill="#000000" fill-rule="evenodd" fill-opacity="1" /><path clip-path="url(#clip610)" d="M1282.42 1560.81 Q1282.42 1558.1 1284.47 1555.77 Q1286.56 1553.43 1290.17 1552.41 Q1286.48 1550.07 1286.48 1544.95 Q1286.48 1541.01 1289.06 1537.98 Q1285.12 1534.7 1285.12 1529.33 Q1285.12 1524.37 1289.06 1520.72 Q1292.99 1517.07 1298.73 1517.07 Q1303.77 1517.07 1307.63 1520.11 Q1311.64 1516.17 1316.52 1516.13 Q1318.7 1516.13 1319.72 1517.48 Q1320.79 1518.84 1320.79 1520.27 Q1320.79 1521.54 1319.97 1522.16 Q1319.19 1522.77 1318.37 1522.77 Q1317.34 1522.77 1316.6 1522.12 Q1315.91 1521.42 1315.91 1520.35 Q1315.91 1518.59 1317.26 1518.06 Q1317.01 1517.98 1316.44 1517.98 Q1312.34 1517.98 1308.86 1521.26 Q1312.3 1524.45 1312.3 1529.41 Q1312.3 1534.37 1308.37 1538.02 Q1304.43 1541.67 1298.73 1541.67 Q1294.02 1541.67 1290.41 1539.04 Q1288.98 1540.73 1288.98 1543.02 Q1288.98 1545.11 1290.25 1546.75 Q1291.52 1548.39 1293.45 1548.64 Q1294.02 1548.72 1299.72 1548.72 Q1303.08 1548.72 1304.92 1548.8 Q1306.77 1548.88 1309.39 1549.46 Q1312.05 1549.99 1314.15 1551.05 Q1319.6 1554.09 1319.64 1560.65 Q1319.64 1565.44 1314.1 1568.43 Q1308.61 1571.47 1300.99 1571.47 Q1293.28 1571.47 1287.83 1568.39 Q1282.42 1565.36 1282.42 1560.81 M1286.81 1560.81 Q1286.81 1564.25 1290.86 1566.88 Q1294.92 1569.54 1301.07 1569.54 Q1307.1 1569.54 1311.15 1566.92 Q1315.25 1564.33 1315.25 1560.81 Q1315.25 1558.31 1313.82 1556.71 Q1312.38 1555.11 1309.43 1554.46 Q1306.52 1553.84 1304.47 1553.72 Q1302.42 1553.6 1298.65 1553.6 L1293.69 1553.6 Q1290.82 1553.76 1288.81 1555.85 Q1286.81 1557.94 1286.81 1560.81 M1291.4 1529.41 Q1291.4 1539.74 1298.73 1539.74 Q1302.42 1539.74 1304.68 1536.38 Q1306.03 1534.13 1306.03 1529.33 Q1306.03 1519 1298.73 1519 Q1295.04 1519 1292.75 1522.36 Q1291.4 1524.62 1291.4 1529.41 Z" fill="#000000" fill-rule="evenodd" fill-opacity="1" /><path clip-path="url(#clip610)" d="M1329.36 1577.43 Q1329.36 1576.37 1329.45 1576.05 Q1329.56 1575.73 1330.02 1575.25 L1341.3 1562.68 Q1347.47 1555.74 1347.47 1549.68 Q1347.47 1545.75 1345.4 1542.94 Q1343.37 1540.13 1339.61 1540.13 Q1337.02 1540.13 1334.84 1541.7 Q1332.66 1543.28 1331.66 1546.09 Q1331.83 1546.04 1332.43 1546.04 Q1333.9 1546.04 1334.7 1546.96 Q1335.53 1547.87 1335.53 1549.11 Q1335.53 1550.69 1334.5 1551.46 Q1333.5 1552.21 1332.49 1552.21 Q1332.09 1552.21 1331.54 1552.12 Q1331.03 1552.03 1330.2 1551.23 Q1329.36 1550.4 1329.36 1548.94 Q1329.36 1544.83 1332.46 1541.56 Q1335.59 1538.29 1340.35 1538.29 Q1345.75 1538.29 1349.28 1541.5 Q1352.83 1544.69 1352.83 1549.68 Q1352.83 1551.43 1352.29 1553.04 Q1351.77 1554.62 1351.06 1555.85 Q1350.37 1557.08 1348.47 1559.06 Q1346.58 1561.04 1345.06 1562.45 Q1343.54 1563.86 1340.12 1566.84 L1333.9 1572.89 L1344.48 1572.89 Q1349.65 1572.89 1350.05 1572.43 Q1350.63 1571.6 1351.34 1567.21 L1352.83 1567.21 L1351.17 1577.43 L1329.36 1577.43 Z" fill="#000000" fill-rule="evenodd" fill-opacity="1" /><path clip-path="url(#clip610)" d="M1432.23 1497.77 Q1432.23 1499.45 1430.8 1499.45 Q1426.17 1499.61 1424.28 1501.17 Q1422.44 1502.69 1421.74 1505.64 L1410.02 1552.41 Q1409.61 1553.88 1409.36 1554.05 Q1409.11 1554.17 1408.66 1554.17 Q1408.09 1554.17 1407.76 1553.88 Q1407.47 1553.6 1407.06 1552.57 L1386.16 1503.14 Q1386 1502.81 1385.79 1502.36 Q1385.59 1501.91 1385.42 1501.62 L1374.31 1545.93 Q1373.99 1547.2 1373.99 1547.86 Q1373.99 1549.46 1375.09 1550.48 Q1376.24 1551.46 1379.52 1551.59 Q1381.2 1551.59 1381.2 1552.49 Q1381.2 1554.17 1379.68 1554.17 Q1378.29 1554.17 1375.38 1554.05 Q1372.47 1553.92 1371.03 1553.92 Q1369.64 1553.92 1366.81 1554.05 Q1363.98 1554.17 1362.63 1554.17 Q1361.57 1554.17 1361.57 1553.23 Q1361.57 1552.49 1361.85 1552.12 Q1362.14 1551.71 1362.39 1551.67 Q1362.63 1551.59 1363 1551.59 Q1365.46 1551.51 1367.14 1551.01 Q1368.82 1550.52 1369.76 1549.58 Q1370.75 1548.64 1371.2 1547.69 Q1371.69 1546.71 1372.06 1545.27 L1383.29 1500.19 Q1383.29 1499.45 1377.59 1499.45 Q1376.61 1499.45 1376.2 1499.41 Q1375.83 1499.37 1375.54 1499.16 Q1375.26 1498.96 1375.26 1498.51 Q1375.26 1497.36 1375.75 1497.11 Q1376.24 1496.83 1377.67 1496.83 L1388.95 1496.83 Q1390.38 1496.83 1390.75 1497.07 Q1391.12 1497.28 1391.61 1498.42 L1410.18 1542.24 L1419.57 1504.9 Q1419.81 1504.16 1419.81 1503.14 Q1419.81 1501.5 1418.58 1500.51 Q1417.39 1499.49 1414.11 1499.45 Q1412.6 1499.45 1412.6 1498.51 Q1412.6 1497.73 1412.88 1497.36 Q1413.21 1496.95 1413.46 1496.91 Q1413.75 1496.83 1414.11 1496.83 Q1415.51 1496.83 1418.38 1496.95 Q1421.25 1497.07 1422.68 1497.07 Q1424.07 1497.07 1426.9 1496.95 Q1429.77 1496.83 1431.17 1496.83 Q1431.66 1496.83 1431.9 1497.07 Q1432.19 1497.28 1432.23 1497.52 L1432.23 1497.77 Z" fill="#000000" fill-rule="evenodd" fill-opacity="1" /><polyline clip-path="url(#clip610)" style="stroke:#000000; stroke-linecap:butt; stroke-linejoin:round; stroke-width:4; stroke-opacity:1; fill:none" points="
  293.381,1416.74 293.381,47.2441 
  "/>
<polyline clip-path="url(#clip610)" style="stroke:#000000; stroke-linecap:butt; stroke-linejoin:round; stroke-width:4; stroke-opacity:1; fill:none" points="
  293.381,1296.62 318.094,1296.62 
  "/>
<polyline clip-path="url(#clip610)" style="stroke:#000000; stroke-linecap:butt; stroke-linejoin:round; stroke-width:4; stroke-opacity:1; fill:none" points="
  293.381,1092.54 318.094,1092.54 
  "/>
<polyline clip-path="url(#clip610)" style="stroke:#000000; stroke-linecap:butt; stroke-linejoin:round; stroke-width:4; stroke-opacity:1; fill:none" points="
  293.381,888.453 318.094,888.453 
  "/>
<polyline clip-path="url(#clip610)" style="stroke:#000000; stroke-linecap:butt; stroke-linejoin:round; stroke-width:4; stroke-opacity:1; fill:none" points="
  293.381,684.37 318.094,684.37 
  "/>
<polyline clip-path="url(#clip610)" style="stroke:#000000; stroke-linecap:butt; stroke-linejoin:round; stroke-width:4; stroke-opacity:1; fill:none" points="
  293.381,480.288 318.094,480.288 
  "/>
<polyline clip-path="url(#clip610)" style="stroke:#000000; stroke-linecap:butt; stroke-linejoin:round; stroke-width:4; stroke-opacity:1; fill:none" points="
  293.381,276.205 318.094,276.205 
  "/>
<polyline clip-path="url(#clip610)" style="stroke:#000000; stroke-linecap:butt; stroke-linejoin:round; stroke-width:4; stroke-opacity:1; fill:none" points="
  293.381,72.1224 318.094,72.1224 
  "/>
<path clip-path="url(#clip610)" d="M121.873 1297.07 L151.549 1297.07 L151.549 1301 L121.873 1301 L121.873 1297.07 Z" fill="#000000" fill-rule="evenodd" fill-opacity="1" /><path clip-path="url(#clip610)" d="M171.641 1282.42 Q168.03 1282.42 166.201 1285.98 Q164.396 1289.52 164.396 1296.65 Q164.396 1303.76 166.201 1307.32 Q168.03 1310.87 171.641 1310.87 Q175.275 1310.87 177.081 1307.32 Q178.91 1303.76 178.91 1296.65 Q178.91 1289.52 177.081 1285.98 Q175.275 1282.42 171.641 1282.42 M171.641 1278.71 Q177.451 1278.71 180.507 1283.32 Q183.585 1287.9 183.585 1296.65 Q183.585 1305.38 180.507 1309.99 Q177.451 1314.57 171.641 1314.57 Q165.831 1314.57 162.752 1309.99 Q159.697 1305.38 159.697 1296.65 Q159.697 1287.9 162.752 1283.32 Q165.831 1278.71 171.641 1278.71 Z" fill="#000000" fill-rule="evenodd" fill-opacity="1" /><path clip-path="url(#clip610)" d="M191.803 1308.02 L196.687 1308.02 L196.687 1313.9 L191.803 1313.9 L191.803 1308.02 Z" fill="#000000" fill-rule="evenodd" fill-opacity="1" /><path clip-path="url(#clip610)" d="M216.872 1282.42 Q213.261 1282.42 211.433 1285.98 Q209.627 1289.52 209.627 1296.65 Q209.627 1303.76 211.433 1307.32 Q213.261 1310.87 216.872 1310.87 Q220.507 1310.87 222.312 1307.32 Q224.141 1303.76 224.141 1296.65 Q224.141 1289.52 222.312 1285.98 Q220.507 1282.42 216.872 1282.42 M216.872 1278.71 Q222.683 1278.71 225.738 1283.32 Q228.817 1287.9 228.817 1296.65 Q228.817 1305.38 225.738 1309.99 Q222.683 1314.57 216.872 1314.57 Q211.062 1314.57 207.984 1309.99 Q204.928 1305.38 204.928 1296.65 Q204.928 1287.9 207.984 1283.32 Q211.062 1278.71 216.872 1278.71 Z" fill="#000000" fill-rule="evenodd" fill-opacity="1" /><path clip-path="url(#clip610)" d="M241.062 1309.96 L257.381 1309.96 L257.381 1313.9 L235.437 1313.9 L235.437 1309.96 Q238.099 1307.21 242.682 1302.58 Q247.289 1297.93 248.469 1296.58 Q250.715 1294.06 251.594 1292.32 Q252.497 1290.56 252.497 1288.87 Q252.497 1286.12 250.553 1284.38 Q248.631 1282.65 245.53 1282.65 Q243.331 1282.65 240.877 1283.41 Q238.446 1284.18 235.669 1285.73 L235.669 1281 Q238.493 1279.87 240.946 1279.29 Q243.4 1278.71 245.437 1278.71 Q250.807 1278.71 254.002 1281.4 Q257.196 1284.08 257.196 1288.57 Q257.196 1290.7 256.386 1292.62 Q255.599 1294.52 253.493 1297.12 Q252.914 1297.79 249.812 1301 Q246.71 1304.2 241.062 1309.96 Z" fill="#000000" fill-rule="evenodd" fill-opacity="1" /><path clip-path="url(#clip610)" d="M170.044 1078.33 Q166.433 1078.33 164.604 1081.9 Q162.799 1085.44 162.799 1092.57 Q162.799 1099.68 164.604 1103.24 Q166.433 1106.78 170.044 1106.78 Q173.678 1106.78 175.484 1103.24 Q177.312 1099.68 177.312 1092.57 Q177.312 1085.44 175.484 1081.9 Q173.678 1078.33 170.044 1078.33 M170.044 1074.63 Q175.854 1074.63 178.91 1079.24 Q181.988 1083.82 181.988 1092.57 Q181.988 1101.3 178.91 1105.9 Q175.854 1110.49 170.044 1110.49 Q164.234 1110.49 161.155 1105.9 Q158.1 1101.3 158.1 1092.57 Q158.1 1083.82 161.155 1079.24 Q164.234 1074.63 170.044 1074.63 Z" fill="#000000" fill-rule="evenodd" fill-opacity="1" /><path clip-path="url(#clip610)" d="M190.206 1103.94 L195.09 1103.94 L195.09 1109.82 L190.206 1109.82 L190.206 1103.94 Z" fill="#000000" fill-rule="evenodd" fill-opacity="1" /><path clip-path="url(#clip610)" d="M215.275 1078.33 Q211.664 1078.33 209.835 1081.9 Q208.03 1085.44 208.03 1092.57 Q208.03 1099.68 209.835 1103.24 Q211.664 1106.78 215.275 1106.78 Q218.909 1106.78 220.715 1103.24 Q222.544 1099.68 222.544 1092.57 Q222.544 1085.44 220.715 1081.9 Q218.909 1078.33 215.275 1078.33 M215.275 1074.63 Q221.085 1074.63 224.141 1079.24 Q227.22 1083.82 227.22 1092.57 Q227.22 1101.3 224.141 1105.9 Q221.085 1110.49 215.275 1110.49 Q209.465 1110.49 206.386 1105.9 Q203.331 1101.3 203.331 1092.57 Q203.331 1083.82 206.386 1079.24 Q209.465 1074.63 215.275 1074.63 Z" fill="#000000" fill-rule="evenodd" fill-opacity="1" /><path clip-path="url(#clip610)" d="M245.437 1078.33 Q241.826 1078.33 239.997 1081.9 Q238.192 1085.44 238.192 1092.57 Q238.192 1099.68 239.997 1103.24 Q241.826 1106.78 245.437 1106.78 Q249.071 1106.78 250.877 1103.24 Q252.705 1099.68 252.705 1092.57 Q252.705 1085.44 250.877 1081.9 Q249.071 1078.33 245.437 1078.33 M245.437 1074.63 Q251.247 1074.63 254.303 1079.24 Q257.381 1083.82 257.381 1092.57 Q257.381 1101.3 254.303 1105.9 Q251.247 1110.49 245.437 1110.49 Q239.627 1110.49 236.548 1105.9 Q233.493 1101.3 233.493 1092.57 Q233.493 1083.82 236.548 1079.24 Q239.627 1074.63 245.437 1074.63 Z" fill="#000000" fill-rule="evenodd" fill-opacity="1" /><path clip-path="url(#clip610)" d="M171.641 874.251 Q168.03 874.251 166.201 877.816 Q164.396 881.358 164.396 888.487 Q164.396 895.594 166.201 899.159 Q168.03 902.7 171.641 902.7 Q175.275 902.7 177.081 899.159 Q178.91 895.594 178.91 888.487 Q178.91 881.358 177.081 877.816 Q175.275 874.251 171.641 874.251 M171.641 870.548 Q177.451 870.548 180.507 875.154 Q183.585 879.737 183.585 888.487 Q183.585 897.214 180.507 901.821 Q177.451 906.404 171.641 906.404 Q165.831 906.404 162.752 901.821 Q159.697 897.214 159.697 888.487 Q159.697 879.737 162.752 875.154 Q165.831 870.548 171.641 870.548 Z" fill="#000000" fill-rule="evenodd" fill-opacity="1" /><path clip-path="url(#clip610)" d="M191.803 899.853 L196.687 899.853 L196.687 905.733 L191.803 905.733 L191.803 899.853 Z" fill="#000000" fill-rule="evenodd" fill-opacity="1" /><path clip-path="url(#clip610)" d="M216.872 874.251 Q213.261 874.251 211.433 877.816 Q209.627 881.358 209.627 888.487 Q209.627 895.594 211.433 899.159 Q213.261 902.7 216.872 902.7 Q220.507 902.7 222.312 899.159 Q224.141 895.594 224.141 888.487 Q224.141 881.358 222.312 877.816 Q220.507 874.251 216.872 874.251 M216.872 870.548 Q222.683 870.548 225.738 875.154 Q228.817 879.737 228.817 888.487 Q228.817 897.214 225.738 901.821 Q222.683 906.404 216.872 906.404 Q211.062 906.404 207.984 901.821 Q204.928 897.214 204.928 888.487 Q204.928 879.737 207.984 875.154 Q211.062 870.548 216.872 870.548 Z" fill="#000000" fill-rule="evenodd" fill-opacity="1" /><path clip-path="url(#clip610)" d="M241.062 901.798 L257.381 901.798 L257.381 905.733 L235.437 905.733 L235.437 901.798 Q238.099 899.043 242.682 894.413 Q247.289 889.761 248.469 888.418 Q250.715 885.895 251.594 884.159 Q252.497 882.399 252.497 880.71 Q252.497 877.955 250.553 876.219 Q248.631 874.483 245.53 874.483 Q243.331 874.483 240.877 875.247 Q238.446 876.011 235.669 877.562 L235.669 872.839 Q238.493 871.705 240.946 871.126 Q243.4 870.548 245.437 870.548 Q250.807 870.548 254.002 873.233 Q257.196 875.918 257.196 880.409 Q257.196 882.538 256.386 884.46 Q255.599 886.358 253.493 888.95 Q252.914 889.622 249.812 892.839 Q246.71 896.034 241.062 901.798 Z" fill="#000000" fill-rule="evenodd" fill-opacity="1" /><path clip-path="url(#clip610)" d="M169.558 670.169 Q165.947 670.169 164.118 673.734 Q162.312 677.275 162.312 684.405 Q162.312 691.511 164.118 695.076 Q165.947 698.618 169.558 698.618 Q173.192 698.618 174.998 695.076 Q176.826 691.511 176.826 684.405 Q176.826 677.275 174.998 673.734 Q173.192 670.169 169.558 670.169 M169.558 666.465 Q175.368 666.465 178.423 671.072 Q181.502 675.655 181.502 684.405 Q181.502 693.132 178.423 697.738 Q175.368 702.321 169.558 702.321 Q163.748 702.321 160.669 697.738 Q157.613 693.132 157.613 684.405 Q157.613 675.655 160.669 671.072 Q163.748 666.465 169.558 666.465 Z" fill="#000000" fill-rule="evenodd" fill-opacity="1" /><path clip-path="url(#clip610)" d="M189.72 695.771 L194.604 695.771 L194.604 701.65 L189.72 701.65 L189.72 695.771 Z" fill="#000000" fill-rule="evenodd" fill-opacity="1" /><path clip-path="url(#clip610)" d="M214.789 670.169 Q211.178 670.169 209.349 673.734 Q207.544 677.275 207.544 684.405 Q207.544 691.511 209.349 695.076 Q211.178 698.618 214.789 698.618 Q218.423 698.618 220.229 695.076 Q222.058 691.511 222.058 684.405 Q222.058 677.275 220.229 673.734 Q218.423 670.169 214.789 670.169 M214.789 666.465 Q220.599 666.465 223.655 671.072 Q226.733 675.655 226.733 684.405 Q226.733 693.132 223.655 697.738 Q220.599 702.321 214.789 702.321 Q208.979 702.321 205.9 697.738 Q202.845 693.132 202.845 684.405 Q202.845 675.655 205.9 671.072 Q208.979 666.465 214.789 666.465 Z" fill="#000000" fill-rule="evenodd" fill-opacity="1" /><path clip-path="url(#clip610)" d="M247.798 671.164 L235.993 689.613 L247.798 689.613 L247.798 671.164 M246.571 667.09 L252.451 667.09 L252.451 689.613 L257.381 689.613 L257.381 693.502 L252.451 693.502 L252.451 701.65 L247.798 701.65 L247.798 693.502 L232.196 693.502 L232.196 688.988 L246.571 667.09 Z" fill="#000000" fill-rule="evenodd" fill-opacity="1" /><path clip-path="url(#clip610)" d="M169.882 466.086 Q166.271 466.086 164.442 469.651 Q162.637 473.193 162.637 480.322 Q162.637 487.429 164.442 490.994 Q166.271 494.535 169.882 494.535 Q173.516 494.535 175.322 490.994 Q177.15 487.429 177.15 480.322 Q177.15 473.193 175.322 469.651 Q173.516 466.086 169.882 466.086 M169.882 462.383 Q175.692 462.383 178.748 466.989 Q181.826 471.572 181.826 480.322 Q181.826 489.049 178.748 493.656 Q175.692 498.239 169.882 498.239 Q164.072 498.239 160.993 493.656 Q157.937 489.049 157.937 480.322 Q157.937 471.572 160.993 466.989 Q164.072 462.383 169.882 462.383 Z" fill="#000000" fill-rule="evenodd" fill-opacity="1" /><path clip-path="url(#clip610)" d="M190.044 491.688 L194.928 491.688 L194.928 497.568 L190.044 497.568 L190.044 491.688 Z" fill="#000000" fill-rule="evenodd" fill-opacity="1" /><path clip-path="url(#clip610)" d="M215.113 466.086 Q211.502 466.086 209.673 469.651 Q207.868 473.193 207.868 480.322 Q207.868 487.429 209.673 490.994 Q211.502 494.535 215.113 494.535 Q218.747 494.535 220.553 490.994 Q222.382 487.429 222.382 480.322 Q222.382 473.193 220.553 469.651 Q218.747 466.086 215.113 466.086 M215.113 462.383 Q220.923 462.383 223.979 466.989 Q227.057 471.572 227.057 480.322 Q227.057 489.049 223.979 493.656 Q220.923 498.239 215.113 498.239 Q209.303 498.239 206.224 493.656 Q203.169 489.049 203.169 480.322 Q203.169 471.572 206.224 466.989 Q209.303 462.383 215.113 462.383 Z" fill="#000000" fill-rule="evenodd" fill-opacity="1" /><path clip-path="url(#clip610)" d="M245.854 478.424 Q242.706 478.424 240.854 480.577 Q239.025 482.73 239.025 486.48 Q239.025 490.206 240.854 492.382 Q242.706 494.535 245.854 494.535 Q249.002 494.535 250.831 492.382 Q252.682 490.206 252.682 486.48 Q252.682 482.73 250.831 480.577 Q249.002 478.424 245.854 478.424 M255.136 463.771 L255.136 468.031 Q253.377 467.197 251.571 466.758 Q249.789 466.318 248.03 466.318 Q243.4 466.318 240.946 469.443 Q238.516 472.568 238.169 478.887 Q239.534 476.873 241.594 475.808 Q243.655 474.72 246.131 474.72 Q251.34 474.72 254.349 477.892 Q257.381 481.04 257.381 486.48 Q257.381 491.804 254.233 495.021 Q251.085 498.239 245.854 498.239 Q239.858 498.239 236.687 493.656 Q233.516 489.049 233.516 480.322 Q233.516 472.128 237.405 467.267 Q241.294 462.383 247.844 462.383 Q249.604 462.383 251.386 462.73 Q253.192 463.077 255.136 463.771 Z" fill="#000000" fill-rule="evenodd" fill-opacity="1" /><path clip-path="url(#clip610)" d="M170.136 262.004 Q166.525 262.004 164.697 265.568 Q162.891 269.11 162.891 276.24 Q162.891 283.346 164.697 286.911 Q166.525 290.453 170.136 290.453 Q173.771 290.453 175.576 286.911 Q177.405 283.346 177.405 276.24 Q177.405 269.11 175.576 265.568 Q173.771 262.004 170.136 262.004 M170.136 258.3 Q175.947 258.3 179.002 262.906 Q182.081 267.49 182.081 276.24 Q182.081 284.967 179.002 289.573 Q175.947 294.156 170.136 294.156 Q164.326 294.156 161.248 289.573 Q158.192 284.967 158.192 276.24 Q158.192 267.49 161.248 262.906 Q164.326 258.3 170.136 258.3 Z" fill="#000000" fill-rule="evenodd" fill-opacity="1" /><path clip-path="url(#clip610)" d="M190.298 287.605 L195.183 287.605 L195.183 293.485 L190.298 293.485 L190.298 287.605 Z" fill="#000000" fill-rule="evenodd" fill-opacity="1" /><path clip-path="url(#clip610)" d="M215.368 262.004 Q211.757 262.004 209.928 265.568 Q208.122 269.11 208.122 276.24 Q208.122 283.346 209.928 286.911 Q211.757 290.453 215.368 290.453 Q219.002 290.453 220.808 286.911 Q222.636 283.346 222.636 276.24 Q222.636 269.11 220.808 265.568 Q219.002 262.004 215.368 262.004 M215.368 258.3 Q221.178 258.3 224.233 262.906 Q227.312 267.49 227.312 276.24 Q227.312 284.967 224.233 289.573 Q221.178 294.156 215.368 294.156 Q209.558 294.156 206.479 289.573 Q203.423 284.967 203.423 276.24 Q203.423 267.49 206.479 262.906 Q209.558 258.3 215.368 258.3 Z" fill="#000000" fill-rule="evenodd" fill-opacity="1" /><path clip-path="url(#clip610)" d="M245.53 277.073 Q242.196 277.073 240.275 278.855 Q238.377 280.638 238.377 283.763 Q238.377 286.888 240.275 288.67 Q242.196 290.453 245.53 290.453 Q248.863 290.453 250.784 288.67 Q252.705 286.865 252.705 283.763 Q252.705 280.638 250.784 278.855 Q248.886 277.073 245.53 277.073 M240.854 275.082 Q237.844 274.342 236.155 272.281 Q234.488 270.221 234.488 267.258 Q234.488 263.115 237.428 260.707 Q240.391 258.3 245.53 258.3 Q250.692 258.3 253.631 260.707 Q256.571 263.115 256.571 267.258 Q256.571 270.221 254.881 272.281 Q253.215 274.342 250.229 275.082 Q253.608 275.869 255.483 278.161 Q257.381 280.453 257.381 283.763 Q257.381 288.786 254.303 291.471 Q251.247 294.156 245.53 294.156 Q239.812 294.156 236.733 291.471 Q233.678 288.786 233.678 283.763 Q233.678 280.453 235.576 278.161 Q237.474 275.869 240.854 275.082 M239.141 267.698 Q239.141 270.383 240.807 271.888 Q242.497 273.393 245.53 273.393 Q248.539 273.393 250.229 271.888 Q251.942 270.383 251.942 267.698 Q251.942 265.013 250.229 263.508 Q248.539 262.004 245.53 262.004 Q242.497 262.004 240.807 263.508 Q239.141 265.013 239.141 267.698 Z" fill="#000000" fill-rule="evenodd" fill-opacity="1" /><path clip-path="url(#clip610)" d="M170.044 57.9211 Q166.433 57.9211 164.604 61.4859 Q162.799 65.0276 162.799 72.1572 Q162.799 79.2636 164.604 82.8284 Q166.433 86.3701 170.044 86.3701 Q173.678 86.3701 175.484 82.8284 Q177.312 79.2636 177.312 72.1572 Q177.312 65.0276 175.484 61.4859 Q173.678 57.9211 170.044 57.9211 M170.044 54.2174 Q175.854 54.2174 178.91 58.8239 Q181.988 63.4072 181.988 72.1572 Q181.988 80.884 178.91 85.4904 Q175.854 90.0737 170.044 90.0737 Q164.234 90.0737 161.155 85.4904 Q158.1 80.884 158.1 72.1572 Q158.1 63.4072 161.155 58.8239 Q164.234 54.2174 170.044 54.2174 Z" fill="#000000" fill-rule="evenodd" fill-opacity="1" /><path clip-path="url(#clip610)" d="M190.206 83.5228 L195.09 83.5228 L195.09 89.4024 L190.206 89.4024 L190.206 83.5228 Z" fill="#000000" fill-rule="evenodd" fill-opacity="1" /><path clip-path="url(#clip610)" d="M206.085 85.4673 L213.724 85.4673 L213.724 59.1017 L205.414 60.7683 L205.414 56.5091 L213.678 54.8424 L218.354 54.8424 L218.354 85.4673 L225.993 85.4673 L225.993 89.4024 L206.085 89.4024 L206.085 85.4673 Z" fill="#000000" fill-rule="evenodd" fill-opacity="1" /><path clip-path="url(#clip610)" d="M245.437 57.9211 Q241.826 57.9211 239.997 61.4859 Q238.192 65.0276 238.192 72.1572 Q238.192 79.2636 239.997 82.8284 Q241.826 86.3701 245.437 86.3701 Q249.071 86.3701 250.877 82.8284 Q252.705 79.2636 252.705 72.1572 Q252.705 65.0276 250.877 61.4859 Q249.071 57.9211 245.437 57.9211 M245.437 54.2174 Q251.247 54.2174 254.303 58.8239 Q257.381 63.4072 257.381 72.1572 Q257.381 80.884 254.303 85.4904 Q251.247 90.0737 245.437 90.0737 Q239.627 90.0737 236.548 85.4904 Q233.493 80.884 233.493 72.1572 Q233.493 63.4072 236.548 58.8239 Q239.627 54.2174 245.437 54.2174 Z" fill="#000000" fill-rule="evenodd" fill-opacity="1" /><path clip-path="url(#clip610)" d="M11.8393 725.932 Q13.028 725.932 13.274 726.465 Q13.5199 726.957 13.5199 728.761 Q13.5199 731.835 13.9298 733.229 Q14.2987 734.581 14.9545 734.991 Q15.5694 735.36 17.3729 735.811 L62.707 747.165 Q62.748 747.165 63.3219 747.288 Q63.8547 747.411 64.1417 747.411 Q64.6745 747.411 65.0024 747.083 Q65.3303 746.714 65.4943 745.812 Q65.6173 744.91 65.6583 744.214 Q65.6583 743.476 65.6583 741.959 Q65.6583 740.074 65.9862 739.787 Q66.1911 739.623 66.56 739.623 Q67.3388 739.623 67.7487 739.951 Q68.1176 740.238 68.1996 740.525 Q68.2406 740.771 68.2406 741.262 Q68.2406 742.123 68.1586 743.968 Q68.0766 745.812 68.0766 746.755 L67.9946 752.125 L68.2406 762.782 Q68.2406 763.93 67.2978 763.93 Q66.478 763.93 66.1091 763.643 Q65.7402 763.356 65.6992 763.069 Q65.6583 762.741 65.6583 761.921 Q65.6583 757.699 65.2484 756.305 Q64.7975 754.871 62.871 754.297 L39.712 748.518 L39.712 774.095 L62.707 779.833 Q62.748 779.833 63.3219 779.956 Q63.8547 780.079 64.1417 780.079 Q64.6745 780.079 65.0024 779.751 Q65.3303 779.382 65.4943 778.481 Q65.6173 777.579 65.6583 776.882 Q65.6583 776.144 65.6583 774.628 Q65.6583 772.742 65.9862 772.414 Q66.1911 772.25 66.56 772.25 Q67.1339 772.25 67.5438 772.414 Q67.9127 772.537 68.0356 772.865 Q68.1586 773.152 68.1996 773.357 Q68.2406 773.562 68.2406 773.931 Q68.2406 774.792 68.1586 776.636 Q68.0766 778.44 68.0766 779.382 L67.9946 784.752 L68.2406 795.409 Q68.2406 796.598 67.2978 796.598 Q66.478 796.598 66.1501 796.311 Q65.7812 796.024 65.7402 795.655 Q65.6583 795.286 65.6583 794.344 Q65.6583 792.294 65.5353 791.064 Q65.4123 789.835 65.2484 789.056 Q65.0434 788.236 64.4696 787.826 Q63.8957 787.375 63.4038 787.17 Q62.871 786.965 61.6823 786.679 L16.5941 775.447 Q15.2414 775.12 15.0365 775.12 Q14.2577 775.12 14.0528 775.611 Q13.8068 776.062 13.6839 777.374 L13.5199 780.571 Q13.5199 781.555 13.4789 781.965 Q13.4379 782.334 13.233 782.621 Q13.028 782.908 12.5771 782.908 Q12.0033 782.908 11.6344 782.785 Q11.2245 782.621 11.1015 782.334 Q10.9786 782.047 10.9376 781.842 Q10.8966 781.637 10.8966 781.309 L11.1425 770.488 L10.8966 759.749 Q10.8966 758.56 11.8393 758.56 Q13.028 758.56 13.274 759.093 Q13.5199 759.626 13.5199 761.429 Q13.5199 764.421 13.9298 765.815 Q14.2987 767.209 14.9545 767.66 Q15.6104 768.069 17.3729 768.479 L37.0887 773.439 L37.0887 747.821 L16.5941 742.779 Q15.1185 742.451 15.0365 742.451 Q14.2577 742.451 14.0528 742.943 Q13.8068 743.394 13.6839 744.706 L13.5199 747.903 Q13.5199 748.886 13.4789 749.296 Q13.4379 749.665 13.233 749.993 Q13.028 750.28 12.5771 750.28 Q12.0033 750.28 11.6344 750.157 Q11.2245 749.993 11.1015 749.706 Q10.9786 749.419 10.9376 749.214 Q10.8966 749.009 10.8966 748.681 L11.1425 737.86 L10.8966 727.08 Q10.8966 725.932 11.8393 725.932 Z" fill="#000000" fill-rule="evenodd" fill-opacity="1" /><path clip-path="url(#clip610)" d="M52.0337 675.935 L67.0111 679.636 Q67.958 679.894 68.0728 680.066 Q68.1875 680.21 68.1875 680.669 Q68.1875 681.558 67.585 681.558 Q67.5276 681.558 66.7816 681.472 Q66.0069 681.386 64.601 681.386 Q59.4076 681.386 56.3375 683.911 Q53.2674 686.407 53.2674 690.855 Q53.2674 695.015 55.4481 699.003 Q57.6287 702.992 60.8423 705.545 Q63.482 707.697 66.6955 709.189 Q69.9091 710.653 72.721 711.255 Q75.5041 711.858 77.197 712.087 Q78.8898 712.288 79.9802 712.288 Q83.1937 712.288 85.69 711.255 Q88.1575 710.222 89.5634 708.501 Q90.9694 706.75 91.658 704.742 Q92.3466 702.705 92.3466 700.495 Q92.3466 699.663 92.2318 698.659 Q92.1171 697.655 91.6867 696.106 Q91.2563 694.527 90.539 693.236 Q89.8217 691.916 88.4444 690.769 Q87.0672 689.592 85.2309 689.133 Q80.554 687.899 79.8654 687.899 Q79.2915 687.899 79.0907 688.244 Q78.8898 688.588 78.7464 689.736 L78.6316 692.835 Q78.6316 692.892 78.6316 692.978 Q78.6316 693.523 78.6316 693.753 Q78.6029 693.982 78.5455 694.241 Q78.4881 694.47 78.3734 694.556 Q78.2299 694.614 78.0004 694.614 Q77.4552 694.614 77.197 694.384 Q76.9101 694.154 76.8814 693.954 Q76.824 693.753 76.824 693.38 L76.9961 685.145 Q76.9961 684.485 76.9101 682.075 Q76.824 679.665 76.824 678.976 Q76.824 678.201 77.4552 678.201 Q78.6316 678.201 78.6316 679.148 Q78.6603 680.095 78.689 680.583 Q78.689 681.071 78.8325 681.558 Q78.9759 682.018 79.0907 682.19 Q79.1768 682.362 79.6072 682.591 Q80.0088 682.821 80.3532 682.907 Q80.6688 682.993 81.4722 683.194 Q81.9886 683.309 82.9642 683.596 Q83.9397 683.854 84.4562 683.969 L88.9896 685.088 Q92.3466 685.862 92.5762 686.092 Q92.8057 686.207 92.8057 686.494 Q92.8057 686.924 91.5432 687.842 Q90.2808 688.732 89.1618 689.133 Q89.9365 689.851 90.3955 690.31 Q90.8259 690.769 91.5145 691.83 Q92.2032 692.863 92.7483 694.241 Q94.1542 697.598 94.1542 701.586 Q94.1542 708.702 89.6495 713.178 Q85.1161 717.654 78.0578 717.654 Q73.0653 717.654 68.1588 715.358 Q63.2524 713.063 59.6085 709.419 Q55.9645 705.775 53.6978 700.955 Q51.4311 696.134 51.4311 691.314 Q51.4311 689.478 51.9189 687.842 Q52.4067 686.207 53.0092 685.231 Q53.6118 684.227 54.5012 683.337 Q55.362 682.448 55.7637 682.161 Q56.1654 681.845 56.6532 681.558 L52.1484 677.455 Q51.4311 676.738 51.4311 676.566 Q51.4311 676.222 51.632 676.078 Q51.8328 675.935 52.0337 675.935 Z" fill="#000000" fill-rule="evenodd" fill-opacity="1" /><polyline clip-path="url(#clip613)" style="stroke:#000000; stroke-linecap:butt; stroke-linejoin:round; stroke-width:4; stroke-opacity:1; fill:none" points="
  2016.09,1205.21 2016.09,508.664 
  "/>
<polyline clip-path="url(#clip613)" style="stroke:#000000; stroke-linecap:butt; stroke-linejoin:round; stroke-width:4; stroke-opacity:1; fill:none" points="
  351.666,954.19 351.666,86.0033 
  "/>
<polyline clip-path="url(#clip613)" style="stroke:#000000; stroke-linecap:butt; stroke-linejoin:round; stroke-width:4; stroke-opacity:1; fill:none" points="
  1737.77,1362.04 1737.77,530.503 
  "/>
<polyline clip-path="url(#clip613)" style="stroke:#000000; stroke-linecap:butt; stroke-linejoin:round; stroke-width:4; stroke-opacity:1; fill:none" points="
  1181.5,1163.41 1181.5,412.824 
  "/>
<polyline clip-path="url(#clip613)" style="stroke:#000000; stroke-linecap:butt; stroke-linejoin:round; stroke-width:4; stroke-opacity:1; fill:none" points="
  626.99,1377.98 626.99,374.822 
  "/>
<polyline clip-path="url(#clip613)" style="stroke:#000000; stroke-linecap:butt; stroke-linejoin:round; stroke-width:4; stroke-opacity:1; fill:none" points="
  1459.54,1328.66 1459.54,538.784 
  "/>
<polyline clip-path="url(#clip613)" style="stroke:#000000; stroke-linecap:butt; stroke-linejoin:round; stroke-width:4; stroke-opacity:1; fill:none" points="
  2294.47,1128.34 2294.47,470.671 
  "/>
<polyline clip-path="url(#clip613)" style="stroke:#000000; stroke-linecap:butt; stroke-linejoin:round; stroke-width:4; stroke-opacity:1; fill:none" points="
  903.857,1189.25 903.857,407.659 
  "/>
<line clip-path="url(#clip613)" x1="2032.09" y1="1205.21" x2="2000.09" y2="1205.21" style="stroke:#000000; stroke-width:3.2; stroke-opacity:1"/>
<line clip-path="url(#clip613)" x1="2032.09" y1="508.664" x2="2000.09" y2="508.664" style="stroke:#000000; stroke-width:3.2; stroke-opacity:1"/>
<line clip-path="url(#clip613)" x1="367.666" y1="954.19" x2="335.666" y2="954.19" style="stroke:#000000; stroke-width:3.2; stroke-opacity:1"/>
<line clip-path="url(#clip613)" x1="367.666" y1="86.0033" x2="335.666" y2="86.0033" style="stroke:#000000; stroke-width:3.2; stroke-opacity:1"/>
<line clip-path="url(#clip613)" x1="1753.77" y1="1362.04" x2="1721.77" y2="1362.04" style="stroke:#000000; stroke-width:3.2; stroke-opacity:1"/>
<line clip-path="url(#clip613)" x1="1753.77" y1="530.503" x2="1721.77" y2="530.503" style="stroke:#000000; stroke-width:3.2; stroke-opacity:1"/>
<line clip-path="url(#clip613)" x1="1197.5" y1="1163.41" x2="1165.5" y2="1163.41" style="stroke:#000000; stroke-width:3.2; stroke-opacity:1"/>
<line clip-path="url(#clip613)" x1="1197.5" y1="412.824" x2="1165.5" y2="412.824" style="stroke:#000000; stroke-width:3.2; stroke-opacity:1"/>
<line clip-path="url(#clip613)" x1="642.99" y1="1377.98" x2="610.99" y2="1377.98" style="stroke:#000000; stroke-width:3.2; stroke-opacity:1"/>
<line clip-path="url(#clip613)" x1="642.99" y1="374.822" x2="610.99" y2="374.822" style="stroke:#000000; stroke-width:3.2; stroke-opacity:1"/>
<line clip-path="url(#clip613)" x1="1475.54" y1="1328.66" x2="1443.54" y2="1328.66" style="stroke:#000000; stroke-width:3.2; stroke-opacity:1"/>
<line clip-path="url(#clip613)" x1="1475.54" y1="538.784" x2="1443.54" y2="538.784" style="stroke:#000000; stroke-width:3.2; stroke-opacity:1"/>
<line clip-path="url(#clip613)" x1="2310.47" y1="1128.34" x2="2278.47" y2="1128.34" style="stroke:#000000; stroke-width:3.2; stroke-opacity:1"/>
<line clip-path="url(#clip613)" x1="2310.47" y1="470.671" x2="2278.47" y2="470.671" style="stroke:#000000; stroke-width:3.2; stroke-opacity:1"/>
<line clip-path="url(#clip613)" x1="919.857" y1="1189.25" x2="887.857" y2="1189.25" style="stroke:#000000; stroke-width:3.2; stroke-opacity:1"/>
<line clip-path="url(#clip613)" x1="919.857" y1="407.659" x2="887.857" y2="407.659" style="stroke:#000000; stroke-width:3.2; stroke-opacity:1"/>
<line clip-path="url(#clip613)" x1="2032.09" y1="856.935" x2="2000.09" y2="856.935" style="stroke:#000000; stroke-width:3.2; stroke-opacity:1"/>
<line clip-path="url(#clip613)" x1="367.666" y1="520.097" x2="335.666" y2="520.097" style="stroke:#000000; stroke-width:3.2; stroke-opacity:1"/>
<line clip-path="url(#clip613)" x1="1753.77" y1="946.274" x2="1721.77" y2="946.274" style="stroke:#000000; stroke-width:3.2; stroke-opacity:1"/>
<line clip-path="url(#clip613)" x1="1197.5" y1="788.118" x2="1165.5" y2="788.118" style="stroke:#000000; stroke-width:3.2; stroke-opacity:1"/>
<line clip-path="url(#clip613)" x1="642.99" y1="876.399" x2="610.99" y2="876.399" style="stroke:#000000; stroke-width:3.2; stroke-opacity:1"/>
<line clip-path="url(#clip613)" x1="1475.54" y1="933.723" x2="1443.54" y2="933.723" style="stroke:#000000; stroke-width:3.2; stroke-opacity:1"/>
<line clip-path="url(#clip613)" x1="2310.47" y1="799.506" x2="2278.47" y2="799.506" style="stroke:#000000; stroke-width:3.2; stroke-opacity:1"/>
<line clip-path="url(#clip613)" x1="919.857" y1="798.453" x2="887.857" y2="798.453" style="stroke:#000000; stroke-width:3.2; stroke-opacity:1"/>
</svg>
