<?xml version="1.0" encoding="utf-8"?>
<svg xmlns="http://www.w3.org/2000/svg" xmlns:xlink="http://www.w3.org/1999/xlink" width="600" height="400" viewBox="0 0 2400 1600">
<defs>
  <clipPath id="clip700">
    <rect x="0" y="0" width="2400" height="1600"/>
  </clipPath>
</defs>
<path clip-path="url(#clip700)" d="
M0 1600 L2400 1600 L2400 0 L0 0  Z
  " fill="#000000" fill-rule="evenodd" fill-opacity="0"/>
<defs>
  <clipPath id="clip701">
    <rect x="480" y="0" width="1681" height="1600"/>
  </clipPath>
</defs>
<defs>
  <clipPath id="clip702">
    <rect x="294" y="47" width="2059" height="1370"/>
  </clipPath>
</defs>
<path clip-path="url(#clip700)" d="
M296.791 1416.74 L2352.76 1416.74 L2352.76 47.2441 L296.791 47.2441  Z
  " fill="#000000" fill-rule="evenodd" fill-opacity="0"/>
<defs>
  <clipPath id="clip703">
    <rect x="296" y="47" width="2057" height="1370"/>
  </clipPath>
</defs>
<polyline clip-path="url(#clip700)" style="stroke:#000000; stroke-linecap:butt; stroke-linejoin:round; stroke-width:4; stroke-opacity:1; fill:none" points="
  296.791,1416.74 2352.76,1416.74 
  "/>
<polyline clip-path="url(#clip700)" style="stroke:#000000; stroke-linecap:butt; stroke-linejoin:round; stroke-width:4; stroke-opacity:1; fill:none" points="
  418.253,1416.74 418.253,1400.3 
  "/>
<polyline clip-path="url(#clip700)" style="stroke:#000000; stroke-linecap:butt; stroke-linejoin:round; stroke-width:4; stroke-opacity:1; fill:none" points="
  765.709,1416.74 765.709,1400.3 
  "/>
<polyline clip-path="url(#clip700)" style="stroke:#000000; stroke-linecap:butt; stroke-linejoin:round; stroke-width:4; stroke-opacity:1; fill:none" points="
  1113.17,1416.74 1113.17,1400.3 
  "/>
<polyline clip-path="url(#clip700)" style="stroke:#000000; stroke-linecap:butt; stroke-linejoin:round; stroke-width:4; stroke-opacity:1; fill:none" points="
  1460.62,1416.74 1460.62,1400.3 
  "/>
<polyline clip-path="url(#clip700)" style="stroke:#000000; stroke-linecap:butt; stroke-linejoin:round; stroke-width:4; stroke-opacity:1; fill:none" points="
  1808.08,1416.74 1808.08,1400.3 
  "/>
<polyline clip-path="url(#clip700)" style="stroke:#000000; stroke-linecap:butt; stroke-linejoin:round; stroke-width:4; stroke-opacity:1; fill:none" points="
  2155.54,1416.74 2155.54,1400.3 
  "/>
<path clip-path="url(#clip700)" d="M370.822 1473.47 L378.461 1473.47 L378.461 1447.11 L370.151 1448.77 L370.151 1444.52 L378.415 1442.85 L383.091 1442.85 L383.091 1473.47 L390.73 1473.47 L390.73 1477.41 L370.822 1477.41 L370.822 1473.47 Z" fill="#000000" fill-rule="evenodd" fill-opacity="1" /><path clip-path="url(#clip700)" d="M404.202 1473.47 L420.521 1473.47 L420.521 1477.41 L398.577 1477.41 L398.577 1473.47 Q401.239 1470.72 405.822 1466.09 Q410.429 1461.44 411.609 1460.09 Q413.855 1457.57 414.734 1455.83 Q415.637 1454.08 415.637 1452.39 Q415.637 1449.63 413.693 1447.89 Q411.771 1446.16 408.669 1446.16 Q406.47 1446.16 404.017 1446.92 Q401.586 1447.69 398.808 1449.24 L398.808 1444.52 Q401.632 1443.38 404.086 1442.8 Q406.54 1442.22 408.577 1442.22 Q413.947 1442.22 417.142 1444.91 Q420.336 1447.59 420.336 1452.08 Q420.336 1454.21 419.526 1456.14 Q418.739 1458.03 416.632 1460.63 Q416.054 1461.3 412.952 1464.52 Q409.85 1467.71 404.202 1473.47 Z" fill="#000000" fill-rule="evenodd" fill-opacity="1" /><path clip-path="url(#clip700)" d="M430.336 1471.53 L435.22 1471.53 L435.22 1477.41 L430.336 1477.41 L430.336 1471.53 Z" fill="#000000" fill-rule="evenodd" fill-opacity="1" /><path clip-path="url(#clip700)" d="M445.452 1442.85 L463.808 1442.85 L463.808 1446.78 L449.734 1446.78 L449.734 1455.26 Q450.752 1454.91 451.771 1454.75 Q452.79 1454.56 453.808 1454.56 Q459.595 1454.56 462.975 1457.73 Q466.354 1460.9 466.354 1466.32 Q466.354 1471.9 462.882 1475 Q459.41 1478.08 453.09 1478.08 Q450.915 1478.08 448.646 1477.71 Q446.401 1477.34 443.993 1476.6 L443.993 1471.9 Q446.077 1473.03 448.299 1473.59 Q450.521 1474.14 452.998 1474.14 Q457.002 1474.14 459.34 1472.04 Q461.678 1469.93 461.678 1466.32 Q461.678 1462.71 459.34 1460.6 Q457.002 1458.5 452.998 1458.5 Q451.123 1458.5 449.248 1458.91 Q447.396 1459.33 445.452 1460.21 L445.452 1442.85 Z" fill="#000000" fill-rule="evenodd" fill-opacity="1" /><path clip-path="url(#clip700)" d="M717.781 1473.47 L725.42 1473.47 L725.42 1447.11 L717.11 1448.77 L717.11 1444.52 L725.374 1442.85 L730.05 1442.85 L730.05 1473.47 L737.689 1473.47 L737.689 1477.41 L717.781 1477.41 L717.781 1473.47 Z" fill="#000000" fill-rule="evenodd" fill-opacity="1" /><path clip-path="url(#clip700)" d="M747.179 1442.85 L765.536 1442.85 L765.536 1446.78 L751.462 1446.78 L751.462 1455.26 Q752.48 1454.91 753.499 1454.75 Q754.517 1454.56 755.536 1454.56 Q761.323 1454.56 764.703 1457.73 Q768.082 1460.9 768.082 1466.32 Q768.082 1471.9 764.61 1475 Q761.138 1478.08 754.818 1478.08 Q752.642 1478.08 750.374 1477.71 Q748.129 1477.34 745.721 1476.6 L745.721 1471.9 Q747.804 1473.03 750.027 1473.59 Q752.249 1474.14 754.726 1474.14 Q758.73 1474.14 761.068 1472.04 Q763.406 1469.93 763.406 1466.32 Q763.406 1462.71 761.068 1460.6 Q758.73 1458.5 754.726 1458.5 Q752.851 1458.5 750.976 1458.91 Q749.124 1459.33 747.179 1460.21 L747.179 1442.85 Z" fill="#000000" fill-rule="evenodd" fill-opacity="1" /><path clip-path="url(#clip700)" d="M777.295 1471.53 L782.179 1471.53 L782.179 1477.41 L777.295 1477.41 L777.295 1471.53 Z" fill="#000000" fill-rule="evenodd" fill-opacity="1" /><path clip-path="url(#clip700)" d="M802.364 1445.93 Q798.753 1445.93 796.925 1449.49 Q795.119 1453.03 795.119 1460.16 Q795.119 1467.27 796.925 1470.83 Q798.753 1474.38 802.364 1474.38 Q805.999 1474.38 807.804 1470.83 Q809.633 1467.27 809.633 1460.16 Q809.633 1453.03 807.804 1449.49 Q805.999 1445.93 802.364 1445.93 M802.364 1442.22 Q808.175 1442.22 811.23 1446.83 Q814.309 1451.41 814.309 1460.16 Q814.309 1468.89 811.23 1473.5 Q808.175 1478.08 802.364 1478.08 Q796.554 1478.08 793.476 1473.5 Q790.42 1468.89 790.42 1460.16 Q790.42 1451.41 793.476 1446.83 Q796.554 1442.22 802.364 1442.22 Z" fill="#000000" fill-rule="evenodd" fill-opacity="1" /><path clip-path="url(#clip700)" d="M1065.74 1473.47 L1073.37 1473.47 L1073.37 1447.11 L1065.06 1448.77 L1065.06 1444.52 L1073.33 1442.85 L1078 1442.85 L1078 1473.47 L1085.64 1473.47 L1085.64 1477.41 L1065.74 1477.41 L1065.74 1473.47 Z" fill="#000000" fill-rule="evenodd" fill-opacity="1" /><path clip-path="url(#clip700)" d="M1093.91 1442.85 L1116.13 1442.85 L1116.13 1444.84 L1103.58 1477.41 L1098.7 1477.41 L1110.5 1446.78 L1093.91 1446.78 L1093.91 1442.85 Z" fill="#000000" fill-rule="evenodd" fill-opacity="1" /><path clip-path="url(#clip700)" d="M1125.25 1471.53 L1130.13 1471.53 L1130.13 1477.41 L1125.25 1477.41 L1125.25 1471.53 Z" fill="#000000" fill-rule="evenodd" fill-opacity="1" /><path clip-path="url(#clip700)" d="M1140.37 1442.85 L1158.72 1442.85 L1158.72 1446.78 L1144.65 1446.78 L1144.65 1455.26 Q1145.67 1454.91 1146.68 1454.75 Q1147.7 1454.56 1148.72 1454.56 Q1154.51 1454.56 1157.89 1457.73 Q1161.27 1460.9 1161.27 1466.32 Q1161.27 1471.9 1157.8 1475 Q1154.32 1478.08 1148 1478.08 Q1145.83 1478.08 1143.56 1477.71 Q1141.31 1477.34 1138.91 1476.6 L1138.91 1471.9 Q1140.99 1473.03 1143.21 1473.59 Q1145.43 1474.14 1147.91 1474.14 Q1151.92 1474.14 1154.25 1472.04 Q1156.59 1469.93 1156.59 1466.32 Q1156.59 1462.71 1154.25 1460.6 Q1151.92 1458.5 1147.91 1458.5 Q1146.04 1458.5 1144.16 1458.91 Q1142.31 1459.33 1140.37 1460.21 L1140.37 1442.85 Z" fill="#000000" fill-rule="evenodd" fill-opacity="1" /><path clip-path="url(#clip700)" d="M1416.78 1473.47 L1433.1 1473.47 L1433.1 1477.41 L1411.16 1477.41 L1411.16 1473.47 Q1413.82 1470.72 1418.4 1466.09 Q1423.01 1461.44 1424.19 1460.09 Q1426.43 1457.57 1427.31 1455.83 Q1428.22 1454.08 1428.22 1452.39 Q1428.22 1449.63 1426.27 1447.89 Q1424.35 1446.16 1421.25 1446.16 Q1419.05 1446.16 1416.6 1446.92 Q1414.16 1447.69 1411.39 1449.24 L1411.39 1444.52 Q1414.21 1443.38 1416.66 1442.8 Q1419.12 1442.22 1421.16 1442.22 Q1426.53 1442.22 1429.72 1444.91 Q1432.91 1447.59 1432.91 1452.08 Q1432.91 1454.21 1432.1 1456.14 Q1431.32 1458.03 1429.21 1460.63 Q1428.63 1461.3 1425.53 1464.52 Q1422.43 1467.71 1416.78 1473.47 Z" fill="#000000" fill-rule="evenodd" fill-opacity="1" /><path clip-path="url(#clip700)" d="M1452.91 1445.93 Q1449.3 1445.93 1447.47 1449.49 Q1445.67 1453.03 1445.67 1460.16 Q1445.67 1467.27 1447.47 1470.83 Q1449.3 1474.38 1452.91 1474.38 Q1456.55 1474.38 1458.35 1470.83 Q1460.18 1467.27 1460.18 1460.16 Q1460.18 1453.03 1458.35 1449.49 Q1456.55 1445.93 1452.91 1445.93 M1452.91 1442.22 Q1458.72 1442.22 1461.78 1446.83 Q1464.86 1451.41 1464.86 1460.16 Q1464.86 1468.89 1461.78 1473.5 Q1458.72 1478.08 1452.91 1478.08 Q1447.1 1478.08 1444.03 1473.5 Q1440.97 1468.89 1440.97 1460.16 Q1440.97 1451.41 1444.03 1446.83 Q1447.1 1442.22 1452.91 1442.22 Z" fill="#000000" fill-rule="evenodd" fill-opacity="1" /><path clip-path="url(#clip700)" d="M1473.08 1471.53 L1477.96 1471.53 L1477.96 1477.41 L1473.08 1477.41 L1473.08 1471.53 Z" fill="#000000" fill-rule="evenodd" fill-opacity="1" /><path clip-path="url(#clip700)" d="M1498.15 1445.93 Q1494.53 1445.93 1492.71 1449.49 Q1490.9 1453.03 1490.9 1460.16 Q1490.9 1467.27 1492.71 1470.83 Q1494.53 1474.38 1498.15 1474.38 Q1501.78 1474.38 1503.59 1470.83 Q1505.41 1467.27 1505.41 1460.16 Q1505.41 1453.03 1503.59 1449.49 Q1501.78 1445.93 1498.15 1445.93 M1498.15 1442.22 Q1503.96 1442.22 1507.01 1446.83 Q1510.09 1451.41 1510.09 1460.16 Q1510.09 1468.89 1507.01 1473.5 Q1503.96 1478.08 1498.15 1478.08 Q1492.34 1478.08 1489.26 1473.5 Q1486.2 1468.89 1486.2 1460.16 Q1486.2 1451.41 1489.26 1446.83 Q1492.34 1442.22 1498.15 1442.22 Z" fill="#000000" fill-rule="evenodd" fill-opacity="1" /><path clip-path="url(#clip700)" d="M1764.74 1473.47 L1781.05 1473.47 L1781.05 1477.41 L1759.11 1477.41 L1759.11 1473.47 Q1761.77 1470.72 1766.36 1466.09 Q1770.96 1461.44 1772.14 1460.09 Q1774.39 1457.57 1775.27 1455.83 Q1776.17 1454.08 1776.17 1452.39 Q1776.17 1449.63 1774.23 1447.89 Q1772.3 1446.16 1769.2 1446.16 Q1767 1446.16 1764.55 1446.92 Q1762.12 1447.69 1759.34 1449.24 L1759.34 1444.52 Q1762.17 1443.38 1764.62 1442.8 Q1767.07 1442.22 1769.11 1442.22 Q1774.48 1442.22 1777.67 1444.91 Q1780.87 1447.59 1780.87 1452.08 Q1780.87 1454.21 1780.06 1456.14 Q1779.27 1458.03 1777.17 1460.63 Q1776.59 1461.3 1773.49 1464.52 Q1770.38 1467.71 1764.74 1473.47 Z" fill="#000000" fill-rule="evenodd" fill-opacity="1" /><path clip-path="url(#clip700)" d="M1794.9 1473.47 L1811.22 1473.47 L1811.22 1477.41 L1789.27 1477.41 L1789.27 1473.47 Q1791.93 1470.72 1796.52 1466.09 Q1801.12 1461.44 1802.3 1460.09 Q1804.55 1457.57 1805.43 1455.83 Q1806.33 1454.08 1806.33 1452.39 Q1806.33 1449.63 1804.39 1447.89 Q1802.47 1446.16 1799.36 1446.16 Q1797.17 1446.16 1794.71 1446.92 Q1792.28 1447.69 1789.5 1449.24 L1789.5 1444.52 Q1792.33 1443.38 1794.78 1442.8 Q1797.23 1442.22 1799.27 1442.22 Q1804.64 1442.22 1807.84 1444.91 Q1811.03 1447.59 1811.03 1452.08 Q1811.03 1454.21 1810.22 1456.14 Q1809.43 1458.03 1807.33 1460.63 Q1806.75 1461.3 1803.65 1464.52 Q1800.55 1467.71 1794.9 1473.47 Z" fill="#000000" fill-rule="evenodd" fill-opacity="1" /><path clip-path="url(#clip700)" d="M1821.03 1471.53 L1825.92 1471.53 L1825.92 1477.41 L1821.03 1477.41 L1821.03 1471.53 Z" fill="#000000" fill-rule="evenodd" fill-opacity="1" /><path clip-path="url(#clip700)" d="M1836.15 1442.85 L1854.5 1442.85 L1854.5 1446.78 L1840.43 1446.78 L1840.43 1455.26 Q1841.45 1454.91 1842.47 1454.75 Q1843.48 1454.56 1844.5 1454.56 Q1850.29 1454.56 1853.67 1457.73 Q1857.05 1460.9 1857.05 1466.32 Q1857.05 1471.9 1853.58 1475 Q1850.11 1478.08 1843.79 1478.08 Q1841.61 1478.08 1839.34 1477.71 Q1837.1 1477.34 1834.69 1476.6 L1834.69 1471.9 Q1836.77 1473.03 1838.99 1473.59 Q1841.22 1474.14 1843.69 1474.14 Q1847.7 1474.14 1850.04 1472.04 Q1852.37 1469.93 1852.37 1466.32 Q1852.37 1462.71 1850.04 1460.6 Q1847.7 1458.5 1843.69 1458.5 Q1841.82 1458.5 1839.94 1458.91 Q1838.09 1459.33 1836.15 1460.21 L1836.15 1442.85 Z" fill="#000000" fill-rule="evenodd" fill-opacity="1" /><path clip-path="url(#clip700)" d="M2111.69 1473.47 L2128.01 1473.47 L2128.01 1477.41 L2106.07 1477.41 L2106.07 1473.47 Q2108.73 1470.72 2113.31 1466.09 Q2117.92 1461.44 2119.1 1460.09 Q2121.35 1457.57 2122.23 1455.83 Q2123.13 1454.08 2123.13 1452.39 Q2123.13 1449.63 2121.18 1447.89 Q2119.26 1446.16 2116.16 1446.16 Q2113.96 1446.16 2111.51 1446.92 Q2109.08 1447.69 2106.3 1449.24 L2106.3 1444.52 Q2109.12 1443.38 2111.58 1442.8 Q2114.03 1442.22 2116.07 1442.22 Q2121.44 1442.22 2124.63 1444.91 Q2127.83 1447.59 2127.83 1452.08 Q2127.83 1454.21 2127.02 1456.14 Q2126.23 1458.03 2124.12 1460.63 Q2123.55 1461.3 2120.44 1464.52 Q2117.34 1467.71 2111.69 1473.47 Z" fill="#000000" fill-rule="evenodd" fill-opacity="1" /><path clip-path="url(#clip700)" d="M2137.87 1442.85 L2156.23 1442.85 L2156.23 1446.78 L2142.16 1446.78 L2142.16 1455.26 Q2143.18 1454.91 2144.19 1454.75 Q2145.21 1454.56 2146.23 1454.56 Q2152.02 1454.56 2155.4 1457.73 Q2158.78 1460.9 2158.78 1466.32 Q2158.78 1471.9 2155.31 1475 Q2151.83 1478.08 2145.51 1478.08 Q2143.34 1478.08 2141.07 1477.71 Q2138.82 1477.34 2136.42 1476.6 L2136.42 1471.9 Q2138.5 1473.03 2140.72 1473.59 Q2142.94 1474.14 2145.42 1474.14 Q2149.43 1474.14 2151.76 1472.04 Q2154.1 1469.93 2154.1 1466.32 Q2154.1 1462.71 2151.76 1460.6 Q2149.43 1458.5 2145.42 1458.5 Q2143.55 1458.5 2141.67 1458.91 Q2139.82 1459.33 2137.87 1460.21 L2137.87 1442.85 Z" fill="#000000" fill-rule="evenodd" fill-opacity="1" /><path clip-path="url(#clip700)" d="M2167.99 1471.53 L2172.87 1471.53 L2172.87 1477.41 L2167.99 1477.41 L2167.99 1471.53 Z" fill="#000000" fill-rule="evenodd" fill-opacity="1" /><path clip-path="url(#clip700)" d="M2193.06 1445.93 Q2189.45 1445.93 2187.62 1449.49 Q2185.81 1453.03 2185.81 1460.16 Q2185.81 1467.27 2187.62 1470.83 Q2189.45 1474.38 2193.06 1474.38 Q2196.69 1474.38 2198.5 1470.83 Q2200.33 1467.27 2200.33 1460.16 Q2200.33 1453.03 2198.5 1449.49 Q2196.69 1445.93 2193.06 1445.93 M2193.06 1442.22 Q2198.87 1442.22 2201.93 1446.83 Q2205 1451.41 2205 1460.16 Q2205 1468.89 2201.93 1473.5 Q2198.87 1478.08 2193.06 1478.08 Q2187.25 1478.08 2184.17 1473.5 Q2181.12 1468.89 2181.12 1460.16 Q2181.12 1451.41 2184.17 1446.83 Q2187.25 1442.22 2193.06 1442.22 Z" fill="#000000" fill-rule="evenodd" fill-opacity="1" /><path clip-path="url(#clip700)" d="M1219.54 1554.17 L1219.54 1551.59 Q1224 1551.59 1225.03 1551.05 Q1226.05 1550.48 1226.05 1547.78 L1226.05 1504.12 Q1226.05 1501.01 1224.95 1500.23 Q1223.88 1499.45 1219.54 1499.45 L1219.54 1496.83 L1231.59 1495.92 L1231.59 1547.78 Q1231.59 1550.48 1232.65 1551.05 Q1233.72 1551.59 1238.15 1551.59 L1238.15 1554.17 Q1237.12 1554.17 1234.99 1554.09 Q1232.86 1554.01 1231.3 1553.96 Q1229.74 1553.92 1228.84 1553.92 Q1227.86 1553.92 1219.54 1554.17 Z" fill="#000000" fill-rule="evenodd" fill-opacity="1" /><path clip-path="url(#clip700)" d="M1248.09 1549.66 Q1242.55 1544.17 1242.55 1536.22 Q1242.55 1528.22 1247.96 1522.4 Q1253.42 1516.54 1261.2 1516.54 Q1268.83 1516.54 1274.28 1522.36 Q1279.77 1528.14 1279.77 1536.22 Q1279.77 1544.13 1274.24 1549.62 Q1268.75 1555.11 1261.12 1555.11 Q1253.66 1555.11 1248.09 1549.66 M1249.52 1535.52 Q1249.52 1543.68 1251.65 1547.37 Q1254.93 1552.98 1261.2 1552.98 Q1264.32 1552.98 1266.9 1551.3 Q1269.53 1549.62 1270.96 1546.79 Q1272.8 1543.1 1272.8 1535.52 Q1272.8 1527.44 1270.59 1523.88 Q1267.31 1518.43 1261.12 1518.43 Q1258.42 1518.43 1255.75 1519.86 Q1253.13 1521.26 1251.53 1524.04 Q1249.52 1527.73 1249.52 1535.52 Z" fill="#000000" fill-rule="evenodd" fill-opacity="1" /><path clip-path="url(#clip700)" d="M1284.12 1560.81 Q1284.12 1558.1 1286.17 1555.77 Q1288.26 1553.43 1291.87 1552.41 Q1288.18 1550.07 1288.18 1544.95 Q1288.18 1541.01 1290.76 1537.98 Q1286.83 1534.7 1286.83 1529.33 Q1286.83 1524.37 1290.76 1520.72 Q1294.7 1517.07 1300.44 1517.07 Q1305.48 1517.07 1309.33 1520.11 Q1313.35 1516.17 1318.23 1516.13 Q1320.4 1516.13 1321.42 1517.48 Q1322.49 1518.84 1322.49 1520.27 Q1322.49 1521.54 1321.67 1522.16 Q1320.89 1522.77 1320.07 1522.77 Q1319.05 1522.77 1318.31 1522.12 Q1317.61 1521.42 1317.61 1520.35 Q1317.61 1518.59 1318.97 1518.06 Q1318.72 1517.98 1318.15 1517.98 Q1314.05 1517.98 1310.56 1521.26 Q1314.01 1524.45 1314.01 1529.41 Q1314.01 1534.37 1310.07 1538.02 Q1306.14 1541.67 1300.44 1541.67 Q1295.72 1541.67 1292.12 1539.04 Q1290.68 1540.73 1290.68 1543.02 Q1290.68 1545.11 1291.95 1546.75 Q1293.22 1548.39 1295.15 1548.64 Q1295.72 1548.72 1301.42 1548.72 Q1304.78 1548.72 1306.63 1548.8 Q1308.47 1548.88 1311.1 1549.46 Q1313.76 1549.99 1315.85 1551.05 Q1321.3 1554.09 1321.34 1560.65 Q1321.34 1565.44 1315.81 1568.43 Q1310.32 1571.47 1302.69 1571.47 Q1294.99 1571.47 1289.54 1568.39 Q1284.12 1565.36 1284.12 1560.81 M1288.51 1560.81 Q1288.51 1564.25 1292.57 1566.88 Q1296.63 1569.54 1302.77 1569.54 Q1308.8 1569.54 1312.86 1566.92 Q1316.96 1564.33 1316.96 1560.81 Q1316.96 1558.31 1315.52 1556.71 Q1314.09 1555.11 1311.14 1554.46 Q1308.23 1553.84 1306.18 1553.72 Q1304.13 1553.6 1300.36 1553.6 L1295.4 1553.6 Q1292.53 1553.76 1290.52 1555.85 Q1288.51 1557.94 1288.51 1560.81 M1293.1 1529.41 Q1293.1 1539.74 1300.44 1539.74 Q1304.13 1539.74 1306.38 1536.38 Q1307.73 1534.13 1307.73 1529.33 Q1307.73 1519 1300.44 1519 Q1296.75 1519 1294.45 1522.36 Q1293.1 1524.62 1293.1 1529.41 Z" fill="#000000" fill-rule="evenodd" fill-opacity="1" /><path clip-path="url(#clip700)" d="M1331.07 1577.43 Q1331.07 1576.37 1331.15 1576.05 Q1331.27 1575.73 1331.73 1575.25 L1343 1562.68 Q1349.17 1555.74 1349.17 1549.68 Q1349.17 1545.75 1347.11 1542.94 Q1345.07 1540.13 1341.31 1540.13 Q1338.73 1540.13 1336.55 1541.7 Q1334.37 1543.28 1333.36 1546.09 Q1333.54 1546.04 1334.14 1546.04 Q1335.6 1546.04 1336.41 1546.96 Q1337.24 1547.87 1337.24 1549.11 Q1337.24 1550.69 1336.2 1551.46 Q1335.2 1552.21 1334.2 1552.21 Q1333.79 1552.21 1333.25 1552.12 Q1332.73 1552.03 1331.9 1551.23 Q1331.07 1550.4 1331.07 1548.94 Q1331.07 1544.83 1334.17 1541.56 Q1337.3 1538.29 1342.06 1538.29 Q1347.45 1538.29 1350.98 1541.5 Q1354.54 1544.69 1354.54 1549.68 Q1354.54 1551.43 1353.99 1553.04 Q1353.48 1554.62 1352.76 1555.85 Q1352.07 1557.08 1350.18 1559.06 Q1348.28 1561.04 1346.76 1562.45 Q1345.24 1563.86 1341.83 1566.84 L1335.6 1572.89 L1346.19 1572.89 Q1351.35 1572.89 1351.76 1572.43 Q1352.33 1571.6 1353.05 1567.21 L1354.54 1567.21 L1352.88 1577.43 L1331.07 1577.43 Z" fill="#000000" fill-rule="evenodd" fill-opacity="1" /><path clip-path="url(#clip700)" d="M1433.94 1497.77 Q1433.94 1499.45 1432.5 1499.45 Q1427.87 1499.61 1425.98 1501.17 Q1424.14 1502.69 1423.44 1505.64 L1411.72 1552.41 Q1411.31 1553.88 1411.06 1554.05 Q1410.82 1554.17 1410.37 1554.17 Q1409.79 1554.17 1409.47 1553.88 Q1409.18 1553.6 1408.77 1552.57 L1387.86 1503.14 Q1387.7 1502.81 1387.5 1502.36 Q1387.29 1501.91 1387.13 1501.62 L1376.02 1545.93 Q1375.69 1547.2 1375.69 1547.86 Q1375.69 1549.46 1376.8 1550.48 Q1377.95 1551.46 1381.22 1551.59 Q1382.9 1551.59 1382.9 1552.49 Q1382.9 1554.17 1381.39 1554.17 Q1379.99 1554.17 1377.08 1554.05 Q1374.17 1553.92 1372.74 1553.92 Q1371.35 1553.92 1368.52 1554.05 Q1365.69 1554.17 1364.34 1554.17 Q1363.27 1554.17 1363.27 1553.23 Q1363.27 1552.49 1363.56 1552.12 Q1363.84 1551.71 1364.09 1551.67 Q1364.34 1551.59 1364.71 1551.59 Q1367.16 1551.51 1368.85 1551.01 Q1370.53 1550.52 1371.47 1549.58 Q1372.45 1548.64 1372.9 1547.69 Q1373.4 1546.71 1373.76 1545.27 L1385 1500.19 Q1385 1499.45 1379.3 1499.45 Q1378.31 1499.45 1377.9 1499.41 Q1377.54 1499.37 1377.25 1499.16 Q1376.96 1498.96 1376.96 1498.51 Q1376.96 1497.36 1377.45 1497.11 Q1377.95 1496.83 1379.38 1496.83 L1390.65 1496.83 Q1392.09 1496.83 1392.46 1497.07 Q1392.82 1497.28 1393.32 1498.42 L1411.88 1542.24 L1421.27 1504.9 Q1421.52 1504.16 1421.52 1503.14 Q1421.52 1501.5 1420.29 1500.51 Q1419.1 1499.49 1415.82 1499.45 Q1414.3 1499.45 1414.3 1498.51 Q1414.3 1497.73 1414.59 1497.36 Q1414.92 1496.95 1415.16 1496.91 Q1415.45 1496.83 1415.82 1496.83 Q1417.21 1496.83 1420.08 1496.95 Q1422.95 1497.07 1424.39 1497.07 Q1425.78 1497.07 1428.61 1496.95 Q1431.48 1496.83 1432.87 1496.83 Q1433.36 1496.83 1433.61 1497.07 Q1433.9 1497.28 1433.94 1497.52 L1433.94 1497.77 Z" fill="#000000" fill-rule="evenodd" fill-opacity="1" /><polyline clip-path="url(#clip700)" style="stroke:#000000; stroke-linecap:butt; stroke-linejoin:round; stroke-width:4; stroke-opacity:1; fill:none" points="
  296.791,1416.74 296.791,47.2441 
  "/>
<polyline clip-path="url(#clip700)" style="stroke:#000000; stroke-linecap:butt; stroke-linejoin:round; stroke-width:4; stroke-opacity:1; fill:none" points="
  296.791,1218.8 321.463,1218.8 
  "/>
<polyline clip-path="url(#clip700)" style="stroke:#000000; stroke-linecap:butt; stroke-linejoin:round; stroke-width:4; stroke-opacity:1; fill:none" points="
  296.791,953.873 321.463,953.873 
  "/>
<polyline clip-path="url(#clip700)" style="stroke:#000000; stroke-linecap:butt; stroke-linejoin:round; stroke-width:4; stroke-opacity:1; fill:none" points="
  296.791,688.946 321.463,688.946 
  "/>
<polyline clip-path="url(#clip700)" style="stroke:#000000; stroke-linecap:butt; stroke-linejoin:round; stroke-width:4; stroke-opacity:1; fill:none" points="
  296.791,424.019 321.463,424.019 
  "/>
<polyline clip-path="url(#clip700)" style="stroke:#000000; stroke-linecap:butt; stroke-linejoin:round; stroke-width:4; stroke-opacity:1; fill:none" points="
  296.791,159.092 321.463,159.092 
  "/>
<path clip-path="url(#clip700)" d="M123.685 1219.25 L153.361 1219.25 L153.361 1223.19 L123.685 1223.19 L123.685 1219.25 Z" fill="#000000" fill-rule="evenodd" fill-opacity="1" /><path clip-path="url(#clip700)" d="M173.454 1204.6 Q169.843 1204.6 168.014 1208.16 Q166.208 1211.7 166.208 1218.83 Q166.208 1225.94 168.014 1229.51 Q169.843 1233.05 173.454 1233.05 Q177.088 1233.05 178.893 1229.51 Q180.722 1225.94 180.722 1218.83 Q180.722 1211.7 178.893 1208.16 Q177.088 1204.6 173.454 1204.6 M173.454 1200.89 Q179.264 1200.89 182.319 1205.5 Q185.398 1210.08 185.398 1218.83 Q185.398 1227.56 182.319 1232.17 Q179.264 1236.75 173.454 1236.75 Q167.643 1236.75 164.565 1232.17 Q161.509 1227.56 161.509 1218.83 Q161.509 1210.08 164.565 1205.5 Q167.643 1200.89 173.454 1200.89 Z" fill="#000000" fill-rule="evenodd" fill-opacity="1" /><path clip-path="url(#clip700)" d="M193.616 1230.2 L198.5 1230.2 L198.5 1236.08 L193.616 1236.08 L193.616 1230.2 Z" fill="#000000" fill-rule="evenodd" fill-opacity="1" /><path clip-path="url(#clip700)" d="M209.495 1232.14 L217.134 1232.14 L217.134 1205.78 L208.824 1207.45 L208.824 1203.19 L217.088 1201.52 L221.764 1201.52 L221.764 1232.14 L229.402 1232.14 L229.402 1236.08 L209.495 1236.08 L209.495 1232.14 Z" fill="#000000" fill-rule="evenodd" fill-opacity="1" /><path clip-path="url(#clip700)" d="M248.847 1204.6 Q245.236 1204.6 243.407 1208.16 Q241.601 1211.7 241.601 1218.83 Q241.601 1225.94 243.407 1229.51 Q245.236 1233.05 248.847 1233.05 Q252.481 1233.05 254.287 1229.51 Q256.115 1225.94 256.115 1218.83 Q256.115 1211.7 254.287 1208.16 Q252.481 1204.6 248.847 1204.6 M248.847 1200.89 Q254.657 1200.89 257.712 1205.5 Q260.791 1210.08 260.791 1218.83 Q260.791 1227.56 257.712 1232.17 Q254.657 1236.75 248.847 1236.75 Q243.037 1236.75 239.958 1232.17 Q236.902 1227.56 236.902 1218.83 Q236.902 1210.08 239.958 1205.5 Q243.037 1200.89 248.847 1200.89 Z" fill="#000000" fill-rule="evenodd" fill-opacity="1" /><path clip-path="url(#clip700)" d="M124.681 954.324 L154.356 954.324 L154.356 958.259 L124.681 958.259 L124.681 954.324 Z" fill="#000000" fill-rule="evenodd" fill-opacity="1" /><path clip-path="url(#clip700)" d="M174.449 939.671 Q170.838 939.671 169.009 943.236 Q167.204 946.778 167.204 953.908 Q167.204 961.014 169.009 964.579 Q170.838 968.12 174.449 968.12 Q178.083 968.12 179.889 964.579 Q181.717 961.014 181.717 953.908 Q181.717 946.778 179.889 943.236 Q178.083 939.671 174.449 939.671 M174.449 935.968 Q180.259 935.968 183.315 940.574 Q186.393 945.158 186.393 953.908 Q186.393 962.634 183.315 967.241 Q180.259 971.824 174.449 971.824 Q168.639 971.824 165.56 967.241 Q162.505 962.634 162.505 953.908 Q162.505 945.158 165.56 940.574 Q168.639 935.968 174.449 935.968 Z" fill="#000000" fill-rule="evenodd" fill-opacity="1" /><path clip-path="url(#clip700)" d="M194.611 965.273 L199.495 965.273 L199.495 971.153 L194.611 971.153 L194.611 965.273 Z" fill="#000000" fill-rule="evenodd" fill-opacity="1" /><path clip-path="url(#clip700)" d="M219.68 939.671 Q216.069 939.671 214.24 943.236 Q212.435 946.778 212.435 953.908 Q212.435 961.014 214.24 964.579 Q216.069 968.12 219.68 968.12 Q223.314 968.12 225.12 964.579 Q226.949 961.014 226.949 953.908 Q226.949 946.778 225.12 943.236 Q223.314 939.671 219.68 939.671 M219.68 935.968 Q225.49 935.968 228.546 940.574 Q231.625 945.158 231.625 953.908 Q231.625 962.634 228.546 967.241 Q225.49 971.824 219.68 971.824 Q213.87 971.824 210.791 967.241 Q207.736 962.634 207.736 953.908 Q207.736 945.158 210.791 940.574 Q213.87 935.968 219.68 935.968 Z" fill="#000000" fill-rule="evenodd" fill-opacity="1" /><path clip-path="url(#clip700)" d="M239.888 936.593 L258.245 936.593 L258.245 940.528 L244.171 940.528 L244.171 949 Q245.189 948.653 246.208 948.491 Q247.226 948.306 248.245 948.306 Q254.032 948.306 257.412 951.477 Q260.791 954.648 260.791 960.065 Q260.791 965.644 257.319 968.745 Q253.847 971.824 247.527 971.824 Q245.351 971.824 243.083 971.454 Q240.838 971.083 238.43 970.343 L238.43 965.644 Q240.513 966.778 242.736 967.333 Q244.958 967.889 247.435 967.889 Q251.439 967.889 253.777 965.782 Q256.115 963.676 256.115 960.065 Q256.115 956.454 253.777 954.347 Q251.439 952.241 247.435 952.241 Q245.56 952.241 243.685 952.658 Q241.833 953.074 239.888 953.954 L239.888 936.593 Z" fill="#000000" fill-rule="evenodd" fill-opacity="1" /><path clip-path="url(#clip700)" d="M173.454 674.745 Q169.843 674.745 168.014 678.309 Q166.208 681.851 166.208 688.981 Q166.208 696.087 168.014 699.652 Q169.843 703.194 173.454 703.194 Q177.088 703.194 178.893 699.652 Q180.722 696.087 180.722 688.981 Q180.722 681.851 178.893 678.309 Q177.088 674.745 173.454 674.745 M173.454 671.041 Q179.264 671.041 182.319 675.647 Q185.398 680.231 185.398 688.981 Q185.398 697.708 182.319 702.314 Q179.264 706.897 173.454 706.897 Q167.643 706.897 164.565 702.314 Q161.509 697.708 161.509 688.981 Q161.509 680.231 164.565 675.647 Q167.643 671.041 173.454 671.041 Z" fill="#000000" fill-rule="evenodd" fill-opacity="1" /><path clip-path="url(#clip700)" d="M193.616 700.346 L198.5 700.346 L198.5 706.226 L193.616 706.226 L193.616 700.346 Z" fill="#000000" fill-rule="evenodd" fill-opacity="1" /><path clip-path="url(#clip700)" d="M218.685 674.745 Q215.074 674.745 213.245 678.309 Q211.44 681.851 211.44 688.981 Q211.44 696.087 213.245 699.652 Q215.074 703.194 218.685 703.194 Q222.319 703.194 224.125 699.652 Q225.953 696.087 225.953 688.981 Q225.953 681.851 224.125 678.309 Q222.319 674.745 218.685 674.745 M218.685 671.041 Q224.495 671.041 227.551 675.647 Q230.629 680.231 230.629 688.981 Q230.629 697.708 227.551 702.314 Q224.495 706.897 218.685 706.897 Q212.875 706.897 209.796 702.314 Q206.74 697.708 206.74 688.981 Q206.74 680.231 209.796 675.647 Q212.875 671.041 218.685 671.041 Z" fill="#000000" fill-rule="evenodd" fill-opacity="1" /><path clip-path="url(#clip700)" d="M248.847 674.745 Q245.236 674.745 243.407 678.309 Q241.601 681.851 241.601 688.981 Q241.601 696.087 243.407 699.652 Q245.236 703.194 248.847 703.194 Q252.481 703.194 254.287 699.652 Q256.115 696.087 256.115 688.981 Q256.115 681.851 254.287 678.309 Q252.481 674.745 248.847 674.745 M248.847 671.041 Q254.657 671.041 257.712 675.647 Q260.791 680.231 260.791 688.981 Q260.791 697.708 257.712 702.314 Q254.657 706.897 248.847 706.897 Q243.037 706.897 239.958 702.314 Q236.902 697.708 236.902 688.981 Q236.902 680.231 239.958 675.647 Q243.037 671.041 248.847 671.041 Z" fill="#000000" fill-rule="evenodd" fill-opacity="1" /><path clip-path="url(#clip700)" d="M174.449 409.818 Q170.838 409.818 169.009 413.383 Q167.204 416.924 167.204 424.054 Q167.204 431.16 169.009 434.725 Q170.838 438.267 174.449 438.267 Q178.083 438.267 179.889 434.725 Q181.717 431.16 181.717 424.054 Q181.717 416.924 179.889 413.383 Q178.083 409.818 174.449 409.818 M174.449 406.114 Q180.259 406.114 183.315 410.721 Q186.393 415.304 186.393 424.054 Q186.393 432.781 183.315 437.387 Q180.259 441.97 174.449 441.97 Q168.639 441.97 165.56 437.387 Q162.505 432.781 162.505 424.054 Q162.505 415.304 165.56 410.721 Q168.639 406.114 174.449 406.114 Z" fill="#000000" fill-rule="evenodd" fill-opacity="1" /><path clip-path="url(#clip700)" d="M194.611 435.42 L199.495 435.42 L199.495 441.299 L194.611 441.299 L194.611 435.42 Z" fill="#000000" fill-rule="evenodd" fill-opacity="1" /><path clip-path="url(#clip700)" d="M219.68 409.818 Q216.069 409.818 214.24 413.383 Q212.435 416.924 212.435 424.054 Q212.435 431.16 214.24 434.725 Q216.069 438.267 219.68 438.267 Q223.314 438.267 225.12 434.725 Q226.949 431.16 226.949 424.054 Q226.949 416.924 225.12 413.383 Q223.314 409.818 219.68 409.818 M219.68 406.114 Q225.49 406.114 228.546 410.721 Q231.625 415.304 231.625 424.054 Q231.625 432.781 228.546 437.387 Q225.49 441.97 219.68 441.97 Q213.87 441.97 210.791 437.387 Q207.736 432.781 207.736 424.054 Q207.736 415.304 210.791 410.721 Q213.87 406.114 219.68 406.114 Z" fill="#000000" fill-rule="evenodd" fill-opacity="1" /><path clip-path="url(#clip700)" d="M239.888 406.739 L258.245 406.739 L258.245 410.674 L244.171 410.674 L244.171 419.147 Q245.189 418.799 246.208 418.637 Q247.226 418.452 248.245 418.452 Q254.032 418.452 257.412 421.623 Q260.791 424.795 260.791 430.211 Q260.791 435.79 257.319 438.892 Q253.847 441.97 247.527 441.97 Q245.351 441.97 243.083 441.6 Q240.838 441.23 238.43 440.489 L238.43 435.79 Q240.513 436.924 242.736 437.48 Q244.958 438.035 247.435 438.035 Q251.439 438.035 253.777 435.929 Q256.115 433.822 256.115 430.211 Q256.115 426.6 253.777 424.494 Q251.439 422.387 247.435 422.387 Q245.56 422.387 243.685 422.804 Q241.833 423.221 239.888 424.1 L239.888 406.739 Z" fill="#000000" fill-rule="evenodd" fill-opacity="1" /><path clip-path="url(#clip700)" d="M173.454 144.891 Q169.843 144.891 168.014 148.456 Q166.208 151.998 166.208 159.127 Q166.208 166.234 168.014 169.798 Q169.843 173.34 173.454 173.34 Q177.088 173.34 178.893 169.798 Q180.722 166.234 180.722 159.127 Q180.722 151.998 178.893 148.456 Q177.088 144.891 173.454 144.891 M173.454 141.187 Q179.264 141.187 182.319 145.794 Q185.398 150.377 185.398 159.127 Q185.398 167.854 182.319 172.46 Q179.264 177.044 173.454 177.044 Q167.643 177.044 164.565 172.46 Q161.509 167.854 161.509 159.127 Q161.509 150.377 164.565 145.794 Q167.643 141.187 173.454 141.187 Z" fill="#000000" fill-rule="evenodd" fill-opacity="1" /><path clip-path="url(#clip700)" d="M193.616 170.493 L198.5 170.493 L198.5 176.372 L193.616 176.372 L193.616 170.493 Z" fill="#000000" fill-rule="evenodd" fill-opacity="1" /><path clip-path="url(#clip700)" d="M209.495 172.437 L217.134 172.437 L217.134 146.072 L208.824 147.738 L208.824 143.479 L217.088 141.812 L221.764 141.812 L221.764 172.437 L229.402 172.437 L229.402 176.372 L209.495 176.372 L209.495 172.437 Z" fill="#000000" fill-rule="evenodd" fill-opacity="1" /><path clip-path="url(#clip700)" d="M248.847 144.891 Q245.236 144.891 243.407 148.456 Q241.601 151.998 241.601 159.127 Q241.601 166.234 243.407 169.798 Q245.236 173.34 248.847 173.34 Q252.481 173.34 254.287 169.798 Q256.115 166.234 256.115 159.127 Q256.115 151.998 254.287 148.456 Q252.481 144.891 248.847 144.891 M248.847 141.187 Q254.657 141.187 257.712 145.794 Q260.791 150.377 260.791 159.127 Q260.791 167.854 257.712 172.46 Q254.657 177.044 248.847 177.044 Q243.037 177.044 239.958 172.46 Q236.902 167.854 236.902 159.127 Q236.902 150.377 239.958 145.794 Q243.037 141.187 248.847 141.187 Z" fill="#000000" fill-rule="evenodd" fill-opacity="1" /><path clip-path="url(#clip700)" d="M68.6444 732.531 Q69.4232 732.531 69.8331 732.859 Q70.202 733.146 70.284 733.433 Q70.325 733.679 70.325 734.048 Q70.325 735.114 70.202 738.803 Q70.079 742.492 70.079 743.558 Q70.079 745.279 70.202 748.804 Q70.325 752.329 70.325 754.051 Q70.325 755.199 69.3822 755.199 Q68.7674 755.199 68.4395 755.076 Q68.0705 754.953 67.9476 754.625 Q67.7836 754.256 67.7836 754.051 Q67.7426 753.805 67.7426 753.19 Q67.7426 752.37 67.6607 751.509 Q67.5377 750.649 67.2918 749.583 Q67.0458 748.517 66.431 747.861 Q65.8161 747.165 64.9554 747.165 Q64.5865 747.165 61.5533 747.452 Q58.52 747.738 54.995 748.107 Q51.4289 748.476 50.937 748.517 L50.937 769.586 Q54.2572 771.512 56.5526 772.865 Q58.848 774.218 59.6268 774.709 Q60.4056 775.201 60.8974 775.488 Q61.3893 775.775 61.6762 775.939 Q63.8487 777.128 64.7914 777.128 Q67.4147 777.128 67.7426 773.193 Q67.7426 771.84 68.7264 771.84 Q69.4642 771.84 69.8741 772.168 Q70.243 772.496 70.284 772.783 Q70.325 773.029 70.325 773.439 Q70.325 774.791 70.202 777.62 Q70.079 780.448 70.079 781.842 Q70.079 783.03 70.202 785.49 Q70.325 787.949 70.325 789.056 Q70.325 789.548 70.038 789.834 Q69.7511 790.121 69.3822 790.121 Q68.8084 790.121 68.4804 790.039 Q68.1525 789.916 67.9886 789.589 Q67.8246 789.261 67.8246 789.097 Q67.7836 788.933 67.7426 788.359 Q67.5377 785.244 66.0621 782.825 Q64.5455 780.366 60.6515 778.03 L11.6283 748.845 Q11.1364 748.558 10.8905 748.353 Q10.6446 748.148 10.4396 747.738 Q10.2347 747.288 10.2347 746.632 Q10.2347 745.607 10.5626 745.402 Q10.8495 745.197 12.2432 745.074 L64.7094 739.951 Q65.8161 739.828 66.267 739.746 Q66.6769 739.623 67.1278 739.09 Q67.5377 738.516 67.6607 737.491 Q67.7426 736.425 67.7426 734.458 Q67.7426 733.72 67.7836 733.433 Q67.7836 733.146 67.9886 732.859 Q68.1935 732.531 68.6444 732.531 M48.3137 748.763 L20.646 751.428 L48.3137 767.987 L48.3137 748.763 Z" fill="#000000" fill-rule="evenodd" fill-opacity="1" /><path clip-path="url(#clip700)" d="M54.118 682.411 L69.0955 686.113 Q70.0424 686.371 70.1571 686.543 Q70.2719 686.686 70.2719 687.146 Q70.2719 688.035 69.6694 688.035 Q69.612 688.035 68.866 687.949 Q68.0913 687.863 66.6854 687.863 Q61.492 687.863 58.4219 690.388 Q55.3518 692.884 55.3518 697.331 Q55.3518 701.492 57.5324 705.48 Q59.7131 709.468 62.9266 712.022 Q65.5663 714.174 68.7799 715.666 Q71.9935 717.129 74.8053 717.732 Q77.5885 718.334 79.2814 718.564 Q80.9742 718.765 82.0645 718.765 Q85.2781 718.765 87.7743 717.732 Q90.2419 716.699 91.6478 714.977 Q93.0538 713.227 93.7424 711.219 Q94.431 709.181 94.431 706.972 Q94.431 706.14 94.3162 705.136 Q94.2015 704.131 93.7711 702.582 Q93.3407 701.004 92.6234 699.713 Q91.9061 698.393 90.5288 697.245 Q89.1516 696.069 87.3153 695.61 Q82.6384 694.376 81.9498 694.376 Q81.3759 694.376 81.1751 694.72 Q80.9742 695.065 80.8308 696.212 L80.716 699.311 Q80.716 699.369 80.716 699.455 Q80.716 700 80.716 700.229 Q80.6873 700.459 80.6299 700.717 Q80.5725 700.947 80.4577 701.033 Q80.3143 701.09 80.0847 701.09 Q79.5396 701.09 79.2814 700.861 Q78.9944 700.631 78.9657 700.43 Q78.9084 700.229 78.9084 699.856 L79.0805 691.622 Q79.0805 690.962 78.9944 688.551 Q78.9084 686.141 78.9084 685.453 Q78.9084 684.678 79.5396 684.678 Q80.716 684.678 80.716 685.625 Q80.7447 686.572 80.7734 687.059 Q80.7734 687.547 80.9168 688.035 Q81.0603 688.494 81.1751 688.666 Q81.2611 688.838 81.6915 689.068 Q82.0932 689.297 82.4375 689.384 Q82.7531 689.47 83.5565 689.67 Q84.073 689.785 85.0485 690.072 Q86.0241 690.33 86.5406 690.445 L91.074 691.564 Q94.431 692.339 94.6605 692.568 Q94.8901 692.683 94.8901 692.97 Q94.8901 693.4 93.6276 694.319 Q92.3651 695.208 91.2461 695.61 Q92.0208 696.327 92.4799 696.786 Q92.9103 697.245 93.5989 698.307 Q94.2875 699.34 94.8327 700.717 Q96.2386 704.074 96.2386 708.062 Q96.2386 715.178 91.7339 719.654 Q87.2005 724.13 80.1421 724.13 Q75.1496 724.13 70.2432 721.835 Q65.3368 719.539 61.6929 715.895 Q58.0489 712.251 55.7822 707.431 Q53.5155 702.611 53.5155 697.79 Q53.5155 695.954 54.0033 694.319 Q54.491 692.683 55.0936 691.708 Q55.6961 690.703 56.5856 689.814 Q57.4464 688.924 57.8481 688.638 Q58.2498 688.322 58.7375 688.035 L54.2328 683.932 Q53.5155 683.215 53.5155 683.042 Q53.5155 682.698 53.7163 682.555 Q53.9172 682.411 54.118 682.411 Z" fill="#000000" fill-rule="evenodd" fill-opacity="1" /><polyline clip-path="url(#clip703)" style="stroke:#000000; stroke-linecap:butt; stroke-linejoin:round; stroke-width:4; stroke-opacity:1; fill:none" points="
  2016.65,742.792 2016.65,400.038 
  "/>
<polyline clip-path="url(#clip703)" style="stroke:#000000; stroke-linecap:butt; stroke-linejoin:round; stroke-width:4; stroke-opacity:1; fill:none" points="
  354.979,1377.98 354.979,86.0033 
  "/>
<polyline clip-path="url(#clip703)" style="stroke:#000000; stroke-linecap:butt; stroke-linejoin:round; stroke-width:4; stroke-opacity:1; fill:none" points="
  1738.78,785.549 1738.78,417.879 
  "/>
<polyline clip-path="url(#clip703)" style="stroke:#000000; stroke-linecap:butt; stroke-linejoin:round; stroke-width:4; stroke-opacity:1; fill:none" points="
  1183.44,802.668 1183.44,262.83 
  "/>
<polyline clip-path="url(#clip703)" style="stroke:#000000; stroke-linecap:butt; stroke-linejoin:round; stroke-width:4; stroke-opacity:1; fill:none" points="
  629.848,1173.32 629.848,263.229 
  "/>
<polyline clip-path="url(#clip703)" style="stroke:#000000; stroke-linecap:butt; stroke-linejoin:round; stroke-width:4; stroke-opacity:1; fill:none" points="
  1461.01,791.33 1461.01,357.953 
  "/>
<polyline clip-path="url(#clip703)" style="stroke:#000000; stroke-linecap:butt; stroke-linejoin:round; stroke-width:4; stroke-opacity:1; fill:none" points="
  2294.57,737.077 2294.57,380.535 
  "/>
<polyline clip-path="url(#clip703)" style="stroke:#000000; stroke-linecap:butt; stroke-linejoin:round; stroke-width:4; stroke-opacity:1; fill:none" points="
  906.256,981.513 906.256,282.982 
  "/>
<line clip-path="url(#clip703)" x1="2032.65" y1="742.792" x2="2000.65" y2="742.792" style="stroke:#000000; stroke-width:3.2; stroke-opacity:1"/>
<line clip-path="url(#clip703)" x1="2032.65" y1="400.038" x2="2000.65" y2="400.038" style="stroke:#000000; stroke-width:3.2; stroke-opacity:1"/>
<line clip-path="url(#clip703)" x1="370.979" y1="1377.98" x2="338.979" y2="1377.98" style="stroke:#000000; stroke-width:3.2; stroke-opacity:1"/>
<line clip-path="url(#clip703)" x1="370.979" y1="86.0033" x2="338.979" y2="86.0033" style="stroke:#000000; stroke-width:3.2; stroke-opacity:1"/>
<line clip-path="url(#clip703)" x1="1754.78" y1="785.549" x2="1722.78" y2="785.549" style="stroke:#000000; stroke-width:3.2; stroke-opacity:1"/>
<line clip-path="url(#clip703)" x1="1754.78" y1="417.879" x2="1722.78" y2="417.879" style="stroke:#000000; stroke-width:3.2; stroke-opacity:1"/>
<line clip-path="url(#clip703)" x1="1199.44" y1="802.668" x2="1167.44" y2="802.668" style="stroke:#000000; stroke-width:3.2; stroke-opacity:1"/>
<line clip-path="url(#clip703)" x1="1199.44" y1="262.83" x2="1167.44" y2="262.83" style="stroke:#000000; stroke-width:3.2; stroke-opacity:1"/>
<line clip-path="url(#clip703)" x1="645.848" y1="1173.32" x2="613.848" y2="1173.32" style="stroke:#000000; stroke-width:3.2; stroke-opacity:1"/>
<line clip-path="url(#clip703)" x1="645.848" y1="263.229" x2="613.848" y2="263.229" style="stroke:#000000; stroke-width:3.2; stroke-opacity:1"/>
<line clip-path="url(#clip703)" x1="1477.01" y1="791.33" x2="1445.01" y2="791.33" style="stroke:#000000; stroke-width:3.2; stroke-opacity:1"/>
<line clip-path="url(#clip703)" x1="1477.01" y1="357.953" x2="1445.01" y2="357.953" style="stroke:#000000; stroke-width:3.2; stroke-opacity:1"/>
<line clip-path="url(#clip703)" x1="2310.57" y1="737.077" x2="2278.57" y2="737.077" style="stroke:#000000; stroke-width:3.2; stroke-opacity:1"/>
<line clip-path="url(#clip703)" x1="2310.57" y1="380.535" x2="2278.57" y2="380.535" style="stroke:#000000; stroke-width:3.2; stroke-opacity:1"/>
<line clip-path="url(#clip703)" x1="922.256" y1="981.513" x2="890.256" y2="981.513" style="stroke:#000000; stroke-width:3.2; stroke-opacity:1"/>
<line clip-path="url(#clip703)" x1="922.256" y1="282.982" x2="890.256" y2="282.982" style="stroke:#000000; stroke-width:3.2; stroke-opacity:1"/>
<line clip-path="url(#clip703)" x1="2032.65" y1="571.415" x2="2000.65" y2="571.415" style="stroke:#000000; stroke-width:3.2; stroke-opacity:1"/>
<line clip-path="url(#clip703)" x1="370.979" y1="731.99" x2="338.979" y2="731.99" style="stroke:#000000; stroke-width:3.2; stroke-opacity:1"/>
<line clip-path="url(#clip703)" x1="1754.78" y1="601.714" x2="1722.78" y2="601.714" style="stroke:#000000; stroke-width:3.2; stroke-opacity:1"/>
<line clip-path="url(#clip703)" x1="1199.44" y1="532.749" x2="1167.44" y2="532.749" style="stroke:#000000; stroke-width:3.2; stroke-opacity:1"/>
<line clip-path="url(#clip703)" x1="645.848" y1="718.274" x2="613.848" y2="718.274" style="stroke:#000000; stroke-width:3.2; stroke-opacity:1"/>
<line clip-path="url(#clip703)" x1="1477.01" y1="574.641" x2="1445.01" y2="574.641" style="stroke:#000000; stroke-width:3.2; stroke-opacity:1"/>
<line clip-path="url(#clip703)" x1="2310.57" y1="558.806" x2="2278.57" y2="558.806" style="stroke:#000000; stroke-width:3.2; stroke-opacity:1"/>
<line clip-path="url(#clip703)" x1="922.256" y1="632.247" x2="890.256" y2="632.247" style="stroke:#000000; stroke-width:3.2; stroke-opacity:1"/>
</svg>
