<?xml version="1.0" encoding="utf-8"?>
<svg xmlns="http://www.w3.org/2000/svg" xmlns:xlink="http://www.w3.org/1999/xlink" width="600" height="400" viewBox="0 0 2400 1600">
<defs>
  <clipPath id="clip130">
    <rect x="0" y="0" width="2400" height="1600"/>
  </clipPath>
</defs>
<path clip-path="url(#clip130)" d="
M0 1600 L2400 1600 L2400 0 L0 0  Z
  " fill="#000000" fill-rule="evenodd" fill-opacity="0"/>
<defs>
  <clipPath id="clip131">
    <rect x="480" y="0" width="1681" height="1600"/>
  </clipPath>
</defs>
<defs>
  <clipPath id="clip132">
    <rect x="300" y="47" width="2053" height="1364"/>
  </clipPath>
</defs>
<path clip-path="url(#clip130)" d="
M262.988 1410.22 L2352.76 1410.22 L2352.76 47.2441 L262.988 47.2441  Z
  " fill="#000000" fill-rule="evenodd" fill-opacity="0"/>
<defs>
  <clipPath id="clip133">
    <rect x="262" y="47" width="2091" height="1364"/>
  </clipPath>
</defs>
<polyline clip-path="url(#clip130)" style="stroke:#000000; stroke-linecap:butt; stroke-linejoin:round; stroke-width:4; stroke-opacity:1; fill:none" points="
  262.988,1410.22 2352.76,1410.22 
  "/>
<polyline clip-path="url(#clip130)" style="stroke:#000000; stroke-linecap:butt; stroke-linejoin:round; stroke-width:4; stroke-opacity:1; fill:none" points="
  311.05,1410.22 311.05,1391.32 
  "/>
<polyline clip-path="url(#clip130)" style="stroke:#000000; stroke-linecap:butt; stroke-linejoin:round; stroke-width:4; stroke-opacity:1; fill:none" points="
  806.516,1410.22 806.516,1391.32 
  "/>
<polyline clip-path="url(#clip130)" style="stroke:#000000; stroke-linecap:butt; stroke-linejoin:round; stroke-width:4; stroke-opacity:1; fill:none" points="
  1301.98,1410.22 1301.98,1391.32 
  "/>
<polyline clip-path="url(#clip130)" style="stroke:#000000; stroke-linecap:butt; stroke-linejoin:round; stroke-width:4; stroke-opacity:1; fill:none" points="
  1797.45,1410.22 1797.45,1391.32 
  "/>
<polyline clip-path="url(#clip130)" style="stroke:#000000; stroke-linecap:butt; stroke-linejoin:round; stroke-width:4; stroke-opacity:1; fill:none" points="
  2292.91,1410.22 2292.91,1391.32 
  "/>
<path clip-path="url(#clip130)" d="M286.536 1468.68 L294.175 1468.68 L294.175 1442.32 L285.865 1443.99 L285.865 1439.73 L294.129 1438.06 L298.805 1438.06 L298.805 1468.68 L306.444 1468.68 L306.444 1472.62 L286.536 1472.62 L286.536 1468.68 Z" fill="#000000" fill-rule="evenodd" fill-opacity="1" /><path clip-path="url(#clip130)" d="M319.916 1468.68 L336.235 1468.68 L336.235 1472.62 L314.291 1472.62 L314.291 1468.68 Q316.953 1465.93 321.536 1461.3 Q326.143 1456.65 327.323 1455.31 Q329.568 1452.78 330.448 1451.05 Q331.351 1449.29 331.351 1447.6 Q331.351 1444.84 329.406 1443.11 Q327.485 1441.37 324.383 1441.37 Q322.184 1441.37 319.731 1442.13 Q317.3 1442.9 314.522 1444.45 L314.522 1439.73 Q317.346 1438.59 319.8 1438.01 Q322.254 1437.43 324.291 1437.43 Q329.661 1437.43 332.855 1440.12 Q336.05 1442.81 336.05 1447.3 Q336.05 1449.43 335.24 1451.35 Q334.453 1453.24 332.346 1455.84 Q331.768 1456.51 328.666 1459.73 Q325.564 1462.92 319.916 1468.68 Z" fill="#000000" fill-rule="evenodd" fill-opacity="1" /><path clip-path="url(#clip130)" d="M780.961 1468.68 L788.599 1468.68 L788.599 1442.32 L780.289 1443.99 L780.289 1439.73 L788.553 1438.06 L793.229 1438.06 L793.229 1468.68 L800.868 1468.68 L800.868 1472.62 L780.961 1472.62 L780.961 1468.68 Z" fill="#000000" fill-rule="evenodd" fill-opacity="1" /><path clip-path="url(#clip130)" d="M823.159 1442.13 L811.354 1460.58 L823.159 1460.58 L823.159 1442.13 M821.933 1438.06 L827.812 1438.06 L827.812 1460.58 L832.743 1460.58 L832.743 1464.47 L827.812 1464.47 L827.812 1472.62 L823.159 1472.62 L823.159 1464.47 L807.558 1464.47 L807.558 1459.96 L821.933 1438.06 Z" fill="#000000" fill-rule="evenodd" fill-opacity="1" /><path clip-path="url(#clip130)" d="M1276.59 1468.68 L1284.23 1468.68 L1284.23 1442.32 L1275.92 1443.99 L1275.92 1439.73 L1284.18 1438.06 L1288.86 1438.06 L1288.86 1468.68 L1296.5 1468.68 L1296.5 1472.62 L1276.59 1472.62 L1276.59 1468.68 Z" fill="#000000" fill-rule="evenodd" fill-opacity="1" /><path clip-path="url(#clip130)" d="M1316.52 1453.48 Q1313.37 1453.48 1311.52 1455.63 Q1309.69 1457.78 1309.69 1461.53 Q1309.69 1465.26 1311.52 1467.43 Q1313.37 1469.59 1316.52 1469.59 Q1319.67 1469.59 1321.5 1467.43 Q1323.35 1465.26 1323.35 1461.53 Q1323.35 1457.78 1321.5 1455.63 Q1319.67 1453.48 1316.52 1453.48 M1325.8 1438.82 L1325.8 1443.08 Q1324.04 1442.25 1322.24 1441.81 Q1320.45 1441.37 1318.69 1441.37 Q1314.07 1441.37 1311.61 1444.49 Q1309.18 1447.62 1308.83 1453.94 Q1310.2 1451.93 1312.26 1450.86 Q1314.32 1449.77 1316.8 1449.77 Q1322 1449.77 1325.01 1452.94 Q1328.05 1456.09 1328.05 1461.53 Q1328.05 1466.86 1324.9 1470.07 Q1321.75 1473.29 1316.52 1473.29 Q1310.52 1473.29 1307.35 1468.71 Q1304.18 1464.1 1304.18 1455.37 Q1304.18 1447.18 1308.07 1442.32 Q1311.96 1437.43 1318.51 1437.43 Q1320.27 1437.43 1322.05 1437.78 Q1323.86 1438.13 1325.8 1438.82 Z" fill="#000000" fill-rule="evenodd" fill-opacity="1" /><path clip-path="url(#clip130)" d="M1772.18 1468.68 L1779.82 1468.68 L1779.82 1442.32 L1771.51 1443.99 L1771.51 1439.73 L1779.77 1438.06 L1784.45 1438.06 L1784.45 1468.68 L1792.09 1468.68 L1792.09 1472.62 L1772.18 1472.62 L1772.18 1468.68 Z" fill="#000000" fill-rule="evenodd" fill-opacity="1" /><path clip-path="url(#clip130)" d="M1811.53 1456.21 Q1808.2 1456.21 1806.28 1457.99 Q1804.38 1459.77 1804.38 1462.9 Q1804.38 1466.02 1806.28 1467.81 Q1808.2 1469.59 1811.53 1469.59 Q1814.87 1469.59 1816.79 1467.81 Q1818.71 1466 1818.71 1462.9 Q1818.71 1459.77 1816.79 1457.99 Q1814.89 1456.21 1811.53 1456.21 M1806.86 1454.22 Q1803.85 1453.48 1802.16 1451.42 Q1800.49 1449.36 1800.49 1446.39 Q1800.49 1442.25 1803.43 1439.84 Q1806.39 1437.43 1811.53 1437.43 Q1816.7 1437.43 1819.64 1439.84 Q1822.58 1442.25 1822.58 1446.39 Q1822.58 1449.36 1820.89 1451.42 Q1819.22 1453.48 1816.23 1454.22 Q1819.61 1455 1821.49 1457.3 Q1823.39 1459.59 1823.39 1462.9 Q1823.39 1467.92 1820.31 1470.61 Q1817.25 1473.29 1811.53 1473.29 Q1805.82 1473.29 1802.74 1470.61 Q1799.68 1467.92 1799.68 1462.9 Q1799.68 1459.59 1801.58 1457.3 Q1803.48 1455 1806.86 1454.22 M1805.14 1446.83 Q1805.14 1449.52 1806.81 1451.02 Q1808.5 1452.53 1811.53 1452.53 Q1814.54 1452.53 1816.23 1451.02 Q1817.95 1449.52 1817.95 1446.83 Q1817.95 1444.15 1816.23 1442.64 Q1814.54 1441.14 1811.53 1441.14 Q1808.5 1441.14 1806.81 1442.64 Q1805.14 1444.15 1805.14 1446.83 Z" fill="#000000" fill-rule="evenodd" fill-opacity="1" /><path clip-path="url(#clip130)" d="M2271.69 1468.68 L2288.01 1468.68 L2288.01 1472.62 L2266.06 1472.62 L2266.06 1468.68 Q2268.72 1465.93 2273.31 1461.3 Q2277.91 1456.65 2279.09 1455.31 Q2281.34 1452.78 2282.22 1451.05 Q2283.12 1449.29 2283.12 1447.6 Q2283.12 1444.84 2281.18 1443.11 Q2279.26 1441.37 2276.15 1441.37 Q2273.96 1441.37 2271.5 1442.13 Q2269.07 1442.9 2266.29 1444.45 L2266.29 1439.73 Q2269.12 1438.59 2271.57 1438.01 Q2274.03 1437.43 2276.06 1437.43 Q2281.43 1437.43 2284.63 1440.12 Q2287.82 1442.81 2287.82 1447.3 Q2287.82 1449.43 2287.01 1451.35 Q2286.22 1453.24 2284.12 1455.84 Q2283.54 1456.51 2280.44 1459.73 Q2277.34 1462.92 2271.69 1468.68 Z" fill="#000000" fill-rule="evenodd" fill-opacity="1" /><path clip-path="url(#clip130)" d="M2307.82 1441.14 Q2304.21 1441.14 2302.38 1444.7 Q2300.58 1448.24 2300.58 1455.37 Q2300.58 1462.48 2302.38 1466.05 Q2304.21 1469.59 2307.82 1469.59 Q2311.46 1469.59 2313.26 1466.05 Q2315.09 1462.48 2315.09 1455.37 Q2315.09 1448.24 2313.26 1444.7 Q2311.46 1441.14 2307.82 1441.14 M2307.82 1437.43 Q2313.63 1437.43 2316.69 1442.04 Q2319.77 1446.62 2319.77 1455.37 Q2319.77 1464.1 2316.69 1468.71 Q2313.63 1473.29 2307.82 1473.29 Q2302.01 1473.29 2298.93 1468.71 Q2295.88 1464.1 2295.88 1455.37 Q2295.88 1446.62 2298.93 1442.04 Q2302.01 1437.43 2307.82 1437.43 Z" fill="#000000" fill-rule="evenodd" fill-opacity="1" /><path clip-path="url(#clip130)" d="M1202.8 1572.73 L1202.8 1570.15 Q1207.27 1570.15 1208.3 1569.62 Q1209.32 1569.04 1209.32 1566.34 L1209.32 1522.68 Q1209.32 1519.57 1208.21 1518.79 Q1207.15 1518.01 1202.8 1518.01 L1202.8 1515.39 L1214.85 1514.49 L1214.85 1566.34 Q1214.85 1569.04 1215.92 1569.62 Q1216.98 1570.15 1221.41 1570.15 L1221.41 1572.73 Q1220.39 1572.73 1218.26 1572.65 Q1216.12 1572.57 1214.57 1572.53 Q1213.01 1572.48 1212.11 1572.48 Q1211.12 1572.48 1202.8 1572.73 Z" fill="#000000" fill-rule="evenodd" fill-opacity="1" /><path clip-path="url(#clip130)" d="M1234.04 1568.22 Q1228.51 1562.73 1228.51 1554.78 Q1228.51 1546.78 1233.92 1540.96 Q1239.37 1535.1 1247.16 1535.1 Q1254.78 1535.1 1260.23 1540.92 Q1265.73 1546.7 1265.73 1554.78 Q1265.73 1562.69 1260.19 1568.18 Q1254.7 1573.67 1247.08 1573.67 Q1239.62 1573.67 1234.04 1568.22 M1235.48 1554.08 Q1235.48 1562.24 1237.61 1565.93 Q1240.89 1571.54 1247.16 1571.54 Q1250.27 1571.54 1252.86 1569.86 Q1255.48 1568.18 1256.91 1565.35 Q1258.76 1561.66 1258.76 1554.08 Q1258.76 1546.01 1256.55 1542.44 Q1253.27 1536.99 1247.08 1536.99 Q1244.37 1536.99 1241.71 1538.42 Q1239.08 1539.82 1237.49 1542.6 Q1235.48 1546.29 1235.48 1554.08 Z" fill="#000000" fill-rule="evenodd" fill-opacity="1" /><path clip-path="url(#clip130)" d="M1267.05 1579.37 Q1267.05 1576.67 1269.1 1574.33 Q1271.19 1571.99 1274.8 1570.97 Q1271.11 1568.63 1271.11 1563.51 Q1271.11 1559.57 1273.7 1556.54 Q1269.76 1553.26 1269.76 1547.89 Q1269.76 1542.93 1273.7 1539.28 Q1277.63 1535.64 1283.37 1535.64 Q1288.41 1535.64 1292.26 1538.67 Q1296.28 1534.73 1301.16 1534.69 Q1303.33 1534.69 1304.36 1536.05 Q1305.42 1537.4 1305.42 1538.83 Q1305.42 1540.1 1304.6 1540.72 Q1303.82 1541.33 1303 1541.33 Q1301.98 1541.33 1301.24 1540.68 Q1300.54 1539.98 1300.54 1538.91 Q1300.54 1537.15 1301.9 1536.62 Q1301.65 1536.54 1301.08 1536.54 Q1296.98 1536.54 1293.49 1539.82 Q1296.94 1543.01 1296.94 1547.97 Q1296.94 1552.93 1293 1556.58 Q1289.07 1560.23 1283.37 1560.23 Q1278.65 1560.23 1275.05 1557.61 Q1273.61 1559.29 1273.61 1561.58 Q1273.61 1563.67 1274.88 1565.31 Q1276.15 1566.95 1278.08 1567.2 Q1278.65 1567.28 1284.35 1567.28 Q1287.71 1567.28 1289.56 1567.36 Q1291.4 1567.44 1294.03 1568.02 Q1296.69 1568.55 1298.78 1569.62 Q1304.23 1572.65 1304.27 1579.21 Q1304.27 1584 1298.74 1587 Q1293.25 1590.03 1285.62 1590.03 Q1277.92 1590.03 1272.47 1586.95 Q1267.05 1583.92 1267.05 1579.37 M1271.44 1579.37 Q1271.44 1582.81 1275.5 1585.44 Q1279.56 1588.1 1285.71 1588.1 Q1291.73 1588.1 1295.79 1585.48 Q1299.89 1582.9 1299.89 1579.37 Q1299.89 1576.87 1298.45 1575.27 Q1297.02 1573.67 1294.07 1573.02 Q1291.16 1572.4 1289.11 1572.28 Q1287.06 1572.16 1283.29 1572.16 L1278.33 1572.16 Q1275.46 1572.32 1273.45 1574.41 Q1271.44 1576.5 1271.44 1579.37 M1276.03 1547.97 Q1276.03 1558.3 1283.37 1558.3 Q1287.06 1558.3 1289.31 1554.94 Q1290.66 1552.69 1290.66 1547.89 Q1290.66 1537.56 1283.37 1537.56 Q1279.68 1537.56 1277.38 1540.92 Q1276.03 1543.18 1276.03 1547.97 Z" fill="#000000" fill-rule="evenodd" fill-opacity="1" /><path clip-path="url(#clip130)" d="M1314 1595.99 Q1314 1594.93 1314.09 1594.61 Q1314.2 1594.3 1314.66 1593.81 L1325.94 1581.24 Q1332.1 1574.3 1332.1 1568.24 Q1332.1 1564.31 1330.04 1561.5 Q1328 1558.69 1324.24 1558.69 Q1321.66 1558.69 1319.48 1560.27 Q1317.3 1561.84 1316.29 1564.66 Q1316.47 1564.6 1317.07 1564.6 Q1318.53 1564.6 1319.34 1565.52 Q1320.17 1566.44 1320.17 1567.67 Q1320.17 1569.25 1319.14 1570.02 Q1318.13 1570.77 1317.13 1570.77 Q1316.73 1570.77 1316.18 1570.68 Q1315.66 1570.6 1314.83 1569.79 Q1314 1568.96 1314 1567.5 Q1314 1563.39 1317.1 1560.12 Q1320.23 1556.85 1324.99 1556.85 Q1330.38 1556.85 1333.91 1560.07 Q1337.47 1563.25 1337.47 1568.24 Q1337.47 1569.99 1336.92 1571.6 Q1336.41 1573.18 1335.69 1574.41 Q1335 1575.65 1333.11 1577.63 Q1331.21 1579.6 1329.69 1581.01 Q1328.17 1582.42 1324.76 1585.4 L1318.53 1591.45 L1329.12 1591.45 Q1334.28 1591.45 1334.69 1591 Q1335.26 1590.16 1335.98 1585.77 L1337.47 1585.77 L1335.81 1595.99 L1314 1595.99 Z" fill="#000000" fill-rule="evenodd" fill-opacity="1" /><path clip-path="url(#clip130)" d="M1416.87 1516.33 Q1416.87 1518.01 1415.43 1518.01 Q1410.8 1518.17 1408.92 1519.73 Q1407.07 1521.25 1406.37 1524.2 L1394.65 1570.97 Q1394.24 1572.44 1394 1572.61 Q1393.75 1572.73 1393.3 1572.73 Q1392.72 1572.73 1392.4 1572.44 Q1392.11 1572.16 1391.7 1571.13 L1370.8 1521.7 Q1370.63 1521.37 1370.43 1520.92 Q1370.22 1520.47 1370.06 1520.18 L1358.95 1564.49 Q1358.62 1565.76 1358.62 1566.42 Q1358.62 1568.02 1359.73 1569.04 Q1360.88 1570.03 1364.15 1570.15 Q1365.84 1570.15 1365.84 1571.05 Q1365.84 1572.73 1364.32 1572.73 Q1362.93 1572.73 1360.01 1572.61 Q1357.1 1572.48 1355.67 1572.48 Q1354.28 1572.48 1351.45 1572.61 Q1348.62 1572.73 1347.27 1572.73 Q1346.2 1572.73 1346.2 1571.79 Q1346.2 1571.05 1346.49 1570.68 Q1346.78 1570.27 1347.02 1570.23 Q1347.27 1570.15 1347.64 1570.15 Q1350.1 1570.07 1351.78 1569.57 Q1353.46 1569.08 1354.4 1568.14 Q1355.38 1567.2 1355.83 1566.25 Q1356.33 1565.27 1356.69 1563.84 L1367.93 1518.75 Q1367.93 1518.01 1362.23 1518.01 Q1361.24 1518.01 1360.83 1517.97 Q1360.47 1517.93 1360.18 1517.72 Q1359.89 1517.52 1359.89 1517.07 Q1359.89 1515.92 1360.38 1515.67 Q1360.88 1515.39 1362.31 1515.39 L1373.58 1515.39 Q1375.02 1515.39 1375.39 1515.63 Q1375.75 1515.84 1376.25 1516.99 L1394.81 1560.8 L1404.2 1523.46 Q1404.45 1522.72 1404.45 1521.7 Q1404.45 1520.06 1403.22 1519.08 Q1402.03 1518.05 1398.75 1518.01 Q1397.23 1518.01 1397.23 1517.07 Q1397.23 1516.29 1397.52 1515.92 Q1397.85 1515.51 1398.09 1515.47 Q1398.38 1515.39 1398.75 1515.39 Q1400.14 1515.39 1403.01 1515.51 Q1405.88 1515.63 1407.32 1515.63 Q1408.71 1515.63 1411.54 1515.51 Q1414.41 1515.39 1415.8 1515.39 Q1416.29 1515.39 1416.54 1515.63 Q1416.83 1515.84 1416.87 1516.08 L1416.87 1516.33 Z" fill="#000000" fill-rule="evenodd" fill-opacity="1" /><polyline clip-path="url(#clip130)" style="stroke:#000000; stroke-linecap:butt; stroke-linejoin:round; stroke-width:4; stroke-opacity:1; fill:none" points="
  262.988,1410.22 262.988,47.2441 
  "/>
<polyline clip-path="url(#clip130)" style="stroke:#000000; stroke-linecap:butt; stroke-linejoin:round; stroke-width:4; stroke-opacity:1; fill:none" points="
  262.988,1376.92 281.886,1376.92 
  "/>
<polyline clip-path="url(#clip130)" style="stroke:#000000; stroke-linecap:butt; stroke-linejoin:round; stroke-width:4; stroke-opacity:1; fill:none" points="
  262.988,1054.08 281.886,1054.08 
  "/>
<polyline clip-path="url(#clip130)" style="stroke:#000000; stroke-linecap:butt; stroke-linejoin:round; stroke-width:4; stroke-opacity:1; fill:none" points="
  262.988,731.24 281.886,731.24 
  "/>
<polyline clip-path="url(#clip130)" style="stroke:#000000; stroke-linecap:butt; stroke-linejoin:round; stroke-width:4; stroke-opacity:1; fill:none" points="
  262.988,408.402 281.886,408.402 
  "/>
<polyline clip-path="url(#clip130)" style="stroke:#000000; stroke-linecap:butt; stroke-linejoin:round; stroke-width:4; stroke-opacity:1; fill:none" points="
  262.988,85.5639 281.886,85.5639 
  "/>
<path clip-path="url(#clip130)" d="M139.651 1362.71 Q136.04 1362.71 134.211 1366.28 Q132.405 1369.82 132.405 1376.95 Q132.405 1384.06 134.211 1387.62 Q136.04 1391.16 139.651 1391.16 Q143.285 1391.16 145.09 1387.62 Q146.919 1384.06 146.919 1376.95 Q146.919 1369.82 145.09 1366.28 Q143.285 1362.71 139.651 1362.71 M139.651 1359.01 Q145.461 1359.01 148.516 1363.62 Q151.595 1368.2 151.595 1376.95 Q151.595 1385.68 148.516 1390.28 Q145.461 1394.87 139.651 1394.87 Q133.84 1394.87 130.762 1390.28 Q127.706 1385.68 127.706 1376.95 Q127.706 1368.2 130.762 1363.62 Q133.84 1359.01 139.651 1359.01 Z" fill="#000000" fill-rule="evenodd" fill-opacity="1" /><path clip-path="url(#clip130)" d="M159.813 1388.32 L164.697 1388.32 L164.697 1394.2 L159.813 1394.2 L159.813 1388.32 Z" fill="#000000" fill-rule="evenodd" fill-opacity="1" /><path clip-path="url(#clip130)" d="M175.021 1393.48 L175.021 1389.22 Q176.78 1390.05 178.586 1390.49 Q180.391 1390.93 182.127 1390.93 Q186.757 1390.93 189.187 1387.83 Q191.641 1384.71 191.988 1378.36 Q190.646 1380.35 188.586 1381.42 Q186.525 1382.48 184.025 1382.48 Q178.84 1382.48 175.808 1379.36 Q172.799 1376.21 172.799 1370.77 Q172.799 1365.45 175.947 1362.23 Q179.095 1359.01 184.326 1359.01 Q190.322 1359.01 193.47 1363.62 Q196.641 1368.2 196.641 1376.95 Q196.641 1385.12 192.752 1390.01 Q188.886 1394.87 182.336 1394.87 Q180.576 1394.87 178.771 1394.52 Q176.965 1394.17 175.021 1393.48 M184.326 1378.83 Q187.474 1378.83 189.303 1376.67 Q191.155 1374.52 191.155 1370.77 Q191.155 1367.04 189.303 1364.89 Q187.474 1362.71 184.326 1362.71 Q181.178 1362.71 179.326 1364.89 Q177.498 1367.04 177.498 1370.77 Q177.498 1374.52 179.326 1376.67 Q181.178 1378.83 184.326 1378.83 Z" fill="#000000" fill-rule="evenodd" fill-opacity="1" /><path clip-path="url(#clip130)" d="M215.044 1362.71 Q211.433 1362.71 209.604 1366.28 Q207.798 1369.82 207.798 1376.95 Q207.798 1384.06 209.604 1387.62 Q211.433 1391.16 215.044 1391.16 Q218.678 1391.16 220.484 1387.62 Q222.312 1384.06 222.312 1376.95 Q222.312 1369.82 220.484 1366.28 Q218.678 1362.71 215.044 1362.71 M215.044 1359.01 Q220.854 1359.01 223.909 1363.62 Q226.988 1368.2 226.988 1376.95 Q226.988 1385.68 223.909 1390.28 Q220.854 1394.87 215.044 1394.87 Q209.234 1394.87 206.155 1390.28 Q203.099 1385.68 203.099 1376.95 Q203.099 1368.2 206.155 1363.62 Q209.234 1359.01 215.044 1359.01 Z" fill="#000000" fill-rule="evenodd" fill-opacity="1" /><path clip-path="url(#clip130)" d="M141.248 1039.88 Q137.637 1039.88 135.808 1043.44 Q134.003 1046.98 134.003 1054.11 Q134.003 1061.22 135.808 1064.78 Q137.637 1068.33 141.248 1068.33 Q144.882 1068.33 146.688 1064.78 Q148.516 1061.22 148.516 1054.11 Q148.516 1046.98 146.688 1043.44 Q144.882 1039.88 141.248 1039.88 M141.248 1036.17 Q147.058 1036.17 150.114 1040.78 Q153.192 1045.36 153.192 1054.11 Q153.192 1062.84 150.114 1067.45 Q147.058 1072.03 141.248 1072.03 Q135.438 1072.03 132.359 1067.45 Q129.303 1062.84 129.303 1054.11 Q129.303 1045.36 132.359 1040.78 Q135.438 1036.17 141.248 1036.17 Z" fill="#000000" fill-rule="evenodd" fill-opacity="1" /><path clip-path="url(#clip130)" d="M161.41 1065.48 L166.294 1065.48 L166.294 1071.36 L161.41 1071.36 L161.41 1065.48 Z" fill="#000000" fill-rule="evenodd" fill-opacity="1" /><path clip-path="url(#clip130)" d="M176.618 1070.64 L176.618 1066.38 Q178.377 1067.21 180.183 1067.65 Q181.988 1068.09 183.724 1068.09 Q188.354 1068.09 190.785 1064.99 Q193.238 1061.87 193.586 1055.52 Q192.243 1057.52 190.183 1058.58 Q188.123 1059.64 185.623 1059.64 Q180.437 1059.64 177.405 1056.52 Q174.396 1053.37 174.396 1047.93 Q174.396 1042.61 177.544 1039.39 Q180.692 1036.17 185.924 1036.17 Q191.919 1036.17 195.067 1040.78 Q198.238 1045.36 198.238 1054.11 Q198.238 1062.28 194.349 1067.17 Q190.484 1072.03 183.933 1072.03 Q182.174 1072.03 180.368 1071.68 Q178.562 1071.33 176.618 1070.64 M185.924 1055.99 Q189.072 1055.99 190.9 1053.83 Q192.752 1051.68 192.752 1047.93 Q192.752 1044.21 190.9 1042.05 Q189.072 1039.88 185.924 1039.88 Q182.775 1039.88 180.924 1042.05 Q179.095 1044.21 179.095 1047.93 Q179.095 1051.68 180.924 1053.83 Q182.775 1055.99 185.924 1055.99 Z" fill="#000000" fill-rule="evenodd" fill-opacity="1" /><path clip-path="url(#clip130)" d="M210.669 1067.42 L226.988 1067.42 L226.988 1071.36 L205.044 1071.36 L205.044 1067.42 Q207.706 1064.67 212.289 1060.04 Q216.896 1055.39 218.076 1054.04 Q220.322 1051.52 221.201 1049.78 Q222.104 1048.02 222.104 1046.33 Q222.104 1043.58 220.159 1041.84 Q218.238 1040.11 215.136 1040.11 Q212.937 1040.11 210.484 1040.87 Q208.053 1041.64 205.275 1043.19 L205.275 1038.46 Q208.099 1037.33 210.553 1036.75 Q213.007 1036.17 215.044 1036.17 Q220.414 1036.17 223.609 1038.86 Q226.803 1041.54 226.803 1046.03 Q226.803 1048.16 225.993 1050.08 Q225.206 1051.98 223.099 1054.58 Q222.521 1055.25 219.419 1058.46 Q216.317 1061.66 210.669 1067.42 Z" fill="#000000" fill-rule="evenodd" fill-opacity="1" /><path clip-path="url(#clip130)" d="M139.165 717.039 Q135.553 717.039 133.725 720.603 Q131.919 724.145 131.919 731.275 Q131.919 738.381 133.725 741.946 Q135.553 745.487 139.165 745.487 Q142.799 745.487 144.604 741.946 Q146.433 738.381 146.433 731.275 Q146.433 724.145 144.604 720.603 Q142.799 717.039 139.165 717.039 M139.165 713.335 Q144.975 713.335 148.03 717.941 Q151.109 722.525 151.109 731.275 Q151.109 740.001 148.03 744.608 Q144.975 749.191 139.165 749.191 Q133.354 749.191 130.276 744.608 Q127.22 740.001 127.22 731.275 Q127.22 722.525 130.276 717.941 Q133.354 713.335 139.165 713.335 Z" fill="#000000" fill-rule="evenodd" fill-opacity="1" /><path clip-path="url(#clip130)" d="M159.326 742.64 L164.211 742.64 L164.211 748.52 L159.326 748.52 L159.326 742.64 Z" fill="#000000" fill-rule="evenodd" fill-opacity="1" /><path clip-path="url(#clip130)" d="M174.535 747.802 L174.535 743.543 Q176.294 744.376 178.1 744.816 Q179.905 745.256 181.641 745.256 Q186.271 745.256 188.701 742.154 Q191.155 739.029 191.502 732.687 Q190.16 734.677 188.099 735.742 Q186.039 736.807 183.539 736.807 Q178.354 736.807 175.322 733.682 Q172.313 730.534 172.313 725.094 Q172.313 719.77 175.461 716.552 Q178.609 713.335 183.84 713.335 Q189.836 713.335 192.984 717.941 Q196.155 722.525 196.155 731.275 Q196.155 739.446 192.266 744.33 Q188.4 749.191 181.849 749.191 Q180.09 749.191 178.285 748.844 Q176.479 748.497 174.535 747.802 M183.84 733.15 Q186.988 733.15 188.817 730.997 Q190.669 728.844 190.669 725.094 Q190.669 721.367 188.817 719.214 Q186.988 717.039 183.84 717.039 Q180.692 717.039 178.84 719.214 Q177.012 721.367 177.012 725.094 Q177.012 728.844 178.84 730.997 Q180.692 733.15 183.84 733.15 Z" fill="#000000" fill-rule="evenodd" fill-opacity="1" /><path clip-path="url(#clip130)" d="M217.405 718.034 L205.599 736.483 L217.405 736.483 L217.405 718.034 M216.178 713.96 L222.058 713.96 L222.058 736.483 L226.988 736.483 L226.988 740.372 L222.058 740.372 L222.058 748.52 L217.405 748.52 L217.405 740.372 L201.803 740.372 L201.803 735.858 L216.178 713.96 Z" fill="#000000" fill-rule="evenodd" fill-opacity="1" /><path clip-path="url(#clip130)" d="M139.489 394.201 Q135.878 394.201 134.049 397.765 Q132.243 401.307 132.243 408.437 Q132.243 415.543 134.049 419.108 Q135.878 422.649 139.489 422.649 Q143.123 422.649 144.928 419.108 Q146.757 415.543 146.757 408.437 Q146.757 401.307 144.928 397.765 Q143.123 394.201 139.489 394.201 M139.489 390.497 Q145.299 390.497 148.354 395.103 Q151.433 399.687 151.433 408.437 Q151.433 417.163 148.354 421.77 Q145.299 426.353 139.489 426.353 Q133.678 426.353 130.6 421.77 Q127.544 417.163 127.544 408.437 Q127.544 399.687 130.6 395.103 Q133.678 390.497 139.489 390.497 Z" fill="#000000" fill-rule="evenodd" fill-opacity="1" /><path clip-path="url(#clip130)" d="M159.651 419.802 L164.535 419.802 L164.535 425.682 L159.651 425.682 L159.651 419.802 Z" fill="#000000" fill-rule="evenodd" fill-opacity="1" /><path clip-path="url(#clip130)" d="M174.859 424.964 L174.859 420.705 Q176.618 421.538 178.424 421.978 Q180.229 422.418 181.965 422.418 Q186.595 422.418 189.025 419.316 Q191.479 416.191 191.826 409.849 Q190.484 411.839 188.424 412.904 Q186.363 413.969 183.863 413.969 Q178.678 413.969 175.646 410.844 Q172.637 407.696 172.637 402.256 Q172.637 396.932 175.785 393.714 Q178.933 390.497 184.164 390.497 Q190.16 390.497 193.308 395.103 Q196.479 399.687 196.479 408.437 Q196.479 416.608 192.59 421.492 Q188.724 426.353 182.174 426.353 Q180.414 426.353 178.609 426.006 Q176.803 425.659 174.859 424.964 M184.164 410.312 Q187.312 410.312 189.141 408.159 Q190.993 406.006 190.993 402.256 Q190.993 398.529 189.141 396.376 Q187.312 394.201 184.164 394.201 Q181.016 394.201 179.164 396.376 Q177.336 398.529 177.336 402.256 Q177.336 406.006 179.164 408.159 Q181.016 410.312 184.164 410.312 Z" fill="#000000" fill-rule="evenodd" fill-opacity="1" /><path clip-path="url(#clip130)" d="M215.46 406.538 Q212.312 406.538 210.46 408.691 Q208.632 410.844 208.632 414.594 Q208.632 418.321 210.46 420.497 Q212.312 422.649 215.46 422.649 Q218.609 422.649 220.437 420.497 Q222.289 418.321 222.289 414.594 Q222.289 410.844 220.437 408.691 Q218.609 406.538 215.46 406.538 M224.743 391.886 L224.743 396.145 Q222.984 395.312 221.178 394.872 Q219.396 394.432 217.636 394.432 Q213.007 394.432 210.553 397.557 Q208.123 400.682 207.775 407.001 Q209.141 404.988 211.201 403.923 Q213.261 402.835 215.738 402.835 Q220.947 402.835 223.956 406.006 Q226.988 409.154 226.988 414.594 Q226.988 419.918 223.84 423.136 Q220.692 426.353 215.46 426.353 Q209.465 426.353 206.294 421.77 Q203.123 417.163 203.123 408.437 Q203.123 400.242 207.011 395.381 Q210.9 390.497 217.451 390.497 Q219.21 390.497 220.993 390.844 Q222.798 391.191 224.743 391.886 Z" fill="#000000" fill-rule="evenodd" fill-opacity="1" /><path clip-path="url(#clip130)" d="M139.743 71.3626 Q136.132 71.3626 134.303 74.9274 Q132.498 78.469 132.498 85.5986 Q132.498 92.705 134.303 96.2698 Q136.132 99.8115 139.743 99.8115 Q143.377 99.8115 145.183 96.2698 Q147.012 92.705 147.012 85.5986 Q147.012 78.469 145.183 74.9274 Q143.377 71.3626 139.743 71.3626 M139.743 67.6589 Q145.553 67.6589 148.609 72.2653 Q151.688 76.8487 151.688 85.5986 Q151.688 94.3254 148.609 98.9319 Q145.553 103.515 139.743 103.515 Q133.933 103.515 130.854 98.9319 Q127.799 94.3254 127.799 85.5986 Q127.799 76.8487 130.854 72.2653 Q133.933 67.6589 139.743 67.6589 Z" fill="#000000" fill-rule="evenodd" fill-opacity="1" /><path clip-path="url(#clip130)" d="M159.905 96.9643 L164.789 96.9643 L164.789 102.844 L159.905 102.844 L159.905 96.9643 Z" fill="#000000" fill-rule="evenodd" fill-opacity="1" /><path clip-path="url(#clip130)" d="M175.113 102.126 L175.113 97.8671 Q176.873 98.7004 178.678 99.1402 Q180.484 99.58 182.22 99.58 Q186.849 99.58 189.28 96.4782 Q191.734 93.3532 192.081 87.0106 Q190.738 89.0014 188.678 90.0662 Q186.618 91.131 184.118 91.131 Q178.933 91.131 175.9 88.006 Q172.891 84.8579 172.891 79.4181 Q172.891 74.094 176.039 70.8765 Q179.187 67.6589 184.419 67.6589 Q190.414 67.6589 193.562 72.2653 Q196.734 76.8487 196.734 85.5986 Q196.734 93.7699 192.845 98.6541 Q188.979 103.515 182.428 103.515 Q180.669 103.515 178.863 103.168 Q177.058 102.821 175.113 102.126 M184.419 87.4736 Q187.567 87.4736 189.396 85.3208 Q191.248 83.1681 191.248 79.4181 Q191.248 75.6913 189.396 73.5385 Q187.567 71.3626 184.419 71.3626 Q181.271 71.3626 179.419 73.5385 Q177.59 75.6913 177.59 79.4181 Q177.59 83.1681 179.419 85.3208 Q181.271 87.4736 184.419 87.4736 Z" fill="#000000" fill-rule="evenodd" fill-opacity="1" /><path clip-path="url(#clip130)" d="M215.136 86.4319 Q211.803 86.4319 209.882 88.2143 Q207.984 89.9967 207.984 93.1217 Q207.984 96.2467 209.882 98.0291 Q211.803 99.8115 215.136 99.8115 Q218.47 99.8115 220.391 98.0291 Q222.312 96.2235 222.312 93.1217 Q222.312 89.9967 220.391 88.2143 Q218.493 86.4319 215.136 86.4319 M210.46 84.4412 Q207.451 83.7005 205.761 81.6403 Q204.095 79.5801 204.095 76.6172 Q204.095 72.4737 207.035 70.0663 Q209.997 67.6589 215.136 67.6589 Q220.298 67.6589 223.238 70.0663 Q226.178 72.4737 226.178 76.6172 Q226.178 79.5801 224.488 81.6403 Q222.821 83.7005 219.835 84.4412 Q223.215 85.2282 225.09 87.5199 Q226.988 89.8115 226.988 93.1217 Q226.988 98.1448 223.909 100.83 Q220.854 103.515 215.136 103.515 Q209.419 103.515 206.34 100.83 Q203.285 98.1448 203.285 93.1217 Q203.285 89.8115 205.183 87.5199 Q207.081 85.2282 210.46 84.4412 M208.747 77.057 Q208.747 79.7422 210.414 81.2468 Q212.104 82.7514 215.136 82.7514 Q218.146 82.7514 219.835 81.2468 Q221.548 79.7422 221.548 77.057 Q221.548 74.3718 219.835 72.8672 Q218.146 71.3626 215.136 71.3626 Q212.104 71.3626 210.414 72.8672 Q208.747 74.3718 208.747 77.057 Z" fill="#000000" fill-rule="evenodd" fill-opacity="1" /><path clip-path="url(#clip130)" d="M32.0609 706.184 Q32.3888 706.184 35.2581 707.783 Q40.5457 710.447 48.6206 713.849 Q56.6955 717.251 62.6799 719.178 Q64.1145 719.588 65.959 719.875 Q71.6156 720.613 80.3873 722.99 Q83.1335 723.81 84.2812 724.343 Q85.4289 724.875 85.4289 725.654 Q85.4289 726.761 83.9123 726.761 Q82.3957 726.761 76.7392 725.367 Q71.0827 723.933 65.8771 722.375 Q63.0078 721.391 57.6382 721.391 Q55.9167 721.391 54.3591 721.473 Q52.8015 721.555 50.5471 721.883 Q48.2927 722.211 46.4481 722.744 Q44.6036 723.277 42.6771 724.302 Q40.7096 725.326 39.398 726.72 Q38.0453 728.114 37.1846 730.245 Q36.3238 732.336 36.3238 734.959 Q36.3238 735.615 36.4058 736.434 Q36.4468 737.213 36.9796 739.099 Q37.5125 740.943 38.4552 742.501 Q39.357 744.058 41.3655 745.739 Q43.3739 747.42 46.0792 748.321 L46.4891 748.649 Q46.4891 749.182 46.4891 749.469 Q46.4481 749.715 46.2432 750.002 Q46.0382 750.248 45.6693 750.248 Q44.8086 750.248 43.087 749.592 Q41.3655 748.895 39.152 747.502 Q36.9386 746.067 34.9711 744.222 Q33.0037 742.337 31.651 739.591 Q30.2984 736.844 30.2984 733.893 Q30.2984 726.31 39.5209 722.703 Q47.3499 719.547 56.6545 719.26 Q40.1358 712.702 31.815 708.193 Q31.2001 707.947 31.2001 707.209 Q31.2411 706.184 32.0609 706.184 Z" fill="#000000" fill-rule="evenodd" fill-opacity="1" /><polyline clip-path="url(#clip133)" style="stroke:#000000; stroke-linecap:butt; stroke-linejoin:round; stroke-width:4; stroke-opacity:1; fill:none" points="
  322.133,1371.65 322.133,1159.56 
  "/>
<polyline clip-path="url(#clip133)" style="stroke:#000000; stroke-linecap:butt; stroke-linejoin:round; stroke-width:4; stroke-opacity:1; fill:none" points="
  1798.84,340.299 1798.84,306.922 
  "/>
<polyline clip-path="url(#clip133)" style="stroke:#000000; stroke-linecap:butt; stroke-linejoin:round; stroke-width:4; stroke-opacity:1; fill:none" points="
  812.079,869.065 812.079,754.298 
  "/>
<polyline clip-path="url(#clip133)" style="stroke:#000000; stroke-linecap:butt; stroke-linejoin:round; stroke-width:4; stroke-opacity:1; fill:none" points="
  2293.61,104.444 2293.61,85.8189 
  "/>
<polyline clip-path="url(#clip133)" style="stroke:#000000; stroke-linecap:butt; stroke-linejoin:round; stroke-width:4; stroke-opacity:1; fill:none" points="
  1304.77,536.302 1304.77,474.653 
  "/>
<line clip-path="url(#clip133)" x1="338.133" y1="1371.65" x2="306.133" y2="1371.65" style="stroke:#000000; stroke-width:3.2; stroke-opacity:1"/>
<line clip-path="url(#clip133)" x1="338.133" y1="1159.56" x2="306.133" y2="1159.56" style="stroke:#000000; stroke-width:3.2; stroke-opacity:1"/>
<line clip-path="url(#clip133)" x1="1814.84" y1="340.299" x2="1782.84" y2="340.299" style="stroke:#000000; stroke-width:3.2; stroke-opacity:1"/>
<line clip-path="url(#clip133)" x1="1814.84" y1="306.922" x2="1782.84" y2="306.922" style="stroke:#000000; stroke-width:3.2; stroke-opacity:1"/>
<line clip-path="url(#clip133)" x1="828.079" y1="869.065" x2="796.079" y2="869.065" style="stroke:#000000; stroke-width:3.2; stroke-opacity:1"/>
<line clip-path="url(#clip133)" x1="828.079" y1="754.298" x2="796.079" y2="754.298" style="stroke:#000000; stroke-width:3.2; stroke-opacity:1"/>
<line clip-path="url(#clip133)" x1="2309.61" y1="104.444" x2="2277.61" y2="104.444" style="stroke:#000000; stroke-width:3.2; stroke-opacity:1"/>
<line clip-path="url(#clip133)" x1="2309.61" y1="85.8189" x2="2277.61" y2="85.8189" style="stroke:#000000; stroke-width:3.2; stroke-opacity:1"/>
<line clip-path="url(#clip133)" x1="1320.77" y1="536.302" x2="1288.77" y2="536.302" style="stroke:#000000; stroke-width:3.2; stroke-opacity:1"/>
<line clip-path="url(#clip133)" x1="1320.77" y1="474.653" x2="1288.77" y2="474.653" style="stroke:#000000; stroke-width:3.2; stroke-opacity:1"/>
<line clip-path="url(#clip133)" x1="338.133" y1="1265.6" x2="306.133" y2="1265.6" style="stroke:#000000; stroke-width:3.2; stroke-opacity:1"/>
<line clip-path="url(#clip133)" x1="1814.84" y1="323.61" x2="1782.84" y2="323.61" style="stroke:#000000; stroke-width:3.2; stroke-opacity:1"/>
<line clip-path="url(#clip133)" x1="828.079" y1="811.682" x2="796.079" y2="811.682" style="stroke:#000000; stroke-width:3.2; stroke-opacity:1"/>
<line clip-path="url(#clip133)" x1="2309.61" y1="95.1315" x2="2277.61" y2="95.1315" style="stroke:#000000; stroke-width:3.2; stroke-opacity:1"/>
<line clip-path="url(#clip133)" x1="1320.77" y1="505.478" x2="1288.77" y2="505.478" style="stroke:#000000; stroke-width:3.2; stroke-opacity:1"/>
</svg>
