<?xml version="1.0" encoding="utf-8"?>
<svg xmlns="http://www.w3.org/2000/svg" xmlns:xlink="http://www.w3.org/1999/xlink" width="600" height="400" viewBox="0 0 2400 1600">
<defs>
  <clipPath id="clip540">
    <rect x="0" y="0" width="2400" height="1600"/>
  </clipPath>
</defs>
<path clip-path="url(#clip540)" d="
M0 1600 L2400 1600 L2400 0 L0 0  Z
  " fill="#000000" fill-rule="evenodd" fill-opacity="0"/>
<defs>
  <clipPath id="clip541">
    <rect x="480" y="0" width="1681" height="1600"/>
  </clipPath>
</defs>
<defs>
  <clipPath id="clip542">
    <rect x="300" y="47" width="2053" height="1364"/>
  </clipPath>
</defs>
<path clip-path="url(#clip540)" d="
M300.326 1410.22 L2352.76 1410.22 L2352.76 47.2441 L300.326 47.2441  Z
  " fill="#000000" fill-rule="evenodd" fill-opacity="0"/>
<polyline clip-path="url(#clip540)" style="stroke:#000000; stroke-linecap:butt; stroke-linejoin:round; stroke-width:4; stroke-opacity:1; fill:none" points="
  300.326,1410.22 2352.76,1410.22 
  "/>
<polyline clip-path="url(#clip540)" style="stroke:#000000; stroke-linecap:butt; stroke-linejoin:round; stroke-width:4; stroke-opacity:1; fill:none" points="
  421.579,1410.22 421.579,1391.32 
  "/>
<polyline clip-path="url(#clip540)" style="stroke:#000000; stroke-linecap:butt; stroke-linejoin:round; stroke-width:4; stroke-opacity:1; fill:none" points="
  768.438,1410.22 768.438,1391.32 
  "/>
<polyline clip-path="url(#clip540)" style="stroke:#000000; stroke-linecap:butt; stroke-linejoin:round; stroke-width:4; stroke-opacity:1; fill:none" points="
  1115.3,1410.22 1115.3,1391.32 
  "/>
<polyline clip-path="url(#clip540)" style="stroke:#000000; stroke-linecap:butt; stroke-linejoin:round; stroke-width:4; stroke-opacity:1; fill:none" points="
  1462.16,1410.22 1462.16,1391.32 
  "/>
<polyline clip-path="url(#clip540)" style="stroke:#000000; stroke-linecap:butt; stroke-linejoin:round; stroke-width:4; stroke-opacity:1; fill:none" points="
  1809.02,1410.22 1809.02,1391.32 
  "/>
<polyline clip-path="url(#clip540)" style="stroke:#000000; stroke-linecap:butt; stroke-linejoin:round; stroke-width:4; stroke-opacity:1; fill:none" points="
  2155.88,1410.22 2155.88,1391.32 
  "/>
<path clip-path="url(#clip540)" d="M374.148 1468.68 L381.787 1468.68 L381.787 1442.32 L373.477 1443.99 L373.477 1439.73 L381.741 1438.06 L386.417 1438.06 L386.417 1468.68 L394.056 1468.68 L394.056 1472.62 L374.148 1472.62 L374.148 1468.68 Z" fill="#000000" fill-rule="evenodd" fill-opacity="1" /><path clip-path="url(#clip540)" d="M407.528 1468.68 L423.847 1468.68 L423.847 1472.62 L401.903 1472.62 L401.903 1468.68 Q404.565 1465.93 409.148 1461.3 Q413.755 1456.65 414.935 1455.31 Q417.181 1452.78 418.06 1451.05 Q418.963 1449.29 418.963 1447.6 Q418.963 1444.84 417.018 1443.11 Q415.097 1441.37 411.995 1441.37 Q409.796 1441.37 407.343 1442.13 Q404.912 1442.9 402.134 1444.45 L402.134 1439.73 Q404.958 1438.59 407.412 1438.01 Q409.866 1437.43 411.903 1437.43 Q417.273 1437.43 420.468 1440.12 Q423.662 1442.81 423.662 1447.3 Q423.662 1449.43 422.852 1451.35 Q422.065 1453.24 419.958 1455.84 Q419.38 1456.51 416.278 1459.73 Q413.176 1462.92 407.528 1468.68 Z" fill="#000000" fill-rule="evenodd" fill-opacity="1" /><path clip-path="url(#clip540)" d="M433.662 1466.74 L438.546 1466.74 L438.546 1472.62 L433.662 1472.62 L433.662 1466.74 Z" fill="#000000" fill-rule="evenodd" fill-opacity="1" /><path clip-path="url(#clip540)" d="M448.778 1438.06 L467.134 1438.06 L467.134 1442 L453.06 1442 L453.06 1450.47 Q454.078 1450.12 455.097 1449.96 Q456.115 1449.77 457.134 1449.77 Q462.921 1449.77 466.301 1452.94 Q469.68 1456.12 469.68 1461.53 Q469.68 1467.11 466.208 1470.21 Q462.736 1473.29 456.416 1473.29 Q454.24 1473.29 451.972 1472.92 Q449.727 1472.55 447.319 1471.81 L447.319 1467.11 Q449.403 1468.24 451.625 1468.8 Q453.847 1469.36 456.324 1469.36 Q460.328 1469.36 462.666 1467.25 Q465.004 1465.14 465.004 1461.53 Q465.004 1457.92 462.666 1455.81 Q460.328 1453.71 456.324 1453.71 Q454.449 1453.71 452.574 1454.12 Q450.722 1454.54 448.778 1455.42 L448.778 1438.06 Z" fill="#000000" fill-rule="evenodd" fill-opacity="1" /><path clip-path="url(#clip540)" d="M720.51 1468.68 L728.149 1468.68 L728.149 1442.32 L719.839 1443.99 L719.839 1439.73 L728.103 1438.06 L732.779 1438.06 L732.779 1468.68 L740.417 1468.68 L740.417 1472.62 L720.51 1472.62 L720.51 1468.68 Z" fill="#000000" fill-rule="evenodd" fill-opacity="1" /><path clip-path="url(#clip540)" d="M749.908 1438.06 L768.264 1438.06 L768.264 1442 L754.19 1442 L754.19 1450.47 Q755.209 1450.12 756.227 1449.96 Q757.246 1449.77 758.264 1449.77 Q764.051 1449.77 767.431 1452.94 Q770.811 1456.12 770.811 1461.53 Q770.811 1467.11 767.339 1470.21 Q763.866 1473.29 757.547 1473.29 Q755.371 1473.29 753.102 1472.92 Q750.857 1472.55 748.45 1471.81 L748.45 1467.11 Q750.533 1468.24 752.755 1468.8 Q754.977 1469.36 757.454 1469.36 Q761.459 1469.36 763.797 1467.25 Q766.135 1465.14 766.135 1461.53 Q766.135 1457.92 763.797 1455.81 Q761.459 1453.71 757.454 1453.71 Q755.579 1453.71 753.704 1454.12 Q751.852 1454.54 749.908 1455.42 L749.908 1438.06 Z" fill="#000000" fill-rule="evenodd" fill-opacity="1" /><path clip-path="url(#clip540)" d="M780.024 1466.74 L784.908 1466.74 L784.908 1472.62 L780.024 1472.62 L780.024 1466.74 Z" fill="#000000" fill-rule="evenodd" fill-opacity="1" /><path clip-path="url(#clip540)" d="M805.093 1441.14 Q801.482 1441.14 799.653 1444.7 Q797.848 1448.24 797.848 1455.37 Q797.848 1462.48 799.653 1466.05 Q801.482 1469.59 805.093 1469.59 Q808.727 1469.59 810.533 1466.05 Q812.361 1462.48 812.361 1455.37 Q812.361 1448.24 810.533 1444.7 Q808.727 1441.14 805.093 1441.14 M805.093 1437.43 Q810.903 1437.43 813.959 1442.04 Q817.037 1446.62 817.037 1455.37 Q817.037 1464.1 813.959 1468.71 Q810.903 1473.29 805.093 1473.29 Q799.283 1473.29 796.204 1468.71 Q793.149 1464.1 793.149 1455.37 Q793.149 1446.62 796.204 1442.04 Q799.283 1437.43 805.093 1437.43 Z" fill="#000000" fill-rule="evenodd" fill-opacity="1" /><path clip-path="url(#clip540)" d="M1067.87 1468.68 L1075.51 1468.68 L1075.51 1442.32 L1067.2 1443.99 L1067.2 1439.73 L1075.46 1438.06 L1080.14 1438.06 L1080.14 1468.68 L1087.77 1468.68 L1087.77 1472.62 L1067.87 1472.62 L1067.87 1468.68 Z" fill="#000000" fill-rule="evenodd" fill-opacity="1" /><path clip-path="url(#clip540)" d="M1096.04 1438.06 L1118.26 1438.06 L1118.26 1440.05 L1105.71 1472.62 L1100.83 1472.62 L1112.64 1442 L1096.04 1442 L1096.04 1438.06 Z" fill="#000000" fill-rule="evenodd" fill-opacity="1" /><path clip-path="url(#clip540)" d="M1127.38 1466.74 L1132.26 1466.74 L1132.26 1472.62 L1127.38 1472.62 L1127.38 1466.74 Z" fill="#000000" fill-rule="evenodd" fill-opacity="1" /><path clip-path="url(#clip540)" d="M1142.5 1438.06 L1160.85 1438.06 L1160.85 1442 L1146.78 1442 L1146.78 1450.47 Q1147.8 1450.12 1148.82 1449.96 Q1149.83 1449.77 1150.85 1449.77 Q1156.64 1449.77 1160.02 1452.94 Q1163.4 1456.12 1163.4 1461.53 Q1163.4 1467.11 1159.93 1470.21 Q1156.45 1473.29 1150.14 1473.29 Q1147.96 1473.29 1145.69 1472.92 Q1143.45 1472.55 1141.04 1471.81 L1141.04 1467.11 Q1143.12 1468.24 1145.34 1468.8 Q1147.57 1469.36 1150.04 1469.36 Q1154.05 1469.36 1156.39 1467.25 Q1158.72 1465.14 1158.72 1461.53 Q1158.72 1457.92 1156.39 1455.81 Q1154.05 1453.71 1150.04 1453.71 Q1148.17 1453.71 1146.29 1454.12 Q1144.44 1454.54 1142.5 1455.42 L1142.5 1438.06 Z" fill="#000000" fill-rule="evenodd" fill-opacity="1" /><path clip-path="url(#clip540)" d="M1418.31 1468.68 L1434.63 1468.68 L1434.63 1472.62 L1412.69 1472.62 L1412.69 1468.68 Q1415.35 1465.93 1419.93 1461.3 Q1424.54 1456.65 1425.72 1455.31 Q1427.97 1452.78 1428.85 1451.05 Q1429.75 1449.29 1429.75 1447.6 Q1429.75 1444.84 1427.81 1443.11 Q1425.88 1441.37 1422.78 1441.37 Q1420.58 1441.37 1418.13 1442.13 Q1415.7 1442.9 1412.92 1444.45 L1412.92 1439.73 Q1415.75 1438.59 1418.2 1438.01 Q1420.65 1437.43 1422.69 1437.43 Q1428.06 1437.43 1431.25 1440.12 Q1434.45 1442.81 1434.45 1447.3 Q1434.45 1449.43 1433.64 1451.35 Q1432.85 1453.24 1430.74 1455.84 Q1430.17 1456.51 1427.06 1459.73 Q1423.96 1462.92 1418.31 1468.68 Z" fill="#000000" fill-rule="evenodd" fill-opacity="1" /><path clip-path="url(#clip540)" d="M1454.45 1441.14 Q1450.84 1441.14 1449.01 1444.7 Q1447.2 1448.24 1447.2 1455.37 Q1447.2 1462.48 1449.01 1466.05 Q1450.84 1469.59 1454.45 1469.59 Q1458.08 1469.59 1459.89 1466.05 Q1461.72 1462.48 1461.72 1455.37 Q1461.72 1448.24 1459.89 1444.7 Q1458.08 1441.14 1454.45 1441.14 M1454.45 1437.43 Q1460.26 1437.43 1463.31 1442.04 Q1466.39 1446.62 1466.39 1455.37 Q1466.39 1464.1 1463.31 1468.71 Q1460.26 1473.29 1454.45 1473.29 Q1448.64 1473.29 1445.56 1468.71 Q1442.5 1464.1 1442.5 1455.37 Q1442.5 1446.62 1445.56 1442.04 Q1448.64 1437.43 1454.45 1437.43 Z" fill="#000000" fill-rule="evenodd" fill-opacity="1" /><path clip-path="url(#clip540)" d="M1474.61 1466.74 L1479.49 1466.74 L1479.49 1472.62 L1474.61 1472.62 L1474.61 1466.74 Z" fill="#000000" fill-rule="evenodd" fill-opacity="1" /><path clip-path="url(#clip540)" d="M1499.68 1441.14 Q1496.07 1441.14 1494.24 1444.7 Q1492.43 1448.24 1492.43 1455.37 Q1492.43 1462.48 1494.24 1466.05 Q1496.07 1469.59 1499.68 1469.59 Q1503.31 1469.59 1505.12 1466.05 Q1506.95 1462.48 1506.95 1455.37 Q1506.95 1448.24 1505.12 1444.7 Q1503.31 1441.14 1499.68 1441.14 M1499.68 1437.43 Q1505.49 1437.43 1508.55 1442.04 Q1511.62 1446.62 1511.62 1455.37 Q1511.62 1464.1 1508.55 1468.71 Q1505.49 1473.29 1499.68 1473.29 Q1493.87 1473.29 1490.79 1468.71 Q1487.74 1464.1 1487.74 1455.37 Q1487.74 1446.62 1490.79 1442.04 Q1493.87 1437.43 1499.68 1437.43 Z" fill="#000000" fill-rule="evenodd" fill-opacity="1" /><path clip-path="url(#clip540)" d="M1765.67 1468.68 L1781.99 1468.68 L1781.99 1472.62 L1760.05 1472.62 L1760.05 1468.68 Q1762.71 1465.93 1767.29 1461.3 Q1771.9 1456.65 1773.08 1455.31 Q1775.32 1452.78 1776.2 1451.05 Q1777.11 1449.29 1777.11 1447.6 Q1777.11 1444.84 1775.16 1443.11 Q1773.24 1441.37 1770.14 1441.37 Q1767.94 1441.37 1765.49 1442.13 Q1763.06 1442.9 1760.28 1444.45 L1760.28 1439.73 Q1763.1 1438.59 1765.56 1438.01 Q1768.01 1437.43 1770.05 1437.43 Q1775.42 1437.43 1778.61 1440.12 Q1781.81 1442.81 1781.81 1447.3 Q1781.81 1449.43 1781 1451.35 Q1780.21 1453.24 1778.1 1455.84 Q1777.52 1456.51 1774.42 1459.73 Q1771.32 1462.92 1765.67 1468.68 Z" fill="#000000" fill-rule="evenodd" fill-opacity="1" /><path clip-path="url(#clip540)" d="M1795.83 1468.68 L1812.15 1468.68 L1812.15 1472.62 L1790.21 1472.62 L1790.21 1468.68 Q1792.87 1465.93 1797.45 1461.3 Q1802.06 1456.65 1803.24 1455.31 Q1805.49 1452.78 1806.37 1451.05 Q1807.27 1449.29 1807.27 1447.6 Q1807.27 1444.84 1805.32 1443.11 Q1803.4 1441.37 1800.3 1441.37 Q1798.1 1441.37 1795.65 1442.13 Q1793.22 1442.9 1790.44 1444.45 L1790.44 1439.73 Q1793.26 1438.59 1795.72 1438.01 Q1798.17 1437.43 1800.21 1437.43 Q1805.58 1437.43 1808.77 1440.12 Q1811.97 1442.81 1811.97 1447.3 Q1811.97 1449.43 1811.16 1451.35 Q1810.37 1453.24 1808.26 1455.84 Q1807.69 1456.51 1804.58 1459.73 Q1801.48 1462.92 1795.83 1468.68 Z" fill="#000000" fill-rule="evenodd" fill-opacity="1" /><path clip-path="url(#clip540)" d="M1821.97 1466.74 L1826.85 1466.74 L1826.85 1472.62 L1821.97 1472.62 L1821.97 1466.74 Z" fill="#000000" fill-rule="evenodd" fill-opacity="1" /><path clip-path="url(#clip540)" d="M1837.08 1438.06 L1855.44 1438.06 L1855.44 1442 L1841.37 1442 L1841.37 1450.47 Q1842.38 1450.12 1843.4 1449.96 Q1844.42 1449.77 1845.44 1449.77 Q1851.23 1449.77 1854.61 1452.94 Q1857.99 1456.12 1857.99 1461.53 Q1857.99 1467.11 1854.51 1470.21 Q1851.04 1473.29 1844.72 1473.29 Q1842.55 1473.29 1840.28 1472.92 Q1838.03 1472.55 1835.62 1471.81 L1835.62 1467.11 Q1837.71 1468.24 1839.93 1468.8 Q1842.15 1469.36 1844.63 1469.36 Q1848.63 1469.36 1850.97 1467.25 Q1853.31 1465.14 1853.31 1461.53 Q1853.31 1457.92 1850.97 1455.81 Q1848.63 1453.71 1844.63 1453.71 Q1842.75 1453.71 1840.88 1454.12 Q1839.03 1454.54 1837.08 1455.42 L1837.08 1438.06 Z" fill="#000000" fill-rule="evenodd" fill-opacity="1" /><path clip-path="url(#clip540)" d="M2112.03 1468.68 L2128.35 1468.68 L2128.35 1472.62 L2106.41 1472.62 L2106.41 1468.68 Q2109.07 1465.93 2113.65 1461.3 Q2118.26 1456.65 2119.44 1455.31 Q2121.69 1452.78 2122.57 1451.05 Q2123.47 1449.29 2123.47 1447.6 Q2123.47 1444.84 2121.52 1443.11 Q2119.6 1441.37 2116.5 1441.37 Q2114.3 1441.37 2111.85 1442.13 Q2109.42 1442.9 2106.64 1444.45 L2106.64 1439.73 Q2109.46 1438.59 2111.92 1438.01 Q2114.37 1437.43 2116.41 1437.43 Q2121.78 1437.43 2124.97 1440.12 Q2128.17 1442.81 2128.17 1447.3 Q2128.17 1449.43 2127.36 1451.35 Q2126.57 1453.24 2124.46 1455.84 Q2123.89 1456.51 2120.78 1459.73 Q2117.68 1462.92 2112.03 1468.68 Z" fill="#000000" fill-rule="evenodd" fill-opacity="1" /><path clip-path="url(#clip540)" d="M2138.21 1438.06 L2156.57 1438.06 L2156.57 1442 L2142.5 1442 L2142.5 1450.47 Q2143.51 1450.12 2144.53 1449.96 Q2145.55 1449.77 2146.57 1449.77 Q2152.36 1449.77 2155.74 1452.94 Q2159.12 1456.12 2159.12 1461.53 Q2159.12 1467.11 2155.64 1470.21 Q2152.17 1473.29 2145.85 1473.29 Q2143.68 1473.29 2141.41 1472.92 Q2139.16 1472.55 2136.76 1471.81 L2136.76 1467.11 Q2138.84 1468.24 2141.06 1468.8 Q2143.28 1469.36 2145.76 1469.36 Q2149.76 1469.36 2152.1 1467.25 Q2154.44 1465.14 2154.44 1461.53 Q2154.44 1457.92 2152.1 1455.81 Q2149.76 1453.71 2145.76 1453.71 Q2143.88 1453.71 2142.01 1454.12 Q2140.16 1454.54 2138.21 1455.42 L2138.21 1438.06 Z" fill="#000000" fill-rule="evenodd" fill-opacity="1" /><path clip-path="url(#clip540)" d="M2168.33 1466.74 L2173.21 1466.74 L2173.21 1472.62 L2168.33 1472.62 L2168.33 1466.74 Z" fill="#000000" fill-rule="evenodd" fill-opacity="1" /><path clip-path="url(#clip540)" d="M2193.4 1441.14 Q2189.79 1441.14 2187.96 1444.7 Q2186.15 1448.24 2186.15 1455.37 Q2186.15 1462.48 2187.96 1466.05 Q2189.79 1469.59 2193.4 1469.59 Q2197.03 1469.59 2198.84 1466.05 Q2200.67 1462.48 2200.67 1455.37 Q2200.67 1448.24 2198.84 1444.7 Q2197.03 1441.14 2193.4 1441.14 M2193.4 1437.43 Q2199.21 1437.43 2202.26 1442.04 Q2205.34 1446.62 2205.34 1455.37 Q2205.34 1464.1 2202.26 1468.71 Q2199.21 1473.29 2193.4 1473.29 Q2187.59 1473.29 2184.51 1468.71 Q2181.45 1464.1 2181.45 1455.37 Q2181.45 1446.62 2184.51 1442.04 Q2187.59 1437.43 2193.4 1437.43 Z" fill="#000000" fill-rule="evenodd" fill-opacity="1" /><path clip-path="url(#clip540)" d="M1221.47 1572.73 L1221.47 1570.15 Q1225.94 1570.15 1226.96 1569.62 Q1227.99 1569.04 1227.99 1566.34 L1227.99 1522.68 Q1227.99 1519.57 1226.88 1518.79 Q1225.82 1518.01 1221.47 1518.01 L1221.47 1515.39 L1233.52 1514.49 L1233.52 1566.34 Q1233.52 1569.04 1234.59 1569.62 Q1235.65 1570.15 1240.08 1570.15 L1240.08 1572.73 Q1239.06 1572.73 1236.92 1572.65 Q1234.79 1572.57 1233.24 1572.53 Q1231.68 1572.48 1230.78 1572.48 Q1229.79 1572.48 1221.47 1572.73 Z" fill="#000000" fill-rule="evenodd" fill-opacity="1" /><path clip-path="url(#clip540)" d="M1252.71 1568.22 Q1247.18 1562.73 1247.18 1554.78 Q1247.18 1546.78 1252.59 1540.96 Q1258.04 1535.1 1265.83 1535.1 Q1273.45 1535.1 1278.9 1540.92 Q1284.4 1546.7 1284.4 1554.78 Q1284.4 1562.69 1278.86 1568.18 Q1273.37 1573.67 1265.75 1573.67 Q1258.29 1573.67 1252.71 1568.22 M1254.15 1554.08 Q1254.15 1562.24 1256.28 1565.93 Q1259.56 1571.54 1265.83 1571.54 Q1268.94 1571.54 1271.53 1569.86 Q1274.15 1568.18 1275.58 1565.35 Q1277.43 1561.66 1277.43 1554.08 Q1277.43 1546.01 1275.21 1542.44 Q1271.94 1536.99 1265.75 1536.99 Q1263.04 1536.99 1260.38 1538.42 Q1257.75 1539.82 1256.15 1542.6 Q1254.15 1546.29 1254.15 1554.08 Z" fill="#000000" fill-rule="evenodd" fill-opacity="1" /><path clip-path="url(#clip540)" d="M1285.72 1579.37 Q1285.72 1576.67 1287.77 1574.33 Q1289.86 1571.99 1293.47 1570.97 Q1289.78 1568.63 1289.78 1563.51 Q1289.78 1559.57 1292.36 1556.54 Q1288.43 1553.26 1288.43 1547.89 Q1288.43 1542.93 1292.36 1539.28 Q1296.3 1535.64 1302.04 1535.64 Q1307.08 1535.64 1310.93 1538.67 Q1314.95 1534.73 1319.83 1534.69 Q1322 1534.69 1323.02 1536.05 Q1324.09 1537.4 1324.09 1538.83 Q1324.09 1540.1 1323.27 1540.72 Q1322.49 1541.33 1321.67 1541.33 Q1320.65 1541.33 1319.91 1540.68 Q1319.21 1539.98 1319.21 1538.91 Q1319.21 1537.15 1320.56 1536.62 Q1320.32 1536.54 1319.74 1536.54 Q1315.65 1536.54 1312.16 1539.82 Q1315.61 1543.01 1315.61 1547.97 Q1315.61 1552.93 1311.67 1556.58 Q1307.74 1560.23 1302.04 1560.23 Q1297.32 1560.23 1293.72 1557.61 Q1292.28 1559.29 1292.28 1561.58 Q1292.28 1563.67 1293.55 1565.31 Q1294.82 1566.95 1296.75 1567.2 Q1297.32 1567.28 1303.02 1567.28 Q1306.38 1567.28 1308.23 1567.36 Q1310.07 1567.44 1312.69 1568.02 Q1315.36 1568.55 1317.45 1569.62 Q1322.9 1572.65 1322.94 1579.21 Q1322.94 1584 1317.41 1587 Q1311.92 1590.03 1304.29 1590.03 Q1296.59 1590.03 1291.13 1586.95 Q1285.72 1583.92 1285.72 1579.37 M1290.11 1579.37 Q1290.11 1582.81 1294.17 1585.44 Q1298.23 1588.1 1304.37 1588.1 Q1310.4 1588.1 1314.46 1585.48 Q1318.56 1582.9 1318.56 1579.37 Q1318.56 1576.87 1317.12 1575.27 Q1315.69 1573.67 1312.74 1573.02 Q1309.83 1572.4 1307.78 1572.28 Q1305.73 1572.16 1301.96 1572.16 L1297 1572.16 Q1294.13 1572.32 1292.12 1574.41 Q1290.11 1576.5 1290.11 1579.37 M1294.7 1547.97 Q1294.7 1558.3 1302.04 1558.3 Q1305.73 1558.3 1307.98 1554.94 Q1309.33 1552.69 1309.33 1547.89 Q1309.33 1537.56 1302.04 1537.56 Q1298.35 1537.56 1296.05 1540.92 Q1294.7 1543.18 1294.7 1547.97 Z" fill="#000000" fill-rule="evenodd" fill-opacity="1" /><path clip-path="url(#clip540)" d="M1332.67 1595.99 Q1332.67 1594.93 1332.75 1594.61 Q1332.87 1594.3 1333.33 1593.81 L1344.6 1581.24 Q1350.77 1574.3 1350.77 1568.24 Q1350.77 1564.31 1348.71 1561.5 Q1346.67 1558.69 1342.91 1558.69 Q1340.33 1558.69 1338.15 1560.27 Q1335.97 1561.84 1334.96 1564.66 Q1335.14 1564.6 1335.74 1564.6 Q1337.2 1564.6 1338.01 1565.52 Q1338.84 1566.44 1338.84 1567.67 Q1338.84 1569.25 1337.8 1570.02 Q1336.8 1570.77 1335.8 1570.77 Q1335.39 1570.77 1334.85 1570.68 Q1334.33 1570.6 1333.5 1569.79 Q1332.67 1568.96 1332.67 1567.5 Q1332.67 1563.39 1335.77 1560.12 Q1338.89 1556.85 1343.66 1556.85 Q1349.05 1556.85 1352.58 1560.07 Q1356.14 1563.25 1356.14 1568.24 Q1356.14 1569.99 1355.59 1571.6 Q1355.08 1573.18 1354.36 1574.41 Q1353.67 1575.65 1351.78 1577.63 Q1349.88 1579.6 1348.36 1581.01 Q1346.84 1582.42 1343.43 1585.4 L1337.2 1591.45 L1347.79 1591.45 Q1352.95 1591.45 1353.36 1591 Q1353.93 1590.16 1354.65 1585.77 L1356.14 1585.77 L1354.47 1595.99 L1332.67 1595.99 Z" fill="#000000" fill-rule="evenodd" fill-opacity="1" /><path clip-path="url(#clip540)" d="M1435.54 1516.33 Q1435.54 1518.01 1434.1 1518.01 Q1429.47 1518.17 1427.58 1519.73 Q1425.74 1521.25 1425.04 1524.2 L1413.32 1570.97 Q1412.91 1572.44 1412.66 1572.61 Q1412.42 1572.73 1411.97 1572.73 Q1411.39 1572.73 1411.07 1572.44 Q1410.78 1572.16 1410.37 1571.13 L1389.46 1521.7 Q1389.3 1521.37 1389.1 1520.92 Q1388.89 1520.47 1388.73 1520.18 L1377.62 1564.49 Q1377.29 1565.76 1377.29 1566.42 Q1377.29 1568.02 1378.4 1569.04 Q1379.54 1570.03 1382.82 1570.15 Q1384.5 1570.15 1384.5 1571.05 Q1384.5 1572.73 1382.99 1572.73 Q1381.59 1572.73 1378.68 1572.61 Q1375.77 1572.48 1374.34 1572.48 Q1372.95 1572.48 1370.12 1572.61 Q1367.29 1572.73 1365.94 1572.73 Q1364.87 1572.73 1364.87 1571.79 Q1364.87 1571.05 1365.16 1570.68 Q1365.44 1570.27 1365.69 1570.23 Q1365.94 1570.15 1366.31 1570.15 Q1368.76 1570.07 1370.44 1569.57 Q1372.13 1569.08 1373.07 1568.14 Q1374.05 1567.2 1374.5 1566.25 Q1374.99 1565.27 1375.36 1563.84 L1386.59 1518.75 Q1386.59 1518.01 1380.9 1518.01 Q1379.91 1518.01 1379.5 1517.97 Q1379.13 1517.93 1378.85 1517.72 Q1378.56 1517.52 1378.56 1517.07 Q1378.56 1515.92 1379.05 1515.67 Q1379.54 1515.39 1380.98 1515.39 L1392.25 1515.39 Q1393.69 1515.39 1394.05 1515.63 Q1394.42 1515.84 1394.92 1516.99 L1413.48 1560.8 L1422.87 1523.46 Q1423.12 1522.72 1423.12 1521.7 Q1423.12 1520.06 1421.89 1519.08 Q1420.7 1518.05 1417.42 1518.01 Q1415.9 1518.01 1415.9 1517.07 Q1415.9 1516.29 1416.19 1515.92 Q1416.52 1515.51 1416.76 1515.47 Q1417.05 1515.39 1417.42 1515.39 Q1418.81 1515.39 1421.68 1515.51 Q1424.55 1515.63 1425.99 1515.63 Q1427.38 1515.63 1430.21 1515.51 Q1433.08 1515.39 1434.47 1515.39 Q1434.96 1515.39 1435.21 1515.63 Q1435.49 1515.84 1435.54 1516.08 L1435.54 1516.33 Z" fill="#000000" fill-rule="evenodd" fill-opacity="1" /><polyline clip-path="url(#clip540)" style="stroke:#000000; stroke-linecap:butt; stroke-linejoin:round; stroke-width:4; stroke-opacity:1; fill:none" points="
  300.326,1410.22 300.326,47.2441 
  "/>
<polyline clip-path="url(#clip540)" style="stroke:#000000; stroke-linecap:butt; stroke-linejoin:round; stroke-width:4; stroke-opacity:1; fill:none" points="
  300.326,1168.02 319.224,1168.02 
  "/>
<polyline clip-path="url(#clip540)" style="stroke:#000000; stroke-linecap:butt; stroke-linejoin:round; stroke-width:4; stroke-opacity:1; fill:none" points="
  300.326,893.56 319.224,893.56 
  "/>
<polyline clip-path="url(#clip540)" style="stroke:#000000; stroke-linecap:butt; stroke-linejoin:round; stroke-width:4; stroke-opacity:1; fill:none" points="
  300.326,619.101 319.224,619.101 
  "/>
<polyline clip-path="url(#clip540)" style="stroke:#000000; stroke-linecap:butt; stroke-linejoin:round; stroke-width:4; stroke-opacity:1; fill:none" points="
  300.326,344.642 319.224,344.642 
  "/>
<polyline clip-path="url(#clip540)" style="stroke:#000000; stroke-linecap:butt; stroke-linejoin:round; stroke-width:4; stroke-opacity:1; fill:none" points="
  300.326,70.1822 319.224,70.1822 
  "/>
<path clip-path="url(#clip540)" d="M127.22 1168.47 L156.896 1168.47 L156.896 1172.41 L127.22 1172.41 L127.22 1168.47 Z" fill="#000000" fill-rule="evenodd" fill-opacity="1" /><path clip-path="url(#clip540)" d="M176.988 1153.82 Q173.377 1153.82 171.549 1157.38 Q169.743 1160.92 169.743 1168.05 Q169.743 1175.16 171.549 1178.73 Q173.377 1182.27 176.988 1182.27 Q180.623 1182.27 182.428 1178.73 Q184.257 1175.16 184.257 1168.05 Q184.257 1160.92 182.428 1157.38 Q180.623 1153.82 176.988 1153.82 M176.988 1150.11 Q182.799 1150.11 185.854 1154.72 Q188.933 1159.3 188.933 1168.05 Q188.933 1176.78 185.854 1181.39 Q182.799 1185.97 176.988 1185.97 Q171.178 1185.97 168.1 1181.39 Q165.044 1176.78 165.044 1168.05 Q165.044 1159.3 168.1 1154.72 Q171.178 1150.11 176.988 1150.11 Z" fill="#000000" fill-rule="evenodd" fill-opacity="1" /><path clip-path="url(#clip540)" d="M197.15 1179.42 L202.035 1179.42 L202.035 1185.3 L197.15 1185.3 L197.15 1179.42 Z" fill="#000000" fill-rule="evenodd" fill-opacity="1" /><path clip-path="url(#clip540)" d="M213.03 1181.36 L220.669 1181.36 L220.669 1155 L212.359 1156.67 L212.359 1152.41 L220.622 1150.74 L225.298 1150.74 L225.298 1181.36 L232.937 1181.36 L232.937 1185.3 L213.03 1185.3 L213.03 1181.36 Z" fill="#000000" fill-rule="evenodd" fill-opacity="1" /><path clip-path="url(#clip540)" d="M252.382 1153.82 Q248.77 1153.82 246.942 1157.38 Q245.136 1160.92 245.136 1168.05 Q245.136 1175.16 246.942 1178.73 Q248.77 1182.27 252.382 1182.27 Q256.016 1182.27 257.821 1178.73 Q259.65 1175.16 259.65 1168.05 Q259.65 1160.92 257.821 1157.38 Q256.016 1153.82 252.382 1153.82 M252.382 1150.11 Q258.192 1150.11 261.247 1154.72 Q264.326 1159.3 264.326 1168.05 Q264.326 1176.78 261.247 1181.39 Q258.192 1185.97 252.382 1185.97 Q246.571 1185.97 243.493 1181.39 Q240.437 1176.78 240.437 1168.05 Q240.437 1159.3 243.493 1154.72 Q246.571 1150.11 252.382 1150.11 Z" fill="#000000" fill-rule="evenodd" fill-opacity="1" /><path clip-path="url(#clip540)" d="M128.216 894.012 L157.891 894.012 L157.891 897.947 L128.216 897.947 L128.216 894.012 Z" fill="#000000" fill-rule="evenodd" fill-opacity="1" /><path clip-path="url(#clip540)" d="M177.984 879.359 Q174.373 879.359 172.544 882.924 Q170.738 886.465 170.738 893.595 Q170.738 900.701 172.544 904.266 Q174.373 907.808 177.984 907.808 Q181.618 907.808 183.424 904.266 Q185.252 900.701 185.252 893.595 Q185.252 886.465 183.424 882.924 Q181.618 879.359 177.984 879.359 M177.984 875.655 Q183.794 875.655 186.849 880.262 Q189.928 884.845 189.928 893.595 Q189.928 902.322 186.849 906.928 Q183.794 911.512 177.984 911.512 Q172.174 911.512 169.095 906.928 Q166.039 902.322 166.039 893.595 Q166.039 884.845 169.095 880.262 Q172.174 875.655 177.984 875.655 Z" fill="#000000" fill-rule="evenodd" fill-opacity="1" /><path clip-path="url(#clip540)" d="M198.146 904.961 L203.03 904.961 L203.03 910.84 L198.146 910.84 L198.146 904.961 Z" fill="#000000" fill-rule="evenodd" fill-opacity="1" /><path clip-path="url(#clip540)" d="M223.215 879.359 Q219.604 879.359 217.775 882.924 Q215.97 886.465 215.97 893.595 Q215.97 900.701 217.775 904.266 Q219.604 907.808 223.215 907.808 Q226.849 907.808 228.655 904.266 Q230.483 900.701 230.483 893.595 Q230.483 886.465 228.655 882.924 Q226.849 879.359 223.215 879.359 M223.215 875.655 Q229.025 875.655 232.081 880.262 Q235.159 884.845 235.159 893.595 Q235.159 902.322 232.081 906.928 Q229.025 911.512 223.215 911.512 Q217.405 911.512 214.326 906.928 Q211.271 902.322 211.271 893.595 Q211.271 884.845 214.326 880.262 Q217.405 875.655 223.215 875.655 Z" fill="#000000" fill-rule="evenodd" fill-opacity="1" /><path clip-path="url(#clip540)" d="M243.423 876.28 L261.78 876.28 L261.78 880.215 L247.706 880.215 L247.706 888.688 Q248.724 888.34 249.743 888.178 Q250.761 887.993 251.78 887.993 Q257.567 887.993 260.946 891.164 Q264.326 894.336 264.326 899.752 Q264.326 905.331 260.854 908.433 Q257.381 911.512 251.062 911.512 Q248.886 911.512 246.618 911.141 Q244.372 910.771 241.965 910.03 L241.965 905.331 Q244.048 906.465 246.27 907.021 Q248.493 907.576 250.969 907.576 Q254.974 907.576 257.312 905.47 Q259.65 903.363 259.65 899.752 Q259.65 896.141 257.312 894.035 Q254.974 891.928 250.969 891.928 Q249.095 891.928 247.22 892.345 Q245.368 892.762 243.423 893.641 L243.423 876.28 Z" fill="#000000" fill-rule="evenodd" fill-opacity="1" /><path clip-path="url(#clip540)" d="M176.988 604.9 Q173.377 604.9 171.549 608.464 Q169.743 612.006 169.743 619.136 Q169.743 626.242 171.549 629.807 Q173.377 633.349 176.988 633.349 Q180.623 633.349 182.428 629.807 Q184.257 626.242 184.257 619.136 Q184.257 612.006 182.428 608.464 Q180.623 604.9 176.988 604.9 M176.988 601.196 Q182.799 601.196 185.854 605.802 Q188.933 610.386 188.933 619.136 Q188.933 627.862 185.854 632.469 Q182.799 637.052 176.988 637.052 Q171.178 637.052 168.1 632.469 Q165.044 627.862 165.044 619.136 Q165.044 610.386 168.1 605.802 Q171.178 601.196 176.988 601.196 Z" fill="#000000" fill-rule="evenodd" fill-opacity="1" /><path clip-path="url(#clip540)" d="M197.15 630.501 L202.035 630.501 L202.035 636.381 L197.15 636.381 L197.15 630.501 Z" fill="#000000" fill-rule="evenodd" fill-opacity="1" /><path clip-path="url(#clip540)" d="M222.22 604.9 Q218.609 604.9 216.78 608.464 Q214.974 612.006 214.974 619.136 Q214.974 626.242 216.78 629.807 Q218.609 633.349 222.22 633.349 Q225.854 633.349 227.659 629.807 Q229.488 626.242 229.488 619.136 Q229.488 612.006 227.659 608.464 Q225.854 604.9 222.22 604.9 M222.22 601.196 Q228.03 601.196 231.085 605.802 Q234.164 610.386 234.164 619.136 Q234.164 627.862 231.085 632.469 Q228.03 637.052 222.22 637.052 Q216.409 637.052 213.331 632.469 Q210.275 627.862 210.275 619.136 Q210.275 610.386 213.331 605.802 Q216.409 601.196 222.22 601.196 Z" fill="#000000" fill-rule="evenodd" fill-opacity="1" /><path clip-path="url(#clip540)" d="M252.382 604.9 Q248.77 604.9 246.942 608.464 Q245.136 612.006 245.136 619.136 Q245.136 626.242 246.942 629.807 Q248.77 633.349 252.382 633.349 Q256.016 633.349 257.821 629.807 Q259.65 626.242 259.65 619.136 Q259.65 612.006 257.821 608.464 Q256.016 604.9 252.382 604.9 M252.382 601.196 Q258.192 601.196 261.247 605.802 Q264.326 610.386 264.326 619.136 Q264.326 627.862 261.247 632.469 Q258.192 637.052 252.382 637.052 Q246.571 637.052 243.493 632.469 Q240.437 627.862 240.437 619.136 Q240.437 610.386 243.493 605.802 Q246.571 601.196 252.382 601.196 Z" fill="#000000" fill-rule="evenodd" fill-opacity="1" /><path clip-path="url(#clip540)" d="M177.984 330.44 Q174.373 330.44 172.544 334.005 Q170.738 337.547 170.738 344.676 Q170.738 351.783 172.544 355.348 Q174.373 358.889 177.984 358.889 Q181.618 358.889 183.424 355.348 Q185.252 351.783 185.252 344.676 Q185.252 337.547 183.424 334.005 Q181.618 330.44 177.984 330.44 M177.984 326.737 Q183.794 326.737 186.849 331.343 Q189.928 335.926 189.928 344.676 Q189.928 353.403 186.849 358.01 Q183.794 362.593 177.984 362.593 Q172.174 362.593 169.095 358.01 Q166.039 353.403 166.039 344.676 Q166.039 335.926 169.095 331.343 Q172.174 326.737 177.984 326.737 Z" fill="#000000" fill-rule="evenodd" fill-opacity="1" /><path clip-path="url(#clip540)" d="M198.146 356.042 L203.03 356.042 L203.03 361.922 L198.146 361.922 L198.146 356.042 Z" fill="#000000" fill-rule="evenodd" fill-opacity="1" /><path clip-path="url(#clip540)" d="M223.215 330.44 Q219.604 330.44 217.775 334.005 Q215.97 337.547 215.97 344.676 Q215.97 351.783 217.775 355.348 Q219.604 358.889 223.215 358.889 Q226.849 358.889 228.655 355.348 Q230.483 351.783 230.483 344.676 Q230.483 337.547 228.655 334.005 Q226.849 330.44 223.215 330.44 M223.215 326.737 Q229.025 326.737 232.081 331.343 Q235.159 335.926 235.159 344.676 Q235.159 353.403 232.081 358.01 Q229.025 362.593 223.215 362.593 Q217.405 362.593 214.326 358.01 Q211.271 353.403 211.271 344.676 Q211.271 335.926 214.326 331.343 Q217.405 326.737 223.215 326.737 Z" fill="#000000" fill-rule="evenodd" fill-opacity="1" /><path clip-path="url(#clip540)" d="M243.423 327.362 L261.78 327.362 L261.78 331.297 L247.706 331.297 L247.706 339.769 Q248.724 339.422 249.743 339.26 Q250.761 339.074 251.78 339.074 Q257.567 339.074 260.946 342.246 Q264.326 345.417 264.326 350.834 Q264.326 356.412 260.854 359.514 Q257.381 362.593 251.062 362.593 Q248.886 362.593 246.618 362.222 Q244.372 361.852 241.965 361.111 L241.965 356.412 Q244.048 357.547 246.27 358.102 Q248.493 358.658 250.969 358.658 Q254.974 358.658 257.312 356.551 Q259.65 354.445 259.65 350.834 Q259.65 347.223 257.312 345.116 Q254.974 343.01 250.969 343.01 Q249.095 343.01 247.22 343.426 Q245.368 343.843 243.423 344.723 L243.423 327.362 Z" fill="#000000" fill-rule="evenodd" fill-opacity="1" /><path clip-path="url(#clip540)" d="M176.988 55.9809 Q173.377 55.9809 171.549 59.5457 Q169.743 63.0873 169.743 70.2169 Q169.743 77.3234 171.549 80.8882 Q173.377 84.4298 176.988 84.4298 Q180.623 84.4298 182.428 80.8882 Q184.257 77.3234 184.257 70.2169 Q184.257 63.0873 182.428 59.5457 Q180.623 55.9809 176.988 55.9809 M176.988 52.2772 Q182.799 52.2772 185.854 56.8837 Q188.933 61.467 188.933 70.2169 Q188.933 78.9437 185.854 83.5502 Q182.799 88.1335 176.988 88.1335 Q171.178 88.1335 168.1 83.5502 Q165.044 78.9437 165.044 70.2169 Q165.044 61.467 168.1 56.8837 Q171.178 52.2772 176.988 52.2772 Z" fill="#000000" fill-rule="evenodd" fill-opacity="1" /><path clip-path="url(#clip540)" d="M197.15 81.5826 L202.035 81.5826 L202.035 87.4622 L197.15 87.4622 L197.15 81.5826 Z" fill="#000000" fill-rule="evenodd" fill-opacity="1" /><path clip-path="url(#clip540)" d="M213.03 83.527 L220.669 83.527 L220.669 57.1614 L212.359 58.8281 L212.359 54.5688 L220.622 52.9022 L225.298 52.9022 L225.298 83.527 L232.937 83.527 L232.937 87.4622 L213.03 87.4622 L213.03 83.527 Z" fill="#000000" fill-rule="evenodd" fill-opacity="1" /><path clip-path="url(#clip540)" d="M252.382 55.9809 Q248.77 55.9809 246.942 59.5457 Q245.136 63.0873 245.136 70.2169 Q245.136 77.3234 246.942 80.8882 Q248.77 84.4298 252.382 84.4298 Q256.016 84.4298 257.821 80.8882 Q259.65 77.3234 259.65 70.2169 Q259.65 63.0873 257.821 59.5457 Q256.016 55.9809 252.382 55.9809 M252.382 52.2772 Q258.192 52.2772 261.247 56.8837 Q264.326 61.467 264.326 70.2169 Q264.326 78.9437 261.247 83.5502 Q258.192 88.1335 252.382 88.1335 Q246.571 88.1335 243.493 83.5502 Q240.437 78.9437 240.437 70.2169 Q240.437 61.467 243.493 56.8837 Q246.571 52.2772 252.382 52.2772 Z" fill="#000000" fill-rule="evenodd" fill-opacity="1" /><path clip-path="url(#clip540)" d="M73.0823 729.273 Q73.8611 729.273 74.271 729.601 Q74.6399 729.888 74.7219 730.175 Q74.7629 730.421 74.7629 730.79 Q74.7629 731.855 74.6399 735.544 Q74.5169 739.234 74.5169 740.299 Q74.5169 742.021 74.6399 745.546 Q74.7629 749.071 74.7629 750.792 Q74.7629 751.94 73.8201 751.94 Q73.2053 751.94 72.8774 751.817 Q72.5085 751.694 72.3855 751.366 Q72.2215 750.997 72.2215 750.792 Q72.1806 750.547 72.1806 749.932 Q72.1806 749.112 72.0986 748.251 Q71.9756 747.39 71.7297 746.325 Q71.4837 745.259 70.8689 744.603 Q70.2541 743.906 69.3933 743.906 Q69.0244 743.906 65.9912 744.193 Q62.958 744.48 59.4329 744.849 Q55.8668 745.218 55.3749 745.259 L55.3749 766.327 Q58.6951 768.254 60.9905 769.607 Q63.2859 770.959 64.0647 771.451 Q64.8435 771.943 65.3353 772.23 Q65.8272 772.517 66.1141 772.681 Q68.2866 773.869 69.2293 773.869 Q71.8526 773.869 72.1806 769.934 Q72.1806 768.582 73.1643 768.582 Q73.9021 768.582 74.312 768.91 Q74.6809 769.238 74.7219 769.525 Q74.7629 769.771 74.7629 770.18 Q74.7629 771.533 74.6399 774.361 Q74.5169 777.19 74.5169 778.583 Q74.5169 779.772 74.6399 782.231 Q74.7629 784.691 74.7629 785.797 Q74.7629 786.289 74.476 786.576 Q74.189 786.863 73.8201 786.863 Q73.2463 786.863 72.9184 786.781 Q72.5904 786.658 72.4265 786.33 Q72.2625 786.002 72.2625 785.838 Q72.2215 785.674 72.1806 785.101 Q71.9756 781.985 70.5 779.567 Q68.9834 777.108 65.0894 774.771 L16.0662 745.587 Q15.5744 745.3 15.3284 745.095 Q15.0825 744.89 14.8775 744.48 Q14.6726 744.029 14.6726 743.373 Q14.6726 742.349 15.0005 742.144 Q15.2874 741.939 16.6811 741.816 L69.1473 736.692 Q70.2541 736.569 70.7049 736.487 Q71.1148 736.364 71.5657 735.831 Q71.9756 735.258 72.0986 734.233 Q72.1806 733.167 72.1806 731.2 Q72.1806 730.462 72.2215 730.175 Q72.2215 729.888 72.4265 729.601 Q72.6314 729.273 73.0823 729.273 M52.7516 745.505 L25.0839 748.169 L52.7516 764.729 L52.7516 745.505 Z" fill="#000000" fill-rule="evenodd" fill-opacity="1" /><path clip-path="url(#clip540)" d="M58.556 679.153 L73.5334 682.854 Q74.4803 683.112 74.5951 683.285 Q74.7098 683.428 74.7098 683.887 Q74.7098 684.777 74.1073 684.777 Q74.0499 684.777 73.3039 684.691 Q72.5292 684.604 71.1233 684.604 Q65.9299 684.604 62.8598 687.129 Q59.7897 689.626 59.7897 694.073 Q59.7897 698.233 61.9704 702.222 Q64.151 706.21 67.3646 708.764 Q70.0043 710.916 73.2178 712.408 Q76.4314 713.871 79.2432 714.473 Q82.0264 715.076 83.7193 715.305 Q85.4121 715.506 86.5024 715.506 Q89.716 715.506 92.2123 714.473 Q94.6798 713.44 96.0857 711.719 Q97.4917 709.969 98.1803 707.96 Q98.8689 705.923 98.8689 703.714 Q98.8689 702.882 98.7541 701.877 Q98.6394 700.873 98.209 699.324 Q97.7786 697.746 97.0613 696.454 Q96.344 695.135 94.9667 693.987 Q93.5895 692.811 91.7532 692.351 Q87.0763 691.118 86.3877 691.118 Q85.8138 691.118 85.613 691.462 Q85.4121 691.806 85.2687 692.954 L85.1539 696.053 Q85.1539 696.11 85.1539 696.196 Q85.1539 696.741 85.1539 696.971 Q85.1252 697.201 85.0678 697.459 Q85.0104 697.688 84.8957 697.774 Q84.7522 697.832 84.5227 697.832 Q83.9775 697.832 83.7193 697.602 Q83.4323 697.373 83.4037 697.172 Q83.3463 696.971 83.3463 696.598 L83.5184 688.363 Q83.5184 687.703 83.4323 685.293 Q83.3463 682.883 83.3463 682.194 Q83.3463 681.42 83.9775 681.42 Q85.1539 681.42 85.1539 682.366 Q85.1826 683.313 85.2113 683.801 Q85.2113 684.289 85.3547 684.777 Q85.4982 685.236 85.613 685.408 Q85.6991 685.58 86.1294 685.81 Q86.5311 686.039 86.8754 686.125 Q87.1911 686.211 87.9945 686.412 Q88.5109 686.527 89.4865 686.814 Q90.462 687.072 90.9785 687.187 L95.5119 688.306 Q98.8689 689.081 99.0985 689.31 Q99.328 689.425 99.328 689.712 Q99.328 690.142 98.0655 691.06 Q96.8031 691.95 95.684 692.351 Q96.4587 693.069 96.9178 693.528 Q97.3482 693.987 98.0368 695.049 Q98.7254 696.081 99.2706 697.459 Q100.677 700.816 100.677 704.804 Q100.677 711.92 96.1718 716.396 Q91.6384 720.872 84.58 720.872 Q79.5876 720.872 74.6811 718.576 Q69.7747 716.281 66.1308 712.637 Q62.4868 708.993 60.2201 704.173 Q57.9534 699.352 57.9534 694.532 Q57.9534 692.696 58.4412 691.06 Q58.929 689.425 59.5315 688.449 Q60.134 687.445 61.0235 686.556 Q61.8843 685.666 62.286 685.379 Q62.6877 685.064 63.1754 684.777 L58.6707 680.674 Q57.9534 679.956 57.9534 679.784 Q57.9534 679.44 58.1543 679.296 Q58.3551 679.153 58.556 679.153 Z" fill="#000000" fill-rule="evenodd" fill-opacity="1" /><polyline clip-path="url(#clip542)" style="stroke:#000000; stroke-linecap:butt; stroke-linejoin:round; stroke-width:4; stroke-opacity:1; fill:none" points="
  2017.23,719.492 2017.23,521.778 
  "/>
<polyline clip-path="url(#clip542)" style="stroke:#000000; stroke-linecap:butt; stroke-linejoin:round; stroke-width:4; stroke-opacity:1; fill:none" points="
  358.414,1371.65 358.414,85.8189 
  "/>
<polyline clip-path="url(#clip542)" style="stroke:#000000; stroke-linecap:butt; stroke-linejoin:round; stroke-width:4; stroke-opacity:1; fill:none" points="
  1739.84,746.506 1739.84,498.108 
  "/>
<polyline clip-path="url(#clip542)" style="stroke:#000000; stroke-linecap:butt; stroke-linejoin:round; stroke-width:4; stroke-opacity:1; fill:none" points="
  1185.45,872.001 1185.45,393.833 
  "/>
<polyline clip-path="url(#clip542)" style="stroke:#000000; stroke-linecap:butt; stroke-linejoin:round; stroke-width:4; stroke-opacity:1; fill:none" points="
  632.81,1117.68 632.81,254.384 
  "/>
<polyline clip-path="url(#clip542)" style="stroke:#000000; stroke-linecap:butt; stroke-linejoin:round; stroke-width:4; stroke-opacity:1; fill:none" points="
  1462.55,797.54 1462.55,453.51 
  "/>
<polyline clip-path="url(#clip542)" style="stroke:#000000; stroke-linecap:butt; stroke-linejoin:round; stroke-width:4; stroke-opacity:1; fill:none" points="
  2294.67,706.885 2294.67,532.656 
  "/>
<polyline clip-path="url(#clip542)" style="stroke:#000000; stroke-linecap:butt; stroke-linejoin:round; stroke-width:4; stroke-opacity:1; fill:none" points="
  908.743,966.612 908.743,349.048 
  "/>
<line clip-path="url(#clip542)" x1="2033.23" y1="719.492" x2="2001.23" y2="719.492" style="stroke:#000000; stroke-width:3.2; stroke-opacity:1"/>
<line clip-path="url(#clip542)" x1="2033.23" y1="521.778" x2="2001.23" y2="521.778" style="stroke:#000000; stroke-width:3.2; stroke-opacity:1"/>
<line clip-path="url(#clip542)" x1="374.414" y1="1371.65" x2="342.414" y2="1371.65" style="stroke:#000000; stroke-width:3.2; stroke-opacity:1"/>
<line clip-path="url(#clip542)" x1="374.414" y1="85.8189" x2="342.414" y2="85.8189" style="stroke:#000000; stroke-width:3.2; stroke-opacity:1"/>
<line clip-path="url(#clip542)" x1="1755.84" y1="746.506" x2="1723.84" y2="746.506" style="stroke:#000000; stroke-width:3.2; stroke-opacity:1"/>
<line clip-path="url(#clip542)" x1="1755.84" y1="498.108" x2="1723.84" y2="498.108" style="stroke:#000000; stroke-width:3.2; stroke-opacity:1"/>
<line clip-path="url(#clip542)" x1="1201.45" y1="872.001" x2="1169.45" y2="872.001" style="stroke:#000000; stroke-width:3.2; stroke-opacity:1"/>
<line clip-path="url(#clip542)" x1="1201.45" y1="393.833" x2="1169.45" y2="393.833" style="stroke:#000000; stroke-width:3.2; stroke-opacity:1"/>
<line clip-path="url(#clip542)" x1="648.81" y1="1117.68" x2="616.81" y2="1117.68" style="stroke:#000000; stroke-width:3.2; stroke-opacity:1"/>
<line clip-path="url(#clip542)" x1="648.81" y1="254.384" x2="616.81" y2="254.384" style="stroke:#000000; stroke-width:3.2; stroke-opacity:1"/>
<line clip-path="url(#clip542)" x1="1478.55" y1="797.54" x2="1446.55" y2="797.54" style="stroke:#000000; stroke-width:3.2; stroke-opacity:1"/>
<line clip-path="url(#clip542)" x1="1478.55" y1="453.51" x2="1446.55" y2="453.51" style="stroke:#000000; stroke-width:3.2; stroke-opacity:1"/>
<line clip-path="url(#clip542)" x1="2310.67" y1="706.885" x2="2278.67" y2="706.885" style="stroke:#000000; stroke-width:3.2; stroke-opacity:1"/>
<line clip-path="url(#clip542)" x1="2310.67" y1="532.656" x2="2278.67" y2="532.656" style="stroke:#000000; stroke-width:3.2; stroke-opacity:1"/>
<line clip-path="url(#clip542)" x1="924.743" y1="966.612" x2="892.743" y2="966.612" style="stroke:#000000; stroke-width:3.2; stroke-opacity:1"/>
<line clip-path="url(#clip542)" x1="924.743" y1="349.048" x2="892.743" y2="349.048" style="stroke:#000000; stroke-width:3.2; stroke-opacity:1"/>
<line clip-path="url(#clip542)" x1="2033.23" y1="620.635" x2="2001.23" y2="620.635" style="stroke:#000000; stroke-width:3.2; stroke-opacity:1"/>
<line clip-path="url(#clip542)" x1="374.414" y1="728.732" x2="342.414" y2="728.732" style="stroke:#000000; stroke-width:3.2; stroke-opacity:1"/>
<line clip-path="url(#clip542)" x1="1755.84" y1="622.307" x2="1723.84" y2="622.307" style="stroke:#000000; stroke-width:3.2; stroke-opacity:1"/>
<line clip-path="url(#clip542)" x1="1201.45" y1="632.917" x2="1169.45" y2="632.917" style="stroke:#000000; stroke-width:3.2; stroke-opacity:1"/>
<line clip-path="url(#clip542)" x1="648.81" y1="686.032" x2="616.81" y2="686.032" style="stroke:#000000; stroke-width:3.2; stroke-opacity:1"/>
<line clip-path="url(#clip542)" x1="1478.55" y1="625.525" x2="1446.55" y2="625.525" style="stroke:#000000; stroke-width:3.2; stroke-opacity:1"/>
<line clip-path="url(#clip542)" x1="2310.67" y1="619.77" x2="2278.67" y2="619.77" style="stroke:#000000; stroke-width:3.2; stroke-opacity:1"/>
<line clip-path="url(#clip542)" x1="924.743" y1="657.83" x2="892.743" y2="657.83" style="stroke:#000000; stroke-width:3.2; stroke-opacity:1"/>
</svg>
