<?xml version="1.0" encoding="utf-8"?>
<svg xmlns="http://www.w3.org/2000/svg" xmlns:xlink="http://www.w3.org/1999/xlink" width="600" height="400" viewBox="0 0 2400 1600">
<defs>
  <clipPath id="clip670">
    <rect x="0" y="0" width="2400" height="1600"/>
  </clipPath>
</defs>
<path clip-path="url(#clip670)" d="
M0 1600 L2400 1600 L2400 0 L0 0  Z
  " fill="#000000" fill-rule="evenodd" fill-opacity="0"/>
<defs>
  <clipPath id="clip671">
    <rect x="480" y="0" width="1681" height="1600"/>
  </clipPath>
</defs>
<defs>
  <clipPath id="clip672">
    <rect x="266" y="47" width="2087" height="1370"/>
  </clipPath>
</defs>
<path clip-path="url(#clip670)" d="
M294.624 1416.74 L2352.76 1416.74 L2352.76 47.2441 L294.624 47.2441  Z
  " fill="#000000" fill-rule="evenodd" fill-opacity="0"/>
<defs>
  <clipPath id="clip673">
    <rect x="294" y="47" width="2059" height="1370"/>
  </clipPath>
</defs>
<polyline clip-path="url(#clip670)" style="stroke:#000000; stroke-linecap:butt; stroke-linejoin:round; stroke-width:4; stroke-opacity:1; fill:none" points="
  294.624,1416.74 2352.76,1416.74 
  "/>
<polyline clip-path="url(#clip670)" style="stroke:#000000; stroke-linecap:butt; stroke-linejoin:round; stroke-width:4; stroke-opacity:1; fill:none" points="
  416.214,1416.74 416.214,1400.3 
  "/>
<polyline clip-path="url(#clip670)" style="stroke:#000000; stroke-linecap:butt; stroke-linejoin:round; stroke-width:4; stroke-opacity:1; fill:none" points="
  764.037,1416.74 764.037,1400.3 
  "/>
<polyline clip-path="url(#clip670)" style="stroke:#000000; stroke-linecap:butt; stroke-linejoin:round; stroke-width:4; stroke-opacity:1; fill:none" points="
  1111.86,1416.74 1111.86,1400.3 
  "/>
<polyline clip-path="url(#clip670)" style="stroke:#000000; stroke-linecap:butt; stroke-linejoin:round; stroke-width:4; stroke-opacity:1; fill:none" points="
  1459.68,1416.74 1459.68,1400.3 
  "/>
<polyline clip-path="url(#clip670)" style="stroke:#000000; stroke-linecap:butt; stroke-linejoin:round; stroke-width:4; stroke-opacity:1; fill:none" points="
  1807.51,1416.74 1807.51,1400.3 
  "/>
<polyline clip-path="url(#clip670)" style="stroke:#000000; stroke-linecap:butt; stroke-linejoin:round; stroke-width:4; stroke-opacity:1; fill:none" points="
  2155.33,1416.74 2155.33,1400.3 
  "/>
<path clip-path="url(#clip670)" d="M368.784 1473.47 L376.423 1473.47 L376.423 1447.11 L368.112 1448.77 L368.112 1444.52 L376.376 1442.85 L381.052 1442.85 L381.052 1473.47 L388.691 1473.47 L388.691 1477.41 L368.784 1477.41 L368.784 1473.47 Z" fill="#000000" fill-rule="evenodd" fill-opacity="1" /><path clip-path="url(#clip670)" d="M402.163 1473.47 L418.483 1473.47 L418.483 1477.41 L396.538 1477.41 L396.538 1473.47 Q399.2 1470.72 403.784 1466.09 Q408.39 1461.44 409.571 1460.09 Q411.816 1457.57 412.696 1455.83 Q413.598 1454.08 413.598 1452.39 Q413.598 1449.63 411.654 1447.89 Q409.733 1446.16 406.631 1446.16 Q404.432 1446.16 401.978 1446.92 Q399.547 1447.69 396.77 1449.24 L396.77 1444.52 Q399.594 1443.38 402.047 1442.8 Q404.501 1442.22 406.538 1442.22 Q411.908 1442.22 415.103 1444.91 Q418.297 1447.59 418.297 1452.08 Q418.297 1454.21 417.487 1456.14 Q416.7 1458.03 414.594 1460.63 Q414.015 1461.3 410.913 1464.52 Q407.811 1467.71 402.163 1473.47 Z" fill="#000000" fill-rule="evenodd" fill-opacity="1" /><path clip-path="url(#clip670)" d="M428.297 1471.53 L433.182 1471.53 L433.182 1477.41 L428.297 1477.41 L428.297 1471.53 Z" fill="#000000" fill-rule="evenodd" fill-opacity="1" /><path clip-path="url(#clip670)" d="M443.413 1442.85 L461.769 1442.85 L461.769 1446.78 L447.695 1446.78 L447.695 1455.26 Q448.714 1454.91 449.732 1454.75 Q450.751 1454.56 451.769 1454.56 Q457.556 1454.56 460.936 1457.73 Q464.316 1460.9 464.316 1466.32 Q464.316 1471.9 460.843 1475 Q457.371 1478.08 451.052 1478.08 Q448.876 1478.08 446.607 1477.71 Q444.362 1477.34 441.955 1476.6 L441.955 1471.9 Q444.038 1473.03 446.26 1473.59 Q448.482 1474.14 450.959 1474.14 Q454.964 1474.14 457.302 1472.04 Q459.64 1469.93 459.64 1466.32 Q459.64 1462.71 457.302 1460.6 Q454.964 1458.5 450.959 1458.5 Q449.084 1458.5 447.209 1458.91 Q445.357 1459.33 443.413 1460.21 L443.413 1442.85 Z" fill="#000000" fill-rule="evenodd" fill-opacity="1" /><path clip-path="url(#clip670)" d="M716.109 1473.47 L723.748 1473.47 L723.748 1447.11 L715.438 1448.77 L715.438 1444.52 L723.702 1442.85 L728.377 1442.85 L728.377 1473.47 L736.016 1473.47 L736.016 1477.41 L716.109 1477.41 L716.109 1473.47 Z" fill="#000000" fill-rule="evenodd" fill-opacity="1" /><path clip-path="url(#clip670)" d="M745.507 1442.85 L763.863 1442.85 L763.863 1446.78 L749.789 1446.78 L749.789 1455.26 Q750.808 1454.91 751.826 1454.75 Q752.845 1454.56 753.863 1454.56 Q759.65 1454.56 763.03 1457.73 Q766.41 1460.9 766.41 1466.32 Q766.41 1471.9 762.937 1475 Q759.465 1478.08 753.146 1478.08 Q750.97 1478.08 748.701 1477.71 Q746.456 1477.34 744.049 1476.6 L744.049 1471.9 Q746.132 1473.03 748.354 1473.59 Q750.576 1474.14 753.053 1474.14 Q757.058 1474.14 759.396 1472.04 Q761.734 1469.93 761.734 1466.32 Q761.734 1462.71 759.396 1460.6 Q757.058 1458.5 753.053 1458.5 Q751.178 1458.5 749.303 1458.91 Q747.451 1459.33 745.507 1460.21 L745.507 1442.85 Z" fill="#000000" fill-rule="evenodd" fill-opacity="1" /><path clip-path="url(#clip670)" d="M775.623 1471.53 L780.507 1471.53 L780.507 1477.41 L775.623 1477.41 L775.623 1471.53 Z" fill="#000000" fill-rule="evenodd" fill-opacity="1" /><path clip-path="url(#clip670)" d="M800.692 1445.93 Q797.081 1445.93 795.252 1449.49 Q793.447 1453.03 793.447 1460.16 Q793.447 1467.27 795.252 1470.83 Q797.081 1474.38 800.692 1474.38 Q804.326 1474.38 806.132 1470.83 Q807.96 1467.27 807.96 1460.16 Q807.96 1453.03 806.132 1449.49 Q804.326 1445.93 800.692 1445.93 M800.692 1442.22 Q806.502 1442.22 809.558 1446.83 Q812.636 1451.41 812.636 1460.16 Q812.636 1468.89 809.558 1473.5 Q806.502 1478.08 800.692 1478.08 Q794.882 1478.08 791.803 1473.5 Q788.747 1468.89 788.747 1460.16 Q788.747 1451.41 791.803 1446.83 Q794.882 1442.22 800.692 1442.22 Z" fill="#000000" fill-rule="evenodd" fill-opacity="1" /><path clip-path="url(#clip670)" d="M1064.43 1473.47 L1072.07 1473.47 L1072.07 1447.11 L1063.76 1448.77 L1063.76 1444.52 L1072.02 1442.85 L1076.7 1442.85 L1076.7 1473.47 L1084.34 1473.47 L1084.34 1477.41 L1064.43 1477.41 L1064.43 1473.47 Z" fill="#000000" fill-rule="evenodd" fill-opacity="1" /><path clip-path="url(#clip670)" d="M1092.6 1442.85 L1114.82 1442.85 L1114.82 1444.84 L1102.28 1477.41 L1097.39 1477.41 L1109.2 1446.78 L1092.6 1446.78 L1092.6 1442.85 Z" fill="#000000" fill-rule="evenodd" fill-opacity="1" /><path clip-path="url(#clip670)" d="M1123.94 1471.53 L1128.83 1471.53 L1128.83 1477.41 L1123.94 1477.41 L1123.94 1471.53 Z" fill="#000000" fill-rule="evenodd" fill-opacity="1" /><path clip-path="url(#clip670)" d="M1139.06 1442.85 L1157.42 1442.85 L1157.42 1446.78 L1143.34 1446.78 L1143.34 1455.26 Q1144.36 1454.91 1145.38 1454.75 Q1146.4 1454.56 1147.42 1454.56 Q1153.2 1454.56 1156.58 1457.73 Q1159.96 1460.9 1159.96 1466.32 Q1159.96 1471.9 1156.49 1475 Q1153.02 1478.08 1146.7 1478.08 Q1144.52 1478.08 1142.25 1477.71 Q1140.01 1477.34 1137.6 1476.6 L1137.6 1471.9 Q1139.68 1473.03 1141.91 1473.59 Q1144.13 1474.14 1146.61 1474.14 Q1150.61 1474.14 1152.95 1472.04 Q1155.29 1469.93 1155.29 1466.32 Q1155.29 1462.71 1152.95 1460.6 Q1150.61 1458.5 1146.61 1458.5 Q1144.73 1458.5 1142.86 1458.91 Q1141 1459.33 1139.06 1460.21 L1139.06 1442.85 Z" fill="#000000" fill-rule="evenodd" fill-opacity="1" /><path clip-path="url(#clip670)" d="M1415.84 1473.47 L1432.16 1473.47 L1432.16 1477.41 L1410.22 1477.41 L1410.22 1473.47 Q1412.88 1470.72 1417.46 1466.09 Q1422.07 1461.44 1423.25 1460.09 Q1425.49 1457.57 1426.37 1455.83 Q1427.28 1454.08 1427.28 1452.39 Q1427.28 1449.63 1425.33 1447.89 Q1423.41 1446.16 1420.31 1446.16 Q1418.11 1446.16 1415.66 1446.92 Q1413.22 1447.69 1410.45 1449.24 L1410.45 1444.52 Q1413.27 1443.38 1415.72 1442.8 Q1418.18 1442.22 1420.22 1442.22 Q1425.59 1442.22 1428.78 1444.91 Q1431.97 1447.59 1431.97 1452.08 Q1431.97 1454.21 1431.16 1456.14 Q1430.38 1458.03 1428.27 1460.63 Q1427.69 1461.3 1424.59 1464.52 Q1421.49 1467.71 1415.84 1473.47 Z" fill="#000000" fill-rule="evenodd" fill-opacity="1" /><path clip-path="url(#clip670)" d="M1451.97 1445.93 Q1448.36 1445.93 1446.53 1449.49 Q1444.73 1453.03 1444.73 1460.16 Q1444.73 1467.27 1446.53 1470.83 Q1448.36 1474.38 1451.97 1474.38 Q1455.61 1474.38 1457.41 1470.83 Q1459.24 1467.27 1459.24 1460.16 Q1459.24 1453.03 1457.41 1449.49 Q1455.61 1445.93 1451.97 1445.93 M1451.97 1442.22 Q1457.78 1442.22 1460.84 1446.83 Q1463.92 1451.41 1463.92 1460.16 Q1463.92 1468.89 1460.84 1473.5 Q1457.78 1478.08 1451.97 1478.08 Q1446.16 1478.08 1443.09 1473.5 Q1440.03 1468.89 1440.03 1460.16 Q1440.03 1451.41 1443.09 1446.83 Q1446.16 1442.22 1451.97 1442.22 Z" fill="#000000" fill-rule="evenodd" fill-opacity="1" /><path clip-path="url(#clip670)" d="M1472.14 1471.53 L1477.02 1471.53 L1477.02 1477.41 L1472.14 1477.41 L1472.14 1471.53 Z" fill="#000000" fill-rule="evenodd" fill-opacity="1" /><path clip-path="url(#clip670)" d="M1497.21 1445.93 Q1493.59 1445.93 1491.77 1449.49 Q1489.96 1453.03 1489.96 1460.16 Q1489.96 1467.27 1491.77 1470.83 Q1493.59 1474.38 1497.21 1474.38 Q1500.84 1474.38 1502.65 1470.83 Q1504.47 1467.27 1504.47 1460.16 Q1504.47 1453.03 1502.65 1449.49 Q1500.84 1445.93 1497.21 1445.93 M1497.21 1442.22 Q1503.02 1442.22 1506.07 1446.83 Q1509.15 1451.41 1509.15 1460.16 Q1509.15 1468.89 1506.07 1473.5 Q1503.02 1478.08 1497.21 1478.08 Q1491.4 1478.08 1488.32 1473.5 Q1485.26 1468.89 1485.26 1460.16 Q1485.26 1451.41 1488.32 1446.83 Q1491.4 1442.22 1497.21 1442.22 Z" fill="#000000" fill-rule="evenodd" fill-opacity="1" /><path clip-path="url(#clip670)" d="M1764.16 1473.47 L1780.48 1473.47 L1780.48 1477.41 L1758.54 1477.41 L1758.54 1473.47 Q1761.2 1470.72 1765.78 1466.09 Q1770.39 1461.44 1771.57 1460.09 Q1773.81 1457.57 1774.69 1455.83 Q1775.6 1454.08 1775.6 1452.39 Q1775.6 1449.63 1773.65 1447.89 Q1771.73 1446.16 1768.63 1446.16 Q1766.43 1446.16 1763.98 1446.92 Q1761.55 1447.69 1758.77 1449.24 L1758.77 1444.52 Q1761.59 1443.38 1764.05 1442.8 Q1766.5 1442.22 1768.54 1442.22 Q1773.91 1442.22 1777.1 1444.91 Q1780.3 1447.59 1780.3 1452.08 Q1780.3 1454.21 1779.49 1456.14 Q1778.7 1458.03 1776.59 1460.63 Q1776.01 1461.3 1772.91 1464.52 Q1769.81 1467.71 1764.16 1473.47 Z" fill="#000000" fill-rule="evenodd" fill-opacity="1" /><path clip-path="url(#clip670)" d="M1794.32 1473.47 L1810.64 1473.47 L1810.64 1477.41 L1788.7 1477.41 L1788.7 1473.47 Q1791.36 1470.72 1795.94 1466.09 Q1800.55 1461.44 1801.73 1460.09 Q1803.98 1457.57 1804.86 1455.83 Q1805.76 1454.08 1805.76 1452.39 Q1805.76 1449.63 1803.81 1447.89 Q1801.89 1446.16 1798.79 1446.16 Q1796.59 1446.16 1794.14 1446.92 Q1791.71 1447.69 1788.93 1449.24 L1788.93 1444.52 Q1791.75 1443.38 1794.21 1442.8 Q1796.66 1442.22 1798.7 1442.22 Q1804.07 1442.22 1807.26 1444.91 Q1810.46 1447.59 1810.46 1452.08 Q1810.46 1454.21 1809.65 1456.14 Q1808.86 1458.03 1806.75 1460.63 Q1806.17 1461.3 1803.07 1464.52 Q1799.97 1467.71 1794.32 1473.47 Z" fill="#000000" fill-rule="evenodd" fill-opacity="1" /><path clip-path="url(#clip670)" d="M1820.46 1471.53 L1825.34 1471.53 L1825.34 1477.41 L1820.46 1477.41 L1820.46 1471.53 Z" fill="#000000" fill-rule="evenodd" fill-opacity="1" /><path clip-path="url(#clip670)" d="M1835.57 1442.85 L1853.93 1442.85 L1853.93 1446.78 L1839.86 1446.78 L1839.86 1455.26 Q1840.87 1454.91 1841.89 1454.75 Q1842.91 1454.56 1843.93 1454.56 Q1849.72 1454.56 1853.1 1457.73 Q1856.48 1460.9 1856.48 1466.32 Q1856.48 1471.9 1853 1475 Q1849.53 1478.08 1843.21 1478.08 Q1841.04 1478.08 1838.77 1477.71 Q1836.52 1477.34 1834.11 1476.6 L1834.11 1471.9 Q1836.2 1473.03 1838.42 1473.59 Q1840.64 1474.14 1843.12 1474.14 Q1847.12 1474.14 1849.46 1472.04 Q1851.8 1469.93 1851.8 1466.32 Q1851.8 1462.71 1849.46 1460.6 Q1847.12 1458.5 1843.12 1458.5 Q1841.24 1458.5 1839.37 1458.91 Q1837.52 1459.33 1835.57 1460.21 L1835.57 1442.85 Z" fill="#000000" fill-rule="evenodd" fill-opacity="1" /><path clip-path="url(#clip670)" d="M2111.49 1473.47 L2127.81 1473.47 L2127.81 1477.41 L2105.86 1477.41 L2105.86 1473.47 Q2108.52 1470.72 2113.11 1466.09 Q2117.71 1461.44 2118.89 1460.09 Q2121.14 1457.57 2122.02 1455.83 Q2122.92 1454.08 2122.92 1452.39 Q2122.92 1449.63 2120.98 1447.89 Q2119.06 1446.16 2115.95 1446.16 Q2113.75 1446.16 2111.3 1446.92 Q2108.87 1447.69 2106.09 1449.24 L2106.09 1444.52 Q2108.92 1443.38 2111.37 1442.8 Q2113.82 1442.22 2115.86 1442.22 Q2121.23 1442.22 2124.43 1444.91 Q2127.62 1447.59 2127.62 1452.08 Q2127.62 1454.21 2126.81 1456.14 Q2126.02 1458.03 2123.92 1460.63 Q2123.34 1461.3 2120.24 1464.52 Q2117.13 1467.71 2111.49 1473.47 Z" fill="#000000" fill-rule="evenodd" fill-opacity="1" /><path clip-path="url(#clip670)" d="M2137.67 1442.85 L2156.02 1442.85 L2156.02 1446.78 L2141.95 1446.78 L2141.95 1455.26 Q2142.97 1454.91 2143.99 1454.75 Q2145 1454.56 2146.02 1454.56 Q2151.81 1454.56 2155.19 1457.73 Q2158.57 1460.9 2158.57 1466.32 Q2158.57 1471.9 2155.1 1475 Q2151.63 1478.08 2145.31 1478.08 Q2143.13 1478.08 2140.86 1477.71 Q2138.62 1477.34 2136.21 1476.6 L2136.21 1471.9 Q2138.29 1473.03 2140.51 1473.59 Q2142.74 1474.14 2145.21 1474.14 Q2149.22 1474.14 2151.56 1472.04 Q2153.89 1469.93 2153.89 1466.32 Q2153.89 1462.71 2151.56 1460.6 Q2149.22 1458.5 2145.21 1458.5 Q2143.34 1458.5 2141.46 1458.91 Q2139.61 1459.33 2137.67 1460.21 L2137.67 1442.85 Z" fill="#000000" fill-rule="evenodd" fill-opacity="1" /><path clip-path="url(#clip670)" d="M2167.78 1471.53 L2172.67 1471.53 L2172.67 1477.41 L2167.78 1477.41 L2167.78 1471.53 Z" fill="#000000" fill-rule="evenodd" fill-opacity="1" /><path clip-path="url(#clip670)" d="M2192.85 1445.93 Q2189.24 1445.93 2187.41 1449.49 Q2185.61 1453.03 2185.61 1460.16 Q2185.61 1467.27 2187.41 1470.83 Q2189.24 1474.38 2192.85 1474.38 Q2196.49 1474.38 2198.29 1470.83 Q2200.12 1467.27 2200.12 1460.16 Q2200.12 1453.03 2198.29 1449.49 Q2196.49 1445.93 2192.85 1445.93 M2192.85 1442.22 Q2198.66 1442.22 2201.72 1446.83 Q2204.8 1451.41 2204.8 1460.16 Q2204.8 1468.89 2201.72 1473.5 Q2198.66 1478.08 2192.85 1478.08 Q2187.04 1478.08 2183.96 1473.5 Q2180.91 1468.89 2180.91 1460.16 Q2180.91 1451.41 2183.96 1446.83 Q2187.04 1442.22 2192.85 1442.22 Z" fill="#000000" fill-rule="evenodd" fill-opacity="1" /><path clip-path="url(#clip670)" d="M1218.45 1554.17 L1218.45 1551.59 Q1222.92 1551.59 1223.95 1551.05 Q1224.97 1550.48 1224.97 1547.78 L1224.97 1504.12 Q1224.97 1501.01 1223.86 1500.23 Q1222.8 1499.45 1218.45 1499.45 L1218.45 1496.83 L1230.5 1495.92 L1230.5 1547.78 Q1230.5 1550.48 1231.57 1551.05 Q1232.64 1551.59 1237.06 1551.59 L1237.06 1554.17 Q1236.04 1554.17 1233.91 1554.09 Q1231.77 1554.01 1230.22 1553.96 Q1228.66 1553.92 1227.76 1553.92 Q1226.77 1553.92 1218.45 1554.17 Z" fill="#000000" fill-rule="evenodd" fill-opacity="1" /><path clip-path="url(#clip670)" d="M1247 1549.66 Q1241.47 1544.17 1241.47 1536.22 Q1241.47 1528.22 1246.88 1522.4 Q1252.33 1516.54 1260.12 1516.54 Q1267.74 1516.54 1273.2 1522.36 Q1278.69 1528.14 1278.69 1536.22 Q1278.69 1544.13 1273.16 1549.62 Q1267.66 1555.11 1260.04 1555.11 Q1252.58 1555.11 1247 1549.66 M1248.44 1535.52 Q1248.44 1543.68 1250.57 1547.37 Q1253.85 1552.98 1260.12 1552.98 Q1263.24 1552.98 1265.82 1551.3 Q1268.44 1549.62 1269.88 1546.79 Q1271.72 1543.1 1271.72 1535.52 Q1271.72 1527.44 1269.51 1523.88 Q1266.23 1518.43 1260.04 1518.43 Q1257.33 1518.43 1254.67 1519.86 Q1252.05 1521.26 1250.45 1524.04 Q1248.44 1527.73 1248.44 1535.52 Z" fill="#000000" fill-rule="evenodd" fill-opacity="1" /><path clip-path="url(#clip670)" d="M1283.04 1560.81 Q1283.04 1558.1 1285.09 1555.77 Q1287.18 1553.43 1290.79 1552.41 Q1287.1 1550.07 1287.1 1544.95 Q1287.1 1541.01 1289.68 1537.98 Q1285.75 1534.7 1285.75 1529.33 Q1285.75 1524.37 1289.68 1520.72 Q1293.62 1517.07 1299.35 1517.07 Q1304.4 1517.07 1308.25 1520.11 Q1312.27 1516.17 1317.14 1516.13 Q1319.32 1516.13 1320.34 1517.48 Q1321.41 1518.84 1321.41 1520.27 Q1321.41 1521.54 1320.59 1522.16 Q1319.81 1522.77 1318.99 1522.77 Q1317.96 1522.77 1317.23 1522.12 Q1316.53 1521.42 1316.53 1520.35 Q1316.53 1518.59 1317.88 1518.06 Q1317.64 1517.98 1317.06 1517.98 Q1312.96 1517.98 1309.48 1521.26 Q1312.92 1524.45 1312.92 1529.41 Q1312.92 1534.37 1308.99 1538.02 Q1305.05 1541.67 1299.35 1541.67 Q1294.64 1541.67 1291.03 1539.04 Q1289.6 1540.73 1289.6 1543.02 Q1289.6 1545.11 1290.87 1546.75 Q1292.14 1548.39 1294.07 1548.64 Q1294.64 1548.72 1300.34 1548.72 Q1303.7 1548.72 1305.54 1548.8 Q1307.39 1548.88 1310.01 1549.46 Q1312.68 1549.99 1314.77 1551.05 Q1320.22 1554.09 1320.26 1560.65 Q1320.26 1565.44 1314.73 1568.43 Q1309.23 1571.47 1301.61 1571.47 Q1293.9 1571.47 1288.45 1568.39 Q1283.04 1565.36 1283.04 1560.81 M1287.43 1560.81 Q1287.43 1564.25 1291.48 1566.88 Q1295.54 1569.54 1301.69 1569.54 Q1307.72 1569.54 1311.77 1566.92 Q1315.87 1564.33 1315.87 1560.81 Q1315.87 1558.31 1314.44 1556.71 Q1313 1555.11 1310.05 1554.46 Q1307.14 1553.84 1305.09 1553.72 Q1303.04 1553.6 1299.27 1553.6 L1294.31 1553.6 Q1291.44 1553.76 1289.44 1555.85 Q1287.43 1557.94 1287.43 1560.81 M1292.02 1529.41 Q1292.02 1539.74 1299.35 1539.74 Q1303.04 1539.74 1305.3 1536.38 Q1306.65 1534.13 1306.65 1529.33 Q1306.65 1519 1299.35 1519 Q1295.67 1519 1293.37 1522.36 Q1292.02 1524.62 1292.02 1529.41 Z" fill="#000000" fill-rule="evenodd" fill-opacity="1" /><path clip-path="url(#clip670)" d="M1329.99 1577.43 Q1329.99 1576.37 1330.07 1576.05 Q1330.19 1575.73 1330.65 1575.25 L1341.92 1562.68 Q1348.09 1555.74 1348.09 1549.68 Q1348.09 1545.75 1346.02 1542.94 Q1343.99 1540.13 1340.23 1540.13 Q1337.65 1540.13 1335.47 1541.7 Q1333.29 1543.28 1332.28 1546.09 Q1332.45 1546.04 1333.06 1546.04 Q1334.52 1546.04 1335.32 1546.96 Q1336.15 1547.87 1336.15 1549.11 Q1336.15 1550.69 1335.12 1551.46 Q1334.12 1552.21 1333.11 1552.21 Q1332.71 1552.21 1332.17 1552.12 Q1331.65 1552.03 1330.82 1551.23 Q1329.99 1550.4 1329.99 1548.94 Q1329.99 1544.83 1333.08 1541.56 Q1336.21 1538.29 1340.97 1538.29 Q1346.37 1538.29 1349.9 1541.5 Q1353.46 1544.69 1353.46 1549.68 Q1353.46 1551.43 1352.91 1553.04 Q1352.39 1554.62 1351.68 1555.85 Q1350.99 1557.08 1349.09 1559.06 Q1347.2 1561.04 1345.68 1562.45 Q1344.16 1563.86 1340.75 1566.84 L1334.52 1572.89 L1345.11 1572.89 Q1350.27 1572.89 1350.67 1572.43 Q1351.25 1571.6 1351.96 1567.21 L1353.46 1567.21 L1351.79 1577.43 L1329.99 1577.43 Z" fill="#000000" fill-rule="evenodd" fill-opacity="1" /><path clip-path="url(#clip670)" d="M1432.85 1497.77 Q1432.85 1499.45 1431.42 1499.45 Q1426.79 1499.61 1424.9 1501.17 Q1423.06 1502.69 1422.36 1505.64 L1410.64 1552.41 Q1410.23 1553.88 1409.98 1554.05 Q1409.74 1554.17 1409.28 1554.17 Q1408.71 1554.17 1408.38 1553.88 Q1408.1 1553.6 1407.69 1552.57 L1386.78 1503.14 Q1386.62 1502.81 1386.41 1502.36 Q1386.21 1501.91 1386.04 1501.62 L1374.94 1545.93 Q1374.61 1547.2 1374.61 1547.86 Q1374.61 1549.46 1375.71 1550.48 Q1376.86 1551.46 1380.14 1551.59 Q1381.82 1551.59 1381.82 1552.49 Q1381.82 1554.17 1380.3 1554.17 Q1378.91 1554.17 1376 1554.05 Q1373.09 1553.92 1371.66 1553.92 Q1370.26 1553.92 1367.43 1554.05 Q1364.61 1554.17 1363.25 1554.17 Q1362.19 1554.17 1362.19 1553.23 Q1362.19 1552.49 1362.47 1552.12 Q1362.76 1551.71 1363.01 1551.67 Q1363.25 1551.59 1363.62 1551.59 Q1366.08 1551.51 1367.76 1551.01 Q1369.44 1550.52 1370.39 1549.58 Q1371.37 1548.64 1371.82 1547.69 Q1372.31 1546.71 1372.68 1545.27 L1383.91 1500.19 Q1383.91 1499.45 1378.21 1499.45 Q1377.23 1499.45 1376.82 1499.41 Q1376.45 1499.37 1376.17 1499.16 Q1375.88 1498.96 1375.88 1498.51 Q1375.88 1497.36 1376.37 1497.11 Q1376.86 1496.83 1378.3 1496.83 L1389.57 1496.83 Q1391 1496.83 1391.37 1497.07 Q1391.74 1497.28 1392.23 1498.42 L1410.8 1542.24 L1420.19 1504.9 Q1420.43 1504.16 1420.43 1503.14 Q1420.43 1501.5 1419.2 1500.51 Q1418.02 1499.49 1414.74 1499.45 Q1413.22 1499.45 1413.22 1498.51 Q1413.22 1497.73 1413.51 1497.36 Q1413.83 1496.95 1414.08 1496.91 Q1414.37 1496.83 1414.74 1496.83 Q1416.13 1496.83 1419 1496.95 Q1421.87 1497.07 1423.3 1497.07 Q1424.7 1497.07 1427.52 1496.95 Q1430.39 1496.83 1431.79 1496.83 Q1432.28 1496.83 1432.53 1497.07 Q1432.81 1497.28 1432.85 1497.52 L1432.85 1497.77 Z" fill="#000000" fill-rule="evenodd" fill-opacity="1" /><polyline clip-path="url(#clip670)" style="stroke:#000000; stroke-linecap:butt; stroke-linejoin:round; stroke-width:4; stroke-opacity:1; fill:none" points="
  294.624,1416.74 294.624,47.2441 
  "/>
<polyline clip-path="url(#clip670)" style="stroke:#000000; stroke-linecap:butt; stroke-linejoin:round; stroke-width:4; stroke-opacity:1; fill:none" points="
  294.624,1275.71 319.322,1275.71 
  "/>
<polyline clip-path="url(#clip670)" style="stroke:#000000; stroke-linecap:butt; stroke-linejoin:round; stroke-width:4; stroke-opacity:1; fill:none" points="
  294.624,995.377 319.322,995.377 
  "/>
<polyline clip-path="url(#clip670)" style="stroke:#000000; stroke-linecap:butt; stroke-linejoin:round; stroke-width:4; stroke-opacity:1; fill:none" points="
  294.624,715.046 319.322,715.046 
  "/>
<polyline clip-path="url(#clip670)" style="stroke:#000000; stroke-linecap:butt; stroke-linejoin:round; stroke-width:4; stroke-opacity:1; fill:none" points="
  294.624,434.714 319.322,434.714 
  "/>
<polyline clip-path="url(#clip670)" style="stroke:#000000; stroke-linecap:butt; stroke-linejoin:round; stroke-width:4; stroke-opacity:1; fill:none" points="
  294.624,154.383 319.322,154.383 
  "/>
<path clip-path="url(#clip670)" d="M121.519 1276.16 L151.194 1276.16 L151.194 1280.1 L121.519 1280.1 L121.519 1276.16 Z" fill="#000000" fill-rule="evenodd" fill-opacity="1" /><path clip-path="url(#clip670)" d="M171.287 1261.51 Q167.676 1261.51 165.847 1265.07 Q164.042 1268.61 164.042 1275.74 Q164.042 1282.85 165.847 1286.41 Q167.676 1289.96 171.287 1289.96 Q174.921 1289.96 176.727 1286.41 Q178.555 1282.85 178.555 1275.74 Q178.555 1268.61 176.727 1265.07 Q174.921 1261.51 171.287 1261.51 M171.287 1257.8 Q177.097 1257.8 180.153 1262.41 Q183.231 1266.99 183.231 1275.74 Q183.231 1284.47 180.153 1289.08 Q177.097 1293.66 171.287 1293.66 Q165.477 1293.66 162.398 1289.08 Q159.343 1284.47 159.343 1275.74 Q159.343 1266.99 162.398 1262.41 Q165.477 1257.8 171.287 1257.8 Z" fill="#000000" fill-rule="evenodd" fill-opacity="1" /><path clip-path="url(#clip670)" d="M191.449 1287.11 L196.333 1287.11 L196.333 1292.99 L191.449 1292.99 L191.449 1287.11 Z" fill="#000000" fill-rule="evenodd" fill-opacity="1" /><path clip-path="url(#clip670)" d="M207.328 1289.05 L214.967 1289.05 L214.967 1262.69 L206.657 1264.35 L206.657 1260.1 L214.921 1258.43 L219.597 1258.43 L219.597 1289.05 L227.236 1289.05 L227.236 1292.99 L207.328 1292.99 L207.328 1289.05 Z" fill="#000000" fill-rule="evenodd" fill-opacity="1" /><path clip-path="url(#clip670)" d="M246.68 1261.51 Q243.069 1261.51 241.24 1265.07 Q239.435 1268.61 239.435 1275.74 Q239.435 1282.85 241.24 1286.41 Q243.069 1289.96 246.68 1289.96 Q250.314 1289.96 252.12 1286.41 Q253.949 1282.85 253.949 1275.74 Q253.949 1268.61 252.12 1265.07 Q250.314 1261.51 246.68 1261.51 M246.68 1257.8 Q252.49 1257.8 255.546 1262.41 Q258.624 1266.99 258.624 1275.74 Q258.624 1284.47 255.546 1289.08 Q252.49 1293.66 246.68 1293.66 Q240.87 1293.66 237.791 1289.08 Q234.736 1284.47 234.736 1275.74 Q234.736 1266.99 237.791 1262.41 Q240.87 1257.8 246.68 1257.8 Z" fill="#000000" fill-rule="evenodd" fill-opacity="1" /><path clip-path="url(#clip670)" d="M122.514 995.829 L152.19 995.829 L152.19 999.764 L122.514 999.764 L122.514 995.829 Z" fill="#000000" fill-rule="evenodd" fill-opacity="1" /><path clip-path="url(#clip670)" d="M172.282 981.176 Q168.671 981.176 166.843 984.741 Q165.037 988.283 165.037 995.412 Q165.037 1002.52 166.843 1006.08 Q168.671 1009.63 172.282 1009.63 Q175.917 1009.63 177.722 1006.08 Q179.551 1002.52 179.551 995.412 Q179.551 988.283 177.722 984.741 Q175.917 981.176 172.282 981.176 M172.282 977.472 Q178.092 977.472 181.148 982.079 Q184.227 986.662 184.227 995.412 Q184.227 1004.14 181.148 1008.75 Q178.092 1013.33 172.282 1013.33 Q166.472 1013.33 163.393 1008.75 Q160.338 1004.14 160.338 995.412 Q160.338 986.662 163.393 982.079 Q166.472 977.472 172.282 977.472 Z" fill="#000000" fill-rule="evenodd" fill-opacity="1" /><path clip-path="url(#clip670)" d="M192.444 1006.78 L197.328 1006.78 L197.328 1012.66 L192.444 1012.66 L192.444 1006.78 Z" fill="#000000" fill-rule="evenodd" fill-opacity="1" /><path clip-path="url(#clip670)" d="M217.514 981.176 Q213.902 981.176 212.074 984.741 Q210.268 988.283 210.268 995.412 Q210.268 1002.52 212.074 1006.08 Q213.902 1009.63 217.514 1009.63 Q221.148 1009.63 222.953 1006.08 Q224.782 1002.52 224.782 995.412 Q224.782 988.283 222.953 984.741 Q221.148 981.176 217.514 981.176 M217.514 977.472 Q223.324 977.472 226.379 982.079 Q229.458 986.662 229.458 995.412 Q229.458 1004.14 226.379 1008.75 Q223.324 1013.33 217.514 1013.33 Q211.703 1013.33 208.625 1008.75 Q205.569 1004.14 205.569 995.412 Q205.569 986.662 208.625 982.079 Q211.703 977.472 217.514 977.472 Z" fill="#000000" fill-rule="evenodd" fill-opacity="1" /><path clip-path="url(#clip670)" d="M237.722 978.097 L256.078 978.097 L256.078 982.033 L242.004 982.033 L242.004 990.505 Q243.023 990.158 244.041 989.996 Q245.06 989.81 246.078 989.81 Q251.865 989.81 255.245 992.982 Q258.624 996.153 258.624 1001.57 Q258.624 1007.15 255.152 1010.25 Q251.68 1013.33 245.361 1013.33 Q243.185 1013.33 240.916 1012.96 Q238.671 1012.59 236.263 1011.85 L236.263 1007.15 Q238.347 1008.28 240.569 1008.84 Q242.791 1009.39 245.268 1009.39 Q249.273 1009.39 251.611 1007.29 Q253.949 1005.18 253.949 1001.57 Q253.949 997.958 251.611 995.852 Q249.273 993.745 245.268 993.745 Q243.393 993.745 241.518 994.162 Q239.666 994.579 237.722 995.458 L237.722 978.097 Z" fill="#000000" fill-rule="evenodd" fill-opacity="1" /><path clip-path="url(#clip670)" d="M171.287 700.845 Q167.676 700.845 165.847 704.409 Q164.042 707.951 164.042 715.081 Q164.042 722.187 165.847 725.752 Q167.676 729.293 171.287 729.293 Q174.921 729.293 176.727 725.752 Q178.555 722.187 178.555 715.081 Q178.555 707.951 176.727 704.409 Q174.921 700.845 171.287 700.845 M171.287 697.141 Q177.097 697.141 180.153 701.747 Q183.231 706.331 183.231 715.081 Q183.231 723.807 180.153 728.414 Q177.097 732.997 171.287 732.997 Q165.477 732.997 162.398 728.414 Q159.343 723.807 159.343 715.081 Q159.343 706.331 162.398 701.747 Q165.477 697.141 171.287 697.141 Z" fill="#000000" fill-rule="evenodd" fill-opacity="1" /><path clip-path="url(#clip670)" d="M191.449 726.446 L196.333 726.446 L196.333 732.326 L191.449 732.326 L191.449 726.446 Z" fill="#000000" fill-rule="evenodd" fill-opacity="1" /><path clip-path="url(#clip670)" d="M216.518 700.845 Q212.907 700.845 211.078 704.409 Q209.273 707.951 209.273 715.081 Q209.273 722.187 211.078 725.752 Q212.907 729.293 216.518 729.293 Q220.152 729.293 221.958 725.752 Q223.787 722.187 223.787 715.081 Q223.787 707.951 221.958 704.409 Q220.152 700.845 216.518 700.845 M216.518 697.141 Q222.328 697.141 225.384 701.747 Q228.463 706.331 228.463 715.081 Q228.463 723.807 225.384 728.414 Q222.328 732.997 216.518 732.997 Q210.708 732.997 207.629 728.414 Q204.574 723.807 204.574 715.081 Q204.574 706.331 207.629 701.747 Q210.708 697.141 216.518 697.141 Z" fill="#000000" fill-rule="evenodd" fill-opacity="1" /><path clip-path="url(#clip670)" d="M246.68 700.845 Q243.069 700.845 241.24 704.409 Q239.435 707.951 239.435 715.081 Q239.435 722.187 241.24 725.752 Q243.069 729.293 246.68 729.293 Q250.314 729.293 252.12 725.752 Q253.949 722.187 253.949 715.081 Q253.949 707.951 252.12 704.409 Q250.314 700.845 246.68 700.845 M246.68 697.141 Q252.49 697.141 255.546 701.747 Q258.624 706.331 258.624 715.081 Q258.624 723.807 255.546 728.414 Q252.49 732.997 246.68 732.997 Q240.87 732.997 237.791 728.414 Q234.736 723.807 234.736 715.081 Q234.736 706.331 237.791 701.747 Q240.87 697.141 246.68 697.141 Z" fill="#000000" fill-rule="evenodd" fill-opacity="1" /><path clip-path="url(#clip670)" d="M172.282 420.513 Q168.671 420.513 166.843 424.078 Q165.037 427.619 165.037 434.749 Q165.037 441.855 166.843 445.42 Q168.671 448.962 172.282 448.962 Q175.917 448.962 177.722 445.42 Q179.551 441.855 179.551 434.749 Q179.551 427.619 177.722 424.078 Q175.917 420.513 172.282 420.513 M172.282 416.809 Q178.092 416.809 181.148 421.416 Q184.227 425.999 184.227 434.749 Q184.227 443.476 181.148 448.082 Q178.092 452.666 172.282 452.666 Q166.472 452.666 163.393 448.082 Q160.338 443.476 160.338 434.749 Q160.338 425.999 163.393 421.416 Q166.472 416.809 172.282 416.809 Z" fill="#000000" fill-rule="evenodd" fill-opacity="1" /><path clip-path="url(#clip670)" d="M192.444 446.115 L197.328 446.115 L197.328 451.994 L192.444 451.994 L192.444 446.115 Z" fill="#000000" fill-rule="evenodd" fill-opacity="1" /><path clip-path="url(#clip670)" d="M217.514 420.513 Q213.902 420.513 212.074 424.078 Q210.268 427.619 210.268 434.749 Q210.268 441.855 212.074 445.42 Q213.902 448.962 217.514 448.962 Q221.148 448.962 222.953 445.42 Q224.782 441.855 224.782 434.749 Q224.782 427.619 222.953 424.078 Q221.148 420.513 217.514 420.513 M217.514 416.809 Q223.324 416.809 226.379 421.416 Q229.458 425.999 229.458 434.749 Q229.458 443.476 226.379 448.082 Q223.324 452.666 217.514 452.666 Q211.703 452.666 208.625 448.082 Q205.569 443.476 205.569 434.749 Q205.569 425.999 208.625 421.416 Q211.703 416.809 217.514 416.809 Z" fill="#000000" fill-rule="evenodd" fill-opacity="1" /><path clip-path="url(#clip670)" d="M237.722 417.434 L256.078 417.434 L256.078 421.369 L242.004 421.369 L242.004 429.842 Q243.023 429.494 244.041 429.332 Q245.06 429.147 246.078 429.147 Q251.865 429.147 255.245 432.319 Q258.624 435.49 258.624 440.906 Q258.624 446.485 255.152 449.587 Q251.68 452.666 245.361 452.666 Q243.185 452.666 240.916 452.295 Q238.671 451.925 236.263 451.184 L236.263 446.485 Q238.347 447.619 240.569 448.175 Q242.791 448.73 245.268 448.73 Q249.273 448.73 251.611 446.624 Q253.949 444.518 253.949 440.906 Q253.949 437.295 251.611 435.189 Q249.273 433.082 245.268 433.082 Q243.393 433.082 241.518 433.499 Q239.666 433.916 237.722 434.795 L237.722 417.434 Z" fill="#000000" fill-rule="evenodd" fill-opacity="1" /><path clip-path="url(#clip670)" d="M171.287 140.181 Q167.676 140.181 165.847 143.746 Q164.042 147.288 164.042 154.417 Q164.042 161.524 165.847 165.089 Q167.676 168.63 171.287 168.63 Q174.921 168.63 176.727 165.089 Q178.555 161.524 178.555 154.417 Q178.555 147.288 176.727 143.746 Q174.921 140.181 171.287 140.181 M171.287 136.478 Q177.097 136.478 180.153 141.084 Q183.231 145.668 183.231 154.417 Q183.231 163.144 180.153 167.751 Q177.097 172.334 171.287 172.334 Q165.477 172.334 162.398 167.751 Q159.343 163.144 159.343 154.417 Q159.343 145.668 162.398 141.084 Q165.477 136.478 171.287 136.478 Z" fill="#000000" fill-rule="evenodd" fill-opacity="1" /><path clip-path="url(#clip670)" d="M191.449 165.783 L196.333 165.783 L196.333 171.663 L191.449 171.663 L191.449 165.783 Z" fill="#000000" fill-rule="evenodd" fill-opacity="1" /><path clip-path="url(#clip670)" d="M207.328 167.728 L214.967 167.728 L214.967 141.362 L206.657 143.029 L206.657 138.769 L214.921 137.103 L219.597 137.103 L219.597 167.728 L227.236 167.728 L227.236 171.663 L207.328 171.663 L207.328 167.728 Z" fill="#000000" fill-rule="evenodd" fill-opacity="1" /><path clip-path="url(#clip670)" d="M246.68 140.181 Q243.069 140.181 241.24 143.746 Q239.435 147.288 239.435 154.417 Q239.435 161.524 241.24 165.089 Q243.069 168.63 246.68 168.63 Q250.314 168.63 252.12 165.089 Q253.949 161.524 253.949 154.417 Q253.949 147.288 252.12 143.746 Q250.314 140.181 246.68 140.181 M246.68 136.478 Q252.49 136.478 255.546 141.084 Q258.624 145.668 258.624 154.417 Q258.624 163.144 255.546 167.751 Q252.49 172.334 246.68 172.334 Q240.87 172.334 237.791 167.751 Q234.736 163.144 234.736 154.417 Q234.736 145.668 237.791 141.084 Q240.87 136.478 246.68 136.478 Z" fill="#000000" fill-rule="evenodd" fill-opacity="1" /><path clip-path="url(#clip670)" d="M11.9239 732.781 Q12.7027 732.781 13.3585 732.945 L27.9507 735.241 Q29.0574 735.363 29.4673 735.609 Q29.8772 735.814 29.8772 736.47 Q29.8772 737.495 28.8115 737.495 Q28.1967 737.495 27.2129 737.249 Q22.5811 736.552 20.4907 736.552 Q19.097 736.552 18.0723 736.839 Q17.0066 737.085 16.2688 737.495 Q15.531 737.864 15.0391 738.725 Q14.5472 739.585 14.2603 740.405 Q13.9734 741.225 13.8504 742.701 Q13.6865 744.176 13.6455 745.447 Q13.6045 746.717 13.6045 748.808 Q13.6045 753.358 13.7684 754.096 Q13.9734 754.874 14.5882 755.284 Q15.1621 755.653 16.8836 756.063 L61.439 767.212 L63.2015 767.54 Q64.1852 767.54 64.5132 766.925 Q64.8411 766.31 65.046 764.425 Q65.251 761.72 65.251 759.055 Q65.251 758.973 65.251 758.809 Q65.251 757.908 65.292 757.539 Q65.292 757.17 65.3739 756.801 Q65.4559 756.432 65.6609 756.35 Q65.8248 756.227 66.1527 756.227 Q66.9315 756.227 67.3414 756.555 Q67.7103 756.883 67.7923 757.211 Q67.8333 757.498 67.8333 758.072 Q67.8333 759.219 67.7513 761.679 Q67.6693 764.138 67.6693 765.368 L67.5874 772.336 L67.6693 779.468 Q67.6693 780.575 67.7513 782.911 Q67.8333 785.247 67.8333 786.354 Q67.8333 787.789 66.8086 787.789 Q65.6609 787.789 65.4559 787.256 Q65.251 786.682 65.251 784.264 Q65.251 780.862 65.087 779.017 Q64.9231 777.173 64.3492 776.189 Q63.7754 775.164 63.2015 774.877 Q62.5867 774.59 61.193 774.262 L16.3917 762.99 Q15.408 762.662 14.6292 762.662 Q14.2193 762.662 14.0554 762.785 Q13.8914 762.867 13.7684 763.4 Q13.6045 763.933 13.6045 765.04 L13.6045 768.319 Q13.6045 771.68 13.7684 773.77 Q13.8914 775.82 14.5062 777.787 Q15.1211 779.714 15.9819 780.862 Q16.8426 781.968 18.6052 783.198 Q20.3677 784.428 22.4992 785.329 Q24.6306 786.19 28.1147 787.42 Q29.2624 787.83 29.5903 788.076 Q29.8772 788.281 29.8772 788.854 Q29.8772 789.264 29.6313 789.592 Q29.3444 789.879 28.9755 789.879 Q27.6228 789.469 27.4589 789.387 L12.6617 784.346 Q11.473 783.936 11.2681 783.567 Q11.0222 783.157 11.0222 781.64 L11.0222 735.077 Q11.0222 734.339 11.0222 734.093 Q11.0222 733.847 11.1041 733.437 Q11.1861 733.027 11.3911 732.904 Q11.596 732.781 11.9239 732.781 Z" fill="#000000" fill-rule="evenodd" fill-opacity="1" /><path clip-path="url(#clip670)" d="M51.6264 682.653 L66.6039 686.355 Q67.5507 686.613 67.6655 686.785 Q67.7802 686.929 67.7802 687.388 Q67.7802 688.277 67.1777 688.277 Q67.1203 688.277 66.3743 688.191 Q65.5996 688.105 64.1937 688.105 Q59.0003 688.105 55.9302 690.63 Q52.8602 693.126 52.8602 697.574 Q52.8602 701.734 55.0408 705.722 Q57.2214 709.71 60.435 712.264 Q63.0747 714.416 66.2882 715.908 Q69.5018 717.371 72.3137 717.974 Q75.0968 718.576 76.7897 718.806 Q78.4825 719.007 79.5729 719.007 Q82.7864 719.007 85.2827 717.974 Q87.7502 716.941 89.1562 715.219 Q90.5621 713.469 91.2507 711.461 Q91.9393 709.424 91.9393 707.214 Q91.9393 706.382 91.8246 705.378 Q91.7098 704.374 91.2794 702.824 Q90.849 701.246 90.1317 699.955 Q89.4144 698.635 88.0371 697.487 Q86.6599 696.311 84.8236 695.852 Q80.1467 694.618 79.4581 694.618 Q78.8842 694.618 78.6834 694.963 Q78.4825 695.307 78.3391 696.455 L78.2243 699.553 Q78.2243 699.611 78.2243 699.697 Q78.2243 700.242 78.2243 700.471 Q78.1956 700.701 78.1382 700.959 Q78.0809 701.189 77.9661 701.275 Q77.8226 701.332 77.5931 701.332 Q77.0479 701.332 76.7897 701.103 Q76.5028 700.873 76.4741 700.672 Q76.4167 700.471 76.4167 700.098 L76.5888 691.864 Q76.5888 691.204 76.5028 688.794 Q76.4167 686.383 76.4167 685.695 Q76.4167 684.92 77.0479 684.92 Q78.2243 684.92 78.2243 685.867 Q78.253 686.814 78.2817 687.302 Q78.2817 687.789 78.4252 688.277 Q78.5686 688.736 78.6834 688.908 Q78.7695 689.081 79.1999 689.31 Q79.6016 689.54 79.9459 689.626 Q80.2615 689.712 81.0649 689.913 Q81.5813 690.027 82.5569 690.314 Q83.5324 690.573 84.0489 690.687 L88.5823 691.806 Q91.9393 692.581 92.1689 692.811 Q92.3984 692.925 92.3984 693.212 Q92.3984 693.643 91.1359 694.561 Q89.8735 695.45 88.7545 695.852 Q89.5292 696.569 89.9882 697.028 Q90.4186 697.487 91.1072 698.549 Q91.7959 699.582 92.341 700.959 Q93.747 704.316 93.747 708.305 Q93.747 715.42 89.2422 719.896 Q84.7088 724.372 77.6505 724.372 Q72.658 724.372 67.7516 722.077 Q62.8451 719.782 59.2012 716.138 Q55.5572 712.494 53.2905 707.673 Q51.0238 702.853 51.0238 698.033 Q51.0238 696.196 51.5116 694.561 Q51.9994 692.925 52.6019 691.95 Q53.2045 690.946 54.0939 690.056 Q54.9547 689.167 55.3564 688.88 Q55.7581 688.564 56.2459 688.277 L51.7411 684.174 Q51.0238 683.457 51.0238 683.285 Q51.0238 682.94 51.2247 682.797 Q51.4255 682.653 51.6264 682.653 Z" fill="#000000" fill-rule="evenodd" fill-opacity="1" /><polyline clip-path="url(#clip673)" style="stroke:#000000; stroke-linecap:butt; stroke-linejoin:round; stroke-width:4; stroke-opacity:1; fill:none" points="
  2016.3,800.363 2016.3,630.105 
  "/>
<polyline clip-path="url(#clip673)" style="stroke:#000000; stroke-linecap:butt; stroke-linejoin:round; stroke-width:4; stroke-opacity:1; fill:none" points="
  352.873,1377.98 352.873,86.0033 
  "/>
<polyline clip-path="url(#clip673)" style="stroke:#000000; stroke-linecap:butt; stroke-linejoin:round; stroke-width:4; stroke-opacity:1; fill:none" points="
  1738.14,827.549 1738.14,602.357 
  "/>
<polyline clip-path="url(#clip673)" style="stroke:#000000; stroke-linecap:butt; stroke-linejoin:round; stroke-width:4; stroke-opacity:1; fill:none" points="
  1182.21,934.316 1182.21,488.641 
  "/>
<polyline clip-path="url(#clip673)" style="stroke:#000000; stroke-linecap:butt; stroke-linejoin:round; stroke-width:4; stroke-opacity:1; fill:none" points="
  628.032,1185.87 628.032,242.316 
  "/>
<polyline clip-path="url(#clip673)" style="stroke:#000000; stroke-linecap:butt; stroke-linejoin:round; stroke-width:4; stroke-opacity:1; fill:none" points="
  1460.07,874.346 1460.07,559.24 
  "/>
<polyline clip-path="url(#clip673)" style="stroke:#000000; stroke-linecap:butt; stroke-linejoin:round; stroke-width:4; stroke-opacity:1; fill:none" points="
  2294.51,779.541 2294.51,650.543 
  "/>
<polyline clip-path="url(#clip673)" style="stroke:#000000; stroke-linecap:butt; stroke-linejoin:round; stroke-width:4; stroke-opacity:1; fill:none" points="
  904.731,1030.53 904.731,379.825 
  "/>
<line clip-path="url(#clip673)" x1="2032.3" y1="800.363" x2="2000.3" y2="800.363" style="stroke:#000000; stroke-width:3.2; stroke-opacity:1"/>
<line clip-path="url(#clip673)" x1="2032.3" y1="630.105" x2="2000.3" y2="630.105" style="stroke:#000000; stroke-width:3.2; stroke-opacity:1"/>
<line clip-path="url(#clip673)" x1="368.873" y1="1377.98" x2="336.873" y2="1377.98" style="stroke:#000000; stroke-width:3.2; stroke-opacity:1"/>
<line clip-path="url(#clip673)" x1="368.873" y1="86.0033" x2="336.873" y2="86.0033" style="stroke:#000000; stroke-width:3.2; stroke-opacity:1"/>
<line clip-path="url(#clip673)" x1="1754.14" y1="827.549" x2="1722.14" y2="827.549" style="stroke:#000000; stroke-width:3.2; stroke-opacity:1"/>
<line clip-path="url(#clip673)" x1="1754.14" y1="602.357" x2="1722.14" y2="602.357" style="stroke:#000000; stroke-width:3.2; stroke-opacity:1"/>
<line clip-path="url(#clip673)" x1="1198.21" y1="934.316" x2="1166.21" y2="934.316" style="stroke:#000000; stroke-width:3.2; stroke-opacity:1"/>
<line clip-path="url(#clip673)" x1="1198.21" y1="488.641" x2="1166.21" y2="488.641" style="stroke:#000000; stroke-width:3.2; stroke-opacity:1"/>
<line clip-path="url(#clip673)" x1="644.032" y1="1185.87" x2="612.032" y2="1185.87" style="stroke:#000000; stroke-width:3.2; stroke-opacity:1"/>
<line clip-path="url(#clip673)" x1="644.032" y1="242.316" x2="612.032" y2="242.316" style="stroke:#000000; stroke-width:3.2; stroke-opacity:1"/>
<line clip-path="url(#clip673)" x1="1476.07" y1="874.346" x2="1444.07" y2="874.346" style="stroke:#000000; stroke-width:3.2; stroke-opacity:1"/>
<line clip-path="url(#clip673)" x1="1476.07" y1="559.24" x2="1444.07" y2="559.24" style="stroke:#000000; stroke-width:3.2; stroke-opacity:1"/>
<line clip-path="url(#clip673)" x1="2310.51" y1="779.541" x2="2278.51" y2="779.541" style="stroke:#000000; stroke-width:3.2; stroke-opacity:1"/>
<line clip-path="url(#clip673)" x1="2310.51" y1="650.543" x2="2278.51" y2="650.543" style="stroke:#000000; stroke-width:3.2; stroke-opacity:1"/>
<line clip-path="url(#clip673)" x1="920.731" y1="1030.53" x2="888.731" y2="1030.53" style="stroke:#000000; stroke-width:3.2; stroke-opacity:1"/>
<line clip-path="url(#clip673)" x1="920.731" y1="379.825" x2="888.731" y2="379.825" style="stroke:#000000; stroke-width:3.2; stroke-opacity:1"/>
<line clip-path="url(#clip673)" x1="2032.3" y1="715.234" x2="2000.3" y2="715.234" style="stroke:#000000; stroke-width:3.2; stroke-opacity:1"/>
<line clip-path="url(#clip673)" x1="368.873" y1="731.99" x2="336.873" y2="731.99" style="stroke:#000000; stroke-width:3.2; stroke-opacity:1"/>
<line clip-path="url(#clip673)" x1="1754.14" y1="714.953" x2="1722.14" y2="714.953" style="stroke:#000000; stroke-width:3.2; stroke-opacity:1"/>
<line clip-path="url(#clip673)" x1="1198.21" y1="711.479" x2="1166.21" y2="711.479" style="stroke:#000000; stroke-width:3.2; stroke-opacity:1"/>
<line clip-path="url(#clip673)" x1="644.032" y1="714.094" x2="612.032" y2="714.094" style="stroke:#000000; stroke-width:3.2; stroke-opacity:1"/>
<line clip-path="url(#clip673)" x1="1476.07" y1="716.793" x2="1444.07" y2="716.793" style="stroke:#000000; stroke-width:3.2; stroke-opacity:1"/>
<line clip-path="url(#clip673)" x1="2310.51" y1="715.042" x2="2278.51" y2="715.042" style="stroke:#000000; stroke-width:3.2; stroke-opacity:1"/>
<line clip-path="url(#clip673)" x1="920.731" y1="705.177" x2="888.731" y2="705.177" style="stroke:#000000; stroke-width:3.2; stroke-opacity:1"/>
</svg>
