<?xml version="1.0" encoding="utf-8"?>
<svg xmlns="http://www.w3.org/2000/svg" xmlns:xlink="http://www.w3.org/1999/xlink" width="600" height="400" viewBox="0 0 2400 1600">
<defs>
  <clipPath id="clip510">
    <rect x="0" y="0" width="2400" height="1600"/>
  </clipPath>
</defs>
<path clip-path="url(#clip510)" d="
M0 1600 L2400 1600 L2400 0 L0 0  Z
  " fill="#000000" fill-rule="evenodd" fill-opacity="0"/>
<defs>
  <clipPath id="clip511">
    <rect x="480" y="0" width="1681" height="1600"/>
  </clipPath>
</defs>
<defs>
  <clipPath id="clip512">
    <rect x="290" y="47" width="2063" height="1364"/>
  </clipPath>
</defs>
<path clip-path="url(#clip510)" d="
M300.326 1410.22 L2352.76 1410.22 L2352.76 47.2441 L300.326 47.2441  Z
  " fill="#000000" fill-rule="evenodd" fill-opacity="0"/>
<defs>
  <clipPath id="clip513">
    <rect x="300" y="47" width="2053" height="1364"/>
  </clipPath>
</defs>
<polyline clip-path="url(#clip510)" style="stroke:#000000; stroke-linecap:butt; stroke-linejoin:round; stroke-width:4; stroke-opacity:1; fill:none" points="
  300.326,1410.22 2352.76,1410.22 
  "/>
<polyline clip-path="url(#clip510)" style="stroke:#000000; stroke-linecap:butt; stroke-linejoin:round; stroke-width:4; stroke-opacity:1; fill:none" points="
  421.579,1410.22 421.579,1391.32 
  "/>
<polyline clip-path="url(#clip510)" style="stroke:#000000; stroke-linecap:butt; stroke-linejoin:round; stroke-width:4; stroke-opacity:1; fill:none" points="
  768.438,1410.22 768.438,1391.32 
  "/>
<polyline clip-path="url(#clip510)" style="stroke:#000000; stroke-linecap:butt; stroke-linejoin:round; stroke-width:4; stroke-opacity:1; fill:none" points="
  1115.3,1410.22 1115.3,1391.32 
  "/>
<polyline clip-path="url(#clip510)" style="stroke:#000000; stroke-linecap:butt; stroke-linejoin:round; stroke-width:4; stroke-opacity:1; fill:none" points="
  1462.16,1410.22 1462.16,1391.32 
  "/>
<polyline clip-path="url(#clip510)" style="stroke:#000000; stroke-linecap:butt; stroke-linejoin:round; stroke-width:4; stroke-opacity:1; fill:none" points="
  1809.02,1410.22 1809.02,1391.32 
  "/>
<polyline clip-path="url(#clip510)" style="stroke:#000000; stroke-linecap:butt; stroke-linejoin:round; stroke-width:4; stroke-opacity:1; fill:none" points="
  2155.88,1410.22 2155.88,1391.32 
  "/>
<path clip-path="url(#clip510)" d="M374.148 1468.68 L381.787 1468.68 L381.787 1442.32 L373.477 1443.99 L373.477 1439.73 L381.741 1438.06 L386.417 1438.06 L386.417 1468.68 L394.056 1468.68 L394.056 1472.62 L374.148 1472.62 L374.148 1468.68 Z" fill="#000000" fill-rule="evenodd" fill-opacity="1" /><path clip-path="url(#clip510)" d="M407.528 1468.68 L423.847 1468.68 L423.847 1472.62 L401.903 1472.62 L401.903 1468.68 Q404.565 1465.93 409.148 1461.3 Q413.755 1456.65 414.935 1455.31 Q417.181 1452.78 418.06 1451.05 Q418.963 1449.29 418.963 1447.6 Q418.963 1444.84 417.018 1443.11 Q415.097 1441.37 411.995 1441.37 Q409.796 1441.37 407.343 1442.13 Q404.912 1442.9 402.134 1444.45 L402.134 1439.73 Q404.958 1438.59 407.412 1438.01 Q409.866 1437.43 411.903 1437.43 Q417.273 1437.43 420.468 1440.12 Q423.662 1442.81 423.662 1447.3 Q423.662 1449.43 422.852 1451.35 Q422.065 1453.24 419.958 1455.84 Q419.38 1456.51 416.278 1459.73 Q413.176 1462.92 407.528 1468.68 Z" fill="#000000" fill-rule="evenodd" fill-opacity="1" /><path clip-path="url(#clip510)" d="M433.662 1466.74 L438.546 1466.74 L438.546 1472.62 L433.662 1472.62 L433.662 1466.74 Z" fill="#000000" fill-rule="evenodd" fill-opacity="1" /><path clip-path="url(#clip510)" d="M448.778 1438.06 L467.134 1438.06 L467.134 1442 L453.06 1442 L453.06 1450.47 Q454.078 1450.12 455.097 1449.96 Q456.115 1449.77 457.134 1449.77 Q462.921 1449.77 466.301 1452.94 Q469.68 1456.12 469.68 1461.53 Q469.68 1467.11 466.208 1470.21 Q462.736 1473.29 456.416 1473.29 Q454.24 1473.29 451.972 1472.92 Q449.727 1472.55 447.319 1471.81 L447.319 1467.11 Q449.403 1468.24 451.625 1468.8 Q453.847 1469.36 456.324 1469.36 Q460.328 1469.36 462.666 1467.25 Q465.004 1465.14 465.004 1461.53 Q465.004 1457.92 462.666 1455.81 Q460.328 1453.71 456.324 1453.71 Q454.449 1453.71 452.574 1454.12 Q450.722 1454.54 448.778 1455.42 L448.778 1438.06 Z" fill="#000000" fill-rule="evenodd" fill-opacity="1" /><path clip-path="url(#clip510)" d="M720.51 1468.68 L728.149 1468.68 L728.149 1442.32 L719.839 1443.99 L719.839 1439.73 L728.103 1438.06 L732.779 1438.06 L732.779 1468.68 L740.417 1468.68 L740.417 1472.62 L720.51 1472.62 L720.51 1468.68 Z" fill="#000000" fill-rule="evenodd" fill-opacity="1" /><path clip-path="url(#clip510)" d="M749.908 1438.06 L768.264 1438.06 L768.264 1442 L754.19 1442 L754.19 1450.47 Q755.209 1450.12 756.227 1449.96 Q757.246 1449.77 758.264 1449.77 Q764.051 1449.77 767.431 1452.94 Q770.811 1456.12 770.811 1461.53 Q770.811 1467.11 767.339 1470.21 Q763.866 1473.29 757.547 1473.29 Q755.371 1473.29 753.102 1472.92 Q750.857 1472.55 748.45 1471.81 L748.45 1467.11 Q750.533 1468.24 752.755 1468.8 Q754.977 1469.36 757.454 1469.36 Q761.459 1469.36 763.797 1467.25 Q766.135 1465.14 766.135 1461.53 Q766.135 1457.92 763.797 1455.81 Q761.459 1453.71 757.454 1453.71 Q755.579 1453.71 753.704 1454.12 Q751.852 1454.54 749.908 1455.42 L749.908 1438.06 Z" fill="#000000" fill-rule="evenodd" fill-opacity="1" /><path clip-path="url(#clip510)" d="M780.024 1466.74 L784.908 1466.74 L784.908 1472.62 L780.024 1472.62 L780.024 1466.74 Z" fill="#000000" fill-rule="evenodd" fill-opacity="1" /><path clip-path="url(#clip510)" d="M805.093 1441.14 Q801.482 1441.14 799.653 1444.7 Q797.848 1448.24 797.848 1455.37 Q797.848 1462.48 799.653 1466.05 Q801.482 1469.59 805.093 1469.59 Q808.727 1469.59 810.533 1466.05 Q812.361 1462.48 812.361 1455.37 Q812.361 1448.24 810.533 1444.7 Q808.727 1441.14 805.093 1441.14 M805.093 1437.43 Q810.903 1437.43 813.959 1442.04 Q817.037 1446.62 817.037 1455.37 Q817.037 1464.1 813.959 1468.71 Q810.903 1473.29 805.093 1473.29 Q799.283 1473.29 796.204 1468.71 Q793.149 1464.1 793.149 1455.37 Q793.149 1446.62 796.204 1442.04 Q799.283 1437.43 805.093 1437.43 Z" fill="#000000" fill-rule="evenodd" fill-opacity="1" /><path clip-path="url(#clip510)" d="M1067.87 1468.68 L1075.51 1468.68 L1075.51 1442.32 L1067.2 1443.99 L1067.2 1439.73 L1075.46 1438.06 L1080.14 1438.06 L1080.14 1468.68 L1087.77 1468.68 L1087.77 1472.62 L1067.87 1472.62 L1067.87 1468.68 Z" fill="#000000" fill-rule="evenodd" fill-opacity="1" /><path clip-path="url(#clip510)" d="M1096.04 1438.06 L1118.26 1438.06 L1118.26 1440.05 L1105.71 1472.62 L1100.83 1472.62 L1112.64 1442 L1096.04 1442 L1096.04 1438.06 Z" fill="#000000" fill-rule="evenodd" fill-opacity="1" /><path clip-path="url(#clip510)" d="M1127.38 1466.74 L1132.26 1466.74 L1132.26 1472.62 L1127.38 1472.62 L1127.38 1466.74 Z" fill="#000000" fill-rule="evenodd" fill-opacity="1" /><path clip-path="url(#clip510)" d="M1142.5 1438.06 L1160.85 1438.06 L1160.85 1442 L1146.78 1442 L1146.78 1450.47 Q1147.8 1450.12 1148.82 1449.96 Q1149.83 1449.77 1150.85 1449.77 Q1156.64 1449.77 1160.02 1452.94 Q1163.4 1456.12 1163.4 1461.53 Q1163.4 1467.11 1159.93 1470.21 Q1156.45 1473.29 1150.14 1473.29 Q1147.96 1473.29 1145.69 1472.92 Q1143.45 1472.55 1141.04 1471.81 L1141.04 1467.11 Q1143.12 1468.24 1145.34 1468.8 Q1147.57 1469.36 1150.04 1469.36 Q1154.05 1469.36 1156.39 1467.25 Q1158.72 1465.14 1158.72 1461.53 Q1158.72 1457.92 1156.39 1455.81 Q1154.05 1453.71 1150.04 1453.71 Q1148.17 1453.71 1146.29 1454.12 Q1144.44 1454.54 1142.5 1455.42 L1142.5 1438.06 Z" fill="#000000" fill-rule="evenodd" fill-opacity="1" /><path clip-path="url(#clip510)" d="M1418.31 1468.68 L1434.63 1468.68 L1434.63 1472.62 L1412.69 1472.62 L1412.69 1468.68 Q1415.35 1465.93 1419.93 1461.3 Q1424.54 1456.65 1425.72 1455.31 Q1427.97 1452.78 1428.85 1451.05 Q1429.75 1449.29 1429.75 1447.6 Q1429.75 1444.84 1427.81 1443.11 Q1425.88 1441.37 1422.78 1441.37 Q1420.58 1441.37 1418.13 1442.13 Q1415.7 1442.9 1412.92 1444.45 L1412.92 1439.73 Q1415.75 1438.59 1418.2 1438.01 Q1420.65 1437.43 1422.69 1437.43 Q1428.06 1437.43 1431.25 1440.12 Q1434.45 1442.81 1434.45 1447.3 Q1434.45 1449.43 1433.64 1451.35 Q1432.85 1453.24 1430.74 1455.84 Q1430.17 1456.51 1427.06 1459.73 Q1423.96 1462.92 1418.31 1468.68 Z" fill="#000000" fill-rule="evenodd" fill-opacity="1" /><path clip-path="url(#clip510)" d="M1454.45 1441.14 Q1450.84 1441.14 1449.01 1444.7 Q1447.2 1448.24 1447.2 1455.37 Q1447.2 1462.48 1449.01 1466.05 Q1450.84 1469.59 1454.45 1469.59 Q1458.08 1469.59 1459.89 1466.05 Q1461.72 1462.48 1461.72 1455.37 Q1461.72 1448.24 1459.89 1444.7 Q1458.08 1441.14 1454.45 1441.14 M1454.45 1437.43 Q1460.26 1437.43 1463.31 1442.04 Q1466.39 1446.62 1466.39 1455.37 Q1466.39 1464.1 1463.31 1468.71 Q1460.26 1473.29 1454.45 1473.29 Q1448.64 1473.29 1445.56 1468.71 Q1442.5 1464.1 1442.5 1455.37 Q1442.5 1446.62 1445.56 1442.04 Q1448.64 1437.43 1454.45 1437.43 Z" fill="#000000" fill-rule="evenodd" fill-opacity="1" /><path clip-path="url(#clip510)" d="M1474.61 1466.74 L1479.49 1466.74 L1479.49 1472.62 L1474.61 1472.62 L1474.61 1466.74 Z" fill="#000000" fill-rule="evenodd" fill-opacity="1" /><path clip-path="url(#clip510)" d="M1499.68 1441.14 Q1496.07 1441.14 1494.24 1444.7 Q1492.43 1448.24 1492.43 1455.37 Q1492.43 1462.48 1494.24 1466.05 Q1496.07 1469.59 1499.68 1469.59 Q1503.31 1469.59 1505.12 1466.05 Q1506.95 1462.48 1506.95 1455.37 Q1506.95 1448.24 1505.12 1444.7 Q1503.31 1441.14 1499.68 1441.14 M1499.68 1437.43 Q1505.49 1437.43 1508.55 1442.04 Q1511.62 1446.62 1511.62 1455.37 Q1511.62 1464.1 1508.55 1468.71 Q1505.49 1473.29 1499.68 1473.29 Q1493.87 1473.29 1490.79 1468.71 Q1487.74 1464.1 1487.74 1455.37 Q1487.74 1446.62 1490.79 1442.04 Q1493.87 1437.43 1499.68 1437.43 Z" fill="#000000" fill-rule="evenodd" fill-opacity="1" /><path clip-path="url(#clip510)" d="M1765.67 1468.68 L1781.99 1468.68 L1781.99 1472.62 L1760.05 1472.62 L1760.05 1468.68 Q1762.71 1465.93 1767.29 1461.3 Q1771.9 1456.65 1773.08 1455.31 Q1775.32 1452.78 1776.2 1451.05 Q1777.11 1449.29 1777.11 1447.6 Q1777.11 1444.84 1775.16 1443.11 Q1773.24 1441.37 1770.14 1441.37 Q1767.94 1441.37 1765.49 1442.13 Q1763.06 1442.9 1760.28 1444.45 L1760.28 1439.73 Q1763.1 1438.59 1765.56 1438.01 Q1768.01 1437.43 1770.05 1437.43 Q1775.42 1437.43 1778.61 1440.12 Q1781.81 1442.81 1781.81 1447.3 Q1781.81 1449.43 1781 1451.35 Q1780.21 1453.24 1778.1 1455.84 Q1777.52 1456.51 1774.42 1459.73 Q1771.32 1462.92 1765.67 1468.68 Z" fill="#000000" fill-rule="evenodd" fill-opacity="1" /><path clip-path="url(#clip510)" d="M1795.83 1468.68 L1812.15 1468.68 L1812.15 1472.62 L1790.21 1472.62 L1790.21 1468.68 Q1792.87 1465.93 1797.45 1461.3 Q1802.06 1456.65 1803.24 1455.31 Q1805.49 1452.78 1806.37 1451.05 Q1807.27 1449.29 1807.27 1447.6 Q1807.27 1444.84 1805.32 1443.11 Q1803.4 1441.37 1800.3 1441.37 Q1798.1 1441.37 1795.65 1442.13 Q1793.22 1442.9 1790.44 1444.45 L1790.44 1439.73 Q1793.26 1438.59 1795.72 1438.01 Q1798.17 1437.43 1800.21 1437.43 Q1805.58 1437.43 1808.77 1440.12 Q1811.97 1442.81 1811.97 1447.3 Q1811.97 1449.43 1811.16 1451.35 Q1810.37 1453.24 1808.26 1455.84 Q1807.69 1456.51 1804.58 1459.73 Q1801.48 1462.92 1795.83 1468.68 Z" fill="#000000" fill-rule="evenodd" fill-opacity="1" /><path clip-path="url(#clip510)" d="M1821.97 1466.74 L1826.85 1466.74 L1826.85 1472.62 L1821.97 1472.62 L1821.97 1466.74 Z" fill="#000000" fill-rule="evenodd" fill-opacity="1" /><path clip-path="url(#clip510)" d="M1837.08 1438.06 L1855.44 1438.06 L1855.44 1442 L1841.37 1442 L1841.37 1450.47 Q1842.38 1450.12 1843.4 1449.96 Q1844.42 1449.77 1845.44 1449.77 Q1851.23 1449.77 1854.61 1452.94 Q1857.99 1456.12 1857.99 1461.53 Q1857.99 1467.11 1854.51 1470.21 Q1851.04 1473.29 1844.72 1473.29 Q1842.55 1473.29 1840.28 1472.92 Q1838.03 1472.55 1835.62 1471.81 L1835.62 1467.11 Q1837.71 1468.24 1839.93 1468.8 Q1842.15 1469.36 1844.63 1469.36 Q1848.63 1469.36 1850.97 1467.25 Q1853.31 1465.14 1853.31 1461.53 Q1853.31 1457.92 1850.97 1455.81 Q1848.63 1453.71 1844.63 1453.71 Q1842.75 1453.71 1840.88 1454.12 Q1839.03 1454.54 1837.08 1455.42 L1837.08 1438.06 Z" fill="#000000" fill-rule="evenodd" fill-opacity="1" /><path clip-path="url(#clip510)" d="M2112.03 1468.68 L2128.35 1468.68 L2128.35 1472.62 L2106.41 1472.62 L2106.41 1468.68 Q2109.07 1465.93 2113.65 1461.3 Q2118.26 1456.65 2119.44 1455.31 Q2121.69 1452.78 2122.57 1451.05 Q2123.47 1449.29 2123.47 1447.6 Q2123.47 1444.84 2121.52 1443.11 Q2119.6 1441.37 2116.5 1441.37 Q2114.3 1441.37 2111.85 1442.13 Q2109.42 1442.9 2106.64 1444.45 L2106.64 1439.73 Q2109.46 1438.59 2111.92 1438.01 Q2114.37 1437.43 2116.41 1437.43 Q2121.78 1437.43 2124.97 1440.12 Q2128.17 1442.81 2128.17 1447.3 Q2128.17 1449.43 2127.36 1451.35 Q2126.57 1453.24 2124.46 1455.84 Q2123.89 1456.51 2120.78 1459.73 Q2117.68 1462.92 2112.03 1468.68 Z" fill="#000000" fill-rule="evenodd" fill-opacity="1" /><path clip-path="url(#clip510)" d="M2138.21 1438.06 L2156.57 1438.06 L2156.57 1442 L2142.5 1442 L2142.5 1450.47 Q2143.51 1450.12 2144.53 1449.96 Q2145.55 1449.77 2146.57 1449.77 Q2152.36 1449.77 2155.74 1452.94 Q2159.12 1456.12 2159.12 1461.53 Q2159.12 1467.11 2155.64 1470.21 Q2152.17 1473.29 2145.85 1473.29 Q2143.68 1473.29 2141.41 1472.92 Q2139.16 1472.55 2136.76 1471.81 L2136.76 1467.11 Q2138.84 1468.24 2141.06 1468.8 Q2143.28 1469.36 2145.76 1469.36 Q2149.76 1469.36 2152.1 1467.25 Q2154.44 1465.14 2154.44 1461.53 Q2154.44 1457.92 2152.1 1455.81 Q2149.76 1453.71 2145.76 1453.71 Q2143.88 1453.71 2142.01 1454.12 Q2140.16 1454.54 2138.21 1455.42 L2138.21 1438.06 Z" fill="#000000" fill-rule="evenodd" fill-opacity="1" /><path clip-path="url(#clip510)" d="M2168.33 1466.74 L2173.21 1466.74 L2173.21 1472.62 L2168.33 1472.62 L2168.33 1466.74 Z" fill="#000000" fill-rule="evenodd" fill-opacity="1" /><path clip-path="url(#clip510)" d="M2193.4 1441.14 Q2189.79 1441.14 2187.96 1444.7 Q2186.15 1448.24 2186.15 1455.37 Q2186.15 1462.48 2187.96 1466.05 Q2189.79 1469.59 2193.4 1469.59 Q2197.03 1469.59 2198.84 1466.05 Q2200.67 1462.48 2200.67 1455.37 Q2200.67 1448.24 2198.84 1444.7 Q2197.03 1441.14 2193.4 1441.14 M2193.4 1437.43 Q2199.21 1437.43 2202.26 1442.04 Q2205.34 1446.62 2205.34 1455.37 Q2205.34 1464.1 2202.26 1468.71 Q2199.21 1473.29 2193.4 1473.29 Q2187.59 1473.29 2184.51 1468.71 Q2181.45 1464.1 2181.45 1455.37 Q2181.45 1446.62 2184.51 1442.04 Q2187.59 1437.43 2193.4 1437.43 Z" fill="#000000" fill-rule="evenodd" fill-opacity="1" /><path clip-path="url(#clip510)" d="M1221.47 1572.73 L1221.47 1570.15 Q1225.94 1570.15 1226.96 1569.62 Q1227.99 1569.04 1227.99 1566.34 L1227.99 1522.68 Q1227.99 1519.57 1226.88 1518.79 Q1225.82 1518.01 1221.47 1518.01 L1221.47 1515.39 L1233.52 1514.49 L1233.52 1566.34 Q1233.52 1569.04 1234.59 1569.62 Q1235.65 1570.15 1240.08 1570.15 L1240.08 1572.73 Q1239.06 1572.73 1236.92 1572.65 Q1234.79 1572.57 1233.24 1572.53 Q1231.68 1572.48 1230.78 1572.48 Q1229.79 1572.48 1221.47 1572.73 Z" fill="#000000" fill-rule="evenodd" fill-opacity="1" /><path clip-path="url(#clip510)" d="M1252.71 1568.22 Q1247.18 1562.73 1247.18 1554.78 Q1247.18 1546.78 1252.59 1540.96 Q1258.04 1535.1 1265.83 1535.1 Q1273.45 1535.1 1278.9 1540.92 Q1284.4 1546.7 1284.4 1554.78 Q1284.4 1562.69 1278.86 1568.18 Q1273.37 1573.67 1265.75 1573.67 Q1258.29 1573.67 1252.71 1568.22 M1254.15 1554.08 Q1254.15 1562.24 1256.28 1565.93 Q1259.56 1571.54 1265.83 1571.54 Q1268.94 1571.54 1271.53 1569.86 Q1274.15 1568.18 1275.58 1565.35 Q1277.43 1561.66 1277.43 1554.08 Q1277.43 1546.01 1275.21 1542.44 Q1271.94 1536.99 1265.75 1536.99 Q1263.04 1536.99 1260.38 1538.42 Q1257.75 1539.82 1256.15 1542.6 Q1254.15 1546.29 1254.15 1554.08 Z" fill="#000000" fill-rule="evenodd" fill-opacity="1" /><path clip-path="url(#clip510)" d="M1285.72 1579.37 Q1285.72 1576.67 1287.77 1574.33 Q1289.86 1571.99 1293.47 1570.97 Q1289.78 1568.63 1289.78 1563.51 Q1289.78 1559.57 1292.36 1556.54 Q1288.43 1553.26 1288.43 1547.89 Q1288.43 1542.93 1292.36 1539.28 Q1296.3 1535.64 1302.04 1535.64 Q1307.08 1535.64 1310.93 1538.67 Q1314.95 1534.73 1319.83 1534.69 Q1322 1534.69 1323.02 1536.05 Q1324.09 1537.4 1324.09 1538.83 Q1324.09 1540.1 1323.27 1540.72 Q1322.49 1541.33 1321.67 1541.33 Q1320.65 1541.33 1319.91 1540.68 Q1319.21 1539.98 1319.21 1538.91 Q1319.21 1537.15 1320.56 1536.62 Q1320.32 1536.54 1319.74 1536.54 Q1315.65 1536.54 1312.16 1539.82 Q1315.61 1543.01 1315.61 1547.97 Q1315.61 1552.93 1311.67 1556.58 Q1307.74 1560.23 1302.04 1560.23 Q1297.32 1560.23 1293.72 1557.61 Q1292.28 1559.29 1292.28 1561.58 Q1292.28 1563.67 1293.55 1565.31 Q1294.82 1566.95 1296.75 1567.2 Q1297.32 1567.28 1303.02 1567.28 Q1306.38 1567.28 1308.23 1567.36 Q1310.07 1567.44 1312.69 1568.02 Q1315.36 1568.55 1317.45 1569.62 Q1322.9 1572.65 1322.94 1579.21 Q1322.94 1584 1317.41 1587 Q1311.92 1590.03 1304.29 1590.03 Q1296.59 1590.03 1291.13 1586.95 Q1285.72 1583.92 1285.72 1579.37 M1290.11 1579.37 Q1290.11 1582.81 1294.17 1585.44 Q1298.23 1588.1 1304.37 1588.1 Q1310.4 1588.1 1314.46 1585.48 Q1318.56 1582.9 1318.56 1579.37 Q1318.56 1576.87 1317.12 1575.27 Q1315.69 1573.67 1312.74 1573.02 Q1309.83 1572.4 1307.78 1572.28 Q1305.73 1572.16 1301.96 1572.16 L1297 1572.16 Q1294.13 1572.32 1292.12 1574.41 Q1290.11 1576.5 1290.11 1579.37 M1294.7 1547.97 Q1294.7 1558.3 1302.04 1558.3 Q1305.73 1558.3 1307.98 1554.94 Q1309.33 1552.69 1309.33 1547.89 Q1309.33 1537.56 1302.04 1537.56 Q1298.35 1537.56 1296.05 1540.92 Q1294.7 1543.18 1294.7 1547.97 Z" fill="#000000" fill-rule="evenodd" fill-opacity="1" /><path clip-path="url(#clip510)" d="M1332.67 1595.99 Q1332.67 1594.93 1332.75 1594.61 Q1332.87 1594.3 1333.33 1593.81 L1344.6 1581.24 Q1350.77 1574.3 1350.77 1568.24 Q1350.77 1564.31 1348.71 1561.5 Q1346.67 1558.69 1342.91 1558.69 Q1340.33 1558.69 1338.15 1560.27 Q1335.97 1561.84 1334.96 1564.66 Q1335.14 1564.6 1335.74 1564.6 Q1337.2 1564.6 1338.01 1565.52 Q1338.84 1566.44 1338.84 1567.67 Q1338.84 1569.25 1337.8 1570.02 Q1336.8 1570.77 1335.8 1570.77 Q1335.39 1570.77 1334.85 1570.68 Q1334.33 1570.6 1333.5 1569.79 Q1332.67 1568.96 1332.67 1567.5 Q1332.67 1563.39 1335.77 1560.12 Q1338.89 1556.85 1343.66 1556.85 Q1349.05 1556.85 1352.58 1560.07 Q1356.14 1563.25 1356.14 1568.24 Q1356.14 1569.99 1355.59 1571.6 Q1355.08 1573.18 1354.36 1574.41 Q1353.67 1575.65 1351.78 1577.63 Q1349.88 1579.6 1348.36 1581.01 Q1346.84 1582.42 1343.43 1585.4 L1337.2 1591.45 L1347.79 1591.45 Q1352.95 1591.45 1353.36 1591 Q1353.93 1590.16 1354.65 1585.77 L1356.14 1585.77 L1354.47 1595.99 L1332.67 1595.99 Z" fill="#000000" fill-rule="evenodd" fill-opacity="1" /><path clip-path="url(#clip510)" d="M1435.54 1516.33 Q1435.54 1518.01 1434.1 1518.01 Q1429.47 1518.17 1427.58 1519.73 Q1425.74 1521.25 1425.04 1524.2 L1413.32 1570.97 Q1412.91 1572.44 1412.66 1572.61 Q1412.42 1572.73 1411.97 1572.73 Q1411.39 1572.73 1411.07 1572.44 Q1410.78 1572.16 1410.37 1571.13 L1389.46 1521.7 Q1389.3 1521.37 1389.1 1520.92 Q1388.89 1520.47 1388.73 1520.18 L1377.62 1564.49 Q1377.29 1565.76 1377.29 1566.42 Q1377.29 1568.02 1378.4 1569.04 Q1379.54 1570.03 1382.82 1570.15 Q1384.5 1570.15 1384.5 1571.05 Q1384.5 1572.73 1382.99 1572.73 Q1381.59 1572.73 1378.68 1572.61 Q1375.77 1572.48 1374.34 1572.48 Q1372.95 1572.48 1370.12 1572.61 Q1367.29 1572.73 1365.94 1572.73 Q1364.87 1572.73 1364.87 1571.79 Q1364.87 1571.05 1365.16 1570.68 Q1365.44 1570.27 1365.69 1570.23 Q1365.94 1570.15 1366.31 1570.15 Q1368.76 1570.07 1370.44 1569.57 Q1372.13 1569.08 1373.07 1568.14 Q1374.05 1567.2 1374.5 1566.25 Q1374.99 1565.27 1375.36 1563.84 L1386.59 1518.75 Q1386.59 1518.01 1380.9 1518.01 Q1379.91 1518.01 1379.5 1517.97 Q1379.13 1517.93 1378.85 1517.72 Q1378.56 1517.52 1378.56 1517.07 Q1378.56 1515.92 1379.05 1515.67 Q1379.54 1515.39 1380.98 1515.39 L1392.25 1515.39 Q1393.69 1515.39 1394.05 1515.63 Q1394.42 1515.84 1394.92 1516.99 L1413.48 1560.8 L1422.87 1523.46 Q1423.12 1522.72 1423.12 1521.7 Q1423.12 1520.06 1421.89 1519.08 Q1420.7 1518.05 1417.42 1518.01 Q1415.9 1518.01 1415.9 1517.07 Q1415.9 1516.29 1416.19 1515.92 Q1416.52 1515.51 1416.76 1515.47 Q1417.05 1515.39 1417.42 1515.39 Q1418.81 1515.39 1421.68 1515.51 Q1424.55 1515.63 1425.99 1515.63 Q1427.38 1515.63 1430.21 1515.51 Q1433.08 1515.39 1434.47 1515.39 Q1434.96 1515.39 1435.21 1515.63 Q1435.49 1515.84 1435.54 1516.08 L1435.54 1516.33 Z" fill="#000000" fill-rule="evenodd" fill-opacity="1" /><polyline clip-path="url(#clip510)" style="stroke:#000000; stroke-linecap:butt; stroke-linejoin:round; stroke-width:4; stroke-opacity:1; fill:none" points="
  300.326,1410.22 300.326,47.2441 
  "/>
<polyline clip-path="url(#clip510)" style="stroke:#000000; stroke-linecap:butt; stroke-linejoin:round; stroke-width:4; stroke-opacity:1; fill:none" points="
  300.326,1252.29 319.224,1252.29 
  "/>
<polyline clip-path="url(#clip510)" style="stroke:#000000; stroke-linecap:butt; stroke-linejoin:round; stroke-width:4; stroke-opacity:1; fill:none" points="
  300.326,990.586 319.224,990.586 
  "/>
<polyline clip-path="url(#clip510)" style="stroke:#000000; stroke-linecap:butt; stroke-linejoin:round; stroke-width:4; stroke-opacity:1; fill:none" points="
  300.326,728.878 319.224,728.878 
  "/>
<polyline clip-path="url(#clip510)" style="stroke:#000000; stroke-linecap:butt; stroke-linejoin:round; stroke-width:4; stroke-opacity:1; fill:none" points="
  300.326,467.171 319.224,467.171 
  "/>
<polyline clip-path="url(#clip510)" style="stroke:#000000; stroke-linecap:butt; stroke-linejoin:round; stroke-width:4; stroke-opacity:1; fill:none" points="
  300.326,205.463 319.224,205.463 
  "/>
<path clip-path="url(#clip510)" d="M127.22 1252.74 L156.896 1252.74 L156.896 1256.68 L127.22 1256.68 L127.22 1252.74 Z" fill="#000000" fill-rule="evenodd" fill-opacity="1" /><path clip-path="url(#clip510)" d="M176.988 1238.09 Q173.377 1238.09 171.549 1241.66 Q169.743 1245.2 169.743 1252.33 Q169.743 1259.43 171.549 1263 Q173.377 1266.54 176.988 1266.54 Q180.623 1266.54 182.428 1263 Q184.257 1259.43 184.257 1252.33 Q184.257 1245.2 182.428 1241.66 Q180.623 1238.09 176.988 1238.09 M176.988 1234.39 Q182.799 1234.39 185.854 1239 Q188.933 1243.58 188.933 1252.33 Q188.933 1261.06 185.854 1265.66 Q182.799 1270.24 176.988 1270.24 Q171.178 1270.24 168.1 1265.66 Q165.044 1261.06 165.044 1252.33 Q165.044 1243.58 168.1 1239 Q171.178 1234.39 176.988 1234.39 Z" fill="#000000" fill-rule="evenodd" fill-opacity="1" /><path clip-path="url(#clip510)" d="M197.15 1263.69 L202.035 1263.69 L202.035 1269.57 L197.15 1269.57 L197.15 1263.69 Z" fill="#000000" fill-rule="evenodd" fill-opacity="1" /><path clip-path="url(#clip510)" d="M213.03 1265.64 L220.669 1265.64 L220.669 1239.27 L212.359 1240.94 L212.359 1236.68 L220.622 1235.01 L225.298 1235.01 L225.298 1265.64 L232.937 1265.64 L232.937 1269.57 L213.03 1269.57 L213.03 1265.64 Z" fill="#000000" fill-rule="evenodd" fill-opacity="1" /><path clip-path="url(#clip510)" d="M252.382 1238.09 Q248.77 1238.09 246.942 1241.66 Q245.136 1245.2 245.136 1252.33 Q245.136 1259.43 246.942 1263 Q248.77 1266.54 252.382 1266.54 Q256.016 1266.54 257.821 1263 Q259.65 1259.43 259.65 1252.33 Q259.65 1245.2 257.821 1241.66 Q256.016 1238.09 252.382 1238.09 M252.382 1234.39 Q258.192 1234.39 261.247 1239 Q264.326 1243.58 264.326 1252.33 Q264.326 1261.06 261.247 1265.66 Q258.192 1270.24 252.382 1270.24 Q246.571 1270.24 243.493 1265.66 Q240.437 1261.06 240.437 1252.33 Q240.437 1243.58 243.493 1239 Q246.571 1234.39 252.382 1234.39 Z" fill="#000000" fill-rule="evenodd" fill-opacity="1" /><path clip-path="url(#clip510)" d="M128.216 991.037 L157.891 991.037 L157.891 994.972 L128.216 994.972 L128.216 991.037 Z" fill="#000000" fill-rule="evenodd" fill-opacity="1" /><path clip-path="url(#clip510)" d="M177.984 976.385 Q174.373 976.385 172.544 979.949 Q170.738 983.491 170.738 990.621 Q170.738 997.727 172.544 1001.29 Q174.373 1004.83 177.984 1004.83 Q181.618 1004.83 183.424 1001.29 Q185.252 997.727 185.252 990.621 Q185.252 983.491 183.424 979.949 Q181.618 976.385 177.984 976.385 M177.984 972.681 Q183.794 972.681 186.849 977.287 Q189.928 981.871 189.928 990.621 Q189.928 999.347 186.849 1003.95 Q183.794 1008.54 177.984 1008.54 Q172.174 1008.54 169.095 1003.95 Q166.039 999.347 166.039 990.621 Q166.039 981.871 169.095 977.287 Q172.174 972.681 177.984 972.681 Z" fill="#000000" fill-rule="evenodd" fill-opacity="1" /><path clip-path="url(#clip510)" d="M198.146 1001.99 L203.03 1001.99 L203.03 1007.87 L198.146 1007.87 L198.146 1001.99 Z" fill="#000000" fill-rule="evenodd" fill-opacity="1" /><path clip-path="url(#clip510)" d="M223.215 976.385 Q219.604 976.385 217.775 979.949 Q215.97 983.491 215.97 990.621 Q215.97 997.727 217.775 1001.29 Q219.604 1004.83 223.215 1004.83 Q226.849 1004.83 228.655 1001.29 Q230.483 997.727 230.483 990.621 Q230.483 983.491 228.655 979.949 Q226.849 976.385 223.215 976.385 M223.215 972.681 Q229.025 972.681 232.081 977.287 Q235.159 981.871 235.159 990.621 Q235.159 999.347 232.081 1003.95 Q229.025 1008.54 223.215 1008.54 Q217.405 1008.54 214.326 1003.95 Q211.271 999.347 211.271 990.621 Q211.271 981.871 214.326 977.287 Q217.405 972.681 223.215 972.681 Z" fill="#000000" fill-rule="evenodd" fill-opacity="1" /><path clip-path="url(#clip510)" d="M243.423 973.306 L261.78 973.306 L261.78 977.241 L247.706 977.241 L247.706 985.713 Q248.724 985.366 249.743 985.204 Q250.761 985.019 251.78 985.019 Q257.567 985.019 260.946 988.19 Q264.326 991.361 264.326 996.778 Q264.326 1002.36 260.854 1005.46 Q257.381 1008.54 251.062 1008.54 Q248.886 1008.54 246.618 1008.17 Q244.372 1007.8 241.965 1007.06 L241.965 1002.36 Q244.048 1003.49 246.27 1004.05 Q248.493 1004.6 250.969 1004.6 Q254.974 1004.6 257.312 1002.5 Q259.65 1000.39 259.65 996.778 Q259.65 993.167 257.312 991.06 Q254.974 988.954 250.969 988.954 Q249.095 988.954 247.22 989.371 Q245.368 989.787 243.423 990.667 L243.423 973.306 Z" fill="#000000" fill-rule="evenodd" fill-opacity="1" /><path clip-path="url(#clip510)" d="M176.988 714.677 Q173.377 714.677 171.549 718.242 Q169.743 721.783 169.743 728.913 Q169.743 736.019 171.549 739.584 Q173.377 743.126 176.988 743.126 Q180.623 743.126 182.428 739.584 Q184.257 736.019 184.257 728.913 Q184.257 721.783 182.428 718.242 Q180.623 714.677 176.988 714.677 M176.988 710.973 Q182.799 710.973 185.854 715.58 Q188.933 720.163 188.933 728.913 Q188.933 737.64 185.854 742.246 Q182.799 746.83 176.988 746.83 Q171.178 746.83 168.1 742.246 Q165.044 737.64 165.044 728.913 Q165.044 720.163 168.1 715.58 Q171.178 710.973 176.988 710.973 Z" fill="#000000" fill-rule="evenodd" fill-opacity="1" /><path clip-path="url(#clip510)" d="M197.15 740.279 L202.035 740.279 L202.035 746.158 L197.15 746.158 L197.15 740.279 Z" fill="#000000" fill-rule="evenodd" fill-opacity="1" /><path clip-path="url(#clip510)" d="M222.22 714.677 Q218.609 714.677 216.78 718.242 Q214.974 721.783 214.974 728.913 Q214.974 736.019 216.78 739.584 Q218.609 743.126 222.22 743.126 Q225.854 743.126 227.659 739.584 Q229.488 736.019 229.488 728.913 Q229.488 721.783 227.659 718.242 Q225.854 714.677 222.22 714.677 M222.22 710.973 Q228.03 710.973 231.085 715.58 Q234.164 720.163 234.164 728.913 Q234.164 737.64 231.085 742.246 Q228.03 746.83 222.22 746.83 Q216.409 746.83 213.331 742.246 Q210.275 737.64 210.275 728.913 Q210.275 720.163 213.331 715.58 Q216.409 710.973 222.22 710.973 Z" fill="#000000" fill-rule="evenodd" fill-opacity="1" /><path clip-path="url(#clip510)" d="M252.382 714.677 Q248.77 714.677 246.942 718.242 Q245.136 721.783 245.136 728.913 Q245.136 736.019 246.942 739.584 Q248.77 743.126 252.382 743.126 Q256.016 743.126 257.821 739.584 Q259.65 736.019 259.65 728.913 Q259.65 721.783 257.821 718.242 Q256.016 714.677 252.382 714.677 M252.382 710.973 Q258.192 710.973 261.247 715.58 Q264.326 720.163 264.326 728.913 Q264.326 737.64 261.247 742.246 Q258.192 746.83 252.382 746.83 Q246.571 746.83 243.493 742.246 Q240.437 737.64 240.437 728.913 Q240.437 720.163 243.493 715.58 Q246.571 710.973 252.382 710.973 Z" fill="#000000" fill-rule="evenodd" fill-opacity="1" /><path clip-path="url(#clip510)" d="M177.984 452.969 Q174.373 452.969 172.544 456.534 Q170.738 460.076 170.738 467.205 Q170.738 474.312 172.544 477.877 Q174.373 481.418 177.984 481.418 Q181.618 481.418 183.424 477.877 Q185.252 474.312 185.252 467.205 Q185.252 460.076 183.424 456.534 Q181.618 452.969 177.984 452.969 M177.984 449.266 Q183.794 449.266 186.849 453.872 Q189.928 458.455 189.928 467.205 Q189.928 475.932 186.849 480.539 Q183.794 485.122 177.984 485.122 Q172.174 485.122 169.095 480.539 Q166.039 475.932 166.039 467.205 Q166.039 458.455 169.095 453.872 Q172.174 449.266 177.984 449.266 Z" fill="#000000" fill-rule="evenodd" fill-opacity="1" /><path clip-path="url(#clip510)" d="M198.146 478.571 L203.03 478.571 L203.03 484.451 L198.146 484.451 L198.146 478.571 Z" fill="#000000" fill-rule="evenodd" fill-opacity="1" /><path clip-path="url(#clip510)" d="M223.215 452.969 Q219.604 452.969 217.775 456.534 Q215.97 460.076 215.97 467.205 Q215.97 474.312 217.775 477.877 Q219.604 481.418 223.215 481.418 Q226.849 481.418 228.655 477.877 Q230.483 474.312 230.483 467.205 Q230.483 460.076 228.655 456.534 Q226.849 452.969 223.215 452.969 M223.215 449.266 Q229.025 449.266 232.081 453.872 Q235.159 458.455 235.159 467.205 Q235.159 475.932 232.081 480.539 Q229.025 485.122 223.215 485.122 Q217.405 485.122 214.326 480.539 Q211.271 475.932 211.271 467.205 Q211.271 458.455 214.326 453.872 Q217.405 449.266 223.215 449.266 Z" fill="#000000" fill-rule="evenodd" fill-opacity="1" /><path clip-path="url(#clip510)" d="M243.423 449.891 L261.78 449.891 L261.78 453.826 L247.706 453.826 L247.706 462.298 Q248.724 461.951 249.743 461.789 Q250.761 461.603 251.78 461.603 Q257.567 461.603 260.946 464.775 Q264.326 467.946 264.326 473.363 Q264.326 478.941 260.854 482.043 Q257.381 485.122 251.062 485.122 Q248.886 485.122 246.618 484.752 Q244.372 484.381 241.965 483.64 L241.965 478.941 Q244.048 480.076 246.27 480.631 Q248.493 481.187 250.969 481.187 Q254.974 481.187 257.312 479.08 Q259.65 476.974 259.65 473.363 Q259.65 469.752 257.312 467.645 Q254.974 465.539 250.969 465.539 Q249.095 465.539 247.22 465.955 Q245.368 466.372 243.423 467.252 L243.423 449.891 Z" fill="#000000" fill-rule="evenodd" fill-opacity="1" /><path clip-path="url(#clip510)" d="M176.988 191.262 Q173.377 191.262 171.549 194.826 Q169.743 198.368 169.743 205.498 Q169.743 212.604 171.549 216.169 Q173.377 219.711 176.988 219.711 Q180.623 219.711 182.428 216.169 Q184.257 212.604 184.257 205.498 Q184.257 198.368 182.428 194.826 Q180.623 191.262 176.988 191.262 M176.988 187.558 Q182.799 187.558 185.854 192.164 Q188.933 196.748 188.933 205.498 Q188.933 214.224 185.854 218.831 Q182.799 223.414 176.988 223.414 Q171.178 223.414 168.1 218.831 Q165.044 214.224 165.044 205.498 Q165.044 196.748 168.1 192.164 Q171.178 187.558 176.988 187.558 Z" fill="#000000" fill-rule="evenodd" fill-opacity="1" /><path clip-path="url(#clip510)" d="M197.15 216.863 L202.035 216.863 L202.035 222.743 L197.15 222.743 L197.15 216.863 Z" fill="#000000" fill-rule="evenodd" fill-opacity="1" /><path clip-path="url(#clip510)" d="M213.03 218.808 L220.669 218.808 L220.669 192.442 L212.359 194.109 L212.359 189.85 L220.622 188.183 L225.298 188.183 L225.298 218.808 L232.937 218.808 L232.937 222.743 L213.03 222.743 L213.03 218.808 Z" fill="#000000" fill-rule="evenodd" fill-opacity="1" /><path clip-path="url(#clip510)" d="M252.382 191.262 Q248.77 191.262 246.942 194.826 Q245.136 198.368 245.136 205.498 Q245.136 212.604 246.942 216.169 Q248.77 219.711 252.382 219.711 Q256.016 219.711 257.821 216.169 Q259.65 212.604 259.65 205.498 Q259.65 198.368 257.821 194.826 Q256.016 191.262 252.382 191.262 M252.382 187.558 Q258.192 187.558 261.247 192.164 Q264.326 196.748 264.326 205.498 Q264.326 214.224 261.247 218.831 Q258.192 223.414 252.382 223.414 Q246.571 223.414 243.493 218.831 Q240.437 214.224 240.437 205.498 Q240.437 196.748 243.493 192.164 Q246.571 187.558 252.382 187.558 Z" fill="#000000" fill-rule="evenodd" fill-opacity="1" /><path clip-path="url(#clip510)" d="M17.2285 729.523 Q18.0073 729.523 18.6631 729.687 L33.2553 731.982 Q34.362 732.105 34.7719 732.351 Q35.1818 732.556 35.1818 733.212 Q35.1818 734.237 34.1161 734.237 Q33.5012 734.237 32.5175 733.991 Q27.8857 733.294 25.7953 733.294 Q24.4016 733.294 23.3769 733.581 Q22.3112 733.827 21.5734 734.237 Q20.8356 734.605 20.3437 735.466 Q19.8518 736.327 19.5649 737.147 Q19.278 737.967 19.155 739.442 Q18.991 740.918 18.9501 742.188 Q18.9091 743.459 18.9091 745.55 Q18.9091 750.099 19.073 750.837 Q19.278 751.616 19.8928 752.026 Q20.4667 752.395 22.1882 752.805 L66.7435 763.954 L68.5061 764.282 Q69.4898 764.282 69.8177 763.667 Q70.1457 763.052 70.3506 761.167 Q70.5556 758.461 70.5556 755.797 Q70.5556 755.715 70.5556 755.551 Q70.5556 754.649 70.5965 754.28 Q70.5965 753.911 70.6785 753.543 Q70.7605 753.174 70.9654 753.092 Q71.1294 752.969 71.4573 752.969 Q72.2361 752.969 72.646 753.297 Q73.0149 753.625 73.0969 753.952 Q73.1379 754.239 73.1379 754.813 Q73.1379 755.961 73.0559 758.42 Q72.9739 760.88 72.9739 762.109 L72.8919 769.077 L72.9739 776.21 Q72.9739 777.316 73.0559 779.653 Q73.1379 781.989 73.1379 783.096 Q73.1379 784.53 72.1131 784.53 Q70.9654 784.53 70.7605 783.998 Q70.5556 783.424 70.5556 781.005 Q70.5556 777.603 70.3916 775.759 Q70.2276 773.914 69.6538 772.93 Q69.0799 771.906 68.5061 771.619 Q67.8912 771.332 66.4976 771.004 L21.6963 759.732 Q20.7126 759.404 19.9338 759.404 Q19.5239 759.404 19.3599 759.527 Q19.196 759.609 19.073 760.142 Q18.9091 760.675 18.9091 761.781 L18.9091 765.061 Q18.9091 768.422 19.073 770.512 Q19.196 772.562 19.8108 774.529 Q20.4257 776.456 21.2864 777.603 Q22.1472 778.71 23.9098 779.94 Q25.6723 781.169 27.8037 782.071 Q29.9352 782.932 33.4193 784.162 Q34.567 784.571 34.8949 784.817 Q35.1818 785.022 35.1818 785.596 Q35.1818 786.006 34.9359 786.334 Q34.6489 786.621 34.28 786.621 Q32.9274 786.211 32.7634 786.129 L17.9663 781.087 Q16.7776 780.677 16.5727 780.309 Q16.3267 779.899 16.3267 778.382 L16.3267 731.818 Q16.3267 731.08 16.3267 730.834 Q16.3267 730.589 16.4087 730.179 Q16.4907 729.769 16.6956 729.646 Q16.9006 729.523 17.2285 729.523 Z" fill="#000000" fill-rule="evenodd" fill-opacity="1" /><path clip-path="url(#clip510)" d="M56.931 679.395 L71.9084 683.096 Q72.8553 683.355 72.9701 683.527 Q73.0848 683.67 73.0848 684.129 Q73.0848 685.019 72.4823 685.019 Q72.4249 685.019 71.6789 684.933 Q70.9042 684.847 69.4983 684.847 Q64.3049 684.847 61.2348 687.372 Q58.1647 689.868 58.1647 694.315 Q58.1647 698.476 60.3454 702.464 Q62.526 706.452 65.7396 709.006 Q68.3793 711.158 71.5928 712.65 Q74.8064 714.113 77.6182 714.716 Q80.4014 715.318 82.0943 715.548 Q83.7871 715.749 84.8774 715.749 Q88.091 715.749 90.5873 714.716 Q93.0548 713.683 94.4607 711.961 Q95.8667 710.211 96.5553 708.202 Q97.2439 706.165 97.2439 703.956 Q97.2439 703.124 97.1291 702.12 Q97.0144 701.115 96.584 699.566 Q96.1536 697.988 95.4363 696.697 Q94.719 695.377 93.3417 694.229 Q91.9645 693.053 90.1282 692.594 Q85.4513 691.36 84.7627 691.36 Q84.1888 691.36 83.988 691.704 Q83.7871 692.049 83.6437 693.196 L83.5289 696.295 Q83.5289 696.352 83.5289 696.438 Q83.5289 696.984 83.5289 697.213 Q83.5002 697.443 83.4428 697.701 Q83.3854 697.93 83.2707 698.017 Q83.1272 698.074 82.8977 698.074 Q82.3525 698.074 82.0943 697.844 Q81.8073 697.615 81.7787 697.414 Q81.7213 697.213 81.7213 696.84 L81.8934 688.605 Q81.8934 687.945 81.8073 685.535 Q81.7213 683.125 81.7213 682.437 Q81.7213 681.662 82.3525 681.662 Q83.5289 681.662 83.5289 682.609 Q83.5576 683.556 83.5863 684.043 Q83.5863 684.531 83.7297 685.019 Q83.8732 685.478 83.988 685.65 Q84.0741 685.822 84.5044 686.052 Q84.9061 686.281 85.2504 686.367 Q85.5661 686.453 86.3695 686.654 Q86.8859 686.769 87.8615 687.056 Q88.837 687.314 89.3535 687.429 L93.8869 688.548 Q97.2439 689.323 97.4735 689.552 Q97.703 689.667 97.703 689.954 Q97.703 690.384 96.4405 691.302 Q95.1781 692.192 94.059 692.594 Q94.8337 693.311 95.2928 693.77 Q95.7232 694.229 96.4118 695.291 Q97.1004 696.324 97.6456 697.701 Q99.0515 701.058 99.0515 705.046 Q99.0515 712.162 94.5468 716.638 Q90.0134 721.114 82.955 721.114 Q77.9626 721.114 73.0561 718.819 Q68.1497 716.523 64.5058 712.879 Q60.8618 709.235 58.5951 704.415 Q56.3284 699.595 56.3284 694.774 Q56.3284 692.938 56.8162 691.302 Q57.304 689.667 57.9065 688.691 Q58.509 687.687 59.3985 686.798 Q60.2593 685.908 60.661 685.621 Q61.0627 685.306 61.5504 685.019 L57.0457 680.916 Q56.3284 680.199 56.3284 680.026 Q56.3284 679.682 56.5293 679.539 Q56.7301 679.395 56.931 679.395 Z" fill="#000000" fill-rule="evenodd" fill-opacity="1" /><polyline clip-path="url(#clip513)" style="stroke:#000000; stroke-linecap:butt; stroke-linejoin:round; stroke-width:4; stroke-opacity:1; fill:none" points="
  2017.23,808.541 2017.23,649.249 
  "/>
<polyline clip-path="url(#clip513)" style="stroke:#000000; stroke-linecap:butt; stroke-linejoin:round; stroke-width:4; stroke-opacity:1; fill:none" points="
  358.414,1371.65 358.414,85.8189 
  "/>
<polyline clip-path="url(#clip513)" style="stroke:#000000; stroke-linecap:butt; stroke-linejoin:round; stroke-width:4; stroke-opacity:1; fill:none" points="
  1739.84,835.045 1739.84,623.187 
  "/>
<polyline clip-path="url(#clip513)" style="stroke:#000000; stroke-linecap:butt; stroke-linejoin:round; stroke-width:4; stroke-opacity:1; fill:none" points="
  1185.45,935.754 1185.45,521.632 
  "/>
<polyline clip-path="url(#clip513)" style="stroke:#000000; stroke-linecap:butt; stroke-linejoin:round; stroke-width:4; stroke-opacity:1; fill:none" points="
  632.81,1155.76 632.81,293.131 
  "/>
<polyline clip-path="url(#clip513)" style="stroke:#000000; stroke-linecap:butt; stroke-linejoin:round; stroke-width:4; stroke-opacity:1; fill:none" points="
  1462.55,875.38 1462.55,582.29 
  "/>
<polyline clip-path="url(#clip513)" style="stroke:#000000; stroke-linecap:butt; stroke-linejoin:round; stroke-width:4; stroke-opacity:1; fill:none" points="
  2294.67,789.055 2294.67,668.736 
  "/>
<polyline clip-path="url(#clip513)" style="stroke:#000000; stroke-linecap:butt; stroke-linejoin:round; stroke-width:4; stroke-opacity:1; fill:none" points="
  908.743,1033.69 908.743,422.868 
  "/>
<line clip-path="url(#clip513)" x1="2033.23" y1="808.541" x2="2001.23" y2="808.541" style="stroke:#000000; stroke-width:3.2; stroke-opacity:1"/>
<line clip-path="url(#clip513)" x1="2033.23" y1="649.249" x2="2001.23" y2="649.249" style="stroke:#000000; stroke-width:3.2; stroke-opacity:1"/>
<line clip-path="url(#clip513)" x1="374.414" y1="1371.65" x2="342.414" y2="1371.65" style="stroke:#000000; stroke-width:3.2; stroke-opacity:1"/>
<line clip-path="url(#clip513)" x1="374.414" y1="85.8189" x2="342.414" y2="85.8189" style="stroke:#000000; stroke-width:3.2; stroke-opacity:1"/>
<line clip-path="url(#clip513)" x1="1755.84" y1="835.045" x2="1723.84" y2="835.045" style="stroke:#000000; stroke-width:3.2; stroke-opacity:1"/>
<line clip-path="url(#clip513)" x1="1755.84" y1="623.187" x2="1723.84" y2="623.187" style="stroke:#000000; stroke-width:3.2; stroke-opacity:1"/>
<line clip-path="url(#clip513)" x1="1201.45" y1="935.754" x2="1169.45" y2="935.754" style="stroke:#000000; stroke-width:3.2; stroke-opacity:1"/>
<line clip-path="url(#clip513)" x1="1201.45" y1="521.632" x2="1169.45" y2="521.632" style="stroke:#000000; stroke-width:3.2; stroke-opacity:1"/>
<line clip-path="url(#clip513)" x1="648.81" y1="1155.76" x2="616.81" y2="1155.76" style="stroke:#000000; stroke-width:3.2; stroke-opacity:1"/>
<line clip-path="url(#clip513)" x1="648.81" y1="293.131" x2="616.81" y2="293.131" style="stroke:#000000; stroke-width:3.2; stroke-opacity:1"/>
<line clip-path="url(#clip513)" x1="1478.55" y1="875.38" x2="1446.55" y2="875.38" style="stroke:#000000; stroke-width:3.2; stroke-opacity:1"/>
<line clip-path="url(#clip513)" x1="1478.55" y1="582.29" x2="1446.55" y2="582.29" style="stroke:#000000; stroke-width:3.2; stroke-opacity:1"/>
<line clip-path="url(#clip513)" x1="2310.67" y1="789.055" x2="2278.67" y2="789.055" style="stroke:#000000; stroke-width:3.2; stroke-opacity:1"/>
<line clip-path="url(#clip513)" x1="2310.67" y1="668.736" x2="2278.67" y2="668.736" style="stroke:#000000; stroke-width:3.2; stroke-opacity:1"/>
<line clip-path="url(#clip513)" x1="924.743" y1="1033.69" x2="892.743" y2="1033.69" style="stroke:#000000; stroke-width:3.2; stroke-opacity:1"/>
<line clip-path="url(#clip513)" x1="924.743" y1="422.868" x2="892.743" y2="422.868" style="stroke:#000000; stroke-width:3.2; stroke-opacity:1"/>
<line clip-path="url(#clip513)" x1="2033.23" y1="728.895" x2="2001.23" y2="728.895" style="stroke:#000000; stroke-width:3.2; stroke-opacity:1"/>
<line clip-path="url(#clip513)" x1="374.414" y1="728.732" x2="342.414" y2="728.732" style="stroke:#000000; stroke-width:3.2; stroke-opacity:1"/>
<line clip-path="url(#clip513)" x1="1755.84" y1="729.116" x2="1723.84" y2="729.116" style="stroke:#000000; stroke-width:3.2; stroke-opacity:1"/>
<line clip-path="url(#clip513)" x1="1201.45" y1="728.693" x2="1169.45" y2="728.693" style="stroke:#000000; stroke-width:3.2; stroke-opacity:1"/>
<line clip-path="url(#clip513)" x1="648.81" y1="724.445" x2="616.81" y2="724.445" style="stroke:#000000; stroke-width:3.2; stroke-opacity:1"/>
<line clip-path="url(#clip513)" x1="1478.55" y1="728.835" x2="1446.55" y2="728.835" style="stroke:#000000; stroke-width:3.2; stroke-opacity:1"/>
<line clip-path="url(#clip513)" x1="2310.67" y1="728.896" x2="2278.67" y2="728.896" style="stroke:#000000; stroke-width:3.2; stroke-opacity:1"/>
<line clip-path="url(#clip513)" x1="924.743" y1="728.281" x2="892.743" y2="728.281" style="stroke:#000000; stroke-width:3.2; stroke-opacity:1"/>
</svg>
