<?xml version="1.0" encoding="UTF-8"?>
<svg xmlns="http://www.w3.org/2000/svg" xmlns:xlink="http://www.w3.org/1999/xlink" width="38.137pt" height="38.137pt" viewBox="0 0 38.137 38.137" version="1.1">
<defs>
<clipPath id="clip1">
  <path d="M 0 22 L 16 22 L 16 38.136719 L 0 38.136719 Z M 0 22 "/>
</clipPath>
<clipPath id="clip2">
  <path d="M 22 22 L 38.136719 22 L 38.136719 38.136719 L 22 38.136719 Z M 22 22 "/>
</clipPath>
<clipPath id="clip3">
  <path d="M 22 0 L 38.136719 0 L 38.136719 16 L 22 16 Z M 22 0 "/>
</clipPath>
</defs>
<g id="surface1">
<g clip-path="url(#clip1)" clip-rule="nonzero">
<path style="fill:none;stroke-width:0.3985;stroke-linecap:butt;stroke-linejoin:miter;stroke:rgb(0%,0%,0%);stroke-opacity:1;stroke-miterlimit:10;" d="M 4.694844 -0.0011875 C 4.694844 2.592562 2.593281 4.698031 -0.00046875 4.698031 C -2.594219 4.698031 -4.695781 2.592562 -4.695781 -0.0011875 C -4.695781 -2.594938 -2.594219 -4.6965 -0.00046875 -4.6965 C 2.593281 -4.6965 4.694844 -2.594938 4.694844 -0.0011875 Z M 4.694844 -0.0011875 " transform="matrix(1,0,0,-1,4.895,33.241)"/>
</g>
<path style="fill:none;stroke-width:0.3985;stroke-linecap:butt;stroke-linejoin:miter;stroke:rgb(0%,0%,0%);stroke-opacity:1;stroke-miterlimit:10;" d="M 4.694844 28.346469 C 4.694844 30.940219 2.593281 33.041781 -0.00046875 33.041781 C -2.594219 33.041781 -4.695781 30.940219 -4.695781 28.346469 C -4.695781 25.752719 -2.594219 23.651156 -0.00046875 23.651156 C 2.593281 23.651156 4.694844 25.752719 4.694844 28.346469 Z M 4.694844 28.346469 " transform="matrix(1,0,0,-1,4.895,33.241)"/>
<g clip-path="url(#clip2)" clip-rule="nonzero">
<path style="fill:none;stroke-width:0.3985;stroke-linecap:butt;stroke-linejoin:miter;stroke:rgb(0%,0%,0%);stroke-opacity:1;stroke-miterlimit:10;" d="M 33.0425 -0.0011875 C 33.0425 2.592562 30.940938 4.698031 28.347188 4.698031 C 25.753438 4.698031 23.651875 2.592562 23.651875 -0.0011875 C 23.651875 -2.594938 25.753438 -4.6965 28.347188 -4.6965 C 30.940938 -4.6965 33.0425 -2.594938 33.0425 -0.0011875 Z M 33.0425 -0.0011875 " transform="matrix(1,0,0,-1,4.895,33.241)"/>
</g>
<g clip-path="url(#clip3)" clip-rule="nonzero">
<path style="fill:none;stroke-width:0.3985;stroke-linecap:butt;stroke-linejoin:miter;stroke:rgb(0%,0%,0%);stroke-opacity:1;stroke-miterlimit:10;" d="M 33.0425 28.346469 C 33.0425 30.940219 30.940938 33.041781 28.347188 33.041781 C 25.753438 33.041781 23.651875 30.940219 23.651875 28.346469 C 23.651875 25.752719 25.753438 23.651156 28.347188 23.651156 C 30.940938 23.651156 33.0425 25.752719 33.0425 28.346469 Z M 33.0425 28.346469 " transform="matrix(1,0,0,-1,4.895,33.241)"/>
</g>
<path style="fill:none;stroke-width:0.3985;stroke-linecap:butt;stroke-linejoin:miter;stroke:rgb(0%,0%,0%);stroke-opacity:1;stroke-miterlimit:10;" d="M 3.460469 3.45975 L 24.88625 24.885531 " transform="matrix(1,0,0,-1,4.895,33.241)"/>
<path style="fill:none;stroke-width:0.3985;stroke-linecap:butt;stroke-linejoin:miter;stroke:rgb(0%,0%,0%);stroke-opacity:1;stroke-miterlimit:10;" d="M 4.894063 -0.0011875 L 23.452656 -0.0011875 " transform="matrix(1,0,0,-1,4.895,33.241)"/>
<path style="fill:none;stroke-width:0.3985;stroke-linecap:butt;stroke-linejoin:miter;stroke:rgb(0%,0%,0%);stroke-opacity:1;stroke-miterlimit:10;" d="M -0.00046875 4.89725 L -0.00046875 23.451937 " transform="matrix(1,0,0,-1,4.895,33.241)"/>
<path style="fill:none;stroke-width:0.3985;stroke-linecap:butt;stroke-linejoin:miter;stroke:rgb(0%,0%,0%);stroke-opacity:1;stroke-miterlimit:10;" d="M 3.460469 24.885531 L 24.88625 3.45975 " transform="matrix(1,0,0,-1,4.895,33.241)"/>
<path style="fill:none;stroke-width:0.3985;stroke-linecap:butt;stroke-linejoin:miter;stroke:rgb(0%,0%,0%);stroke-opacity:1;stroke-miterlimit:10;" d="M 4.894063 28.346469 L 23.452656 28.346469 " transform="matrix(1,0,0,-1,4.895,33.241)"/>
<path style="fill:none;stroke-width:0.3985;stroke-linecap:butt;stroke-linejoin:miter;stroke:rgb(0%,0%,0%);stroke-opacity:1;stroke-miterlimit:10;" d="M 28.347188 4.89725 L 28.347188 23.451937 " transform="matrix(1,0,0,-1,4.895,33.241)"/>
</g>
</svg>
