<?xml version="1.0" encoding="utf-8"?>
<svg xmlns="http://www.w3.org/2000/svg" xmlns:xlink="http://www.w3.org/1999/xlink" width="600" height="400" viewBox="0 0 2400 1600">
<defs>
  <clipPath id="clip430">
    <rect x="0" y="0" width="2400" height="1600"/>
  </clipPath>
</defs>
<path clip-path="url(#clip430)" d="
M0 1600 L2400 1600 L2400 0 L0 0  Z
  " fill="#000000" fill-rule="evenodd" fill-opacity="0"/>
<defs>
  <clipPath id="clip431">
    <rect x="480" y="0" width="1681" height="1600"/>
  </clipPath>
</defs>
<defs>
  <clipPath id="clip432">
    <rect x="236" y="47" width="2117" height="1370"/>
  </clipPath>
</defs>
<path clip-path="url(#clip430)" d="
M294.624 1416.74 L2352.76 1416.74 L2352.76 47.2441 L294.624 47.2441  Z
  " fill="#000000" fill-rule="evenodd" fill-opacity="0"/>
<defs>
  <clipPath id="clip433">
    <rect x="294" y="47" width="2059" height="1370"/>
  </clipPath>
</defs>
<polyline clip-path="url(#clip430)" style="stroke:#000000; stroke-linecap:butt; stroke-linejoin:round; stroke-width:4; stroke-opacity:1; fill:none" points="
  294.624,1416.74 2352.76,1416.74 
  "/>
<polyline clip-path="url(#clip430)" style="stroke:#000000; stroke-linecap:butt; stroke-linejoin:round; stroke-width:4; stroke-opacity:1; fill:none" points="
  441.654,1416.74 441.654,1400.3 
  "/>
<polyline clip-path="url(#clip430)" style="stroke:#000000; stroke-linecap:butt; stroke-linejoin:round; stroke-width:4; stroke-opacity:1; fill:none" points="
  929.174,1416.74 929.174,1400.3 
  "/>
<polyline clip-path="url(#clip430)" style="stroke:#000000; stroke-linecap:butt; stroke-linejoin:round; stroke-width:4; stroke-opacity:1; fill:none" points="
  1416.7,1416.74 1416.7,1400.3 
  "/>
<polyline clip-path="url(#clip430)" style="stroke:#000000; stroke-linecap:butt; stroke-linejoin:round; stroke-width:4; stroke-opacity:1; fill:none" points="
  1904.22,1416.74 1904.22,1400.3 
  "/>
<path clip-path="url(#clip430)" d="M394.223 1473.47 L401.862 1473.47 L401.862 1447.11 L393.552 1448.77 L393.552 1444.52 L401.816 1442.85 L406.492 1442.85 L406.492 1473.47 L414.131 1473.47 L414.131 1477.41 L394.223 1477.41 L394.223 1473.47 Z" fill="#000000" fill-rule="evenodd" fill-opacity="1" /><path clip-path="url(#clip430)" d="M427.603 1473.47 L443.922 1473.47 L443.922 1477.41 L421.978 1477.41 L421.978 1473.47 Q424.64 1470.72 429.223 1466.09 Q433.83 1461.44 435.01 1460.09 Q437.256 1457.57 438.135 1455.83 Q439.038 1454.08 439.038 1452.39 Q439.038 1449.63 437.094 1447.89 Q435.172 1446.16 432.07 1446.16 Q429.871 1446.16 427.418 1446.92 Q424.987 1447.69 422.209 1449.24 L422.209 1444.52 Q425.033 1443.38 427.487 1442.8 Q429.941 1442.22 431.978 1442.22 Q437.348 1442.22 440.543 1444.91 Q443.737 1447.59 443.737 1452.08 Q443.737 1454.21 442.927 1456.14 Q442.14 1458.03 440.033 1460.63 Q439.455 1461.3 436.353 1464.52 Q433.251 1467.71 427.603 1473.47 Z" fill="#000000" fill-rule="evenodd" fill-opacity="1" /><path clip-path="url(#clip430)" d="M453.737 1471.53 L458.621 1471.53 L458.621 1477.41 L453.737 1477.41 L453.737 1471.53 Z" fill="#000000" fill-rule="evenodd" fill-opacity="1" /><path clip-path="url(#clip430)" d="M468.853 1442.85 L487.209 1442.85 L487.209 1446.78 L473.135 1446.78 L473.135 1455.26 Q474.154 1454.91 475.172 1454.75 Q476.191 1454.56 477.209 1454.56 Q482.996 1454.56 486.376 1457.73 Q489.755 1460.9 489.755 1466.32 Q489.755 1471.9 486.283 1475 Q482.811 1478.08 476.492 1478.08 Q474.316 1478.08 472.047 1477.71 Q469.802 1477.34 467.394 1476.6 L467.394 1471.9 Q469.478 1473.03 471.7 1473.59 Q473.922 1474.14 476.399 1474.14 Q480.404 1474.14 482.742 1472.04 Q485.079 1469.93 485.079 1466.32 Q485.079 1462.71 482.742 1460.6 Q480.404 1458.5 476.399 1458.5 Q474.524 1458.5 472.649 1458.91 Q470.797 1459.33 468.853 1460.21 L468.853 1442.85 Z" fill="#000000" fill-rule="evenodd" fill-opacity="1" /><path clip-path="url(#clip430)" d="M881.246 1473.47 L888.885 1473.47 L888.885 1447.11 L880.575 1448.77 L880.575 1444.52 L888.839 1442.85 L893.515 1442.85 L893.515 1473.47 L901.154 1473.47 L901.154 1477.41 L881.246 1477.41 L881.246 1473.47 Z" fill="#000000" fill-rule="evenodd" fill-opacity="1" /><path clip-path="url(#clip430)" d="M910.644 1442.85 L929.001 1442.85 L929.001 1446.78 L914.927 1446.78 L914.927 1455.26 Q915.945 1454.91 916.964 1454.75 Q917.982 1454.56 919.001 1454.56 Q924.788 1454.56 928.167 1457.73 Q931.547 1460.9 931.547 1466.32 Q931.547 1471.9 928.075 1475 Q924.603 1478.08 918.283 1478.08 Q916.107 1478.08 913.839 1477.71 Q911.593 1477.34 909.186 1476.6 L909.186 1471.9 Q911.269 1473.03 913.492 1473.59 Q915.714 1474.14 918.191 1474.14 Q922.195 1474.14 924.533 1472.04 Q926.871 1469.93 926.871 1466.32 Q926.871 1462.71 924.533 1460.6 Q922.195 1458.5 918.191 1458.5 Q916.316 1458.5 914.441 1458.91 Q912.589 1459.33 910.644 1460.21 L910.644 1442.85 Z" fill="#000000" fill-rule="evenodd" fill-opacity="1" /><path clip-path="url(#clip430)" d="M940.76 1471.53 L945.644 1471.53 L945.644 1477.41 L940.76 1477.41 L940.76 1471.53 Z" fill="#000000" fill-rule="evenodd" fill-opacity="1" /><path clip-path="url(#clip430)" d="M965.829 1445.93 Q962.218 1445.93 960.39 1449.49 Q958.584 1453.03 958.584 1460.16 Q958.584 1467.27 960.39 1470.83 Q962.218 1474.38 965.829 1474.38 Q969.464 1474.38 971.269 1470.83 Q973.098 1467.27 973.098 1460.16 Q973.098 1453.03 971.269 1449.49 Q969.464 1445.93 965.829 1445.93 M965.829 1442.22 Q971.639 1442.22 974.695 1446.83 Q977.774 1451.41 977.774 1460.16 Q977.774 1468.89 974.695 1473.5 Q971.639 1478.08 965.829 1478.08 Q960.019 1478.08 956.94 1473.5 Q953.885 1468.89 953.885 1460.16 Q953.885 1451.41 956.94 1446.83 Q960.019 1442.22 965.829 1442.22 Z" fill="#000000" fill-rule="evenodd" fill-opacity="1" /><path clip-path="url(#clip430)" d="M1369.26 1473.47 L1376.9 1473.47 L1376.9 1447.11 L1368.59 1448.77 L1368.59 1444.52 L1376.86 1442.85 L1381.53 1442.85 L1381.53 1473.47 L1389.17 1473.47 L1389.17 1477.41 L1369.26 1477.41 L1369.26 1473.47 Z" fill="#000000" fill-rule="evenodd" fill-opacity="1" /><path clip-path="url(#clip430)" d="M1397.44 1442.85 L1419.66 1442.85 L1419.66 1444.84 L1407.11 1477.41 L1402.23 1477.41 L1414.03 1446.78 L1397.44 1446.78 L1397.44 1442.85 Z" fill="#000000" fill-rule="evenodd" fill-opacity="1" /><path clip-path="url(#clip430)" d="M1428.78 1471.53 L1433.66 1471.53 L1433.66 1477.41 L1428.78 1477.41 L1428.78 1471.53 Z" fill="#000000" fill-rule="evenodd" fill-opacity="1" /><path clip-path="url(#clip430)" d="M1443.89 1442.85 L1462.25 1442.85 L1462.25 1446.78 L1448.18 1446.78 L1448.18 1455.26 Q1449.19 1454.91 1450.21 1454.75 Q1451.23 1454.56 1452.25 1454.56 Q1458.04 1454.56 1461.42 1457.73 Q1464.8 1460.9 1464.8 1466.32 Q1464.8 1471.9 1461.32 1475 Q1457.85 1478.08 1451.53 1478.08 Q1449.36 1478.08 1447.09 1477.71 Q1444.84 1477.34 1442.44 1476.6 L1442.44 1471.9 Q1444.52 1473.03 1446.74 1473.59 Q1448.96 1474.14 1451.44 1474.14 Q1455.44 1474.14 1457.78 1472.04 Q1460.12 1469.93 1460.12 1466.32 Q1460.12 1462.71 1457.78 1460.6 Q1455.44 1458.5 1451.44 1458.5 Q1449.57 1458.5 1447.69 1458.91 Q1445.84 1459.33 1443.89 1460.21 L1443.89 1442.85 Z" fill="#000000" fill-rule="evenodd" fill-opacity="1" /><path clip-path="url(#clip430)" d="M1860.37 1473.47 L1876.69 1473.47 L1876.69 1477.41 L1854.75 1477.41 L1854.75 1473.47 Q1857.41 1470.72 1861.99 1466.09 Q1866.6 1461.44 1867.78 1460.09 Q1870.03 1457.57 1870.91 1455.83 Q1871.81 1454.08 1871.81 1452.39 Q1871.81 1449.63 1869.86 1447.89 Q1867.94 1446.16 1864.84 1446.16 Q1862.64 1446.16 1860.19 1446.92 Q1857.76 1447.69 1854.98 1449.24 L1854.98 1444.52 Q1857.8 1443.38 1860.26 1442.8 Q1862.71 1442.22 1864.75 1442.22 Q1870.12 1442.22 1873.31 1444.91 Q1876.51 1447.59 1876.51 1452.08 Q1876.51 1454.21 1875.7 1456.14 Q1874.91 1458.03 1872.8 1460.63 Q1872.23 1461.3 1869.12 1464.52 Q1866.02 1467.71 1860.37 1473.47 Z" fill="#000000" fill-rule="evenodd" fill-opacity="1" /><path clip-path="url(#clip430)" d="M1896.51 1445.93 Q1892.9 1445.93 1891.07 1449.49 Q1889.26 1453.03 1889.26 1460.16 Q1889.26 1467.27 1891.07 1470.83 Q1892.9 1474.38 1896.51 1474.38 Q1900.14 1474.38 1901.95 1470.83 Q1903.78 1467.27 1903.78 1460.16 Q1903.78 1453.03 1901.95 1449.49 Q1900.14 1445.93 1896.51 1445.93 M1896.51 1442.22 Q1902.32 1442.22 1905.37 1446.83 Q1908.45 1451.41 1908.45 1460.16 Q1908.45 1468.89 1905.37 1473.5 Q1902.32 1478.08 1896.51 1478.08 Q1890.7 1478.08 1887.62 1473.5 Q1884.56 1468.89 1884.56 1460.16 Q1884.56 1451.41 1887.62 1446.83 Q1890.7 1442.22 1896.51 1442.22 Z" fill="#000000" fill-rule="evenodd" fill-opacity="1" /><path clip-path="url(#clip430)" d="M1916.67 1471.53 L1921.55 1471.53 L1921.55 1477.41 L1916.67 1477.41 L1916.67 1471.53 Z" fill="#000000" fill-rule="evenodd" fill-opacity="1" /><path clip-path="url(#clip430)" d="M1941.74 1445.93 Q1938.13 1445.93 1936.3 1449.49 Q1934.49 1453.03 1934.49 1460.16 Q1934.49 1467.27 1936.3 1470.83 Q1938.13 1474.38 1941.74 1474.38 Q1945.37 1474.38 1947.18 1470.83 Q1949.01 1467.27 1949.01 1460.16 Q1949.01 1453.03 1947.18 1449.49 Q1945.37 1445.93 1941.74 1445.93 M1941.74 1442.22 Q1947.55 1442.22 1950.6 1446.83 Q1953.68 1451.41 1953.68 1460.16 Q1953.68 1468.89 1950.6 1473.5 Q1947.55 1478.08 1941.74 1478.08 Q1935.93 1478.08 1932.85 1473.5 Q1929.79 1468.89 1929.79 1460.16 Q1929.79 1451.41 1932.85 1446.83 Q1935.93 1442.22 1941.74 1442.22 Z" fill="#000000" fill-rule="evenodd" fill-opacity="1" /><path clip-path="url(#clip430)" d="M1218.45 1554.17 L1218.45 1551.59 Q1222.92 1551.59 1223.95 1551.05 Q1224.97 1550.48 1224.97 1547.78 L1224.97 1504.12 Q1224.97 1501.01 1223.86 1500.23 Q1222.8 1499.45 1218.45 1499.45 L1218.45 1496.83 L1230.5 1495.92 L1230.5 1547.78 Q1230.5 1550.48 1231.57 1551.05 Q1232.64 1551.59 1237.06 1551.59 L1237.06 1554.17 Q1236.04 1554.17 1233.91 1554.09 Q1231.77 1554.01 1230.22 1553.96 Q1228.66 1553.92 1227.76 1553.92 Q1226.77 1553.92 1218.45 1554.17 Z" fill="#000000" fill-rule="evenodd" fill-opacity="1" /><path clip-path="url(#clip430)" d="M1247 1549.66 Q1241.47 1544.17 1241.47 1536.22 Q1241.47 1528.22 1246.88 1522.4 Q1252.33 1516.54 1260.12 1516.54 Q1267.74 1516.54 1273.2 1522.36 Q1278.69 1528.14 1278.69 1536.22 Q1278.69 1544.13 1273.16 1549.62 Q1267.66 1555.11 1260.04 1555.11 Q1252.58 1555.11 1247 1549.66 M1248.44 1535.52 Q1248.44 1543.68 1250.57 1547.37 Q1253.85 1552.98 1260.12 1552.98 Q1263.24 1552.98 1265.82 1551.3 Q1268.44 1549.62 1269.88 1546.79 Q1271.72 1543.1 1271.72 1535.52 Q1271.72 1527.44 1269.51 1523.88 Q1266.23 1518.43 1260.04 1518.43 Q1257.33 1518.43 1254.67 1519.86 Q1252.05 1521.26 1250.45 1524.04 Q1248.44 1527.73 1248.44 1535.52 Z" fill="#000000" fill-rule="evenodd" fill-opacity="1" /><path clip-path="url(#clip430)" d="M1283.04 1560.81 Q1283.04 1558.1 1285.09 1555.77 Q1287.18 1553.43 1290.79 1552.41 Q1287.1 1550.07 1287.1 1544.95 Q1287.1 1541.01 1289.68 1537.98 Q1285.75 1534.7 1285.75 1529.33 Q1285.75 1524.37 1289.68 1520.72 Q1293.62 1517.07 1299.35 1517.07 Q1304.4 1517.07 1308.25 1520.11 Q1312.27 1516.17 1317.14 1516.13 Q1319.32 1516.13 1320.34 1517.48 Q1321.41 1518.84 1321.41 1520.27 Q1321.41 1521.54 1320.59 1522.16 Q1319.81 1522.77 1318.99 1522.77 Q1317.96 1522.77 1317.23 1522.12 Q1316.53 1521.42 1316.53 1520.35 Q1316.53 1518.59 1317.88 1518.06 Q1317.64 1517.98 1317.06 1517.98 Q1312.96 1517.98 1309.48 1521.26 Q1312.92 1524.45 1312.92 1529.41 Q1312.92 1534.37 1308.99 1538.02 Q1305.05 1541.67 1299.35 1541.67 Q1294.64 1541.67 1291.03 1539.04 Q1289.6 1540.73 1289.6 1543.02 Q1289.6 1545.11 1290.87 1546.75 Q1292.14 1548.39 1294.07 1548.64 Q1294.64 1548.72 1300.34 1548.72 Q1303.7 1548.72 1305.54 1548.8 Q1307.39 1548.88 1310.01 1549.46 Q1312.68 1549.99 1314.77 1551.05 Q1320.22 1554.09 1320.26 1560.65 Q1320.26 1565.44 1314.73 1568.43 Q1309.23 1571.47 1301.61 1571.47 Q1293.9 1571.47 1288.45 1568.39 Q1283.04 1565.36 1283.04 1560.81 M1287.43 1560.81 Q1287.43 1564.25 1291.48 1566.88 Q1295.54 1569.54 1301.69 1569.54 Q1307.72 1569.54 1311.77 1566.92 Q1315.87 1564.33 1315.87 1560.81 Q1315.87 1558.31 1314.44 1556.71 Q1313 1555.11 1310.05 1554.46 Q1307.14 1553.84 1305.09 1553.72 Q1303.04 1553.6 1299.27 1553.6 L1294.31 1553.6 Q1291.44 1553.76 1289.44 1555.85 Q1287.43 1557.94 1287.43 1560.81 M1292.02 1529.41 Q1292.02 1539.74 1299.35 1539.74 Q1303.04 1539.74 1305.3 1536.38 Q1306.65 1534.13 1306.65 1529.33 Q1306.65 1519 1299.35 1519 Q1295.67 1519 1293.37 1522.36 Q1292.02 1524.62 1292.02 1529.41 Z" fill="#000000" fill-rule="evenodd" fill-opacity="1" /><path clip-path="url(#clip430)" d="M1329.99 1577.43 Q1329.99 1576.37 1330.07 1576.05 Q1330.19 1575.73 1330.65 1575.25 L1341.92 1562.68 Q1348.09 1555.74 1348.09 1549.68 Q1348.09 1545.75 1346.02 1542.94 Q1343.99 1540.13 1340.23 1540.13 Q1337.65 1540.13 1335.47 1541.7 Q1333.29 1543.28 1332.28 1546.09 Q1332.45 1546.04 1333.06 1546.04 Q1334.52 1546.04 1335.32 1546.96 Q1336.15 1547.87 1336.15 1549.11 Q1336.15 1550.69 1335.12 1551.46 Q1334.12 1552.21 1333.11 1552.21 Q1332.71 1552.21 1332.17 1552.12 Q1331.65 1552.03 1330.82 1551.23 Q1329.99 1550.4 1329.99 1548.94 Q1329.99 1544.83 1333.08 1541.56 Q1336.21 1538.29 1340.97 1538.29 Q1346.37 1538.29 1349.9 1541.5 Q1353.46 1544.69 1353.46 1549.68 Q1353.46 1551.43 1352.91 1553.04 Q1352.39 1554.62 1351.68 1555.85 Q1350.99 1557.08 1349.09 1559.06 Q1347.2 1561.04 1345.68 1562.45 Q1344.16 1563.86 1340.75 1566.84 L1334.52 1572.89 L1345.11 1572.89 Q1350.27 1572.89 1350.67 1572.43 Q1351.25 1571.6 1351.96 1567.21 L1353.46 1567.21 L1351.79 1577.43 L1329.99 1577.43 Z" fill="#000000" fill-rule="evenodd" fill-opacity="1" /><path clip-path="url(#clip430)" d="M1432.85 1497.77 Q1432.85 1499.45 1431.42 1499.45 Q1426.79 1499.61 1424.9 1501.17 Q1423.06 1502.69 1422.36 1505.64 L1410.64 1552.41 Q1410.23 1553.88 1409.98 1554.05 Q1409.74 1554.17 1409.28 1554.17 Q1408.71 1554.17 1408.38 1553.88 Q1408.1 1553.6 1407.69 1552.57 L1386.78 1503.14 Q1386.62 1502.81 1386.41 1502.36 Q1386.21 1501.91 1386.04 1501.62 L1374.94 1545.93 Q1374.61 1547.2 1374.61 1547.86 Q1374.61 1549.46 1375.71 1550.48 Q1376.86 1551.46 1380.14 1551.59 Q1381.82 1551.59 1381.82 1552.49 Q1381.82 1554.17 1380.3 1554.17 Q1378.91 1554.17 1376 1554.05 Q1373.09 1553.92 1371.66 1553.92 Q1370.26 1553.92 1367.43 1554.05 Q1364.61 1554.17 1363.25 1554.17 Q1362.19 1554.17 1362.19 1553.23 Q1362.19 1552.49 1362.47 1552.12 Q1362.76 1551.71 1363.01 1551.67 Q1363.25 1551.59 1363.62 1551.59 Q1366.08 1551.51 1367.76 1551.01 Q1369.44 1550.52 1370.39 1549.58 Q1371.37 1548.64 1371.82 1547.69 Q1372.31 1546.71 1372.68 1545.27 L1383.91 1500.19 Q1383.91 1499.45 1378.21 1499.45 Q1377.23 1499.45 1376.82 1499.41 Q1376.45 1499.37 1376.17 1499.16 Q1375.88 1498.96 1375.88 1498.51 Q1375.88 1497.36 1376.37 1497.11 Q1376.86 1496.83 1378.3 1496.83 L1389.57 1496.83 Q1391 1496.83 1391.37 1497.07 Q1391.74 1497.28 1392.23 1498.42 L1410.8 1542.24 L1420.19 1504.9 Q1420.43 1504.16 1420.43 1503.14 Q1420.43 1501.5 1419.2 1500.51 Q1418.02 1499.49 1414.74 1499.45 Q1413.22 1499.45 1413.22 1498.51 Q1413.22 1497.73 1413.51 1497.36 Q1413.83 1496.95 1414.08 1496.91 Q1414.37 1496.83 1414.74 1496.83 Q1416.13 1496.83 1419 1496.95 Q1421.87 1497.07 1423.3 1497.07 Q1424.7 1497.07 1427.52 1496.95 Q1430.39 1496.83 1431.79 1496.83 Q1432.28 1496.83 1432.53 1497.07 Q1432.81 1497.28 1432.85 1497.52 L1432.85 1497.77 Z" fill="#000000" fill-rule="evenodd" fill-opacity="1" /><polyline clip-path="url(#clip430)" style="stroke:#000000; stroke-linecap:butt; stroke-linejoin:round; stroke-width:4; stroke-opacity:1; fill:none" points="
  294.624,1416.74 294.624,47.2441 
  "/>
<polyline clip-path="url(#clip430)" style="stroke:#000000; stroke-linecap:butt; stroke-linejoin:round; stroke-width:4; stroke-opacity:1; fill:none" points="
  294.624,1340.91 319.322,1340.91 
  "/>
<polyline clip-path="url(#clip430)" style="stroke:#000000; stroke-linecap:butt; stroke-linejoin:round; stroke-width:4; stroke-opacity:1; fill:none" points="
  294.624,1125.06 319.322,1125.06 
  "/>
<polyline clip-path="url(#clip430)" style="stroke:#000000; stroke-linecap:butt; stroke-linejoin:round; stroke-width:4; stroke-opacity:1; fill:none" points="
  294.624,909.211 319.322,909.211 
  "/>
<polyline clip-path="url(#clip430)" style="stroke:#000000; stroke-linecap:butt; stroke-linejoin:round; stroke-width:4; stroke-opacity:1; fill:none" points="
  294.624,693.362 319.322,693.362 
  "/>
<polyline clip-path="url(#clip430)" style="stroke:#000000; stroke-linecap:butt; stroke-linejoin:round; stroke-width:4; stroke-opacity:1; fill:none" points="
  294.624,477.513 319.322,477.513 
  "/>
<polyline clip-path="url(#clip430)" style="stroke:#000000; stroke-linecap:butt; stroke-linejoin:round; stroke-width:4; stroke-opacity:1; fill:none" points="
  294.624,261.665 319.322,261.665 
  "/>
<path clip-path="url(#clip430)" d="M122.514 1341.36 L152.19 1341.36 L152.19 1345.29 L122.514 1345.29 L122.514 1341.36 Z" fill="#000000" fill-rule="evenodd" fill-opacity="1" /><path clip-path="url(#clip430)" d="M172.282 1326.71 Q168.671 1326.71 166.843 1330.27 Q165.037 1333.81 165.037 1340.94 Q165.037 1348.05 166.843 1351.61 Q168.671 1355.16 172.282 1355.16 Q175.917 1355.16 177.722 1351.61 Q179.551 1348.05 179.551 1340.94 Q179.551 1333.81 177.722 1330.27 Q175.917 1326.71 172.282 1326.71 M172.282 1323 Q178.092 1323 181.148 1327.61 Q184.227 1332.19 184.227 1340.94 Q184.227 1349.67 181.148 1354.28 Q178.092 1358.86 172.282 1358.86 Q166.472 1358.86 163.393 1354.28 Q160.338 1349.67 160.338 1340.94 Q160.338 1332.19 163.393 1327.61 Q166.472 1323 172.282 1323 Z" fill="#000000" fill-rule="evenodd" fill-opacity="1" /><path clip-path="url(#clip430)" d="M192.444 1352.31 L197.328 1352.31 L197.328 1358.19 L192.444 1358.19 L192.444 1352.31 Z" fill="#000000" fill-rule="evenodd" fill-opacity="1" /><path clip-path="url(#clip430)" d="M208.324 1354.25 L215.963 1354.25 L215.963 1327.89 L207.652 1329.55 L207.652 1325.29 L215.916 1323.63 L220.592 1323.63 L220.592 1354.25 L228.231 1354.25 L228.231 1358.19 L208.324 1358.19 L208.324 1354.25 Z" fill="#000000" fill-rule="evenodd" fill-opacity="1" /><path clip-path="url(#clip430)" d="M237.722 1323.63 L256.078 1323.63 L256.078 1327.56 L242.004 1327.56 L242.004 1336.04 Q243.023 1335.69 244.041 1335.53 Q245.06 1335.34 246.078 1335.34 Q251.865 1335.34 255.245 1338.51 Q258.624 1341.68 258.624 1347.1 Q258.624 1352.68 255.152 1355.78 Q251.68 1358.86 245.361 1358.86 Q243.185 1358.86 240.916 1358.49 Q238.671 1358.12 236.263 1357.38 L236.263 1352.68 Q238.347 1353.81 240.569 1354.37 Q242.791 1354.92 245.268 1354.92 Q249.273 1354.92 251.611 1352.82 Q253.949 1350.71 253.949 1347.1 Q253.949 1343.49 251.611 1341.38 Q249.273 1339.28 245.268 1339.28 Q243.393 1339.28 241.518 1339.69 Q239.666 1340.11 237.722 1340.99 L237.722 1323.63 Z" fill="#000000" fill-rule="evenodd" fill-opacity="1" /><path clip-path="url(#clip430)" d="M121.519 1125.51 L151.194 1125.51 L151.194 1129.45 L121.519 1129.45 L121.519 1125.51 Z" fill="#000000" fill-rule="evenodd" fill-opacity="1" /><path clip-path="url(#clip430)" d="M171.287 1110.86 Q167.676 1110.86 165.847 1114.42 Q164.042 1117.96 164.042 1125.09 Q164.042 1132.2 165.847 1135.77 Q167.676 1139.31 171.287 1139.31 Q174.921 1139.31 176.727 1135.77 Q178.555 1132.2 178.555 1125.09 Q178.555 1117.96 176.727 1114.42 Q174.921 1110.86 171.287 1110.86 M171.287 1107.15 Q177.097 1107.15 180.153 1111.76 Q183.231 1116.34 183.231 1125.09 Q183.231 1133.82 180.153 1138.43 Q177.097 1143.01 171.287 1143.01 Q165.477 1143.01 162.398 1138.43 Q159.343 1133.82 159.343 1125.09 Q159.343 1116.34 162.398 1111.76 Q165.477 1107.15 171.287 1107.15 Z" fill="#000000" fill-rule="evenodd" fill-opacity="1" /><path clip-path="url(#clip430)" d="M191.449 1136.46 L196.333 1136.46 L196.333 1142.34 L191.449 1142.34 L191.449 1136.46 Z" fill="#000000" fill-rule="evenodd" fill-opacity="1" /><path clip-path="url(#clip430)" d="M207.328 1138.4 L214.967 1138.4 L214.967 1112.04 L206.657 1113.71 L206.657 1109.45 L214.921 1107.78 L219.597 1107.78 L219.597 1138.4 L227.236 1138.4 L227.236 1142.34 L207.328 1142.34 L207.328 1138.4 Z" fill="#000000" fill-rule="evenodd" fill-opacity="1" /><path clip-path="url(#clip430)" d="M246.68 1110.86 Q243.069 1110.86 241.24 1114.42 Q239.435 1117.96 239.435 1125.09 Q239.435 1132.2 241.24 1135.77 Q243.069 1139.31 246.68 1139.31 Q250.314 1139.31 252.12 1135.77 Q253.949 1132.2 253.949 1125.09 Q253.949 1117.96 252.12 1114.42 Q250.314 1110.86 246.68 1110.86 M246.68 1107.15 Q252.49 1107.15 255.546 1111.76 Q258.624 1116.34 258.624 1125.09 Q258.624 1133.82 255.546 1138.43 Q252.49 1143.01 246.68 1143.01 Q240.87 1143.01 237.791 1138.43 Q234.736 1133.82 234.736 1125.09 Q234.736 1116.34 237.791 1111.76 Q240.87 1107.15 246.68 1107.15 Z" fill="#000000" fill-rule="evenodd" fill-opacity="1" /><path clip-path="url(#clip430)" d="M122.514 909.662 L152.19 909.662 L152.19 913.597 L122.514 913.597 L122.514 909.662 Z" fill="#000000" fill-rule="evenodd" fill-opacity="1" /><path clip-path="url(#clip430)" d="M172.282 895.009 Q168.671 895.009 166.843 898.574 Q165.037 902.116 165.037 909.246 Q165.037 916.352 166.843 919.917 Q168.671 923.458 172.282 923.458 Q175.917 923.458 177.722 919.917 Q179.551 916.352 179.551 909.246 Q179.551 902.116 177.722 898.574 Q175.917 895.009 172.282 895.009 M172.282 891.306 Q178.092 891.306 181.148 895.912 Q184.227 900.496 184.227 909.246 Q184.227 917.972 181.148 922.579 Q178.092 927.162 172.282 927.162 Q166.472 927.162 163.393 922.579 Q160.338 917.972 160.338 909.246 Q160.338 900.496 163.393 895.912 Q166.472 891.306 172.282 891.306 Z" fill="#000000" fill-rule="evenodd" fill-opacity="1" /><path clip-path="url(#clip430)" d="M192.444 920.611 L197.328 920.611 L197.328 926.491 L192.444 926.491 L192.444 920.611 Z" fill="#000000" fill-rule="evenodd" fill-opacity="1" /><path clip-path="url(#clip430)" d="M217.514 895.009 Q213.902 895.009 212.074 898.574 Q210.268 902.116 210.268 909.246 Q210.268 916.352 212.074 919.917 Q213.902 923.458 217.514 923.458 Q221.148 923.458 222.953 919.917 Q224.782 916.352 224.782 909.246 Q224.782 902.116 222.953 898.574 Q221.148 895.009 217.514 895.009 M217.514 891.306 Q223.324 891.306 226.379 895.912 Q229.458 900.496 229.458 909.246 Q229.458 917.972 226.379 922.579 Q223.324 927.162 217.514 927.162 Q211.703 927.162 208.625 922.579 Q205.569 917.972 205.569 909.246 Q205.569 900.496 208.625 895.912 Q211.703 891.306 217.514 891.306 Z" fill="#000000" fill-rule="evenodd" fill-opacity="1" /><path clip-path="url(#clip430)" d="M237.722 891.931 L256.078 891.931 L256.078 895.866 L242.004 895.866 L242.004 904.338 Q243.023 903.991 244.041 903.829 Q245.06 903.644 246.078 903.644 Q251.865 903.644 255.245 906.815 Q258.624 909.986 258.624 915.403 Q258.624 920.982 255.152 924.083 Q251.68 927.162 245.361 927.162 Q243.185 927.162 240.916 926.792 Q238.671 926.421 236.263 925.681 L236.263 920.982 Q238.347 922.116 240.569 922.671 Q242.791 923.227 245.268 923.227 Q249.273 923.227 251.611 921.12 Q253.949 919.014 253.949 915.403 Q253.949 911.792 251.611 909.685 Q249.273 907.579 245.268 907.579 Q243.393 907.579 241.518 907.996 Q239.666 908.412 237.722 909.292 L237.722 891.931 Z" fill="#000000" fill-rule="evenodd" fill-opacity="1" /><path clip-path="url(#clip430)" d="M171.287 679.161 Q167.676 679.161 165.847 682.726 Q164.042 686.267 164.042 693.397 Q164.042 700.503 165.847 704.068 Q167.676 707.61 171.287 707.61 Q174.921 707.61 176.727 704.068 Q178.555 700.503 178.555 693.397 Q178.555 686.267 176.727 682.726 Q174.921 679.161 171.287 679.161 M171.287 675.457 Q177.097 675.457 180.153 680.064 Q183.231 684.647 183.231 693.397 Q183.231 702.124 180.153 706.73 Q177.097 711.313 171.287 711.313 Q165.477 711.313 162.398 706.73 Q159.343 702.124 159.343 693.397 Q159.343 684.647 162.398 680.064 Q165.477 675.457 171.287 675.457 Z" fill="#000000" fill-rule="evenodd" fill-opacity="1" /><path clip-path="url(#clip430)" d="M191.449 704.762 L196.333 704.762 L196.333 710.642 L191.449 710.642 L191.449 704.762 Z" fill="#000000" fill-rule="evenodd" fill-opacity="1" /><path clip-path="url(#clip430)" d="M216.518 679.161 Q212.907 679.161 211.078 682.726 Q209.273 686.267 209.273 693.397 Q209.273 700.503 211.078 704.068 Q212.907 707.61 216.518 707.61 Q220.152 707.61 221.958 704.068 Q223.787 700.503 223.787 693.397 Q223.787 686.267 221.958 682.726 Q220.152 679.161 216.518 679.161 M216.518 675.457 Q222.328 675.457 225.384 680.064 Q228.463 684.647 228.463 693.397 Q228.463 702.124 225.384 706.73 Q222.328 711.313 216.518 711.313 Q210.708 711.313 207.629 706.73 Q204.574 702.124 204.574 693.397 Q204.574 684.647 207.629 680.064 Q210.708 675.457 216.518 675.457 Z" fill="#000000" fill-rule="evenodd" fill-opacity="1" /><path clip-path="url(#clip430)" d="M246.68 679.161 Q243.069 679.161 241.24 682.726 Q239.435 686.267 239.435 693.397 Q239.435 700.503 241.24 704.068 Q243.069 707.61 246.68 707.61 Q250.314 707.61 252.12 704.068 Q253.949 700.503 253.949 693.397 Q253.949 686.267 252.12 682.726 Q250.314 679.161 246.68 679.161 M246.68 675.457 Q252.49 675.457 255.546 680.064 Q258.624 684.647 258.624 693.397 Q258.624 702.124 255.546 706.73 Q252.49 711.313 246.68 711.313 Q240.87 711.313 237.791 706.73 Q234.736 702.124 234.736 693.397 Q234.736 684.647 237.791 680.064 Q240.87 675.457 246.68 675.457 Z" fill="#000000" fill-rule="evenodd" fill-opacity="1" /><path clip-path="url(#clip430)" d="M172.282 463.312 Q168.671 463.312 166.843 466.877 Q165.037 470.418 165.037 477.548 Q165.037 484.655 166.843 488.219 Q168.671 491.761 172.282 491.761 Q175.917 491.761 177.722 488.219 Q179.551 484.655 179.551 477.548 Q179.551 470.418 177.722 466.877 Q175.917 463.312 172.282 463.312 M172.282 459.608 Q178.092 459.608 181.148 464.215 Q184.227 468.798 184.227 477.548 Q184.227 486.275 181.148 490.881 Q178.092 495.465 172.282 495.465 Q166.472 495.465 163.393 490.881 Q160.338 486.275 160.338 477.548 Q160.338 468.798 163.393 464.215 Q166.472 459.608 172.282 459.608 Z" fill="#000000" fill-rule="evenodd" fill-opacity="1" /><path clip-path="url(#clip430)" d="M192.444 488.914 L197.328 488.914 L197.328 494.793 L192.444 494.793 L192.444 488.914 Z" fill="#000000" fill-rule="evenodd" fill-opacity="1" /><path clip-path="url(#clip430)" d="M217.514 463.312 Q213.902 463.312 212.074 466.877 Q210.268 470.418 210.268 477.548 Q210.268 484.655 212.074 488.219 Q213.902 491.761 217.514 491.761 Q221.148 491.761 222.953 488.219 Q224.782 484.655 224.782 477.548 Q224.782 470.418 222.953 466.877 Q221.148 463.312 217.514 463.312 M217.514 459.608 Q223.324 459.608 226.379 464.215 Q229.458 468.798 229.458 477.548 Q229.458 486.275 226.379 490.881 Q223.324 495.465 217.514 495.465 Q211.703 495.465 208.625 490.881 Q205.569 486.275 205.569 477.548 Q205.569 468.798 208.625 464.215 Q211.703 459.608 217.514 459.608 Z" fill="#000000" fill-rule="evenodd" fill-opacity="1" /><path clip-path="url(#clip430)" d="M237.722 460.233 L256.078 460.233 L256.078 464.169 L242.004 464.169 L242.004 472.641 Q243.023 472.293 244.041 472.131 Q245.06 471.946 246.078 471.946 Q251.865 471.946 255.245 475.118 Q258.624 478.289 258.624 483.705 Q258.624 489.284 255.152 492.386 Q251.68 495.465 245.361 495.465 Q243.185 495.465 240.916 495.094 Q238.671 494.724 236.263 493.983 L236.263 489.284 Q238.347 490.418 240.569 490.974 Q242.791 491.529 245.268 491.529 Q249.273 491.529 251.611 489.423 Q253.949 487.317 253.949 483.705 Q253.949 480.094 251.611 477.988 Q249.273 475.881 245.268 475.881 Q243.393 475.881 241.518 476.298 Q239.666 476.715 237.722 477.594 L237.722 460.233 Z" fill="#000000" fill-rule="evenodd" fill-opacity="1" /><path clip-path="url(#clip430)" d="M171.287 247.463 Q167.676 247.463 165.847 251.028 Q164.042 254.57 164.042 261.699 Q164.042 268.806 165.847 272.371 Q167.676 275.912 171.287 275.912 Q174.921 275.912 176.727 272.371 Q178.555 268.806 178.555 261.699 Q178.555 254.57 176.727 251.028 Q174.921 247.463 171.287 247.463 M171.287 243.76 Q177.097 243.76 180.153 248.366 Q183.231 252.949 183.231 261.699 Q183.231 270.426 180.153 275.033 Q177.097 279.616 171.287 279.616 Q165.477 279.616 162.398 275.033 Q159.343 270.426 159.343 261.699 Q159.343 252.949 162.398 248.366 Q165.477 243.76 171.287 243.76 Z" fill="#000000" fill-rule="evenodd" fill-opacity="1" /><path clip-path="url(#clip430)" d="M191.449 273.065 L196.333 273.065 L196.333 278.945 L191.449 278.945 L191.449 273.065 Z" fill="#000000" fill-rule="evenodd" fill-opacity="1" /><path clip-path="url(#clip430)" d="M207.328 275.009 L214.967 275.009 L214.967 248.644 L206.657 250.311 L206.657 246.051 L214.921 244.385 L219.597 244.385 L219.597 275.009 L227.236 275.009 L227.236 278.945 L207.328 278.945 L207.328 275.009 Z" fill="#000000" fill-rule="evenodd" fill-opacity="1" /><path clip-path="url(#clip430)" d="M246.68 247.463 Q243.069 247.463 241.24 251.028 Q239.435 254.57 239.435 261.699 Q239.435 268.806 241.24 272.371 Q243.069 275.912 246.68 275.912 Q250.314 275.912 252.12 272.371 Q253.949 268.806 253.949 261.699 Q253.949 254.57 252.12 251.028 Q250.314 247.463 246.68 247.463 M246.68 243.76 Q252.49 243.76 255.546 248.366 Q258.624 252.949 258.624 261.699 Q258.624 270.426 255.546 275.033 Q252.49 279.616 246.68 279.616 Q240.87 279.616 237.791 275.033 Q234.736 270.426 234.736 261.699 Q234.736 252.949 237.791 248.366 Q240.87 243.76 246.68 243.76 Z" fill="#000000" fill-rule="evenodd" fill-opacity="1" /><path clip-path="url(#clip430)" d="M11.9239 732.781 Q12.7027 732.781 13.3585 732.945 L27.9507 735.241 Q29.0574 735.363 29.4673 735.609 Q29.8772 735.814 29.8772 736.47 Q29.8772 737.495 28.8115 737.495 Q28.1967 737.495 27.2129 737.249 Q22.5811 736.552 20.4907 736.552 Q19.097 736.552 18.0723 736.839 Q17.0066 737.085 16.2688 737.495 Q15.531 737.864 15.0391 738.725 Q14.5472 739.585 14.2603 740.405 Q13.9734 741.225 13.8504 742.701 Q13.6865 744.176 13.6455 745.447 Q13.6045 746.717 13.6045 748.808 Q13.6045 753.358 13.7684 754.096 Q13.9734 754.874 14.5882 755.284 Q15.1621 755.653 16.8836 756.063 L61.439 767.212 L63.2015 767.54 Q64.1852 767.54 64.5132 766.925 Q64.8411 766.31 65.046 764.425 Q65.251 761.72 65.251 759.055 Q65.251 758.973 65.251 758.809 Q65.251 757.908 65.292 757.539 Q65.292 757.17 65.3739 756.801 Q65.4559 756.432 65.6609 756.35 Q65.8248 756.227 66.1527 756.227 Q66.9315 756.227 67.3414 756.555 Q67.7103 756.883 67.7923 757.211 Q67.8333 757.498 67.8333 758.072 Q67.8333 759.219 67.7513 761.679 Q67.6693 764.138 67.6693 765.368 L67.5874 772.336 L67.6693 779.468 Q67.6693 780.575 67.7513 782.911 Q67.8333 785.247 67.8333 786.354 Q67.8333 787.789 66.8086 787.789 Q65.6609 787.789 65.4559 787.256 Q65.251 786.682 65.251 784.264 Q65.251 780.862 65.087 779.017 Q64.9231 777.173 64.3492 776.189 Q63.7754 775.164 63.2015 774.877 Q62.5867 774.59 61.193 774.262 L16.3917 762.99 Q15.408 762.662 14.6292 762.662 Q14.2193 762.662 14.0554 762.785 Q13.8914 762.867 13.7684 763.4 Q13.6045 763.933 13.6045 765.04 L13.6045 768.319 Q13.6045 771.68 13.7684 773.77 Q13.8914 775.82 14.5062 777.787 Q15.1211 779.714 15.9819 780.862 Q16.8426 781.968 18.6052 783.198 Q20.3677 784.428 22.4992 785.329 Q24.6306 786.19 28.1147 787.42 Q29.2624 787.83 29.5903 788.076 Q29.8772 788.281 29.8772 788.854 Q29.8772 789.264 29.6313 789.592 Q29.3444 789.879 28.9755 789.879 Q27.6228 789.469 27.4589 789.387 L12.6617 784.346 Q11.473 783.936 11.2681 783.567 Q11.0222 783.157 11.0222 781.64 L11.0222 735.077 Q11.0222 734.339 11.0222 734.093 Q11.0222 733.847 11.1041 733.437 Q11.1861 733.027 11.3911 732.904 Q11.596 732.781 11.9239 732.781 Z" fill="#000000" fill-rule="evenodd" fill-opacity="1" /><path clip-path="url(#clip430)" d="M51.6264 682.653 L66.6039 686.355 Q67.5507 686.613 67.6655 686.785 Q67.7802 686.929 67.7802 687.388 Q67.7802 688.277 67.1777 688.277 Q67.1203 688.277 66.3743 688.191 Q65.5996 688.105 64.1937 688.105 Q59.0003 688.105 55.9302 690.63 Q52.8602 693.126 52.8602 697.574 Q52.8602 701.734 55.0408 705.722 Q57.2214 709.71 60.435 712.264 Q63.0747 714.416 66.2882 715.908 Q69.5018 717.371 72.3137 717.974 Q75.0968 718.576 76.7897 718.806 Q78.4825 719.007 79.5729 719.007 Q82.7864 719.007 85.2827 717.974 Q87.7502 716.941 89.1562 715.219 Q90.5621 713.469 91.2507 711.461 Q91.9393 709.424 91.9393 707.214 Q91.9393 706.382 91.8246 705.378 Q91.7098 704.374 91.2794 702.824 Q90.849 701.246 90.1317 699.955 Q89.4144 698.635 88.0371 697.487 Q86.6599 696.311 84.8236 695.852 Q80.1467 694.618 79.4581 694.618 Q78.8842 694.618 78.6834 694.963 Q78.4825 695.307 78.3391 696.455 L78.2243 699.553 Q78.2243 699.611 78.2243 699.697 Q78.2243 700.242 78.2243 700.471 Q78.1956 700.701 78.1382 700.959 Q78.0809 701.189 77.9661 701.275 Q77.8226 701.332 77.5931 701.332 Q77.0479 701.332 76.7897 701.103 Q76.5028 700.873 76.4741 700.672 Q76.4167 700.471 76.4167 700.098 L76.5888 691.864 Q76.5888 691.204 76.5028 688.794 Q76.4167 686.383 76.4167 685.695 Q76.4167 684.92 77.0479 684.92 Q78.2243 684.92 78.2243 685.867 Q78.253 686.814 78.2817 687.302 Q78.2817 687.789 78.4252 688.277 Q78.5686 688.736 78.6834 688.908 Q78.7695 689.081 79.1999 689.31 Q79.6016 689.54 79.9459 689.626 Q80.2615 689.712 81.0649 689.913 Q81.5813 690.027 82.5569 690.314 Q83.5324 690.573 84.0489 690.687 L88.5823 691.806 Q91.9393 692.581 92.1689 692.811 Q92.3984 692.925 92.3984 693.212 Q92.3984 693.643 91.1359 694.561 Q89.8735 695.45 88.7545 695.852 Q89.5292 696.569 89.9882 697.028 Q90.4186 697.487 91.1072 698.549 Q91.7959 699.582 92.341 700.959 Q93.747 704.316 93.747 708.305 Q93.747 715.42 89.2422 719.896 Q84.7088 724.372 77.6505 724.372 Q72.658 724.372 67.7516 722.077 Q62.8451 719.782 59.2012 716.138 Q55.5572 712.494 53.2905 707.673 Q51.0238 702.853 51.0238 698.033 Q51.0238 696.196 51.5116 694.561 Q51.9994 692.925 52.6019 691.95 Q53.2045 690.946 54.0939 690.056 Q54.9547 689.167 55.3564 688.88 Q55.7581 688.564 56.2459 688.277 L51.7411 684.174 Q51.0238 683.457 51.0238 683.285 Q51.0238 682.94 51.2247 682.797 Q51.4255 682.653 51.6264 682.653 Z" fill="#000000" fill-rule="evenodd" fill-opacity="1" /><polyline clip-path="url(#clip433)" style="stroke:#000000; stroke-linecap:butt; stroke-linejoin:round; stroke-width:4; stroke-opacity:1; fill:none" points="
  352.873,1377.98 352.873,86.0033 
  "/>
<polyline clip-path="url(#clip433)" style="stroke:#000000; stroke-linecap:butt; stroke-linejoin:round; stroke-width:4; stroke-opacity:1; fill:none" points="
  2294.51,841.999 2294.51,541.498 
  "/>
<polyline clip-path="url(#clip433)" style="stroke:#000000; stroke-linecap:butt; stroke-linejoin:round; stroke-width:4; stroke-opacity:1; fill:none" points="
  1515.3,931.352 1515.3,456.286 
  "/>
<polyline clip-path="url(#clip433)" style="stroke:#000000; stroke-linecap:butt; stroke-linejoin:round; stroke-width:4; stroke-opacity:1; fill:none" points="
  738.545,1156.35 738.545,256.887 
  "/>
<polyline clip-path="url(#clip433)" style="stroke:#000000; stroke-linecap:butt; stroke-linejoin:round; stroke-width:4; stroke-opacity:1; fill:none" points="
  1904.76,873.058 1904.76,508.566 
  "/>
<polyline clip-path="url(#clip433)" style="stroke:#000000; stroke-linecap:butt; stroke-linejoin:round; stroke-width:4; stroke-opacity:1; fill:none" points="
  1126.38,1011.92 1126.38,377.328 
  "/>
<line clip-path="url(#clip433)" x1="368.873" y1="1377.98" x2="336.873" y2="1377.98" style="stroke:#000000; stroke-width:3.2; stroke-opacity:1"/>
<line clip-path="url(#clip433)" x1="368.873" y1="86.0033" x2="336.873" y2="86.0033" style="stroke:#000000; stroke-width:3.2; stroke-opacity:1"/>
<line clip-path="url(#clip433)" x1="2310.51" y1="841.999" x2="2278.51" y2="841.999" style="stroke:#000000; stroke-width:3.2; stroke-opacity:1"/>
<line clip-path="url(#clip433)" x1="2310.51" y1="541.498" x2="2278.51" y2="541.498" style="stroke:#000000; stroke-width:3.2; stroke-opacity:1"/>
<line clip-path="url(#clip433)" x1="1531.3" y1="931.352" x2="1499.3" y2="931.352" style="stroke:#000000; stroke-width:3.2; stroke-opacity:1"/>
<line clip-path="url(#clip433)" x1="1531.3" y1="456.286" x2="1499.3" y2="456.286" style="stroke:#000000; stroke-width:3.2; stroke-opacity:1"/>
<line clip-path="url(#clip433)" x1="754.545" y1="1156.35" x2="722.545" y2="1156.35" style="stroke:#000000; stroke-width:3.2; stroke-opacity:1"/>
<line clip-path="url(#clip433)" x1="754.545" y1="256.887" x2="722.545" y2="256.887" style="stroke:#000000; stroke-width:3.2; stroke-opacity:1"/>
<line clip-path="url(#clip433)" x1="1920.76" y1="873.058" x2="1888.76" y2="873.058" style="stroke:#000000; stroke-width:3.2; stroke-opacity:1"/>
<line clip-path="url(#clip433)" x1="1920.76" y1="508.566" x2="1888.76" y2="508.566" style="stroke:#000000; stroke-width:3.2; stroke-opacity:1"/>
<line clip-path="url(#clip433)" x1="1142.38" y1="1011.92" x2="1110.38" y2="1011.92" style="stroke:#000000; stroke-width:3.2; stroke-opacity:1"/>
<line clip-path="url(#clip433)" x1="1142.38" y1="377.328" x2="1110.38" y2="377.328" style="stroke:#000000; stroke-width:3.2; stroke-opacity:1"/>
<line clip-path="url(#clip433)" x1="368.873" y1="731.99" x2="336.873" y2="731.99" style="stroke:#000000; stroke-width:3.2; stroke-opacity:1"/>
<line clip-path="url(#clip433)" x1="2310.51" y1="691.749" x2="2278.51" y2="691.749" style="stroke:#000000; stroke-width:3.2; stroke-opacity:1"/>
<line clip-path="url(#clip433)" x1="1531.3" y1="693.819" x2="1499.3" y2="693.819" style="stroke:#000000; stroke-width:3.2; stroke-opacity:1"/>
<line clip-path="url(#clip433)" x1="754.545" y1="706.62" x2="722.545" y2="706.62" style="stroke:#000000; stroke-width:3.2; stroke-opacity:1"/>
<line clip-path="url(#clip433)" x1="1920.76" y1="690.812" x2="1888.76" y2="690.812" style="stroke:#000000; stroke-width:3.2; stroke-opacity:1"/>
<line clip-path="url(#clip433)" x1="1142.38" y1="694.622" x2="1110.38" y2="694.622" style="stroke:#000000; stroke-width:3.2; stroke-opacity:1"/>
</svg>
