<?xml version="1.0" encoding="utf-8"?>
<svg xmlns="http://www.w3.org/2000/svg" xmlns:xlink="http://www.w3.org/1999/xlink" width="600" height="400" viewBox="0 0 2400 1600">
<defs>
  <clipPath id="clip400">
    <rect x="0" y="0" width="2400" height="1600"/>
  </clipPath>
</defs>
<path clip-path="url(#clip400)" d="
M0 1600 L2400 1600 L2400 0 L0 0  Z
  " fill="#000000" fill-rule="evenodd" fill-opacity="0"/>
<defs>
  <clipPath id="clip401">
    <rect x="480" y="0" width="1681" height="1600"/>
  </clipPath>
</defs>
<defs>
  <clipPath id="clip402">
    <rect x="263" y="47" width="2091" height="1370"/>
  </clipPath>
</defs>
<path clip-path="url(#clip400)" d="
M236.821 1416.74 L2352.76 1416.74 L2352.76 47.2441 L236.821 47.2441  Z
  " fill="#000000" fill-rule="evenodd" fill-opacity="0"/>
<defs>
  <clipPath id="clip403">
    <rect x="236" y="47" width="2117" height="1370"/>
  </clipPath>
</defs>
<polyline clip-path="url(#clip400)" style="stroke:#000000; stroke-linecap:butt; stroke-linejoin:round; stroke-width:4; stroke-opacity:1; fill:none" points="
  236.821,1416.74 2352.76,1416.74 
  "/>
<polyline clip-path="url(#clip400)" style="stroke:#000000; stroke-linecap:butt; stroke-linejoin:round; stroke-width:4; stroke-opacity:1; fill:none" points="
  387.979,1416.74 387.979,1400.3 
  "/>
<polyline clip-path="url(#clip400)" style="stroke:#000000; stroke-linecap:butt; stroke-linejoin:round; stroke-width:4; stroke-opacity:1; fill:none" points="
  889.192,1416.74 889.192,1400.3 
  "/>
<polyline clip-path="url(#clip400)" style="stroke:#000000; stroke-linecap:butt; stroke-linejoin:round; stroke-width:4; stroke-opacity:1; fill:none" points="
  1390.41,1416.74 1390.41,1400.3 
  "/>
<polyline clip-path="url(#clip400)" style="stroke:#000000; stroke-linecap:butt; stroke-linejoin:round; stroke-width:4; stroke-opacity:1; fill:none" points="
  1891.62,1416.74 1891.62,1400.3 
  "/>
<path clip-path="url(#clip400)" d="M340.549 1473.47 L348.188 1473.47 L348.188 1447.11 L339.878 1448.77 L339.878 1444.52 L348.142 1442.85 L352.818 1442.85 L352.818 1473.47 L360.456 1473.47 L360.456 1477.41 L340.549 1477.41 L340.549 1473.47 Z" fill="#000000" fill-rule="evenodd" fill-opacity="1" /><path clip-path="url(#clip400)" d="M373.929 1473.47 L390.248 1473.47 L390.248 1477.41 L368.304 1477.41 L368.304 1473.47 Q370.966 1470.72 375.549 1466.09 Q380.155 1461.44 381.336 1460.09 Q383.581 1457.57 384.461 1455.83 Q385.364 1454.08 385.364 1452.39 Q385.364 1449.63 383.419 1447.89 Q381.498 1446.16 378.396 1446.16 Q376.197 1446.16 373.743 1446.92 Q371.313 1447.69 368.535 1449.24 L368.535 1444.52 Q371.359 1443.38 373.813 1442.8 Q376.266 1442.22 378.303 1442.22 Q383.674 1442.22 386.868 1444.91 Q390.063 1447.59 390.063 1452.08 Q390.063 1454.21 389.253 1456.14 Q388.465 1458.03 386.359 1460.63 Q385.78 1461.3 382.678 1464.52 Q379.577 1467.71 373.929 1473.47 Z" fill="#000000" fill-rule="evenodd" fill-opacity="1" /><path clip-path="url(#clip400)" d="M400.063 1471.53 L404.947 1471.53 L404.947 1477.41 L400.063 1477.41 L400.063 1471.53 Z" fill="#000000" fill-rule="evenodd" fill-opacity="1" /><path clip-path="url(#clip400)" d="M415.178 1442.85 L433.535 1442.85 L433.535 1446.78 L419.461 1446.78 L419.461 1455.26 Q420.479 1454.91 421.498 1454.75 Q422.516 1454.56 423.535 1454.56 Q429.322 1454.56 432.701 1457.73 Q436.081 1460.9 436.081 1466.32 Q436.081 1471.9 432.609 1475 Q429.137 1478.08 422.817 1478.08 Q420.641 1478.08 418.373 1477.71 Q416.127 1477.34 413.72 1476.6 L413.72 1471.9 Q415.803 1473.03 418.026 1473.59 Q420.248 1474.14 422.725 1474.14 Q426.729 1474.14 429.067 1472.04 Q431.405 1469.93 431.405 1466.32 Q431.405 1462.71 429.067 1460.6 Q426.729 1458.5 422.725 1458.5 Q420.85 1458.5 418.975 1458.91 Q417.123 1459.33 415.178 1460.21 L415.178 1442.85 Z" fill="#000000" fill-rule="evenodd" fill-opacity="1" /><path clip-path="url(#clip400)" d="M841.264 1473.47 L848.903 1473.47 L848.903 1447.11 L840.593 1448.77 L840.593 1444.52 L848.857 1442.85 L853.533 1442.85 L853.533 1473.47 L861.172 1473.47 L861.172 1477.41 L841.264 1477.41 L841.264 1473.47 Z" fill="#000000" fill-rule="evenodd" fill-opacity="1" /><path clip-path="url(#clip400)" d="M870.662 1442.85 L889.019 1442.85 L889.019 1446.78 L874.945 1446.78 L874.945 1455.26 Q875.963 1454.91 876.982 1454.75 Q878 1454.56 879.019 1454.56 Q884.806 1454.56 888.185 1457.73 Q891.565 1460.9 891.565 1466.32 Q891.565 1471.9 888.093 1475 Q884.621 1478.08 878.301 1478.08 Q876.125 1478.08 873.857 1477.71 Q871.611 1477.34 869.204 1476.6 L869.204 1471.9 Q871.287 1473.03 873.51 1473.59 Q875.732 1474.14 878.209 1474.14 Q882.213 1474.14 884.551 1472.04 Q886.889 1469.93 886.889 1466.32 Q886.889 1462.71 884.551 1460.6 Q882.213 1458.5 878.209 1458.5 Q876.334 1458.5 874.459 1458.91 Q872.607 1459.33 870.662 1460.21 L870.662 1442.85 Z" fill="#000000" fill-rule="evenodd" fill-opacity="1" /><path clip-path="url(#clip400)" d="M900.778 1471.53 L905.662 1471.53 L905.662 1477.41 L900.778 1477.41 L900.778 1471.53 Z" fill="#000000" fill-rule="evenodd" fill-opacity="1" /><path clip-path="url(#clip400)" d="M925.847 1445.93 Q922.236 1445.93 920.407 1449.49 Q918.602 1453.03 918.602 1460.16 Q918.602 1467.27 920.407 1470.83 Q922.236 1474.38 925.847 1474.38 Q929.481 1474.38 931.287 1470.83 Q933.116 1467.27 933.116 1460.16 Q933.116 1453.03 931.287 1449.49 Q929.481 1445.93 925.847 1445.93 M925.847 1442.22 Q931.657 1442.22 934.713 1446.83 Q937.792 1451.41 937.792 1460.16 Q937.792 1468.89 934.713 1473.5 Q931.657 1478.08 925.847 1478.08 Q920.037 1478.08 916.958 1473.5 Q913.903 1468.89 913.903 1460.16 Q913.903 1451.41 916.958 1446.83 Q920.037 1442.22 925.847 1442.22 Z" fill="#000000" fill-rule="evenodd" fill-opacity="1" /><path clip-path="url(#clip400)" d="M1342.97 1473.47 L1350.61 1473.47 L1350.61 1447.11 L1342.3 1448.77 L1342.3 1444.52 L1350.57 1442.85 L1355.24 1442.85 L1355.24 1473.47 L1362.88 1473.47 L1362.88 1477.41 L1342.97 1477.41 L1342.97 1473.47 Z" fill="#000000" fill-rule="evenodd" fill-opacity="1" /><path clip-path="url(#clip400)" d="M1371.15 1442.85 L1393.37 1442.85 L1393.37 1444.84 L1380.82 1477.41 L1375.94 1477.41 L1387.74 1446.78 L1371.15 1446.78 L1371.15 1442.85 Z" fill="#000000" fill-rule="evenodd" fill-opacity="1" /><path clip-path="url(#clip400)" d="M1402.49 1471.53 L1407.37 1471.53 L1407.37 1477.41 L1402.49 1477.41 L1402.49 1471.53 Z" fill="#000000" fill-rule="evenodd" fill-opacity="1" /><path clip-path="url(#clip400)" d="M1417.6 1442.85 L1435.96 1442.85 L1435.96 1446.78 L1421.89 1446.78 L1421.89 1455.26 Q1422.91 1454.91 1423.92 1454.75 Q1424.94 1454.56 1425.96 1454.56 Q1431.75 1454.56 1435.13 1457.73 Q1438.51 1460.9 1438.51 1466.32 Q1438.51 1471.9 1435.03 1475 Q1431.56 1478.08 1425.24 1478.08 Q1423.07 1478.08 1420.8 1477.71 Q1418.55 1477.34 1416.15 1476.6 L1416.15 1471.9 Q1418.23 1473.03 1420.45 1473.59 Q1422.67 1474.14 1425.15 1474.14 Q1429.16 1474.14 1431.49 1472.04 Q1433.83 1469.93 1433.83 1466.32 Q1433.83 1462.71 1431.49 1460.6 Q1429.16 1458.5 1425.15 1458.5 Q1423.28 1458.5 1421.4 1458.91 Q1419.55 1459.33 1417.6 1460.21 L1417.6 1442.85 Z" fill="#000000" fill-rule="evenodd" fill-opacity="1" /><path clip-path="url(#clip400)" d="M1847.78 1473.47 L1864.1 1473.47 L1864.1 1477.41 L1842.15 1477.41 L1842.15 1473.47 Q1844.81 1470.72 1849.4 1466.09 Q1854 1461.44 1855.18 1460.09 Q1857.43 1457.57 1858.31 1455.83 Q1859.21 1454.08 1859.21 1452.39 Q1859.21 1449.63 1857.27 1447.89 Q1855.35 1446.16 1852.24 1446.16 Q1850.04 1446.16 1847.59 1446.92 Q1845.16 1447.69 1842.38 1449.24 L1842.38 1444.52 Q1845.21 1443.38 1847.66 1442.8 Q1850.11 1442.22 1852.15 1442.22 Q1857.52 1442.22 1860.72 1444.91 Q1863.91 1447.59 1863.91 1452.08 Q1863.91 1454.21 1863.1 1456.14 Q1862.31 1458.03 1860.21 1460.63 Q1859.63 1461.3 1856.53 1464.52 Q1853.42 1467.71 1847.78 1473.47 Z" fill="#000000" fill-rule="evenodd" fill-opacity="1" /><path clip-path="url(#clip400)" d="M1883.91 1445.93 Q1880.3 1445.93 1878.47 1449.49 Q1876.66 1453.03 1876.66 1460.16 Q1876.66 1467.27 1878.47 1470.83 Q1880.3 1474.38 1883.91 1474.38 Q1887.54 1474.38 1889.35 1470.83 Q1891.18 1467.27 1891.18 1460.16 Q1891.18 1453.03 1889.35 1449.49 Q1887.54 1445.93 1883.91 1445.93 M1883.91 1442.22 Q1889.72 1442.22 1892.78 1446.83 Q1895.85 1451.41 1895.85 1460.16 Q1895.85 1468.89 1892.78 1473.5 Q1889.72 1478.08 1883.91 1478.08 Q1878.1 1478.08 1875.02 1473.5 Q1871.97 1468.89 1871.97 1460.16 Q1871.97 1451.41 1875.02 1446.83 Q1878.1 1442.22 1883.91 1442.22 Z" fill="#000000" fill-rule="evenodd" fill-opacity="1" /><path clip-path="url(#clip400)" d="M1904.07 1471.53 L1908.96 1471.53 L1908.96 1477.41 L1904.07 1477.41 L1904.07 1471.53 Z" fill="#000000" fill-rule="evenodd" fill-opacity="1" /><path clip-path="url(#clip400)" d="M1929.14 1445.93 Q1925.53 1445.93 1923.7 1449.49 Q1921.9 1453.03 1921.9 1460.16 Q1921.9 1467.27 1923.7 1470.83 Q1925.53 1474.38 1929.14 1474.38 Q1932.78 1474.38 1934.58 1470.83 Q1936.41 1467.27 1936.41 1460.16 Q1936.41 1453.03 1934.58 1449.49 Q1932.78 1445.93 1929.14 1445.93 M1929.14 1442.22 Q1934.95 1442.22 1938.01 1446.83 Q1941.09 1451.41 1941.09 1460.16 Q1941.09 1468.89 1938.01 1473.5 Q1934.95 1478.08 1929.14 1478.08 Q1923.33 1478.08 1920.25 1473.5 Q1917.2 1468.89 1917.2 1460.16 Q1917.2 1451.41 1920.25 1446.83 Q1923.33 1442.22 1929.14 1442.22 Z" fill="#000000" fill-rule="evenodd" fill-opacity="1" /><path clip-path="url(#clip400)" d="M1189.55 1554.17 L1189.55 1551.59 Q1194.02 1551.59 1195.04 1551.05 Q1196.07 1550.48 1196.07 1547.78 L1196.07 1504.12 Q1196.07 1501.01 1194.96 1500.23 Q1193.9 1499.45 1189.55 1499.45 L1189.55 1496.83 L1201.6 1495.92 L1201.6 1547.78 Q1201.6 1550.48 1202.67 1551.05 Q1203.73 1551.59 1208.16 1551.59 L1208.16 1554.17 Q1207.14 1554.17 1205 1554.09 Q1202.87 1554.01 1201.31 1553.96 Q1199.76 1553.92 1198.86 1553.92 Q1197.87 1553.92 1189.55 1554.17 Z" fill="#000000" fill-rule="evenodd" fill-opacity="1" /><path clip-path="url(#clip400)" d="M1218.1 1549.66 Q1212.57 1544.17 1212.57 1536.22 Q1212.57 1528.22 1217.98 1522.4 Q1223.43 1516.54 1231.22 1516.54 Q1238.84 1516.54 1244.29 1522.36 Q1249.79 1528.14 1249.79 1536.22 Q1249.79 1544.13 1244.25 1549.62 Q1238.76 1555.11 1231.14 1555.11 Q1223.68 1555.11 1218.1 1549.66 M1219.54 1535.52 Q1219.54 1543.68 1221.67 1547.37 Q1224.95 1552.98 1231.22 1552.98 Q1234.33 1552.98 1236.92 1551.3 Q1239.54 1549.62 1240.97 1546.79 Q1242.82 1543.1 1242.82 1535.52 Q1242.82 1527.44 1240.61 1523.88 Q1237.33 1518.43 1231.14 1518.43 Q1228.43 1518.43 1225.77 1519.86 Q1223.14 1521.26 1221.55 1524.04 Q1219.54 1527.73 1219.54 1535.52 Z" fill="#000000" fill-rule="evenodd" fill-opacity="1" /><path clip-path="url(#clip400)" d="M1254.14 1560.81 Q1254.14 1558.1 1256.19 1555.77 Q1258.28 1553.43 1261.89 1552.41 Q1258.2 1550.07 1258.2 1544.95 Q1258.2 1541.01 1260.78 1537.98 Q1256.84 1534.7 1256.84 1529.33 Q1256.84 1524.37 1260.78 1520.72 Q1264.71 1517.07 1270.45 1517.07 Q1275.49 1517.07 1279.35 1520.11 Q1283.36 1516.17 1288.24 1516.13 Q1290.41 1516.13 1291.44 1517.48 Q1292.51 1518.84 1292.51 1520.27 Q1292.51 1521.54 1291.69 1522.16 Q1290.91 1522.77 1290.09 1522.77 Q1289.06 1522.77 1288.32 1522.12 Q1287.63 1521.42 1287.63 1520.35 Q1287.63 1518.59 1288.98 1518.06 Q1288.73 1517.98 1288.16 1517.98 Q1284.06 1517.98 1280.58 1521.26 Q1284.02 1524.45 1284.02 1529.41 Q1284.02 1534.37 1280.09 1538.02 Q1276.15 1541.67 1270.45 1541.67 Q1265.74 1541.67 1262.13 1539.04 Q1260.7 1540.73 1260.7 1543.02 Q1260.7 1545.11 1261.97 1546.75 Q1263.24 1548.39 1265.17 1548.64 Q1265.74 1548.72 1271.44 1548.72 Q1274.8 1548.72 1276.64 1548.8 Q1278.49 1548.88 1281.11 1549.46 Q1283.77 1549.99 1285.86 1551.05 Q1291.32 1554.09 1291.36 1560.65 Q1291.36 1565.44 1285.82 1568.43 Q1280.33 1571.47 1272.71 1571.47 Q1265 1571.47 1259.55 1568.39 Q1254.14 1565.36 1254.14 1560.81 M1258.53 1560.81 Q1258.53 1564.25 1262.58 1566.88 Q1266.64 1569.54 1272.79 1569.54 Q1278.81 1569.54 1282.87 1566.92 Q1286.97 1564.33 1286.97 1560.81 Q1286.97 1558.31 1285.54 1556.71 Q1284.1 1555.11 1281.15 1554.46 Q1278.24 1553.84 1276.19 1553.72 Q1274.14 1553.6 1270.37 1553.6 L1265.41 1553.6 Q1262.54 1553.76 1260.53 1555.85 Q1258.53 1557.94 1258.53 1560.81 M1263.12 1529.41 Q1263.12 1539.74 1270.45 1539.74 Q1274.14 1539.74 1276.4 1536.38 Q1277.75 1534.13 1277.75 1529.33 Q1277.75 1519 1270.45 1519 Q1266.76 1519 1264.47 1522.36 Q1263.12 1524.62 1263.12 1529.41 Z" fill="#000000" fill-rule="evenodd" fill-opacity="1" /><path clip-path="url(#clip400)" d="M1301.08 1577.43 Q1301.08 1576.37 1301.17 1576.05 Q1301.28 1575.73 1301.74 1575.25 L1313.02 1562.68 Q1319.19 1555.74 1319.19 1549.68 Q1319.19 1545.75 1317.12 1542.94 Q1315.09 1540.13 1311.33 1540.13 Q1308.74 1540.13 1306.56 1541.7 Q1304.38 1543.28 1303.38 1546.09 Q1303.55 1546.04 1304.15 1546.04 Q1305.62 1546.04 1306.42 1546.96 Q1307.25 1547.87 1307.25 1549.11 Q1307.25 1550.69 1306.22 1551.46 Q1305.22 1552.21 1304.21 1552.21 Q1303.81 1552.21 1303.26 1552.12 Q1302.75 1552.03 1301.92 1551.23 Q1301.08 1550.4 1301.08 1548.94 Q1301.08 1544.83 1304.18 1541.56 Q1307.31 1538.29 1312.07 1538.29 Q1317.47 1538.29 1321 1541.5 Q1324.55 1544.69 1324.55 1549.68 Q1324.55 1551.43 1324.01 1553.04 Q1323.49 1554.62 1322.78 1555.85 Q1322.09 1557.08 1320.19 1559.06 Q1318.3 1561.04 1316.78 1562.45 Q1315.26 1563.86 1311.84 1566.84 L1305.62 1572.89 L1316.2 1572.89 Q1321.37 1572.89 1321.77 1572.43 Q1322.34 1571.6 1323.06 1567.21 L1324.55 1567.21 L1322.89 1577.43 L1301.08 1577.43 Z" fill="#000000" fill-rule="evenodd" fill-opacity="1" /><path clip-path="url(#clip400)" d="M1403.95 1497.77 Q1403.95 1499.45 1402.52 1499.45 Q1397.88 1499.61 1396 1501.17 Q1394.15 1502.69 1393.46 1505.64 L1381.74 1552.41 Q1381.33 1553.88 1381.08 1554.05 Q1380.83 1554.17 1380.38 1554.17 Q1379.81 1554.17 1379.48 1553.88 Q1379.19 1553.6 1378.78 1552.57 L1357.88 1503.14 Q1357.72 1502.81 1357.51 1502.36 Q1357.31 1501.91 1357.14 1501.62 L1346.03 1545.93 Q1345.71 1547.2 1345.71 1547.86 Q1345.71 1549.46 1346.81 1550.48 Q1347.96 1551.46 1351.24 1551.59 Q1352.92 1551.59 1352.92 1552.49 Q1352.92 1554.17 1351.4 1554.17 Q1350.01 1554.17 1347.1 1554.05 Q1344.19 1553.92 1342.75 1553.92 Q1341.36 1553.92 1338.53 1554.05 Q1335.7 1554.17 1334.35 1554.17 Q1333.29 1554.17 1333.29 1553.23 Q1333.29 1552.49 1333.57 1552.12 Q1333.86 1551.71 1334.11 1551.67 Q1334.35 1551.59 1334.72 1551.59 Q1337.18 1551.51 1338.86 1551.01 Q1340.54 1550.52 1341.48 1549.58 Q1342.47 1548.64 1342.92 1547.69 Q1343.41 1546.71 1343.78 1545.27 L1355.01 1500.19 Q1355.01 1499.45 1349.31 1499.45 Q1348.33 1499.45 1347.92 1499.41 Q1347.55 1499.37 1347.26 1499.16 Q1346.98 1498.96 1346.98 1498.51 Q1346.98 1497.36 1347.47 1497.11 Q1347.96 1496.83 1349.39 1496.83 L1360.67 1496.83 Q1362.1 1496.83 1362.47 1497.07 Q1362.84 1497.28 1363.33 1498.42 L1381.9 1542.24 L1391.29 1504.9 Q1391.53 1504.16 1391.53 1503.14 Q1391.53 1501.5 1390.3 1500.51 Q1389.11 1499.49 1385.83 1499.45 Q1384.32 1499.45 1384.32 1498.51 Q1384.32 1497.73 1384.6 1497.36 Q1384.93 1496.95 1385.18 1496.91 Q1385.47 1496.83 1385.83 1496.83 Q1387.23 1496.83 1390.1 1496.95 Q1392.97 1497.07 1394.4 1497.07 Q1395.79 1497.07 1398.62 1496.95 Q1401.49 1496.83 1402.89 1496.83 Q1403.38 1496.83 1403.62 1497.07 Q1403.91 1497.28 1403.95 1497.52 L1403.95 1497.77 Z" fill="#000000" fill-rule="evenodd" fill-opacity="1" /><polyline clip-path="url(#clip400)" style="stroke:#000000; stroke-linecap:butt; stroke-linejoin:round; stroke-width:4; stroke-opacity:1; fill:none" points="
  236.821,1416.74 236.821,47.2441 
  "/>
<polyline clip-path="url(#clip400)" style="stroke:#000000; stroke-linecap:butt; stroke-linejoin:round; stroke-width:4; stroke-opacity:1; fill:none" points="
  236.821,1200.41 262.212,1200.41 
  "/>
<polyline clip-path="url(#clip400)" style="stroke:#000000; stroke-linecap:butt; stroke-linejoin:round; stroke-width:4; stroke-opacity:1; fill:none" points="
  236.821,930.359 262.212,930.359 
  "/>
<polyline clip-path="url(#clip400)" style="stroke:#000000; stroke-linecap:butt; stroke-linejoin:round; stroke-width:4; stroke-opacity:1; fill:none" points="
  236.821,660.313 262.212,660.313 
  "/>
<polyline clip-path="url(#clip400)" style="stroke:#000000; stroke-linecap:butt; stroke-linejoin:round; stroke-width:4; stroke-opacity:1; fill:none" points="
  236.821,390.267 262.212,390.267 
  "/>
<polyline clip-path="url(#clip400)" style="stroke:#000000; stroke-linecap:butt; stroke-linejoin:round; stroke-width:4; stroke-opacity:1; fill:none" points="
  236.821,120.221 262.212,120.221 
  "/>
<path clip-path="url(#clip400)" d="M104.293 1213.75 L111.932 1213.75 L111.932 1187.38 L103.622 1189.05 L103.622 1184.79 L111.886 1183.13 L116.562 1183.13 L116.562 1213.75 L124.201 1213.75 L124.201 1217.69 L104.293 1217.69 L104.293 1213.75 Z" fill="#000000" fill-rule="evenodd" fill-opacity="1" /><path clip-path="url(#clip400)" d="M133.645 1211.81 L138.529 1211.81 L138.529 1217.69 L133.645 1217.69 L133.645 1211.81 Z" fill="#000000" fill-rule="evenodd" fill-opacity="1" /><path clip-path="url(#clip400)" d="M152.742 1213.75 L169.062 1213.75 L169.062 1217.69 L147.117 1217.69 L147.117 1213.75 Q149.779 1211 154.363 1206.37 Q158.969 1201.71 160.15 1200.37 Q162.395 1197.85 163.275 1196.11 Q164.177 1194.35 164.177 1192.66 Q164.177 1189.91 162.233 1188.17 Q160.312 1186.44 157.21 1186.44 Q155.011 1186.44 152.557 1187.2 Q150.126 1187.96 147.349 1189.51 L147.349 1184.79 Q150.173 1183.66 152.626 1183.08 Q155.08 1182.5 157.117 1182.5 Q162.488 1182.5 165.682 1185.19 Q168.876 1187.87 168.876 1192.36 Q168.876 1194.49 168.066 1196.41 Q167.279 1198.31 165.173 1200.9 Q164.594 1201.57 161.492 1204.79 Q158.39 1207.99 152.742 1213.75 Z" fill="#000000" fill-rule="evenodd" fill-opacity="1" /><path clip-path="url(#clip400)" d="M188.876 1186.2 Q185.265 1186.2 183.436 1189.77 Q181.631 1193.31 181.631 1200.44 Q181.631 1207.55 183.436 1211.11 Q185.265 1214.65 188.876 1214.65 Q192.511 1214.65 194.316 1211.11 Q196.145 1207.55 196.145 1200.44 Q196.145 1193.31 194.316 1189.77 Q192.511 1186.2 188.876 1186.2 M188.876 1182.5 Q194.686 1182.5 197.742 1187.11 Q200.821 1191.69 200.821 1200.44 Q200.821 1209.17 197.742 1213.77 Q194.686 1218.36 188.876 1218.36 Q183.066 1218.36 179.987 1213.77 Q176.932 1209.17 176.932 1200.44 Q176.932 1191.69 179.987 1187.11 Q183.066 1182.5 188.876 1182.5 Z" fill="#000000" fill-rule="evenodd" fill-opacity="1" /><path clip-path="url(#clip400)" d="M105.891 943.704 L113.529 943.704 L113.529 917.338 L105.219 919.005 L105.219 914.746 L113.483 913.079 L118.159 913.079 L118.159 943.704 L125.798 943.704 L125.798 947.639 L105.891 947.639 L105.891 943.704 Z" fill="#000000" fill-rule="evenodd" fill-opacity="1" /><path clip-path="url(#clip400)" d="M135.242 941.759 L140.127 941.759 L140.127 947.639 L135.242 947.639 L135.242 941.759 Z" fill="#000000" fill-rule="evenodd" fill-opacity="1" /><path clip-path="url(#clip400)" d="M154.339 943.704 L170.659 943.704 L170.659 947.639 L148.714 947.639 L148.714 943.704 Q151.376 940.949 155.96 936.32 Q160.566 931.667 161.747 930.324 Q163.992 927.801 164.872 926.065 Q165.775 924.306 165.775 922.616 Q165.775 919.861 163.83 918.125 Q161.909 916.389 158.807 916.389 Q156.608 916.389 154.154 917.153 Q151.724 917.917 148.946 919.468 L148.946 914.746 Q151.77 913.611 154.224 913.033 Q156.677 912.454 158.714 912.454 Q164.085 912.454 167.279 915.139 Q170.474 917.824 170.474 922.315 Q170.474 924.445 169.663 926.366 Q168.876 928.264 166.77 930.857 Q166.191 931.528 163.089 934.746 Q159.988 937.94 154.339 943.704 Z" fill="#000000" fill-rule="evenodd" fill-opacity="1" /><path clip-path="url(#clip400)" d="M184.501 943.704 L200.821 943.704 L200.821 947.639 L178.876 947.639 L178.876 943.704 Q181.538 940.949 186.122 936.32 Q190.728 931.667 191.909 930.324 Q194.154 927.801 195.034 926.065 Q195.936 924.306 195.936 922.616 Q195.936 919.861 193.992 918.125 Q192.071 916.389 188.969 916.389 Q186.77 916.389 184.316 917.153 Q181.886 917.917 179.108 919.468 L179.108 914.746 Q181.932 913.611 184.386 913.033 Q186.839 912.454 188.876 912.454 Q194.247 912.454 197.441 915.139 Q200.635 917.824 200.635 922.315 Q200.635 924.445 199.825 926.366 Q199.038 928.264 196.932 930.857 Q196.353 931.528 193.251 934.746 Q190.149 937.94 184.501 943.704 Z" fill="#000000" fill-rule="evenodd" fill-opacity="1" /><path clip-path="url(#clip400)" d="M103.807 673.658 L111.446 673.658 L111.446 647.292 L103.136 648.959 L103.136 644.7 L111.4 643.033 L116.076 643.033 L116.076 673.658 L123.715 673.658 L123.715 677.593 L103.807 677.593 L103.807 673.658 Z" fill="#000000" fill-rule="evenodd" fill-opacity="1" /><path clip-path="url(#clip400)" d="M133.159 671.714 L138.043 671.714 L138.043 677.593 L133.159 677.593 L133.159 671.714 Z" fill="#000000" fill-rule="evenodd" fill-opacity="1" /><path clip-path="url(#clip400)" d="M152.256 673.658 L168.575 673.658 L168.575 677.593 L146.631 677.593 L146.631 673.658 Q149.293 670.903 153.876 666.274 Q158.483 661.621 159.663 660.278 Q161.909 657.755 162.788 656.019 Q163.691 654.26 163.691 652.57 Q163.691 649.815 161.747 648.079 Q159.826 646.343 156.724 646.343 Q154.525 646.343 152.071 647.107 Q149.64 647.871 146.863 649.422 L146.863 644.7 Q149.687 643.566 152.14 642.987 Q154.594 642.408 156.631 642.408 Q162.001 642.408 165.196 645.093 Q168.39 647.778 168.39 652.269 Q168.39 654.399 167.58 656.32 Q166.793 658.218 164.687 660.811 Q164.108 661.482 161.006 664.7 Q157.904 667.894 152.256 673.658 Z" fill="#000000" fill-rule="evenodd" fill-opacity="1" /><path clip-path="url(#clip400)" d="M191.237 647.107 L179.432 665.556 L191.237 665.556 L191.237 647.107 M190.011 643.033 L195.89 643.033 L195.89 665.556 L200.821 665.556 L200.821 669.445 L195.89 669.445 L195.89 677.593 L191.237 677.593 L191.237 669.445 L175.636 669.445 L175.636 664.931 L190.011 643.033 Z" fill="#000000" fill-rule="evenodd" fill-opacity="1" /><path clip-path="url(#clip400)" d="M104.131 403.612 L111.77 403.612 L111.77 377.246 L103.46 378.913 L103.46 374.654 L111.724 372.987 L116.4 372.987 L116.4 403.612 L124.039 403.612 L124.039 407.547 L104.131 407.547 L104.131 403.612 Z" fill="#000000" fill-rule="evenodd" fill-opacity="1" /><path clip-path="url(#clip400)" d="M133.483 401.668 L138.367 401.668 L138.367 407.547 L133.483 407.547 L133.483 401.668 Z" fill="#000000" fill-rule="evenodd" fill-opacity="1" /><path clip-path="url(#clip400)" d="M152.58 403.612 L168.9 403.612 L168.9 407.547 L146.955 407.547 L146.955 403.612 Q149.617 400.857 154.201 396.228 Q158.807 391.575 159.988 390.232 Q162.233 387.709 163.113 385.973 Q164.015 384.214 164.015 382.524 Q164.015 379.769 162.071 378.033 Q160.15 376.297 157.048 376.297 Q154.849 376.297 152.395 377.061 Q149.964 377.825 147.187 379.376 L147.187 374.654 Q150.011 373.52 152.464 372.941 Q154.918 372.362 156.955 372.362 Q162.325 372.362 165.52 375.047 Q168.714 377.732 168.714 382.223 Q168.714 384.353 167.904 386.274 Q167.117 388.172 165.011 390.765 Q164.432 391.436 161.33 394.654 Q158.228 397.848 152.58 403.612 Z" fill="#000000" fill-rule="evenodd" fill-opacity="1" /><path clip-path="url(#clip400)" d="M189.293 388.404 Q186.145 388.404 184.293 390.556 Q182.464 392.709 182.464 396.459 Q182.464 400.186 184.293 402.362 Q186.145 404.515 189.293 404.515 Q192.441 404.515 194.27 402.362 Q196.122 400.186 196.122 396.459 Q196.122 392.709 194.27 390.556 Q192.441 388.404 189.293 388.404 M198.575 373.751 L198.575 378.01 Q196.816 377.177 195.01 376.737 Q193.228 376.297 191.469 376.297 Q186.839 376.297 184.386 379.422 Q181.955 382.547 181.608 388.867 Q182.974 386.853 185.034 385.788 Q187.094 384.7 189.571 384.7 Q194.779 384.7 197.788 387.871 Q200.821 391.019 200.821 396.459 Q200.821 401.783 197.673 405.001 Q194.524 408.218 189.293 408.218 Q183.298 408.218 180.126 403.635 Q176.955 399.029 176.955 390.302 Q176.955 382.107 180.844 377.246 Q184.733 372.362 191.284 372.362 Q193.043 372.362 194.825 372.709 Q196.631 373.057 198.575 373.751 Z" fill="#000000" fill-rule="evenodd" fill-opacity="1" /><path clip-path="url(#clip400)" d="M104.386 133.566 L112.025 133.566 L112.025 107.2 L103.715 108.867 L103.715 104.608 L111.979 102.941 L116.654 102.941 L116.654 133.566 L124.293 133.566 L124.293 137.501 L104.386 137.501 L104.386 133.566 Z" fill="#000000" fill-rule="evenodd" fill-opacity="1" /><path clip-path="url(#clip400)" d="M133.738 131.622 L138.622 131.622 L138.622 137.501 L133.738 137.501 L133.738 131.622 Z" fill="#000000" fill-rule="evenodd" fill-opacity="1" /><path clip-path="url(#clip400)" d="M152.835 133.566 L169.154 133.566 L169.154 137.501 L147.21 137.501 L147.21 133.566 Q149.872 130.811 154.455 126.182 Q159.062 121.529 160.242 120.186 Q162.488 117.663 163.367 115.927 Q164.27 114.168 164.27 112.478 Q164.27 109.724 162.325 107.987 Q160.404 106.251 157.302 106.251 Q155.103 106.251 152.65 107.015 Q150.219 107.779 147.441 109.33 L147.441 104.608 Q150.265 103.474 152.719 102.895 Q155.173 102.316 157.21 102.316 Q162.58 102.316 165.775 105.001 Q168.969 107.686 168.969 112.177 Q168.969 114.307 168.159 116.228 Q167.372 118.126 165.265 120.719 Q164.687 121.39 161.585 124.608 Q158.483 127.802 152.835 133.566 Z" fill="#000000" fill-rule="evenodd" fill-opacity="1" /><path clip-path="url(#clip400)" d="M188.969 121.089 Q185.636 121.089 183.714 122.872 Q181.816 124.654 181.816 127.779 Q181.816 130.904 183.714 132.686 Q185.636 134.469 188.969 134.469 Q192.302 134.469 194.223 132.686 Q196.145 130.881 196.145 127.779 Q196.145 124.654 194.223 122.872 Q192.325 121.089 188.969 121.089 M184.293 119.098 Q181.284 118.358 179.594 116.298 Q177.927 114.237 177.927 111.274 Q177.927 107.131 180.867 104.724 Q183.83 102.316 188.969 102.316 Q194.131 102.316 197.071 104.724 Q200.01 107.131 200.01 111.274 Q200.01 114.237 198.321 116.298 Q196.654 118.358 193.668 119.098 Q197.048 119.885 198.923 122.177 Q200.821 124.469 200.821 127.779 Q200.821 132.802 197.742 135.487 Q194.686 138.172 188.969 138.172 Q183.251 138.172 180.173 135.487 Q177.117 132.802 177.117 127.779 Q177.117 124.469 179.015 122.177 Q180.913 119.885 184.293 119.098 M182.58 111.714 Q182.58 114.399 184.247 115.904 Q185.936 117.409 188.969 117.409 Q191.978 117.409 193.668 115.904 Q195.381 114.399 195.381 111.714 Q195.381 109.029 193.668 107.524 Q191.978 106.02 188.969 106.02 Q185.936 106.02 184.247 107.524 Q182.58 109.029 182.58 111.714 Z" fill="#000000" fill-rule="evenodd" fill-opacity="1" /><path clip-path="url(#clip400)" d="M19.4032 709.443 Q19.7311 709.443 22.6004 711.041 Q27.888 713.706 35.9629 717.108 Q44.0378 720.51 50.0222 722.436 Q51.4568 722.846 53.3014 723.133 Q58.9579 723.871 67.7296 726.248 Q70.4759 727.068 71.6236 727.601 Q72.7713 728.134 72.7713 728.913 Q72.7713 730.019 71.2547 730.019 Q69.7381 730.019 64.0815 728.626 Q58.425 727.191 53.2194 725.633 Q50.3501 724.65 44.9805 724.65 Q43.259 724.65 41.7014 724.732 Q40.1438 724.814 37.8894 725.142 Q35.635 725.47 33.7905 726.002 Q31.946 726.535 30.0195 727.56 Q28.052 728.585 26.7403 729.978 Q25.3877 731.372 24.5269 733.503 Q23.6661 735.594 23.6661 738.217 Q23.6661 738.873 23.7481 739.693 Q23.7891 740.472 24.3219 742.357 Q24.8548 744.202 25.7976 745.759 Q26.6993 747.317 28.7078 748.997 Q30.7163 750.678 33.4216 751.58 L33.8315 751.908 Q33.8315 752.44 33.8315 752.727 Q33.7905 752.973 33.5855 753.26 Q33.3806 753.506 33.0117 753.506 Q32.1509 753.506 30.4293 752.85 Q28.7078 752.154 26.4944 750.76 Q24.281 749.325 22.3135 747.481 Q20.346 745.595 18.9933 742.849 Q17.6407 740.103 17.6407 737.151 Q17.6407 729.568 26.8633 725.961 Q34.6922 722.805 43.9968 722.518 Q27.4781 715.96 19.1573 711.451 Q18.5425 711.205 18.5425 710.467 Q18.5834 709.443 19.4032 709.443 Z" fill="#000000" fill-rule="evenodd" fill-opacity="1" /><polyline clip-path="url(#clip403)" style="stroke:#000000; stroke-linecap:butt; stroke-linejoin:round; stroke-width:4; stroke-opacity:1; fill:none" points="
  296.706,1377.98 296.706,1268.12 
  "/>
<polyline clip-path="url(#clip403)" style="stroke:#000000; stroke-linecap:butt; stroke-linejoin:round; stroke-width:4; stroke-opacity:1; fill:none" points="
  2292.87,154.415 2292.87,129.046 
  "/>
<polyline clip-path="url(#clip403)" style="stroke:#000000; stroke-linecap:butt; stroke-linejoin:round; stroke-width:4; stroke-opacity:1; fill:none" points="
  1491.78,251.092 1491.78,214.919 
  "/>
<polyline clip-path="url(#clip403)" style="stroke:#000000; stroke-linecap:butt; stroke-linejoin:round; stroke-width:4; stroke-opacity:1; fill:none" points="
  693.209,911.812 693.209,844.472 
  "/>
<polyline clip-path="url(#clip403)" style="stroke:#000000; stroke-linecap:butt; stroke-linejoin:round; stroke-width:4; stroke-opacity:1; fill:none" points="
  1892.18,116.158 1892.18,86.0033 
  "/>
<polyline clip-path="url(#clip403)" style="stroke:#000000; stroke-linecap:butt; stroke-linejoin:round; stroke-width:4; stroke-opacity:1; fill:none" points="
  1091.93,413.289 1091.93,366.067 
  "/>
<line clip-path="url(#clip403)" x1="312.706" y1="1377.98" x2="280.706" y2="1377.98" style="stroke:#000000; stroke-width:3.2; stroke-opacity:1"/>
<line clip-path="url(#clip403)" x1="312.706" y1="1268.12" x2="280.706" y2="1268.12" style="stroke:#000000; stroke-width:3.2; stroke-opacity:1"/>
<line clip-path="url(#clip403)" x1="2308.87" y1="154.415" x2="2276.87" y2="154.415" style="stroke:#000000; stroke-width:3.2; stroke-opacity:1"/>
<line clip-path="url(#clip403)" x1="2308.87" y1="129.046" x2="2276.87" y2="129.046" style="stroke:#000000; stroke-width:3.2; stroke-opacity:1"/>
<line clip-path="url(#clip403)" x1="1507.78" y1="251.092" x2="1475.78" y2="251.092" style="stroke:#000000; stroke-width:3.2; stroke-opacity:1"/>
<line clip-path="url(#clip403)" x1="1507.78" y1="214.919" x2="1475.78" y2="214.919" style="stroke:#000000; stroke-width:3.2; stroke-opacity:1"/>
<line clip-path="url(#clip403)" x1="709.209" y1="911.812" x2="677.209" y2="911.812" style="stroke:#000000; stroke-width:3.2; stroke-opacity:1"/>
<line clip-path="url(#clip403)" x1="709.209" y1="844.472" x2="677.209" y2="844.472" style="stroke:#000000; stroke-width:3.2; stroke-opacity:1"/>
<line clip-path="url(#clip403)" x1="1908.18" y1="116.158" x2="1876.18" y2="116.158" style="stroke:#000000; stroke-width:3.2; stroke-opacity:1"/>
<line clip-path="url(#clip403)" x1="1908.18" y1="86.0033" x2="1876.18" y2="86.0033" style="stroke:#000000; stroke-width:3.2; stroke-opacity:1"/>
<line clip-path="url(#clip403)" x1="1107.93" y1="413.289" x2="1075.93" y2="413.289" style="stroke:#000000; stroke-width:3.2; stroke-opacity:1"/>
<line clip-path="url(#clip403)" x1="1107.93" y1="366.067" x2="1075.93" y2="366.067" style="stroke:#000000; stroke-width:3.2; stroke-opacity:1"/>
<line clip-path="url(#clip403)" x1="312.706" y1="1323.05" x2="280.706" y2="1323.05" style="stroke:#000000; stroke-width:3.2; stroke-opacity:1"/>
<line clip-path="url(#clip403)" x1="2308.87" y1="141.731" x2="2276.87" y2="141.731" style="stroke:#000000; stroke-width:3.2; stroke-opacity:1"/>
<line clip-path="url(#clip403)" x1="1507.78" y1="233.005" x2="1475.78" y2="233.005" style="stroke:#000000; stroke-width:3.2; stroke-opacity:1"/>
<line clip-path="url(#clip403)" x1="709.209" y1="878.142" x2="677.209" y2="878.142" style="stroke:#000000; stroke-width:3.2; stroke-opacity:1"/>
<line clip-path="url(#clip403)" x1="1908.18" y1="101.081" x2="1876.18" y2="101.081" style="stroke:#000000; stroke-width:3.2; stroke-opacity:1"/>
<line clip-path="url(#clip403)" x1="1107.93" y1="389.678" x2="1075.93" y2="389.678" style="stroke:#000000; stroke-width:3.2; stroke-opacity:1"/>
</svg>
