<?xml version="1.0" encoding="utf-8"?>
<svg xmlns="http://www.w3.org/2000/svg" xmlns:xlink="http://www.w3.org/1999/xlink" width="600" height="400" viewBox="0 0 2400 1600">
<defs>
  <clipPath id="clip460">
    <rect x="0" y="0" width="2400" height="1600"/>
  </clipPath>
</defs>
<path clip-path="url(#clip460)" d="
M0 1600 L2400 1600 L2400 0 L0 0  Z
  " fill="#000000" fill-rule="evenodd" fill-opacity="0"/>
<defs>
  <clipPath id="clip461">
    <rect x="480" y="0" width="1681" height="1600"/>
  </clipPath>
</defs>
<defs>
  <clipPath id="clip462">
    <rect x="294" y="47" width="2059" height="1370"/>
  </clipPath>
</defs>
<path clip-path="url(#clip460)" d="
M265.402 1416.74 L2352.76 1416.74 L2352.76 47.2441 L265.402 47.2441  Z
  " fill="#000000" fill-rule="evenodd" fill-opacity="0"/>
<defs>
  <clipPath id="clip463">
    <rect x="265" y="47" width="2088" height="1370"/>
  </clipPath>
</defs>
<polyline clip-path="url(#clip460)" style="stroke:#000000; stroke-linecap:butt; stroke-linejoin:round; stroke-width:4; stroke-opacity:1; fill:none" points="
  265.402,1416.74 2352.76,1416.74 
  "/>
<polyline clip-path="url(#clip460)" style="stroke:#000000; stroke-linecap:butt; stroke-linejoin:round; stroke-width:4; stroke-opacity:1; fill:none" points="
  414.519,1416.74 414.519,1400.3 
  "/>
<polyline clip-path="url(#clip460)" style="stroke:#000000; stroke-linecap:butt; stroke-linejoin:round; stroke-width:4; stroke-opacity:1; fill:none" points="
  908.962,1416.74 908.962,1400.3 
  "/>
<polyline clip-path="url(#clip460)" style="stroke:#000000; stroke-linecap:butt; stroke-linejoin:round; stroke-width:4; stroke-opacity:1; fill:none" points="
  1403.4,1416.74 1403.4,1400.3 
  "/>
<polyline clip-path="url(#clip460)" style="stroke:#000000; stroke-linecap:butt; stroke-linejoin:round; stroke-width:4; stroke-opacity:1; fill:none" points="
  1897.85,1416.74 1897.85,1400.3 
  "/>
<path clip-path="url(#clip460)" d="M367.089 1473.47 L374.728 1473.47 L374.728 1447.11 L366.418 1448.77 L366.418 1444.52 L374.682 1442.85 L379.357 1442.85 L379.357 1473.47 L386.996 1473.47 L386.996 1477.41 L367.089 1477.41 L367.089 1473.47 Z" fill="#000000" fill-rule="evenodd" fill-opacity="1" /><path clip-path="url(#clip460)" d="M400.468 1473.47 L416.788 1473.47 L416.788 1477.41 L394.843 1477.41 L394.843 1473.47 Q397.505 1470.72 402.089 1466.09 Q406.695 1461.44 407.876 1460.09 Q410.121 1457.57 411.001 1455.83 Q411.904 1454.08 411.904 1452.39 Q411.904 1449.63 409.959 1447.89 Q408.038 1446.16 404.936 1446.16 Q402.737 1446.16 400.283 1446.92 Q397.853 1447.69 395.075 1449.24 L395.075 1444.52 Q397.899 1443.38 400.353 1442.8 Q402.806 1442.22 404.843 1442.22 Q410.214 1442.22 413.408 1444.91 Q416.603 1447.59 416.603 1452.08 Q416.603 1454.21 415.792 1456.14 Q415.005 1458.03 412.899 1460.63 Q412.32 1461.3 409.218 1464.52 Q406.117 1467.71 400.468 1473.47 Z" fill="#000000" fill-rule="evenodd" fill-opacity="1" /><path clip-path="url(#clip460)" d="M426.603 1471.53 L431.487 1471.53 L431.487 1477.41 L426.603 1477.41 L426.603 1471.53 Z" fill="#000000" fill-rule="evenodd" fill-opacity="1" /><path clip-path="url(#clip460)" d="M441.718 1442.85 L460.075 1442.85 L460.075 1446.78 L446.001 1446.78 L446.001 1455.26 Q447.019 1454.91 448.038 1454.75 Q449.056 1454.56 450.075 1454.56 Q455.862 1454.56 459.241 1457.73 Q462.621 1460.9 462.621 1466.32 Q462.621 1471.9 459.149 1475 Q455.676 1478.08 449.357 1478.08 Q447.181 1478.08 444.913 1477.71 Q442.667 1477.34 440.26 1476.6 L440.26 1471.9 Q442.343 1473.03 444.565 1473.59 Q446.788 1474.14 449.264 1474.14 Q453.269 1474.14 455.607 1472.04 Q457.945 1469.93 457.945 1466.32 Q457.945 1462.71 455.607 1460.6 Q453.269 1458.5 449.264 1458.5 Q447.389 1458.5 445.514 1458.91 Q443.663 1459.33 441.718 1460.21 L441.718 1442.85 Z" fill="#000000" fill-rule="evenodd" fill-opacity="1" /><path clip-path="url(#clip460)" d="M861.034 1473.47 L868.673 1473.47 L868.673 1447.11 L860.363 1448.77 L860.363 1444.52 L868.626 1442.85 L873.302 1442.85 L873.302 1473.47 L880.941 1473.47 L880.941 1477.41 L861.034 1477.41 L861.034 1473.47 Z" fill="#000000" fill-rule="evenodd" fill-opacity="1" /><path clip-path="url(#clip460)" d="M890.432 1442.85 L908.788 1442.85 L908.788 1446.78 L894.714 1446.78 L894.714 1455.26 Q895.733 1454.91 896.751 1454.75 Q897.77 1454.56 898.788 1454.56 Q904.575 1454.56 907.955 1457.73 Q911.335 1460.9 911.335 1466.32 Q911.335 1471.9 907.862 1475 Q904.39 1478.08 898.071 1478.08 Q895.895 1478.08 893.626 1477.71 Q891.381 1477.34 888.974 1476.6 L888.974 1471.9 Q891.057 1473.03 893.279 1473.59 Q895.501 1474.14 897.978 1474.14 Q901.983 1474.14 904.321 1472.04 Q906.659 1469.93 906.659 1466.32 Q906.659 1462.71 904.321 1460.6 Q901.983 1458.5 897.978 1458.5 Q896.103 1458.5 894.228 1458.91 Q892.376 1459.33 890.432 1460.21 L890.432 1442.85 Z" fill="#000000" fill-rule="evenodd" fill-opacity="1" /><path clip-path="url(#clip460)" d="M920.548 1471.53 L925.432 1471.53 L925.432 1477.41 L920.548 1477.41 L920.548 1471.53 Z" fill="#000000" fill-rule="evenodd" fill-opacity="1" /><path clip-path="url(#clip460)" d="M945.617 1445.93 Q942.006 1445.93 940.177 1449.49 Q938.371 1453.03 938.371 1460.16 Q938.371 1467.27 940.177 1470.83 Q942.006 1474.38 945.617 1474.38 Q949.251 1474.38 951.057 1470.83 Q952.885 1467.27 952.885 1460.16 Q952.885 1453.03 951.057 1449.49 Q949.251 1445.93 945.617 1445.93 M945.617 1442.22 Q951.427 1442.22 954.483 1446.83 Q957.561 1451.41 957.561 1460.16 Q957.561 1468.89 954.483 1473.5 Q951.427 1478.08 945.617 1478.08 Q939.807 1478.08 936.728 1473.5 Q933.672 1468.89 933.672 1460.16 Q933.672 1451.41 936.728 1446.83 Q939.807 1442.22 945.617 1442.22 Z" fill="#000000" fill-rule="evenodd" fill-opacity="1" /><path clip-path="url(#clip460)" d="M1355.97 1473.47 L1363.61 1473.47 L1363.61 1447.11 L1355.3 1448.77 L1355.3 1444.52 L1363.57 1442.85 L1368.24 1442.85 L1368.24 1473.47 L1375.88 1473.47 L1375.88 1477.41 L1355.97 1477.41 L1355.97 1473.47 Z" fill="#000000" fill-rule="evenodd" fill-opacity="1" /><path clip-path="url(#clip460)" d="M1384.15 1442.85 L1406.37 1442.85 L1406.37 1444.84 L1393.82 1477.41 L1388.94 1477.41 L1400.74 1446.78 L1384.15 1446.78 L1384.15 1442.85 Z" fill="#000000" fill-rule="evenodd" fill-opacity="1" /><path clip-path="url(#clip460)" d="M1415.49 1471.53 L1420.37 1471.53 L1420.37 1477.41 L1415.49 1477.41 L1415.49 1471.53 Z" fill="#000000" fill-rule="evenodd" fill-opacity="1" /><path clip-path="url(#clip460)" d="M1430.6 1442.85 L1448.96 1442.85 L1448.96 1446.78 L1434.89 1446.78 L1434.89 1455.26 Q1435.9 1454.91 1436.92 1454.75 Q1437.94 1454.56 1438.96 1454.56 Q1444.75 1454.56 1448.13 1457.73 Q1451.51 1460.9 1451.51 1466.32 Q1451.51 1471.9 1448.03 1475 Q1444.56 1478.08 1438.24 1478.08 Q1436.07 1478.08 1433.8 1477.71 Q1431.55 1477.34 1429.15 1476.6 L1429.15 1471.9 Q1431.23 1473.03 1433.45 1473.59 Q1435.67 1474.14 1438.15 1474.14 Q1442.15 1474.14 1444.49 1472.04 Q1446.83 1469.93 1446.83 1466.32 Q1446.83 1462.71 1444.49 1460.6 Q1442.15 1458.5 1438.15 1458.5 Q1436.27 1458.5 1434.4 1458.91 Q1432.55 1459.33 1430.6 1460.21 L1430.6 1442.85 Z" fill="#000000" fill-rule="evenodd" fill-opacity="1" /><path clip-path="url(#clip460)" d="M1854 1473.47 L1870.32 1473.47 L1870.32 1477.41 L1848.38 1477.41 L1848.38 1473.47 Q1851.04 1470.72 1855.63 1466.09 Q1860.23 1461.44 1861.41 1460.09 Q1863.66 1457.57 1864.54 1455.83 Q1865.44 1454.08 1865.44 1452.39 Q1865.44 1449.63 1863.5 1447.89 Q1861.57 1446.16 1858.47 1446.16 Q1856.27 1446.16 1853.82 1446.92 Q1851.39 1447.69 1848.61 1449.24 L1848.61 1444.52 Q1851.44 1443.38 1853.89 1442.8 Q1856.34 1442.22 1858.38 1442.22 Q1863.75 1442.22 1866.94 1444.91 Q1870.14 1447.59 1870.14 1452.08 Q1870.14 1454.21 1869.33 1456.14 Q1868.54 1458.03 1866.44 1460.63 Q1865.86 1461.3 1862.75 1464.52 Q1859.65 1467.71 1854 1473.47 Z" fill="#000000" fill-rule="evenodd" fill-opacity="1" /><path clip-path="url(#clip460)" d="M1890.14 1445.93 Q1886.53 1445.93 1884.7 1449.49 Q1882.89 1453.03 1882.89 1460.16 Q1882.89 1467.27 1884.7 1470.83 Q1886.53 1474.38 1890.14 1474.38 Q1893.77 1474.38 1895.58 1470.83 Q1897.41 1467.27 1897.41 1460.16 Q1897.41 1453.03 1895.58 1449.49 Q1893.77 1445.93 1890.14 1445.93 M1890.14 1442.22 Q1895.95 1442.22 1899 1446.83 Q1902.08 1451.41 1902.08 1460.16 Q1902.08 1468.89 1899 1473.5 Q1895.95 1478.08 1890.14 1478.08 Q1884.33 1478.08 1881.25 1473.5 Q1878.19 1468.89 1878.19 1460.16 Q1878.19 1451.41 1881.25 1446.83 Q1884.33 1442.22 1890.14 1442.22 Z" fill="#000000" fill-rule="evenodd" fill-opacity="1" /><path clip-path="url(#clip460)" d="M1910.3 1471.53 L1915.19 1471.53 L1915.19 1477.41 L1910.3 1477.41 L1910.3 1471.53 Z" fill="#000000" fill-rule="evenodd" fill-opacity="1" /><path clip-path="url(#clip460)" d="M1935.37 1445.93 Q1931.76 1445.93 1929.93 1449.49 Q1928.12 1453.03 1928.12 1460.16 Q1928.12 1467.27 1929.93 1470.83 Q1931.76 1474.38 1935.37 1474.38 Q1939 1474.38 1940.81 1470.83 Q1942.64 1467.27 1942.64 1460.16 Q1942.64 1453.03 1940.81 1449.49 Q1939 1445.93 1935.37 1445.93 M1935.37 1442.22 Q1941.18 1442.22 1944.24 1446.83 Q1947.31 1451.41 1947.31 1460.16 Q1947.31 1468.89 1944.24 1473.5 Q1941.18 1478.08 1935.37 1478.08 Q1929.56 1478.08 1926.48 1473.5 Q1923.43 1468.89 1923.43 1460.16 Q1923.43 1451.41 1926.48 1446.83 Q1929.56 1442.22 1935.37 1442.22 Z" fill="#000000" fill-rule="evenodd" fill-opacity="1" /><path clip-path="url(#clip460)" d="M1203.84 1554.17 L1203.84 1551.59 Q1208.31 1551.59 1209.33 1551.05 Q1210.36 1550.48 1210.36 1547.78 L1210.36 1504.12 Q1210.36 1501.01 1209.25 1500.23 Q1208.19 1499.45 1203.84 1499.45 L1203.84 1496.83 L1215.89 1495.92 L1215.89 1547.78 Q1215.89 1550.48 1216.96 1551.05 Q1218.02 1551.59 1222.45 1551.59 L1222.45 1554.17 Q1221.43 1554.17 1219.29 1554.09 Q1217.16 1554.01 1215.61 1553.96 Q1214.05 1553.92 1213.15 1553.92 Q1212.16 1553.92 1203.84 1554.17 Z" fill="#000000" fill-rule="evenodd" fill-opacity="1" /><path clip-path="url(#clip460)" d="M1232.39 1549.66 Q1226.86 1544.17 1226.86 1536.22 Q1226.86 1528.22 1232.27 1522.4 Q1237.72 1516.54 1245.51 1516.54 Q1253.13 1516.54 1258.59 1522.36 Q1264.08 1528.14 1264.08 1536.22 Q1264.08 1544.13 1258.54 1549.62 Q1253.05 1555.11 1245.43 1555.11 Q1237.97 1555.11 1232.39 1549.66 M1233.83 1535.52 Q1233.83 1543.68 1235.96 1547.37 Q1239.24 1552.98 1245.51 1552.98 Q1248.63 1552.98 1251.21 1551.3 Q1253.83 1549.62 1255.27 1546.79 Q1257.11 1543.1 1257.11 1535.52 Q1257.11 1527.44 1254.9 1523.88 Q1251.62 1518.43 1245.43 1518.43 Q1242.72 1518.43 1240.06 1519.86 Q1237.43 1521.26 1235.84 1524.04 Q1233.83 1527.73 1233.83 1535.52 Z" fill="#000000" fill-rule="evenodd" fill-opacity="1" /><path clip-path="url(#clip460)" d="M1268.43 1560.81 Q1268.43 1558.1 1270.48 1555.77 Q1272.57 1553.43 1276.18 1552.41 Q1272.49 1550.07 1272.49 1544.95 Q1272.49 1541.01 1275.07 1537.98 Q1271.14 1534.7 1271.14 1529.33 Q1271.14 1524.37 1275.07 1520.72 Q1279.01 1517.07 1284.74 1517.07 Q1289.79 1517.07 1293.64 1520.11 Q1297.66 1516.17 1302.53 1516.13 Q1304.71 1516.13 1305.73 1517.48 Q1306.8 1518.84 1306.8 1520.27 Q1306.8 1521.54 1305.98 1522.16 Q1305.2 1522.77 1304.38 1522.77 Q1303.35 1522.77 1302.62 1522.12 Q1301.92 1521.42 1301.92 1520.35 Q1301.92 1518.59 1303.27 1518.06 Q1303.03 1517.98 1302.45 1517.98 Q1298.35 1517.98 1294.87 1521.26 Q1298.31 1524.45 1298.31 1529.41 Q1298.31 1534.37 1294.38 1538.02 Q1290.44 1541.67 1284.74 1541.67 Q1280.03 1541.67 1276.42 1539.04 Q1274.99 1540.73 1274.99 1543.02 Q1274.99 1545.11 1276.26 1546.75 Q1277.53 1548.39 1279.46 1548.64 Q1280.03 1548.72 1285.73 1548.72 Q1289.09 1548.72 1290.93 1548.8 Q1292.78 1548.88 1295.4 1549.46 Q1298.07 1549.99 1300.16 1551.05 Q1305.61 1554.09 1305.65 1560.65 Q1305.65 1565.44 1300.11 1568.43 Q1294.62 1571.47 1287 1571.47 Q1279.29 1571.47 1273.84 1568.39 Q1268.43 1565.36 1268.43 1560.81 M1272.82 1560.81 Q1272.82 1564.25 1276.87 1566.88 Q1280.93 1569.54 1287.08 1569.54 Q1293.11 1569.54 1297.16 1566.92 Q1301.26 1564.33 1301.26 1560.81 Q1301.26 1558.31 1299.83 1556.71 Q1298.39 1555.11 1295.44 1554.46 Q1292.53 1553.84 1290.48 1553.72 Q1288.43 1553.6 1284.66 1553.6 L1279.7 1553.6 Q1276.83 1553.76 1274.82 1555.85 Q1272.82 1557.94 1272.82 1560.81 M1277.41 1529.41 Q1277.41 1539.74 1284.74 1539.74 Q1288.43 1539.74 1290.69 1536.38 Q1292.04 1534.13 1292.04 1529.33 Q1292.04 1519 1284.74 1519 Q1281.05 1519 1278.76 1522.36 Q1277.41 1524.62 1277.41 1529.41 Z" fill="#000000" fill-rule="evenodd" fill-opacity="1" /><path clip-path="url(#clip460)" d="M1315.37 1577.43 Q1315.37 1576.37 1315.46 1576.05 Q1315.58 1575.73 1316.03 1575.25 L1327.31 1562.68 Q1333.48 1555.74 1333.48 1549.68 Q1333.48 1545.75 1331.41 1542.94 Q1329.38 1540.13 1325.62 1540.13 Q1323.04 1540.13 1320.85 1541.7 Q1318.67 1543.28 1317.67 1546.09 Q1317.84 1546.04 1318.44 1546.04 Q1319.91 1546.04 1320.71 1546.96 Q1321.54 1547.87 1321.54 1549.11 Q1321.54 1550.69 1320.51 1551.46 Q1319.51 1552.21 1318.5 1552.21 Q1318.1 1552.21 1317.56 1552.12 Q1317.04 1552.03 1316.21 1551.23 Q1315.37 1550.4 1315.37 1548.94 Q1315.37 1544.83 1318.47 1541.56 Q1321.6 1538.29 1326.36 1538.29 Q1331.76 1538.29 1335.29 1541.5 Q1338.84 1544.69 1338.84 1549.68 Q1338.84 1551.43 1338.3 1553.04 Q1337.78 1554.62 1337.07 1555.85 Q1336.38 1557.08 1334.48 1559.06 Q1332.59 1561.04 1331.07 1562.45 Q1329.55 1563.86 1326.13 1566.84 L1319.91 1572.89 L1330.5 1572.89 Q1335.66 1572.89 1336.06 1572.43 Q1336.64 1571.6 1337.35 1567.21 L1338.84 1567.21 L1337.18 1577.43 L1315.37 1577.43 Z" fill="#000000" fill-rule="evenodd" fill-opacity="1" /><path clip-path="url(#clip460)" d="M1418.24 1497.77 Q1418.24 1499.45 1416.81 1499.45 Q1412.18 1499.61 1410.29 1501.17 Q1408.45 1502.69 1407.75 1505.64 L1396.03 1552.41 Q1395.62 1553.88 1395.37 1554.05 Q1395.12 1554.17 1394.67 1554.17 Q1394.1 1554.17 1393.77 1553.88 Q1393.48 1553.6 1393.07 1552.57 L1372.17 1503.14 Q1372.01 1502.81 1371.8 1502.36 Q1371.6 1501.91 1371.43 1501.62 L1360.32 1545.93 Q1360 1547.2 1360 1547.86 Q1360 1549.46 1361.1 1550.48 Q1362.25 1551.46 1365.53 1551.59 Q1367.21 1551.59 1367.21 1552.49 Q1367.21 1554.17 1365.69 1554.17 Q1364.3 1554.17 1361.39 1554.05 Q1358.48 1553.92 1357.05 1553.92 Q1355.65 1553.92 1352.82 1554.05 Q1349.99 1554.17 1348.64 1554.17 Q1347.58 1554.17 1347.58 1553.23 Q1347.58 1552.49 1347.86 1552.12 Q1348.15 1551.71 1348.4 1551.67 Q1348.64 1551.59 1349.01 1551.59 Q1351.47 1551.51 1353.15 1551.01 Q1354.83 1550.52 1355.77 1549.58 Q1356.76 1548.64 1357.21 1547.69 Q1357.7 1546.71 1358.07 1545.27 L1369.3 1500.19 Q1369.3 1499.45 1363.6 1499.45 Q1362.62 1499.45 1362.21 1499.41 Q1361.84 1499.37 1361.55 1499.16 Q1361.27 1498.96 1361.27 1498.51 Q1361.27 1497.36 1361.76 1497.11 Q1362.25 1496.83 1363.69 1496.83 L1374.96 1496.83 Q1376.39 1496.83 1376.76 1497.07 Q1377.13 1497.28 1377.62 1498.42 L1396.19 1542.24 L1405.58 1504.9 Q1405.82 1504.16 1405.82 1503.14 Q1405.82 1501.5 1404.59 1500.51 Q1403.4 1499.49 1400.12 1499.45 Q1398.61 1499.45 1398.61 1498.51 Q1398.61 1497.73 1398.9 1497.36 Q1399.22 1496.95 1399.47 1496.91 Q1399.76 1496.83 1400.12 1496.83 Q1401.52 1496.83 1404.39 1496.95 Q1407.26 1497.07 1408.69 1497.07 Q1410.09 1497.07 1412.91 1496.95 Q1415.78 1496.83 1417.18 1496.83 Q1417.67 1496.83 1417.91 1497.07 Q1418.2 1497.28 1418.24 1497.52 L1418.24 1497.77 Z" fill="#000000" fill-rule="evenodd" fill-opacity="1" /><polyline clip-path="url(#clip460)" style="stroke:#000000; stroke-linecap:butt; stroke-linejoin:round; stroke-width:4; stroke-opacity:1; fill:none" points="
  265.402,1416.74 265.402,47.2441 
  "/>
<polyline clip-path="url(#clip460)" style="stroke:#000000; stroke-linecap:butt; stroke-linejoin:round; stroke-width:4; stroke-opacity:1; fill:none" points="
  265.402,1281.05 290.451,1281.05 
  "/>
<polyline clip-path="url(#clip460)" style="stroke:#000000; stroke-linecap:butt; stroke-linejoin:round; stroke-width:4; stroke-opacity:1; fill:none" points="
  265.402,934.102 290.451,934.102 
  "/>
<polyline clip-path="url(#clip460)" style="stroke:#000000; stroke-linecap:butt; stroke-linejoin:round; stroke-width:4; stroke-opacity:1; fill:none" points="
  265.402,587.154 290.451,587.154 
  "/>
<polyline clip-path="url(#clip460)" style="stroke:#000000; stroke-linecap:butt; stroke-linejoin:round; stroke-width:4; stroke-opacity:1; fill:none" points="
  265.402,240.206 290.451,240.206 
  "/>
<path clip-path="url(#clip460)" d="M124.056 1281.5 L153.732 1281.5 L153.732 1285.44 L124.056 1285.44 L124.056 1281.5 Z" fill="#000000" fill-rule="evenodd" fill-opacity="1" /><path clip-path="url(#clip460)" d="M173.824 1266.85 Q170.213 1266.85 168.384 1270.41 Q166.579 1273.95 166.579 1281.08 Q166.579 1288.19 168.384 1291.76 Q170.213 1295.3 173.824 1295.3 Q177.458 1295.3 179.264 1291.76 Q181.092 1288.19 181.092 1281.08 Q181.092 1273.95 179.264 1270.41 Q177.458 1266.85 173.824 1266.85 M173.824 1263.14 Q179.634 1263.14 182.69 1267.75 Q185.768 1272.33 185.768 1281.08 Q185.768 1289.81 182.69 1294.42 Q179.634 1299 173.824 1299 Q168.014 1299 164.935 1294.42 Q161.88 1289.81 161.88 1281.08 Q161.88 1272.33 164.935 1267.75 Q168.014 1263.14 173.824 1263.14 Z" fill="#000000" fill-rule="evenodd" fill-opacity="1" /><path clip-path="url(#clip460)" d="M193.986 1292.45 L198.87 1292.45 L198.87 1298.33 L193.986 1298.33 L193.986 1292.45 Z" fill="#000000" fill-rule="evenodd" fill-opacity="1" /><path clip-path="url(#clip460)" d="M213.083 1294.39 L229.402 1294.39 L229.402 1298.33 L207.458 1298.33 L207.458 1294.39 Q210.12 1291.64 214.703 1287.01 Q219.31 1282.36 220.49 1281.01 Q222.736 1278.49 223.615 1276.76 Q224.518 1275 224.518 1273.31 Q224.518 1270.55 222.574 1268.82 Q220.652 1267.08 217.551 1267.08 Q215.352 1267.08 212.898 1267.84 Q210.467 1268.61 207.69 1270.16 L207.69 1265.44 Q210.514 1264.3 212.967 1263.72 Q215.421 1263.14 217.458 1263.14 Q222.828 1263.14 226.023 1265.83 Q229.217 1268.51 229.217 1273.01 Q229.217 1275.14 228.407 1277.06 Q227.62 1278.95 225.514 1281.55 Q224.935 1282.22 221.833 1285.44 Q218.731 1288.63 213.083 1294.39 Z" fill="#000000" fill-rule="evenodd" fill-opacity="1" /><path clip-path="url(#clip460)" d="M123.685 934.553 L153.361 934.553 L153.361 938.488 L123.685 938.488 L123.685 934.553 Z" fill="#000000" fill-rule="evenodd" fill-opacity="1" /><path clip-path="url(#clip460)" d="M173.454 919.9 Q169.843 919.9 168.014 923.465 Q166.208 927.007 166.208 934.136 Q166.208 941.243 168.014 944.808 Q169.843 948.349 173.454 948.349 Q177.088 948.349 178.893 944.808 Q180.722 941.243 180.722 934.136 Q180.722 927.007 178.893 923.465 Q177.088 919.9 173.454 919.9 M173.454 916.197 Q179.264 916.197 182.319 920.803 Q185.398 925.386 185.398 934.136 Q185.398 942.863 182.319 947.47 Q179.264 952.053 173.454 952.053 Q167.643 952.053 164.565 947.47 Q161.509 942.863 161.509 934.136 Q161.509 925.386 164.565 920.803 Q167.643 916.197 173.454 916.197 Z" fill="#000000" fill-rule="evenodd" fill-opacity="1" /><path clip-path="url(#clip460)" d="M193.616 945.502 L198.5 945.502 L198.5 951.382 L193.616 951.382 L193.616 945.502 Z" fill="#000000" fill-rule="evenodd" fill-opacity="1" /><path clip-path="url(#clip460)" d="M209.495 947.446 L217.134 947.446 L217.134 921.081 L208.824 922.748 L208.824 918.488 L217.088 916.822 L221.764 916.822 L221.764 947.446 L229.402 947.446 L229.402 951.382 L209.495 951.382 L209.495 947.446 Z" fill="#000000" fill-rule="evenodd" fill-opacity="1" /><path clip-path="url(#clip460)" d="M172.227 572.952 Q168.616 572.952 166.787 576.517 Q164.981 580.059 164.981 587.188 Q164.981 594.295 166.787 597.86 Q168.616 601.401 172.227 601.401 Q175.861 601.401 177.667 597.86 Q179.495 594.295 179.495 587.188 Q179.495 580.059 177.667 576.517 Q175.861 572.952 172.227 572.952 M172.227 569.249 Q178.037 569.249 181.092 573.855 Q184.171 578.438 184.171 587.188 Q184.171 595.915 181.092 600.522 Q178.037 605.105 172.227 605.105 Q166.417 605.105 163.338 600.522 Q160.282 595.915 160.282 587.188 Q160.282 578.438 163.338 573.855 Q166.417 569.249 172.227 569.249 Z" fill="#000000" fill-rule="evenodd" fill-opacity="1" /><path clip-path="url(#clip460)" d="M192.389 598.554 L197.273 598.554 L197.273 604.434 L192.389 604.434 L192.389 598.554 Z" fill="#000000" fill-rule="evenodd" fill-opacity="1" /><path clip-path="url(#clip460)" d="M217.458 572.952 Q213.847 572.952 212.018 576.517 Q210.213 580.059 210.213 587.188 Q210.213 594.295 212.018 597.86 Q213.847 601.401 217.458 601.401 Q221.092 601.401 222.898 597.86 Q224.726 594.295 224.726 587.188 Q224.726 580.059 222.898 576.517 Q221.092 572.952 217.458 572.952 M217.458 569.249 Q223.268 569.249 226.324 573.855 Q229.402 578.438 229.402 587.188 Q229.402 595.915 226.324 600.522 Q223.268 605.105 217.458 605.105 Q211.648 605.105 208.569 600.522 Q205.514 595.915 205.514 587.188 Q205.514 578.438 208.569 573.855 Q211.648 569.249 217.458 569.249 Z" fill="#000000" fill-rule="evenodd" fill-opacity="1" /><path clip-path="url(#clip460)" d="M173.454 226.005 Q169.843 226.005 168.014 229.569 Q166.208 233.111 166.208 240.241 Q166.208 247.347 168.014 250.912 Q169.843 254.453 173.454 254.453 Q177.088 254.453 178.893 250.912 Q180.722 247.347 180.722 240.241 Q180.722 233.111 178.893 229.569 Q177.088 226.005 173.454 226.005 M173.454 222.301 Q179.264 222.301 182.319 226.907 Q185.398 231.491 185.398 240.241 Q185.398 248.967 182.319 253.574 Q179.264 258.157 173.454 258.157 Q167.643 258.157 164.565 253.574 Q161.509 248.967 161.509 240.241 Q161.509 231.491 164.565 226.907 Q167.643 222.301 173.454 222.301 Z" fill="#000000" fill-rule="evenodd" fill-opacity="1" /><path clip-path="url(#clip460)" d="M193.616 251.606 L198.5 251.606 L198.5 257.486 L193.616 257.486 L193.616 251.606 Z" fill="#000000" fill-rule="evenodd" fill-opacity="1" /><path clip-path="url(#clip460)" d="M209.495 253.551 L217.134 253.551 L217.134 227.185 L208.824 228.852 L208.824 224.592 L217.088 222.926 L221.764 222.926 L221.764 253.551 L229.402 253.551 L229.402 257.486 L209.495 257.486 L209.495 253.551 Z" fill="#000000" fill-rule="evenodd" fill-opacity="1" /><path clip-path="url(#clip460)" d="M68.6444 732.531 Q69.4232 732.531 69.8331 732.859 Q70.202 733.146 70.284 733.433 Q70.325 733.679 70.325 734.048 Q70.325 735.114 70.202 738.803 Q70.079 742.492 70.079 743.558 Q70.079 745.279 70.202 748.804 Q70.325 752.329 70.325 754.051 Q70.325 755.199 69.3822 755.199 Q68.7674 755.199 68.4395 755.076 Q68.0705 754.953 67.9476 754.625 Q67.7836 754.256 67.7836 754.051 Q67.7426 753.805 67.7426 753.19 Q67.7426 752.37 67.6607 751.509 Q67.5377 750.649 67.2918 749.583 Q67.0458 748.517 66.431 747.861 Q65.8161 747.165 64.9554 747.165 Q64.5865 747.165 61.5533 747.452 Q58.52 747.738 54.995 748.107 Q51.4289 748.476 50.937 748.517 L50.937 769.586 Q54.2572 771.512 56.5526 772.865 Q58.848 774.218 59.6268 774.709 Q60.4056 775.201 60.8974 775.488 Q61.3893 775.775 61.6762 775.939 Q63.8487 777.128 64.7914 777.128 Q67.4147 777.128 67.7426 773.193 Q67.7426 771.84 68.7264 771.84 Q69.4642 771.84 69.8741 772.168 Q70.243 772.496 70.284 772.783 Q70.325 773.029 70.325 773.439 Q70.325 774.791 70.202 777.62 Q70.079 780.448 70.079 781.842 Q70.079 783.03 70.202 785.49 Q70.325 787.949 70.325 789.056 Q70.325 789.548 70.038 789.834 Q69.7511 790.121 69.3822 790.121 Q68.8084 790.121 68.4804 790.039 Q68.1525 789.916 67.9886 789.589 Q67.8246 789.261 67.8246 789.097 Q67.7836 788.933 67.7426 788.359 Q67.5377 785.244 66.0621 782.825 Q64.5455 780.366 60.6515 778.03 L11.6283 748.845 Q11.1364 748.558 10.8905 748.353 Q10.6446 748.148 10.4396 747.738 Q10.2347 747.288 10.2347 746.632 Q10.2347 745.607 10.5626 745.402 Q10.8495 745.197 12.2432 745.074 L64.7094 739.951 Q65.8161 739.828 66.267 739.746 Q66.6769 739.623 67.1278 739.09 Q67.5377 738.516 67.6607 737.491 Q67.7426 736.425 67.7426 734.458 Q67.7426 733.72 67.7836 733.433 Q67.7836 733.146 67.9886 732.859 Q68.1935 732.531 68.6444 732.531 M48.3137 748.763 L20.646 751.428 L48.3137 767.987 L48.3137 748.763 Z" fill="#000000" fill-rule="evenodd" fill-opacity="1" /><path clip-path="url(#clip460)" d="M54.118 682.411 L69.0955 686.113 Q70.0424 686.371 70.1571 686.543 Q70.2719 686.686 70.2719 687.146 Q70.2719 688.035 69.6694 688.035 Q69.612 688.035 68.866 687.949 Q68.0913 687.863 66.6854 687.863 Q61.492 687.863 58.4219 690.388 Q55.3518 692.884 55.3518 697.331 Q55.3518 701.492 57.5324 705.48 Q59.7131 709.468 62.9266 712.022 Q65.5663 714.174 68.7799 715.666 Q71.9935 717.129 74.8053 717.732 Q77.5885 718.334 79.2814 718.564 Q80.9742 718.765 82.0645 718.765 Q85.2781 718.765 87.7743 717.732 Q90.2419 716.699 91.6478 714.977 Q93.0538 713.227 93.7424 711.219 Q94.431 709.181 94.431 706.972 Q94.431 706.14 94.3162 705.136 Q94.2015 704.131 93.7711 702.582 Q93.3407 701.004 92.6234 699.713 Q91.9061 698.393 90.5288 697.245 Q89.1516 696.069 87.3153 695.61 Q82.6384 694.376 81.9498 694.376 Q81.3759 694.376 81.1751 694.72 Q80.9742 695.065 80.8308 696.212 L80.716 699.311 Q80.716 699.369 80.716 699.455 Q80.716 700 80.716 700.229 Q80.6873 700.459 80.6299 700.717 Q80.5725 700.947 80.4577 701.033 Q80.3143 701.09 80.0847 701.09 Q79.5396 701.09 79.2814 700.861 Q78.9944 700.631 78.9657 700.43 Q78.9084 700.229 78.9084 699.856 L79.0805 691.622 Q79.0805 690.962 78.9944 688.551 Q78.9084 686.141 78.9084 685.453 Q78.9084 684.678 79.5396 684.678 Q80.716 684.678 80.716 685.625 Q80.7447 686.572 80.7734 687.059 Q80.7734 687.547 80.9168 688.035 Q81.0603 688.494 81.1751 688.666 Q81.2611 688.838 81.6915 689.068 Q82.0932 689.297 82.4375 689.384 Q82.7531 689.47 83.5565 689.67 Q84.073 689.785 85.0485 690.072 Q86.0241 690.33 86.5406 690.445 L91.074 691.564 Q94.431 692.339 94.6605 692.568 Q94.8901 692.683 94.8901 692.97 Q94.8901 693.4 93.6276 694.319 Q92.3651 695.208 91.2461 695.61 Q92.0208 696.327 92.4799 696.786 Q92.9103 697.245 93.5989 698.307 Q94.2875 699.34 94.8327 700.717 Q96.2386 704.074 96.2386 708.062 Q96.2386 715.178 91.7339 719.654 Q87.2005 724.13 80.1421 724.13 Q75.1496 724.13 70.2432 721.835 Q65.3368 719.539 61.6929 715.895 Q58.0489 712.251 55.7822 707.431 Q53.5155 702.611 53.5155 697.79 Q53.5155 695.954 54.0033 694.319 Q54.491 692.683 55.0936 691.708 Q55.6961 690.703 56.5856 689.814 Q57.4464 688.924 57.8481 688.638 Q58.2498 688.322 58.7375 688.035 L54.2328 683.932 Q53.5155 683.215 53.5155 683.042 Q53.5155 682.698 53.7163 682.555 Q53.9172 682.411 54.118 682.411 Z" fill="#000000" fill-rule="evenodd" fill-opacity="1" /><polyline clip-path="url(#clip463)" style="stroke:#000000; stroke-linecap:butt; stroke-linejoin:round; stroke-width:4; stroke-opacity:1; fill:none" points="
  324.478,1377.98 324.478,306.439 
  "/>
<polyline clip-path="url(#clip463)" style="stroke:#000000; stroke-linecap:butt; stroke-linejoin:round; stroke-width:4; stroke-opacity:1; fill:none" points="
  2293.68,245.974 2293.68,86.0033 
  "/>
<polyline clip-path="url(#clip463)" style="stroke:#000000; stroke-linecap:butt; stroke-linejoin:round; stroke-width:4; stroke-opacity:1; fill:none" points="
  1503.41,472.98 1503.41,144.357 
  "/>
<polyline clip-path="url(#clip463)" style="stroke:#000000; stroke-linecap:butt; stroke-linejoin:round; stroke-width:4; stroke-opacity:1; fill:none" points="
  715.626,935.815 715.626,258.045 
  "/>
<polyline clip-path="url(#clip463)" style="stroke:#000000; stroke-linecap:butt; stroke-linejoin:round; stroke-width:4; stroke-opacity:1; fill:none" points="
  1898.4,328.587 1898.4,99.5999 
  "/>
<polyline clip-path="url(#clip463)" style="stroke:#000000; stroke-linecap:butt; stroke-linejoin:round; stroke-width:4; stroke-opacity:1; fill:none" points="
  1108.96,660.79 1108.96,174.96 
  "/>
<line clip-path="url(#clip463)" x1="340.478" y1="1377.98" x2="308.478" y2="1377.98" style="stroke:#000000; stroke-width:3.2; stroke-opacity:1"/>
<line clip-path="url(#clip463)" x1="340.478" y1="306.439" x2="308.478" y2="306.439" style="stroke:#000000; stroke-width:3.2; stroke-opacity:1"/>
<line clip-path="url(#clip463)" x1="2309.68" y1="245.974" x2="2277.68" y2="245.974" style="stroke:#000000; stroke-width:3.2; stroke-opacity:1"/>
<line clip-path="url(#clip463)" x1="2309.68" y1="86.0033" x2="2277.68" y2="86.0033" style="stroke:#000000; stroke-width:3.2; stroke-opacity:1"/>
<line clip-path="url(#clip463)" x1="1519.41" y1="472.98" x2="1487.41" y2="472.98" style="stroke:#000000; stroke-width:3.2; stroke-opacity:1"/>
<line clip-path="url(#clip463)" x1="1519.41" y1="144.357" x2="1487.41" y2="144.357" style="stroke:#000000; stroke-width:3.2; stroke-opacity:1"/>
<line clip-path="url(#clip463)" x1="731.626" y1="935.815" x2="699.626" y2="935.815" style="stroke:#000000; stroke-width:3.2; stroke-opacity:1"/>
<line clip-path="url(#clip463)" x1="731.626" y1="258.045" x2="699.626" y2="258.045" style="stroke:#000000; stroke-width:3.2; stroke-opacity:1"/>
<line clip-path="url(#clip463)" x1="1914.4" y1="328.587" x2="1882.4" y2="328.587" style="stroke:#000000; stroke-width:3.2; stroke-opacity:1"/>
<line clip-path="url(#clip463)" x1="1914.4" y1="99.5999" x2="1882.4" y2="99.5999" style="stroke:#000000; stroke-width:3.2; stroke-opacity:1"/>
<line clip-path="url(#clip463)" x1="1124.96" y1="660.79" x2="1092.96" y2="660.79" style="stroke:#000000; stroke-width:3.2; stroke-opacity:1"/>
<line clip-path="url(#clip463)" x1="1124.96" y1="174.96" x2="1092.96" y2="174.96" style="stroke:#000000; stroke-width:3.2; stroke-opacity:1"/>
<line clip-path="url(#clip463)" x1="340.478" y1="842.208" x2="308.478" y2="842.208" style="stroke:#000000; stroke-width:3.2; stroke-opacity:1"/>
<line clip-path="url(#clip463)" x1="2309.68" y1="165.988" x2="2277.68" y2="165.988" style="stroke:#000000; stroke-width:3.2; stroke-opacity:1"/>
<line clip-path="url(#clip463)" x1="1519.41" y1="308.668" x2="1487.41" y2="308.668" style="stroke:#000000; stroke-width:3.2; stroke-opacity:1"/>
<line clip-path="url(#clip463)" x1="731.626" y1="596.93" x2="699.626" y2="596.93" style="stroke:#000000; stroke-width:3.2; stroke-opacity:1"/>
<line clip-path="url(#clip463)" x1="1914.4" y1="214.093" x2="1882.4" y2="214.093" style="stroke:#000000; stroke-width:3.2; stroke-opacity:1"/>
<line clip-path="url(#clip463)" x1="1124.96" y1="417.875" x2="1092.96" y2="417.875" style="stroke:#000000; stroke-width:3.2; stroke-opacity:1"/>
</svg>
