<?xml version="1.0" encoding="utf-8"?>
<svg xmlns="http://www.w3.org/2000/svg" xmlns:xlink="http://www.w3.org/1999/xlink" width="600" height="400" viewBox="0 0 2400 1600">
<defs>
  <clipPath id="clip370">
    <rect x="0" y="0" width="2400" height="1600"/>
  </clipPath>
</defs>
<path clip-path="url(#clip370)" d="
M0 1600 L2400 1600 L2400 0 L0 0  Z
  " fill="#000000" fill-rule="evenodd" fill-opacity="0"/>
<defs>
  <clipPath id="clip371">
    <rect x="480" y="0" width="1681" height="1600"/>
  </clipPath>
</defs>
<path clip-path="url(#clip370)" d="
M263.22 1416.74 L2352.76 1416.74 L2352.76 47.2441 L263.22 47.2441  Z
  " fill="#000000" fill-rule="evenodd" fill-opacity="0"/>
<defs>
  <clipPath id="clip372">
    <rect x="263" y="47" width="2091" height="1370"/>
  </clipPath>
</defs>
<polyline clip-path="url(#clip370)" style="stroke:#000000; stroke-linecap:butt; stroke-linejoin:round; stroke-width:4; stroke-opacity:1; fill:none" points="
  263.22,1416.74 2352.76,1416.74 
  "/>
<polyline clip-path="url(#clip370)" style="stroke:#000000; stroke-linecap:butt; stroke-linejoin:round; stroke-width:4; stroke-opacity:1; fill:none" points="
  412.492,1416.74 412.492,1400.3 
  "/>
<polyline clip-path="url(#clip370)" style="stroke:#000000; stroke-linecap:butt; stroke-linejoin:round; stroke-width:4; stroke-opacity:1; fill:none" points="
  907.452,1416.74 907.452,1400.3 
  "/>
<polyline clip-path="url(#clip370)" style="stroke:#000000; stroke-linecap:butt; stroke-linejoin:round; stroke-width:4; stroke-opacity:1; fill:none" points="
  1402.41,1416.74 1402.41,1400.3 
  "/>
<polyline clip-path="url(#clip370)" style="stroke:#000000; stroke-linecap:butt; stroke-linejoin:round; stroke-width:4; stroke-opacity:1; fill:none" points="
  1897.37,1416.74 1897.37,1400.3 
  "/>
<path clip-path="url(#clip370)" d="M365.062 1473.47 L372.701 1473.47 L372.701 1447.11 L364.391 1448.77 L364.391 1444.52 L372.655 1442.85 L377.331 1442.85 L377.331 1473.47 L384.969 1473.47 L384.969 1477.41 L365.062 1477.41 L365.062 1473.47 Z" fill="#000000" fill-rule="evenodd" fill-opacity="1" /><path clip-path="url(#clip370)" d="M398.442 1473.47 L414.761 1473.47 L414.761 1477.41 L392.817 1477.41 L392.817 1473.47 Q395.479 1470.72 400.062 1466.09 Q404.668 1461.44 405.849 1460.09 Q408.094 1457.57 408.974 1455.83 Q409.877 1454.08 409.877 1452.39 Q409.877 1449.63 407.932 1447.89 Q406.011 1446.16 402.909 1446.16 Q400.71 1446.16 398.256 1446.92 Q395.826 1447.69 393.048 1449.24 L393.048 1444.52 Q395.872 1443.38 398.326 1442.8 Q400.779 1442.22 402.816 1442.22 Q408.187 1442.22 411.381 1444.91 Q414.576 1447.59 414.576 1452.08 Q414.576 1454.21 413.765 1456.14 Q412.978 1458.03 410.872 1460.63 Q410.293 1461.3 407.191 1464.52 Q404.09 1467.71 398.442 1473.47 Z" fill="#000000" fill-rule="evenodd" fill-opacity="1" /><path clip-path="url(#clip370)" d="M424.576 1471.53 L429.46 1471.53 L429.46 1477.41 L424.576 1477.41 L424.576 1471.53 Z" fill="#000000" fill-rule="evenodd" fill-opacity="1" /><path clip-path="url(#clip370)" d="M439.691 1442.85 L458.048 1442.85 L458.048 1446.78 L443.974 1446.78 L443.974 1455.26 Q444.992 1454.91 446.011 1454.75 Q447.029 1454.56 448.048 1454.56 Q453.835 1454.56 457.214 1457.73 Q460.594 1460.9 460.594 1466.32 Q460.594 1471.9 457.122 1475 Q453.65 1478.08 447.33 1478.08 Q445.154 1478.08 442.886 1477.71 Q440.64 1477.34 438.233 1476.6 L438.233 1471.9 Q440.316 1473.03 442.538 1473.59 Q444.761 1474.14 447.238 1474.14 Q451.242 1474.14 453.58 1472.04 Q455.918 1469.93 455.918 1466.32 Q455.918 1462.71 453.58 1460.6 Q451.242 1458.5 447.238 1458.5 Q445.363 1458.5 443.488 1458.91 Q441.636 1459.33 439.691 1460.21 L439.691 1442.85 Z" fill="#000000" fill-rule="evenodd" fill-opacity="1" /><path clip-path="url(#clip370)" d="M859.524 1473.47 L867.163 1473.47 L867.163 1447.11 L858.853 1448.77 L858.853 1444.52 L867.117 1442.85 L871.793 1442.85 L871.793 1473.47 L879.431 1473.47 L879.431 1477.41 L859.524 1477.41 L859.524 1473.47 Z" fill="#000000" fill-rule="evenodd" fill-opacity="1" /><path clip-path="url(#clip370)" d="M888.922 1442.85 L907.278 1442.85 L907.278 1446.78 L893.204 1446.78 L893.204 1455.26 Q894.223 1454.91 895.241 1454.75 Q896.26 1454.56 897.278 1454.56 Q903.066 1454.56 906.445 1457.73 Q909.825 1460.9 909.825 1466.32 Q909.825 1471.9 906.353 1475 Q902.88 1478.08 896.561 1478.08 Q894.385 1478.08 892.116 1477.71 Q889.871 1477.34 887.464 1476.6 L887.464 1471.9 Q889.547 1473.03 891.769 1473.59 Q893.991 1474.14 896.468 1474.14 Q900.473 1474.14 902.811 1472.04 Q905.149 1469.93 905.149 1466.32 Q905.149 1462.71 902.811 1460.6 Q900.473 1458.5 896.468 1458.5 Q894.593 1458.5 892.718 1458.91 Q890.866 1459.33 888.922 1460.21 L888.922 1442.85 Z" fill="#000000" fill-rule="evenodd" fill-opacity="1" /><path clip-path="url(#clip370)" d="M919.038 1471.53 L923.922 1471.53 L923.922 1477.41 L919.038 1477.41 L919.038 1471.53 Z" fill="#000000" fill-rule="evenodd" fill-opacity="1" /><path clip-path="url(#clip370)" d="M944.107 1445.93 Q940.496 1445.93 938.667 1449.49 Q936.862 1453.03 936.862 1460.16 Q936.862 1467.27 938.667 1470.83 Q940.496 1474.38 944.107 1474.38 Q947.741 1474.38 949.547 1470.83 Q951.375 1467.27 951.375 1460.16 Q951.375 1453.03 949.547 1449.49 Q947.741 1445.93 944.107 1445.93 M944.107 1442.22 Q949.917 1442.22 952.973 1446.83 Q956.051 1451.41 956.051 1460.16 Q956.051 1468.89 952.973 1473.5 Q949.917 1478.08 944.107 1478.08 Q938.297 1478.08 935.218 1473.5 Q932.163 1468.89 932.163 1460.16 Q932.163 1451.41 935.218 1446.83 Q938.297 1442.22 944.107 1442.22 Z" fill="#000000" fill-rule="evenodd" fill-opacity="1" /><path clip-path="url(#clip370)" d="M1354.98 1473.47 L1362.62 1473.47 L1362.62 1447.11 L1354.31 1448.77 L1354.31 1444.52 L1362.57 1442.85 L1367.25 1442.85 L1367.25 1473.47 L1374.89 1473.47 L1374.89 1477.41 L1354.98 1477.41 L1354.98 1473.47 Z" fill="#000000" fill-rule="evenodd" fill-opacity="1" /><path clip-path="url(#clip370)" d="M1383.15 1442.85 L1405.37 1442.85 L1405.37 1444.84 L1392.83 1477.41 L1387.94 1477.41 L1399.75 1446.78 L1383.15 1446.78 L1383.15 1442.85 Z" fill="#000000" fill-rule="evenodd" fill-opacity="1" /><path clip-path="url(#clip370)" d="M1414.5 1471.53 L1419.38 1471.53 L1419.38 1477.41 L1414.5 1477.41 L1414.5 1471.53 Z" fill="#000000" fill-rule="evenodd" fill-opacity="1" /><path clip-path="url(#clip370)" d="M1429.61 1442.85 L1447.97 1442.85 L1447.97 1446.78 L1433.89 1446.78 L1433.89 1455.26 Q1434.91 1454.91 1435.93 1454.75 Q1436.95 1454.56 1437.97 1454.56 Q1443.75 1454.56 1447.13 1457.73 Q1450.51 1460.9 1450.51 1466.32 Q1450.51 1471.9 1447.04 1475 Q1443.57 1478.08 1437.25 1478.08 Q1435.07 1478.08 1432.81 1477.71 Q1430.56 1477.34 1428.15 1476.6 L1428.15 1471.9 Q1430.24 1473.03 1432.46 1473.59 Q1434.68 1474.14 1437.16 1474.14 Q1441.16 1474.14 1443.5 1472.04 Q1445.84 1469.93 1445.84 1466.32 Q1445.84 1462.71 1443.5 1460.6 Q1441.16 1458.5 1437.16 1458.5 Q1435.28 1458.5 1433.41 1458.91 Q1431.56 1459.33 1429.61 1460.21 L1429.61 1442.85 Z" fill="#000000" fill-rule="evenodd" fill-opacity="1" /><path clip-path="url(#clip370)" d="M1853.53 1473.47 L1869.85 1473.47 L1869.85 1477.41 L1847.9 1477.41 L1847.9 1473.47 Q1850.57 1470.72 1855.15 1466.09 Q1859.76 1461.44 1860.94 1460.09 Q1863.18 1457.57 1864.06 1455.83 Q1864.96 1454.08 1864.96 1452.39 Q1864.96 1449.63 1863.02 1447.89 Q1861.1 1446.16 1858 1446.16 Q1855.8 1446.16 1853.34 1446.92 Q1850.91 1447.69 1848.14 1449.24 L1848.14 1444.52 Q1850.96 1443.38 1853.41 1442.8 Q1855.87 1442.22 1857.9 1442.22 Q1863.27 1442.22 1866.47 1444.91 Q1869.66 1447.59 1869.66 1452.08 Q1869.66 1454.21 1868.85 1456.14 Q1868.07 1458.03 1865.96 1460.63 Q1865.38 1461.3 1862.28 1464.52 Q1859.18 1467.71 1853.53 1473.47 Z" fill="#000000" fill-rule="evenodd" fill-opacity="1" /><path clip-path="url(#clip370)" d="M1889.66 1445.93 Q1886.05 1445.93 1884.22 1449.49 Q1882.42 1453.03 1882.42 1460.16 Q1882.42 1467.27 1884.22 1470.83 Q1886.05 1474.38 1889.66 1474.38 Q1893.3 1474.38 1895.1 1470.83 Q1896.93 1467.27 1896.93 1460.16 Q1896.93 1453.03 1895.1 1449.49 Q1893.3 1445.93 1889.66 1445.93 M1889.66 1442.22 Q1895.47 1442.22 1898.53 1446.83 Q1901.61 1451.41 1901.61 1460.16 Q1901.61 1468.89 1898.53 1473.5 Q1895.47 1478.08 1889.66 1478.08 Q1883.85 1478.08 1880.77 1473.5 Q1877.72 1468.89 1877.72 1460.16 Q1877.72 1451.41 1880.77 1446.83 Q1883.85 1442.22 1889.66 1442.22 Z" fill="#000000" fill-rule="evenodd" fill-opacity="1" /><path clip-path="url(#clip370)" d="M1909.83 1471.53 L1914.71 1471.53 L1914.71 1477.41 L1909.83 1477.41 L1909.83 1471.53 Z" fill="#000000" fill-rule="evenodd" fill-opacity="1" /><path clip-path="url(#clip370)" d="M1934.89 1445.93 Q1931.28 1445.93 1929.45 1449.49 Q1927.65 1453.03 1927.65 1460.16 Q1927.65 1467.27 1929.45 1470.83 Q1931.28 1474.38 1934.89 1474.38 Q1938.53 1474.38 1940.33 1470.83 Q1942.16 1467.27 1942.16 1460.16 Q1942.16 1453.03 1940.33 1449.49 Q1938.53 1445.93 1934.89 1445.93 M1934.89 1442.22 Q1940.7 1442.22 1943.76 1446.83 Q1946.84 1451.41 1946.84 1460.16 Q1946.84 1468.89 1943.76 1473.5 Q1940.7 1478.08 1934.89 1478.08 Q1929.08 1478.08 1926.01 1473.5 Q1922.95 1468.89 1922.95 1460.16 Q1922.95 1451.41 1926.01 1446.83 Q1929.08 1442.22 1934.89 1442.22 Z" fill="#000000" fill-rule="evenodd" fill-opacity="1" /><path clip-path="url(#clip370)" d="M1202.75 1554.17 L1202.75 1551.59 Q1207.22 1551.59 1208.24 1551.05 Q1209.27 1550.48 1209.27 1547.78 L1209.27 1504.12 Q1209.27 1501.01 1208.16 1500.23 Q1207.1 1499.45 1202.75 1499.45 L1202.75 1496.83 L1214.8 1495.92 L1214.8 1547.78 Q1214.8 1550.48 1215.87 1551.05 Q1216.93 1551.59 1221.36 1551.59 L1221.36 1554.17 Q1220.33 1554.17 1218.2 1554.09 Q1216.07 1554.01 1214.51 1553.96 Q1212.96 1553.92 1212.05 1553.92 Q1211.07 1553.92 1202.75 1554.17 Z" fill="#000000" fill-rule="evenodd" fill-opacity="1" /><path clip-path="url(#clip370)" d="M1231.3 1549.66 Q1225.77 1544.17 1225.77 1536.22 Q1225.77 1528.22 1231.18 1522.4 Q1236.63 1516.54 1244.42 1516.54 Q1252.04 1516.54 1257.49 1522.36 Q1262.99 1528.14 1262.99 1536.22 Q1262.99 1544.13 1257.45 1549.62 Q1251.96 1555.11 1244.34 1555.11 Q1236.88 1555.11 1231.3 1549.66 M1232.74 1535.52 Q1232.74 1543.68 1234.87 1547.37 Q1238.15 1552.98 1244.42 1552.98 Q1247.53 1552.98 1250.12 1551.3 Q1252.74 1549.62 1254.17 1546.79 Q1256.02 1543.1 1256.02 1535.52 Q1256.02 1527.44 1253.8 1523.88 Q1250.53 1518.43 1244.34 1518.43 Q1241.63 1518.43 1238.97 1519.86 Q1236.34 1521.26 1234.74 1524.04 Q1232.74 1527.73 1232.74 1535.52 Z" fill="#000000" fill-rule="evenodd" fill-opacity="1" /><path clip-path="url(#clip370)" d="M1267.34 1560.81 Q1267.34 1558.1 1269.39 1555.77 Q1271.48 1553.43 1275.09 1552.41 Q1271.4 1550.07 1271.4 1544.95 Q1271.4 1541.01 1273.98 1537.98 Q1270.04 1534.7 1270.04 1529.33 Q1270.04 1524.37 1273.98 1520.72 Q1277.91 1517.07 1283.65 1517.07 Q1288.69 1517.07 1292.55 1520.11 Q1296.56 1516.17 1301.44 1516.13 Q1303.61 1516.13 1304.64 1517.48 Q1305.7 1518.84 1305.7 1520.27 Q1305.7 1521.54 1304.88 1522.16 Q1304.11 1522.77 1303.29 1522.77 Q1302.26 1522.77 1301.52 1522.12 Q1300.83 1521.42 1300.83 1520.35 Q1300.83 1518.59 1302.18 1518.06 Q1301.93 1517.98 1301.36 1517.98 Q1297.26 1517.98 1293.78 1521.26 Q1297.22 1524.45 1297.22 1529.41 Q1297.22 1534.37 1293.28 1538.02 Q1289.35 1541.67 1283.65 1541.67 Q1278.94 1541.67 1275.33 1539.04 Q1273.9 1540.73 1273.9 1543.02 Q1273.9 1545.11 1275.17 1546.75 Q1276.44 1548.39 1278.36 1548.64 Q1278.94 1548.72 1284.64 1548.72 Q1288 1548.72 1289.84 1548.8 Q1291.69 1548.88 1294.31 1549.46 Q1296.97 1549.99 1299.06 1551.05 Q1304.52 1554.09 1304.56 1560.65 Q1304.56 1565.44 1299.02 1568.43 Q1293.53 1571.47 1285.91 1571.47 Q1278.2 1571.47 1272.75 1568.39 Q1267.34 1565.36 1267.34 1560.81 M1271.72 1560.81 Q1271.72 1564.25 1275.78 1566.88 Q1279.84 1569.54 1285.99 1569.54 Q1292.01 1569.54 1296.07 1566.92 Q1300.17 1564.33 1300.17 1560.81 Q1300.17 1558.31 1298.74 1556.71 Q1297.3 1555.11 1294.35 1554.46 Q1291.44 1553.84 1289.39 1553.72 Q1287.34 1553.6 1283.57 1553.6 L1278.61 1553.6 Q1275.74 1553.76 1273.73 1555.85 Q1271.72 1557.94 1271.72 1560.81 M1276.32 1529.41 Q1276.32 1539.74 1283.65 1539.74 Q1287.34 1539.74 1289.6 1536.38 Q1290.95 1534.13 1290.95 1529.33 Q1290.95 1519 1283.65 1519 Q1279.96 1519 1277.67 1522.36 Q1276.32 1524.62 1276.32 1529.41 Z" fill="#000000" fill-rule="evenodd" fill-opacity="1" /><path clip-path="url(#clip370)" d="M1314.28 1577.43 Q1314.28 1576.37 1314.37 1576.05 Q1314.48 1575.73 1314.94 1575.25 L1326.22 1562.68 Q1332.39 1555.74 1332.39 1549.68 Q1332.39 1545.75 1330.32 1542.94 Q1328.28 1540.13 1324.53 1540.13 Q1321.94 1540.13 1319.76 1541.7 Q1317.58 1543.28 1316.58 1546.09 Q1316.75 1546.04 1317.35 1546.04 Q1318.82 1546.04 1319.62 1546.96 Q1320.45 1547.87 1320.45 1549.11 Q1320.45 1550.69 1319.42 1551.46 Q1318.41 1552.21 1317.41 1552.21 Q1317.01 1552.21 1316.46 1552.12 Q1315.95 1552.03 1315.12 1551.23 Q1314.28 1550.4 1314.28 1548.94 Q1314.28 1544.83 1317.38 1541.56 Q1320.51 1538.29 1325.27 1538.29 Q1330.67 1538.29 1334.2 1541.5 Q1337.75 1544.69 1337.75 1549.68 Q1337.75 1551.43 1337.21 1553.04 Q1336.69 1554.62 1335.97 1555.85 Q1335.29 1557.08 1333.39 1559.06 Q1331.5 1561.04 1329.98 1562.45 Q1328.46 1563.86 1325.04 1566.84 L1318.82 1572.89 L1329.4 1572.89 Q1334.57 1572.89 1334.97 1572.43 Q1335.54 1571.6 1336.26 1567.21 L1337.75 1567.21 L1336.09 1577.43 L1314.28 1577.43 Z" fill="#000000" fill-rule="evenodd" fill-opacity="1" /><path clip-path="url(#clip370)" d="M1417.15 1497.77 Q1417.15 1499.45 1415.72 1499.45 Q1411.08 1499.61 1409.2 1501.17 Q1407.35 1502.69 1406.66 1505.64 L1394.93 1552.41 Q1394.52 1553.88 1394.28 1554.05 Q1394.03 1554.17 1393.58 1554.17 Q1393.01 1554.17 1392.68 1553.88 Q1392.39 1553.6 1391.98 1552.57 L1371.08 1503.14 Q1370.91 1502.81 1370.71 1502.36 Q1370.5 1501.91 1370.34 1501.62 L1359.23 1545.93 Q1358.9 1547.2 1358.9 1547.86 Q1358.9 1549.46 1360.01 1550.48 Q1361.16 1551.46 1364.44 1551.59 Q1366.12 1551.59 1366.12 1552.49 Q1366.12 1554.17 1364.6 1554.17 Q1363.21 1554.17 1360.3 1554.05 Q1357.39 1553.92 1355.95 1553.92 Q1354.56 1553.92 1351.73 1554.05 Q1348.9 1554.17 1347.55 1554.17 Q1346.49 1554.17 1346.49 1553.23 Q1346.49 1552.49 1346.77 1552.12 Q1347.06 1551.71 1347.3 1551.67 Q1347.55 1551.59 1347.92 1551.59 Q1350.38 1551.51 1352.06 1551.01 Q1353.74 1550.52 1354.68 1549.58 Q1355.67 1548.64 1356.12 1547.69 Q1356.61 1546.71 1356.98 1545.27 L1368.21 1500.19 Q1368.21 1499.45 1362.51 1499.45 Q1361.53 1499.45 1361.12 1499.41 Q1360.75 1499.37 1360.46 1499.16 Q1360.18 1498.96 1360.18 1498.51 Q1360.18 1497.36 1360.67 1497.11 Q1361.16 1496.83 1362.59 1496.83 L1373.87 1496.83 Q1375.3 1496.83 1375.67 1497.07 Q1376.04 1497.28 1376.53 1498.42 L1395.1 1542.24 L1404.49 1504.9 Q1404.73 1504.16 1404.73 1503.14 Q1404.73 1501.5 1403.5 1500.51 Q1402.31 1499.49 1399.03 1499.45 Q1397.52 1499.45 1397.52 1498.51 Q1397.52 1497.73 1397.8 1497.36 Q1398.13 1496.95 1398.38 1496.91 Q1398.66 1496.83 1399.03 1496.83 Q1400.43 1496.83 1403.3 1496.95 Q1406.17 1497.07 1407.6 1497.07 Q1408.99 1497.07 1411.82 1496.95 Q1414.69 1496.83 1416.08 1496.83 Q1416.58 1496.83 1416.82 1497.07 Q1417.11 1497.28 1417.15 1497.52 L1417.15 1497.77 Z" fill="#000000" fill-rule="evenodd" fill-opacity="1" /><polyline clip-path="url(#clip370)" style="stroke:#000000; stroke-linecap:butt; stroke-linejoin:round; stroke-width:4; stroke-opacity:1; fill:none" points="
  263.22,1416.74 263.22,47.2441 
  "/>
<polyline clip-path="url(#clip370)" style="stroke:#000000; stroke-linecap:butt; stroke-linejoin:round; stroke-width:4; stroke-opacity:1; fill:none" points="
  263.22,1174.4 288.294,1174.4 
  "/>
<polyline clip-path="url(#clip370)" style="stroke:#000000; stroke-linecap:butt; stroke-linejoin:round; stroke-width:4; stroke-opacity:1; fill:none" points="
  263.22,849.944 288.294,849.944 
  "/>
<polyline clip-path="url(#clip370)" style="stroke:#000000; stroke-linecap:butt; stroke-linejoin:round; stroke-width:4; stroke-opacity:1; fill:none" points="
  263.22,525.486 288.294,525.486 
  "/>
<polyline clip-path="url(#clip370)" style="stroke:#000000; stroke-linecap:butt; stroke-linejoin:round; stroke-width:4; stroke-opacity:1; fill:none" points="
  263.22,201.029 288.294,201.029 
  "/>
<path clip-path="url(#clip370)" d="M121.873 1174.85 L151.549 1174.85 L151.549 1178.79 L121.873 1178.79 L121.873 1174.85 Z" fill="#000000" fill-rule="evenodd" fill-opacity="1" /><path clip-path="url(#clip370)" d="M171.641 1160.2 Q168.03 1160.2 166.201 1163.77 Q164.396 1167.31 164.396 1174.44 Q164.396 1181.54 166.201 1185.11 Q168.03 1188.65 171.641 1188.65 Q175.275 1188.65 177.081 1185.11 Q178.91 1181.54 178.91 1174.44 Q178.91 1167.31 177.081 1163.77 Q175.275 1160.2 171.641 1160.2 M171.641 1156.5 Q177.451 1156.5 180.507 1161.1 Q183.585 1165.69 183.585 1174.44 Q183.585 1183.16 180.507 1187.77 Q177.451 1192.35 171.641 1192.35 Q165.831 1192.35 162.752 1187.77 Q159.697 1183.16 159.697 1174.44 Q159.697 1165.69 162.752 1161.1 Q165.831 1156.5 171.641 1156.5 Z" fill="#000000" fill-rule="evenodd" fill-opacity="1" /><path clip-path="url(#clip370)" d="M191.803 1185.8 L196.687 1185.8 L196.687 1191.68 L191.803 1191.68 L191.803 1185.8 Z" fill="#000000" fill-rule="evenodd" fill-opacity="1" /><path clip-path="url(#clip370)" d="M210.9 1187.75 L227.22 1187.75 L227.22 1191.68 L205.275 1191.68 L205.275 1187.75 Q207.937 1184.99 212.521 1180.36 Q217.127 1175.71 218.308 1174.37 Q220.553 1171.84 221.433 1170.11 Q222.335 1168.35 222.335 1166.66 Q222.335 1163.9 220.391 1162.17 Q218.47 1160.43 215.368 1160.43 Q213.169 1160.43 210.715 1161.2 Q208.284 1161.96 205.507 1163.51 L205.507 1158.79 Q208.331 1157.65 210.784 1157.08 Q213.238 1156.5 215.275 1156.5 Q220.645 1156.5 223.84 1159.18 Q227.034 1161.87 227.034 1166.36 Q227.034 1168.49 226.224 1170.41 Q225.437 1172.31 223.331 1174.9 Q222.752 1175.57 219.65 1178.79 Q216.548 1181.98 210.9 1187.75 Z" fill="#000000" fill-rule="evenodd" fill-opacity="1" /><path clip-path="url(#clip370)" d="M170.044 835.743 Q166.433 835.743 164.604 839.308 Q162.799 842.849 162.799 849.979 Q162.799 857.085 164.604 860.65 Q166.433 864.192 170.044 864.192 Q173.678 864.192 175.484 860.65 Q177.312 857.085 177.312 849.979 Q177.312 842.849 175.484 839.308 Q173.678 835.743 170.044 835.743 M170.044 832.039 Q175.854 832.039 178.91 836.646 Q181.988 841.229 181.988 849.979 Q181.988 858.706 178.91 863.312 Q175.854 867.895 170.044 867.895 Q164.234 867.895 161.155 863.312 Q158.1 858.706 158.1 849.979 Q158.1 841.229 161.155 836.646 Q164.234 832.039 170.044 832.039 Z" fill="#000000" fill-rule="evenodd" fill-opacity="1" /><path clip-path="url(#clip370)" d="M190.206 861.344 L195.09 861.344 L195.09 867.224 L190.206 867.224 L190.206 861.344 Z" fill="#000000" fill-rule="evenodd" fill-opacity="1" /><path clip-path="url(#clip370)" d="M215.275 835.743 Q211.664 835.743 209.835 839.308 Q208.03 842.849 208.03 849.979 Q208.03 857.085 209.835 860.65 Q211.664 864.192 215.275 864.192 Q218.909 864.192 220.715 860.65 Q222.544 857.085 222.544 849.979 Q222.544 842.849 220.715 839.308 Q218.909 835.743 215.275 835.743 M215.275 832.039 Q221.085 832.039 224.141 836.646 Q227.22 841.229 227.22 849.979 Q227.22 858.706 224.141 863.312 Q221.085 867.895 215.275 867.895 Q209.465 867.895 206.386 863.312 Q203.331 858.706 203.331 849.979 Q203.331 841.229 206.386 836.646 Q209.465 832.039 215.275 832.039 Z" fill="#000000" fill-rule="evenodd" fill-opacity="1" /><path clip-path="url(#clip370)" d="M171.641 511.285 Q168.03 511.285 166.201 514.85 Q164.396 518.392 164.396 525.521 Q164.396 532.628 166.201 536.192 Q168.03 539.734 171.641 539.734 Q175.275 539.734 177.081 536.192 Q178.91 532.628 178.91 525.521 Q178.91 518.392 177.081 514.85 Q175.275 511.285 171.641 511.285 M171.641 507.581 Q177.451 507.581 180.507 512.188 Q183.585 516.771 183.585 525.521 Q183.585 534.248 180.507 538.854 Q177.451 543.438 171.641 543.438 Q165.831 543.438 162.752 538.854 Q159.697 534.248 159.697 525.521 Q159.697 516.771 162.752 512.188 Q165.831 507.581 171.641 507.581 Z" fill="#000000" fill-rule="evenodd" fill-opacity="1" /><path clip-path="url(#clip370)" d="M191.803 536.887 L196.687 536.887 L196.687 542.766 L191.803 542.766 L191.803 536.887 Z" fill="#000000" fill-rule="evenodd" fill-opacity="1" /><path clip-path="url(#clip370)" d="M210.9 538.831 L227.22 538.831 L227.22 542.766 L205.275 542.766 L205.275 538.831 Q207.937 536.077 212.521 531.447 Q217.127 526.794 218.308 525.452 Q220.553 522.929 221.433 521.193 Q222.335 519.433 222.335 517.743 Q222.335 514.989 220.391 513.253 Q218.47 511.517 215.368 511.517 Q213.169 511.517 210.715 512.281 Q208.284 513.044 205.507 514.595 L205.507 509.873 Q208.331 508.739 210.784 508.16 Q213.238 507.581 215.275 507.581 Q220.645 507.581 223.84 510.267 Q227.034 512.952 227.034 517.443 Q227.034 519.572 226.224 521.493 Q225.437 523.392 223.331 525.984 Q222.752 526.655 219.65 529.873 Q216.548 533.067 210.9 538.831 Z" fill="#000000" fill-rule="evenodd" fill-opacity="1" /><path clip-path="url(#clip370)" d="M169.558 186.828 Q165.947 186.828 164.118 190.392 Q162.312 193.934 162.312 201.064 Q162.312 208.17 164.118 211.735 Q165.947 215.276 169.558 215.276 Q173.192 215.276 174.998 211.735 Q176.826 208.17 176.826 201.064 Q176.826 193.934 174.998 190.392 Q173.192 186.828 169.558 186.828 M169.558 183.124 Q175.368 183.124 178.423 187.73 Q181.502 192.314 181.502 201.064 Q181.502 209.79 178.423 214.397 Q175.368 218.98 169.558 218.98 Q163.748 218.98 160.669 214.397 Q157.613 209.79 157.613 201.064 Q157.613 192.314 160.669 187.73 Q163.748 183.124 169.558 183.124 Z" fill="#000000" fill-rule="evenodd" fill-opacity="1" /><path clip-path="url(#clip370)" d="M189.72 212.429 L194.604 212.429 L194.604 218.309 L189.72 218.309 L189.72 212.429 Z" fill="#000000" fill-rule="evenodd" fill-opacity="1" /><path clip-path="url(#clip370)" d="M217.636 187.823 L205.831 206.272 L217.636 206.272 L217.636 187.823 M216.409 183.749 L222.289 183.749 L222.289 206.272 L227.22 206.272 L227.22 210.161 L222.289 210.161 L222.289 218.309 L217.636 218.309 L217.636 210.161 L202.034 210.161 L202.034 205.647 L216.409 183.749 Z" fill="#000000" fill-rule="evenodd" fill-opacity="1" /><path clip-path="url(#clip370)" d="M11.8393 725.932 Q13.028 725.932 13.274 726.465 Q13.5199 726.957 13.5199 728.761 Q13.5199 731.835 13.9298 733.229 Q14.2987 734.581 14.9545 734.991 Q15.5694 735.36 17.3729 735.811 L62.707 747.165 Q62.748 747.165 63.3219 747.288 Q63.8547 747.411 64.1417 747.411 Q64.6745 747.411 65.0024 747.083 Q65.3303 746.714 65.4943 745.812 Q65.6173 744.91 65.6583 744.214 Q65.6583 743.476 65.6583 741.959 Q65.6583 740.074 65.9862 739.787 Q66.1911 739.623 66.56 739.623 Q67.3388 739.623 67.7487 739.951 Q68.1176 740.238 68.1996 740.525 Q68.2406 740.771 68.2406 741.262 Q68.2406 742.123 68.1586 743.968 Q68.0766 745.812 68.0766 746.755 L67.9946 752.125 L68.2406 762.782 Q68.2406 763.93 67.2978 763.93 Q66.478 763.93 66.1091 763.643 Q65.7402 763.356 65.6992 763.069 Q65.6583 762.741 65.6583 761.921 Q65.6583 757.699 65.2484 756.305 Q64.7975 754.871 62.871 754.297 L39.712 748.518 L39.712 774.095 L62.707 779.833 Q62.748 779.833 63.3219 779.956 Q63.8547 780.079 64.1417 780.079 Q64.6745 780.079 65.0024 779.751 Q65.3303 779.382 65.4943 778.481 Q65.6173 777.579 65.6583 776.882 Q65.6583 776.144 65.6583 774.628 Q65.6583 772.742 65.9862 772.414 Q66.1911 772.25 66.56 772.25 Q67.1339 772.25 67.5438 772.414 Q67.9127 772.537 68.0356 772.865 Q68.1586 773.152 68.1996 773.357 Q68.2406 773.562 68.2406 773.931 Q68.2406 774.792 68.1586 776.636 Q68.0766 778.44 68.0766 779.382 L67.9946 784.752 L68.2406 795.409 Q68.2406 796.598 67.2978 796.598 Q66.478 796.598 66.1501 796.311 Q65.7812 796.024 65.7402 795.655 Q65.6583 795.286 65.6583 794.344 Q65.6583 792.294 65.5353 791.064 Q65.4123 789.835 65.2484 789.056 Q65.0434 788.236 64.4696 787.826 Q63.8957 787.375 63.4038 787.17 Q62.871 786.965 61.6823 786.679 L16.5941 775.447 Q15.2414 775.12 15.0365 775.12 Q14.2577 775.12 14.0528 775.611 Q13.8068 776.062 13.6839 777.374 L13.5199 780.571 Q13.5199 781.555 13.4789 781.965 Q13.4379 782.334 13.233 782.621 Q13.028 782.908 12.5771 782.908 Q12.0033 782.908 11.6344 782.785 Q11.2245 782.621 11.1015 782.334 Q10.9786 782.047 10.9376 781.842 Q10.8966 781.637 10.8966 781.309 L11.1425 770.488 L10.8966 759.749 Q10.8966 758.56 11.8393 758.56 Q13.028 758.56 13.274 759.093 Q13.5199 759.626 13.5199 761.429 Q13.5199 764.421 13.9298 765.815 Q14.2987 767.209 14.9545 767.66 Q15.6104 768.069 17.3729 768.479 L37.0887 773.439 L37.0887 747.821 L16.5941 742.779 Q15.1185 742.451 15.0365 742.451 Q14.2577 742.451 14.0528 742.943 Q13.8068 743.394 13.6839 744.706 L13.5199 747.903 Q13.5199 748.886 13.4789 749.296 Q13.4379 749.665 13.233 749.993 Q13.028 750.28 12.5771 750.28 Q12.0033 750.28 11.6344 750.157 Q11.2245 749.993 11.1015 749.706 Q10.9786 749.419 10.9376 749.214 Q10.8966 749.009 10.8966 748.681 L11.1425 737.86 L10.8966 727.08 Q10.8966 725.932 11.8393 725.932 Z" fill="#000000" fill-rule="evenodd" fill-opacity="1" /><path clip-path="url(#clip370)" d="M52.0337 675.935 L67.0111 679.636 Q67.958 679.894 68.0728 680.066 Q68.1875 680.21 68.1875 680.669 Q68.1875 681.558 67.585 681.558 Q67.5276 681.558 66.7816 681.472 Q66.0069 681.386 64.601 681.386 Q59.4076 681.386 56.3375 683.911 Q53.2674 686.407 53.2674 690.855 Q53.2674 695.015 55.4481 699.003 Q57.6287 702.992 60.8423 705.545 Q63.482 707.697 66.6955 709.189 Q69.9091 710.653 72.721 711.255 Q75.5041 711.858 77.197 712.087 Q78.8898 712.288 79.9802 712.288 Q83.1937 712.288 85.69 711.255 Q88.1575 710.222 89.5634 708.501 Q90.9694 706.75 91.658 704.742 Q92.3466 702.705 92.3466 700.495 Q92.3466 699.663 92.2318 698.659 Q92.1171 697.655 91.6867 696.106 Q91.2563 694.527 90.539 693.236 Q89.8217 691.916 88.4444 690.769 Q87.0672 689.592 85.2309 689.133 Q80.554 687.899 79.8654 687.899 Q79.2915 687.899 79.0907 688.244 Q78.8898 688.588 78.7464 689.736 L78.6316 692.835 Q78.6316 692.892 78.6316 692.978 Q78.6316 693.523 78.6316 693.753 Q78.6029 693.982 78.5455 694.241 Q78.4881 694.47 78.3734 694.556 Q78.2299 694.614 78.0004 694.614 Q77.4552 694.614 77.197 694.384 Q76.9101 694.154 76.8814 693.954 Q76.824 693.753 76.824 693.38 L76.9961 685.145 Q76.9961 684.485 76.9101 682.075 Q76.824 679.665 76.824 678.976 Q76.824 678.201 77.4552 678.201 Q78.6316 678.201 78.6316 679.148 Q78.6603 680.095 78.689 680.583 Q78.689 681.071 78.8325 681.558 Q78.9759 682.018 79.0907 682.19 Q79.1768 682.362 79.6072 682.591 Q80.0088 682.821 80.3532 682.907 Q80.6688 682.993 81.4722 683.194 Q81.9886 683.309 82.9642 683.596 Q83.9397 683.854 84.4562 683.969 L88.9896 685.088 Q92.3466 685.862 92.5762 686.092 Q92.8057 686.207 92.8057 686.494 Q92.8057 686.924 91.5432 687.842 Q90.2808 688.732 89.1618 689.133 Q89.9365 689.851 90.3955 690.31 Q90.8259 690.769 91.5145 691.83 Q92.2032 692.863 92.7483 694.241 Q94.1542 697.598 94.1542 701.586 Q94.1542 708.702 89.6495 713.178 Q85.1161 717.654 78.0578 717.654 Q73.0653 717.654 68.1588 715.358 Q63.2524 713.063 59.6085 709.419 Q55.9645 705.775 53.6978 700.955 Q51.4311 696.134 51.4311 691.314 Q51.4311 689.478 51.9189 687.842 Q52.4067 686.207 53.0092 685.231 Q53.6118 684.227 54.5012 683.337 Q55.362 682.448 55.7637 682.161 Q56.1654 681.845 56.6532 681.558 L52.1484 677.455 Q51.4311 676.738 51.4311 676.566 Q51.4311 676.222 51.632 676.078 Q51.8328 675.935 52.0337 675.935 Z" fill="#000000" fill-rule="evenodd" fill-opacity="1" /><polyline clip-path="url(#clip372)" style="stroke:#000000; stroke-linecap:butt; stroke-linejoin:round; stroke-width:4; stroke-opacity:1; fill:none" points="
  322.357,932.245 322.357,544.959 
  "/>
<polyline clip-path="url(#clip372)" style="stroke:#000000; stroke-linecap:butt; stroke-linejoin:round; stroke-width:4; stroke-opacity:1; fill:none" points="
  2293.62,1260.36 2293.62,86.0033 
  "/>
<polyline clip-path="url(#clip372)" style="stroke:#000000; stroke-linecap:butt; stroke-linejoin:round; stroke-width:4; stroke-opacity:1; fill:none" points="
  1502.52,1125.78 1502.52,546.473 
  "/>
<polyline clip-path="url(#clip372)" style="stroke:#000000; stroke-linecap:butt; stroke-linejoin:round; stroke-width:4; stroke-opacity:1; fill:none" points="
  713.914,975.84 713.914,542.948 
  "/>
<polyline clip-path="url(#clip372)" style="stroke:#000000; stroke-linecap:butt; stroke-linejoin:round; stroke-width:4; stroke-opacity:1; fill:none" points="
  1897.93,1377.98 1897.93,608.002 
  "/>
<polyline clip-path="url(#clip372)" style="stroke:#000000; stroke-linecap:butt; stroke-linejoin:round; stroke-width:4; stroke-opacity:1; fill:none" points="
  1107.66,1118.75 1107.66,626.11 
  "/>
<line clip-path="url(#clip372)" x1="338.357" y1="932.245" x2="306.357" y2="932.245" style="stroke:#000000; stroke-width:3.2; stroke-opacity:1"/>
<line clip-path="url(#clip372)" x1="338.357" y1="544.959" x2="306.357" y2="544.959" style="stroke:#000000; stroke-width:3.2; stroke-opacity:1"/>
<line clip-path="url(#clip372)" x1="2309.62" y1="1260.36" x2="2277.62" y2="1260.36" style="stroke:#000000; stroke-width:3.2; stroke-opacity:1"/>
<line clip-path="url(#clip372)" x1="2309.62" y1="86.0033" x2="2277.62" y2="86.0033" style="stroke:#000000; stroke-width:3.2; stroke-opacity:1"/>
<line clip-path="url(#clip372)" x1="1518.52" y1="1125.78" x2="1486.52" y2="1125.78" style="stroke:#000000; stroke-width:3.2; stroke-opacity:1"/>
<line clip-path="url(#clip372)" x1="1518.52" y1="546.473" x2="1486.52" y2="546.473" style="stroke:#000000; stroke-width:3.2; stroke-opacity:1"/>
<line clip-path="url(#clip372)" x1="729.914" y1="975.84" x2="697.914" y2="975.84" style="stroke:#000000; stroke-width:3.2; stroke-opacity:1"/>
<line clip-path="url(#clip372)" x1="729.914" y1="542.948" x2="697.914" y2="542.948" style="stroke:#000000; stroke-width:3.2; stroke-opacity:1"/>
<line clip-path="url(#clip372)" x1="1913.93" y1="1377.98" x2="1881.93" y2="1377.98" style="stroke:#000000; stroke-width:3.2; stroke-opacity:1"/>
<line clip-path="url(#clip372)" x1="1913.93" y1="608.002" x2="1881.93" y2="608.002" style="stroke:#000000; stroke-width:3.2; stroke-opacity:1"/>
<line clip-path="url(#clip372)" x1="1123.66" y1="1118.75" x2="1091.66" y2="1118.75" style="stroke:#000000; stroke-width:3.2; stroke-opacity:1"/>
<line clip-path="url(#clip372)" x1="1123.66" y1="626.11" x2="1091.66" y2="626.11" style="stroke:#000000; stroke-width:3.2; stroke-opacity:1"/>
<line clip-path="url(#clip372)" x1="338.357" y1="738.602" x2="306.357" y2="738.602" style="stroke:#000000; stroke-width:3.2; stroke-opacity:1"/>
<line clip-path="url(#clip372)" x1="2309.62" y1="673.183" x2="2277.62" y2="673.183" style="stroke:#000000; stroke-width:3.2; stroke-opacity:1"/>
<line clip-path="url(#clip372)" x1="1518.52" y1="836.124" x2="1486.52" y2="836.124" style="stroke:#000000; stroke-width:3.2; stroke-opacity:1"/>
<line clip-path="url(#clip372)" x1="729.914" y1="759.394" x2="697.914" y2="759.394" style="stroke:#000000; stroke-width:3.2; stroke-opacity:1"/>
<line clip-path="url(#clip372)" x1="1913.93" y1="992.99" x2="1881.93" y2="992.99" style="stroke:#000000; stroke-width:3.2; stroke-opacity:1"/>
<line clip-path="url(#clip372)" x1="1123.66" y1="872.432" x2="1091.66" y2="872.432" style="stroke:#000000; stroke-width:3.2; stroke-opacity:1"/>
</svg>
